<svg xmlns="http://www.w3.org/2000/svg" width="110" height="110" viewBox="0 0 110 110">
  <defs>
    <style>
      .cls-1 {
        fill: #009245;
      }

      .cls-2 {
        fill: #006837;
      }

      .cls-3 {
        fill: #ba1a04;
      }

      .cls-4 {
        fill: #df2400;
      }
    </style>
  </defs>
  <g id="manzana">
    <g>
      <g>
        <g id="hoja">
          <path class="cls-1" d="M16.09,2.78C13.31,13.46,21.09,26,34,31.23a28.62,28.62,0,0,0,17.8,1.52c2.77-10.68-5-23.21-17.93-28.45A28.59,28.59,0,0,0,16.09,2.78Z"/>
          <path class="cls-2" d="M16.09,2.78C14,32.07,46.35,35.83,52.37,32.82,52.9,23.61,21,3.3,16.09,2.78Z"/>
        </g>
        <path d="M51.62,41.47A2.64,2.64,0,0,1,49,38.83C49,26,55.09,15.9,62.89,15.9a2.64,2.64,0,1,1,0,5.27c-4.09,0-8.64,7.25-8.64,17.66A2.64,2.64,0,0,1,51.62,41.47Z"/>
      </g>
      <g>
        <ellipse class="cls-3" cx="36.58" cy="70.04" rx="31.58" ry="37.97"/>
        <circle class="cls-4" cx="67.03" cy="70.04" r="37.97"/>
      </g>
    </g>
  </g>
</svg>
