<svg xmlns="http://www.w3.org/2000/svg" width="110" height="110" viewBox="0 0 110 110">
  <defs>
    <style>
      .cls-1 {
        fill: #3a0605;
      }

      .cls-2 {
        fill: #afa785;
      }

      .cls-3 {
        fill: #9e5652;
      }

      .cls-4 {
        fill: #5b0b07;
      }

      .cls-5 {
        fill: #d8cfa0;
      }

      .cls-6 {
        fill: #c66960;
      }
    </style>
  </defs>
  <g id="bacon">
    <g>
      <path class="cls-1" d="M45.45,3.19A1.9,1.9,0,0,0,45.56.82h0A3.87,3.87,0,0,0,43.62,0a1.86,1.86,0,0,0-1.08.6L39.6,3.9l-.45.5a2.86,2.86,0,0,1,.41.15,5.33,5.33,0,0,1,.56.32,15.07,15.07,0,0,1,2.14,1.9Z"/>
      <path class="cls-2" d="M40.78,8.43l1.48-1.66a15.07,15.07,0,0,0-2.14-1.9,5.33,5.33,0,0,0-.56-.32,2.86,2.86,0,0,0-.41-.15L36.29,7.61a4.52,4.52,0,0,1,.66.33,15.86,15.86,0,0,1,2.51,2Z"/>
      <path class="cls-3" d="M35,14.93l1.62-1.82,2.85-3.2a15.86,15.86,0,0,0-2.51-2,4.52,4.52,0,0,0-.66-.33L34.83,9.26l-2.75,3.08A1.88,1.88,0,0,0,32,14.76a2.9,2.9,0,0,0,.49.35,6.08,6.08,0,0,1,.5.36A1.88,1.88,0,0,0,35,14.93Z"/>
      <path class="cls-4" d="M74.78,103,78,99.45a1.76,1.76,0,0,0,.18-2.1l-1.19-1c-1.34-1.08-2.66-2.07-4-3.05-4.91-3.69-8.83-6.64-10.9-12.07-2.53-6.61-2.41-16.9.6-33.17,1.63-8.84-2.21-20.73-4-25.57C55,12.49,50.06,4.27,45.56.82a1.9,1.9,0,0,1-.11,2.37L42.26,6.77c3.43,3.58,7,9.91,9.88,17.56,1.7,4.53,5.46,15.89,4.18,24.89-2.42,17-2.31,28,.25,34.82,2.12,5.7,6,8.51,10.78,12,1.62,1.19,3.28,2.41,5,3.81l.59.49a4,4,0,0,1,1.28,2.17,4.77,4.77,0,0,1,.11,1Z"/>
      <path class="cls-5" d="M74.31,103.55a4.77,4.77,0,0,0-.11-1,4,4,0,0,0-1.28-2.17l-.59-.49c-1.7-1.4-3.36-2.62-5-3.81-4.82-3.54-8.66-6.35-10.78-12C54,77.18,53.9,66.27,56.32,49.22c1.28-9-2.48-20.36-4.18-24.89-2.88-7.65-6.45-14-9.88-17.56L40.78,8.43,39.46,9.91c3.56,3.35,7.09,9,9.81,15.85,1.67,4.21,5.32,14.91,3.21,23.41C48.34,65.86,47.66,77,50.34,84.32c2.25,6.14,6.9,9.29,12.77,13.27,2.2,1.49,4.48,3,6.81,4.86l.09.07a4.22,4.22,0,0,1,1.42,4.26Z"/>
      <path class="cls-6" d="M67.77,110a1.92,1.92,0,0,0,.74-.15,1.8,1.8,0,0,0,.65-.46l1.94-2.16.05-.06H71.1l.33-.37A4.22,4.22,0,0,0,70,102.52l-.09-.07c-2.33-1.82-4.61-3.37-6.81-4.86-5.87-4-10.52-7.13-12.77-13.27-2.68-7.29-2-18.46,2.14-35.15,2.11-8.5-1.54-19.2-3.21-23.41C46.55,18.92,43,13.26,39.46,9.91l-2.85,3.2L35,14.93a1.88,1.88,0,0,1-2,.54c2.24,1.74,5.66,6.45,8.42,13.41S45.32,43,44.29,47.13a123.16,123.16,0,0,0-3.93,24c-.26,6.35.41,11.61,2,16.07,3.19,8.7,9.4,12.9,16,17.35,2.09,1.42,4.24,2.88,6.36,4.53A4.22,4.22,0,0,0,67.77,110Zm-3.84-7.46c1.16.85,2.36,1.72,3.55,2.65h0C66.29,104.24,65.09,103.37,63.93,102.52Z"/>
    </g>
  </g>
</svg>
