<svg xmlns="http://www.w3.org/2000/svg" width="110" height="110" viewBox="0 0 110 110">
  <defs>
    <style>
      .cls-1 {
        fill: #71a5a2;
      }

      .cls-2 {
        fill: #e2db54;
      }

      .cls-3 {
        fill: #83c6c4;
      }
    </style>
  </defs>
  <g id="abejas">
    <g>
      <path class="cls-1" d="M63.41,61c7.16-4.41,2.88-30.48-3.6-40.82S42.26,5,35.1,9.41,27.39,25.77,33.87,36.1,56.25,65.36,63.41,61Z"/>
      <g>
        <path class="cls-2" d="M52.94,95.67A39.66,39.66,0,0,1,47,105a81.35,81.35,0,0,0,8.8-.17,33.39,33.39,0,0,0,14-15c4-8.75,3.57-19.38-1.09-29.18a41,41,0,0,0-16-17.56l-1.11.1a79.8,79.8,0,0,0-9.8,1.64,49.76,49.76,0,0,1,9.86,13.94C57.59,71,58,84.45,52.94,95.67Z"/>
        <path class="cls-2" d="M44.41,91.88c4-8.75,3.56-19.39-1.09-29.18A41.07,41.07,0,0,0,31.54,48C14.71,54.66,3.77,66.65,5.11,79.11c1.28,11.9,13.4,21.06,30.05,24.46A32.09,32.09,0,0,0,44.41,91.88Z"/>
        <path class="cls-2" d="M104.89,68.62C103.44,55.08,88,45.1,67.74,43.1a50.19,50.19,0,0,1,9.51,13.6c5.82,12.24,6.24,25.69,1.16,36.91a38.81,38.81,0,0,1-4.69,7.77C93.2,95.26,106.35,82.22,104.89,68.62Z"/>
        <path d="M52.94,95.67C58,84.45,57.59,71,51.77,58.76a49.76,49.76,0,0,0-9.86-13.94A73,73,0,0,0,31.54,48,41.07,41.07,0,0,1,43.32,62.7c4.65,9.79,5,20.43,1.09,29.18a32.09,32.09,0,0,1-9.25,11.69A73.22,73.22,0,0,0,47,105,39.66,39.66,0,0,0,52.94,95.67Z"/>
        <path d="M77.25,56.7a50.19,50.19,0,0,0-9.51-13.6,79,79,0,0,0-14.92,0,41,41,0,0,1,16,17.56c4.66,9.8,5,20.43,1.09,29.18a33.39,33.39,0,0,1-14,15c.82-.06,1.64-.14,2.46-.22a79.55,79.55,0,0,0,15.43-3.18,38.81,38.81,0,0,0,4.69-7.77C83.49,82.39,83.07,68.94,77.25,56.7Z"/>
      </g>
      <path class="cls-3" d="M60,63.66C68.44,63.41,78,38.73,77.59,26.57S70.1,4.76,61.67,5s-15,10.31-14.6,22.48S51.58,63.91,60,63.66Z"/>
    </g>
  </g>
</svg>
