<svg xmlns="http://www.w3.org/2000/svg" width="133.57" height="144.5" viewBox="0 0 133.57 144.5">
  <defs>
    <style>
      .cls-1 {
        fill: #71a5a2;
      }

      .cls-2 {
        fill: #83c6c4;
      }

      .cls-3 {
        fill: #e2db54;
      }

      .cls-4 {
        fill: #2b2b29;
      }

      .cls-5 {
        fill: #333;
        opacity: 0.37;
      }

      .cls-6 {
        fill: #3a3e47;
      }

      .cls-7 {
        fill: #9eefef;
      }
    </style>
  </defs>
  <g id="abejas">
    <g>
      <path d="M58.32,139.11a18.44,18.44,0,0,0,7.57-5,16.72,16.72,0,0,0,2.71-4,12.45,12.45,0,0,0,1.25-5.2,10.22,10.22,0,0,0-.36-2.87c-.15-.45-.26-.91-.45-1.34s-.39-.85-.6-1.26a12.49,12.49,0,0,0-3.5-3.84,14.22,14.22,0,0,0-8.86-2.61c.47.64,1,1.2,1.46,1.75s1,1.06,1.38,1.59a30.64,30.64,0,0,1,2.34,3,13.13,13.13,0,0,1,1.46,2.86c.06.23.13.46.2.68s.09.45.14.67a3.61,3.61,0,0,1,.08.64,3.37,3.37,0,0,1,0,.64,18.41,18.41,0,0,1-1.65,6.36C60.54,133.66,59.3,136.15,58.32,139.11Z"/>
      <path d="M74.32,133.11a18.44,18.44,0,0,0,7.57-5,16.72,16.72,0,0,0,2.71-4,12.45,12.45,0,0,0,1.25-5.2,10.22,10.22,0,0,0-.36-2.87c-.15-.45-.26-.91-.45-1.34s-.39-.85-.6-1.26a12.49,12.49,0,0,0-3.5-3.84,14.22,14.22,0,0,0-8.86-2.61c.47.64,1,1.2,1.46,1.75s.95,1.06,1.38,1.59a30.64,30.64,0,0,1,2.34,3,13.13,13.13,0,0,1,1.46,2.86c.06.23.13.46.2.68s.09.45.14.67a3.61,3.61,0,0,1,.08.64,3.37,3.37,0,0,1,0,.64,18.41,18.41,0,0,1-1.65,6.36C76.54,127.66,75.3,130.15,74.32,133.11Z"/>
      <path d="M83.85,92.15c1.61,3.3,5,6,8.87,7.75a28.34,28.34,0,0,0,13,2.39,21.43,21.43,0,0,0,11.79-4c3-2.37,5-5.56,4.66-9a54.11,54.11,0,0,1-9.39,3.7,42.56,42.56,0,0,1-8.68,1.4,57.53,57.53,0,0,1-9.28-.28A105.86,105.86,0,0,1,83.85,92.15Z"/>
      <g>
        <path class="cls-1" d="M64.39.88A11.18,11.18,0,0,0,59.32,0C48.58.73,38.54,14.7,40.93,32.93c4,30.48,7.23,34.45,8.92,44.79.85-8.31,3-15.54,4.59-43.53C55.51,15.48,54.9,1.4,64.39.88Z"/>
        <path class="cls-2" d="M79,32.07C78,16.78,72.43,4.21,64.39.88c-9.49.52-8.88,14.6-10,33.31-1.61,28-3.74,35.22-4.59,43.53,0,0,0,.1,0,.15C60.62,77.17,80.15,50.4,79,32.07Z"/>
      </g>
      <g>
        <path class="cls-3" d="M37.46,69.26c-25,9.25-40.69,37-36.89,51.55,19.71-5.14,20.33-.73,43,1.93a70.23,70.23,0,0,1-9-31.25A63,63,0,0,1,37.46,69.26Z"/>
        <path class="cls-3" d="M60,64.94a85.81,85.81,0,0,0-9.33,1,49.81,49.81,0,0,0-5.17,25,60,60,0,0,0,11.85,32.89,41.1,41.1,0,0,0,17.89-3.15A70.86,70.86,0,0,1,59.38,83.47,63.52,63.52,0,0,1,60,64.94Z"/>
        <path class="cls-3" d="M71,87a60.56,60.56,0,0,0,13.83,28.05A43.52,43.52,0,0,0,97.29,99.78c-.41,0-.81,0-1.22,0A31.13,31.13,0,0,1,71,87Z"/>
        <path class="cls-4" d="M50.69,66c-2.78.45-5.6,1-8.44,1.78a48.45,48.45,0,0,0-4.79,1.51,63,63,0,0,0-2.93,22.23,70.23,70.23,0,0,0,9,31.25c3.77.44,8.15.84,13.33,1.13h.49A60,60,0,0,1,45.52,91,49.81,49.81,0,0,1,50.69,66Z"/>
        <path class="cls-4" d="M64.57,67.31c0-.83,0-1.65.1-2.47-1.53,0-3.07,0-4.65.1a63.52,63.52,0,0,0-.64,18.53,70.86,70.86,0,0,0,15.88,37.26,43,43,0,0,0,9.61-5.64A60.56,60.56,0,0,1,71,87,33,33,0,0,1,64.57,67.31Z"/>
        <path class="cls-3" d="M99.89,82.7c-2.55-9.78-13.77-16-28.68-17.53a52.5,52.5,0,0,0-.9,17.11c.18,1.6.42,3.18.73,4.76a31.13,31.13,0,0,0,25,12.77c.41,0,.81,0,1.22,0C100.16,93.76,101.17,87.63,99.89,82.7Z"/>
        <path class="cls-5" d="M99.89,82.7c-2.55-9.78-13.77-16-28.68-17.53a52.5,52.5,0,0,0-.9,17.11c.18,1.6.42,3.18.73,4.76a31.13,31.13,0,0,0,25,12.77c.41,0,.81,0,1.22,0C100.16,93.76,101.17,87.63,99.89,82.7Z"/>
        <path class="cls-4" d="M71,87c-.31-1.58-.55-3.16-.73-4.76a52.5,52.5,0,0,1,.9-17.11c-2.11-.21-4.3-.31-6.54-.33-.06.82-.1,1.64-.1,2.47A33,33,0,0,0,71,87Z"/>
        <path class="cls-5" d="M71,87c-.31-1.58-.55-3.16-.73-4.76a52.5,52.5,0,0,1,.9-17.11c-2.11-.21-4.3-.31-6.54-.33-.06.82-.1,1.64-.1,2.47A33,33,0,0,0,71,87Z"/>
      </g>
      <path d="M105.12,38.06c.91-2.68.58-6.32-.5-10a32.76,32.76,0,0,0-5.45-10.47A21,21,0,0,0,91,11c-2.8-1.08-5.47-1-7.15.81a51.45,51.45,0,0,1,6.79,5.07,44.08,44.08,0,0,1,5.22,5.61,63.16,63.16,0,0,1,4.65,6.81C102,31.84,103.41,34.61,105.12,38.06Z"/>
      <ellipse class="cls-3" cx="99.07" cy="62.81" rx="31.5" ry="31"/>
      <path class="cls-6" d="M88.65,60.43,68.11,57.24c-.8-.13-1.45-1.51-1.53-3.1h0c-.08-1.59.43-3.06,1.21-3.29L88,44.8c5.79-1.72,12.38,1.16,12.59,7h0C100.8,57.61,94.49,61.34,88.65,60.43Z"/>
      <ellipse class="cls-6" cx="108.7" cy="81.09" rx="6.08" ry="5.19" transform="matrix(0.98, -0.21, 0.21, 0.98, -14.55, 24.52)"/>
      <path class="cls-6" d="M123.34,38.13c-3.62-.24-6.91,1.77-9,5.11a13.25,13.25,0,0,0-10.19-6.38c-7.61-.51-13.91,6.24-13.53,15s7,14.9,14.39,14.3a12.47,12.47,0,0,0,9.65-6.25c2.17,3.17,5.43,5,9,4.75,5.64-.46,10-6.3,10-13.15S129.14,38.52,123.34,38.13Z"/>
      <ellipse class="cls-7" cx="104.57" cy="50.81" rx="10" ry="11"/>
      <ellipse class="cls-7" cx="124.07" cy="50.81" rx="8.5" ry="9.9"/>
      <path d="M114.47,105.26a15.69,15.69,0,0,1-9.11,6.69,20.13,20.13,0,0,1-11.8-.2,18.84,18.84,0,0,1-9.64-7.1,14.41,14.41,0,0,1-2.51-11.1A47.9,47.9,0,0,0,89,99.74a32.44,32.44,0,0,0,7.36,3.48,40.43,40.43,0,0,0,8.18,1.74A75.15,75.15,0,0,0,114.47,105.26Z"/>
      <path d="M90.13,41.33c.57-2.77-.2-6.35-1.72-9.83a32.41,32.41,0,0,0-6.7-9.71,20.8,20.8,0,0,0-9-5.58c-2.92-.73-5.56-.32-7,1.68a51.32,51.32,0,0,1,7.37,4.19A45.14,45.14,0,0,1,79,27a64.25,64.25,0,0,1,5.45,6.2C86.26,35.54,88,38.11,90.13,41.33Z"/>
      <path d="M53.57,144.5a24.61,24.61,0,0,1-10.13-6.69,22,22,0,0,1-3.62-5.36,16.53,16.53,0,0,1-1.65-7,13.89,13.89,0,0,1,.5-3.85c.2-.6.36-1.21.6-1.79s.53-1.13.82-1.67A16.59,16.59,0,0,1,44.8,113a19,19,0,0,1,11.9-3.46,29.37,29.37,0,0,1-2,2.33c-.64.74-1.28,1.43-1.86,2.14a40.66,40.66,0,0,0-3.15,4,18.4,18.4,0,0,0-2,3.82,8.06,8.06,0,0,1-.27.91c-.08.3-.11.61-.18.9a5.38,5.38,0,0,0-.12.86,4.85,4.85,0,0,0,0,.86c0,2.34.9,5.35,2.19,8.53S52.26,140.52,53.57,144.5Z"/>
      <path d="M71,143.79a24.57,24.57,0,0,1-11.29-4.48,22.35,22.35,0,0,1-4.63-4.5,16.86,16.86,0,0,1-3.05-6.5,14.39,14.39,0,0,1-.29-3.87c.07-.63.1-1.26.23-1.87s.29-1.22.46-1.81a16.35,16.35,0,0,1,3.56-6A19,19,0,0,1,66.88,109a29.46,29.46,0,0,1-1.45,2.69c-.47.85-1,1.65-1.39,2.47a40.42,40.42,0,0,0-2.25,4.61,18,18,0,0,0-1.16,4.14c0,.33,0,.64-.08,1s0,.62,0,.92a4.76,4.76,0,0,0,.07.86,4.43,4.43,0,0,0,.14.85,24.8,24.8,0,0,0,3.88,7.91C66.56,137.24,68.85,140.17,71,143.79Z"/>
      <g>
        <path class="cls-2" d="M12.05,9.21a11.24,11.24,0,0,0-4.18,3C.76,20.28,3.55,37.25,18.12,48.46c24.36,18.75,29.46,19.26,38,25.38-5.28-6.48-8.88-13.1-27.52-34C16.1,25.81,5.72,16.29,12.05,9.21Z"/>
        <path class="cls-7" d="M44.41,21C32.89,10.87,20.1,5.88,12.05,9.21c-6.33,7.08,4.05,16.6,16.52,30.6,18.64,20.93,22.24,27.55,27.52,34l.12.09C63.32,65.84,58.21,33.1,44.41,21Z"/>
      </g>
    </g>
  </g>
</svg>
