<svg xmlns="http://www.w3.org/2000/svg" width="120" height="120" viewBox="0 0 120 120">
  <defs>
    <style>
      .cls-1 {
        fill: #cabca6;
      }

      .cls-2 {
        fill: #774318;
      }

      .cls-3 {
        fill: #603813;
      }

      .cls-4 {
        fill: #49290f;
      }
    </style>
  </defs>
  <g id="butons">
    <g id="home">
      <g>
        <path class="cls-1" d="M104.4,20A58.93,58.93,0,0,0,92,9.63a59.47,59.47,0,0,0-16.19-7A58.81,58.81,0,0,0,69,1.22a60,60,0,0,0-17.29,0,58,58,0,0,0-7.76,1.68A60.16,60.16,0,0,0,.4,56.83a60.71,60.71,0,0,0,.06,8.74,59.57,59.57,0,0,0,1.06,7.36A59.4,59.4,0,0,0,9.28,92.2a60.74,60.74,0,0,0,4.34,6l.6.71c.12.15.24.3.37.44.83,1,1.7,1.91,2.59,2.81a55.57,55.57,0,0,0,4.38,4,58.14,58.14,0,0,0,12.6,8,60,60,0,0,0,19.78,5.4c1.81.17,3.63.25,5.45.26a60.3,60.3,0,0,0,58-43.45A59.53,59.53,0,0,0,119,69.28c.24-1.46.42-2.93.54-4.4A58.72,58.72,0,0,0,119.7,58a57.88,57.88,0,0,0-.49-6A57.21,57.21,0,0,0,118.12,46a60.31,60.31,0,0,0-1.76-6,58.81,58.81,0,0,0-9.56-17.19c-.45-.56-.91-1.12-1.39-1.68Z"/>
        <g>
          <path d="M56.06,59.82l-9,7.76L15.33,94.89l.58.69,10.85-8.92L57.34,61.52l48.5-39.86c-.44-.55-.88-1.09-1.35-1.63l-1-1.11-.5.47Z"/>
          <path class="cls-2" d="M19.38,61.28C25.15,48.55,31.11,35.38,46.12,20A108.67,108.67,0,0,1,60.34,7.65c2.64-2,5.35-4,8.74-7a58,58,0,0,0-16.8,0C51.63,1.85,51,3,50.28,4.22,43.9,15.36,28,43.2,3.57,70.31A57,57,0,0,0,8,83.39c1.28-2,2.48-4.09,3.62-6.15C14.63,71.78,17,66.44,19.38,61.28Z"/>
          <path class="cls-2" d="M44.75,2.32a58.8,58.8,0,0,0-36,29.54c1.72-.08,3,.29,3.75,1.16C15.09,36,11,44.12,2.48,54.67a60.16,60.16,0,0,0,.06,8.49c21.69-25,36-50,41.94-60.38Z"/>
          <path class="cls-2" d="M66.27,35.06C60.55,43.74,58.93,49.57,57,56.33c-.31,1.13-.63,2.29-1,3.49l47-40.43.5-.47A57.5,57.5,0,0,0,91.46,8.82,108,108,0,0,0,66.27,35.06Z"/>
          <path class="cls-2" d="M50.44,56.79c2-7.11,3.85-13.82,10.34-23.67A116.53,116.53,0,0,1,86.27,5.94,57.7,57.7,0,0,0,75.73,2,143,143,0,0,1,63.35,12.23a97.73,97.73,0,0,0-13,11.24c-13.76,14.1-19.12,26-24.8,38.49-2.41,5.32-4.89,10.82-8.07,16.58-2,3.6-4.13,7.09-6.39,10.49a58.51,58.51,0,0,0,4.22,5.86L47.05,67.58C48.54,63.59,49.5,60.15,50.44,56.79Z"/>
          <path class="cls-3" d="M52.28.69a56.17,56.17,0,0,0-7.53,1.63l-.27.46C38.56,13.11,24.23,38.15,2.54,63.16a60.06,60.06,0,0,0,1,7.15C28,43.2,43.9,15.36,50.28,4.22,51,3,51.63,1.85,52.28.69Z"/>
          <path class="cls-3" d="M25.57,62c5.68-12.54,11-24.39,24.8-38.49a97.73,97.73,0,0,1,13-11.24A143,143,0,0,0,75.73,2,56,56,0,0,0,69.08.65c-3.39,3-6.1,5-8.74,7A108.67,108.67,0,0,0,46.12,20c-15,15.39-21,28.56-26.74,41.29-2.34,5.16-4.75,10.5-7.76,16C10.48,79.3,9.28,81.35,8,83.39A59.83,59.83,0,0,0,11.11,89c2.26-3.4,4.41-6.89,6.39-10.49C20.68,72.78,23.16,67.28,25.57,62Z"/>
          <path class="cls-3" d="M60.78,33.12C54.29,43,52.42,49.68,50.44,56.79c-.94,3.36-1.9,6.8-3.39,10.79l9-7.76c.35-1.2.67-2.36,1-3.49,1.89-6.76,3.51-12.59,9.23-21.27A108,108,0,0,1,91.46,8.82a57.34,57.34,0,0,0-5.19-2.88A116.53,116.53,0,0,0,60.78,33.12Z"/>
          <path class="cls-3" d="M12.54,33c-.75-.87-2-1.24-3.75-1.16A58.44,58.44,0,0,0,2.48,54.67C11,44.12,15.09,36,12.54,33Z"/>
          <path class="cls-2" d="M18.78,98.74l.22-.35c2.62-4.08,5.16-8,7.76-11.73L15.91,95.58l.35.43Q17.49,97.42,18.78,98.74Z"/>
          <path class="cls-2" d="M60.32,87.92c-6.9,4.57-11.7,8.37-25,22.56a58.12,58.12,0,0,0,12.63,4.24A381.1,381.1,0,0,1,83.54,81.39l.19-.16a400,400,0,0,1,34.64-25.44,54.68,54.68,0,0,0-.47-5.85l-.32.18C116.92,50.54,111,54.36,60.32,87.92Z"/>
          <path class="cls-2" d="M87,85.6a369.67,369.67,0,0,0-32.5,30.12c1.76.17,3.52.25,5.29.26,6.61-8,17.43-18.49,30.38-29.13a272,272,0,0,1,27.51-20.08c.22-1.42.4-2.85.52-4.28q-16.05,10.7-31,23Z"/>
          <path class="cls-2" d="M61.32,60.21C66.05,58.68,72,56.78,81,52.92c16.47-7,26.64-13.32,30.24-18.74a23.16,23.16,0,0,0,1.22-2.09,57.6,57.6,0,0,0-6.65-10.43L57.34,61.52C58.58,61.1,59.88,60.67,61.32,60.21Z"/>
          <path class="cls-2" d="M81.93,58.69c-9.47,4-15.85,6.09-20.5,7.59-2.13.69-4,1.29-5.57,1.9-14.14,5.4-21.31,16.56-31.23,32L23,102.67a57.26,57.26,0,0,0,7.21,5.12l3.6-3.8C45.24,92.07,50.43,87.89,57.76,83c52.05-34.48,57.38-37.89,57.77-38.12l1.31-.74a57.69,57.69,0,0,0-1.71-5.82C111.25,43,103.06,49.7,81.93,58.69Z"/>
          <path class="cls-2" d="M117.56,50.13l-.07,0Z"/>
          <path class="cls-3" d="M57.76,83c-7.33,4.85-12.52,9-23.92,20.95l-3.6,3.8q2.46,1.47,5,2.69c13.35-14.19,18.15-18,25-22.56,50.65-33.56,56.6-37.38,57.26-37.8l.32-.18a56.1,56.1,0,0,0-1.06-5.76l-1.31.74C115.14,45.15,109.81,48.56,57.76,83Zm59.73-32.87.07,0Z"/>
          <path class="cls-3" d="M83.54,81.39A381.1,381.1,0,0,0,47.9,114.72a58.54,58.54,0,0,0,6.59,1A369.67,369.67,0,0,1,87,85.6l.19-.15q14.92-12.26,31-23a57.6,57.6,0,0,0,.18-6.7A400,400,0,0,0,83.73,81.23Z"/>
          <path class="cls-3" d="M81,52.92c-9.08,3.86-15,5.76-19.71,7.29-1.44.46-2.74.89-4,1.31L26.76,86.66c-2.6,3.71-5.14,7.65-7.76,11.73l-.22.35q2,2.08,4.25,3.93l1.6-2.49c9.92-15.44,17.09-26.6,31.23-32,1.6-.61,3.44-1.21,5.57-1.9,4.65-1.5,11-3.56,20.5-7.59,21.13-9,29.32-15.67,33.2-20.33a57.88,57.88,0,0,0-2.64-6.27,23.16,23.16,0,0,1-1.22,2.09C107.67,39.6,97.5,45.91,81,52.92Z"/>
          <path class="cls-3" d="M59.78,116a59.47,59.47,0,0,0,8.53-.6C71.17,110,80.6,100.16,92.84,90.11A160.75,160.75,0,0,1,116.1,73.77a58,58,0,0,0,1.57-7A272,272,0,0,0,90.16,86.85C77.21,97.49,66.39,108,59.78,116Z"/>
          <path class="cls-2" d="M68.31,115.38A58.65,58.65,0,0,0,116.1,73.77,160.75,160.75,0,0,0,92.84,90.11C80.6,100.16,71.17,110,68.31,115.38Z"/>
        </g>
        <polygon points="15.98 95.54 14.86 97.33 14.29 96.58 15.47 94.82 15.98 95.54"/>
      </g>
      <path class="cls-4" d="M93,34.64,66.22,18.26a7.65,7.65,0,0,0-7.94,0L31.48,34.64c-25.18,16-5.93,15.59,1.59,18.51V86.79a7.48,7.48,0,0,0,7.55,7.36H83.88a7.48,7.48,0,0,0,7.55-7.36V53.15C99,50.23,116.3,50.63,93,34.64Z"/>
      <path class="cls-1" d="M91,38.09,66.35,22.67a6.85,6.85,0,0,0-7.29,0L34.45,38.09C11.33,53.15,29,52.77,35.92,55.53V87.22a7,7,0,0,0,6.93,6.93H82.56a7,7,0,0,0,6.93-6.93V55.53C96.4,52.77,112.33,53.15,91,38.09Z"/>
      <path d="M32.33,80l1.19-.2S87.87,35.44,89.21,34.53s2.46-5.64,2.46-5.64l2.54,1.34.1.85-2.64,5.36L34.4,80.84l-1.08.46Z"/>
    </g>
  </g>
</svg>
