<svg xmlns="http://www.w3.org/2000/svg" width="120" height="120" viewBox="0 0 120 120">
  <defs>
    <style>
      .cls-1 {
        fill: #cabca6;
      }

      .cls-2 {
        fill: #774318;
      }

      .cls-3 {
        fill: #603813;
      }

      .cls-4 {
        fill: #49290f;
      }
    </style>
  </defs>
  <g id="butons">
    <g id="mute">
      <path d="M89.05,56.32l-2.91.1s-58.27,2.24-59.6,2.42S22,56.26,22,56.26l-.86,2.57.39.68L26,61.77l60.12-3.34L89,58Z"/>
      <g>
        <path class="cls-1" d="M110.89,30A57.14,57.14,0,0,1,118,56.31a.25.25,0,0,1,0,.08l1.86.51c-.11-1.78-.3-3.54-.56-5.27A58.19,58.19,0,0,0,118,45.15,58.89,58.89,0,0,0,112.64,32a61.07,61.07,0,0,0-4-6.27,61.77,61.77,0,0,0-5.28-6.26A55.76,55.76,0,0,1,107,23.92,56.65,56.65,0,0,1,110.89,30Z"/>
        <path class="cls-1" d="M1.63,56.28A57.73,57.73,0,0,1,4.17,40.76,58.56,58.56,0,0,1,6.22,35.2a56.89,56.89,0,0,1,3.83-7.4A58.52,58.52,0,0,0,.25,57l1.38-.51Z"/>
        <path class="cls-1" d="M98.1,101.3a60.16,60.16,0,0,1-6.86,5.11,58.51,58.51,0,0,1-69.12-4.63q-1.65-1.4-3.19-2.91a59.35,59.35,0,0,1-8-9.69c-1.06-1.64-2.05-3.32-3-5.06a56.84,56.84,0,0,1-4.59-12A57.92,57.92,0,0,1,1.65,59.9l-1.5.83c0,.67,0,1.33,0,2A58.7,58.7,0,0,0,4.16,82a60.49,60.49,0,0,0,2.57,5.68,57.55,57.55,0,0,0,3,5.21,61.31,61.31,0,0,0,8.2,10c1.06,1,2.16,2,3.29,3a60.32,60.32,0,0,0,71.15,4.77,60.53,60.53,0,0,0,7.06-5.27c1.17-1,2.29-2.08,3.38-3.18l-2.73-2.71C99.46,100.08,98.79,100.7,98.1,101.3Z"/>
        <path class="cls-1" d="M120,60c0-.31,0-.62,0-.92s0-.8,0-1.2L118,57.26v.51c0,1.24,0,2.48-.12,3.71a57.36,57.36,0,0,1-2.78,14.34c-.6,1.81-1.29,3.59-2.06,5.32a58.42,58.42,0,0,1-6,10.34L109.61,94a59.65,59.65,0,0,0,5.28-9.4q1.19-2.67,2.12-5.47a57.94,57.94,0,0,0,2.18-8.84,55.26,55.26,0,0,0,.68-5.92c.08-1.27.13-2.54.13-3.82C120,60.34,120,60.15,120,60Z"/>
        <path class="cls-2" d="M27.87,10.37c.54-.34,1.08-.67,1.63-1L28.55,9c-.92.58-1.82,1.2-2.71,1.83l.51.51Z"/>
        <path class="cls-2" d="M18.12,18.08l-.3-.29c-.69.71-1.37,1.44-2,2.18.15,0,.3,0,.45,0C16.86,19.33,17.48,18.7,18.12,18.08Z"/>
        <path class="cls-2" d="M91.42,29.93c0,.2,0,.39,0,.58l0,2.22,1.62.76c5.14,2.38,10.46,4.85,16.29,7,2.21.82,4.47,1.59,6.76,2.31A56.65,56.65,0,0,0,110.89,30c-7.09-.91-14-2.05-20.49-3.33A7,7,0,0,1,91.42,29.93Z"/>
        <path class="cls-2" d="M20,19.93l-1.86-1.85c-.64.62-1.26,1.25-1.87,1.89C17.58,20,18.82,20,20,19.93Z"/>
        <path class="cls-2" d="M45.81,19.64A115.3,115.3,0,0,1,76.6,26.43l1.17-.64L80.1,24.5A414.08,414.08,0,0,1,32.37,10.41l-2.87-1c-.55.32-1.09.65-1.63,1l-1.52,1,7.9,7.84A104,104,0,0,1,45.81,19.64Z"/>
        <path class="cls-2" d="M36.63,5.82a60.24,60.24,0,0,1,44.53-.94q.32-.3.69-.6A58.8,58.8,0,0,0,35.32,5.35l.51.19Z"/>
        <path class="cls-2" d="M103,19l.38.4c-.6-.67-1.21-1.34-1.85-2l-.2,0C101.87,17.94,102.44,18.48,103,19Z"/>
        <path class="cls-2" d="M101.31,17.41C88.07,15,79.76,11.49,79.76,7.6a3.88,3.88,0,0,1,1.4-2.72,60.24,60.24,0,0,0-44.53.94C48.3,9.94,75,19.23,107,23.92a55.76,55.76,0,0,0-3.64-4.49L103,19C102.44,18.48,101.87,17.94,101.31,17.41Z"/>
        <path class="cls-2" d="M22.3,56.31V52a11.53,11.53,0,0,1,6.31-10.24,117.14,117.14,0,0,0-24.44-1A57.73,57.73,0,0,0,1.63,56.28c.23,0,.45,0,.69,0Z"/>
        <path class="cls-2" d="M11.79,25.34h-.15c-.55.8-1.08,1.63-1.59,2.46l.42-.65C10.89,26.54,11.35,25.94,11.79,25.34Z"/>
        <path class="cls-2" d="M38,37.83,25.25,25.16a133.23,133.23,0,0,1-13.46.18c-.44.6-.9,1.2-1.32,1.81l-.42.65a56.89,56.89,0,0,0-3.83,7.4A120.31,120.31,0,0,1,38,37.83Z"/>
        <path class="cls-2" d="M91.29,39.21,91.1,50.05,91,56.31h27a57,57,0,0,0-.63-7.2q-5.9-1.63-11.68-3.77C100.51,43.4,95.81,41.29,91.29,39.21Z"/>
        <path class="cls-2" d="M61.92,34.51,66.45,32l1.85-1,.29-.16,1.27-.7a105.34,105.34,0,0,0-25-5.08c-1.87-.17-3.53-.27-5.07-.33L54,38.85Z"/>
        <path class="cls-3" d="M34.85,6.58c.58-.27,1.18-.51,1.78-.76l-.8-.28-.51-.19A59.75,59.75,0,0,0,28.55,9l.95.34A60.32,60.32,0,0,1,34.85,6.58Z"/>
        <path class="cls-3" d="M80.1,24.5l.65-.35a7.4,7.4,0,0,1,1.78-.7,7.22,7.22,0,0,1,6.55,1.66,6.88,6.88,0,0,1,1.32,1.57C96.94,28,103.8,29.1,110.89,30A56.65,56.65,0,0,0,107,23.92c-32-4.69-58.7-14-70.37-18.1-.6.25-1.2.49-1.78.76a60.32,60.32,0,0,0-5.35,2.8l2.87,1A414.08,414.08,0,0,0,80.1,24.5Z"/>
        <path class="cls-3" d="M14.75,21.63c.49-.56,1-1.11,1.5-1.66-.15,0-.3,0-.45,0a58.31,58.31,0,0,0-4.16,5.37h.15C12.73,24.07,13.71,22.82,14.75,21.63Z"/>
        <path class="cls-3" d="M44.87,25.06a105.34,105.34,0,0,1,25,5.08l6.74-3.71a115.3,115.3,0,0,0-30.79-6.79,104,104,0,0,0-11.56-.42l5.55,5.51C41.34,24.79,43,24.89,44.87,25.06Z"/>
        <path class="cls-3" d="M93,33.49l-1.62-.76-.11,6.48c4.52,2.08,9.22,4.19,14.42,6.13q5.78,2.14,11.68,3.77a57.05,57.05,0,0,0-1.32-6.29c-2.29-.72-4.55-1.49-6.76-2.31C103.48,38.34,98.16,35.87,93,33.49Z"/>
        <path class="cls-3" d="M16.25,20c-.51.55-1,1.1-1.5,1.66-1,1.19-2,2.44-3,3.71a133.23,133.23,0,0,0,13.46-.18L20,19.93C18.82,20,17.58,20,16.25,20Z"/>
        <path class="cls-3" d="M28.61,41.71a11.49,11.49,0,0,1,5.32-1.3h6.69L38,37.83A120.31,120.31,0,0,0,6.22,35.2a58.56,58.56,0,0,0-2,5.56A117.14,117.14,0,0,1,28.61,41.71Z"/>
        <path class="cls-3" d="M82.74,5.48a59.87,59.87,0,0,1,18.57,11.93l.2,0A58.42,58.42,0,0,0,81.85,4.28q-.37.3-.69.6C81.69,5.08,82.22,5.27,82.74,5.48Z"/>
        <path class="cls-3" d="M79.76,7.6c0,3.89,8.31,7.38,21.55,9.81A59.87,59.87,0,0,0,82.74,5.48c-.52-.21-1-.4-1.58-.6A3.88,3.88,0,0,0,79.76,7.6Z"/>
        <path class="cls-2" d="M118,57.21l-14,.32c4.4,1.11,8.89,2.45,13.54,3.83l.4.12c.08-1.23.12-2.47.12-3.71v-.51l-.09,0Z"/>
        <path class="cls-2" d="M107.08,91.48a58.42,58.42,0,0,0,6-10.34c-7.76-.82-13.39-1.27-17.88-1.45Z"/>
        <path class="cls-2" d="M57.52,90.58c7.16-.16,14-.11,20.58.1l0,0-3.42-2L68.9,85.2l-4.82-2.88C17.87,88.18,12,89,11.33,89.1l-.37.08a57.56,57.56,0,0,0,3.47,4.74,398.31,398.31,0,0,1,42.85-3.33Z"/>
        <path class="cls-2" d="M85.7,90.15a6.79,6.79,0,0,1-1.26.78q3.82.18,7.53.44l-3.25-3.23A7.34,7.34,0,0,1,85.7,90.15Z"/>
        <path class="cls-2" d="M57.66,96h-.25c-12.87.3-25.72,1.25-38.48,2.83q1.55,1.51,3.19,2.91a270.57,270.57,0,0,1,34-2.73c16.76-.39,31.81.51,42,2.25.69-.6,1.36-1.22,2-1.85L98,97.29A369.67,369.67,0,0,0,57.66,96Z"/>
        <path class="cls-2" d="M26.7,71.35a11.65,11.65,0,0,1-.8-1.18,11.45,11.45,0,0,1-3.6-8.31V59.41l-20.61.47,0,0A57.92,57.92,0,0,0,3.42,72.12a20.74,20.74,0,0,0,2.28.79C10.06,74.13,17.1,73.6,26.7,71.35Z"/>
        <path class="cls-2" d="M90.92,60.57l0,3,0,2.23-.15,8.33a191.3,191.3,0,0,1,19.25,1.15c1.62.16,3.36.33,5.21.53a57,57,0,0,0,2.12-8.59l-2.83-.84C105.64,63.78,98.07,61.53,90.92,60.57Z"/>
        <path class="cls-2" d="M56.43,77.77l-2-1.17-1.78-1.06H35.28a10.91,10.91,0,0,1-1.73-.15c-15,4-23.1,4-28,3.21A57.15,57.15,0,0,0,8,84.12l1.47-.29C9.87,83.75,14.66,83.07,56.43,77.77Z"/>
        <path class="cls-2" d="M11.35,89.1h0Z"/>
        <path class="cls-3" d="M64.08,82.32,61.81,81l-5.38-3.2c-41.77,5.3-46.56,6-46.95,6.06L8,84.12c.9,1.74,1.89,3.42,3,5.06l.37-.08C12,89,17.87,88.18,64.08,82.32ZM11.42,89.09h0Z"/>
        <path class="cls-3" d="M90.68,74.14v1l4.53,4.5c4.49.18,10.12.63,17.88,1.45.77-1.73,1.46-3.51,2.06-5.32-1.85-.2-3.59-.37-5.21-.53A191.3,191.3,0,0,0,90.68,74.14Z"/>
        <path class="cls-3" d="M57.66,96A369.67,369.67,0,0,1,98,97.29l-6-5.92q-3.7-.25-7.53-.44a6.71,6.71,0,0,1-4.11.57,6.63,6.63,0,0,1-2.23-.82c-6.58-.21-13.42-.26-20.58-.1h-.24a398.31,398.31,0,0,0-42.85,3.33,57.06,57.06,0,0,0,4.5,5C31.69,97.29,44.54,96.34,57.41,96Z"/>
        <path class="cls-3" d="M104,57.53l-13,.3,0,2.74c7.15,1,14.72,3.21,23.51,5.82l2.83.84a57.46,57.46,0,0,0,.66-5.75l-.4-.12C112.87,60,108.38,58.64,104,57.53Z"/>
        <path class="cls-3" d="M33.55,75.39a11,11,0,0,1-6.85-4c-9.6,2.25-16.64,2.78-21,1.56a20.74,20.74,0,0,1-2.28-.79A57.58,57.58,0,0,0,5.51,78.6C10.45,79.42,18.54,79.37,33.55,75.39Z"/>
        <path class="cls-3" d="M56.07,99.05a270.57,270.57,0,0,0-33.95,2.73,58.85,58.85,0,0,0,5.76,4.28,161.56,161.56,0,0,1,28.29-2.8c15.83-.36,29.42,1,35.07,3.15a60.16,60.16,0,0,0,6.86-5.11C87.88,99.56,72.83,98.66,56.07,99.05Z"/>
        <path class="cls-2" d="M56.17,103.26a161.56,161.56,0,0,0-28.29,2.8,58.64,58.64,0,0,0,63.36.35C85.59,104.22,72,102.9,56.17,103.26Z"/>
        <path d="M.16,59c0-.67,0-1.33.09-2l-.14,0L0,60.81l.15-.08c0-.06,0-.13,0-.19C.14,60,.15,59.52.16,59Z"/>
        <path d="M1.94,59.74l-.11-3.31-.2.08c0,.42,0,.84,0,1.26,0,.7,0,1.41,0,2.11h0Z"/>
        <path d="M1.65,59.88v0l0,0Z"/>
        <path d="M120,57.85l0-.94h0c0,.31,0,.62,0,.94Z"/>
        <path d="M118,57.21H118c0-.27,0-.54,0-.82l-.16,0Z"/>
        <path d="M118,57.21v0l.09,0v0Z"/>
        <path class="cls-4" d="M86.9,30.34a4.87,4.87,0,0,1,.59.61c1.32.59,2.62,1.19,3.91,1.78l0-2.22c0-.19,0-.38,0-.58a7,7,0,0,0-1-3.25q-5.3-1-10.3-2.18l-2.33,1.29-1.17.64q2.85,1,5.52,2.18A6.74,6.74,0,0,1,86.9,30.34Z"/>
        <path class="cls-4" d="M24.4,55.46a10.87,10.87,0,0,1,10.88-10.8h6.6l-1.5-.45a93.27,93.27,0,0,0-11.77-2.5A11.53,11.53,0,0,0,22.3,52v4.36h2.1Z"/>
        <path class="cls-4" d="M88.79,53.68l0,2.63H91l.11-6.26.19-10.84-2.23-1Z"/>
        <path class="cls-4" d="M68.3,31l-1.85,1-4.53,2.49L54,38.85l2.84,2.82,4.6-2.53,4.24-2.34,1.73-.95.27-.15,7-3.82q-2.34-.91-4.81-1.74l-1.27.7Z"/>
        <path class="cls-4" d="M89.08,25.11a7.22,7.22,0,0,0-6.55-1.66,7.4,7.4,0,0,0-1.78.7l-.65.35q5,1.14,10.3,2.18A6.88,6.88,0,0,0,89.08,25.11Z"/>
        <path class="cls-4" d="M89.09,34.86c0,.17,0,.35,0,.54l0,2.77,2.23,1,.11-6.48c-1.29-.59-2.59-1.19-3.91-1.78A6.47,6.47,0,0,1,89.09,34.86Z"/>
        <path class="cls-4" d="M74.67,31.88,76.31,31l2.79-1.53a7.07,7.07,0,0,1,1.67-.66,6.24,6.24,0,0,1,1.35-.17q-2.67-1.12-5.52-2.18l-6.74,3.71Q72.34,31,74.67,31.88Z"/>
        <path class="cls-4" d="M41.88,44.66h3l-4.28-4.25H33.93a11.49,11.49,0,0,0-5.32,1.3,93.27,93.27,0,0,1,11.77,2.5Z"/>
        <path class="cls-4" d="M85.7,90.15a7.34,7.34,0,0,0,3-2l-.89-.88A6.6,6.6,0,0,1,85.7,90.15Z"/>
        <path class="cls-4" d="M24.4,59.36l-2.1,0v2.45a11.45,11.45,0,0,0,3.6,8.31,10.59,10.59,0,0,1-1.5-5.43Z"/>
        <path class="cls-4" d="M88.57,66.35l0,2.09L88.46,73l1.15,1.15h1.07l.15-8.33,0-2.23,0-3c-.75-.1-1.5-.18-2.24-.25Z"/>
        <path class="cls-4" d="M90.67,75.19v-1H89.61Z"/>
        <path class="cls-4" d="M88.68,60.32c.74.07,1.49.15,2.24.25l0-2.74-2.25.05Z"/>
        <path class="cls-1" d="M82.06,90.45a7.05,7.05,0,0,1-2.44-.91L76,87.36l-6.12-3.64L66.9,82l-2.82.36L68.9,85.2l5.73,3.41,3.42,2,0,0c2.14.06,4.26.15,6.34.25a6.79,6.79,0,0,0,1.26-.78A7.12,7.12,0,0,1,82.06,90.45Z"/>
        <path class="cls-1" d="M25.9,70.17a11.65,11.65,0,0,0,.8,1.18l.49-.12A10.1,10.1,0,0,1,25.9,70.17Z"/>
        <path class="cls-1" d="M54.43,74.53l-1.9-1.13h-12q-3.72,1.13-7,2a10.91,10.91,0,0,0,1.73.15H52.69l1.78,1.06,2,1.17,2.83-.36Z"/>
        <path class="cls-1" d="M62.28,79.21l-3-1.8-2.83.36L61.81,81l2.27,1.35L66.9,82Z"/>
        <path class="cls-1" d="M80.33,91.5a6.71,6.71,0,0,0,4.11-.57c-2.08-.1-4.2-.19-6.34-.25A6.63,6.63,0,0,0,80.33,91.5Z"/>
        <path class="cls-1" d="M33.93,73.4a11.56,11.56,0,0,1-6.74-2.17l-.49.12a11,11,0,0,0,6.85,4q3.26-.87,7-2Z"/>
        <path class="cls-1" d="M87.83,87.26l-7.09-7-1.36.16L66.9,82l2.95,1.76L76,87.36l3.65,2.18a7.19,7.19,0,0,0,6.08.61A6.6,6.6,0,0,0,87.83,87.26Z"/>
        <path class="cls-1" d="M40.85,67.37a206.68,206.68,0,0,0,19.6-7.29l-1.53-1.51-34.52.79v5.38a10.59,10.59,0,0,0,1.5,5.43,10.1,10.1,0,0,0,1.29,1.06C31.29,70.25,35.83,69,40.85,67.37Z"/>
        <path class="cls-1" d="M76.17,60.81,88.46,73l.08-4.56,0-2.09.11-6A44.06,44.06,0,0,0,76.17,60.81Z"/>
        <path class="cls-1" d="M64.91,64.51l-.49.2c-4.5,1.9-10.68,4.5-20.49,7.63L40.52,73.4h12l1.9,1.13,4.83,2.88,16.53-2.1Z"/>
        <path class="cls-1" d="M80.74,80.22l-4.95-4.91-16.53,2.1,3,1.8L66.9,82l12.48-1.58Z"/>
        <path class="cls-1" d="M76.17,60.81a44.06,44.06,0,0,1,12.51-.49l0-2.44-15.15.35Z"/>
        <path class="cls-1" d="M64.42,64.71l.49-.2-4.46-4.43a206.68,206.68,0,0,1-19.6,7.29c-5,1.6-9.56,2.88-13.66,3.86a11.56,11.56,0,0,0,6.74,2.17h6.59l3.41-1.06C53.74,69.21,59.92,66.61,64.42,64.71Z"/>
        <path class="cls-1" d="M106.28,92.59c-.21.27-.43.52-.64.79l2.57,2.55c.48-.64.94-1.28,1.4-1.94l-2.53-2.51C106.81,91.84,106.55,92.22,106.28,92.59Z"/>
        <path class="cls-4" d="M24.39,12.76c.64-.47,1.3-.93,2-1.38l-.51-.51c-.65.47-1.29.94-1.91,1.43Z"/>
        <path class="cls-4" d="M34.25,19.22l-7.9-7.84c-.66.45-1.32.91-2,1.38L31,19.33C32.06,19.28,33.13,19.24,34.25,19.22Z"/>
        <path class="cls-4" d="M39.8,24.73c-1.22-.05-2.35-.08-3.43-.08L51.88,40,54,38.85Z"/>
        <path class="cls-4" d="M39.8,24.73l-5.55-5.51c-1.12,0-2.19.06-3.23.11l5.35,5.32C37.45,24.65,38.58,24.68,39.8,24.73Z"/>
        <path class="cls-4" d="M91.75,79.6l12.93,12.83,1.6.16c.27-.37.53-.75.8-1.11L95.2,79.69C94,79.64,92.83,79.61,91.75,79.6Z"/>
        <path class="cls-4" d="M91.75,79.6c1.08,0,2.22,0,3.45.09l-4.53-4.5-.06,3.28Z"/>
        <path class="cls-4" d="M105.64,93.38c.21-.27.43-.52.64-.79l-1.6-.16Z"/>
        <polygon class="cls-4" points="56.88 41.67 54.04 38.85 51.88 40.04 54.72 42.86 56.88 41.67"/>
        <path class="cls-4" d="M89.61,74.15,88.46,73l0,1.18Z"/>
        <path class="cls-4" d="M88.44,74.18l0,2.09,2.21,2.2.06-3.28-1.06-1Z"/>
        <path class="cls-1" d="M73.44,61.43,86.36,74.25c.68,0,1.37-.06,2.08-.07l0-1.18L76.17,60.81C75.26,61,74.35,61.19,73.44,61.43Z"/>
        <path class="cls-1" d="M88.4,76.27l0-2.09c-.71,0-1.4,0-2.08.07Z"/>
        <path class="cls-1" d="M73.44,61.43c.91-.24,1.82-.45,2.73-.62l-2.6-2.58-3.28.08Z"/>
        <path class="cls-1" d="M104.32,100.6l-2.68-2.66c-.5.51-1,1-1.52,1.51l2.73,2.71.57-.57C103.73,101.27,104,100.93,104.32,100.6Z"/>
        <path class="cls-1" d="M19.68,16.62l-.34-.35c-.52.5-1,1-1.52,1.52l.3.29C18.63,17.58,19.15,17.1,19.68,16.62Z"/>
        <path class="cls-1" d="M22.91,19.82l-3.23-3.2c-.53.48-1.05,1-1.56,1.46L20,19.93C21,19.9,22,19.87,22.91,19.82Z"/>
        <path class="cls-1" d="M28.11,25l-.41,0-2.45.15L38,37.83c1.37.31,2.72.65,4.06,1Z"/>
        <path class="cls-1" d="M28.11,25l-5.2-5.16c-.93.05-1.91.08-2.93.11l5.27,5.23L27.7,25Z"/>
        <path class="cls-1" d="M43.66,40.41l-1.58-1.56c-1.34-.37-2.69-.71-4.06-1l2.6,2.58Z"/>
        <path class="cls-1" d="M88.72,88.14,92,91.37l3.27.22L89.91,86.3A7.09,7.09,0,0,1,88.72,88.14Z"/>
        <path class="cls-1" d="M98,97.29l2.17,2.16c.52-.49,1-1,1.52-1.51l-.35-.35Z"/>
        <path class="cls-1" d="M98,97.29l3.34.3-6.05-6L92,91.37Z"/>
        <path class="cls-1" d="M88.25,85a6.54,6.54,0,0,1-.42,2.23l.89.88a7.09,7.09,0,0,0,1.19-1.84l-1.65-1.64Z"/>
        <polygon points="59.68 56.31 56.64 56.31 58.92 58.57 61.89 58.5 59.68 56.31"/>
        <path class="cls-1" d="M87.83,87.26A6.54,6.54,0,0,0,88.25,85v-.37l-4.77-4.73c-.92.08-1.83.18-2.75.29Z"/>
        <path class="cls-1" d="M62.58,59.19l-.69-.69-3,.07,1.53,1.51.09,0Z"/>
        <path class="cls-1" d="M64.91,64.51l10.88,10.8,2.35-.3.35,0L67.05,63.62Z"/>
        <path class="cls-1" d="M75.79,75.31l4.95,4.91c.92-.11,1.83-.21,2.75-.29l-5-5-.35,0Z"/>
        <path class="cls-1" d="M67.05,63.62l-4.47-4.43-2,.85-.09,0,4.46,4.43Z"/>
        <path class="cls-1" d="M101.64,97.94l2.68,2.66c1.25-1.35,2.45-2.75,3.57-4.22l.32-.45-2.57-2.55c-1.17,1.48-2.39,2.91-3.7,4.27Z"/>
        <path class="cls-1" d="M23.93,12.3a58.06,58.06,0,0,0-4.59,4l.34.35a56.17,56.17,0,0,1,4.71-3.86Z"/>
        <path class="cls-1" d="M27,19.58c1.34-.09,2.66-.18,4-.25l-6.63-6.57a56.17,56.17,0,0,0-4.71,3.86l3.23,3.2C24.33,19.75,25.67,19.66,27,19.58Z"/>
        <path class="cls-1" d="M47.31,40.41h3.9l.67-.37L36.37,24.65c-3,0-5.54.15-8.26.33l14,13.87c.4.1.8.19,1.19.31C44.7,39.56,46.05,40,47.31,40.41Z"/>
        <path class="cls-1" d="M36.37,24.65,31,19.33c-1.37.07-2.69.16-4,.25s-2.66.17-4.08.24L28.11,25C30.83,24.8,33.38,24.65,36.37,24.65Z"/>
        <path class="cls-1" d="M43.27,39.16c-.39-.12-.79-.21-1.19-.31l1.58,1.56h3.65C46.05,40,44.7,39.56,43.27,39.16Z"/>
        <path class="cls-1" d="M90.59,79.6l-.07,3.94a7.1,7.1,0,0,1-.61,2.76l5.33,5.29c3.22.25,6.35.53,9.44.84L91.75,79.6Z"/>
        <path class="cls-1" d="M101.29,97.59l.35.35.3-.29Z"/>
        <path class="cls-1" d="M90.59,79.6h1.16l-1.14-1.13Z"/>
        <path class="cls-1" d="M95.24,91.59l6.05,6,.65.06c1.31-1.36,2.53-2.79,3.7-4.27l-1-.95C101.59,92.12,98.46,91.84,95.24,91.59Z"/>
        <path class="cls-1" d="M88.26,84.66l1.65,1.64a7.1,7.1,0,0,0,.61-2.76l.07-3.94q-1.17,0-2.25,0Z"/>
        <path class="cls-1" d="M90.59,79.6l0-1.13-2.21-2.2-.06,3.36Q89.42,79.6,90.59,79.6Z"/>
        <g>
          <path d="M91,56.31H59.68l2.21,2.19,2.52-.06,5.88-.13,3.28-.08,15.15-.35L91,57.83l13-.3,14-.32-.08-.86.16,0a.25.25,0,0,0,0-.08Z"/>
          <path d="M.16,59c0,.51,0,1,0,1.53,0,.06,0,.13,0,.19l1.5-.83v0c0-.7,0-1.41,0-2.11,0-.42,0-.84,0-1.26L.25,57C.21,57.68.18,58.34.16,59Z"/>
          <path d="M119.89,56.9,118,56.39c0,.28,0,.55,0,.82v0l1.89.58C119.92,57.52,119.9,57.21,119.89,56.9Z"/>
          <path d="M24.4,56.31H2.32c-.24,0-.46,0-.69,0v.23l.2-.08.11,3.31-.25.14,20.61-.47,2.1,0,34.52-.79-2.28-2.26Z"/>
        </g>
        <path class="cls-1" d="M89.09,34.86A6.47,6.47,0,0,0,87.49,31a4.87,4.87,0,0,0-.59-.61,6.74,6.74,0,0,0-4.78-1.73,6.24,6.24,0,0,0-1.35.17,7.07,7.07,0,0,0-1.67.66L76.31,31l-1.64.91-7,3.82-.27.15-1.73.95-4.24,2.34-4.6,2.53-2.16,1.19L51.88,40l-.67.37H40.62l4.28,4.25H35.28A10.87,10.87,0,0,0,24.4,55.46v.85H88.75l0-2.63.27-15.51,0-2.77C89.11,35.21,89.1,35,89.09,34.86Z"/>
        <path class="cls-1" d="M88.34,79.63c-1.71.05-3.29.16-4.85.3l4.77,4.73Z"/>
        <path class="cls-1" d="M61.89,58.5l.69.69,1.83-.75Z"/>
        <path class="cls-1" d="M67.05,63.62,78.49,75c2.69-.33,5.2-.58,7.87-.72L73.44,61.43c-1.18.31-2.37.65-3.57,1.09C69,62.83,68.05,63.21,67.05,63.62Z"/>
        <path class="cls-1" d="M78.49,75l5,5c1.56-.14,3.14-.25,4.85-.3l.06-3.36-2-2C83.69,74.39,81.18,74.64,78.49,75Z"/>
        <path class="cls-1" d="M64.41,58.44l-1.83.75,4.47,4.43c1-.41,1.94-.79,2.82-1.1,1.2-.44,2.39-.78,3.57-1.09l-3.15-3.12Z"/>
      </g>
    </g>
  </g>
</svg>
