<svg xmlns="http://www.w3.org/2000/svg" width="120" height="120" viewBox="0 0 120 120">
  <defs>
    <style>
      .cls-1 {
        fill: #cabca6;
      }

      .cls-2 {
        fill: #774318;
      }

      .cls-3 {
        fill: #603813;
      }

      .cls-4 {
        fill: #49290f;
      }

      .cls-5 {
        fill: none;
      }
    </style>
  </defs>
  <g id="butons">
    <g id="settings">
      <g>
        <path class="cls-1" d="M119.91,57.57a59.36,59.36,0,0,0-15.52-37A59.67,59.67,0,0,0,91,9.62,60.27,60.27,0,0,0,16,20.09a58.91,58.91,0,0,0-5.5,6.79,60.41,60.41,0,0,0-3.85,6.36,58.94,58.94,0,0,0-5,13.32A59.07,59.07,0,0,0,0,60.49c0,.31,0,.62,0,.92S0,61.8,0,62c0,1.28.11,2.55.22,3.81q.27,3,.82,5.91a58.31,58.31,0,0,0,2.41,8.78c.66,1.85,1.42,3.66,2.25,5.42a59.62,59.62,0,0,0,11.9,16.72q1.93,1.92,4.05,3.65a60.41,60.41,0,0,0,72.45,3.16,61.19,61.19,0,0,0,5.83-4.55c1.1-1,2.18-2,3.21-3.07A60.18,60.18,0,0,0,114,86.37a59.22,59.22,0,0,0,4.42-12.47A59.14,59.14,0,0,0,120,61.27c0-.73,0-1.45,0-2.18C120,58.58,119.93,58.07,119.91,57.57Z"/>
        <g>
          <path d="M55.68,56.42l-11.9.28-41.89,1c0,.3,0,.6,0,.9H16l39.62-.05,62.84-.08c0-.7,0-1.41,0-2.11l-.06-1.48-.69,0Z"/>
          <path class="cls-2" d="M26.35,34.3c12.54-6.2,25.51-12.6,46.9-15a109.05,109.05,0,0,1,18.84-.53c3.31.14,6.7.27,11.21.13a58.28,58.28,0,0,0-13-10.62L86.48,9.76c-12,4.57-42,16-78.1,21.49A57.31,57.31,0,0,0,3.51,44.18Q6.93,43,10.22,41.71C16,39.4,21.27,36.8,26.35,34.3Z"/>
          <path class="cls-2" d="M83.4,4.78a58.91,58.91,0,0,0-46.59,0C38.2,5.86,39,7,39,8.1c.1,3.9-8.22,7.62-21.52,10.37a57.47,57.47,0,0,0-5.34,6.6C44.78,19.48,71.76,9.21,82.89,5Z"/>
          <path class="cls-2" d="M79.29,43.75c-9.93,3.08-14.89,6.56-20.64,10.6l-3,2.07,62-1.5.69,0a57.22,57.22,0,0,0-2.93-15.46A108.29,108.29,0,0,0,79.29,43.75Z"/>
          <path class="cls-2" d="M53.24,50.51c6-4.24,11.76-8.25,23-11.75a117.24,117.24,0,0,1,37-4.86,58.08,58.08,0,0,0-5.67-9.72,143.79,143.79,0,0,1-16.08.06,98.28,98.28,0,0,0-17.18.46c-19.59,2.19-31.26,8-43.62,14.05-5.23,2.58-10.65,5.25-16.77,7.7C10.13,48,6.25,49.31,2.35,50.51a57,57,0,0,0-.46,7.2l41.89-1C47.47,54.56,50.39,52.52,53.24,50.51Z"/>
          <path class="cls-3" d="M90.27,8.3A57.72,57.72,0,0,0,83.4,4.78L82.89,5C71.76,9.21,44.78,19.48,12.12,25.07a58.67,58.67,0,0,0-3.74,6.18c36.08-5.5,66.09-16.92,78.1-21.49Z"/>
          <path class="cls-3" d="M30.71,38.75c12.36-6.1,24-11.86,43.62-14a98.28,98.28,0,0,1,17.18-.46,143.79,143.79,0,0,0,16.08-.06,58.57,58.57,0,0,0-4.29-5.26c-4.51.14-7.9,0-11.21-.13a109.05,109.05,0,0,0-18.84.53c-21.39,2.38-34.36,8.78-46.9,15C21.27,36.8,16,39.4,10.22,41.71Q6.93,43,3.51,44.18a57.41,57.41,0,0,0-1.16,6.33c3.9-1.2,7.78-2.54,11.59-4.06C20.06,44,25.48,41.33,30.71,38.75Z"/>
          <path class="cls-3" d="M76.27,38.76c-11.27,3.5-17,7.51-23,11.75-2.85,2-5.77,4.05-9.46,6.19l11.9-.28,3-2.07c5.75-4,10.71-7.52,20.64-10.6a108.29,108.29,0,0,1,36.15-4.33,57,57,0,0,0-2.18-5.52A117.24,117.24,0,0,0,76.27,38.76Z"/>
          <path class="cls-3" d="M39,8.1C39,7,38.2,5.86,36.81,4.83A58.39,58.39,0,0,0,17.46,18.47C30.76,15.72,39.08,12,39,8.1Z"/>
          <path class="cls-2" d="M2.12,62.88l.4-.13C7.14,61.26,11.6,59.81,16,58.6H1.9c0,.19,0,.37,0,.56C1.94,60.42,2,61.65,2.12,62.88Z"/>
          <path class="cls-2" d="M41.15,80.85c-8.24-.84-14.36-.95-33.7,1.56a57.44,57.44,0,0,0,7.09,11.28,385.21,385.21,0,0,1,48.74-3.18h.25a402.83,402.83,0,0,1,43,2.3q1.79-2.32,3.35-4.83l-.37-.06C108.7,87.82,101.66,87,41.15,80.85Z"/>
          <path class="cls-2" d="M63.28,96A371.46,371.46,0,0,0,19,98.65c1.26,1.24,2.57,2.43,3.94,3.55,10.18-2,25.22-3.24,42-3.26a271.6,271.6,0,0,1,34,1.91q1.62-1.44,3.12-3C89.29,96.6,76.41,96,63.53,96Z"/>
          <path class="cls-2" d="M59.5,60.05a210,210,0,0,0,19.9,6.86c17.19,5,29.07,6.6,35.3,4.68a22.38,22.38,0,0,0,2.27-.84,57.22,57.22,0,0,0,1.46-12.28l-62.84.08C56.82,59,58.1,59.5,59.5,60.05Z"/>
          <path class="cls-2" d="M76.43,72c-9.89-2.89-16.14-5.34-20.69-7.13-2.09-.82-3.89-1.53-5.51-2.07-14.38-4.78-27-.7-44.49,5l-2.82.9a57.49,57.49,0,0,0,2.34,8.54l5.19-.66c16.39-2,23.06-1.93,31.81-1,62.18,6.33,68.48,7.07,68.93,7.15l1.48.25A57.23,57.23,0,0,0,115,77.27C109.08,78.42,98.49,78.39,76.43,72Z"/>
          <path class="cls-2" d="M109.45,87.91h0Z"/>
          <path class="cls-3" d="M42.26,75.45c-8.75-.89-15.42-1-31.81,1l-5.19.66a56.53,56.53,0,0,0,2.19,5.26c19.34-2.51,25.46-2.4,33.7-1.56,60.51,6.16,67.55,7,68.32,7.07l.37.06a58.07,58.07,0,0,0,2.83-5.13l-1.48-.25C110.74,82.52,104.44,81.78,42.26,75.45ZM109.38,87.9h0Z"/>
          <path class="cls-3" d="M63.28,90.51a385.21,385.21,0,0,0-48.74,3.18,56.73,56.73,0,0,0,4.46,5A371.46,371.46,0,0,1,63.28,96h.25c12.88,0,25.76.63,38.57,1.9a58.73,58.73,0,0,0,4.39-5.06,402.83,402.83,0,0,0-43-2.3Z"/>
          <path class="cls-3" d="M79.4,66.91a210,210,0,0,1-19.9-6.86c-1.4-.55-2.68-1-3.91-1.5L16,58.6c-4.37,1.21-8.83,2.66-13.45,4.15l-.4.13a56.83,56.83,0,0,0,.8,5.73l2.82-.9c17.48-5.66,30.11-9.74,44.49-5,1.62.54,3.42,1.25,5.51,2.07,4.55,1.79,10.8,4.24,20.69,7.13,22.06,6.44,32.65,6.47,38.6,5.32A57.58,57.58,0,0,0,117,70.75a22.38,22.38,0,0,1-2.27.84C108.47,73.51,96.59,71.93,79.4,66.91Z"/>
          <path class="cls-3" d="M22.94,102.2a58.36,58.36,0,0,0,7,5c5.6-2.33,19.16-4,35-4a162.38,162.38,0,0,1,28.37,2.12A59.26,59.26,0,0,0,99,100.85a271.6,271.6,0,0,0-34-1.91C48.16,99,33.12,100.22,22.94,102.2Z"/>
          <path class="cls-2" d="M29.93,107.15a58.73,58.73,0,0,0,63.39-1.88A162.38,162.38,0,0,0,65,103.15C49.09,103.17,35.53,104.82,29.93,107.15Z"/>
        </g>
      </g>
      <path class="cls-4" d="M68.39,98.53l1.54-10.45a33.29,33.29,0,0,0,6.94-3.72l9.25,6.17a3.87,3.87,0,0,0,4.72-.85l3.91-4.07a3.79,3.79,0,0,0,.63-4.72L88,71.1a32.7,32.7,0,0,0,2.1-5.94l12.09-2.35a3.8,3.8,0,0,0,2.73-3.91l-.13-5.62a3.82,3.82,0,0,0-2.92-3.77l-12.2-1.77a33.39,33.39,0,0,0-2.5-6l6.62-9.77a3.79,3.79,0,0,0-.86-4.68l-4.1-3.87a3.86,3.86,0,0,0-4.76-.62l-8.65,6.39a33.29,33.29,0,0,0-7.7-3.55L65.83,16a3.83,3.83,0,0,0-3.94-2.7l-5.67.13a3.86,3.86,0,0,0-3.81,2.9l-1.22,8.35a32.89,32.89,0,0,0-10.28,3.8l-6.22-4.15a3.88,3.88,0,0,0-4.73.85l-3.9,4.07A3.78,3.78,0,0,0,25.43,34l4,5.33a32.88,32.88,0,0,0-4.69,11.56L18.6,52A3.82,3.82,0,0,0,15.87,56L16,61.57a3.81,3.81,0,0,0,2.92,3.77l6.46.94a33,33,0,0,0,5.48,10.93L27,82.92a3.79,3.79,0,0,0,.86,4.68L32,91.47a3.85,3.85,0,0,0,4.75.62l6.58-4.86a33.34,33.34,0,0,0,10,2.9L55,98.86a3.84,3.84,0,0,0,4,2.7l5.66-.13A3.84,3.84,0,0,0,68.39,98.53ZM41.8,57.61A15.8,15.8,0,1,1,58,72.89,15.74,15.74,0,0,1,41.8,57.61Z"/>
      <polygon points="117.91 54.61 119.92 56.29 120 59.75 118 58.07 117.91 54.61"/>
      <polygon points="103.02 58.8 103.05 56.53 104.89 55.32 105.14 58.46 103.02 58.8"/>
      <polygon points="19.21 59.6 19.26 57.8 15.81 57.45 15.86 58.67 19.21 59.6"/>
      <polygon points="0.01 58.97 0.01 58.29 1.94 57.72 1.9 58.62 0.01 58.97"/>
      <g>
        <path class="cls-5" d="M43.52,60a14.92,14.92,0,0,0,29.84-.72c0-.1,0-.2,0-.3l-29.83.16C43.51,59.4,43.51,59.69,43.52,60Z"/>
        <path class="cls-5" d="M58.08,44.83A14.86,14.86,0,0,0,43.71,57.26l29.4-.37A14.88,14.88,0,0,0,58.08,44.83Z"/>
        <path class="cls-1" d="M68.64,98.64l1.45-9.87a31.57,31.57,0,0,0,6.56-3.52l8.74,5.83a3.65,3.65,0,0,0,4.46-.81l3.69-3.84a3.57,3.57,0,0,0,.6-4.45l-7-9.26a31.62,31.62,0,0,0,2-5.61l11.43-2.22a3.62,3.62,0,0,0,2.58-3.7l-.11-4.1V58.8L73.35,59c0,.1,0,.2,0,.3A14.92,14.92,0,0,1,43.52,60c0-.29,0-.58,0-.86l-24.44.13,0-1.69,24.59-.3a14.95,14.95,0,0,1,29.4-.37l29.94-.36,0-.64a3.6,3.6,0,0,0-2.75-3.57L88.75,50.66a30.87,30.87,0,0,0-2.36-5.72l6.26-9.22a3.59,3.59,0,0,0-.82-4.43L88,27.64a3.65,3.65,0,0,0-4.5-.59l-8.17,6A31.4,31.4,0,0,0,68,29.74l-1.8-9.09a3.62,3.62,0,0,0-3.73-2.55l-5.35.13A3.62,3.62,0,0,0,53.54,21l-1.16,7.89a31.63,31.63,0,0,0-9.71,3.59l-5.88-3.92a3.65,3.65,0,0,0-4.46.81l-3.69,3.84a3.58,3.58,0,0,0-.6,4.46l3.8,5A31,31,0,0,0,27.4,53.59l-5.8,1.12A3.59,3.59,0,0,0,19,58.41l.13,5.3a3.6,3.6,0,0,0,2.75,3.57l6.11.88a31,31,0,0,0,5.18,10.33l-3.66,5.4a3.59,3.59,0,0,0,.82,4.42L34.22,92a3.67,3.67,0,0,0,4.5.59L44.93,88a31.38,31.38,0,0,0,9.4,2.73L56,99a3.62,3.62,0,0,0,3.73,2.56l5.35-.13A3.64,3.64,0,0,0,68.64,98.64Z"/>
        <polygon points="103.07 56.53 103.05 56.53 103.06 57.09 103.07 56.53"/>
        <path d="M73.35,59l29.7-.16V56.53l-29.94.36A14.26,14.26,0,0,1,73.35,59Z"/>
        <path d="M19.12,57.56l0,1.69,24.44-.13a14.29,14.29,0,0,1,.19-1.86Z"/>
      </g>
    </g>
  </g>
</svg>
