<svg xmlns="http://www.w3.org/2000/svg" width="150" height="150" viewBox="0 0 150 150">
  <defs>
    <style>
      .cls-1 {
        fill: #cabca6;
      }

      .cls-2 {
        fill: #774318;
      }

      .cls-3 {
        fill: #603813;
      }

      .cls-4 {
        fill: #49290f;
      }
    </style>
  </defs>
  <g id="butons">
    <g id="play">
      <g>
        <path class="cls-1" d="M149.8,73.76a73.66,73.66,0,0,0-3.28-20q-1.14-3.66-2.63-7.16a74.41,74.41,0,0,0-7-12.69,76,76,0,0,0-5.34-6.9A75.18,75.18,0,0,0,115.16,13a74.09,74.09,0,0,0-8.72-4.74A75.24,75.24,0,0,0,21.27,23.79,74.68,74.68,0,0,0,9.2,40,73.5,73.5,0,0,0,2.54,56.44a71.8,71.8,0,0,0-1.7,8.1A74.27,74.27,0,0,0,0,73.8c0,.38,0,.77,0,1.15s0,.48,0,.72c0,1.6.06,3.19.16,4.77A73.66,73.66,0,0,0,3.74,98.9a74.65,74.65,0,0,0,17,28.09q2.37,2.46,5,4.69A75.37,75.37,0,0,0,116,137.81a76.9,76.9,0,0,0,7.41-5.51c1.41-1.19,2.78-2.44,4.1-3.73a73,73,0,0,0,5.8-6.38,74.43,74.43,0,0,0,4.46-6.1,75.22,75.22,0,0,0,3.8-6.51,73.47,73.47,0,0,0,8.18-31.19c0-.9,0-1.81,0-2.72C149.82,75,149.81,74.4,149.8,73.76Z"/>
        <g>
          <path d="M69.66,70.39H2.47c0,.37,0,.75,0,1.12L20,71.92l49.47,1.13,78.44,1.8q.06-1.32.06-2.64c0-.62,0-1.24,0-1.85-.28,0-.57,0-.86,0Z"/>
          <path class="cls-2" d="M33.72,41.86c15.85-7.36,32.24-15,59-17.3a135.26,135.26,0,0,1,23.53-.09c4.13.27,8.36.54,14,.5A73,73,0,0,0,114.31,11.3q-2.34.85-4.77,1.71C94.4,18.36,56.6,31.73,11.39,37.51a71.54,71.54,0,0,0-6.48,16q4.31-1.34,8.45-2.88C20.66,47.93,27.3,44.84,33.72,41.86Z"/>
          <path class="cls-2" d="M105.84,6.69A73.46,73.46,0,0,0,47.69,5.35c1.7,1.33,2.61,2.72,2.61,4.15,0,4.89-10.5,9.28-27.19,12.31a73.59,73.59,0,0,0-6.87,8.09c40.94-6,74.94-18,89-23Z"/>
          <path class="cls-2" d="M99.52,55.27C87,58.82,80.73,63,73.43,67.89l-3.77,2.5H147.1c.29,0,.58,0,.86,0A71.54,71.54,0,0,0,144.78,51C128.3,50,113.16,51.38,99.52,55.27Z"/>
          <path class="cls-2" d="M66.8,62.94c7.68-5.12,14.93-10,29.11-14s29.62-5.67,46.31-5a72.18,72.18,0,0,0-6.77-12.32,180.54,180.54,0,0,1-20.08-.41,121.37,121.37,0,0,0-21.46.06C69.38,33.46,54.64,40.3,39,47.55c-6.62,3.07-13.46,6.25-21.17,9.12C13.05,58.46,8.17,60,3.26,61.39a72.18,72.18,0,0,0-.79,9H54.79C59.47,67.83,63.17,65.36,66.8,62.94Z"/>
          <path class="cls-3" d="M114.31,11.3a72,72,0,0,0-8.47-4.61l-.63.23c-14,5-48,17-89,23a72.59,72.59,0,0,0-4.85,7.61c45.21-5.78,83-19.15,98.15-24.5Q112,12.16,114.31,11.3Z"/>
          <path class="cls-3" d="M39,47.55C54.64,40.3,69.38,33.46,93.91,31.32a121.37,121.37,0,0,1,21.46-.06,180.54,180.54,0,0,0,20.08.41,74.85,74.85,0,0,0-5.19-6.7c-5.64,0-9.87-.23-14-.5a135.26,135.26,0,0,0-23.53.09c-26.77,2.33-43.16,9.94-59,17.3-6.42,3-13.06,6.07-20.36,8.78q-4.14,1.55-8.45,2.88a70.87,70.87,0,0,0-1.65,7.87c4.91-1.37,9.79-2.93,14.6-4.72C25.57,53.8,32.41,50.62,39,47.55Z"/>
          <path class="cls-3" d="M95.91,49c-14.18,4-21.43,8.87-29.11,14-3.63,2.42-7.33,4.89-12,7.45H69.66l3.77-2.5C80.73,63,87,58.82,99.52,55.27,113.16,51.38,128.3,50,144.78,51a70.62,70.62,0,0,0-2.56-7C125.53,43.28,110,44.92,95.91,49Z"/>
          <path class="cls-3" d="M50.3,9.5c0-1.43-.91-2.82-2.61-4.15A72.79,72.79,0,0,0,23.11,21.81C39.8,18.78,50.3,14.39,50.3,9.5Z"/>
          <path class="cls-2" d="M2.6,76.85l.5-.15C8.91,75,14.52,73.3,20,71.92L2.45,71.51v.7C2.45,73.77,2.5,75.31,2.6,76.85Z"/>
          <path class="cls-2" d="M50.77,100.48c-10.26-1.3-17.9-1.61-42.12.94a71.76,71.76,0,0,0,8.5,14.31,479.23,479.23,0,0,1,61-2.5h.31A499.48,499.48,0,0,1,132,117.4q2.31-2.85,4.33-5.93l-.46-.09C134.88,111.24,126.12,110,50.77,100.48Z"/>
          <path class="cls-2" d="M77.93,120a464.35,464.35,0,0,0-55.36,2q2.31,2.39,4.81,4.56c12.77-2.17,31.59-3.29,52.53-2.81a339.92,339.92,0,0,1,42.44,3.41q2.06-1.74,4-3.63-23.94-3-48.1-3.54Z"/>
          <path class="cls-2" d="M74.32,75.05c5.73,2.41,12.87,5.42,24.62,9.17,21.32,6.79,36.1,9.12,43.93,6.91a25.45,25.45,0,0,0,2.85-1,71.49,71.49,0,0,0,2.21-15.3l-78.44-1.8C71,73.65,72.58,74.32,74.32,75.05Z"/>
          <path class="cls-2" d="M95.08,90.42c-12.26-3.91-20-7.16-25.61-9.53-2.58-1.08-4.81-2-6.81-2.75C44.85,71.73,29,76.45,7,83L3.42,84A72.34,72.34,0,0,0,6.08,94.78q3.47-.37,6.5-.67c20.52-2,28.85-1.72,39.75-.34,77.42,9.79,85.26,10.91,85.82,11l1.84.36a70.43,70.43,0,0,0,3.12-6.91C135.65,99.49,122.43,99.14,95.08,90.42Z"/>
          <path class="cls-2" d="M135.81,111.38l-.09,0Z"/>
          <path class="cls-3" d="M52.33,93.77c-10.9-1.38-19.23-1.66-39.75.34q-3,.3-6.5.67c.75,2.26,1.61,4.48,2.57,6.64,24.22-2.55,31.86-2.24,42.12-.94,75.35,9.53,84.11,10.76,85.07,10.9l.46.09a72.35,72.35,0,0,0,3.69-6.32l-1.84-.36C137.59,104.68,129.75,103.56,52.33,93.77Zm83.39,17.59.09,0Z"/>
          <path class="cls-3" d="M78.1,113.23a479.23,479.23,0,0,0-60.95,2.5,74.42,74.42,0,0,0,5.42,6.33,464.35,464.35,0,0,1,55.36-2h.31q24.12.57,48.1,3.54A73.41,73.41,0,0,0,132,117.4a499.48,499.48,0,0,0-53.56-4.16Z"/>
          <path class="cls-3" d="M98.94,84.22c-11.75-3.75-18.89-6.76-24.62-9.17-1.74-.73-3.32-1.4-4.83-2L20,71.92C14.52,73.3,8.91,75,3.1,76.7l-.5.15q.24,3.65.82,7.19L7,83c22-6.54,37.89-11.26,55.7-4.85,2,.73,4.23,1.67,6.81,2.75,5.63,2.37,13.35,5.62,25.61,9.53,27.35,8.72,40.57,9.07,48,7.82a71.32,71.32,0,0,0,2.61-8.09,25.45,25.45,0,0,1-2.85,1C135,93.34,120.26,91,98.94,84.22Z"/>
          <path class="cls-3" d="M27.38,126.62A72.52,72.52,0,0,0,36,133c7.06-2.73,24-4.39,43.84-3.94,14.12.33,26.76,1.66,35.36,3.51a72.66,72.66,0,0,0,7.2-5.36,339.92,339.92,0,0,0-42.44-3.41C59,123.33,40.15,124.45,27.38,126.62Z"/>
          <path class="cls-2" d="M36,133a73.32,73.32,0,0,0,79.2-.43c-8.6-1.85-21.24-3.18-35.36-3.51C60,128.62,43,130.28,36,133Z"/>
        </g>
        <polygon points="150 76.02 147.58 74.68 147.71 70.54 149.87 71.34 150 76.02"/>
        <polygon points="2.56 71.54 0.04 72.31 0.1 71.14 2.66 70.44 2.56 71.54"/>
      </g>
      <path class="cls-4" d="M53.93,123.69a10.63,10.63,0,0,0,3.54-1.33l5.3-3.15,8.87-5.29,11-6.54L94,100.6l10.07-6,19.84-11.82a10.32,10.32,0,0,0-.31-17.94l-1.78-1-5.38-3L109.33,57l-6.55-3.61L83.14,42.57,76.56,39l-2.68-1.47-.41-.23L60.15,29.92l-4.32-2.38a10.46,10.46,0,0,0-12.08,1.39,10.21,10.21,0,0,0-3.4,7c0,.28,0,.56,0,.84l.49,28.33.34,19.62L41.22,88l.44,25.7A10.43,10.43,0,0,0,53.93,123.69Z"/>
      <path class="cls-1" d="M117.91,69.64l-1.64-.9-5-2.72-6.53-3.6-6-3.32L80.7,49.16l-6-3.33-2.47-1.35-.38-.21L59.57,37.53l-4-2.19a9.6,9.6,0,0,0-11.11,1.28,9.37,9.37,0,0,0-3.12,6.44c0,.25,0,.51,0,.77l.45,26.05.31,18,.06,3,.4,23.64a9.6,9.6,0,0,0,14.54,8l4.87-2.9,8.16-4.86,10.09-6,10.47-6.23L100,97,118.2,86.13A9.49,9.49,0,0,0,117.91,69.64Z"/>
      <path d="M40.94,70.45l1.14.75s78.3,2.2,80.1,2.43,6.18-3.21,6.18-3.21l1.17,3.21-.53.85-6.14,2.81L42.08,72.82l-1.25-.42Z"/>
    </g>
  </g>
</svg>
