<svg xmlns="http://www.w3.org/2000/svg" width="120" height="120" viewBox="0 0 120 120">
  <defs>
    <style>
      .cls-1 {
        fill: #cabca6;
      }

      .cls-2 {
        fill: #774318;
      }

      .cls-3 {
        fill: #603813;
      }

      .cls-4 {
        fill: #49290f;
      }
    </style>
  </defs>
  <g id="butons">
    <g id="sound">
      <g>
        <path class="cls-1" d="M.16,59A58.73,58.73,0,0,1,4.89,37.3a59.87,59.87,0,0,1,5.58-10.15,61.65,61.65,0,0,1,4.28-5.52A60.2,60.2,0,0,1,27.87,10.37a60.92,60.92,0,0,1,7-3.79,60.19,60.19,0,0,1,73.79,19.11,61.07,61.07,0,0,1,4,6.27A58.93,58.93,0,0,1,120,59c0,.3,0,.61,0,.92s0,.38,0,.58c0,1.28,0,2.55-.13,3.82a55.26,55.26,0,0,1-.68,5.92A57.94,57.94,0,0,1,117,79.12q-.93,2.8-2.12,5.47a59.24,59.24,0,0,1-7,11.79,59.89,59.89,0,0,1-4.47,5.21q-1.89,2-4,3.75a60.29,60.29,0,0,1-72.28,4.91,59.56,59.56,0,0,1-5.93-4.41c-1.13-1-2.23-2-3.29-3a61.31,61.31,0,0,1-8.2-10,57.55,57.55,0,0,1-3-5.21A60.49,60.49,0,0,1,4.16,82a58.7,58.7,0,0,1-4-19.27c0-.72,0-1.45,0-2.17C.14,60,.15,59.52.16,59Z"/>
        <g>
          <path d="M64.27,56.31H118c0,.3,0,.6,0,.9L104,57.53l-39.57.91L1.65,59.88c0-.7,0-1.41,0-2.11,0-.5,0-1,0-1.49.23,0,.45,0,.69,0Z"/>
          <path class="cls-2" d="M93,33.49c-12.68-5.89-25.79-12-47.21-13.85A107.76,107.76,0,0,0,27,19.58c-3.3.21-6.68.43-11.19.39A58.32,58.32,0,0,1,28.55,9l3.82,1.37c12.11,4.28,42.35,15,78.52,19.6a56.65,56.65,0,0,1,5.18,12.81c-2.29-.72-4.55-1.49-6.76-2.31C103.48,38.34,98.16,35.87,93,33.49Z"/>
          <path class="cls-2" d="M35.32,5.35A58.8,58.8,0,0,1,81.85,4.28c-1.36,1.06-2.09,2.17-2.09,3.32,0,3.91,8.4,7.42,21.75,9.85A57.4,57.4,0,0,1,107,23.92C74.25,19.12,47.05,9.5,35.83,5.54Z"/>
          <path class="cls-2" d="M40.38,44.21c10,2.85,15,6.21,20.87,10.1l3,2H2.32c-.24,0-.46,0-.69,0A57.73,57.73,0,0,1,4.17,40.76,108.21,108.21,0,0,1,40.38,44.21Z"/>
          <path class="cls-2" d="M66.56,50.35c-6.14-4.1-11.94-8-23.29-11.19a116.68,116.68,0,0,0-37.05-4,57.47,57.47,0,0,1,5.42-9.86A146.19,146.19,0,0,0,27.7,25a97,97,0,0,1,17.17,0c19.62,1.7,31.42,7.18,43.91,13,5.29,2.46,10.76,5,16.93,7.3q5.78,2.14,11.68,3.77a57,57,0,0,1,.63,7.2H76.16C72.43,54.26,69.46,52.28,66.56,50.35Z"/>
          <path class="cls-3" d="M28.55,9a59.75,59.75,0,0,1,6.77-3.69l.51.19C47.05,9.5,74.25,19.12,107,23.92A56.65,56.65,0,0,1,110.89,30c-36.17-4.63-66.41-15.32-78.52-19.6Z"/>
          <path class="cls-3" d="M88.78,38c-12.49-5.8-24.29-11.28-43.91-13A97,97,0,0,0,27.7,25a146.19,146.19,0,0,1-16.06.33A58.31,58.31,0,0,1,15.8,20c4.51,0,7.89-.18,11.19-.39a107.76,107.76,0,0,1,18.82.06c21.42,1.87,34.53,8,47.21,13.85,5.14,2.38,10.46,4.85,16.29,7,2.21.82,4.47,1.59,6.76,2.31a57.05,57.05,0,0,1,1.32,6.29q-5.9-1.63-11.68-3.77C99.54,43,94.07,40.5,88.78,38Z"/>
          <path class="cls-3" d="M43.27,39.16c11.35,3.23,17.15,7.09,23.29,11.19,2.9,1.93,5.87,3.91,9.6,6H64.27l-3-2c-5.84-3.89-10.88-7.25-20.87-10.1A108.21,108.21,0,0,0,4.17,40.76,58.56,58.56,0,0,1,6.22,35.2,116.68,116.68,0,0,1,43.27,39.16Z"/>
          <path class="cls-3" d="M79.76,7.6c0-1.15.73-2.26,2.09-3.32a58.42,58.42,0,0,1,19.66,13.17C88.16,15,79.76,11.51,79.76,7.6Z"/>
          <path class="cls-2" d="M117.92,61.48l-.4-.12c-4.65-1.38-9.14-2.72-13.54-3.83L118,57.21v.56C118,59,118,60.25,117.92,61.48Z"/>
          <path class="cls-2" d="M79.38,80.38c8.21-1,14.33-1.29,33.7.76a58.13,58.13,0,0,1-6.8,11.45,382.5,382.5,0,0,0-48.76-2h-.24a398.31,398.31,0,0,0-42.85,3.33A57.56,57.56,0,0,1,11,89.18l.37-.08C12.1,89,19.1,88,79.38,80.38Z"/>
          <path class="cls-2" d="M57.66,96a368.58,368.58,0,0,1,44.28,1.61c-1.22,1.27-2.51,2.49-3.84,3.65-10.22-1.74-25.27-2.64-42-2.25a270.57,270.57,0,0,0-33.95,2.73q-1.65-1.4-3.19-2.91C31.69,97.29,44.54,96.34,57.41,96Z"/>
          <path class="cls-2" d="M60.54,60a207.44,207.44,0,0,1-19.69,7.33C23.79,72.81,12,74.67,5.7,72.91a20.74,20.74,0,0,1-2.28-.79A58.1,58.1,0,0,1,1.65,59.88l62.76-1.44C63.2,58.92,61.93,59.46,60.54,60Z"/>
          <path class="cls-2" d="M43.93,72.34c9.81-3.13,16-5.73,20.49-7.63,2.07-.87,3.85-1.62,5.45-2.19,14.25-5.14,27-1.36,44.56,3.87l2.83.84a57,57,0,0,1-2.12,8.59c-1.85-.2-3.59-.37-5.21-.53-16.41-1.6-23.07-1.38-31.79-.28C16.2,82.85,9.93,83.74,9.48,83.83L8,84.12a57.15,57.15,0,0,1-2.5-5.52C11.48,79.59,22.06,79.31,43.93,72.34Z"/>
          <path class="cls-2" d="M11.35,89.1h0Z"/>
          <path class="cls-3" d="M9.48,83.83,8,84.12c.9,1.74,1.89,3.42,3,5.06l.37-.08C12.1,89,19.1,88,79.38,80.38c8.21-1,14.33-1.29,33.7.76.77-1.73,1.46-3.51,2.06-5.32-1.85-.2-3.59-.37-5.21-.53-16.41-1.6-23.07-1.38-31.79-.28C16.2,82.85,9.93,83.74,9.48,83.83Zm1.87,5.27h0Z"/>
          <path class="cls-3" d="M57.52,90.58a382.5,382.5,0,0,1,48.76,2,59.68,59.68,0,0,1-4.34,5.06A368.58,368.58,0,0,0,57.66,96h-.25c-12.87.3-25.72,1.25-38.48,2.83a57.06,57.06,0,0,1-4.5-5,398.31,398.31,0,0,1,42.85-3.33Z"/>
          <path class="cls-3" d="M40.85,67.37A207.44,207.44,0,0,0,60.54,60c1.39-.58,2.66-1.12,3.87-1.6L104,57.53c4.4,1.11,8.89,2.45,13.54,3.83l.4.12a57.46,57.46,0,0,1-.66,5.75l-2.83-.84c-17.6-5.23-30.31-9-44.56-3.87-1.6.57-3.38,1.32-5.45,2.19-4.5,1.9-10.68,4.5-20.49,7.63-21.87,7-32.45,7.25-38.42,6.26a57.58,57.58,0,0,1-2.09-6.48,20.74,20.74,0,0,0,2.28.79C12,74.67,23.79,72.81,40.85,67.37Z"/>
          <path class="cls-3" d="M98.1,101.3a60.16,60.16,0,0,1-6.86,5.11c-5.65-2.19-19.24-3.51-35.07-3.15a161.56,161.56,0,0,0-28.29,2.8,58.85,58.85,0,0,1-5.76-4.28,270.57,270.57,0,0,1,34-2.73C72.83,98.66,87.88,99.56,98.1,101.3Z"/>
          <path class="cls-2" d="M91.24,106.41a58.64,58.64,0,0,1-63.36-.35,161.56,161.56,0,0,1,28.29-2.8C72,102.9,85.59,104.22,91.24,106.41Z"/>
        </g>
        <polygon points="0 60.81 1.94 59.74 1.83 56.43 0.11 57.07 0 60.81"/>
        <polygon points="117.95 57.23 119.97 57.85 119.92 56.91 117.87 56.35 117.95 57.23"/>
      </g>
      <path class="cls-4" d="M89.17,31.29a6.79,6.79,0,0,0-2.27-4.67A7,7,0,0,0,80.56,25a7.33,7.33,0,0,0-1.72.68L76,27.28l-8.88,4.89-.28.15L65,33.3l-4.39,2.42-10.36,5.7H33.55A11.24,11.24,0,0,0,22.3,52.58v9.59A11.25,11.25,0,0,0,33.55,73.34h18l1.84,1.09L61,79l7.33,4.37,5.91,3.52L77.75,89a7,7,0,0,0,10.54-5.81L88.59,66l0-2.15.22-13.09.33-18.9C89.18,31.66,89.18,31.47,89.17,31.29Z"/>
      <path class="cls-1" d="M86.91,36.05a6.33,6.33,0,0,0-2.12-4.37,6.52,6.52,0,0,0-7.54-.87l-2.7,1.48-8.31,4.58L66,37l-1.68.92-4.1,2.26-9.7,5.34H34.86A10.52,10.52,0,0,0,24.33,56v9A10.52,10.52,0,0,0,34.86,75.4H51.7l1.72,1,7.1,4.23,6.86,4.09,5.54,3.3,3.31,2a6.81,6.81,0,0,0,2.2.83,6.52,6.52,0,0,0,7.67-6.26l.27-16.06,0-2,.21-12.25.31-17.69C86.93,36.4,86.92,36.22,86.91,36.05Z"/>
      <path d="M89.05,56.32l-2.91.1s-58.27,2.24-59.6,2.42S22,56.26,22,56.26l-.86,2.57.39.68L26,61.77l60.12-3.34L89,58Z"/>
    </g>
  </g>
</svg>
