<svg xmlns="http://www.w3.org/2000/svg" width="110" height="110" viewBox="0 0 110 110">
  <defs>
    <style>
      .cls-1 {
        fill: #e2db54;
      }

      .cls-2 {
        fill: #fcf759;
      }

      .cls-3 {
        fill: #56e2ca;
      }

      .cls-4 {
        fill: #5af9e2;
      }

      .cls-5 {
        fill: #bfbfbf;
      }

      .cls-6 {
        fill: #e2e2e0;
      }
    </style>
  </defs>
  <g id="mantequilla">
    <g>
      <g>
        <g>
          <path class="cls-1" d="M46.89,61.81,34.21,55.9c-3-1.39-3.87-4.38-2-6.65L71.18,2.84c1.9-2.27,5.9-3,8.89-1.59l12.68,5.9c3,1.4,3.88,4.39,2,6.66L55.79,60.22C53.89,62.49,49.88,63.2,46.89,61.81Z"/>
          <path class="cls-2" d="M49.74,64.21l8,11.49c1.88,2.7,5,3.06,6.88.8l38.94-46.41c1.91-2.27,1.92-6.34,0-9l-8-11.49c-1.88-2.71-5-3.07-6.89-.8L49.78,55.16C47.87,57.42,47.86,61.5,49.74,64.21Z"/>
        </g>
        <g>
          <path class="cls-3" d="M68.5,36,55.6,30c-3-1.41-7.11-.68-9.05,1.62l-.48.57L6.94,78.83l-.48.57c-1.93,2.31-1.95,6.45,0,9.21l8.13,11.69c1.92,2.75,5.07,3.12,7,.81L30.9,90,61.18,53.9l9.33-11.12C72.44,40.47,71.54,37.43,68.5,36Z"/>
          <path class="cls-4" d="M79.53,50.14,71.4,38.45c-1.92-2.76-5.07-3.12-7-.82L55.06,48.75,24.78,84.84,15.45,96c-1.94,2.31-1,5.36,2,6.77l12.9,6c3,1.42,7.11.69,9-1.62l.47-.57L79,59.91l.47-.57C81.43,57,81.45,52.89,79.53,50.14Z"/>
        </g>
      </g>
      <g>
        <path class="cls-5" d="M50.38,27,37,38.59a3.06,3.06,0,0,0,2.86,5.26L67.6,35.72Z"/>
        <path class="cls-6" d="M83.23,54.91,70.44,72c-2.07,3.08-7.67,1.49-7.11-2.13l1.18-31.56A3.12,3.12,0,0,1,70.12,37Z"/>
      </g>
    </g>
  </g>
</svg>
