<svg xmlns="http://www.w3.org/2000/svg" width="60" height="60" viewBox="0 0 60 60">
  <defs>
    <style>
      .cls-1 {
        fill: #cabca6;
      }

      .cls-2 {
        fill: #774318;
      }

      .cls-3 {
        fill: #603813;
      }

      .cls-4 {
        fill: #49290f;
      }
    </style>
  </defs>
  <g id="butons">
    <g id="settings">
      <g>
        <path class="cls-1" d="M60,28.78a29.77,29.77,0,0,0-1.5-8A30.52,30.52,0,0,0,57.32,18a29.79,29.79,0,0,0-2.92-5,30,30,0,0,0-8.91-8.17A28.76,28.76,0,0,0,42,3,30.12,30.12,0,0,0,8,10a30.87,30.87,0,0,0-2.74,3.4,30.25,30.25,0,0,0-1.93,3.18A30.07,30.07,0,0,0,.23,26.53,30.41,30.41,0,0,0,0,30.24c0,.16,0,.31,0,.47V31c0,.64,0,1.28.11,1.91.09,1,.23,2,.41,3a29.43,29.43,0,0,0,1.2,4.4c.34.92.71,1.83,1.13,2.71a29.51,29.51,0,0,0,3.65,5.8,27.86,27.86,0,0,0,2.3,2.55c.64.64,1.32,1.25,2,1.83a31.22,31.22,0,0,0,3.6,2.55,30.24,30.24,0,0,0,32.63-1A29.21,29.21,0,0,0,50,52.44c.56-.49,1.09-1,1.61-1.53a31.18,31.18,0,0,0,2.26-2.6c.61-.8,1.19-1.63,1.72-2.49A28.16,28.16,0,0,0,57,43.18,30.18,30.18,0,0,0,59.23,37,29.86,29.86,0,0,0,60,30.63c0-.36,0-.72,0-1.09S60,29,60,28.78Z"/>
        <g>
          <path d="M27.84,28.21l-5.95.14L1,28.86v.45H8l19.81,0,31.42,0c0-.36,0-.71,0-1.06s0-.5,0-.74l-.35,0Z"/>
          <path class="cls-2" d="M13.17,17.15c6.28-3.1,12.76-6.3,23.46-7.49A54.33,54.33,0,0,1,46,9.4c1.66.06,3.35.13,5.61.06a29.06,29.06,0,0,0-6.52-5.31l-1.89.73A189.59,189.59,0,0,1,4.19,15.62a28.44,28.44,0,0,0-2.43,6.47c1.14-.39,2.25-.8,3.35-1.23C8,19.7,10.63,18.4,13.17,17.15Z"/>
          <path class="cls-2" d="M41.7,2.39a29.47,29.47,0,0,0-23.29,0,2.24,2.24,0,0,1,1.08,1.64c.05,2-4.11,3.81-10.76,5.18a30.09,30.09,0,0,0-2.67,3.3,189,189,0,0,0,35.39-10Z"/>
          <path class="cls-2" d="M39.65,21.87a32.46,32.46,0,0,0-10.32,5.3l-1.49,1,31-.75.35,0a28.62,28.62,0,0,0-1.47-7.73A54.22,54.22,0,0,0,39.65,21.87Z"/>
          <path class="cls-2" d="M26.62,25.26a36.29,36.29,0,0,1,11.52-5.88A58.71,58.71,0,0,1,56.63,17a28.73,28.73,0,0,0-2.84-4.86,71.91,71.91,0,0,1-8,0,48.05,48.05,0,0,0-8.58.23c-9.8,1.09-15.64,4-21.81,7C12.74,20.67,10,22,7,23.22c-1.91.77-3.84,1.44-5.8,2A28.68,28.68,0,0,0,1,28.86l20.94-.51C23.74,27.28,25.19,26.26,26.62,25.26Z"/>
          <path class="cls-3" d="M45.13,4.15A28.42,28.42,0,0,0,41.7,2.39l-.25.1a189,189,0,0,1-35.39,10,30.21,30.21,0,0,0-1.87,3.09A189.59,189.59,0,0,0,43.24,4.88Z"/>
          <path class="cls-3" d="M15.36,19.37c6.17-3.05,12-5.93,21.81-7a48.05,48.05,0,0,1,8.58-.23,71.91,71.91,0,0,0,8,0,28.54,28.54,0,0,0-2.14-2.63c-2.26.07-3.95,0-5.61-.06a54.33,54.33,0,0,0-9.41.26c-10.7,1.19-17.18,4.39-23.46,7.49C10.63,18.4,8,19.7,5.11,20.86c-1.1.43-2.21.84-3.35,1.23a30.33,30.33,0,0,0-.59,3.16c2-.59,3.89-1.26,5.8-2C10,22,12.74,20.67,15.36,19.37Z"/>
          <path class="cls-3" d="M38.14,19.38a36.29,36.29,0,0,0-11.52,5.88c-1.43,1-2.88,2-4.73,3.09l5.95-.14,1.49-1a32.46,32.46,0,0,1,10.32-5.3,54.22,54.22,0,0,1,18.07-2.16c-.32-.94-.68-1.86-1.09-2.76A58.71,58.71,0,0,0,38.14,19.38Z"/>
          <path class="cls-3" d="M19.49,4.05a2.24,2.24,0,0,0-1.08-1.64A29.26,29.26,0,0,0,8.73,9.23C15.38,7.86,19.54,6,19.49,4.05Z"/>
          <path class="cls-2" d="M1.06,31.44l.2-.06C3.57,30.63,5.8,29.91,8,29.3H1v.28C1,30.21,1,30.83,1.06,31.44Z"/>
          <path class="cls-2" d="M20.58,40.42c-4.12-.42-7.19-.47-16.85.79a28.61,28.61,0,0,0,3.54,5.64,191.62,191.62,0,0,1,24.37-1.59h.12A199.9,199.9,0,0,1,53.24,46.4,28.8,28.8,0,0,0,54.92,44l-.18,0C54.35,43.91,50.83,43.51,20.58,40.42Z"/>
          <path class="cls-2" d="M31.64,48A184.56,184.56,0,0,0,9.5,49.33c.63.62,1.29,1.21,2,1.77a118.66,118.66,0,0,1,21-1.63,136.91,136.91,0,0,1,17,1c.54-.47,1.06-1,1.56-1.49q-9.6-.95-19.29-1Z"/>
          <path class="cls-2" d="M29.75,30a104.65,104.65,0,0,0,10,3.42c8.6,2.52,14.54,3.3,17.65,2.35a10.82,10.82,0,0,0,1.13-.43,28.8,28.8,0,0,0,.74-6.13l-31.42,0Z"/>
          <path class="cls-2" d="M38.21,36c-4.94-1.44-8.06-2.67-10.34-3.56-1-.41-1.95-.76-2.76-1C17.92,29,11.61,31,2.87,33.85l-1.41.46a27.61,27.61,0,0,0,1.17,4.26l2.6-.32c8.19-1,11.53-1,15.9-.53,31.09,3.17,34.24,3.54,34.46,3.58l.75.13c.44-.91.83-1.84,1.18-2.79C54.54,39.21,49.25,39.2,38.21,36Z"/>
          <path class="cls-2" d="M54.72,44h0Z"/>
          <path class="cls-3" d="M21.13,37.72c-4.37-.44-7.71-.47-15.9.53l-2.6.32a27.71,27.71,0,0,0,1.1,2.64C13.39,40,16.46,40,20.58,40.42,50.83,43.51,54.35,43.91,54.74,44l.18,0c.51-.83,1-1.68,1.42-2.56l-.75-.13C55.37,41.26,52.22,40.89,21.13,37.72ZM54.69,44h0Z"/>
          <path class="cls-3" d="M31.64,45.26A191.62,191.62,0,0,0,7.27,46.85,30.81,30.81,0,0,0,9.5,49.33,184.56,184.56,0,0,1,31.64,48h.12q9.68,0,19.29,1a27.77,27.77,0,0,0,2.19-2.53,199.9,199.9,0,0,0-21.48-1.14Z"/>
          <path class="cls-3" d="M39.7,33.45a104.65,104.65,0,0,1-10-3.42l-1.95-.76L8,29.3c-2.19.61-4.42,1.33-6.73,2.08l-.2.06c.09,1,.22,1.93.4,2.87l1.41-.46C11.61,31,17.92,29,25.11,31.38c.81.27,1.72.62,2.76,1,2.28.89,5.4,2.12,10.34,3.56,11,3.23,16.33,3.24,19.31,2.67a29.34,29.34,0,0,0,1-3.27,10.82,10.82,0,0,1-1.13.43C54.24,36.75,48.3,36,39.7,33.45Z"/>
          <path class="cls-3" d="M11.47,51.1A29.32,29.32,0,0,0,15,53.57c2.8-1.16,9.58-2,17.51-2a81.35,81.35,0,0,1,14.19,1.05,27.56,27.56,0,0,0,2.83-2.21,136.91,136.91,0,0,0-17-1A118.66,118.66,0,0,0,11.47,51.1Z"/>
          <path class="cls-2" d="M15,53.57a29.37,29.37,0,0,0,31.7-.94,81.35,81.35,0,0,0-14.19-1.05C24.54,51.59,17.76,52.41,15,53.57Z"/>
        </g>
      </g>
      <polygon points="58.95 27.3 59.96 28.14 60 29.88 59 29.03 58.95 27.3"/>
      <polygon points="51.51 29.4 51.52 28.26 52.44 27.66 52.57 29.23 51.51 29.4"/>
      <polygon points="9.61 29.8 9.63 28.9 7.9 28.73 7.93 29.33 9.61 29.8"/>
      <polygon points="0.01 29.48 0 29.14 0.97 28.86 0.95 29.31 0.01 29.48"/>
      <g>
        <g>
          <polygon class="cls-4" points="33.41 29.73 32.5 30.86 48.81 51.19 49.93 50.31 33.41 29.73"/>
          <polygon class="cls-4" points="28.28 25.6 29.19 24.46 13.63 5.06 9.27 8.5 9.37 8.63 12.62 6.07 28.28 25.6"/>
          <polygon class="cls-1" points="9.37 8.63 8.25 9.51 24.72 30.04 25.63 28.91 9.37 8.63"/>
          <polygon class="cls-1" points="29.85 34.17 28.94 35.3 44.55 54.76 48.91 51.32 48.81 51.19 45.56 53.76 29.85 34.17"/>
          <polygon class="cls-1" points="28.28 25.6 12.62 6.07 9.37 8.63 25.63 28.91 28.28 25.6"/>
          <polygon class="cls-1" points="29.85 34.17 45.56 53.76 48.81 51.19 32.5 30.86 29.85 34.17"/>
          <polygon class="cls-4" points="24.72 30.04 9.27 49.31 10.07 49.94 25.38 30.86 24.72 30.04"/>
          <polygon class="cls-4" points="46.07 5.06 49.63 7.87 49.93 7.5 45.56 4.05 29.19 24.46 29.85 25.28 46.07 5.06"/>
          <polygon class="cls-4" points="28.94 26.42 29.85 25.28 29.19 24.46 28.28 25.6 28.94 26.42"/>
          <polygon class="cls-1" points="26.29 29.73 25.63 28.91 24.72 30.04 25.38 30.86 26.29 29.73"/>
          <polygon class="cls-1" points="28.28 25.6 25.63 28.91 26.29 29.73 28.94 26.42 28.28 25.6"/>
          <polygon class="cls-1" points="33.41 29.73 50.44 8.5 49.63 7.87 32.76 28.91 33.41 29.73"/>
          <polygon class="cls-1" points="13.63 52.75 10.07 49.94 9.77 50.31 14.14 53.76 28.94 35.3 28.28 34.48 13.63 52.75"/>
          <polygon class="cls-1" points="31.85 30.04 32.5 30.86 33.41 29.73 32.76 28.91 31.85 30.04"/>
          <polygon class="cls-1" points="29.19 33.35 28.28 34.48 28.94 35.3 29.85 34.17 29.19 33.35"/>
          <polygon class="cls-1" points="29.19 33.35 29.85 34.17 32.5 30.86 31.85 30.04 29.19 33.35"/>
          <polygon class="cls-1" points="29.85 25.28 32.76 28.91 49.63 7.87 46.07 5.06 29.85 25.28"/>
          <polygon class="cls-1" points="28.28 34.48 25.38 30.86 10.07 49.94 13.63 52.75 28.28 34.48"/>
          <polygon class="cls-1" points="32.76 28.91 29.85 25.28 28.94 26.42 31.85 30.04 32.76 28.91"/>
          <polygon class="cls-1" points="25.38 30.86 28.28 34.48 29.19 33.35 26.29 29.73 25.38 30.86"/>
          <polygon class="cls-1" points="28.94 26.42 26.29 29.73 29.19 33.35 31.85 30.04 28.94 26.42"/>
        </g>
        <polygon points="51.53 28.26 51.52 28.26 51.53 28.55 51.53 28.26"/>
        <path d="M36.67,29.48l14.85-.08V28.26l-15,.19A6.91,6.91,0,0,1,36.67,29.48Z"/>
        <path d="M9.6,28.78l-.06.85,24.66-.37a3.87,3.87,0,0,1,.21-.94Z"/>
      </g>
    </g>
  </g>
</svg>
