<svg xmlns="http://www.w3.org/2000/svg" width="120" height="120" viewBox="0 0 120 120">
  <defs>
    <style>
      .cls-1 {
        fill: #cabca6;
      }

      .cls-2 {
        fill: #774318;
      }

      .cls-3 {
        fill: #603813;
      }

      .cls-4 {
        fill: #49290f;
      }
    </style>
  </defs>
  <g id="butons">
    <g id="pause">
      <g>
        <g>
          <path class="cls-1" d="M119.87,59a58.73,58.73,0,0,0-4.73-21.71,59.87,59.87,0,0,0-5.58-10.15,61.65,61.65,0,0,0-4.28-5.52A60.25,60.25,0,0,0,92.15,10.37a60.92,60.92,0,0,0-7-3.79A60.24,60.24,0,0,0,17,19,60.16,60.16,0,0,0,7.36,32,58.93,58.93,0,0,0,0,59c0,.3,0,.61,0,.92s0,.38,0,.58c0,1.28.05,2.55.13,3.82a55.26,55.26,0,0,0,.68,5.92A57.94,57.94,0,0,0,3,79.12q.93,2.8,2.12,5.47a59.46,59.46,0,0,0,11.47,17q1.89,2,4,3.75a60.32,60.32,0,0,0,72.3,4.91,59.56,59.56,0,0,0,5.93-4.41c1.13-1,2.23-2,3.28-3a60.72,60.72,0,0,0,8.21-10A59.4,59.4,0,0,0,115.87,82a58.7,58.7,0,0,0,4-19.27c0-.72,0-1.45,0-2.17C119.89,60,119.88,59.52,119.87,59Z"/>
          <g>
            <path d="M55.74,56.31H2c0,.3,0,.6,0,.9L16,57.53l39.58.91,62.78,1.44c0-.7,0-1.41,0-2.11,0-.5,0-1,0-1.49q-.33,0-.69,0Z"/>
            <path class="cls-2" d="M27,33.49c12.69-5.89,25.8-12,47.22-13.85A107.87,107.87,0,0,1,93,19.58c3.31.21,6.69.43,11.2.39A58.6,58.6,0,0,0,91.47,9l-3.82,1.37C75.54,14.69,45.29,25.38,9.11,30A56.65,56.65,0,0,0,3.93,42.82q3.45-1.08,6.76-2.31C16.53,38.34,21.84,35.87,27,33.49Z"/>
            <path class="cls-2" d="M84.7,5.35A58.83,58.83,0,0,0,38.16,4.28c1.36,1.06,2.09,2.17,2.09,3.32,0,3.91-8.4,7.42-21.76,9.85A58.46,58.46,0,0,0,13,23.92C45.76,19.12,73,9.5,84.19,5.54Z"/>
            <path class="cls-2" d="M79.64,44.21c-10,2.85-15,6.21-20.88,10.1-1,.65-2,1.32-3,2h62q.36,0,.69,0a57.34,57.34,0,0,0-2.54-15.52A108.27,108.27,0,0,0,79.64,44.21Z"/>
            <path class="cls-2" d="M53.45,50.35c6.15-4.1,12-8,23.3-11.19a116.75,116.75,0,0,1,37.06-4,56.84,56.84,0,0,0-5.43-9.86A146.34,146.34,0,0,1,92.32,25a97,97,0,0,0-17.17,0c-19.63,1.7-31.43,7.18-43.92,13-5.29,2.46-10.77,5-16.94,7.3Q8.52,47.49,2.61,49.11A57,57,0,0,0,2,56.31H43.85C47.58,54.26,50.55,52.28,53.45,50.35Z"/>
            <path class="cls-3" d="M91.47,9A59.75,59.75,0,0,0,84.7,5.35l-.51.19C73,9.5,45.76,19.12,13,23.92A56.65,56.65,0,0,0,9.11,30c36.18-4.63,66.43-15.32,78.54-19.6Z"/>
            <path class="cls-3" d="M31.23,38c12.49-5.8,24.29-11.28,43.92-13a97,97,0,0,1,17.17,0,146.34,146.34,0,0,0,16.06.33A58.21,58.21,0,0,0,104.23,20c-4.51,0-7.89-.18-11.2-.39a107.87,107.87,0,0,0-18.83.06C52.78,21.51,39.67,27.6,27,33.49c-5.14,2.38-10.45,4.85-16.29,7q-3.31,1.23-6.76,2.31a57.05,57.05,0,0,0-1.32,6.29q5.9-1.63,11.68-3.77C20.46,43,25.94,40.5,31.23,38Z"/>
            <path class="cls-3" d="M76.75,39.16C65.4,42.39,59.6,46.25,53.45,50.35c-2.9,1.93-5.87,3.91-9.6,6H55.74c1-.68,2-1.35,3-2,5.84-3.89,10.89-7.25,20.88-10.1a108.27,108.27,0,0,1,36.22-3.45,58.56,58.56,0,0,0-2-5.56A116.75,116.75,0,0,0,76.75,39.16Z"/>
            <path class="cls-3" d="M40.25,7.6c0-1.15-.73-2.26-2.09-3.32A58.46,58.46,0,0,0,18.49,17.45C31.85,15,40.25,11.51,40.25,7.6Z"/>
            <path class="cls-2" d="M2.08,61.48l.4-.12C7.13,60,11.62,58.64,16,57.53L2,57.21v.56C2,59,2,60.25,2.08,61.48Z"/>
            <path class="cls-2" d="M40.63,80.38c-8.21-1-14.33-1.29-33.71.76a58.17,58.17,0,0,0,6.81,11.45,382.5,382.5,0,0,1,48.76-2h.25a398.7,398.7,0,0,1,42.86,3.33,57.44,57.44,0,0,0,3.46-4.74l-.36-.08C107.93,89,100.92,88,40.63,80.38Z"/>
            <path class="cls-2" d="M62.36,96a368.92,368.92,0,0,0-44.3,1.61q1.85,1.91,3.85,3.65c10.22-1.74,25.28-2.64,42-2.25a270.57,270.57,0,0,1,34,2.73c1.1-.93,2.17-1.9,3.19-2.91C88.33,97.29,75.48,96.34,62.61,96Z"/>
            <path class="cls-2" d="M59.47,60a209,209,0,0,0,19.7,7.33c17.06,5.44,28.89,7.3,35.16,5.54a20.74,20.74,0,0,0,2.28-.79,57.46,57.46,0,0,0,1.77-12.24L55.6,58.44C56.81,58.92,58.08,59.46,59.47,60Z"/>
            <path class="cls-2" d="M76.09,72.34c-9.82-3.13-16-5.73-20.5-7.63-2.06-.87-3.85-1.62-5.45-2.19-14.25-5.14-27-1.36-44.57,3.87l-2.83.84a57,57,0,0,0,2.12,8.59c1.85-.2,3.59-.37,5.21-.53,16.42-1.6,23.08-1.38,31.8-.28,62,7.84,68.23,8.73,68.67,8.82l1.48.29a57.15,57.15,0,0,0,2.5-5.52C108.54,79.59,98,79.31,76.09,72.34Z"/>
            <path class="cls-2" d="M108.68,89.1h0Z"/>
            <path class="cls-3" d="M41.87,75c-8.72-1.1-15.38-1.32-31.8.28-1.62.16-3.36.33-5.21.53.6,1.81,1.29,3.59,2.06,5.32,19.38-2,25.5-1.8,33.71-.76C100.92,88,107.93,89,108.7,89.1l.36.08a58.12,58.12,0,0,0,3-5.06l-1.48-.29C110.1,83.74,103.83,82.85,41.87,75Zm66.74,14.08h0Z"/>
            <path class="cls-3" d="M62.49,90.58a382.5,382.5,0,0,0-48.76,2,57.8,57.8,0,0,0,4.33,5.06A368.92,368.92,0,0,1,62.36,96h.25c12.87.3,25.72,1.25,38.48,2.83a57.17,57.17,0,0,0,4.51-5,398.7,398.7,0,0,0-42.86-3.33Z"/>
            <path class="cls-3" d="M79.17,67.37A209,209,0,0,1,59.47,60c-1.39-.58-2.66-1.12-3.87-1.6L16,57.53C11.62,58.64,7.13,60,2.48,61.36l-.4.12a57.46,57.46,0,0,0,.66,5.75l2.83-.84c17.6-5.23,30.32-9,44.57-3.87,1.6.57,3.39,1.32,5.45,2.19,4.51,1.9,10.68,4.5,20.5,7.63,21.88,7,32.45,7.25,38.43,6.26a57.58,57.58,0,0,0,2.09-6.48,20.74,20.74,0,0,1-2.28.79C108.06,74.67,96.23,72.81,79.17,67.37Z"/>
            <path class="cls-3" d="M21.91,101.3a58.44,58.44,0,0,0,6.86,5.11c5.65-2.19,19.24-3.51,35.08-3.15a161.56,161.56,0,0,1,28.29,2.8,57.67,57.67,0,0,0,5.76-4.28A270.57,270.57,0,0,0,64,99.05C47.19,98.66,32.13,99.56,21.91,101.3Z"/>
            <path class="cls-2" d="M28.77,106.41a58.66,58.66,0,0,0,63.37-.35,161.56,161.56,0,0,0-28.29-2.8C48,102.9,34.42,104.22,28.77,106.41Z"/>
          </g>
          <g>
            <rect class="cls-4" x="37.44" y="19.82" width="19.15" height="75.81" rx="8.29"/>
            <rect class="cls-4" x="65.92" y="19.82" width="19.15" height="75.81" rx="8.29"/>
          </g>
          <polygon points="82.81 58.8 85.35 59.14 85.3 56.33 82.79 56.89 82.81 58.8"/>
          <polygon points="54.06 58.11 56.7 58.45 56.7 56.34 54.09 56.77 54.06 58.11"/>
          <g>
            <path class="cls-1" d="M54.06,31.87a7.6,7.6,0,0,0-7.61-7.55H44.66a7.6,7.6,0,0,0-7.61,7.55V56.75l17,0Z"/>
            <path class="cls-1" d="M37.05,88.13a7.6,7.6,0,0,0,7.61,7.55h1.79a7.6,7.6,0,0,0,7.61-7.55v-30l-17-.41Z"/>
            <path class="cls-1" d="M65.83,88.13a7.6,7.6,0,0,0,7.61,7.55h1.79a7.59,7.59,0,0,0,7.6-7.55V58.78l-17-.41Z"/>
            <path class="cls-1" d="M82.83,31.87a7.59,7.59,0,0,0-7.6-7.55H73.44a7.6,7.6,0,0,0-7.61,7.55V56.8l17,0Z"/>
            <polygon points="82.98 56.82 82.83 56.82 82.83 58.78 82.93 58.79 82.98 56.82"/>
            <polygon points="37.05 56.75 37.05 57.67 54.06 58.08 54.06 56.78 37.05 56.75"/>
            <polygon points="65.83 56.8 65.83 58.37 82.83 58.78 82.83 56.82 65.83 56.8"/>
          </g>
        </g>
        <polygon points="120 60.23 118.2 59.98 118.09 56.27 119.86 56.7 120 60.23"/>
      </g>
      <polygon points="2.02 57.23 0.04 58.14 0.05 57.5 2.02 56.32 2.02 57.23"/>
    </g>
  </g>
</svg>
