<svg xmlns="http://www.w3.org/2000/svg" width="510" height="120" viewBox="0 0 510 120">
  <defs>
    <style>
      .cls-1 {
        fill: #cabca6;
      }

      .cls-2 {
        fill: #774318;
      }

      .cls-3 {
        fill: #603813;
      }
    </style>
  </defs>
  <g id="buttom_instructions">
    <g>
      <rect class="cls-1" x="13.48" y="1" width="484" height="118" rx="10.38"/>
      <g>
        <path class="cls-2" d="M254,97.85c-6.53,3-14.66,6.81-29.92,7.52-24.22,1.14-36.77-6.56-47.83-13.35-10.4-6.38-18.62-11.42-34.1-7.2-13.66,3.72-24.57,12.49-34.19,20.23-3.55,2.86-7,5.62-10.36,8H306.62c-7.7-8.74-15.68-15.87-29.66-18.62C266.05,92.24,260.71,94.71,254,97.85Z"/>
        <path class="cls-2" d="M25.6,56.4c.59.19,6,1.76,52.59,13.76,11.79,3,18,1.17,94.23-28.53L176,40.22C225.72,20.88,232.1,18.39,244.61,23c16.18,6,23.67,17.54,31.6,29.75,7.15,11,14.54,22.36,29.49,32.44A104.8,104.8,0,0,0,341,99.76c24.38,5,45.67-.8,63.28-17.13a168.12,168.12,0,0,0,12.55-13.51c9.78-11.32,19.88-23,36.39-26.62a33.94,33.94,0,0,1,14.51-.13,41.4,41.4,0,0,0,15.36.12,71.11,71.11,0,0,0,9.48-2.27v-29c0-4.55-1.71-8.42-4-9.75-3.59,3.12-7.36,6.75-11.43,10.65-4.27,4.1-8.68,8.34-13.51,12.6-10.31,9.1-37.71,33.25-69.47,40.08-36.17,7.76-65-10.09-82.29-20.76C288.06,29.41,275.55,14,265.93,1H181.35a249,249,0,0,1-47,29.36C114,40.28,91.05,51.52,61.17,51.52H61a130.45,130.45,0,0,1-48.46-9.68v8.94c2.34.87,4.94,2,7.75,3.28C22,54.82,23.73,55.61,25.6,56.4Z"/>
        <path class="cls-2" d="M61.17,41c29.06,0,50.67-10.56,71.57-20.77A259.07,259.07,0,0,0,166,1H76.68c15.28,2.73,26,9.06,26,16.44,0,9.87-19.15,17.87-42.77,17.87s-42.78-8-42.78-17.87c0-7.38,10.71-13.71,26-16.44H18.34c-3.2,0-5.82,4.61-5.82,10.25V31.08A127,127,0,0,0,61,41Z"/>
        <path class="cls-2" d="M393.34,54.42c30.74-6.6,57.46-30.17,67.52-39C465.6,11.2,470,7,474.19,3l2-1.95H411.48C421.05,5.64,427,12.14,427,19.35c0,14.08-22.72,25.5-50.76,25.5s-50.76-11.42-50.76-25.5c0-7.21,5.95-13.71,15.52-18.35H276a144.69,144.69,0,0,0,37.77,33.18C330.5,44.54,358.56,61.89,393.34,54.42Z"/>
        <path class="cls-2" d="M48.73,96.87c-13.23-9.7-22.38-12.75-27.17-9.09a19.71,19.71,0,0,0-4.75,5.89c-1.19,2-2.49,4.11-4.29,5.06v4c0,5.64,2.62,10.25,5.82,10.25H67.05c-.94-.87-1.93-1.84-3-2.9A126.9,126.9,0,0,0,48.73,96.87Z"/>
        <path class="cls-2" d="M457.35,89.74c-7.69,5.47-11.58,11.94-16.08,19.42-.75,1.25-1.52,2.53-2.33,3.84h47.75c3.21,0,5.83-4.61,5.83-10.25V84.81C479.51,80.74,467.73,82.37,457.35,89.74Z"/>
        <path class="cls-2" d="M467.13,52.81a30.44,30.44,0,0,0-13.23.1c-15.13,3.28-24.22,13.82-33.84,25A172.75,172.75,0,0,1,407,91.9c-44.18,41-97.5,7.12-103.43,3.12-15.94-10.74-24.09-23.28-31.28-34.34C264.65,48.91,258,38.74,243.38,33.3c-11.25-4.18-17.49-1.75-66,17.16l-3.63,1.41c-35.94,14-58.71,22.78-71.87,26.74-12.62,3.8-17.76,3.66-24.5,1.93C29.46,68.21,24.62,66.77,24.27,66.62c-1.92-.81-3.72-1.62-5.46-2.39-2.13-1-4.28-1.91-6.29-2.7V86.38l.22-.36a26.69,26.69,0,0,1,6.44-7.85c4.1-3.14,11.87-5.62,31.84,9A134.22,134.22,0,0,1,67,100.94c1.6,1.58,3,3,4.24,4,11.07,9.23,20.79,1.41,34.26-9.42,10-8,21.27-17.11,35.75-21.05,17-4.62,26.22,1.07,37,7.66,10.58,6.49,22.58,13.85,45.71,12.77,14.57-.68,22-4.13,28.56-7.18,7.06-3.28,13.16-6.11,25.18-3.75,18.32,3.6,27.44,14.45,37.11,25.94.86,1,1.74,2.07,2.62,3.1H429.78c2.88-3.94,5.16-7.74,7.4-11.46,4.73-7.87,9.2-15.31,17.95-21.52,11.15-7.92,23.68-9.87,37.39-5.86V50.86a73.94,73.94,0,0,1-8.93,2.07A44.9,44.9,0,0,1,467.13,52.81Zm-244.93,33c-21,0-38-8-38-17.87s17-17.87,38-17.87,38,8,38,17.87S243.2,85.83,222.2,85.83Z"/>
        <path class="cls-2" d="M25.67,56.43l-.05,0Z"/>
        <path class="cls-3" d="M311.77,44.07C329,54.74,357.89,72.59,394.06,64.83c31.76-6.83,59.16-31,69.47-40.08,4.83-4.26,9.24-8.5,13.51-12.6,4.07-3.9,7.84-7.53,11.43-10.65a3.57,3.57,0,0,0-1.78-.5H476.22l-2,2C470,7,465.6,11.2,460.86,15.38c-10.06,8.87-36.78,32.44-67.52,39-34.78,7.47-62.84-9.88-79.6-20.24A144.69,144.69,0,0,1,276,1h-10C275.55,14,288.06,29.41,311.77,44.07Z"/>
        <path class="cls-3" d="M483,42.49a41.4,41.4,0,0,1-15.36-.12,33.94,33.94,0,0,0-14.51.13c-16.51,3.59-26.61,15.3-36.39,26.62a168.12,168.12,0,0,1-12.55,13.51C386.62,99,365.33,104.73,341,99.76A104.8,104.8,0,0,1,305.7,85.23c-14.95-10.08-22.34-21.45-29.49-32.44-7.93-12.21-15.42-23.74-31.6-29.75C232.1,18.39,225.72,20.88,176,40.22l-3.62,1.41C96.15,71.33,90,73.2,78.19,70.16c-46.58-12-52-13.57-52.59-13.76-1.87-.79-3.63-1.58-5.33-2.34-2.81-1.25-5.41-2.41-7.75-3.28V61.53c2,.79,4.16,1.75,6.29,2.7,1.74.77,3.54,1.58,5.46,2.39.35.15,5.19,1.59,53.06,13.92,6.74,1.73,11.88,1.87,24.5-1.93,13.16-4,35.93-12.74,71.87-26.74l3.63-1.41c48.56-18.91,54.8-21.34,66-17.16,14.66,5.44,21.27,15.61,28.91,27.38,7.19,11.06,15.34,23.6,31.28,34.34,5.93,4,59.25,37.87,103.43-3.12a172.75,172.75,0,0,0,13.06-14c9.62-11.15,18.71-21.69,33.84-25a30.44,30.44,0,0,1,13.23-.1,44.9,44.9,0,0,0,16.46.12,73.94,73.94,0,0,0,8.93-2.07V40.22A71.11,71.11,0,0,1,483,42.49ZM25.62,56.41l.05,0Z"/>
        <path class="cls-3" d="M455.13,80c-8.75,6.21-13.22,13.65-17.95,21.52-2.24,3.72-4.52,7.52-7.4,11.46h9.16c.81-1.31,1.58-2.59,2.33-3.84,4.5-7.48,8.39-14,16.08-19.42,10.38-7.37,22.16-9,35.17-4.93V74.16C478.81,70.15,466.28,72.1,455.13,80Z"/>
        <path class="cls-3" d="M61.17,51.52c29.88,0,52.87-11.24,73.16-21.16A249,249,0,0,0,181.35,1H166a259.07,259.07,0,0,1-33.26,19.26C111.84,30.47,90.23,41,61.17,41H61a127,127,0,0,1-48.46-10V41.84A130.45,130.45,0,0,0,61,51.52Z"/>
        <path class="cls-3" d="M314.73,109.9C305.06,98.41,295.94,87.56,277.62,84c-12-2.36-18.12.47-25.18,3.75-6.56,3.05-14,6.5-28.56,7.18-23.13,1.08-35.13-6.28-45.71-12.77-10.75-6.59-20-12.28-37-7.66-14.48,3.94-25.78,13-35.75,21.05C92,106.34,82.26,114.16,71.19,104.93c-1.25-1-2.64-2.41-4.24-4A134.22,134.22,0,0,0,51,87.19c-20-14.64-27.74-12.16-31.84-9A26.69,26.69,0,0,0,12.74,86l-.22.36V98.73c1.8-1,3.1-3.1,4.29-5.06a19.71,19.71,0,0,1,4.75-5.89c4.79-3.66,13.94-.61,27.17,9.09A126.9,126.9,0,0,1,64,110.1c1.08,1.06,2.07,2,3,2.9H97.56c3.37-2.33,6.81-5.09,10.36-8,9.62-7.74,20.53-16.51,34.19-20.23,15.48-4.22,23.7.82,34.1,7.2,11.06,6.79,23.61,14.49,47.83,13.35,15.26-.71,23.39-4.49,29.92-7.52,6.75-3.14,12.09-5.61,23-3.47,14,2.75,22,9.88,29.66,18.62h10.73C316.47,112,315.59,110.93,314.73,109.9Z"/>
        <path class="cls-3" d="M17.12,17.44c0,9.87,19.15,17.87,42.78,17.87s42.77-8,42.77-17.87c0-7.38-10.71-13.71-26-16.44H43.11C27.83,3.73,17.12,10.06,17.12,17.44ZM59.9,2.91C76,2.91,89,8.35,89,15.06S76,27.21,59.9,27.21,30.81,21.77,30.81,15.06,43.83,2.91,59.9,2.91Z"/>
        <ellipse class="cls-2" cx="59.9" cy="15.06" rx="29.09" ry="12.15"/>
        <path class="cls-3" d="M325.48,19.35c0,14.08,22.73,25.5,50.76,25.5S427,33.43,427,19.35c0-7.21-5.95-13.71-15.52-18.35H341C331.43,5.64,325.48,12.14,325.48,19.35ZM379.22,2.43c18.6,0,33.68,7.57,33.68,16.92s-15.08,16.92-33.68,16.92-33.68-7.58-33.68-16.92S360.62,2.43,379.22,2.43Z"/>
        <ellipse class="cls-2" cx="379.22" cy="19.35" rx="33.68" ry="16.92"/>
        <path class="cls-3" d="M222.2,50.09c-21,0-38,8-38,17.87s17,17.87,38,17.87,38-8,38-17.87S243.2,50.09,222.2,50.09Zm3.25,31c-15.48,0-28-5.9-28-13.17S210,54.8,225.45,54.8s28,5.89,28,13.16S240.92,81.13,225.45,81.13Z"/>
        <ellipse class="cls-2" cx="225.45" cy="67.96" rx="28.02" ry="13.17"/>
      </g>
      <g>
        <path class="cls-1" d="M55.13,52.64q-.52-3.31-1.14-6.59a52.1,52.1,0,0,1-.83-6.68,19.77,19.77,0,0,1,0-2.88c.06-.94.13-1.9.2-2.88a6.7,6.7,0,0,1-.15-.68,3.6,3.6,0,0,1-.05-.69,3.67,3.67,0,0,0-2-1.07,17.23,17.23,0,0,0-3.6-.29,8.54,8.54,0,0,0-1,.19,2.5,2.5,0,0,0-.64.3A3.45,3.45,0,0,0,44.44,33c-.36.74-.08,1.48.84,2.19a1.83,1.83,0,0,0,1.13.29,6.74,6.74,0,0,0,1.43-.14A2.73,2.73,0,0,0,49,34.83a.7.7,0,0,0,.35-.73c-.14-.33-.46-.41-1-.25a6.12,6.12,0,0,1-.89.25.94.94,0,0,1-1-.83c-.13-.55.16-.86.89-.93a1.94,1.94,0,0,1,1-.34,4.26,4.26,0,0,1,1.28.1,2.66,2.66,0,0,1,1.09.49,1.39,1.39,0,0,1,.54.82,2.14,2.14,0,0,1-.35,1.42,4.32,4.32,0,0,1-1.28,1.32,8.47,8.47,0,0,1-1.87,1,3.64,3.64,0,0,1-2,.2A3.58,3.58,0,0,1,43.26,36a3.75,3.75,0,0,1-.69-2.39A4.81,4.81,0,0,1,43.45,31a3.94,3.94,0,0,1,2.32-1.61H46A26.48,26.48,0,0,1,53.52,28q3.81-.15,7.68-.05a1,1,0,0,1,1.69,0h1.88a17.89,17.89,0,0,0,1.89-.1,11.24,11.24,0,0,0,1.87-.14l1.53-.3q.73-.15,1.62-.24a19,19,0,0,1,2.17-.1,1,1,0,0,1,.84.88.79.79,0,0,1-.64.88.69.69,0,0,1-.5.19c-1.25.26-2.33.52-3.25.78A6.07,6.07,0,0,0,68,30.93a4.55,4.55,0,0,0-1.38,2A9.45,9.45,0,0,0,66.07,36v8.59q.39,7.32.78,14.49t.59,14.4a13.08,13.08,0,0,0,1.19,3.76,4.14,4.14,0,0,0,1.52,1.66,3.25,3.25,0,0,0,1.83.34c.65-.07,1.31-.16,2-.29.46-.13.69,0,.69.53a1.11,1.11,0,0,1-.5,1,20.2,20.2,0,0,1-3.35,1.22,24.37,24.37,0,0,1-3.35.63.79.79,0,0,1-.69.54.82.82,0,0,1-.78-.34q-3,.19-6,.14A53.59,53.59,0,0,0,54,82.9a10,10,0,0,1-3.65.58.84.84,0,0,1-.93-.73,1,1,0,0,1,.54-1.12.37.37,0,0,0,.29-.1,13.71,13.71,0,0,1,1.48-.29,9.84,9.84,0,0,1,1.48-.1,4.16,4.16,0,0,0,2.17-1.8,7.41,7.41,0,0,0,.88-2.69c0-.52,0-1,0-1.46a7.38,7.38,0,0,0,0-1.47q-.49-5.85-.59-11.71a8.61,8.61,0,0,0-1-2.59,1.73,1.73,0,0,0-1.83-1,.37.37,0,0,1-.29.1A1,1,0,0,1,51.09,58c-.26-.55-.07-1,.59-1.22a3.14,3.14,0,0,1,.89-.19,4.71,4.71,0,0,0,1.82-1.47A3.93,3.93,0,0,0,55.13,52.64Zm.39,5.08a3.66,3.66,0,0,0-.05-.64,4.83,4.83,0,0,1,0-.63l-.34.34-.34.34Zm-.39-28a.9.9,0,0,0,0,.34,1.11,1.11,0,0,1,0,.34l4.23-.68Zm.69,11.42a.78.78,0,0,0,0-.3.69.69,0,0,1-.05-.29l-.49.1-.1.68Zm-.49-8.69a.2.2,0,0,0,.05.15s0,.11,0,.24l5.52-.39V31.17l-5.61,1.07Zm.49,10.64a1.19,1.19,0,0,1-.49.09v.1h.49Zm.1-8,.19.59,4.34-1.37a22.2,22.2,0,0,1-2.37.25c-.77,0-1.52.08-2.26.14Zm.79,45.68-.3.29h.49Zm-.1-43.33a1.56,1.56,0,0,0,.19.68l3.84-.49V37a2.81,2.81,0,0,1,.11-.73Zm.69,2.83a1.14,1.14,0,0,1,.1.48l3.05-.87Zm.1,10v.39l3.64-1v-.09Zm4.33,3.61-2.17.39-2.16.39v.68l2.16-.58c.72-.2,1.45-.42,2.17-.68ZM57.49,45v.78L60.55,45v-.29Zm3-2.25v-.87c-.48.13-1,.24-1.43.34s-1,.21-1.43.34v.49Zm-2.66,16a7.85,7.85,0,0,1,.1,1.37c.8-.26,1.61-.49,2.41-.69s1.64-.39,2.51-.58a1.49,1.49,0,0,1-.09-.59c-.88.13-1.71.23-2.52.29Zm5.52,2.93a5.62,5.62,0,0,0-.2-1.08l-5,1.47v.29c.92-.13,1.81-.24,2.67-.34S62.45,61.85,63.31,61.72Zm-5,3.12L62.52,64l-4.24.49Zm.1,4.3,6.21-1.57-1.71.2-1.4.19-3.1.69Zm2.37-21.57v-.1L58.48,48Zm3.54,18.35a1.19,1.19,0,0,1-.1-.49H63.7l-5.22,1.36v.1Zm-2.71,6.14c-.53.14-1,.25-1.55.35s-1,.21-1.55.34v.88l6.6-1.37v-.39Zm3.3,4.4c-1.11.19-2.23.4-3.35.63l-3.05.63.1.69,6.3-1.86Zm-6.3,3.9,6.6-1.17a1.11,1.11,0,0,0-.05-.34,1.18,1.18,0,0,1,0-.35l-6.5,1.66Zm2.85-28.89c-.46.13-.9.24-1.33.34s-.87.21-1.33.34l2.66-.39ZM65,74.8v-.59c-1,.33-2,.6-2.9.83s-1.89.44-2.81.63Zm-.1-4.69a2.42,2.42,0,0,0-.1-.78h-.29L59.86,70.7Zm-4-13.86a8.16,8.16,0,0,0,1.38-.09v-.3ZM64,42.49a5.58,5.58,0,0,0,0-.73A4.26,4.26,0,0,1,63.9,41l-1.18.29a.57.57,0,0,1-.4.1v1.17a7.94,7.94,0,0,0,.89-.05A6.84,6.84,0,0,1,64,42.49Zm-1.38-6.64v.74a4.86,4.86,0,0,1-.1.83,1.91,1.91,0,0,1,.64-.1h.64V35.56ZM64.29,47v-.39L62.72,47v.2Zm-1.38-16.2v1.37h1V30.68Zm.3,20.2a1.19,1.19,0,0,1,.1.49l1-.1v-.68Zm1.18,5.08v-.78l-.39.09.19.69ZM65.57,29.8a2.33,2.33,0,0,1,.1.88,3.62,3.62,0,0,1,.69-.88Zm2.07,49.49a2.89,2.89,0,0,1,0,.53,3,3,0,0,0,0,.54l.89-.2A2.07,2.07,0,0,1,67.64,79.29Z"/>
        <path class="cls-1" d="M80.84,66.5a13.61,13.61,0,0,1-.1-1.56v-2q-.58-3.12-3-3a2.45,2.45,0,0,1-.79.1c-.19,0-.36-.13-.49-.39a2.66,2.66,0,0,1-.25-.83,1.78,1.78,0,0,1,.1-.83.76.76,0,0,1,.54-.49h.79a3.86,3.86,0,0,0,1.82-2.05,11,11,0,0,0,.84-3.31.6.6,0,0,1,.1-.35c.06-.09.13-.21.2-.34a6.81,6.81,0,0,0,.19-1.66V48a8.74,8.74,0,0,1-.24-1.66q-.06-.88-.15-1.86a7.17,7.17,0,0,0-.2-.78L80,43.08a4.74,4.74,0,0,0-1.83-1.42c-.69-.29-1.39-.6-2.11-.93a1.63,1.63,0,0,1-.55-.09,1.33,1.33,0,0,0-.54-.1h-.39v-.1h-.2a1,1,0,0,1-.79-1,.87.87,0,0,1,.69-.93h.1c-.07,0,0-.06.3-.2,3-.25,5.4-.45,7.34-.58s3.66-.23,5.17-.29,3-.08,4.53-.05l5.52.14v.1a1,1,0,0,1,.84.88,1,1,0,0,1-.74,1h-.2a.45.45,0,0,1-.3.09,4.69,4.69,0,0,0-2.56.49,4.29,4.29,0,0,0-1.72,1.71,11.1,11.1,0,0,0-1,2.63A16.89,16.89,0,0,0,91,47.47a14,14,0,0,1,4.83-3.95,18.17,18.17,0,0,1,6.11-1.91,16.28,16.28,0,0,1,6.15.39,10.6,10.6,0,0,1,5.08,2.93l1.38,1.56c.79,1,1.46,1.91,2,2.59A13.24,13.24,0,0,1,118,51.37a17,17,0,0,1,1.13,3.13,31.81,31.81,0,0,1,.79,5c0,.59-.07.92-.2,1A34.13,34.13,0,0,1,120,64a28.9,28.9,0,0,1-.2,3.37c0,.06,0,.1,0,.1s0,0,0,.09c-.07.78-.15,1.88-.25,3.27a22.07,22.07,0,0,0,.1,4.15,11.3,11.3,0,0,0,1,3.61,2.74,2.74,0,0,0,2.51,1.66.78.78,0,0,1,.79.83.91.91,0,0,1-.79.93,10,10,0,0,1-2,.34q-.94,0-2.07.15c-.76.06-1.68.11-2.76.14s-2.41.15-4,.35a20.22,20.22,0,0,0-3.5-.1,15.87,15.87,0,0,1-2.41,0,1.7,1.7,0,0,1-2,.1,1.65,1.65,0,0,1-.1-1.47c0-.19.66-.39,2-.58a4.76,4.76,0,0,0,.69-1.32c.2-.55.38-1.11.54-1.66s.31-1.06.45-1.51a4.32,4.32,0,0,0,.19-.88l.79-8.79c0-1,0-2,0-3s0-2.12,0-3.22c-.13-1.82-.28-3.52-.44-5.08s-.32-2.86-.45-3.9-.54-1.92-.83-2.83A20.42,20.42,0,0,0,106.16,46a6.73,6.73,0,0,0-.44-.73,4.56,4.56,0,0,0-.44-.53l-.79-.39c-.26-.13-.56-.26-.89-.39a4,4,0,0,0-3,.78A13.83,13.83,0,0,0,98,47.57a9.87,9.87,0,0,0-1.33,2.34c-.6,1.89-1.12,3.5-1.58,4.83s-.87,2.7-1.23,4.1A38.77,38.77,0,0,0,93,63.77c-.23,1.89-.44,4.29-.64,7.22.06.78.15,1.48.25,2.1a3.84,3.84,0,0,1,0,1.32c.06.45.11.87.14,1.26a11.77,11.77,0,0,1,0,1.18c.13.71.26,1.35.4,1.9A2.69,2.69,0,0,0,94,80.07a1.28,1.28,0,0,1,.59-.1,1.67,1.67,0,0,1,.59.19,1.3,1.3,0,0,1,.29.2v.1A9.51,9.51,0,0,0,97.54,80a4.7,4.7,0,0,0,1.83-1.12q.19-.2,0-.54a2.64,2.64,0,0,0-.6-.68,5.72,5.72,0,0,0-.78-.59,3.79,3.79,0,0,1-.5-.34,1,1,0,0,1,.4,1.22.9.9,0,0,1-1.18.53l-.3-.09a1.06,1.06,0,0,1-.69-1c-.2-.91-.1-1.54.3-1.9A1.93,1.93,0,0,1,97.49,75a4.15,4.15,0,0,1,1.88.63,4.47,4.47,0,0,1,1.52,1.47,2.63,2.63,0,0,1,.3,2,4,4,0,0,1-1.73,2.2,2.53,2.53,0,0,1-1.28.58,11.3,11.3,0,0,0-1.38.29,5.5,5.5,0,0,1-1.42.2H94a21.23,21.23,0,0,1-2.81.24c-1.08,0-2.17,0-3.25,0s-2.12,0-3.11,0S83,82.6,82.52,82.6h-.59q-2.18-.09-4.14,0a6,6,0,0,1-2.76.59,1.13,1.13,0,0,1-1-.83c-.17-.49,0-.89.64-1.22L76.71,81a5.43,5.43,0,0,0,3-3.23,16.33,16.33,0,0,0,1.18-4.88Zm.1-10c-.13.26-.28.52-.44.78a7.68,7.68,0,0,0-.44.78,5.92,5.92,0,0,1,.88.68Zm.4,22.15c-.2.39-.4.77-.6,1.12a6.79,6.79,0,0,1-.68,1h1.28Zm.59-39.33A1.26,1.26,0,0,0,82,40l5.12-.78,1.48-.09a18,18,0,0,0-3.3-.1c-1.15.06-2.29.16-3.4.29Zm.39,3.41a.74.74,0,0,0,.05.3.69.69,0,0,1,0,.29l6.7-2.15v-.09l-6.9.78A2.71,2.71,0,0,1,82.32,42.78Zm6.5,2.35a7.61,7.61,0,0,1,.05-.88c0-.26.08-.55.15-.88v-.1l-6.5,2v1Zm-6.2,5.07a3.21,3.21,0,0,0,.19,1l3.45-.69H86L88.63,50v-.1a1.62,1.62,0,0,1-.2-.78l.1-.59a23.09,23.09,0,0,1-3,.78c-1,.2-2,.43-2.95.69Zm.19,11.52q1.78-.49,3.3-.78l2.52-.49V59.38q-1.48.28-2.91.63c-1,.23-1.92.47-2.91.73Zm.2,2.83L88.73,63V62.5l-5.92,1.17Zm5.81,3.12V66.6l-5.91,1.27v1.27ZM83.11,53.32a.35.35,0,0,0,0,.2.49.49,0,0,1,0,.19l5.32-1.26v-.2Zm.1,4.69a1.72,1.72,0,0,1-.1.68l5.42-1.27v-.29ZM89,70.79a2.71,2.71,0,0,0-.1-.87l-5.81,2.44ZM83.31,55.57a.56.56,0,0,0,0,.29.8.8,0,0,1,0,.3l5.13-.88v-1l-1.87.39-1.78.39a.3.3,0,0,0-.19.1Zm6.4,19.81a1.69,1.69,0,0,0-.1-.58,2,2,0,0,1-.1-.59l-6.2,2v1.37Zm.69,3.22-.2-.48-3.45.78c-1.18.26-2.33.55-3.44.87v.69Zm.3-11.81a.43.43,0,0,1,0-.19.58.58,0,0,0,.05-.29H90.7Zm.09-4.39.3-.1a.16.16,0,0,1,0-.14.21.21,0,0,0,0-.15.49.49,0,0,0-.2.05.49.49,0,0,1-.2,0Zm.89-3.81a1.65,1.65,0,0,1-.79.2v1.37l.59-.1Zm-.1-19.12a.86.86,0,0,0-.49.58,2.82,2.82,0,0,0-.1.88,3.88,3.88,0,0,1,.49-.73c.2-.23.4-.47.59-.73Zm1.09,15.22a10.45,10.45,0,0,1,.39-1.27L91,53.81v1.08ZM91,56.84l.3-.1H91Zm.1-5.08v.1l2.76-.68Zm3.94-3a12.09,12.09,0,0,1,.64-1.12c.23-.36.48-.7.74-1l-1.87.49-2.27,2.15Zm12.91-4.88a1.74,1.74,0,0,0-.59-.25,1.88,1.88,0,0,1-.5-.14l.3.49Zm4.73,3.61a1.66,1.66,0,0,1-.35-.49,2,2,0,0,0-.34-.49l-2.76,1.37.29.58ZM110.1,79.19c.4-.13.79-.28,1.19-.44s.78-.34,1.18-.54a5.64,5.64,0,0,1-1.13.25,10.47,10.47,0,0,0-1,.14Zm5.13-28a4.12,4.12,0,0,0-.5-.88c-.72.26-1.44.54-2.16.83s-1.45.6-2.17.93ZM117,75.09a5.41,5.41,0,0,0,.2-1.17l-6.41,2.44,1.48-.39,1.48-.39ZM116.9,55a3.81,3.81,0,0,0-.39-1.07q-2.57.78-5.62,2v.2l.69-.2Zm-.39,24.89v-.63a2.91,2.91,0,0,1,.1-.74l-2,.88L111,80.85a3.6,3.6,0,0,1,.69.05,3.92,3.92,0,0,0,.59,0l.1.09Zm-5.42-21.18L113,58l-1.87.39Zm.1,14.25a5.48,5.48,0,0,1-.1,1.17l6.21-2.34v-.49c-1.12.26-2.17.52-3.16.78S112.17,72.62,111.19,72.94Zm0-12,2.26-.59c.53-.13,1.15-.26,1.88-.39s1.44-.29,2.16-.49v-1c-1,.32-2,.65-3,1s-2.14.72-3.25,1.17Zm0,2.34v.29c.79-.32,1.51-.58,2.17-.78Zm.2,7a3.26,3.26,0,0,1,0,.48,3,3,0,0,0,0,.59l5.91-1.85a3.92,3.92,0,0,0,0-.59,1.09,1.09,0,0,1,0-.59l-3,1C113.26,69.66,112.3,70,111.39,70.31Zm0-2.15q3-1,5.91-1.66a.2.2,0,0,1,0-.15.2.2,0,0,0,0-.14l-3.15.73c-1,.23-1.94.47-2.85.73Zm6.1-3.9v-.39l-4.23,1.26-.89.3ZM120,80.75A4.86,4.86,0,0,1,118.68,79a7.47,7.47,0,0,0-.2,1.47V81Z"/>
        <path class="cls-1" d="M142.62,55.67c-2-.52-3.21-1.24-3.5-2.15a2.82,2.82,0,0,1,.64-2.73,13.53,13.53,0,0,0,.94-4,12.48,12.48,0,0,0-.45-4.79,3.4,3.4,0,0,0-1-1.8,3.61,3.61,0,0,0-3-.93,1.48,1.48,0,0,0-1,.49A13,13,0,0,0,133.75,43a19.86,19.86,0,0,0-.79,3.76c0,.84,0,1.74.1,2.68s.1,1.81.1,2.59a6.86,6.86,0,0,0,.54,1.46,10.11,10.11,0,0,0,.84,1.37,13.87,13.87,0,0,0,3,2,30.49,30.49,0,0,0,3.06,1.27c1,.35,2,.66,3,.92a12.38,12.38,0,0,1,2.76,1.08,7.4,7.4,0,0,1,3.84,3.51,9.12,9.12,0,0,1,1.38,3.81,14.36,14.36,0,0,1-1,6.44,15,15,0,0,1-8.28,8.2,11.53,11.53,0,0,1-5.47.78A12.91,12.91,0,0,1,130.65,81a10,10,0,0,1-4.29-4.68,13,13,0,0,1-1.18-3.71,15.8,15.8,0,0,1,0-3.51V69a3,3,0,0,1,.19-.88,1.15,1.15,0,0,1,.1-.49l.1-.1a5.08,5.08,0,0,1,1.48-2.09,2,2,0,0,1,1.77-.64,6.83,6.83,0,0,1,2.37-.49A4.74,4.74,0,0,1,133,65a7,7,0,0,1,1.68,1.36,4.93,4.93,0,0,1,1,1.81,2.26,2.26,0,0,1-.2,1.85v.2a10.31,10.31,0,0,0-1,2.2,9.18,9.18,0,0,0-.45,2.48,10.27,10.27,0,0,0,.2,2.44,3.54,3.54,0,0,0,.94,1.86,4.32,4.32,0,0,0,2.46.83,11.26,11.26,0,0,0,3.65-.34,16.42,16.42,0,0,0,.64-4,35.92,35.92,0,0,0,0-4.88V70.7a15.5,15.5,0,0,1-.59-3,10.82,10.82,0,0,0-3.45-4.2,12.05,12.05,0,0,1-1.33-.92,5.06,5.06,0,0,0-.94-.64l-3.45-1.17a8.1,8.1,0,0,1-3-1.22,10.49,10.49,0,0,1-2.51-2.29,11.66,11.66,0,0,1-.2-16.54,13.28,13.28,0,0,1,4.24-2.93,15.15,15.15,0,0,1,5-1.22,14.09,14.09,0,0,1,5,.49h.1c.66.13,1.32.29,2,.48a7.79,7.79,0,0,1,1.78.78,8.75,8.75,0,0,1,3.79,3.32,13.75,13.75,0,0,1,1.82,6,10.9,10.9,0,0,1-.24,3.07,5.66,5.66,0,0,1-1.33,2.68,5.69,5.69,0,0,1-2.32,2A5.33,5.33,0,0,1,142.62,55.67ZM131,45.42l-4,1.46-1.77.88a.49.49,0,0,1-.05.2.34.34,0,0,0,0,.19c1-.26,2-.53,2.91-.83s1.88-.6,2.8-.92Zm-5.81,4.49a2.82,2.82,0,0,0,.1.88l2.21-1.17,2.32-1.18c-.92.27-1.73.51-2.42.74s-1.26.4-1.72.53A1.87,1.87,0,0,1,125.18,49.91Zm.49-4.59,5.81-2v-.1L126,44.54Zm.1,7.32c.85-.26,1.69-.5,2.51-.73s1.66-.5,2.51-.83a3.24,3.24,0,0,1-.09-.88l-2.62,1.12a18,18,0,0,0-2.31,1.22Zm1.28,2.44,4.14-2.24v-.1l-4.63,1.66Zm5.42-14.64-3.84,1-.4.09a3.11,3.11,0,0,0-.54.49,5.88,5.88,0,0,1-.44.49,22.35,22.35,0,0,0,2.41-.54c.82-.22,1.66-.47,2.51-.73Zm-5.22,28.7a1,1,0,0,0,.1.48l2.06-1.31a11.6,11.6,0,0,0,1.88-1.52,14.11,14.11,0,0,0-1.88.64,11.78,11.78,0,0,1-2,.63A2.13,2.13,0,0,0,127.25,69.14Zm.49,4.19a2.38,2.38,0,0,1,.15.49.84.84,0,0,0,.24.49v.1l3.94-2a10.05,10.05,0,0,1-1.33.3,4.93,4.93,0,0,1-1.33,0Zm4.43,1.17-3.25,1.66a12.84,12.84,0,0,0,1.63-.53c.55-.23,1.1-.44,1.62-.64Zm1.48-5.36a1.82,1.82,0,0,0,0-1.18,20.29,20.29,0,0,1-2.22,1.42l-2.31,1.32a.2.2,0,0,1,.15,0,.2.2,0,0,0,.14,0l3.85-1.07A2.23,2.23,0,0,0,133.65,69.14Zm-3.94,8.49c0,.06,0,.09,0,.09s.05,0,.05.1l.89-.49h-.2Zm.79-20.11L133,55.76c0-.06,0-.09-.1-.09a7.31,7.31,0,0,0-1.23.68c-.49.33-1,.65-1.53,1Zm2.56-18.84a19.21,19.21,0,0,0-2.17,1l1.87-.58Zm-.59,39.92-1.09.69a.32.32,0,0,0,.2.09l1.09-.39Zm4.73-18.44a5.62,5.62,0,0,1-.74,0,5.74,5.74,0,0,0-.74,0l.69.29ZM137,58.5a1.69,1.69,0,0,1-.49.19,5.57,5.57,0,0,0,1.28.1Zm1.68,2.93a4,4,0,0,1,.88.48l3.55-1.07a3.61,3.61,0,0,0-.89-.24l-.88-.15ZM140,38.68l.09.1.1-.1Zm1,14.06a1.8,1.8,0,0,0,.79-.49,13.58,13.58,0,0,0,1.67-1.07q.79-.59,1.68-1.17a9.18,9.18,0,0,0-2.07.63,4.84,4.84,0,0,0-1.48.93l-.59.88Zm.79,11.32A20.19,20.19,0,0,1,143.8,63L146,62c-.14-.13-.23-.19-.3-.19l-4.53,1.46Zm.2-22.45,2.56-1.46a1.1,1.1,0,0,0-.35-.25,2.75,2.75,0,0,1-.34-.14l-2.37.78Zm.19,11.81a.4.4,0,0,0,.3.1l4.83-1.66a1.68,1.68,0,0,0-.3-.78Zm.3-9.46,4.14-1.57a4.67,4.67,0,0,0-.5-.88H146l-3.55,2.15Zm5.42,2.14a2.34,2.34,0,0,1-.1-.78c-.79.33-1.68.75-2.66,1.27s-1.84.94-2.56,1.27a.3.3,0,0,1-.1.19Zm-5.22-.49V46l1.28-.87Zm.49,21.28c.85-.32,1.72-.7,2.61-1.12s1.79-.83,2.71-1.22a.23.23,0,0,0-.05-.15.2.2,0,0,1,0-.14l-.69-.79-4.93,2.35Zm.39,1.76a.7.7,0,0,1,.1.29.28.28,0,0,0,.1.2l5.62-2.74v-.09Zm3,8a2.19,2.19,0,0,0,.79-.78l-3.35,1.27-.4,1.66a8.27,8.27,0,0,0,2.17-1.47c.13-.13.26-.25.39-.39l.4-.39Zm-2.56-5.17a.9.9,0,0,0,0,.34,1.16,1.16,0,0,1,.05.34,26.77,26.77,0,0,0,2.71-1.22,20.76,20.76,0,0,1,2.9-1.22.69.69,0,0,1,0-.29.72.72,0,0,0,.05-.29v-.59c-.72.33-1.61.75-2.66,1.27S145,70.89,143.9,71.48Zm4.43,1c-.66.33-1.35.66-2.07,1a13.14,13.14,0,0,1-2.17.78v.59Zm-1.58-23.91a.29.29,0,0,0,.2.1.73.73,0,0,1,.3.1l.69-.39v-.2Z"/>
        <path class="cls-1" d="M153.36,29.51a.7.7,0,0,1-.6-.59,1.92,1.92,0,0,1,0-.83.76.76,0,0,1,.45-.48q.34-.15.93.24a10.39,10.39,0,0,0,5.62.24c2-.42,4-.92,6-1.51a53.56,53.56,0,0,1,5.62-1.36,5.84,5.84,0,0,1,4.43.68,2.79,2.79,0,0,1,1.67,2.54,4.15,4.15,0,0,1-1,2.53,3.89,3.89,0,0,1-2.32,1.32A1.93,1.93,0,0,1,172,31.07a4.82,4.82,0,0,1-.3-1,1.43,1.43,0,0,1,.1-.93c.52-.52,1-.63,1.43-.34s.47.73.15,1.32c.45.32,1,.21,1.57-.35s.79-1.08.59-1.61c-.13-.32-.61-.56-1.43-.73a6.23,6.23,0,0,0-2.31-.05,1.7,1.7,0,0,0-.94.78,5.15,5.15,0,0,0-.54,1.37,8.42,8.42,0,0,0-.24,1.56c0,.52-.05.91-.05,1.17l-.1.1q.19,3.31.39,6.83t.1,6.35c-.07.52-.12,1.09-.15,1.7a13,13,0,0,1-.24,1.91A41.37,41.37,0,0,0,176,48a7.41,7.41,0,0,0,3.89-2.15,1.05,1.05,0,0,1,1.18-.2,1.66,1.66,0,0,1,.69,1.08,7.88,7.88,0,0,0,0,2.34,21.64,21.64,0,0,1,.15,2.54,1.16,1.16,0,0,1-.2,1.17,1.07,1.07,0,0,1-1.18.1,7.88,7.88,0,0,0-4.39-1.32,47.64,47.64,0,0,0-6.45-.05c-.13,1-.28,2-.44,2.93s-.31,1.85-.44,2.63a31.89,31.89,0,0,0,0,4.93,52.84,52.84,0,0,0,.69,6.49,43.67,43.67,0,0,0,1.47,6.25,9.76,9.76,0,0,0,2.32,4.2l.59.58a6.69,6.69,0,0,0,.84-3.66,36.81,36.81,0,0,1,.14-4.34.86.86,0,0,1,1-.78c1.9.13,3.15.58,3.74,1.36s.66,2,.2,3.81c-.33,1-.67,2-1,2.88A6.37,6.37,0,0,1,177,81a4.9,4.9,0,0,1-1.43.93,6.9,6.9,0,0,1-1.13.34,8.73,8.73,0,0,1-6.9.59,11.22,11.22,0,0,1-5.32-4.78,15.59,15.59,0,0,1-1.87-5,63.72,63.72,0,0,1-1.08-6.54q-.41-3.42-.54-6.69c-.1-2.18-.19-4-.25-5.41a8.19,8.19,0,0,0,0-.83,9.16,9.16,0,0,1-.05-.93c-.92.13-1.81.28-2.66.44a3.46,3.46,0,0,0-1.77.73.73.73,0,0,1-.89,0,1.78,1.78,0,0,1-.59-.88c.06-.52.11-1,.15-1.46a4,4,0,0,0-.25-1.56v-.2a.88.88,0,0,1,.25-.58,1,1,0,0,1,.83-.3c.86.13,1.68.23,2.47.3l2.46.19c0-1.23,0-2.44.05-3.61s.08-2.25.15-3.22l.29-5.08a.4.4,0,0,1-.1-.29q.1-5.17-3.84-7.12A3.89,3.89,0,0,1,153.36,29.51Zm2.26,21.57a6.19,6.19,0,0,1-1.38-.1v.59a1.68,1.68,0,0,1,.64-.25A2.36,2.36,0,0,0,155.62,51.08Zm2.46-20.79a3.82,3.82,0,0,1,.65.59c.16.19.31.39.44.58l.1-1.17Zm2.33,15.42a.87.87,0,0,1,0,.34,1.25,1.25,0,0,0,0,.35l5.94-2.15v-.2q-1.56.5-3.12.93C162.1,45.27,161.19,45.52,160.41,45.71Zm-.09,10.84a.9.9,0,0,0,.05.34,1.11,1.11,0,0,1,0,.34l6-1.37v-.58Zm5.94,3.31a3.79,3.79,0,0,1,.05-.58,3.92,3.92,0,0,0,.05-.59l-5.81,1.66v.78l2.81-.58C164.31,60.35,165.28,60.13,166.26,59.86Zm-5.52-19.22v.87l5.53-1.46v-.49h-.39Zm5.92,6.24a1.16,1.16,0,0,0,0-.34.9.9,0,0,1-.05-.34l-2.87,1c-1,.36-2,.74-3,1.13,1-.2,2-.43,3-.69Zm-.1,5.76-5.83,1.86,5.83-1.18Zm-.5,9.37v-.39q-1.35.3-2.7.63c-.91.23-1.78.48-2.62.74v.48Zm.69-25.67c-1,.26-1.93.54-2.9.83s-1.94.6-2.91.93l-.1,1,5.53-1.27Zm-5.81,29.48,2.51-.59c.84-.19,1.68-.35,2.52-.49v-.68l-5,1.37ZM161,36.25l6.12-1.66L161,36.05Zm5.23-6c-.92.2-1.79.41-2.61.64s-1.62.44-2.41.63v.29Zm-5,37.38v.2l1.48-.59Zm4.82.68-4.63,1.57v.29l4.63-1.27Zm1.58-36.69-1,.29-5,1.76,5.91-1.37a.38.38,0,0,1,.05-.24.23.23,0,0,0,0-.15Zm-5.71,40.4a.92.92,0,0,0,0,.35,1.11,1.11,0,0,1,.05.34l4.23-1.17a1,1,0,0,0,0-.35,1.11,1.11,0,0,1-.05-.34c-.79.2-1.52.41-2.21.64A16.8,16.8,0,0,1,161.93,72.06Zm.19-29.18,4-.78v-.19Zm4.63,5.86-4.33.88a8,8,0,0,0,1.38-.1h.89l2.06-.49Zm-4.13,26a1.8,1.8,0,0,1,.14.49,1.62,1.62,0,0,0,.25.58l3.74-1.17-.29-1.17Zm1,2.34h.1a.21.21,0,0,0,.05.15.2.2,0,0,1,.05.14l2.95-1.17Zm2.07,2.64,2.56-1-.39-.88-1.48.54q-.69.24-1.38.54Zm4.14,1-.1-.19-2,.68.3.2Zm-1.87-9.56-.1-.2v.3Zm.29,3.12a.32.32,0,0,1,.2-.1.91.91,0,0,0,.3-.09c-.07-.2-.14-.39-.2-.59s-.13-.42-.2-.68l-.39.19Zm-.1-34.94a.18.18,0,0,1,0,.15s0,.11,0,.24a.16.16,0,0,0,.14,0,.23.23,0,0,1,.15,0v-.39Zm.3,2-.39.1v.29a.55.55,0,0,0,.39-.1Zm-.3,2.34a.45.45,0,0,1,.3-.1v-.09a.45.45,0,0,1-.3.09Zm1.68,34.46a.44.44,0,0,0,.25-.05s.11,0,.24,0l-.49-1a.68.68,0,0,1-.49.2.83.83,0,0,1,.24.39.86.86,0,0,0,.25.39Zm1.67,1.75-.29.1a.26.26,0,0,0,.2.1l.19-.1Zm8-31.23a9.87,9.87,0,0,1-1.47.68c-.53.2-1.09.39-1.68.59a17.86,17.86,0,0,1,3.15.58A4.43,4.43,0,0,1,179.46,48.64Zm-2.85,26.74a1.11,1.11,0,0,1-.05.34,1,1,0,0,0-.05.35l1.28-.4a6.64,6.64,0,0,0,.1-1.36l-1.28.49Z"/>
        <path class="cls-1" d="M199.36,36.93a.78.78,0,0,1,.89-.2,1.08,1.08,0,0,1,.59,1c.13,1,.22,1.9.25,2.78s.08,1.74.15,2.59a7.35,7.35,0,0,1,3.89-2.39,11.33,11.33,0,0,1,4.92-.2,13.25,13.25,0,0,1,4.83,1.9,10.43,10.43,0,0,1,3.6,3.81,3.75,3.75,0,0,1,.44,1.71,9.45,9.45,0,0,1-.15,2.1,5,5,0,0,1-1.28,2.88,8.67,8.67,0,0,1-2.85,2.24,7.86,7.86,0,0,1-3.5.83,3.78,3.78,0,0,1-3-1.37A5.6,5.6,0,0,1,206.66,52c-.4-.26-.5-.68-.3-1.27V49.52a8.56,8.56,0,0,1,.1-2.3,6.19,6.19,0,0,0,0-2.19.57.57,0,0,0-.35-.49,7.33,7.33,0,0,0-.69-.34l-.83-.34a4.24,4.24,0,0,0-1.53,1.51,10.57,10.57,0,0,0-1,2.2,22.61,22.61,0,0,0-.64,2.34c-.16.78-.31,1.5-.44,2.15s-.11,1.44-.15,2.19,0,1.51,0,2.3,0,1.64.1,2.58.13,1.94.2,3,.11,2,.15,3a23.63,23.63,0,0,1-.05,2.57l-.4,6a.93.93,0,0,1,.3.68,6.58,6.58,0,0,0,.54,3.64,3.74,3.74,0,0,0,3.1,1.7h2.86c.72-.07,1.12.19,1.18.77s-.23.94-.88,1.08c-.13,0-.22,0-.25,0a.38.38,0,0,1-.24,0,14,14,0,0,1-3.85-.1,4.22,4.22,0,0,0-1.08,0,11.77,11.77,0,0,1-1.18,0h-.3a.5.5,0,0,1-.2.24,1.25,1.25,0,0,0-.19.15,1.09,1.09,0,0,1-.5.1c-.06,0-.09,0-.09,0s0,0-.1,0l-.1-.1c-.13,0-.2-.06-.2-.19-1.64.13-3.25.33-4.83.58a38,38,0,0,1-4.82.49,14.48,14.48,0,0,1-3.06-.14c-1.18-.17-1.87-.25-2.07-.25-.65-.07-1-.39-1-1s.28-.94.93-1.08h.1c1.91-.06,3.17-.45,3.8-1.16s.9-2.14.83-4.27a.45.45,0,0,1,.05-.19.37.37,0,0,0,0-.2c-.13-1-.26-2-.39-3s-.26-2-.4-3A3.1,3.1,0,0,0,187,66.54a14.14,14.14,0,0,0-2.81-.54c-.59-.19-.84-.55-.74-1.07a.86.86,0,0,1,.94-.77A4.37,4.37,0,0,0,188,62.79,5.79,5.79,0,0,0,189.32,60l.29-12.2a6.29,6.29,0,0,1-.1-1.12V45.52a2.7,2.7,0,0,0-1.87-2.2,26,26,0,0,0-3.84-.54c-.66-.06-1-.37-1-.92s.36-.86,1.09-.93a15.59,15.59,0,0,0,3.74-1.07q2.56-1,5.12-1.76a19.73,19.73,0,0,1,3.21-.64,30.82,30.82,0,0,0,3.3-.53ZM188.82,65.82a5,5,0,0,1,.05-.64,4.83,4.83,0,0,0,0-.63,4.74,4.74,0,0,1-1.08.68Zm1.28,14.93a.4.4,0,0,1-.09-.29l-.2.29Zm8.87-37c-1.25.46-2.53.94-3.84,1.46s-2.56,1.05-3.75,1.57a.2.2,0,0,0,.05.14.18.18,0,0,1,0,.15c1.12-.2,2.32-.42,3.6-.68s2.58-.56,3.89-.88Zm-7.39.29-.1.39,2-.88Zm-.1,5.08v.29l1.68-.58Zm.1,3c1.12-.32,2.3-.68,3.55-1.07s2.53-.75,3.84-1.07v-.88c-1.25.39-2.5.76-3.74,1.12a28.85,28.85,0,0,0-3.65,1.32Zm7,17.67-3.7,1.56q-1.81.78-3.3,1.56v.69A28.6,28.6,0,0,0,195,72.36l3.55-1.57Zm-7,6a8.43,8.43,0,0,1,.2,1.37l6.9-3.61v-.78c-1.25.52-2.47,1-3.65,1.56s-2.33,1-3.45,1.36Zm.1-5.37c1.18-.58,2.36-1.13,3.55-1.65l3.35-1.47V66.6c-1.12.52-2.27,1-3.45,1.51a31.83,31.83,0,0,1-3.45,1.22Zm.1-13.76,1.48-.48c.92-.33,1.85-.62,2.8-.88l2.81-.78v-.39a34.87,34.87,0,0,0-3.69,1.12c-1.15.42-2.29.86-3.4,1.32Zm0,2v.79c.79-.39,1.59-.77,2.41-1.13s1.66-.7,2.51-1l-2.56.68Zm6.8,5.08c-1.19.52-2.37,1-3.55,1.42s-2.27.86-3.25,1.31v.78c2.3-.84,4.56-1.79,6.8-2.83Zm-6.8.49.79-.39-.79.29Zm.39,16.39,1.78-.18,1.57-.19,3.35-1.42V77.53c-1.31.44-2.54.9-3.69,1.37s-2.15.9-3,1.28Zm2.47-39.42a31.43,31.43,0,0,0,4.13-1.08v-.78a.37.37,0,0,1-.29.1h-.1a.45.45,0,0,1-.3.1c-.46.26-1,.53-1.52.82a7,7,0,0,1-1.63.64Zm4,18.25v-.3l-3.55,1.27Zm9.26-14.94,3.15-1.75-.2-.1a9.5,9.5,0,0,1-1.67.44c-.59.1-1.18.21-1.78.34Zm1.47,8.79a1.7,1.7,0,0,0,.89.48l1.48-1a.15.15,0,0,1-.15-.1c0-.06-.11-.1-.25-.1l-2.06.69Zm3.94-6.54a.26.26,0,0,1-.19-.1l-2.56,1-.3.19a1,1,0,0,0,0,.88l3.65-2Zm3,2a2.21,2.21,0,0,0-.49-.88c-.73.33-1.45.68-2.17,1.08L211.48,50Zm-1.38-3.9a3.88,3.88,0,0,0-1-.69l-.89.49a10.68,10.68,0,0,1,1.28.39Z"/>
        <path class="cls-1" d="M261.53,38.2c.66-.13,1,.11,1.09.73a1,1,0,0,1-.89,1.12,3.65,3.65,0,0,0-2.86,1.37,6.24,6.24,0,0,0-1,2.73c0,1.17,0,2.36.05,3.56s.08,2.39.14,3.57a4.23,4.23,0,0,0,.55,1.95,3.64,3.64,0,0,0,1,1.07,3.73,3.73,0,0,0,1.23.54c.43.09.87.18,1.33.24h.1a.78.78,0,0,1,.3.05.69.69,0,0,0,.29,0v.1h.2c.39.39.49.75.29,1.07a1.13,1.13,0,0,1-1.08.49.44.44,0,0,1-.25-.05.38.38,0,0,0-.24,0,2.45,2.45,0,0,0-1.78.59,3.64,3.64,0,0,0-.88,1.46,8.7,8.7,0,0,0-.4,1.85c-.06.66-.13,1.27-.19,1.86q.19,3.12.24,6.2c0,2,0,4.11-.05,6.19a20.43,20.43,0,0,0,.55,3.71,2.06,2.06,0,0,0,2,1.47c.14,0,.22,0,.25.05a.44.44,0,0,0,.25,0,.75.75,0,0,1,.74,1q-.15.89-1.14.78h-.49c-.79,0-1.92,0-3.4,0s-3.05.08-4.73.15-3.28.14-4.82.24-2.78.21-3.7.34a5.3,5.3,0,0,1-2,.49.85.85,0,0,1-.89-.49,1.26,1.26,0,0,1,0-1A4.13,4.13,0,0,1,243.5,81a5.41,5.41,0,0,0,1.28-.54l.79-.44a5,5,0,0,0,2.17-2.54,4.89,4.89,0,0,1-.1-1.17,10,10,0,0,1-3.94,1.95.81.81,0,0,1-.39.1,13.2,13.2,0,0,1-3.95.59,16.27,16.27,0,0,1-4.13-.54,16.49,16.49,0,0,1-4-1.66,15.15,15.15,0,0,1-3.55-2.78A8.3,8.3,0,0,1,226,71a27.26,27.26,0,0,1-1-4.1,42.77,42.77,0,0,1-1.08-5.32q-.41-2.77-.64-5.46c-.17-1.79-.28-3.48-.35-5.08s-.13-3-.2-4.15a5.32,5.32,0,0,0-4.53-4.68h-.1a.26.26,0,0,1-.19-.1,1,1,0,0,1-.1-1.85,10.47,10.47,0,0,1,2.41-.1,8.65,8.65,0,0,0,2.22-.1h.39a1.2,1.2,0,0,1,.5-.1c1.57-.19,3.21-.42,4.92-.68a32.78,32.78,0,0,1,4.93-.39.72.72,0,0,1,.88,0c.53.13.79.55.79,1.27q-.2,1.47-.39,4.29c-.13,1.89-.22,4-.25,6.3s0,4.72.1,7.22.3,4.9.59,7.17a45.63,45.63,0,0,0,1.18,6.1,9.7,9.7,0,0,0,2,4,3.85,3.85,0,0,0,3.3.1,3.53,3.53,0,0,0,2.22-2.14,36.74,36.74,0,0,0,2.07-5.57.37.37,0,0,1,.1-.29,38.63,38.63,0,0,0,1-7.42q.15-3.7.64-7.81c.07-1.43.15-2.83.25-4.19s.18-2.77.25-4.2a6,6,0,0,0-1-2.44c-.39-.45-1.35-.75-2.86-.88a4,4,0,0,0-1.38.49c-1.64.85-2.13,2.08-1.47,3.71a2.35,2.35,0,0,0,1.82,0,11.25,11.25,0,0,0,1.62-.83l-1.08-.3a.84.84,0,0,1-.59-1,.88.88,0,0,1,.89-.78c.92.13,1.52.23,1.82.29s.67.42,1.13,1.07a1.36,1.36,0,0,1-.19,1.18,4.56,4.56,0,0,1-1.53,1.41,16,16,0,0,1-1.92.83,3.31,3.31,0,0,1-2.32-.05,2.83,2.83,0,0,1-1.38-1.37,4.3,4.3,0,0,1-.39-2.09,5,5,0,0,1,.64-2.25,3.92,3.92,0,0,1,1.48-1.32,14.93,14.93,0,0,1,2.07-.92.66.66,0,0,1,.49-.2h.1a10.59,10.59,0,0,1,2.26-.29,27.17,27.17,0,0,1,6.5,0c.73,0,1.38,0,2,0s1.18.05,1.77.05a1.12,1.12,0,0,1,.89-.49c.32,0,.55.19.69.58.52,0,1,0,1.47,0s1-.08,1.48-.15c.26,0,.43,0,.49.1Zm-37.44,4.58v.3l2.17-.78-.69.09Zm.59,3.62q.1.39.15.63a2.47,2.47,0,0,1,0,.44v.39c1.12-.52,2.25-1,3.4-1.42s2.28-.89,3.4-1.41a.9.9,0,0,1,0-.34,1.16,1.16,0,0,0,.05-.34c-1.32.32-2.56.66-3.75,1Zm.69,5.27v.78L231.88,50v-.2l-4.14,1ZM232,53.32a1.89,1.89,0,0,0,0-.39,1.31,1.31,0,0,1-.05-.39l-6.31,2.54v.1Zm-.3-6.34c-1.05.39-2.07.8-3.05,1.22s-1.94.86-2.86,1.32l6-1.37a1.16,1.16,0,0,0-.05-.34.9.9,0,0,1,0-.34Zm.49,9.47a4.94,4.94,0,0,1-.1-1.08L225.77,58a1.8,1.8,0,0,0,0,.44,2.47,2.47,0,0,1,.05.44c.85-.33,1.82-.68,2.9-1.08S231,57,232.17,56.45Zm-6.11,4.49v.29c.92-.32,1.91-.68,3-1.07L232.17,59V58.4l-2.17.78Zm6.31,1.56-2.91,1.22c-1,.42-2,.86-2.9,1.32v.19l2.95-1,3-1a1.74,1.74,0,0,0-.05-.39A1.31,1.31,0,0,1,232.37,62.5Zm-5.32,4.68a1.38,1.38,0,0,0,.2.59c.91-.39,1.82-.8,2.71-1.22a26.47,26.47,0,0,1,2.7-1.12V65L227.34,67Zm.79,2.44a.32.32,0,0,1,.1.2l.78-.2c.73-.26,1.45-.5,2.17-.73s1.48-.44,2.27-.63l-.2-.78c-.92.39-1.79.75-2.61,1.07S228.69,69.23,227.84,69.62ZM232,42.2l-3.65,1.46,3.65-1Zm-3.16,29.47.4.59,4.33-2.15c-.72.2-1.41.39-2.07.59s-1.31.42-2,.68Zm5.42,1L234,72l-2.95,1.56Zm.69,1.56c-.92.33-1.77.65-2.56,1a2.29,2.29,0,0,0,1.08.48L235,74.8l.2-.1Zm1.68,2.25c-.07,0-.1,0-.1,0s0,0-.1,0l-.2.1ZM247,70.7l.79-.3V69.14l-.4.09ZM248,80.36c0,.06,0,.1-.09.1h.19v-.1Zm7.89-28.21c-1.14.33-2.26.67-3.36,1l-3.15,1v1.17c1.14-.52,2.24-1,3.3-1.46l3.21-1.37ZM254.24,57a18,18,0,0,0-2.61.83c-.69.3-1.4.57-2.12.83a5,5,0,0,0,.05.64,5.58,5.58,0,0,1,.05.73l.89-.39c.85-.33,1.77-.67,2.76-1s2-.69,2.95-1a3.52,3.52,0,0,0,0-.49,3.38,3.38,0,0,1-.05-.49ZM249.71,64a2.94,2.94,0,0,0,0,.59,4.4,4.4,0,0,1,.05.68l6.6-2.93v-.09c-1.12.26-2.23.53-3.35.83S250.83,63.64,249.71,64Zm0,15v.59c1-.39,2.18-.78,3.4-1.17l3.69-1.17v-.3c-1.51.33-2.84.67-4,1s-2,.6-2.51.73ZM250,45.32a3.24,3.24,0,0,1-.09.88c.92-.45,1.85-.88,2.8-1.27l2.91-1.17v-.1l-2.66.69a13.63,13.63,0,0,0-1.48.44Zm-.09,24.3,6.79-2.34-.09-.68-6.7,2Zm7,2.54h-.1l-6.89,2v.68c1.19-.45,2.39-.86,3.59-1.22s2.33-.73,3.4-1.12Zm-1.28-31.43c-.92.14-1.86.25-2.81.35s-1.85.21-2.71.34V43c.86-.26,1.76-.52,2.71-.78s1.89-.55,2.81-.88Zm-5.52,7.32c.86-.19,1.76-.42,2.71-.68l2.81-.78V45.52c-1,.39-1.94.79-2.86,1.22S251,47.6,250.1,48.05Zm6.7,21.38-5.51,2L254,70.7q1.36-.39,2.76-.69Zm-3.91-8.2,3.52-.78-.1-.78L252.47,61a1.14,1.14,0,0,1-.4.19c-.19.07-.42.16-.69.29Zm2.93-11.32-.1-.39-3.94,1.66Zm1.08,25.18-.1-.59a14.64,14.64,0,0,1-2.31.83,17.1,17.1,0,0,0-2.32.83Zm-.39-10.64-.1-.39-2.27,1Zm1.77-7.71A2.78,2.78,0,0,1,259,56l-.69-.49Z"/>
        <path class="cls-1" d="M287.05,64.55a3.1,3.1,0,0,1,1.82-1.08,6.35,6.35,0,0,1,2.61,0,7.56,7.56,0,0,1,2.66,1A4.47,4.47,0,0,1,296,66.7a3.06,3.06,0,0,1,.35,1.61,8.58,8.58,0,0,1-.25,1.61,11.09,11.09,0,0,1-.49,1.51,6.39,6.39,0,0,0-.39,1.22,10.61,10.61,0,0,1-2,3.51l-1,1.47a8,8,0,0,1-3.94,2.63,21.35,21.35,0,0,1-3.7,1.61,15.32,15.32,0,0,1-3.79.78,12.26,12.26,0,0,1-3.64-.24A7.84,7.84,0,0,1,274,81a13.93,13.93,0,0,1-3.1-3.08,27,27,0,0,1-2.41-4,22.3,22.3,0,0,1-2.66-8,8.28,8.28,0,0,1-.15-1.08,12.59,12.59,0,0,1-.05-1.27,35.27,35.27,0,0,1,0-7.41,8,8,0,0,1,.05-1,8.29,8.29,0,0,1,.15-1c.13-1,.24-1.92.34-2.83s.21-1.75.35-2.53c.06-.46.18-1,.34-1.71a18.49,18.49,0,0,1,.64-2.1,12.58,12.58,0,0,1,.89-2,4.89,4.89,0,0,1,1.08-1.37,13.07,13.07,0,0,1,4.93-3.17,24,24,0,0,1,5.71-1.22q7.29-.39,11,2.83a13.84,13.84,0,0,1,2.95,2.54,15.19,15.19,0,0,1,2.17,5.36,10.38,10.38,0,0,1,.1,3.18,2.49,2.49,0,0,1-1.48,2.09,1.9,1.9,0,0,1-.89.88,5.73,5.73,0,0,1-4.33.83,4.6,4.6,0,0,1-2.66-1.9.89.89,0,0,1-.79-.49,12,12,0,0,1-.69-2.78c-.07-.75-.15-1.45-.25-2.1a7.54,7.54,0,0,0-.59-2,12,12,0,0,0-1.82-2.68A10.61,10.61,0,0,0,280.74,46a9.18,9.18,0,0,0-.78,3.52,19.88,19.88,0,0,0,.34,3.41c.23,1.31.41,2.41.54,3.32s.28,1.71.45,2.78.29,2.17.39,3.27.16,2.22.2,3.32.05,2,.05,2.83a7.51,7.51,0,0,1-.35,2.69c-.29,1-.51,1.74-.64,2.19a23.21,23.21,0,0,0,1.18,3.42,2.76,2.76,0,0,0,.79.83c.26.16.53,0,.79-.44a9.14,9.14,0,0,0,1.13-3c.23-1.17.41-2.24.54-3.22a1.22,1.22,0,0,1,.1-.49V68.65a7.62,7.62,0,0,1,1.28-3.71Zm-19.51-8.39a2.89,2.89,0,0,1-.05.53,3,3,0,0,0-.05.54l7-3.52c-1.18.33-2.35.71-3.5,1.13S268.66,55.7,267.54,56.16Zm-.1,6.05c1.71-.91,3.4-1.78,5.08-2.59s3.33-1.64,5-2.49v-.49c-1.71.72-3.41,1.42-5.12,2.1s-3.32,1.35-4.83,2l-.1.1Zm10.25-11.33a3.4,3.4,0,0,0,.1-.78v-.78l-10,4.49c0,.07,0,.1,0,.1s-.05,0-.05.1q2.56-1,5-1.71C274.4,51.81,276.05,51.34,277.69,50.88ZM267.93,66a1.74,1.74,0,0,0,.05.39,1.31,1.31,0,0,1,0,.39q2.37-1.17,4.73-2.29t4.73-2.2v-.58c-1.77.71-3.48,1.45-5.12,2.19S269.25,65.36,267.93,66Zm1-15.61a3.76,3.76,0,0,0-.49,1.27l9.46-4.4v-.09c-1.65.52-3.22,1-4.73,1.61S270.23,49.88,268.92,50.4Zm8.67,13.66-4.53,2.15q-2.26,1.07-4.53,2.24v.3l9.06-4.1Zm-8.37,6.54a1.8,1.8,0,0,1,.14.49,1,1,0,0,0,.25.49c1.31-.79,2.66-1.55,4-2.3s2.76-1.48,4.14-2.19v-.3Q273.45,68.54,269.22,70.6Zm.59-7.71,3.74-1.66c1.31-.59,2.63-1.14,3.94-1.66V59l-3.35,1.65c-.72.33-1.44.69-2.17,1.08Zm.49-19.42a1.6,1.6,0,0,0,.69-.2,4.66,4.66,0,0,1,.64-.83l.74-.73-1.09.59-.59.58Zm.3,29.77c0,.06.06.16.19.29,1.18-.52,2.4-1,3.65-1.52s2.53-1,3.84-1.41a6.7,6.7,0,0,1-.15-.68,4.65,4.65,0,0,1-.05-.69c-1.31.65-2.58,1.31-3.79,2S271.84,72.52,270.6,73.24Zm1.67-16.5,2.61-.93,2.61-.92V54.5l-1.87.73c-.59.23-1.15.47-1.68.73-.32.13-.62.26-.88.39Zm5.81,16-2.95,1.17c-1,.39-1.94.81-2.86,1.27l.59.39Zm0-27.62a2.64,2.64,0,0,1,.1-.78c-1,.45-1.95.89-2.91,1.31s-1.88.9-2.8,1.42A48.86,48.86,0,0,1,278.08,45.13Zm1,29.37c-.73.33-1.45.69-2.17,1.08l-2.17,1.17,1,.29,3.55-1.46Zm-3.84,5.08v.1l.88-.49h-.19l-.79.39Zm4.13-39.72a13.64,13.64,0,0,0-3.84,1.75L279,40.44ZM278.77,80l-1,.49,1.28-.49Zm.59-16.1.4-.2a2.27,2.27,0,0,0-.1-.68l-.3.19Zm.69,1.95a1.59,1.59,0,0,1-.49.19v.1l.49-.19Zm3.16-26.06c.19.19.41.39.64.58a4.71,4.71,0,0,1,.64.69l1.77-1.17a5.5,5.5,0,0,0-1.13-.25c-.36,0-.74-.08-1.14-.14Zm5.32,1.07c-.53.33-1,.62-1.48.88s-.95.55-1.48.88l.3.49,1.82-.83c.62-.3,1.26-.57,1.92-.83Zm-1.88,36.8a.62.62,0,0,1-.09.39l1.37-.88Zm.2-32.7a.28.28,0,0,0,.1.2l1.28-.78Zm.2,28.5,2.26-1.07-.69-.2-1.57.59Zm.88-5.86a3.24,3.24,0,0,0-.09.88c.46-.32.93-.65,1.43-1s1-.65,1.52-1A29.68,29.68,0,0,0,287.93,67.57Zm.79-15.32,3.75-2.44-.4-.29a16.77,16.77,0,0,0-2,1.07q-.93.58-1.92,1.08Zm3.35-8.1-3.84,2.54a10.08,10.08,0,0,1,1.77-.1l2.57-1.17Zm1.19,28.11-2.12,1.12a19,19,0,0,0-2,1.22l3.54-1.07Zm1.28-4.69a.5.5,0,0,1-.2-.34.72.72,0,0,0-.1-.34,22.14,22.14,0,0,0-2.31,1.32c-.76.49-1.47,1-2.12,1.41.72-.32,1.46-.61,2.21-.87s1.56-.52,2.42-.79l.1-.19Z"/>
        <path class="cls-1" d="M299.36,29.51a.69.69,0,0,1-.59-.59,1.92,1.92,0,0,1,0-.83.76.76,0,0,1,.45-.48q.34-.15.93.24a10.39,10.39,0,0,0,5.62.24c2-.42,4-.92,6-1.51a54,54,0,0,1,5.61-1.36,5.87,5.87,0,0,1,4.44.68,2.79,2.79,0,0,1,1.67,2.54,4.15,4.15,0,0,1-1,2.53,3.89,3.89,0,0,1-2.32,1.32A2,2,0,0,1,318,31.07a4.8,4.8,0,0,1-.29-1,1.43,1.43,0,0,1,.1-.93c.52-.52,1-.63,1.43-.34s.47.73.14,1.32c.46.32,1,.21,1.58-.35s.79-1.08.59-1.61c-.13-.32-.61-.56-1.43-.73a6.23,6.23,0,0,0-2.31-.05,1.67,1.67,0,0,0-.94.78,5.15,5.15,0,0,0-.54,1.37,9.38,9.38,0,0,0-.25,1.56c0,.52-.05.91-.05,1.17l-.09.1q.19,3.31.39,6.83t.1,6.35c-.07.52-.12,1.09-.15,1.7a11.78,11.78,0,0,1-.25,1.91A41.24,41.24,0,0,0,322,48a7.41,7.41,0,0,0,3.89-2.15,1.05,1.05,0,0,1,1.18-.2,1.66,1.66,0,0,1,.69,1.08,7.88,7.88,0,0,0-.05,2.34,21.64,21.64,0,0,1,.15,2.54,1.16,1.16,0,0,1-.2,1.17,1.07,1.07,0,0,1-1.18.1,7.88,7.88,0,0,0-4.39-1.32,47.66,47.66,0,0,0-6.45-.05c-.13,1-.28,2-.44,2.93s-.32,1.85-.45,2.63a34.66,34.66,0,0,0-.05,4.93,57.05,57.05,0,0,0,.69,6.49,43.66,43.66,0,0,0,1.48,6.25,9.76,9.76,0,0,0,2.32,4.2l.59.58a6.69,6.69,0,0,0,.84-3.66,36.81,36.81,0,0,1,.14-4.34.86.86,0,0,1,1-.78c1.9.13,3.15.58,3.74,1.36s.66,2,.2,3.81c-.33,1-.67,2-1,2.88A6.37,6.37,0,0,1,323,81a4.9,4.9,0,0,1-1.43.93,6.9,6.9,0,0,1-1.13.34,8.73,8.73,0,0,1-6.9.59,11.17,11.17,0,0,1-5.32-4.78,15.59,15.59,0,0,1-1.87-5,63.72,63.72,0,0,1-1.08-6.54q-.4-3.42-.55-6.69c-.09-2.18-.18-4-.24-5.41a8.19,8.19,0,0,0-.05-.83,7,7,0,0,1-.05-.93c-.92.13-1.81.28-2.66.44a3.42,3.42,0,0,0-1.77.73.73.73,0,0,1-.89,0,1.78,1.78,0,0,1-.59-.88c.06-.52.11-1,.14-1.46a3.81,3.81,0,0,0-.24-1.56v-.2a.91.91,0,0,1,.24-.58,1,1,0,0,1,.84-.3c.86.13,1.68.23,2.47.3l2.46.19c0-1.23,0-2.44.05-3.61s.08-2.25.15-3.22l.29-5.08a.4.4,0,0,1-.1-.29q.11-5.17-3.84-7.12A3.93,3.93,0,0,1,299.36,29.51Zm2.27,21.57a6.19,6.19,0,0,1-1.38-.1v.59a1.68,1.68,0,0,1,.64-.25A2.36,2.36,0,0,0,301.63,51.08Zm2.46-20.79a3.72,3.72,0,0,1,.64.59c.17.19.31.39.45.58l.1-1.17Zm2.33,15.42a.87.87,0,0,1-.05.34,1.25,1.25,0,0,0,0,.35l5.94-2.15v-.2q-1.56.5-3.12.93C308.11,45.27,307.2,45.52,306.42,45.71Zm-.09,10.84a.9.9,0,0,0,.05.34,1.11,1.11,0,0,1,.05.34l6-1.37v-.58Zm5.94,3.31a3.79,3.79,0,0,1,.05-.58,3.92,3.92,0,0,0,.05-.59l-5.81,1.66v.78l2.8-.58C310.32,60.35,311.29,60.13,312.27,59.86Zm-5.52-19.22,0,.87,5.54-1.46v-.49h-.39Zm5.91,6.24a1.18,1.18,0,0,0,0-.34.9.9,0,0,1-.05-.34l-2.87,1c-1,.36-2,.74-3,1.13,1-.2,2-.43,3-.69Zm-.09,5.76-5.84,1.86,5.84-1.18Zm-.5,9.37v-.39l-2.71.63c-.9.23-1.77.48-2.61.74l0,.48Zm.69-25.67c-1,.26-1.93.54-2.9.83s-1.94.6-2.91.93l-.1,1,5.53-1.27ZM307,65.82l2.51-.59c.84-.19,1.68-.35,2.52-.49v-.68l-5,1.37ZM307,36.25l6.12-1.66L307,36.05Zm5.23-6c-.92.2-1.79.41-2.61.64s-1.63.44-2.41.63v.29Zm-5,37.38v.2l1.47-.59Zm4.82.68-4.63,1.57v.29l4.63-1.27Zm1.58-36.69-1,.29-5,1.76,5.91-1.37a.38.38,0,0,1,.05-.24.23.23,0,0,0,0-.15Zm-5.71,40.4a1.2,1.2,0,0,0,0,.35.87.87,0,0,1,0,.34l4.24-1.17a1.23,1.23,0,0,0,0-.35,1.11,1.11,0,0,1-.05-.34c-.79.2-1.53.41-2.21.64A16.8,16.8,0,0,1,307.94,72.06Zm.19-29.18,4-.78v-.19Zm4.63,5.86-4.33.88a8,8,0,0,0,1.38-.1h.88l2.07-.49Zm-4.13,26a1.8,1.8,0,0,1,.14.49,1.62,1.62,0,0,0,.25.58l3.74-1.17-.29-1.17Zm1,2.34h.1a.17.17,0,0,0,.05.15.2.2,0,0,1,.05.14l2.95-1.17Zm2.07,2.64,2.56-1-.39-.88-1.48.54q-.69.24-1.38.54Zm4.14,1-.1-.19-2,.68.29.2ZM314,71.09l-.1-.2v.3Zm.29,3.12a.32.32,0,0,1,.2-.1.81.81,0,0,0,.29-.09c-.06-.2-.13-.39-.19-.59a5.69,5.69,0,0,1-.2-.68l-.39.19Zm-.1-34.94a.18.18,0,0,1-.05.15.38.38,0,0,0,0,.24.17.17,0,0,0,.15,0,.21.21,0,0,1,.15,0v-.39Zm.3,2-.4.1v.29a.57.57,0,0,0,.4-.1Zm-.3,2.34a.45.45,0,0,1,.3-.1v-.09a.45.45,0,0,1-.3.09Zm1.68,34.46a.38.38,0,0,0,.24-.05s.12,0,.25,0l-.49-1a.7.7,0,0,1-.5.2.78.78,0,0,1,.25.39.78.78,0,0,0,.25.39Zm1.67,1.75-.29.1a.26.26,0,0,0,.19.1l.2-.1Zm8-31.23a9.54,9.54,0,0,1-1.48.68c-.52.2-1.08.39-1.67.59a17.86,17.86,0,0,1,3.15.58A4.43,4.43,0,0,1,325.47,48.64Zm-2.85,26.74a1.11,1.11,0,0,1-.05.34,1,1,0,0,0-.05.35l1.28-.4a6.64,6.64,0,0,0,.1-1.36l-1.28.49Z"/>
        <path class="cls-1" d="M334.24,53.13c-.13-.33-.1-.49.1-.49l-.3-3a5.72,5.72,0,0,1-.09-1V47.47a8.1,8.1,0,0,0-.89-2.83A3.6,3.6,0,0,0,330.4,43q-.69-.19-.69-.78a.94.94,0,0,1,.69-.88,1,1,0,0,1,.69-.19,14.26,14.26,0,0,0,1.62.09h1.63a.68.68,0,0,1,.59-.09c2.23-.13,4.45-.3,6.65-.49a35.83,35.83,0,0,1,6.55,0h.2c.52-.07.85.08,1,.44a1.39,1.39,0,0,1-.1,1.12,5.39,5.39,0,0,0-3.94,3.27,22.8,22.8,0,0,0-1.38,5.22l.29,6.25v.29q.3,4.68.64,9.47c.23,3.18.35,6.34.35,9.46a8.93,8.93,0,0,0,.1,1.37,3.84,3.84,0,0,0,.39,1.27,1.92,1.92,0,0,0,.94.88,3.49,3.49,0,0,0,1.92.09,1.07,1.07,0,0,1,.83.74c.1.35-.08.7-.54,1a13.34,13.34,0,0,1-3.05.49c-1.51.13-3.15.21-4.93.24s-3.53,0-5.27,0-3.1,0-4.09-.1a5.48,5.48,0,0,1-1.77.3.86.86,0,0,1-.69-.39,1,1,0,0,1-.1-1,.37.37,0,0,0,.1-.29,1.2,1.2,0,0,0,.25-.34.44.44,0,0,1,.24-.25l2.76-.29a3,3,0,0,0,1.53-.83,3.46,3.46,0,0,0,.64-1.51,56.39,56.39,0,0,1,0-6.64c.13-2.47.26-4.72.39-6.73a3,3,0,0,0-1.13-2.35,10.69,10.69,0,0,0-2.91-1.07,1,1,0,0,1-.74-1,.92.92,0,0,1,.74-.87h.2v-.1h.1a4.62,4.62,0,0,0,1.23-1,8.5,8.5,0,0,0,1.13-1.51,5.69,5.69,0,0,0,.69-1.71A4.26,4.26,0,0,0,334.24,53.13Zm.4,7.22a5.58,5.58,0,0,0-.05-.73,5,5,0,0,1,0-.83,3.55,3.55,0,0,1-1,1Zm4-22.93a3.12,3.12,0,0,1-3.15-1.13,5.33,5.33,0,0,1-1.13-3.17,4.94,4.94,0,0,1,1-3.17,3.12,3.12,0,0,1,3.3-1,3.93,3.93,0,0,1,3.4.88,3.84,3.84,0,0,1,1.28,2.74,4.75,4.75,0,0,1-1.08,3.07A5,5,0,0,1,338.67,37.42ZM337,35.17a5.76,5.76,0,0,1-1-2.63A2.72,2.72,0,0,0,337,35.17Zm3.55,8.1a18,18,0,0,1-2.17.25c-.72,0-1.45.08-2.17.14a6.69,6.69,0,0,1,.4,1.17l5.22-1.17v-.49a1.91,1.91,0,0,1-.64.1Zm-4.24,10a7.76,7.76,0,0,0,.2,1.57q1.38-.39,2.76-.69l2.75-.58a3,3,0,0,0,0-.54,2.26,2.26,0,0,1-.05-.54,8.7,8.7,0,0,1-1.53.25c-.49,0-1,.08-1.53.14Zm.2,18c.92-.26,1.88-.49,2.9-.68s2.09-.42,3.21-.68v-.49l-6.11,1.46Zm0,2.15v.1l.49-.2Zm6,.68c-1.12.26-2.17.49-3.16.69s-1.93.42-2.85.68v.19l6-1.36Zm.1-6.93-3,.59c-1,.19-2,.36-3,.49v1l6-1.36Zm-6,10.35a1.8,1.8,0,0,0,.05.44,2.39,2.39,0,0,1,0,.44l5.92-1.47a2.71,2.71,0,0,1-.1-.87V76Zm3.74-11.91-.39.1a.81.81,0,0,0,.39-.1l2.36-.39v-.49l-6,1.47v.1l2-.39.79-.1.3-.1Zm-3.55-6.54a7,7,0,0,1,.1,1.37l5.42-1.37V58l-2.76.58C338.64,58.79,337.72,59,336.8,59.08Zm5.82,3.61c-.92.27-1.88.53-2.86.78a22.14,22.14,0,0,1-3,.59v.39a27.92,27.92,0,0,1,2.86-.83c1-.23,2-.47,3-.73ZM336.9,48.74l3.15-.49a3.69,3.69,0,0,0-.64,0c-.16,0-.18,0-.05,0l2.47-.39V46.2c-.86.26-1.68.51-2.47.73s-1.61.51-2.46.83Zm2.27-14.25a6.2,6.2,0,0,1-.79-1.51,2.71,2.71,0,0,1-.1-1.61h-.2a2.1,2.1,0,0,0-.14,1.85A1.66,1.66,0,0,0,339.17,34.49Zm-1,17a30.86,30.86,0,0,0,3.65-.59v-.19Zm0,5.27c.72-.13,1.4-.26,2-.39l1.92-.39v-.2Zm4.93,22.84a3.27,3.27,0,0,0-.2-1l-4.63,1.27c.53,0,1,0,1.53,0s1,0,1.52,0Zm-3.35-13.76.2-.1h-.2Zm1-34c-.59-.13-.83.07-.74.59a1.9,1.9,0,0,0,.94,1.27,1.45,1.45,0,0,0,.49-1C341.43,32.33,341.2,32.05,340.74,31.85Zm3.65,11c-.13,0-.2,0-.2,0s0,0-.1,0A.69.69,0,0,0,344.39,42.88Z"/>
        <path class="cls-1" d="M355.42,44.15A8.18,8.18,0,0,1,359,41.51a25.82,25.82,0,0,1,5.12-1.61,22.82,22.82,0,0,1,5-.48,5.09,5.09,0,0,1,3.2.83,9.12,9.12,0,0,1,3,1.56l.88.34a3.13,3.13,0,0,1,.79.44,17.65,17.65,0,0,1,4.58,7.95,33.92,33.92,0,0,1,1.33,9.23,36,36,0,0,1-1.33,10A15.08,15.08,0,0,1,376,77.63a10.26,10.26,0,0,1-5.22,2.92,10,10,0,0,1-3.5.74A20.15,20.15,0,0,1,363.6,81a14.52,14.52,0,0,1-3.1-.68,10.79,10.79,0,0,1-2.81-1.46,15.11,15.11,0,0,1-1.58-1.27,5.54,5.54,0,0,1-1-1.56c-.73-1.24-1.48-2.43-2.27-3.57a12.65,12.65,0,0,1-1.77-3.66A15.74,15.74,0,0,1,350.5,65a34.78,34.78,0,0,1,.1-4.64q0-1.37.09-2.73a14.79,14.79,0,0,1,.5-2.83c.13-.52.26-1,.39-1.37a40.58,40.58,0,0,1,1.63-5.22A16.47,16.47,0,0,1,355.42,44.15Zm-2.66,17.47q2.26-.78,4.73-1.51c1.64-.49,3.09-.9,4.34-1.22v-.1l-7.49,1.46-1.58.49Zm9.26-.78c-1.57.46-3.18.94-4.82,1.46s-3.12,1.05-4.44,1.57c1.51-.33,3-.72,4.58-1.18s3.11-.87,4.68-1.26Zm-9-2.93a.78.78,0,0,1-.05.3.69.69,0,0,0-.05.29l3.15-.69,5.42-1.17a9.2,9.2,0,0,1-.1-1.56c-1.31.39-2.71.83-4.18,1.32S354.37,57.39,353.06,57.91ZM357,54.5l-3.94.78v.58Zm-3.55,11.42h-.39V66Zm.1,2.14.4.78,8.27-2.34v-.88l-1.67.39q-.8.19-1.38.3Zm1.18,2.64v.09l1-.39Zm3.65-20.89c-.33.13-.76.28-1.28.44s-1.09.31-1.68.44c0,.06-.06.16-.19.29,1-.32,2.1-.62,3.15-.88s2.13-.55,3.25-.87Zm-3.06,3.12c1-.19,2-.42,3.06-.68s2.13-.55,3.25-.88v-.29c-1.05.33-2.12.63-3.2.93S356.31,52.61,355.32,52.93Zm2.37-8.19A10.72,10.72,0,0,0,355.82,47l.79-.29,2-2.15A3.25,3.25,0,0,1,357.69,44.74Zm-1.87,28a.83.83,0,0,1,.24.39,1,1,0,0,0,.25.39c1-.33,2-.64,3.1-.93s2.19-.6,3.3-.93l-.29-1.36-3.3,1.17C358,71.87,356.93,72.29,355.82,72.75Zm6.3-9.37A39.66,39.66,0,0,0,356.61,65c1.11-.33,2.15-.6,3.1-.83a17.52,17.52,0,0,0,1.92-.54l.49-.1Zm-5-15-.1.09a37.55,37.55,0,0,0,5.32-1.17,3.64,3.64,0,0,1,.39-.87q-1.47.59-2.85,1T357.1,48.35Zm.59,27v.1l.69-.29Zm6.21.1a21.07,21.07,0,0,1-2.32.68,21.8,21.8,0,0,0-2.51.78h.1c.79-.26,1.57-.48,2.36-.68l2.37-.59Zm-4.34-29.87,3.84-1.56.1-.09-2.17.19h-.09Zm5,32-1.73.39-1.62.39,1.28.58c.39-.13.8-.24,1.23-.34s.84-.21,1.23-.34Zm5.51,1.27A6.83,6.83,0,0,0,372,75.77a13.92,13.92,0,0,0,.84-3.71q0-3.12-.05-7.32c0-2.79-.16-5.61-.39-8.44a56.7,56.7,0,0,0-1.23-8.1,21,21,0,0,0-2.47-6.39.81.81,0,0,1-.39-.1A3.5,3.5,0,0,0,365.77,43,8.34,8.34,0,0,0,365,45a17,17,0,0,0-.44,2.44c-.1.85-.17,1.61-.2,2.29s0,1.22,0,1.61c-.13,1.63-.25,3.47-.34,5.52s-.1,4.16,0,6.34.29,4.33.59,6.44A27.45,27.45,0,0,0,366,75.48a7.83,7.83,0,0,1,.5.93c.13.29.16.44.1.44a3.24,3.24,0,0,0,.49,1q.78,1.28,1.38,1.47Zm.69-37.39.4.69,1.28-.2a.85.85,0,0,0-.3-.09.3.3,0,0,1-.19-.1l-1.19-.39Zm1.19,2c.13.32.26.68.39,1.07.46-.13.92-.28,1.38-.44s.92-.34,1.38-.54l-.69-.58c-.4.06-.81.15-1.23.24S372.37,43.4,372,43.47Zm4.43,1.46L373,46.49v.1l3.84-1.07Zm-2.56,5.17a3.21,3.21,0,0,0,.19,1l5.13-1.17-.4-1.17Zm.49,2.93a2.74,2.74,0,0,1,.1.78L380,52.25l-.2-.58c-.92.26-1.82.5-2.71.73S375.26,52.84,374.34,53Zm.2,4.88v.68c1-.25,2-.5,3-.73s2.1-.5,3.15-.83a.58.58,0,0,0-.05-.29.69.69,0,0,1-.05-.29Zm0,17,1.67-.48,1.18-1.66a13.81,13.81,0,0,0-1.33.44c-.42.16-.87.31-1.33.44Zm6.3-15.51v-.3l-3.2.74a24.71,24.71,0,0,0-2.91.82v.2Zm-.49,4.68a1.43,1.43,0,0,0,.1-.59L374.83,65v.68c.92-.26,1.84-.54,2.76-.83S379.43,64.32,380.35,64.06Zm-5.42,4.29c1.12-.32,2.1-.6,3-.82s1.47-.41,1.87-.54a.87.87,0,0,1,.05-.34,1.16,1.16,0,0,0,.05-.34,23,23,0,0,0-2.52.53c-.82.23-1.62.44-2.41.64Zm4.14.79q-2.07.48-4.14,1.17v1.17l3.55-1Zm1.38-14.55a.2.2,0,0,0-.05-.14.17.17,0,0,1,0-.15l-3.74,1h.29Z"/>
        <path class="cls-1" d="M389.91,66.5a11.67,11.67,0,0,1-.1-1.56v-2c-.4-2.08-1.41-3.09-3.06-3a2.38,2.38,0,0,1-.78.1.58.58,0,0,1-.5-.39,2.4,2.4,0,0,1-.24-.83,1.66,1.66,0,0,1,.1-.83.73.73,0,0,1,.54-.49h.79a3.94,3.94,0,0,0,1.82-2.05,11.64,11.64,0,0,0,.84-3.31.68.68,0,0,1,.09-.35,1.79,1.79,0,0,0,.2-.34,6.8,6.8,0,0,0,.2-1.66V48a8.73,8.73,0,0,1-.25-1.66q0-.88-.15-1.86a7.48,7.48,0,0,0-.19-.78c-.07-.19-.14-.39-.2-.58a4.71,4.71,0,0,0-1.82-1.42c-.69-.29-1.4-.6-2.12-.93a1.53,1.53,0,0,1-.54-.09,1.4,1.4,0,0,0-.54-.1h-.4v-.1h-.2a1,1,0,0,1-.78-1,.87.87,0,0,1,.69-.93h.09c-.06,0,0-.06.3-.2,3-.25,5.4-.45,7.34-.58s3.66-.23,5.17-.29,3-.08,4.53-.05l5.52.14v.1a1,1,0,0,1,.84.88.94.94,0,0,1-.74,1h-.2a.4.4,0,0,1-.29.09,4.68,4.68,0,0,0-2.56.49,4.31,4.31,0,0,0-1.73,1.71,10.69,10.69,0,0,0-1,2.63,16.09,16.09,0,0,0-.5,3.08,14,14,0,0,1,4.83-3.95A18.24,18.24,0,0,1,411,41.61a16.34,16.34,0,0,1,6.16.39,10.61,10.61,0,0,1,5.07,2.93l1.38,1.56c.79,1,1.46,1.91,2,2.59a12.67,12.67,0,0,1,1.48,2.29,16.25,16.25,0,0,1,1.13,3.13,31.81,31.81,0,0,1,.79,5c0,.59-.07.92-.2,1A34.13,34.13,0,0,1,429,64a28.9,28.9,0,0,1-.2,3.37c0,.06,0,.1.05.1s.05,0,.05.09c-.06.78-.15,1.88-.24,3.27a22.07,22.07,0,0,0,.09,4.15,11.85,11.85,0,0,0,1,3.61,2.74,2.74,0,0,0,2.51,1.66c.53.07.79.34.79.83a.9.9,0,0,1-.79.93,9.8,9.8,0,0,1-2,.34q-.93,0-2.07.15c-.75.06-1.67.11-2.76.14s-2.41.15-4,.35a20.13,20.13,0,0,0-3.49-.1,16,16,0,0,1-2.42,0,1.7,1.7,0,0,1-2,.1,1.68,1.68,0,0,1-.1-1.47c0-.19.66-.39,2-.58a4.28,4.28,0,0,0,.69-1.32c.2-.55.38-1.11.55-1.66l.44-1.51a4.64,4.64,0,0,0,.2-.88l.78-8.79c0-1,0-2,.05-3a31.71,31.71,0,0,0-.05-3.22c-.13-1.82-.28-3.52-.44-5.08s-.31-2.86-.44-3.9-.54-1.92-.84-2.83A20.34,20.34,0,0,0,415.23,46a5.51,5.51,0,0,0-.45-.73,4.56,4.56,0,0,0-.44-.53l-.79-.39c-.26-.13-.56-.26-.88-.39a4.07,4.07,0,0,0-3.06.78,13.83,13.83,0,0,0-2.51,2.83,9.87,9.87,0,0,0-1.33,2.34q-.88,2.84-1.58,4.83c-.46,1.33-.87,2.7-1.23,4.1a38.77,38.77,0,0,0-.89,4.93c-.23,1.89-.44,4.29-.64,7.22.07.78.15,1.48.25,2.1a3.84,3.84,0,0,1,.05,1.32q.09.68.15,1.26c0,.4.05.79.05,1.18.13.71.26,1.35.39,1.9a2.69,2.69,0,0,0,.69,1.32,1.31,1.31,0,0,1,.59-.1,1.67,1.67,0,0,1,.59.19,1.72,1.72,0,0,1,.3.2v.1a9.63,9.63,0,0,0,2.12-.44,4.66,4.66,0,0,0,1.82-1.12q.19-.2,0-.54a2.59,2.59,0,0,0-.59-.68,6.47,6.47,0,0,0-.79-.59,3.44,3.44,0,0,1-.49-.34A.93.93,0,0,1,407,78a.9.9,0,0,1-1.18.53l-.3-.09a1.07,1.07,0,0,1-.69-1A1.68,1.68,0,0,1,406.56,75a4.11,4.11,0,0,1,1.87.63A4.59,4.59,0,0,1,410,77.14a2.62,2.62,0,0,1,.29,2,4,4,0,0,1-1.72,2.2,2.56,2.56,0,0,1-1.28.58,11.3,11.3,0,0,0-1.38.29,5.57,5.57,0,0,1-1.43.2H403a21.08,21.08,0,0,1-2.81.24c-1.08,0-2.16,0-3.25,0s-2.12,0-3.1,0-1.74-.05-2.27-.05H391q-2.16-.09-4.14,0a6,6,0,0,1-2.76.59,1.15,1.15,0,0,1-1-.83c-.17-.49.05-.89.64-1.22l2.07-.19a5.4,5.4,0,0,0,3-3.23,16.66,16.66,0,0,0,1.19-4.88Zm.1-10c-.14.26-.28.52-.45.78s-.31.52-.44.78a6.09,6.09,0,0,1,.89.68Zm.39,22.15c-.2.39-.39.77-.59,1.12a7.71,7.71,0,0,1-.69,1h1.28ZM391,39.37a1.26,1.26,0,0,0,.1.58l5.12-.78,1.48-.09a17.93,17.93,0,0,0-3.3-.1c-1.15.06-2.28.16-3.4.29Zm.39,3.41a.74.74,0,0,0,.05.3.56.56,0,0,1,.05.29l6.7-2.15v-.09l-6.89.78A3.11,3.11,0,0,1,391.38,42.78Zm6.51,2.35a5.89,5.89,0,0,1,.05-.88c0-.26.08-.55.14-.88v-.1l-6.5,2v1Zm-6.21,5.07a3.27,3.27,0,0,0,.2,1l3.45-.69H395l2.66-.48v-.1a1.74,1.74,0,0,1-.2-.78l.1-.59a23,23,0,0,1-2.95.78c-1,.2-2,.43-3,.69Zm.2,11.52q1.77-.49,3.3-.78l2.51-.49V59.38q-1.47.28-2.91.63c-.95.23-1.92.47-2.9.73Zm.19,2.83L397.79,63V62.5l-5.91,1.17Zm5.82,3.12V66.6L392,67.87v1.27Zm-5.72-14.35a.46.46,0,0,0,.05.2.49.49,0,0,1,0,.19l5.32-1.26v-.2Zm.1,4.69a1.55,1.55,0,0,1-.1.68l5.42-1.27v-.29Zm5.81,12.78a3.11,3.11,0,0,0-.09-.87l-5.82,2.44Zm-5.71-15.22a.69.69,0,0,0,.05.29.78.78,0,0,1,.05.3l5.12-.88v-1l-1.87.39-1.77.39a.3.3,0,0,0-.2.1Zm6.4,19.81a2,2,0,0,0-.09-.58,1.74,1.74,0,0,1-.1-.59l-6.21,2v1.37Zm.69,3.22-.19-.48-3.45.78q-1.77.39-3.45.87v.69Zm.3-11.81a.34.34,0,0,1,.05-.19.72.72,0,0,0,.05-.29h-.1Zm.1-4.39.29-.1a.2.2,0,0,1,.05-.14.21.21,0,0,0,.05-.15.53.53,0,0,0-.2.05.45.45,0,0,1-.19,0Zm.88-3.81a1.62,1.62,0,0,1-.78.2v1.37l.59-.1Zm-.09-19.12a.87.87,0,0,0-.5.58,3.16,3.16,0,0,0-.1.88,3.94,3.94,0,0,1,.5-.73c.19-.23.39-.47.59-.73Zm1.08,15.22a10.45,10.45,0,0,1,.39-1.27l-2.07.39v1.08Zm-1.68,2.15.3-.1h-.3Zm.1-5.08v.1l2.76-.68Zm3.94-3a12.09,12.09,0,0,1,.64-1.12c.23-.36.48-.7.74-1l-1.87.49-2.26,2.15ZM417,43.86a1.66,1.66,0,0,0-.59-.25,1.8,1.8,0,0,1-.49-.14l.29.49Zm4.73,3.61a1.64,1.64,0,0,1-.34-.49,2,2,0,0,0-.35-.49l-2.76,1.37.3.58Zm-2.56,31.72c.39-.13.79-.28,1.18-.44s.79-.34,1.18-.54a5.5,5.5,0,0,1-1.13.25,10.26,10.26,0,0,0-1,.14Zm5.12-28a4,4,0,0,0-.49-.88c-.72.26-1.45.54-2.17.83s-1.44.6-2.17.93Zm1.77,23.91a4.85,4.85,0,0,0,.2-1.17l-6.4,2.44,1.48-.39c.45-.13,1-.26,1.47-.39ZM426,55a4.09,4.09,0,0,0-.4-1.07q-2.56.78-5.61,2v.2l.69-.2Zm-.4,24.89v-.63a2.91,2.91,0,0,1,.1-.74l-2,.88-3.64,1.47a3.43,3.43,0,0,1,.68.05,4,4,0,0,0,.6,0l.09.09Zm-5.42-21.18L422,58l-1.88.39Zm.1,14.25a4.89,4.89,0,0,1-.1,1.17l6.21-2.34v-.49q-1.68.39-3.15.78C422.22,72.32,421.24,72.62,420.25,72.94Zm0-12,2.27-.59c.52-.13,1.15-.26,1.87-.39s1.44-.29,2.17-.49v-1c-1,.32-2,.65-3.06,1s-2.13.72-3.25,1.17Zm0,2.34v.29c.79-.32,1.51-.58,2.17-.78Zm.2,7a3.26,3.26,0,0,1-.05.48,4,4,0,0,0,0,.59l5.91-1.85a2.94,2.94,0,0,0-.05-.59,1.33,1.33,0,0,1,.05-.59l-2.95,1C422.32,69.66,421.37,70,420.45,70.31Zm0-2.15q3-1,5.91-1.66a.25.25,0,0,1,.05-.15.2.2,0,0,0,0-.14l-3.15.73c-1,.23-1.94.47-2.86.73Zm6.11-3.9v-.39l-4.24,1.26-.89.3ZM429,80.75A5,5,0,0,1,427.74,79a8.34,8.34,0,0,0-.2,1.47V81Z"/>
        <path class="cls-1" d="M451.68,55.67c-2-.52-3.2-1.24-3.5-2.15a2.84,2.84,0,0,1,.64-2.73,13.53,13.53,0,0,0,.94-4,12.68,12.68,0,0,0-.44-4.79,3.41,3.41,0,0,0-1-1.8,3.76,3.76,0,0,0-1.48-.83,3.85,3.85,0,0,0-1.47-.1,1.51,1.51,0,0,0-1,.49A13.38,13.38,0,0,0,442.81,43a20.67,20.67,0,0,0-.79,3.76c0,.84,0,1.74.1,2.68s.1,1.81.1,2.59a6.86,6.86,0,0,0,.54,1.46,10.11,10.11,0,0,0,.84,1.37,14.17,14.17,0,0,0,3,2,29.4,29.4,0,0,0,3.05,1.27c1,.35,2,.66,3,.92a12.49,12.49,0,0,1,2.75,1.08,7.46,7.46,0,0,1,3.85,3.51,9.26,9.26,0,0,1,1.38,3.81,14.36,14.36,0,0,1-1,6.44,15.06,15.06,0,0,1-8.27,8.2,11.53,11.53,0,0,1-5.47.78A12.92,12.92,0,0,1,439.71,81a10.08,10.08,0,0,1-4.29-4.68,13.32,13.32,0,0,1-1.18-3.71,15.8,15.8,0,0,1,0-3.51V69a3.12,3.12,0,0,1,.2-.88,1,1,0,0,1,.1-.49l.1-.1a5.06,5.06,0,0,1,1.47-2.09,2,2,0,0,1,1.78-.64,6.78,6.78,0,0,1,2.36-.49,4.74,4.74,0,0,1,1.82.64,6.65,6.65,0,0,1,1.68,1.36,4.79,4.79,0,0,1,1,1.81,2.3,2.3,0,0,1-.19,1.85v.2a9.85,9.85,0,0,0-1,2.2,9.17,9.17,0,0,0-.44,2.48,9.78,9.78,0,0,0,.19,2.44,3.62,3.62,0,0,0,.94,1.86,4.38,4.38,0,0,0,2.46.83,11.26,11.26,0,0,0,3.65-.34,16,16,0,0,0,.64-4,34.37,34.37,0,0,0-.05-4.88V70.7a15.5,15.5,0,0,1-.59-3,10.82,10.82,0,0,0-3.45-4.2,12.05,12.05,0,0,1-1.33-.92,4.75,4.75,0,0,0-.94-.64l-3.44-1.17a8.14,8.14,0,0,1-3-1.22,10.49,10.49,0,0,1-2.51-2.29,11.66,11.66,0,0,1-.2-16.54,13.28,13.28,0,0,1,4.24-2.93,15.21,15.21,0,0,1,5-1.22,14.14,14.14,0,0,1,5,.49h.1c.65.13,1.31.29,2,.48a7.91,7.91,0,0,1,1.77.78,8.7,8.7,0,0,1,3.79,3.32,13.75,13.75,0,0,1,1.83,6,11.3,11.3,0,0,1-.25,3.07,5.57,5.57,0,0,1-1.33,2.68,5.69,5.69,0,0,1-2.32,2A5.32,5.32,0,0,1,451.68,55.67ZM440.05,45.42l-4,1.46-1.78.88a.37.37,0,0,1-.05.2.45.45,0,0,0-.05.19c1-.26,2-.53,2.91-.83s1.89-.6,2.81-.92Zm-5.81,4.49a2.82,2.82,0,0,0,.1.88q1.08-.59,2.22-1.17l2.31-1.18c-.92.27-1.72.51-2.41.74s-1.27.4-1.73.53A1.74,1.74,0,0,1,434.24,49.91Zm.49-4.59,5.82-2v-.1L435,44.54Zm.1,7.32c.86-.26,1.69-.5,2.52-.73s1.65-.5,2.51-.83a2.82,2.82,0,0,1-.1-.88l-2.61,1.12a18.17,18.17,0,0,0-2.32,1.22Zm1.28,2.44,4.14-2.24v-.1l-4.63,1.66Zm5.42-14.64-3.84,1-.39.09a3.17,3.17,0,0,0-.55.49,5.88,5.88,0,0,1-.44.49,22.35,22.35,0,0,0,2.41-.54c.82-.22,1.66-.47,2.52-.73Zm-5.22,28.7a1,1,0,0,0,.1.48l2.07-1.31a12,12,0,0,0,1.87-1.52,13.93,13.93,0,0,0-1.87.64,12.09,12.09,0,0,1-2,.63A2.11,2.11,0,0,0,436.31,69.14Zm.49,4.19a1.57,1.57,0,0,1,.15.49.8.8,0,0,0,.25.49v.1l3.94-2a10.42,10.42,0,0,1-1.33.3,4.93,4.93,0,0,1-1.33,0Zm4.44,1.17L438,76.16a13.25,13.25,0,0,0,1.62-.53c.56-.23,1.1-.44,1.63-.64Zm1.47-5.36a1.7,1.7,0,0,0,0-1.18,21.17,21.17,0,0,1-2.21,1.42c-.76.42-1.53.86-2.32,1.32a.17.17,0,0,1,.15,0,.21.21,0,0,0,.15,0l3.84-1.07A2.23,2.23,0,0,0,442.71,69.14Zm-3.94,8.49c0,.06,0,.09.05.09s.05,0,.05.1l.89-.49h-.2Zm.79-20.11L442,55.76a.08.08,0,0,0-.09-.09,7.75,7.75,0,0,0-1.24.68c-.49.33-1,.65-1.52,1Zm2.56-18.84a19,19,0,0,0-2.16,1l1.87-.58Zm-.59,39.92-1.08.69a.28.28,0,0,0,.2.09l1.08-.39Zm4.73-18.44a5.74,5.74,0,0,1-.74,0,5.62,5.62,0,0,0-.74,0l.69.29Zm-.2-1.66a1.59,1.59,0,0,1-.49.19,5.57,5.57,0,0,0,1.28.1Zm1.68,2.93a4,4,0,0,1,.89.48l3.54-1.07a3.55,3.55,0,0,0-.88-.24l-.89-.15ZM449,38.68l.1.1.1-.1Zm1,14.06a1.78,1.78,0,0,0,.78-.49,14.51,14.51,0,0,0,1.68-1.07c.52-.39,1.08-.78,1.67-1.17a9.18,9.18,0,0,0-2.07.63,4.78,4.78,0,0,0-1.47.93l-.59.88Zm.78,11.32A20.19,20.19,0,0,1,452.86,63L455,62c-.13-.13-.23-.19-.3-.19l-4.53,1.46Zm.2-22.45,2.56-1.46a1.07,1.07,0,0,0-.34-.25l-.35-.14-2.36.78Zm.2,11.81a.37.37,0,0,0,.29.1l4.83-1.66a1.75,1.75,0,0,0-.29-.78Zm.29-9.46,4.14-1.57a4.47,4.47,0,0,0-.49-.88H455l-3.55,2.15Zm5.42,2.14a2.64,2.64,0,0,1-.1-.78c-.78.33-1.67.75-2.66,1.27s-1.84.94-2.56,1.27a.26.26,0,0,1-.1.19Zm-5.22-.49V46l1.28-.87Zm.49,21.28c.86-.32,1.73-.7,2.61-1.12s1.79-.83,2.71-1.22a.18.18,0,0,0-.05-.15.2.2,0,0,1-.05-.14l-.68-.79-4.93,2.35Zm.4,1.76a.89.89,0,0,1,.1.29.3.3,0,0,0,.09.2l5.62-2.74v-.09Zm2.95,8a2.19,2.19,0,0,0,.79-.78L453,77.14l-.39,1.66a8,8,0,0,0,2.16-1.47c.14-.13.27-.25.4-.39l.39-.39ZM453,71.48a1.16,1.16,0,0,0,.05.34,1.16,1.16,0,0,1,.05.34,25.81,25.81,0,0,0,2.71-1.22,20.39,20.39,0,0,1,2.91-1.22.71.71,0,0,1,0-.29.58.58,0,0,0,0-.29v-.59c-.72.33-1.61.75-2.66,1.27S454,70.89,453,71.48Zm4.43,1c-.65.33-1.34.66-2.06,1a13.83,13.83,0,0,1-2.17.78v.59Zm-1.57-23.91a.26.26,0,0,0,.2.1.7.7,0,0,1,.29.1l.69-.39v-.2Z"/>
      </g>
    </g>
  </g>
</svg>
