<svg xmlns="http://www.w3.org/2000/svg" width="120" height="120" viewBox="0 0 120 120">
  <defs>
    <style>
      .cls-1 {
        fill: #cabca6;
      }

      .cls-2 {
        fill: #774318;
      }

      .cls-3 {
        fill: #603813;
      }

      .cls-4 {
        fill: #49290f;
      }
    </style>
  </defs>
  <g id="butons">
    <g id="play">
      <g>
        <path class="cls-1" d="M119.84,59a58.73,58.73,0,0,0-4.73-21.71,59.87,59.87,0,0,0-5.58-10.15,61.65,61.65,0,0,0-4.28-5.52A60.2,60.2,0,0,0,92.13,10.37a60.92,60.92,0,0,0-7-3.79A60.19,60.19,0,0,0,11.36,25.69a61.07,61.07,0,0,0-4,6.27A58.93,58.93,0,0,0,0,59c0,.3,0,.61,0,.92s0,.38,0,.58c0,1.28.05,2.55.13,3.82a55.26,55.26,0,0,0,.68,5.92A57.94,57.94,0,0,0,3,79.12q.93,2.8,2.12,5.47a59.24,59.24,0,0,0,7,11.79,59.89,59.89,0,0,0,4.47,5.21q1.89,2,4,3.75a60.29,60.29,0,0,0,72.28,4.91,59.56,59.56,0,0,0,5.93-4.41c1.13-1,2.23-2,3.29-3a61.31,61.31,0,0,0,8.2-10,57.55,57.55,0,0,0,3-5.21A60.49,60.49,0,0,0,115.84,82a58.7,58.7,0,0,0,4-19.27c0-.72,0-1.45,0-2.17C119.86,60,119.85,59.52,119.84,59Z"/>
        <g>
          <path d="M55.73,56.31H2c0,.3,0,.6,0,.9L16,57.53l39.57.91,62.76,1.44c0-.7,0-1.41,0-2.11,0-.5,0-1,0-1.49-.23,0-.45,0-.69,0Z"/>
          <path class="cls-2" d="M27,33.49c12.68-5.89,25.79-12,47.21-13.85A107.76,107.76,0,0,1,93,19.58c3.3.21,6.68.43,11.19.39A58.32,58.32,0,0,0,91.45,9l-3.82,1.37C75.52,14.69,45.28,25.38,9.11,30A56.65,56.65,0,0,0,3.93,42.82c2.29-.72,4.55-1.49,6.76-2.31C16.52,38.34,21.84,35.87,27,33.49Z"/>
          <path class="cls-2" d="M84.68,5.35A58.8,58.8,0,0,0,38.15,4.28c1.36,1.06,2.09,2.17,2.09,3.32,0,3.91-8.4,7.42-21.75,9.85A57.4,57.4,0,0,0,13,23.92C45.75,19.12,73,9.5,84.17,5.54Z"/>
          <path class="cls-2" d="M79.62,44.21c-10,2.85-15,6.21-20.87,10.1l-3,2h62c.24,0,.46,0,.69,0a57.73,57.73,0,0,0-2.54-15.52A108.21,108.21,0,0,0,79.62,44.21Z"/>
          <path class="cls-2" d="M53.44,50.35c6.14-4.1,11.94-8,23.29-11.19a116.68,116.68,0,0,1,37.05-4,57.47,57.47,0,0,0-5.42-9.86A146.19,146.19,0,0,1,92.3,25a97,97,0,0,0-17.17,0c-19.62,1.7-31.42,7.18-43.91,13-5.29,2.46-10.76,5-16.93,7.3Q8.52,47.49,2.61,49.11A57,57,0,0,0,2,56.31H43.84C47.57,54.26,50.54,52.28,53.44,50.35Z"/>
          <path class="cls-3" d="M91.45,9a59.75,59.75,0,0,0-6.77-3.69l-.51.19C73,9.5,45.75,19.12,13,23.92A56.65,56.65,0,0,0,9.11,30c36.17-4.63,66.41-15.32,78.52-19.6Z"/>
          <path class="cls-3" d="M31.22,38c12.49-5.8,24.29-11.28,43.91-13A97,97,0,0,1,92.3,25a146.19,146.19,0,0,0,16.06.33A58.31,58.31,0,0,0,104.2,20c-4.51,0-7.89-.18-11.19-.39a107.76,107.76,0,0,0-18.82.06C52.77,21.51,39.66,27.6,27,33.49c-5.14,2.38-10.46,4.85-16.29,7-2.21.82-4.47,1.59-6.76,2.31a57.05,57.05,0,0,0-1.32,6.29q5.9-1.63,11.68-3.77C20.46,43,25.93,40.5,31.22,38Z"/>
          <path class="cls-3" d="M76.73,39.16c-11.35,3.23-17.15,7.09-23.29,11.19-2.9,1.93-5.87,3.91-9.6,6H55.73l3-2c5.84-3.89,10.88-7.25,20.87-10.1a108.21,108.21,0,0,1,36.21-3.45,58.56,58.56,0,0,0-2-5.56A116.68,116.68,0,0,0,76.73,39.16Z"/>
          <path class="cls-3" d="M40.24,7.6c0-1.15-.73-2.26-2.09-3.32A58.42,58.42,0,0,0,18.49,17.45C31.84,15,40.24,11.51,40.24,7.6Z"/>
          <path class="cls-2" d="M2.08,61.48l.4-.12C7.13,60,11.62,58.64,16,57.53L2,57.21v.56C2,59,2,60.25,2.08,61.48Z"/>
          <path class="cls-2" d="M40.62,80.38c-8.21-1-14.33-1.29-33.7.76a58.13,58.13,0,0,0,6.8,11.45,382.5,382.5,0,0,1,48.76-2h.24a398.31,398.31,0,0,1,42.85,3.33A57.56,57.56,0,0,0,109,89.18l-.37-.08C107.9,89,100.9,88,40.62,80.38Z"/>
          <path class="cls-2" d="M62.34,96a368.58,368.58,0,0,0-44.28,1.61c1.22,1.27,2.51,2.49,3.84,3.65,10.22-1.74,25.27-2.64,42-2.25a270.57,270.57,0,0,1,33.95,2.73q1.65-1.4,3.19-2.91C88.31,97.29,75.46,96.34,62.59,96Z"/>
          <path class="cls-2" d="M59.46,60a207.44,207.44,0,0,0,19.69,7.33c17.06,5.44,28.88,7.3,35.15,5.54a20.74,20.74,0,0,0,2.28-.79,58.1,58.1,0,0,0,1.77-12.24L55.59,58.44C56.8,58.92,58.07,59.46,59.46,60Z"/>
          <path class="cls-2" d="M76.07,72.34c-9.81-3.13-16-5.73-20.49-7.63-2.07-.87-3.85-1.62-5.45-2.19-14.25-5.14-27-1.36-44.56,3.87l-2.83.84a57,57,0,0,0,2.12,8.59c1.85-.2,3.59-.37,5.21-.53,16.41-1.6,23.07-1.38,31.79-.28,61.94,7.84,68.21,8.73,68.66,8.82l1.47.29a57.15,57.15,0,0,0,2.5-5.52C108.52,79.59,97.94,79.31,76.07,72.34Z"/>
          <path class="cls-2" d="M108.65,89.1h0Z"/>
          <path class="cls-3" d="M41.86,75c-8.72-1.1-15.38-1.32-31.79.28-1.62.16-3.36.33-5.21.53.6,1.81,1.29,3.59,2.06,5.32,19.37-2,25.49-1.8,33.7-.76C100.9,88,107.9,89,108.67,89.1l.37.08c1.06-1.64,2-3.32,2.95-5.06l-1.47-.29C110.07,83.74,103.8,82.85,41.86,75Zm66.72,14.08h0Z"/>
          <path class="cls-3" d="M62.48,90.58a382.5,382.5,0,0,0-48.76,2,59.68,59.68,0,0,0,4.34,5.06A368.58,368.58,0,0,1,62.34,96h.25c12.87.3,25.72,1.25,38.48,2.83a57.06,57.06,0,0,0,4.5-5,398.31,398.31,0,0,0-42.85-3.33Z"/>
          <path class="cls-3" d="M79.15,67.37A207.44,207.44,0,0,1,59.46,60c-1.39-.58-2.66-1.12-3.87-1.6L16,57.53C11.62,58.64,7.13,60,2.48,61.36l-.4.12a57.46,57.46,0,0,0,.66,5.75l2.83-.84c17.6-5.23,30.31-9,44.56-3.87,1.6.57,3.38,1.32,5.45,2.19,4.5,1.9,10.68,4.5,20.49,7.63,21.87,7,32.45,7.25,38.42,6.26a57.58,57.58,0,0,0,2.09-6.48,20.74,20.74,0,0,1-2.28.79C108,74.67,96.21,72.81,79.15,67.37Z"/>
          <path class="cls-3" d="M21.9,101.3a60.16,60.16,0,0,0,6.86,5.11c5.65-2.19,19.24-3.51,35.07-3.15a161.56,161.56,0,0,1,28.29,2.8,58.85,58.85,0,0,0,5.76-4.28,270.57,270.57,0,0,0-33.95-2.73C47.17,98.66,32.12,99.56,21.9,101.3Z"/>
          <path class="cls-2" d="M28.76,106.41a58.64,58.64,0,0,0,63.36-.35,161.56,161.56,0,0,0-28.29-2.8C48,102.9,34.41,104.22,28.76,106.41Z"/>
        </g>
        <polygon points="120 60.81 118.06 59.74 118.17 56.43 119.89 57.07 120 60.81"/>
        <polygon points="2.05 57.23 0.03 57.85 0.08 56.91 2.13 56.35 2.05 57.23"/>
      </g>
      <path class="cls-4" d="M43.15,99A8.29,8.29,0,0,0,46,97.89l4.23-2.52,7.1-4.23,8.78-5.24,9.11-5.42,8-4.8,15.88-9.46a8.25,8.25,0,0,0-.25-14.34l-1.42-.79-4.31-2.37-5.68-3.13-5.24-2.88L66.51,34.06l-5.26-2.9L59.11,30l-.34-.18L48.12,23.94,44.66,22a8.73,8.73,0,0,0-2.06-.81A8.42,8.42,0,0,0,35,23.15a8.1,8.1,0,0,0-2.72,5.6c0,.22,0,.44,0,.67l.39,22.66.27,15.7,0,2.58.36,20.57A8.34,8.34,0,0,0,43.15,99Z"/>
      <path class="cls-1" d="M94.33,55.71,93,55l-4-2.18-5.23-2.88L79,47.28l-14.45-8-4.83-2.66-2-1.09-.3-.17L47.65,30l-3.18-1.75a7.79,7.79,0,0,0-1.9-.74,7.69,7.69,0,0,0-7,1.77,7.43,7.43,0,0,0-2.5,5.15c0,.2,0,.4,0,.61l.36,20.84.25,14.43,0,2.38.33,18.91a7.67,7.67,0,0,0,9,7.38,7.59,7.59,0,0,0,2.6-1l3.9-2.32,6.52-3.88L64.18,87l8.37-5L80,77.6l14.6-8.7A7.59,7.59,0,0,0,94.33,55.71Z"/>
      <path d="M32.75,56.36l.92.6S96.3,58.72,97.74,58.9s5-2.56,5-2.56l.94,2.56-.43.68-4.91,2.25L33.67,58.26l-1-.34Z"/>
    </g>
  </g>
</svg>
