<svg xmlns="http://www.w3.org/2000/svg" width="110" height="110" viewBox="0 0 110 110">
  <defs>
    <style>
      .cls-1 {
        fill: #0f630f;
      }

      .cls-2 {
        fill: #128212;
      }

      .cls-3 {
        fill: #cc8109;
      }

      .cls-4 {
        fill: #ef9c07;
      }
    </style>
  </defs>
  <g id="carrot">
    <g>
      <g>
        <path class="cls-1" d="M64.15,13.28c1.46,8.71.34,24.54-2.29,25.56S56.11,25.69,54.65,17s.52-13.43,3.14-14.45S62.69,4.57,64.15,13.28Z"/>
        <path class="cls-1" d="M73.6,17.86c-8,7.9-9.48,13.38-13.31,19.6-2.2-1,4-17.07,8.69-26.37S83.7,1.33,86.38,3.27C89.32,5.4,80.89,10.7,73.6,17.86Z"/>
        <path class="cls-1" d="M83.85,26.8c-12.09,4.12-16.19,7.71-23.11,11.39-1.84-1,12.22-11.28,21.54-17S102.19,17,104,18.82C106.08,20.84,94.81,23.06,83.85,26.8Z"/>
        <path class="cls-2" d="M93.89,28.16c-10.1,5-30.38,11.48-33,10.06S74.38,28.06,84.49,23s17-5.78,19.58-4.36S104,23.12,93.89,28.16Z"/>
        <path class="cls-2" d="M83.08,17.4c-5.79,8.65-19.54,21.3-22.62,20.06s5.7-15.91,11.48-24.56S83.23,1.81,86.31,3.05,88.86,8.76,83.08,17.4Z"/>
      </g>
      <g>
        <path class="cls-3" d="M52,65a25,25,0,0,0,8.25-7.68c6.48-9.46,13.45-16.21,6-21.29S44,28,37.54,37.48c-2.29,3.34-5.95,9.41-6.46,12.92a47.69,47.69,0,0,0-8.62,7.18c-5.69,6.5-5.67,10-6.46,16.51A33.07,33.07,0,0,0,12.07,79c-5.46,8-9.94,23.41-4.82,26.92s17.9-6.25,23.35-14.22a26.27,26.27,0,0,0,2.68-4.94,44.75,44.75,0,0,0,14.9-13A24.32,24.32,0,0,0,52,65Z"/>
        <path class="cls-4" d="M57.26,71.83a25,25,0,0,0,9.19-6.54C74.1,56.75,74.88,45,68.19,39s-18.32-3.94-26,4.6a24.94,24.94,0,0,0-5.5,9.84,24.28,24.28,0,0,0-7.59,5.74A44.72,44.72,0,0,0,20.07,76.7a26,26,0,0,0-4.16,3.77C9.46,87.66,3,102.38,7.63,106.53s18.56-3.88,25-11.07a25.52,25.52,0,0,0,3.29-4.55A44.59,44.59,0,0,0,52.38,80,24.09,24.09,0,0,0,57.26,71.83Z"/>
      </g>
    </g>
  </g>
</svg>
