<svg xmlns="http://www.w3.org/2000/svg" width="420" height="630" viewBox="0 0 420 630">
  <defs>
    <style>
      .cls-1 {
        fill: #875d51;
      }

      .cls-2 {
        fill: #9f6d5c;
      }

      .cls-3 {
        fill: #044bb2;
      }

      .cls-4 {
        fill: #07448c;
      }

      .cls-5 {
        fill: #cbbdad;
      }

      .cls-6 {
        fill: #997629;
      }

      .cls-7 {
        fill: #af8c35;
      }

      .cls-8 {
        fill: #96675a;
      }

      .cls-9 {
        fill: #aaa199;
      }

      .cls-10 {
        fill: #d2dadb;
      }

      .cls-11 {
        fill: #aeb6b7;
      }

      .cls-12 {
        fill: #3a3e47;
      }

      .cls-13 {
        fill: #fcfcfc;
      }

      .cls-14 {
        fill: #563a34;
      }
    </style>
  </defs>
  <g id="chef">
    <g id="chef_bear" data-name="chef bear">
      <g id="oso">
        <g id="brazo_izq" data-name="brazo izq">
          <path class="cls-1" d="M101.17,290.27l-77.69,34.2A39.16,39.16,0,0,0,6.16,381l12.6,20.28a39.15,39.15,0,0,0,58.36,9.53l65.09-54.48C176.91,327.29,142.59,272,101.17,290.27Z"/>
        </g>
        <g id="body">
          <path class="cls-2" d="M79.66,325.46l-33.08,75C18.27,464.71,60.86,557.38,131,560.44l59.5,2.6c70.1,3.07,123.87-85.4,101.27-151.83l-26.42-77.64C236,247.53,116.33,242.3,79.66,325.46Z"/>
        </g>
        <path class="cls-3" d="M294.94,412.09l-9.13-26.81a50.33,50.33,0,0,1-17.63,5.48c-33.17,3.88-63.92-25.94-68.68-66.61-2.27-19.42,1.79-37.8,10.27-52.13a102.48,102.48,0,0,0-14.93-4.47c-16,10.92-23.81,34.86-21.71,66.38l-75-6.46c2.43-17.93,15.89-34.46,18.7-45.9a99.88,99.88,0,0,0-36.5,43.75L46.86,401.26c-28.64,65,14.48,158.51,85.42,161.61l60.21,2.63C263.43,568.6,317.81,479.31,294.94,412.09Z"/>
        <path class="cls-4" d="M123.26,427.72l-2.83-.25c-27.37-2.4-44.41-26.68-38.56-51.81l6.07-26.05c1-4.19,5.48-7.29,10-6.94l72.18,5.54c4.65.35,8.25,4.11,8,8.4l-1.62,26.74C175,409.17,150.85,430.14,123.26,427.72Z"/>
        <path class="cls-1" d="M168,586.69c0,22.62-23.93,25.49-54.91,25.49s-57.26-2.87-57.26-25.49,25.11-41,56.08-41S168,564.07,168,586.69Z"/>
        <path class="cls-2" d="M256.77,590.84c0,24.14-25.54,27.2-58.6,27.2s-61.11-3.06-61.11-27.2,26.8-43.71,59.85-43.71S256.77,566.7,256.77,590.84Z"/>
        <g id="brazo_derecho" data-name="brazo derecho">
          <path class="cls-2" d="M205.2,372l72.41,65.23A45,45,0,0,0,345,428.68l15.3-22.74a45,45,0,0,0-17.51-65.59L255,297.86C208.28,275.21,166.59,337.18,205.2,372Z"/>
          <ellipse class="cls-1" cx="318.43" cy="394.88" rx="57.22" ry="48.03" transform="translate(-171.79 525.28) rotate(-66.01)"/>
          <ellipse class="cls-5" cx="323.37" cy="396.98" rx="49.71" ry="37.5" transform="translate(-165.35 549.68) rotate(-68.19)"/>
        </g>
        <g id="basquet">
          <path class="cls-6" d="M325.2,395.16a69.06,69.06,0,1,0,69.07,69.06A69.06,69.06,0,0,0,325.2,395.16Zm0,123.47a54.41,54.41,0,1,1,54.42-54.41A54.41,54.41,0,0,1,325.2,518.63Z"/>
          <path class="cls-7" d="M419.78,501.91c0,27.87-40.42,79.3-90.29,79.3s-90.3-51.43-90.3-79.3,40.43-50.46,90.3-50.46S419.78,474.05,419.78,501.91Z"/>
        </g>
        <g id="cabeza">
          <g>
            <circle class="cls-8" cx="105.52" cy="137.46" r="40.11"/>
            <circle class="cls-5" cx="98.16" cy="135" r="23.33"/>
          </g>
          <g>
            <circle class="cls-2" cx="242.55" cy="142.88" r="42.88"/>
            <circle class="cls-5" cx="236" cy="138.79" r="24.94"/>
          </g>
          <circle class="cls-1" cx="163.85" cy="224.85" r="95.37"/>
          <circle class="cls-2" cx="165.49" cy="218.3" r="95.37"/>
          <g id="ocico">
            <ellipse class="cls-9" cx="109.03" cy="239.75" rx="51.1" ry="46.24" transform="translate(-144.13 312.41) rotate(-81.56)"/>
            <ellipse class="cls-5" cx="148.29" cy="242.78" rx="56.91" ry="53.7"/>
          </g>
          <g id="sombrero">
            <path class="cls-10" d="M113.13,87.47h97.39a0,0,0,0,1,0,0V121.8A13.21,13.21,0,0,1,197.31,135h-71a13.21,13.21,0,0,1-13.21-13.21V87.47A0,0,0,0,1,113.13,87.47Z"/>
            <g>
              <ellipse class="cls-11" cx="132.01" cy="51.81" rx="67.57" ry="39.85"/>
              <ellipse class="cls-10" cx="191.65" cy="51.81" rx="67.57" ry="39.85"/>
            </g>
          </g>
        </g>
        <path id="nariz_v2" class="cls-12" d="M135.87,199.12c.34-6.62-4.31-12.23-10.37-12.54a10.38,10.38,0,0,0-7,2.27,10.4,10.4,0,0,0-7-3.29c-6.07-.31-11.25,4.81-11.58,11.43a12.45,12.45,0,0,0,3.4,9.33,3,3,0,0,0,.44,1L112,219.71c1.85,2.78,7.51,3.06,9.62.49L131,208.73a3.46,3.46,0,0,0,.35-.53A12.39,12.39,0,0,0,135.87,199.12Z"/>
        <g id="ojos">
          <circle id="ojo_derecho" data-name="ojo derecho" class="cls-12" cx="181.42" cy="177.91" r="12.28"/>
          <circle id="ojo_izquierdo" data-name="ojo izquierdo" class="cls-12" cx="108.77" cy="170.68" r="9.91"/>
          <circle class="cls-13" cx="183.91" cy="170.41" r="3.27"/>
          <circle class="cls-13" cx="111.05" cy="164.68" r="2.46"/>
        </g>
        <g id=":_" data-name=":)">
          <path id="voca_:_" data-name="voca :)" class="cls-12" d="M132.82,269.29a14.05,14.05,0,0,1-26.58.73,14.32,14.32,0,0,0-.61,3.18,14.06,14.06,0,1,0,27.19-3.91Z"/>
          <g id="cejas_:_" data-name="cejas :)">
            <path class="cls-14" d="M189.46,151.65c8.34,1.21,15.2,4.62,18.16,8.57a6.65,6.65,0,0,0,2.85-4.3c.83-5.75-8-11.79-19.67-13.48s-21.86,1.59-22.69,7.34a6.63,6.63,0,0,0,1.51,4.93C173.58,151.77,181.13,150.44,189.46,151.65Z"/>
            <path class="cls-14" d="M109.07,146.76c6.75-.74,12.8.55,15.91,3a5.32,5.32,0,0,0,1.36-3.93c-.5-4.66-8.6-7.61-18.08-6.58S91.51,144.93,92,149.59a5.33,5.33,0,0,0,2.18,3.54C96.69,150,102.32,147.49,109.07,146.76Z"/>
          </g>
        </g>
      </g>
    </g>
  </g>
</svg>
