<svg xmlns="http://www.w3.org/2000/svg" xmlns:xlink="http://www.w3.org/1999/xlink" width="366" height="25" viewBox="0 0 366 25">
  <defs>
    <style>
      .cls-1 {
        fill: none;
      }

      .cls-2 {
        clip-path: url(#clip-path);
      }

      .cls-3 {
        clip-path: url(#clip-path-2);
      }

      .cls-4 {
        fill: #774318;
      }

      .cls-5 {
        fill: #603813;
      }

      .cls-6 {
        fill: #fc9b9b;
      }
    </style>
    <clipPath id="clip-path">
      <rect class="cls-1" x="380.96" y="-537.08" width="1920" height="1083"/>
    </clipPath>
    <clipPath id="clip-path-2">
      <rect class="cls-1" x="377.29" y="-579.77" width="404" height="1162" rx="55.07" transform="translate(0 1.98) rotate(-0.2)"/>
    </clipPath>
  </defs>
  <g id="frontground">
    <g class="cls-2">
      <g class="cls-3">
        <g>
          <path class="cls-4" d="M369.43-54.12c-2.65-19.93-6-44.72-7-91.34-1.71-73.95,4.06-112.34,9.14-146.2,4.78-31.82,8.56-57,4.66-104.2-3.44-41.71-10.85-74.93-17.38-104.24-2.42-10.85-4.75-21.32-6.73-31.59L359,106.84c6.77-23.58,12.23-48,14-90.75C374.34-17.26,372.17-33.52,369.43-54.12Z"/>
          <path class="cls-4" d="M412.66,596.57a351.37,351.37,0,0,0-.52-40.42C409,510,400.24,482.31,391,453c-3.93-12.42-8-25.26-11.7-39.75-34.39-134.59-8.94-297.73-5.93-315.89,8.1-48.79,17.9-73.78,26.55-95.82,9.2-23.46,17.15-43.72,21-88.57,3-34.39.82-53.42-16-201.58l-1.25-11.06C391.27-409.31,383.46-478.79,379.84-519c-3.46-38.51-3.53-54.19-2.35-74.79,8.31-146.31,9.31-161.13,9.41-162.19.6-5.87,1.18-11.38,1.75-16.71.69-6.51,1.39-13.09,2-19.23l-20,.22.29.67a88.16,88.16,0,0,1,6.52,19.61c2.66,12.5,4.91,36.18-6.19,97.33-4.23,23.31-7.86,38-10.52,48.76-1.21,4.92-2.26,9.16-3.06,13-7.05,33.89-.45,63.53,8.7,104.57,6.77,30.38,14.45,64.82,18.09,109,4.27,51.73,0,80.11-4.93,113-4.86,32.39-10.38,69.1-8.74,139.73,1,44.5,4.05,67.17,6.71,87.18,2.87,21.54,5.35,40.14,3.85,76.87-2.29,56-10.7,83.94-19.61,113.56-.8,2.66-1.6,5.33-2.4,8L363.08,483c3.26,8.76,6.39,15.71,9.45,22.51,6.48,14.39,12.6,28,17.88,54.63,6.73,34,8.71,72.24,5.94,114.16l18.72-.21c-.82-9.17-1.48-18.32-2-27.25C411.82,622.84,412.27,608.88,412.66,596.57ZM378-151.25c-.7-64.16,5.16-116.24,13.09-116.33s14.92,51.86,15.62,116-5.17,116.25-13.1,116.34S378.72-87.08,378-151.25Z"/>
          <path class="cls-5" d="M421.48,645.07c-1.2-22.32-.8-34.83-.42-46.92a387.9,387.9,0,0,0-.58-44.31c-3.43-50.39-13.17-81.16-22.59-110.91-3.81-12.05-7.76-24.52-11.26-38.23-13.71-53.65-19-118.62-15.86-193.12,2.44-57.07,9.18-99.81,10.51-107.79,7.59-45.75,16.48-68.42,25.08-90.34,9.54-24.33,18.56-47.31,22.85-96.8,3.32-38.24,1.11-57.71-16.07-209.27l-1.26-11.06c-26.38-232.69-28.08-251.5-26-287.53C393.94-733.6,395-750.16,395.16-752c.58-5.7,1.15-11.08,1.7-16.29.92-8.61,1.76-16.54,2.38-23.7l-8.63.09c-.57,6.14-1.27,12.72-2,19.23-.57,5.33-1.15,10.84-1.75,16.71-.1,1.06-1.1,15.88-9.41,162.19-1.18,20.6-1.11,36.28,2.35,74.79,3.62,40.17,11.43,109.65,23.86,219.3L405-288.6c16.8,148.16,19,167.19,16,201.58-3.89,44.85-11.84,65.11-21,88.57-8.65,22-18.45,47-26.55,95.82-3,18.16-28.46,181.3,5.93,315.89C383,427.75,387,440.59,391,453c9.27,29.3,18,57,21.17,103.14a351.37,351.37,0,0,1,.52,40.42c-.39,12.31-.84,26.27.45,50.27.48,8.93,1.14,18.08,2,27.25l8.54-.09C422.71,664.27,422,654.54,421.48,645.07Zm-26.32-1397a1.4,1.4,0,0,0,0,.17Z"/>
          <path class="cls-5" d="M361.76,131.58C370.67,102,379.08,74,381.37,18c1.5-36.73-1-55.33-3.85-76.87-2.66-20-5.68-42.68-6.71-87.18-1.64-70.63,3.88-107.34,8.74-139.73,4.94-32.87,9.2-61.25,4.93-113-3.64-44.18-11.32-78.62-18.09-109-9.15-41-15.75-70.68-8.7-104.57.8-3.82,1.85-8.06,3.06-13C363.41-636,367-650.74,371.27-674c11.1-61.15,8.85-84.83,6.19-97.33A88.16,88.16,0,0,0,370.94-791l-.29-.67-9.92.1a47.2,47.2,0,0,0,4.21,13.08A64.07,64.07,0,0,1,369.82-764c3.1,14.62.95,42.58-6.4,83.09-4.05,22.34-7.42,36-10.12,46.88-.82,3.3-1.56,6.32-2.23,9.21l1,93.18c2,10.27,4.31,20.74,6.73,31.59,6.53,29.31,13.94,62.53,17.38,104.24,3.9,47.24.12,72.38-4.66,104.2-5.08,33.86-10.85,72.25-9.14,146.2,1.08,46.62,4.39,71.41,7,91.34,2.74,20.6,4.91,36.86,3.54,70.21-1.74,42.71-7.2,67.17-14,90.75l.36,32.77C360.16,136.91,361,134.24,361.76,131.58Z"/>
        </g>
      </g>
    </g>
  </g>
  <g id="Layer_33" data-name="Layer 33">
    <g>
      <path class="cls-6" d="M364.54,11.41c.18-.52,0-1.68-.47-1.44l-.33,2Z"/>
      <path class="cls-6" d="M360.92,7.82a6.07,6.07,0,0,0-.83,4.49c.57-1.92.73-1.13,1.34-3.41.53-.24.94.62.86,1.35.18-.52.83.42,1.09-.84-.72-1.52-1.59-1.56-2.47-.27A2.45,2.45,0,0,1,360.92,7.82Z"/>
      <path class="cls-6" d="M309.37,5.85l.34.23A.55.55,0,0,0,309.37,5.85Z"/>
      <path class="cls-6" d="M277.45,5.47A.44.44,0,0,0,277.8,5C277.58,5.17,277.4,5.3,277.45,5.47Z"/>
      <path class="cls-6" d="M272,3.4c.12.06.22.09.32.13C272.16,3.35,272,3.25,272,3.4Z"/>
      <path class="cls-6" d="M309.37,5.85l-.86-.6C308.46,5.9,309,5.72,309.37,5.85Z"/>
      <path class="cls-6" d="M353.93,12.76a1.34,1.34,0,0,0,.45-.53,3.51,3.51,0,0,1-.43.22C353.94,12.56,353.94,12.65,353.93,12.76Z"/>
      <path class="cls-6" d="M323.4,3.93h.26c.07-.23.13-.51.2-.82Z"/>
      <path class="cls-6" d="M334.18,3.39c-.24-.07-.29,1.62-.37,2.36.12-.7.3-1,.51-1.17A6,6,0,0,0,334.18,3.39Z"/>
      <path class="cls-6" d="M351.36,6l.3-.24C351.58,5.82,351.45,5.89,351.36,6Z"/>
      <path class="cls-6" d="M315.67,3.74a3.87,3.87,0,0,0-.11-.6A1.73,1.73,0,0,0,315.67,3.74Z"/>
      <path class="cls-6" d="M14.14,23.06c0-.12,0-.19,0-.3C14.07,22.93,14.06,23.05,14.14,23.06Z"/>
      <path class="cls-6" d="M1.45,15l.17-.1c0-.32,0-.63,0-.94Z"/>
      <path class="cls-6" d="M262,1.46l0,0C262.25,1.29,262.1,1.33,262,1.46Z"/>
      <path class="cls-6" d="M170.48,4.72c1.07,1.48-1.64,2,0,3.61C170.28,7.67,171.8,5.67,170.48,4.72Z"/>
      <path class="cls-6" d="M353.64,12.55a1.61,1.61,0,0,1-.44,0A.53.53,0,0,0,353.64,12.55Z"/>
      <path class="cls-6" d="M170.44,8.33h0l.16.16Z"/>
      <path class="cls-6" d="M239,3a2.72,2.72,0,0,0,.25.73A2.05,2.05,0,0,0,239,3Z"/>
      <path class="cls-6" d="M256.17,5l-.43-.22A.83.83,0,0,0,256.17,5Z"/>
      <path class="cls-6" d="M230.18,5.55c-.24-.12-.32-.35-.63-.12a.82.82,0,0,0,.1.21C229.76,5.4,229.91,5.29,230.18,5.55Z"/>
      <path class="cls-6" d="M220.93,5.77a2.57,2.57,0,0,0,.18.33L221.4,6Z"/>
      <path class="cls-6" d="M42.22,21.63a7,7,0,0,1-.46-1.5C41.93,21.32,40.58,21.78,42.22,21.63Z"/>
      <path class="cls-6" d="M353.9,11.81c0,.43-.12.64-.26.74l.31-.1A1.41,1.41,0,0,0,353.9,11.81Z"/>
      <path class="cls-6" d="M230.09,18.86l-1.47-.21A4,4,0,0,0,230.09,18.86Z"/>
      <path class="cls-6" d="M108.54,19.93l-.34.21C108.33,20.17,108.45,20.12,108.54,19.93Z"/>
      <path class="cls-6" d="M224.27,19a2.76,2.76,0,0,0-.86-1.14,2.3,2.3,0,0,0-.16.43Z"/>
      <path class="cls-6" d="M41.75,20.11v0Z"/>
      <path class="cls-6" d="M32.17,24.33c1.4,0,.61-2.19.87-3.46,1.66-.67.81,1.61,1.41,2.73,1-.61,1.78-2.66,2.56-2.59.07.36.22.49.06.95,1.06-1.78,3.27-.16,4.5-2.4a1.68,1.68,0,0,1,.18.55,13.25,13.25,0,0,1-.26-3c.63-.05,1.13-1.42,1.4,0-.39,0-.4.55-.57,1l.64-.65c.64,2.07-.88.74-.85,2.28,1.27-.7,2.72-2.46,3.72-1.89.25,2-2.28.74-.93,2.52l-1.54-.75c1.23,3.19-.93-.2.22,3.21,2,.55,2.21-1.08,4.22-.53.42-1.15-.19-1.67.24-2.82,2.79-2.09,2.34,5.08,4.37,2.32.51-1.37.66-3.95,2.18-2.62l-.46,2.31c1.94.19,1-3.34,3.09-1.83-.34.91-1.5.8-1.2,1.06,1.35,1.79.9-1.32,1.91-1.35l.25,2c2.06-.37,4.3-1.89,6.57-2.31-.11.61-.49,1.25.06,1.87,2.86-1.09,6.15.11,9,1.26l1-1.79c.25,0,.48.79.22,1.14,1.09.64,0-1.12.53-1.82.62-.14.84,1,.46,1.53,1.88-1.54,5.37-3.34,7.43-1.5l-.38.53c1.58.68,1.68-3.64,3.17-2l-.27.31c3.42.69,7.15-1,9.8,1.6.44-2.55,3.39,1,3.53-2.49,2,1.71,1.44,2.36,4.2,3.48.74.14,1-2.24,1.94-2.63l.06,1.85,1.19-2,.7,2.19.83-.49a1.52,1.52,0,0,1-.69-1.35c1.3-.86,3.25,1.22,3.31,2.16l3.09-1.63c0,.75-.57,1-1,1.5,1.63-1.93.34,1.94,1.84.18-.22-.42.08-1.11.11-1.48.79,1.1,2.53,1.07,3.8.57l-.22,1.28c2.33.27,4.89-.72,7.49-.75-.95-.58-.78-2.79,0-3l.35,1.95c.47-1.22-.82-.72.16-2.22,1,.2.71,2.2.16,2.85l1.17-.7c.08.58-.19.89-.24,1.64.46-1.22,2.08,1.92,2.74-.21l.08.58c2.6,0,3.77-.74,5.89-.88,0-1.69.84-1.33,1.45-2.71,1.57.5,3.33,1.79,5.2,1.61,1.31-.87.36-1.44.93-2.46.13,1.54,2,1.35,1.06,2.48a14.61,14.61,0,0,0,5.7-1.68c-.33-.62-.68-.89-.51-1.42.51-.26,1.19.62,1.13,1.36l-.13.16c3.15-2.37,7.49,4.32,10,1.06l-.14.16,2.6-1.73c1.23.24-.7,1.17.22,2.11,2.8-2.63,4.52.27,6.83-1.49,1.92,4.49,6.44-.46,9,2.38l-.16-1.07c.61-1.06.78.59,1.25.83-.09-.83-.71-.94-.33-1.53,5.35-1.41,11.13,1.31,16.66,2.15,2,.25,1-5.54,3.61-3.05l-.67,2c4-2.47,8.31-.11,12.25-2.21-.23.46-.22,1.06-.61,1.06.87,1.42,3.11,0,3.1-1.17.62.11.16,1.05.56,1.64.86.83,2.08-1.88,2.56-.46.08.23-.23.47-.38.59.53-.71,2.56.12,2-1.53,1.51.76,2.84-.8,4,.16.74-1.88,2.58.83,2.77-1.8-.05,2.72,2.67,2.13,3.58.83-.3.83.84.84.5,2,1.07-.06,2.05-.59,1.83-2,2.06,3.21,3.94-2.7,5.15,1.44a45.21,45.21,0,0,1,9-3.28c0,2.71-3.17.34-3,3.18,2.71-1.18,4.24-3.54,7-2.94.71.35-.37,1.18-.6,1.65,2.71-1.18,5.28.13,7.68-1.4,0,.25-.26.53-.5.74.48-.09,1.12.38,1-.85l-.46.34c-.8-1.77,1.82-3.77,1.89-4.71-.74,3.54,2.42.83,1.22,5.31a1.82,1.82,0,0,0,.6-1.65c.48.23.64.71.18,1.65,1.7-.7,1.07-2,2.62-2,0,.59-.3.83-.45,1.53.76-1.17,1.53-2.36,2.85-1.88-.07.36.09.82-.3.82,2.25-.23,3.78-3.17,6.28-2.11-.68,2.61.86.84,1,3.07l1.31-.69L274,14c1.17,0,2.16-1.64,3.18-.93l-.84.94,2.17-.47-1.25-.82c1.15-1.18-.19-2.83,1.37-2.24-.31.23,1.17,0,1.8,1.31h0c.56-.72,1.14-1.49,2-1,.24.71-.12,2.48,0,3,.53-1.88,2.72-.58,3.4-2.59a4.12,4.12,0,0,0-.14,1.89l.45-1.53c.55.47.63.71.57,1.65,1.62.24-.58-2.83,1.37-1.65-.15.13-.07.35-.38.59,1.95.59,3.72-1.05,5.51-.34.58,2.24-1.54.59-.9,2.47,2.56-.46,5.25-2.81,7.75-2.34l-.47-.24c.27-3.18,1.88,1.54,3.1,0a2.6,2.6,0,0,0-.29,1.42c1.71.47,3.46-.86,6-1.92l-.3.82c1,.71,2.65.37,3.74.71.3-.82.92-.7.52-1.88,3.44,4.58,6.31-2.63,9.35,1.18-.35,0-.82.73-.54.73l2.5-.81c-.23-1.38-.35-.83-.9-1.9a2.13,2.13,0,0,1,1.62-1.5c-1.11.95.06,2.23.57,3-.09-.42.06-.89,0-1.32,1.37,2.43.16-2.8,2-1.17L327,9.8c.66-.38,1.26-1.36,2-1.17.34,1.6-.7.77-.72,2.09,1-.12,1.95-3.08,2.9-1.51-.42.46-1,.48-1.46.94,1,1.86,1.15,1.37,1.9,1.66l-.07,0,1.74.81-.45-.5c1.18-4.21,2.58-.82,4.24-3.6-1.61,2.63-.25,1.51-.33,3.33.45.49,1.13,1,.95,1.56.78-1.49,1.38,1.12,2.48-1,.06.59.87,0,.72,1.52,1-.49-.28-1-.2-1.75,1.58-2,3.87,2.34,6.16-.46,2-1.17,2.32-3.15,4.17-4.17.65.92-.47,2.14-.47,2.14a1.93,1.93,0,0,0,2.75,0c-.19.51,0,.94.33,1.59.77-.17.47-2.14,1.51-1.3a10.72,10.72,0,0,1-.72,2.37c.9-.56,1.77-1.67,2.7-2.22.27,1-.54,1.56-.85,2.23,1-.48,2.72-1,3-2.6l-.69-.56c.38-.09.23,1.38-.05,1.68-.88,1.28-1.32-.53-1.39-1.12l.67-.39c-.77-3.41-2.68.61-4,.44l.51-2.51-1.34,2.11c-.31-.65-.54-2,.12-2.42-1-1.22-.84.9-1.7-.46a.37.37,0,0,1,0-.43l-.93.77c.17-.53-.2-1.76.39-1.42-1.73-1.4-2.69,1.94-3.37.06l.14-.16c-2.34.9-.19,1.84-1.91,4L344.4,4.77l-.2,1.83a.75.75,0,0,1-.65-.92c-.88,1.27.17.79-.33,2C342,6,340,8.52,339.69,5.61c-.39,1.4,1.14,1-.08,2-.43-3.13-1.43.57-2.53-.84.29-1.63,1.32-.79.22-2.22-.58,2.76-2.09-.55-3,0,0,2.18-1.94,1-3.43,1.72.08-.74-2.87-1.14-4.3-1.9l0-.36c-.23,2.2-1.68,1.82-2.73,2.3a3.06,3.06,0,0,1,.75-2.45l-1,0a1.84,1.84,0,0,1-1.16,1.35l.21-1.65c-1.32.12-2.61,2-4.34.94-.06,1.53,1.45,4.24-.33,5.31-.08-.83-.18-2.25.28-2.6-.15.11-.53.7-.85.35l.69-1.41c-.79-.6-.38,1.18-1,1.06,0-1.18-.48-.83-.41-1.78.16-.11.55.48.78,0a3,3,0,0,1-1.86-1.77c.07.67,0,1.59-.48,1.76-1.31.12-.48-1.41-1.26-2-.3.83-1.17,0-1.15,1.77-.39,0-.47-.82-.63-1.3-.67.8-3.19.29-2.38,2.16l.18.12s-.07,0-.11.08h0c-2.2,1.81-4.68-.9-6.88-.09v-.6c-1.32.71-2.95.47-3.87,1.76-.39,0-.95-1.06-.8-1.77-1,.47-1.1,1.14-2.59.19,1-1-.37-.9,1-.78-1.33-.48-1.65-1.42-3,.23.45-1.53-1-1.89-1.65-1.42L293,4.9a3.59,3.59,0,0,1-1.95,0l.3-2c-2.75-2.37-4.78,4.24-6.92.22-.68,1.41,1.49,1,.89,2.6-1.25-.24-2.61-3.08-3-3.08-1.73-1.07-1.53,2.95-3.32,2.24.24.7.5,2.6-.82,3.3-1.24-.24-1.59-2.95-.82-3.54a.35.35,0,0,1,.44.39c.4-.26.92-.58.41-1.34l-.15.71c-.63-.71-2.34-.59-2-1.77-.92.7-.38,1.18.33,1.53-1.62-1-2.49,0-4.15-.63.27.38.53,1.21.27,1.21-2.42-.83-1,1.38-2.65,1.72-.95-1.06.28-2.59-1.34-1.65-1-.71-.26-1.88.13-2.47-1.47,1.4-2.81-.84-3.67-1.08l.77-.59a1.8,1.8,0,0,1-1.24.36L265,2.44c-.47-.24-.86-.23-.86-.83-.46,1,.42,2.37-.5,3.66-.63-.71-1.86.82-2.11-1.07,1.95.6-.26-1.89,1.37-2.23a1,1,0,0,1-1.16,0,.45.45,0,0,1,.18-.5c-1.89-1.65-.81,2.15-2.73,2.15.22-1.07-.49-2-.8-1.77.78,0,.41,1.77-.28,2.6-1.25-.81-1.33.64-2,.56l.74.37c-.23,1.07-.84,1-1.7,1.3-.09-.83.77-.59.46-.94-.91,1.89-2.2-1.89-3.5-.6-.63-.71-.11-2-.66-2.48-1.46,1.41-1.64-1.42-3.18-.25.48,1.42.55,1.07-.52,2.49l2.55-1.06-1.61,2.11c.78,0,1.62-.93,2.09-.7-.76,1.19-.68.83-.29,2-1.11-2.13-2.08,1.3-3.34-.13l0-3.54c-1.88-1.54-3.24,1.89-5.66,1l.79.6c-.3,1.41-1.48.23-2.25.82a4,4,0,0,0-.79-2.34c.06.88-1.76,0-1.93,2.33l-1.1-1.54c-1.95-.59-2.14,3.43-4,3.06.53-1.3-.33-2.12.89-3.06-.62,0-1.18-.21-1.17.61-.38-.73-1.69,1.64-2.29.53-.25.52-.31,1.76-1,1.68a1.35,1.35,0,0,1,0-.58c0,.58-1.07.82-.44,2.11-2-3.65-5.34.39-7.08-2.75a21.81,21.81,0,0,1-4.21,1c.08-.36,0-.59.23-.47-1.72-1.07-1,3.42-2.93,2.23-1-1.89,1-1.05.37-1.76-.35-3.9-2.32.58-3.67-1.67l.31-.23c-1-1.31-2.4,1.53-4,1.28a1.51,1.51,0,0,0,0-.59c-1.07,2-3.16,2.72-4.71,3.31.45-1.54.69-.83.36-2.37-.69.24.26,2.48-1.13,3-.47-.83-1.5-1.53-1.67-3.18l1.32-.12c-.72-2.13-1.7.11-2.41-.25l.07-.93c-2,.34-2,2.7-4.17,2.58l.24.7c-1.13,2.36-1-1.29-2.17.47l-.41-2.36c-.77.59-2.7,2.35-4.09,2.83.76-1.77,2.38-2.71,3.38-3.77-.78,0-2.64.23-3,1.41.31-.24.69-.83,1-.47-.91,1.88-2.15,2.83-3.7,2.82.18-4.6-4.06-1.07-5.26-4.61-2.7,1.76-5.45-.6-8.63-.26,1.21,3.55-.93.12-.66,3.78-.73.26-1,.2-1.09,0l-2.3-2.14c-.56-1,.69-.82.6-1.64-1.63-.25-.71-1.54-1.81-2.49.25,1.3-.53,1.89-1.47,1.41l1.35,1.66c-2.23,2-2-3-4.29-1l.7-1.17c-1.16.71-4.33.07-5.42,3-.22-.42-.52-1.41,0-1.69-2.82-.38-6.18,3.27-8.41,1.51l.2-.9c-.52.27-.88,1.7-1.56.81,0-.37.19-.9-.05-.94-.27.31-1.36,1.6-2.06,1.09l.57-1C143.71,3.71,142.32,7.37,140,8c0-2.65-2.23-3.46-3.32-3.86l0-.37c-3.2-.26-5.37,2.3-8.31,3.41-1.89-2.83-6.24-1.07-9.22-2.61.46.47,0,2.06-.55,2.34-.7-.52-1.87,1.87-1.82-.55l.25,0c-.57-2.37-2-1.7-3.09-1.74l-.12,3.17c-3-4.55-7.57,1.86-9.25-2.23-.68.8-1.55.81-2.23,1.62V5.56a11.1,11.1,0,0,0-5.32-.12l.47-1.23C96.2,4.13,96,9.15,94.71,9.27l-.43-2.52c-2.37.09-4.81-2.09-7.09.27,0-.38.08-1.11.46-1.22-1.11,0-4.34-1.62-3.86,1.85-.07-2.27-2.44-.17-3.69.86l.16-1.68c-1,2.16-1.05,2.75-2.54,3.37-.37-.21-.35-1.33.14-.91-1.21-.85-.89,1.6-2.35.74L76,9c-1.22-.1-1.12.47-1.76,1.73-.75.69-2.33-.37-2.54-1.88-.15.93-.79,2.17-1.52,1.75a1.34,1.34,0,0,1,.27-1.1c-2.06-1.09-3,2-4.43.4a1.85,1.85,0,0,0-.26-1,8.51,8.51,0,0,1,2.81.19c0-1.54-1.35-1.79-.35-3.94-1,1.19-2.77,3.75-4.07,3.06A3,3,0,0,1,64,7.64l.13-.18c-.3-.15-.56,0-.8.27a2.15,2.15,0,0,0-1.07-.44c-.18-1.27-1.52-.66-2.17-.7.09,1.68-.78,1.43.06,2.8-.11-.12.12-.2.55-.28.1,0,.21-.08.27-.18a.83.83,0,0,1,0,.15c.43-.06,1-.11,1.63-.15-.5.87-1,1.6-1.77.68-.31,1.09-.66,2.21-.85,2.74-1-2.33-2.7-3.57-3-5-2,1-4.69.73-5.88,3.92-.56.42-.67-.89-.89-1.38.32-.33.71-.29.87-.75-1.11.84-3.35.39-3.57,2.61-1.46-1,.76-2.05-1.2-1.65l.25-.68C42.59,6,40.38,15.2,36,10.75c.3.27.46.4.52.77-4.93-1.9-10,2.1-14.92-1-1.38-.61-1.5.81-2.31,1.9l-.34-1.81-1.38,2.13c-2,1.57-3.62-4.37-6.12-1.42l.36,1.21c-.93-.21-2.91.78-2.78-.62-.09.22-.28,1.27-.65.65l0-.95L6.09,13.31c-1.77-.64.19-3.77-2.38-3.89-.94.38-2.65,2.82-2.28,3.44a1.52,1.52,0,0,1,1.05,1.52l-.86.51c-.1,2.8-.71,5.67,1.48,7.58l1.45-1.74.51,1.34-1.25.11c.74,1.26,1.16.12,1.65-.66A2.62,2.62,0,0,0,6.12,23l1.4-2.7c.2,1.09-.61,2.18.39,2.76.66-1.25-.71-2.43.4-3.27C9.06,21,8.87,22.08,9.68,21a1.52,1.52,0,0,1-.36,1.5c.73-.88,2-.41,2.32-1.9.78,1.55,2.51-.46,2.49,2.18.22-.64,1.27-2.1,1.95-2.23-1.18,3.2,2.56.13,2.31,3.53.86-2.86,3.31-1.33,4.92-2.95-.09.23-.26.69-.41.55.93.21,1.22,1.07,1.82,1.59.07-2.35,1.49-2.92,2.23-4.39,1.19,2.24-.62,2.78-.22,4.95-.1-1.91,1.92-1.95,1.5-3.53.9,1.39.76.67,1.25,2.61.09-2.94.8-.52,1.47-2.34,1.29,1.42.39,2.75,1.74,1.82C33.37,23.26,32.17,24.33,32.17,24.33Zm32.57-5.81v0l-.67.11Zm2.75-.08a5.67,5.67,0,0,0-1.19,0c-.11-.58,0-1.18.26-1.16C66.42,17.63,67.07,18,67.49,18.44ZM61.42,6.88c.43-.25.58.08.65.42a4.39,4.39,0,0,0-.75.22,1.6,1.6,0,0,0,0,.21A3.72,3.72,0,0,1,61.42,6.88Z"/>
      <path class="cls-6" d="M60.69,9.11c-.06,0-.1.11-.18.13a3,3,0,0,0,.27.37c0-.18.1-.36.14-.53Z"/>
      <path class="cls-6" d="M309.77,6.12l-.06,0a.68.68,0,0,1,.13.24C309.8,6.24,309.8,6.19,309.77,6.12Z"/>
      <polygon class="cls-6" points="105.5 20.83 105.48 20.4 105.25 20.78 105.5 20.83"/>
      <path class="cls-6" d="M325,11.57a.87.87,0,0,0,.21.43A1.38,1.38,0,0,0,325,11.57Z"/>
      <path class="cls-6" d="M331.57,11.81l.94.58A3.2,3.2,0,0,0,331.57,11.81Z"/>
      <path class="cls-6" d="M336.61,12.53a6.1,6.1,0,0,0,.09-.72h0Z"/>
      <path class="cls-6" d="M256.76,16.27a.48.48,0,0,0-.19.09C256.12,16.69,256.43,16.56,256.76,16.27Z"/>
      <path class="cls-6" d="M280.45,11.81a4.23,4.23,0,0,1-.75.81C280.13,12.74,280.46,12.77,280.45,11.81Z"/>
      <path class="cls-6" d="M230.26,18.89v0a1,1,0,0,1-.17,0Z"/>
      <path class="cls-6" d="M278.6,12.62a.8.8,0,0,0,1.1,0C279.35,12.52,278.94,12.36,278.6,12.62Z"/>
      <path class="cls-6" d="M358.41,12.82l.24.06a1,1,0,0,1,0-.27Z"/>
      <path class="cls-6" d="M358.68,12.61l.26-.2C358.82,12.41,358.71,12.42,358.68,12.61Z"/>
      <path class="cls-6" d="M359.5,12l-.56.44C359.14,12.41,359.38,12.45,359.5,12Z"/>
      <path class="cls-6" d="M351.74,12.18l-.06.62A2.27,2.27,0,0,0,351.74,12.18Z"/>
      <path class="cls-6" d="M349.72,12.41c.49.12,1.24,1.27,1.91.88l.05-.49C351.38,13.71,350.16,11.37,349.72,12.41Z"/>
      <path class="cls-6" d="M341.12,5l1.7.46c-.31-.65-.71-1.52.05-1.69C340.69,1.9,343.34,5.25,341.12,5Z"/>
      <path class="cls-6" d="M335.85,4.2c.9-.32,0-.94,0-1.31C335.29,3.5,335.15,3.65,335.85,4.2Z"/>
      <path class="cls-6" d="M297.89,5,298,3.5C297.25,3.74,298,4.09,297.89,5Z"/>
      <polygon class="cls-6" points="290.81 13.13 291.51 14.06 291.81 12.65 290.81 13.13"/>
      <polygon class="cls-6" points="286.28 2.29 286.58 2.06 285.42 2.65 286.28 2.29"/>
      <path class="cls-6" d="M222.54,4.24l.26,1.89C223.26,5.78,223.32,3.65,222.54,4.24Z"/>
      <path class="cls-6" d="M195.06,6.77c-.32-.94-1.1-1.53-1.56-.59C194.12,6.3,194.76,7,195.06,6.77Z"/>
      <polygon class="cls-6" points="112.46 5.51 113 4.87 111.97 5.42 112.46 5.51"/>
    </g>
  </g>
</svg>
