<svg xmlns="http://www.w3.org/2000/svg" xmlns:xlink="http://www.w3.org/1999/xlink" width="660" height="720" viewBox="0 0 660 720">
  <defs>
    <style>
      .cls-1 {
        fill: #71a5a2;
      }

      .cls-2 {
        fill: #83c6c4;
      }

      .cls-3 {
        fill: #e2db54;
      }

      .cls-4 {
        fill: #2b2b29;
      }

      .cls-5 {
        fill: #333;
        opacity: 0.37;
      }

      .cls-6 {
        fill: #3a3e47;
      }

      .cls-7 {
        fill: #9eefef;
      }

      .cls-8 {
        filter: url(#AI_Shadow_2);
      }

      .cls-9 {
        fill: #774318;
      }

      .cls-10 {
        fill: #603813;
      }

      .cls-11 {
        fill: #cabca6;
      }
    </style>
    <filter id="AI_Shadow_2" x="-15%" y="-15%" width="140%" height="130%" name="AI_Shadow_2">
      <feGaussianBlur result="blur" stdDeviation="6" in="SourceAlpha"/>
      <feOffset result="offsetBlurredAlpha" dx="8" dy="8" in="blur"/>
      <feMerge>
        <feMergeNode in="offsetBlurredAlpha"/>
        <feMergeNode in="SourceGraphic"/>
      </feMerge>
    </filter>
  </defs>
  <g id="gameoverbees">
    <g id="dropdown">
      <g>
        <g>
          <path d="M446.6,482.42a49.23,49.23,0,0,0-23.78-4.95,43.8,43.8,0,0,0-12.69,2.41,33.44,33.44,0,0,0-12.25,7.48,28,28,0,0,0-4.75,6.14c-.57,1.12-1.22,2.22-1.69,3.38s-.86,2.34-1.23,3.52a33.09,33.09,0,0,0-.65,13.93,38.06,38.06,0,0,0,11.84,21.76c.33-2.11.43-4.14.55-6.08s.22-3.82.4-5.65a82.34,82.34,0,0,1,1.32-10.18,35.81,35.81,0,0,1,2.64-8.19c.34-.55.63-1.11.91-1.67s.7-1,1-1.54a9.08,9.08,0,0,1,1.05-1.36,9.82,9.82,0,0,1,1.17-1.26c3.32-3.31,8.87-6.26,15.21-8.92S439.12,486.16,446.6,482.42Z"/>
          <path d="M404.87,463.45a49.21,49.21,0,0,0-23.77-4.95,44.2,44.2,0,0,0-12.7,2.41,33.3,33.3,0,0,0-12.24,7.49,27.16,27.16,0,0,0-4.75,6.13c-.58,1.13-1.23,2.22-1.7,3.38s-.85,2.35-1.22,3.53a32.89,32.89,0,0,0-.65,13.92,38,38,0,0,0,11.84,21.77c.32-2.11.43-4.15.55-6.08s.21-3.83.4-5.66A81.92,81.92,0,0,1,362,495.22a35.75,35.75,0,0,1,2.63-8.2,18.21,18.21,0,0,0,.91-1.67c.32-.54.7-1,1-1.53a9.38,9.38,0,0,1,1.05-1.36,8.7,8.7,0,0,1,1.18-1.26c3.31-3.31,8.86-6.26,15.2-8.92S397.39,467.19,404.87,463.45Z"/>
          <path d="M287.15,522.9c9.52-2.47,18.29-9.89,25.05-19.22a76.1,76.1,0,0,0,13.16-32.89c1.69-11.79.3-23.88-4.36-33.15s-12-15.94-21.26-17a143.82,143.82,0,0,1,4.74,26.65,112.84,112.84,0,0,1-.91,23.57,154.62,154.62,0,0,1-5.63,24.26C295.28,503.63,291.72,512.27,287.15,522.9Z"/>
          <g>
            <path class="cls-1" d="M216.71,697.37a30,30,0,0,0,8,11.19c21.78,19,67.29,11.32,97.2-27.88,50-65.55,51.33-79.23,67.65-102.12-17.32,14.21-35,23.94-91,74.19C261.21,686.34,235.77,714.29,216.71,697.37Z"/>
            <path class="cls-2" d="M247.94,610.46c-27,31-40.24,65.36-31.23,86.91,19.06,16.92,44.5-11,81.91-44.62,55.94-50.25,73.66-60,91-74.19l.24-.34C368.05,559.25,280.3,573.3,247.94,610.46Z"/>
          </g>
          <g>
            <path class="cls-3" d="M353.67,654.45c65,29.94,147.29,7.09,167.75-27.79-47.16-27.64-39.95-37.17-77.87-85.18a188.35,188.35,0,0,1-42.17,76.38A168.63,168.63,0,0,1,353.67,654.45Z"/>
            <path class="cls-3" d="M302.68,619.86a230.07,230.07,0,0,0,19.66,15.76C343.2,628.93,363.1,616,379.61,598c21.3-23.3,35-52.8,39.89-84.87a109.92,109.92,0,0,0-39.91-27.92c-3.67,37.21-17.57,72.18-40.54,100.77A170.86,170.86,0,0,1,302.68,619.86Z"/>
            <path class="cls-3" d="M323.7,557a162.49,162.49,0,0,0,27-79.41,116.29,116.29,0,0,0-52.6,5.47c.8.74,1.6,1.48,2.38,2.26C319.81,504.71,327.5,531.41,323.7,557Z"/>
            <path class="cls-4" d="M322.34,635.62c6.12,4.41,12.58,8.64,19.37,12.62,3.9,2.29,7.9,4.34,12,6.21a168.63,168.63,0,0,0,47.71-36.59,188.35,188.35,0,0,0,42.17-76.38c-6.31-8-13.86-17.05-23.13-27.43-.3-.34-.61-.64-.92-1-4.86,32.07-18.59,61.57-39.89,84.87C363.1,616,343.2,628.93,322.34,635.62Z"/>
            <path class="cls-4" d="M298.56,606.75c-1.58,1.57-3.21,3-4.87,4.49,2.87,2.9,5.84,5.79,9,8.62a170.86,170.86,0,0,0,36.37-33.93c23-28.59,36.87-63.56,40.54-100.77a114,114,0,0,0-28.92-7.53,162.49,162.49,0,0,1-27,79.41A88.63,88.63,0,0,1,298.56,606.75Z"/>
            <path class="cls-3" d="M260.75,510.57C247,534,256.43,567.12,281.91,598.21a140.36,140.36,0,0,0,34.14-30.75q4.05-5.06,7.65-10.42c3.8-25.63-3.89-52.33-23.25-71.68-.78-.78-1.58-1.52-2.38-2.26C281.22,489.05,267.68,498.77,260.75,510.57Z"/>
            <path class="cls-5" d="M260.75,510.57C247,534,256.43,567.12,281.91,598.21a140.36,140.36,0,0,0,34.14-30.75q4.05-5.06,7.65-10.42c3.8-25.63-3.89-52.33-23.25-71.68-.78-.78-1.58-1.52-2.38-2.26C281.22,489.05,267.68,498.77,260.75,510.57Z"/>
            <path class="cls-4" d="M323.7,557q-3.61,5.36-7.65,10.42a140.36,140.36,0,0,1-34.14,30.75c3.6,4.4,7.56,8.75,11.78,13,1.66-1.44,3.29-2.92,4.87-4.49A88.63,88.63,0,0,0,323.7,557Z"/>
            <path class="cls-5" d="M323.7,557q-3.61,5.36-7.65,10.42a140.36,140.36,0,0,1-34.14,30.75c3.6,4.4,7.56,8.75,11.78,13,1.66-1.44,3.29-2.92,4.87-4.49A88.63,88.63,0,0,0,323.7,557Z"/>
          </g>
          <path d="M166.17,585.3c-6.8,3.36-13.09,10.9-17.95,19.86a87.27,87.27,0,0,0-9.51,30.18c-1.25,10.44-.3,20.73,3,28.17s8.5,12.28,15.11,12a138,138,0,0,1-3.29-22.49,121.72,121.72,0,0,1,.74-20.54,174.3,174.3,0,0,1,4.11-21.73C160.3,603,162.87,595.1,166.17,585.3Z"/>
          <ellipse class="cls-3" cx="224.59" cy="549.85" rx="83.15" ry="84.49" transform="translate(-323.02 319.85) rotate(-45)"/>
          <ellipse class="cls-6" cx="240.98" cy="496.89" rx="13.92" ry="16.32" transform="translate(-307.08 429.03) rotate(-57.07)"/>
          <path class="cls-6" d="M131.74,550.61c6.41,7.32,16.47,9.75,26.76,7.38-2.48,11.08-.31,22.82,7.22,31.43C179.2,604.82,204,604,219.77,586.7c15.55-17,14.9-41.6-.17-54.41-8.44-7.18-19.65-9.08-30.17-6.45,1.91-10.12-.76-19.84-8-26-11.55-9.82-30.81-6.94-43.81,6.06C124.46,519.11,121.48,538.89,131.74,550.61Z"/>
          <ellipse class="cls-7" cx="191.4" cy="562.17" rx="29.51" ry="26.82" transform="translate(-341.46 299.99) rotate(-45)"/>
          <ellipse class="cls-7" cx="154.41" cy="525.19" rx="26.55" ry="22.8" transform="translate(-326.14 263.01) rotate(-45)"/>
          <path d="M359.08,434.18c8.08,6.51,12.71,16.39,14.29,26.73a53.77,53.77,0,0,1-5,31.25,50.37,50.37,0,0,1-22.51,22.9c-9.63,4.68-20.65,6.18-30.43,2.47,8.11-6.32,14.3-11.91,19.33-17.8a88.67,88.67,0,0,0,12-18.24,111.35,111.35,0,0,0,7.72-21.06C356.57,452.69,357.77,444.43,359.08,434.18Z"/>
          <path d="M200,607.4c3.06,6.94,10.33,13.54,19.06,18.78A87.19,87.19,0,0,0,248.77,637c10.37,1.7,20.69,1.19,28.27-1.77s12.64-8,12.67-14.58A138,138,0,0,1,267.1,623a120.63,120.63,0,0,1-20.49-1.62,174.78,174.78,0,0,1-21.54-5C217.42,614,209.6,611.12,200,607.4Z"/>
          <path d="M465.81,481.2a65.91,65.91,0,0,1,6.53,31.91,59.12,59.12,0,0,1-3.3,17,44.68,44.68,0,0,1-10.1,16.38,36.56,36.56,0,0,1-8.25,6.34c-1.51.77-3,1.64-4.54,2.26s-3.15,1.13-4.74,1.63a44.31,44.31,0,0,1-18.67.8,51,51,0,0,1-29.13-16c2.83-.43,5.56-.56,8.16-.71s5.13-.27,7.59-.5A110.89,110.89,0,0,0,423,538.6a47.82,47.82,0,0,0,11-3.49c.74-.46,1.49-.83,2.24-1.21s1.37-.94,2.07-1.36a12,12,0,0,0,1.82-1.4,12.51,12.51,0,0,0,1.7-1.57c4.46-4.43,8.44-11.86,12-20.34S460.76,491.22,465.81,481.2Z"/>
          <path d="M431.53,449.58a65.94,65.94,0,0,1,12.89,29.91,59.23,59.23,0,0,1,.25,17.32,44.72,44.72,0,0,1-6.55,18.1,37.05,37.05,0,0,1-6.78,7.89c-1.33,1.06-2.59,2.21-4,3.13s-2.85,1.76-4.3,2.57a44.28,44.28,0,0,1-18.12,4.59,51,51,0,0,1-31.78-9.71c2.68-1,5.33-1.68,7.84-2.36s5-1.31,7.33-2a110.24,110.24,0,0,0,13-4.47,47.88,47.88,0,0,0,10.06-5.67c.63-.59,1.29-1.12,1.95-1.64s1.14-1.19,1.74-1.75a25.82,25.82,0,0,0,2.84-3.63c3.46-5.25,5.85-13.33,7.64-22.37S428.62,460.42,431.53,449.58Z"/>
          <g>
            <path class="cls-2" d="M507.32,594.42a38.24,38.24,0,0,1,7.56,12c9.52,25.51-16.17,49.39-66,43.85-83.34-9.27-97.06-16.94-125.7-20.89,20.68-2.07,37.19-7.17,108.15-11.16C478.77,615.57,516,616.93,507.32,594.42Z"/>
            <path class="cls-7" d="M411,560.06c40.77,2.27,79.22,15.3,96.37,34.36,8.64,22.51-28.55,21.15-76,23.81-71,4-87.47,9.09-108.15,11.16l-.41-.06C313.24,603.83,362.11,557.33,411,560.06Z"/>
          </g>
        </g>
        <g>
          <path class="cls-6" d="M212,551.93l-18.4,2.72-.9-14.84a3.49,3.49,0,0,0-7,.42l.94,15.45L168,558.44a3.49,3.49,0,0,0,1,6.9l18-2.67,1.28,21.07A3.49,3.49,0,0,0,192,587a3.45,3.45,0,0,0,2.22-1,3.5,3.5,0,0,0,1.05-2.71L194,561.64l19-2.81a3.54,3.54,0,0,0,1.92-1,3.49,3.49,0,0,0-2.94-6Z"/>
          <path class="cls-6" d="M135.83,534.23l16.42-3.32,1.5,13.31a3.14,3.14,0,1,0,6.24-.71l-1.57-13.84,16.64-3.36a3.14,3.14,0,1,0-1.24-6.16l-16.11,3.25-2.14-18.89a3.14,3.14,0,0,0-5.42-1.78,3.17,3.17,0,0,0-.82,2.49l2.21,19.43-16.95,3.42a3.17,3.17,0,0,0-1.69.95,3.14,3.14,0,0,0,2.93,5.21Z"/>
        </g>
      </g>
      <g>
        <g class="cls-8">
          <path class="cls-9" d="M323.43,165.81c-8.75,5.14-19.64,11.55-40.08,12.76-32.44,1.94-49.25-11.13-64.08-22.65-13.93-10.82-24.93-19.37-45.67-12.21C155.3,150,140.69,164.9,127.8,178c-4.76,4.86-9.36,9.54-13.88,13.49H394c-10.31-14.83-21-26.92-39.73-31.59C339.62,156.29,332.48,160.49,323.43,165.81Z"/>
          <path class="cls-9" d="M17.52,95.49c.8.32,8.05,3,70.46,23.35,15.79,5.15,24,2,126.22-48.39l4.85-2.4c66.55-32.82,75.1-37,91.85-29.15,21.68,10.2,31.72,29.76,42.34,50.46,9.57,18.66,19.47,38,39.5,55,3.49,3,22.21,18.19,47.22,24.65,32.65,8.43,61.17-1.35,84.77-29.07,6-7.08,11.51-15.13,16.81-22.91,13.1-19.21,26.64-39.07,48.75-45.15,8.78-2.42,14-1.35,19.43-.22a44.11,44.11,0,0,0,20.58.19A78,78,0,0,0,643,68.05V18.9c0-7.71-2.29-14.29-5.42-16.55-4.81,5.3-9.87,11.45-15.32,18.08-5.71,7-11.62,14.15-18.09,21.37-13.82,15.43-50.51,56.42-93.06,68C462.66,123,424,92.68,400.87,74.58c-31.76-24.86-48.51-51-61.4-73.07H226.16a333.63,333.63,0,0,1-63,49.81c-27.18,16.82-58,35.89-98,35.89h-.26C43.16,87.17,21.43,81.66,0,70.8V86c3.14,1.47,6.61,3.43,10.38,5.56C12.67,92.82,15,94.15,17.52,95.49Z"/>
          <path class="cls-9" d="M65.18,69.43c38.93,0,67.87-17.92,95.86-35.25A338.67,338.67,0,0,0,205.6,1.51H86c20.46,4.63,34.81,15.38,34.81,27.9,0,16.74-25.66,30.31-57.3,30.31S6.17,46.15,6.17,29.41C6.17,16.89,20.51,6.14,41,1.51H7.8C3.51,1.51,0,9.34,0,18.9V52.55C21.42,63.72,43.17,69.38,64.92,69.43Z"/>
          <path class="cls-9" d="M510.15,92.13c41.17-11.2,77-51.18,90.44-66.23,6.35-7.08,12.2-14.2,17.85-21.08l2.72-3.31H534.45c12.81,7.87,20.79,18.91,20.79,31.13,0,23.89-30.45,43.26-68,43.26s-68-19.37-68-43.26c0-12.22,8-23.26,20.79-31.13H352.91C364.33,19.37,379.47,39,403.51,57.8,426,75.38,463.55,104.8,510.15,92.13Z"/>
          <path class="cls-9" d="M48.51,164.15c-17.73-16.45-30-21.64-36.4-15.42-2.94,2.85-4.68,6.48-6.36,10-1.59,3.33-3.34,7-5.75,8.58v6.82c0,9.57,3.51,17.39,7.8,17.39H73.05c-1.26-1.48-2.58-3.12-4-4.92A190,190,0,0,0,48.51,164.15Z"/>
          <path class="cls-9" d="M595.9,152.06c-10.32,9.27-15.52,20.24-21.55,32.94-1,2.11-2,4.29-3.12,6.51h64c4.29,0,7.8-7.82,7.8-17.39V143.68C625.58,136.78,609.8,139.56,595.9,152.06Z"/>
          <path class="cls-9" d="M609,89.41c-5.25-1.08-9.79-2-17.72.16C571,95.14,558.82,113,545.93,131.93c-5.46,8-11.11,16.3-17.48,23.79-59.19,69.54-130.61,12.07-138.56,5.29-21.36-18.22-32.27-39.49-41.9-58.25-10.24-20-19.09-37.22-38.74-46.46-15.06-7.09-23.42-3-88.47,29.12l-4.86,2.39c-48.15,23.74-78.65,38.64-96.29,45.36-16.9,6.44-23.78,6.22-32.81,3.27-64.12-20.91-70.61-23.35-71.08-23.6-2.57-1.39-5-2.75-7.32-4.07-2.85-1.61-5.73-3.23-8.42-4.58v42.17l.3-.62c1.86-3.9,4.42-9.24,8.63-13.32,5.49-5.32,15.89-9.52,42.65,15.31a199.9,199.9,0,0,1,21.33,23.33c2.15,2.68,4,5,5.68,6.76,14.83,15.67,27.86,2.39,45.9-16,13.36-13.6,28.49-29,47.89-35.71,22.7-7.84,35.13,1.82,49.52,13,14.18,11,30.25,23.49,61.23,21.66,19.52-1.16,29.48-7,38.27-12.18,9.46-5.57,17.63-10.37,33.73-6.36,24.53,6.11,36.76,24.51,49.7,44,1.17,1.75,2.33,3.51,3.51,5.26H559c3.86-6.68,6.92-13.13,9.92-19.44,6.34-13.36,12.33-26,24-36.51,15-13.44,31.72-16.73,50.09-9.93V86.09a80.92,80.92,0,0,1-12,3.51A47.81,47.81,0,0,1,609,89.41Zm-328.11,56c-28.14,0-50.95-13.58-50.95-30.32s22.81-30.32,50.95-30.32,51,13.57,51,30.32S309,145.43,280.88,145.43Z"/>
          <path class="cls-9" d="M17.62,95.55l-.08,0Z"/>
          <path class="cls-10" d="M400.87,74.58C424,92.68,462.66,123,511.11,109.79c42.55-11.57,79.24-52.56,93.06-68,6.47-7.22,12.38-14.41,18.09-21.37,5.45-6.63,10.51-12.78,15.32-18.08a4.06,4.06,0,0,0-2.38-.84h-14l-2.72,3.31c-5.65,6.88-11.5,14-17.85,21.08-13.47,15.05-49.27,55-90.44,66.23C463.55,104.8,426,75.38,403.51,57.8c-24-18.82-39.18-38.43-50.6-56.29H339.47C352.36,23.56,369.11,49.72,400.87,74.58Z"/>
          <path class="cls-10" d="M630.3,71.89a44.11,44.11,0,0,1-20.58-.19c-5.47-1.13-10.65-2.2-19.43.22-22.11,6.08-35.65,25.94-48.75,45.15-5.3,7.78-10.79,15.83-16.81,22.91-23.6,27.72-52.12,37.5-84.77,29.07-25-6.46-43.73-21.67-47.22-24.65-20-17.09-29.93-36.38-39.5-55C342.62,68.66,332.58,49.1,310.9,38.9c-16.75-7.89-25.3-3.67-91.85,29.15l-4.85,2.4C112,120.82,103.77,124,88,118.84c-62.41-20.35-69.66-23-70.46-23.35-2.5-1.34-4.85-2.67-7.14-4C6.61,89.4,3.14,87.44,0,86v18.22c2.69,1.35,5.57,3,8.42,4.58,2.34,1.32,4.75,2.68,7.32,4.07.47.25,7,2.69,71.08,23.6,9,2.95,15.91,3.17,32.81-3.27,17.64-6.72,48.14-21.62,96.29-45.36l4.86-2.39c65-32.09,73.41-36.21,88.47-29.12,19.65,9.24,28.5,26.49,38.74,46.46,9.63,18.76,20.54,40,41.9,58.25,7.95,6.78,79.37,64.25,138.56-5.29,6.37-7.49,12-15.77,17.48-23.79C558.82,113,571,95.14,591.27,89.57c7.93-2.18,12.47-1.24,17.72-.16a47.81,47.81,0,0,0,22,.19,80.92,80.92,0,0,0,12-3.51v-18A78,78,0,0,1,630.3,71.89ZM17.54,95.51l.08,0Z"/>
          <path class="cls-10" d="M592.91,135.56c-11.71,10.53-17.7,23.15-24,36.51-3,6.31-6.06,12.76-9.92,19.44h12.28c1.08-2.22,2.12-4.4,3.12-6.51,6-12.7,11.23-23.67,21.55-32.94,13.9-12.5,29.68-15.28,47.1-8.38V125.63C624.63,118.83,607.86,122.12,592.91,135.56Z"/>
          <path class="cls-10" d="M65.17,87.21c40,0,70.83-19.07,98-35.89a333.63,333.63,0,0,0,63-49.81H205.6A338.67,338.67,0,0,1,161,34.18c-28,17.33-56.93,35.25-95.86,35.25h-.26C43.17,69.38,21.42,63.72,0,52.55V70.8C21.43,81.66,43.16,87.17,64.91,87.21Z"/>
          <path class="cls-10" d="M404.83,186.25c-12.94-19.49-25.17-37.89-49.7-44-16.1-4-24.27.79-33.73,6.36-8.79,5.17-18.75,11-38.27,12.18-31,1.83-47-10.65-61.23-21.66-14.39-11.18-26.82-20.84-49.52-13-19.4,6.69-34.53,22.11-47.89,35.71-18,18.37-31.07,31.65-45.9,16-1.67-1.77-3.53-4.08-5.68-6.76a199.9,199.9,0,0,0-21.33-23.33C24.82,122.9,14.42,127.1,8.93,132.42,4.72,136.5,2.16,141.84.3,145.74l-.3.62V167.3c2.41-1.6,4.16-5.25,5.75-8.58,1.68-3.51,3.42-7.14,6.36-10,6.42-6.22,18.67-1,36.4,15.42A190,190,0,0,1,69,186.59c1.45,1.8,2.77,3.44,4,4.92h40.87c4.52-3.95,9.12-8.63,13.88-13.49,12.89-13.12,27.5-28,45.8-34.31,20.74-7.16,31.74,1.39,45.67,12.21,14.83,11.52,31.64,24.59,64.08,22.65,20.44-1.21,31.33-7.62,40.08-12.76,9.05-5.32,16.19-9.52,30.81-5.89,18.72,4.67,29.42,16.76,39.73,31.59h14.37C407.16,189.76,406,188,404.83,186.25Z"/>
          <path class="cls-10" d="M6.17,29.41c0,16.74,25.65,30.31,57.3,30.31s57.3-13.57,57.3-30.31c0-12.52-14.35-23.27-34.81-27.9H41C20.51,6.14,6.17,16.89,6.17,29.41ZM63.47,4.75c21.52,0,39,9.23,39,20.61S85,46,63.47,46s-39-9.23-39-20.62S42,4.75,63.47,4.75Z"/>
          <ellipse class="cls-9" cx="63.47" cy="25.36" rx="38.96" ry="20.62"/>
          <path class="cls-10" d="M419.24,32.64c0,23.89,30.44,43.26,68,43.26s68-19.37,68-43.26c0-12.22-8-23.26-20.79-31.13H440C427.21,9.38,419.24,20.42,419.24,32.64Zm72-28.7c24.92,0,45.12,12.85,45.12,28.7s-20.2,28.7-45.12,28.7S446.1,48.49,446.1,32.64,466.31,3.94,491.23,3.94Z"/>
          <ellipse class="cls-9" cx="491.23" cy="32.64" rx="45.12" ry="28.7"/>
          <path class="cls-10" d="M280.88,84.79c-28.14,0-50.95,13.57-50.95,30.32s22.81,30.32,50.95,30.32,51-13.58,51-30.32S309,84.79,280.88,84.79Zm4.35,52.65c-20.73,0-37.53-10-37.53-22.33s16.8-22.34,37.53-22.34,37.54,10,37.54,22.34S306,137.44,285.23,137.44Z"/>
          <ellipse class="cls-9" cx="285.23" cy="115.11" rx="37.54" ry="22.33"/>
        </g>
        <g>
          <path class="cls-11" d="M131.18,110.17q-.48.3-.81.54c-.21.15-.41.3-.59.45a3.05,3.05,0,0,1-1,.41l-1,1.05a1.85,1.85,0,0,0,1,1.48,4.15,4.15,0,0,0,2.09.3l.34-.35-.17-1.33c.05-.67.32-1,.82-1.08a1.27,1.27,0,0,1,1.21.48,5.07,5.07,0,0,1-.56,3.24,2.65,2.65,0,0,1-1.91,1.2,4.37,4.37,0,0,1-2.44-.43,4.55,4.55,0,0,1-2-1.59,3.47,3.47,0,0,1-.65-2.22,3.58,3.58,0,0,1,1.58-2.46,10.11,10.11,0,0,1,1.94-1.15c.67-.31,1.32-.59,1.94-.83a26.7,26.7,0,0,0,3.38-1.73c1.35-.79,2.33-1.34,2.92-1.65q2.72-1.31,5.32-2.4a34.67,34.67,0,0,1,4.13-1.49c.65-.18,1.08,0,1.3.4s.05.87-.52,1.24a3.17,3.17,0,0,0-1.62,2.09,4.07,4.07,0,0,0,.48,2.24,5.37,5.37,0,0,0,.33.68,5.22,5.22,0,0,1,.33.67,4.78,4.78,0,0,0,.33.68,4.78,4.78,0,0,1,.33.68.36.36,0,0,0,0,.32c.1.46.22.91.36,1.36a8,8,0,0,1,.3,1.5,48.94,48.94,0,0,1,1.22,5.76,28.06,28.06,0,0,1,.39,4.26q0,5.81-2.61,9.34A15.27,15.27,0,0,1,140,137l-1.23.49a24.06,24.06,0,0,1-8.51,2.05,19.7,19.7,0,0,1-7.5-1.1,18.59,18.59,0,0,1-6.32-3.83,27.35,27.35,0,0,1-5-6.16,37.5,37.5,0,0,1-6.84-14.13,26.45,26.45,0,0,1,.21-14.15,15.27,15.27,0,0,1,.4-2.42,5.94,5.94,0,0,1,1.18-2.3,26.09,26.09,0,0,1,2.73-3,8,8,0,0,1,1.93-2.06l2.11-1.6c1.46-.94,2.93-1.83,4.43-2.68a14.8,14.8,0,0,1,4.7-1.72,20.78,20.78,0,0,1,4.84-.15,16,16,0,0,1,4.8,1.1,8.73,8.73,0,0,1,3.61,2.6,6.38,6.38,0,0,1,1.36,4.3,3.37,3.37,0,0,1-.34,2.73,4.73,4.73,0,0,1-2.46,2.22,9.54,9.54,0,0,1-7.37,0A3.54,3.54,0,0,1,124.64,95a.72.72,0,0,1-.13-.92l.06-.45a1.85,1.85,0,0,1,.32-1,3.62,3.62,0,0,0-.89-2.07,6.47,6.47,0,0,0-1.73-1.35,4.75,4.75,0,0,0-2.14-.55,4.39,4.39,0,0,0-2.14.48A8.17,8.17,0,0,0,116.37,93a11.86,11.86,0,0,0,.22,5.19,76.91,76.91,0,0,0,3.34,9.55q2,4.6,4.1,9.36c1.14,2.27,2.42,4.57,3.82,6.88.94,1.35,1.94,2.87,3,4.56a43,43,0,0,0,3.22,4.48l0,.09a.67.67,0,0,1,.21.24.3.3,0,0,0,.18.14l-.07-.18a4.87,4.87,0,0,0,2.48,1.43q1,.09,3-1.47a7.42,7.42,0,0,0,1.43-3.91c-.26-1-.5-2.1-.72-3.16a18.09,18.09,0,0,0-.82-2.8,41.69,41.69,0,0,0-3.22-6.85q-1.83-3.09-4.07-6.3l-.45-.24-.7.06Zm-25-4.46a.4.4,0,0,0,0,.32l1-.6a8.85,8.85,0,0,1-.07-1.37l-.86.55c0,.15,0,.32,0,.5S106.18,105.49,106.19,105.71Zm1.13,1.92-1.13.77.09.83a7.15,7.15,0,0,0,1.09-.87Zm-.81,3.66a1.8,1.8,0,0,1,.16.69l1.19-.9a2.13,2.13,0,0,1-.16-.7Zm.37-11.35.31-.13.21-1.27-.11,0-.32,1Zm2,15.47-.18-.46-1,.73.15.37Zm.2-12.68a1.39,1.39,0,0,0,0,.7,4.27,4.27,0,0,1,.09.67l5.25-3.61-.37-.93Zm.23,3.57a.63.63,0,0,0,0,.32.3.3,0,0,1,0,.22c1-.77,2.06-1.56,3.06-2.35s1.93-1.51,2.8-2.14l0-.09c-.82.54-1.73,1.17-2.71,1.89S110.37,105.58,109.3,106.3Zm.75,13-.75.52.07.19.75-.52Zm-.69-21,3.69-2.45,0-.77-3.45,2.13Zm.28,10.66a1.4,1.4,0,0,1,.1.39,1.8,1.8,0,0,0,.1.4q1.56-1.17,3.24-2.37l3.24-2.38-.22-.56c-.91.73-1.92,1.45-3,2.18S110.83,108.13,109.64,109Zm1.22,12.34a1.37,1.37,0,0,0-.34.19,1.21,1.21,0,0,1-.34.19,3.83,3.83,0,0,1,.47.89.81.81,0,0,0,.29-.17.82.82,0,0,1,.3-.17Zm-.22-7.78a.65.65,0,0,1,.06.3.47.47,0,0,0,0,.21l7.27-4.85a.75.75,0,0,1-.06-.3.77.77,0,0,0-.05-.3c-2.48,1.79-4.65,3.26-6.49,4.43Zm1.25-20.76q-.24.31-.42.6t-.42.6l2.22-1.32a3.86,3.86,0,0,1,.36-1.22l-.21.08Zm-.25,31.68a1.24,1.24,0,0,1,.48-.3l-.11-.28a.37.37,0,0,1-.17.18.82.82,0,0,0-.27.21Zm.4-6.2,3.82-2.55c1.23-.81,2.48-1.62,3.76-2.41l-.29-.75-7.34,5.3a.18.18,0,0,1,0,.16C112,118,112,118.12,112,118.24Zm1.58,9.07A7.69,7.69,0,0,1,113,126l-.31.12.87,1.27Zm7-11.94q-2,1.11-3.94,2.27c-1.32.79-2.61,1.6-3.86,2.46l.33.84,7.61-5.2Zm-6.66,7.29.11.28c1.25-.86,2.54-1.67,3.86-2.46s2.66-1.58,4-2.4l-.34-.84-5.15,3.57Zm9.07-2.75-8.11,4.85.69,1.13,7-5,.69-.38Zm-6.37,7.71a1.41,1.41,0,0,0,.32.52q1.89-1.29,3.73-2.51c1.23-.82,2.48-1.62,3.75-2.42l-.33-.84-1.64,1Zm9.29-1.88L119,131.29a.19.19,0,0,0,.11.12.18.18,0,0,1,.1.12l3.67-2.49c1.2-.8,2.43-1.6,3.71-2.4ZM121,133.62c1.41-1.06,2.71-2,3.92-2.91s2.18-1.57,2.93-2.09l-.11-.28-7.13,4.9A1.46,1.46,0,0,0,121,133.62Zm1.48-46.07L124,86.11l-1.87.42a3.79,3.79,0,0,1-1,.83Zm7,43.87a2.15,2.15,0,0,1-.4-.7l-6.41,4.61.35.29Zm.62,1.26q-3.08,1.88-5.84,3.95l.42.16c1-.75,1.92-1.43,2.83-2s1.79-1.27,2.63-2Zm-5.51-44c.94-.66,2-1.47,3.1-2.42a1.2,1.2,0,0,0-.66-.17,13.3,13.3,0,0,1-1.24,1.25l-1.37,1.19C124.5,88.48,124.57,88.53,124.61,88.65Zm2.76,6,3.36-3.28-.21.08-3.33,2.74Zm4,39.67-4.16,3.07,1.78.26c.57-.37,1.13-.76,1.69-1.16s1.12-.79,1.69-1.16Zm.5-46.64a.75.75,0,0,1-.22-.13.68.68,0,0,0-.34-.08,16.55,16.55,0,0,1-1.44,1.33,14.65,14.65,0,0,0-1.51,1.46L129,90c.48-.41,1-.8,1.45-1.17S131.41,88.09,131.88,87.69Zm1.46,3.94-4.41,4.24a.62.62,0,0,0,.39.06l4.58-4.09Zm-.66,4a2.85,2.85,0,0,0,1.93-1.75Zm1.07,41.6a.75.75,0,0,0,.45-.07l.3-.45-.28-.1-1.23.81a1.48,1.48,0,0,1,.38-.09A1.26,1.26,0,0,0,133.75,137.27Zm.59-3.9-.32-.2L134,133C133.93,132.92,134.05,133.05,134.34,133.37Zm4.22-26.58q-1,.6-1.8,1.2c-.55.4-1.15.8-1.79,1.2a2.27,2.27,0,0,1,.75.67l.07.19,4.62-4.32Zm-.76,7.09,3-2.49c1-.83,2-1.72,2.94-2.69l-6.49,4.43.47.57Zm7.49-3.42c-1.09.87-2.22,1.75-3.37,2.64s-2.27,1.81-3.34,2.73l0,.1,7-4.63Zm-5.65,7.43.22.56,6.45-4.52Zm7.32-.55,0-.09-5.86,3.3.34.84Zm-3.72-10.8a.73.73,0,0,0-.25-.33l-1.66,1.52Zm-1,17.63a6.44,6.44,0,0,1,.23.71,4,4,0,0,0,.22.72c.75-.73,1.5-1.44,2.26-2.14s1.52-1.38,2.29-2a1.38,1.38,0,0,0,0-.64Zm2.72,7.42a8.9,8.9,0,0,0,1.37-2.27l0-.23-1.48,1.24a18.29,18.29,0,0,0-1.44,1.33,1.91,1.91,0,0,1-.33.67ZM143.61,129l2.85-2.43-3,2.06Z"/>
          <path class="cls-11" d="M173.65,86.78a22.31,22.31,0,0,0-4-3.77,6,6,0,0,0-4-1.16l-.11,0a.68.68,0,0,1-.43.46,4.81,4.81,0,0,0-1,4,5.86,5.86,0,0,0,1.64,3.15l.57.65a3.06,3.06,0,0,1,1,.52,7.7,7.7,0,0,1,1.8,1.87,3.12,3.12,0,0,1,.68,2.36,6.4,6.4,0,0,1-1.62,3.76,8.92,8.92,0,0,1-3.36,2.39,9.81,9.81,0,0,1-4,.77,5.71,5.71,0,0,1-3.49-1.16,4.09,4.09,0,0,1-1.44-1.84,4.7,4.7,0,0,1-.26-1.81,13.9,13.9,0,0,1-.64-3.69,15.39,15.39,0,0,1,.88-6.1,10.94,10.94,0,0,1,2-3.53A11.8,11.8,0,0,1,161.29,81q4.41-2.22,8-3.67a13.58,13.58,0,0,1,7.12-1,9.43,9.43,0,0,1,5.7.95,12.76,12.76,0,0,1,4.22,4.92,10.87,10.87,0,0,1,1.54,2.49,18.16,18.16,0,0,1,.87,2.61,6.18,6.18,0,0,1,.55,1.29,5.57,5.57,0,0,0,1.29,1.42,4.74,4.74,0,0,0,1.94.88,4.48,4.48,0,0,0,1.47.19c.54,0,1.12,0,1.72-.1a10.24,10.24,0,0,0,2-.25c.67.13,1,.45,1,1s-.33.87-1.06,1a4.88,4.88,0,0,0-3.21,1.76,5.65,5.65,0,0,0-1,3,10.7,10.7,0,0,0,.4,3.45c.32,1.2.6,2.28.85,3.25s.67,1.94,1,2.78a18.84,18.84,0,0,0,1.54,3,11.16,11.16,0,0,1,.52,1,4.47,4.47,0,0,0,.66,1.09,2.81,2.81,0,0,0,1,.79,1.8,1.8,0,0,0,1.41,0c.16,0,.25,0,.28,0a.45.45,0,0,1,.25-.13l.42-.14a3.29,3.29,0,0,1,.32-.27,3,3,0,0,1,.67-.28c.67-.08,1.11.11,1.3.57s0,.85-.49,1.17c-1.19.4-2.11.74-2.76,1s-1.22.53-1.74.74-1,.44-1.59.69-1.29.57-2.25,1q-2.25,1-5.33,2.1c-2.05.75-4,1.39-6,1.89a13.77,13.77,0,0,1-2.63,1.25,19.94,19.94,0,0,1-3.9.94c-.61.06-1-.13-1.13-.57a1.23,1.23,0,0,1,.49-1.33,4.26,4.26,0,0,1,.81-.38l.95-.31a6.4,6.4,0,0,0,3.63-4.91,1.67,1.67,0,0,0-1-.79,3.85,3.85,0,0,0-1.38.09,20,20,0,0,1-6.52,2.56,9.13,9.13,0,0,1-5.94-.6,4.34,4.34,0,0,1-3.14-3.07,17.71,17.71,0,0,1-.72-5.3,6.44,6.44,0,0,1,1.21-3.57,10.47,10.47,0,0,1,3.2-2.7c1.4-.82,3.18-1.74,5.34-2.74.55-.25,1.31-.67,2.28-1.24a3.53,3.53,0,0,0,1.79-2,6.17,6.17,0,0,0-.56-3.41c-.55-1.43-1.2-3-1.93-4.73Zm-16.18,4.15,2.28-1.4c.75-.46,1.56-.9,2.43-1.34l-.19-.57c-.92.52-1.73,1-2.41,1.39s-1.32.78-1.91,1.11Zm4.24-5.54a1.9,1.9,0,0,1,.09-.76,5.33,5.33,0,0,0,.2-.81,3.43,3.43,0,0,1-.81.38l-.54.49a7,7,0,0,0-2,2.56c.52-.32,1-.61,1.4-.89l1.29-.86Zm3.45,7.19-5.84,3.53a.09.09,0,0,1-.07.13c1.15-.52,2.23-1.08,3.25-1.66l3.18-1.86Zm-3.58,6.79a5.54,5.54,0,0,0,3-.89,5.71,5.71,0,0,0,1.83-1.88ZM173.69,103l.62-.42a4.1,4.1,0,0,1,.76-.36c.62-.48,1.25-.94,1.89-1.37l1.91-1.27-.16-.47a6.92,6.92,0,0,1-2.79,2.14q-1.92.92-4,1.8c-.93.74-1.86,1.45-2.8,2.15s-1.84,1.38-2.72,2a5.8,5.8,0,0,0-.58,1.78c.71-.45,1.4-.91,2.06-1.38s1.34-1,2-1.47A11.18,11.18,0,0,1,173.69,103Zm-3.6,6.38a1.47,1.47,0,0,1-.37-.41l-3.3,2.05a.49.49,0,0,0-.28.21l.32,1,1.49-1.14Zm5.46.91a2.85,2.85,0,0,1-.88.19l-6,4.44.31.21Zm-1-30.91a19.08,19.08,0,0,1-1.8.92l-1.84.82.86.46ZM173,114.87q2.1-1.44,4.12-2.91t4.23-2.94l-.32-1-9.86,7.62.49,0Zm7.16-10.1c-.1-.32-.2-.65-.28-1a9.44,9.44,0,0,0-.28-1l-.1,0a2.12,2.12,0,0,1-.78.47,5.72,5.72,0,0,1-1,.22c-.35.12-.7.25-1,.4s-.67.32-1,.5c-.52.31-1,.58-1.44.79a7.08,7.08,0,0,0-1.11.69c-.94,1.16-1.32,2-1.13,2.59a2.83,2.83,0,0,0,1.87.33,17.72,17.72,0,0,0,3.87-1.4l1-1a2.78,2.78,0,0,0,.58-.72,4.08,4.08,0,0,1,.48-.68,1,1,0,0,0,.19-.12A.44.44,0,0,1,180.13,104.77ZM179,79c-.87.64-1.76,1.31-2.66,2s-1.79,1.39-2.64,2.09c1-.6,2-1.23,2.94-1.88s2-1.32,3-2Zm-3.89,5.52a.37.37,0,0,1,.2.25l5.76-4.14Zm1.3,1.78c.11.11.16.18.13.22s0,.12.13.22l6.94-4.11L183,82l-.13-.06-3.36,2.23C178.41,84.89,177.36,85.61,176.41,86.28Zm6.48-1.64-3.08,1.82c-.94.57-1.8,1.12-2.55,1.65a.67.67,0,0,0,.14.27.58.58,0,0,1,.15.26Zm-4.4,6.12,1.35-.88,5.89-3.76a2.39,2.39,0,0,0-.36-.72c-1.14.8-2.31,1.63-3.5,2.49s-2.35,1.75-3.44,2.68Zm.81,2.79,2.24-1.7,5.05-3.48a.64.64,0,0,1-.05-.31.59.59,0,0,0,0-.3c-1.44.84-2.81,1.64-4.11,2.43s-2.38,1.5-3.26,2.15Zm8.86-.86L184.32,95l-3.85,2.34.38,1.13,7.53-5.15Zm-6.55,9.48a2.86,2.86,0,0,1,.13.58,3.63,3.63,0,0,0,.14.59c1.36-1.08,2.71-2.1,4.08-3s2.68-1.85,4-2.7l-.17-.47c-1.65.91-3.08,1.75-4.29,2.55s-2.2,1.38-2.93,1.77Zm.4-8.26,5.55-3-.26-.76Zm1,13.49,2.78-2.2c.93-.73,1.87-1.43,2.81-2.1l-5.74,3.82Zm.94,10.14a6.19,6.19,0,0,1-.71,1.39.74.74,0,0,0,.39-.23A4.9,4.9,0,0,0,183.94,117.54Zm8.2-14.36-6,4.35-2.42,1.86.26.76q2.08-1.44,4.22-2.94c1.42-1,2.87-2,4.33-3Zm-6.42,12.7a4,4,0,0,0,.22,1q2.06-1.55,4.19-3c1.42-1,2.86-2,4.3-3.08l-.28-.85-.78.47c-.52.32-1.51,1-3,2.15S187.38,114.76,185.72,115.88Zm3.17-21-.93.73a12.19,12.19,0,0,1-1.34.87L189,95.16ZM195,112.46c-1.27.85-2.62,1.79-4,2.83s-2.77,2-4.07,3l3.37-1.13,5-3.89Zm-4.16-19.82a10.79,10.79,0,0,0,.43,1.12c.16.37.3.72.4,1A4.84,4.84,0,0,1,192.84,93,5.24,5.24,0,0,1,190.84,92.64ZM198,114.32l-.14-.06,0,.09Z"/>
          <path class="cls-11" d="M256.22,94.86a8.51,8.51,0,0,0,1.68,2.78,4.46,4.46,0,0,0,3.75,1.25.86.86,0,0,1,1.05.72c.1.52-.16.91-.79,1.17a19.63,19.63,0,0,1-3.47.78c-1.25.18-2.45.39-3.61.61q-2.21.33-4,.63c-1.17.19-2.29.43-3.37.71s-2.18.58-3.33.91-2.47.67-4,1a1.24,1.24,0,0,1-1.46-.23c-.42-.39-.37-.84.13-1.35a5.69,5.69,0,0,0,1.74-2.38,32.81,32.81,0,0,1,1.39-3,29.72,29.72,0,0,0-.28-5.45q-.42-3.28-1.14-6.66T239,80a30.66,30.66,0,0,0-1.64-4.57c-.37-.75-.79-1.75-1.27-3a26.13,26.13,0,0,0-1.68-3.64,9,9,0,0,0-2.3-2.81,3.12,3.12,0,0,0-3.05-.53,3.8,3.8,0,0,0-2.23,1.92,13,13,0,0,0-1.13,3.18,22.28,22.28,0,0,0-.49,3.51c-.08,1.17-.15,2.14-.23,2.9,0,1-.08,2.06-.18,3.1s-.16,2.24-.2,3.61,0,3,.09,4.77a58.57,58.57,0,0,0,.79,6.58,13.93,13.93,0,0,1,.67,2.27,21,21,0,0,0,.54,2.18l1.12,2.23a1.19,1.19,0,0,1,.2.47,7.79,7.79,0,0,0,1.83,2.4,2.4,2.4,0,0,0,1.57.5.48.48,0,0,1,.31-.16,7,7,0,0,0,3.81-1.92,2.06,2.06,0,0,0,0-2.81,1.6,1.6,0,0,0-1.57-.81l-1.36.27a.43.43,0,0,0-.37.43,1.26,1.26,0,0,0,.07.65.47.47,0,0,0,.4.32.83.83,0,0,0,.67-.33,1.07,1.07,0,0,1,1.49.06c.46.42.44.89-.07,1.39-1.16,1-2.17,1.26-3,.85a2.61,2.61,0,0,1-1.51-1.9,3.26,3.26,0,0,1,.59-2.51c.55-.82,1.63-1.19,3.23-1.09a3.29,3.29,0,0,1,1.77.36,4,4,0,0,1,1.32,1,5.25,5.25,0,0,1,.41,4.66,6.36,6.36,0,0,1-3.3,3,4,4,0,0,1-.86.27,4.14,4.14,0,0,1-1,.29,52.4,52.4,0,0,1-8.88,1.74q-4.5.48-9.22,1.2a4.71,4.71,0,0,1-2.25.65,12.55,12.55,0,0,0-2.32.25l-.33.06a1.07,1.07,0,0,1-1.05-.71c-.16-.44,0-.79.59-1a18.58,18.58,0,0,1,2.73-.54l1.31-.25a3.42,3.42,0,0,0,1.17-2.07q-.5-2.55-1.11-5.39t-1-6.12l-.11-.59c-.43-1.41-1.14-2.16-2.14-2.24a14,14,0,0,0-4,.48c-.61,0-1-.21-1.13-.59a1.13,1.13,0,0,1,.22-1.17,13.58,13.58,0,0,0,1.69-1.45,8.25,8.25,0,0,0,1.52-2.09,10.06,10.06,0,0,0,.91-2.88,12.58,12.58,0,0,0,0-3.87c-.76-2.7-1.39-5.37-1.91-8-.65-1.36-1.21-2.48-1.68-3.34q-1.81-1.17-5.82-.28a1.41,1.41,0,0,1-1.26-.61c-.22-.39-.12-.8.33-1.25l3.69-1.08c1-.3,2-.56,2.85-.76s1.72-.37,2.56-.51,1.81-.3,2.9-.52c.58-.11,1.11-.2,1.59-.26s1-.14,1.48-.24a15.53,15.53,0,0,0,2-.49c.46-.16,1.09-.35,1.87-.57l0-.1c.91-.38,1.27-.45,1.09-.22l.22,0a1.09,1.09,0,0,1,.95,1.95.11.11,0,0,0-.09.13l-.43.08a8.75,8.75,0,0,0,0,1.12c0,.4.1.76.16,1.09a5,5,0,0,1,.43,1,4.6,4.6,0,0,0,.13,1.2,8.4,8.4,0,0,1,1.31-1.38,22.79,22.79,0,0,1,5.09-3.75,22,22,0,0,1,7.7-2,13.42,13.42,0,0,1,2,.05,16.22,16.22,0,0,1,2.59.46,17.88,17.88,0,0,1,2.49.89,6.71,6.71,0,0,1,1.88,1.21,11.48,11.48,0,0,1,2.38-2.56A15.53,15.53,0,0,1,248.35,60,21.72,21.72,0,0,1,256,56.86l.54-.11.13.08a20.32,20.32,0,0,1,6.6.18,25.25,25.25,0,0,1,6.29,2.08,15.4,15.4,0,0,1,5.88,5.42,26.92,26.92,0,0,1,3.34,8.07,16.57,16.57,0,0,1,.94,3.94c.15,1.3.26,3.13.35,5.5.17,1.25.36,2.59.56,4a24.66,24.66,0,0,0,.89,3.95,10.09,10.09,0,0,0,1.57,3.11,3.72,3.72,0,0,0,2.72,1.45,4.77,4.77,0,0,0,.65-.17,3.58,3.58,0,0,1,.64-.18,1.33,1.33,0,0,1,1.31.3q.66.54,0,1.17L288,96a2.36,2.36,0,0,1-.74.25l-.44.08q-2.81.66-5.34,1l-5,.78c-1.65.26-3.29.53-4.94.81s-3.35.68-5.14,1.17a1,1,0,0,1-1.21-.07,1.4,1.4,0,0,1-.41-1.24,2.48,2.48,0,0,1,1.05-.72,11.11,11.11,0,0,0,1.23-.35A2.51,2.51,0,0,0,268.44,96a11.61,11.61,0,0,0,.48-2.7c-.26-1.71-.47-3.29-.64-4.72s-.39-3.23-.67-5.42a55.24,55.24,0,0,0-2.23-10.48,48.53,48.53,0,0,0-4.41-10,6.62,6.62,0,0,0-1.22-1.34,4.93,4.93,0,0,0-1.65-.9,3.31,3.31,0,0,0-1.92,0,3.92,3.92,0,0,0-1.84,1.28l-.25.46A11.81,11.81,0,0,0,253,66a49,49,0,0,0-.42,5.34,48.05,48.05,0,0,0,.16,5.42,39.34,39.34,0,0,0,.5,4c.19,1.74.48,3.58.86,5.55s.84,3.88,1.36,5.75c0,.06,0,.09.07.08s.07,0,.08.09l.13.69a6.77,6.77,0,0,0,.23.87,5.9,5.9,0,0,1,.23.88ZM208.18,67a2.79,2.79,0,0,0,.06.91l.62-.33L216,65.23l-6.22,1.22a2.23,2.23,0,0,1-.85.27A1.93,1.93,0,0,1,208.18,67Zm3.19,23.75c-.11-.59-.21-1.18-.29-1.78a9.64,9.64,0,0,0-.4-1.75,7.17,7.17,0,0,1-2,2.94A7.84,7.84,0,0,1,211.37,90.72ZM216,67.58l-3.53,1.3c-1.16.44-2.35.84-3.56,1.21a3.86,3.86,0,0,0,.17.58,2.41,2.41,0,0,1,.17.58,13.46,13.46,0,0,0,2.4-1.08Zm-3.94,7-.94.39a3.43,3.43,0,0,1-.86.27l.06.3c.34-.2.71-.41,1.12-.63A1.88,1.88,0,0,0,212.05,74.57ZM217.71,70a3,3,0,0,1,0-.45,3,3,0,0,0,0-.45l-4.8,2.67L210.7,72.9c1.2-.44,2.37-.91,3.52-1.4Zm.35,3.51c-1.3.59-2.55,1.19-3.77,1.81s-2.36,1.23-3.43,1.84l.11.59c.91-.31,1.82-.68,2.74-1.1s2-.91,3.12-1.47l1.44-.59Zm-5.47,10.15,2.77-1.46a8.07,8.07,0,0,1-1.43.53c-.46.13-1,.27-1.44.44Zm7.08-1.39c-1.22.58-2.39,1.16-3.5,1.75l-3.07,1.68c1.05-.34,2.09-.72,3.12-1.12s2.24-.92,3.61-1.53Zm-6.07,5.37.61-.32-.63.22Zm.28-7.19,2.09-.87c.77-.32,1.75-.7,2.95-1.14l0-.1C217.28,78.92,215.6,79.62,213.88,80.44Zm6.75,6.12L217.4,88c-1.06.48-2.19,1-3.4,1.68L220.71,87Zm.72,2.51-1.9.57a13.42,13.42,0,0,0-1.76.66l-3.28,1.46.19,1c1.08-.55,2.2-1.1,3.36-1.63s2.31-1.08,3.47-1.65Zm1,3a1.78,1.78,0,0,0-.14-.43,2.14,2.14,0,0,1-.14-.43c-.89.45-1.75.87-2.58,1.27s-1.64.86-2.45,1.35l-2.07,1,0,.1,2.29-1.06Zm-7,4.84a1.7,1.7,0,0,1,0,.46,3,3,0,0,0,0,.45A34.57,34.57,0,0,1,219,96.05c1.24-.52,2.47-1.06,3.7-1.65l0-.41-4.53,1.71Zm8.32,2a30.2,30.2,0,0,0-3.84,1.47c-1.28.59-2.55,1.15-3.8,1.66l0,.2c1.24-.58,2.53-1.13,3.86-1.63s2.6-1,3.78-1.5Zm-.42,5.9a35.58,35.58,0,0,0-3.54,1.3l-3.49,1.51a.22.22,0,0,0-.07.21l1-.2a5.87,5.87,0,0,1,1.06-.1,25.57,25.57,0,0,1,2.45-1.35C221.57,105.77,222.43,105.31,223.31,104.8Zm1.19-2.58a7.5,7.5,0,0,1-.4-1.46c-.95.46-2.12,1-3.49,1.56a40.17,40.17,0,0,0-4.08,2,2.17,2.17,0,0,1,0,.71c1.31-.53,2.6-1,3.88-1.53A32.62,32.62,0,0,1,224.5,102.22ZM223.05,96a24.36,24.36,0,0,0-2.41,1.34q-1.27.82-2.79,1.62c1-.39,1.87-.76,2.73-1.09s1.74-.67,2.64-1Zm.32-24.84-2.9,1.38.23,1.18,2.23-.74Zm-1.89,6.49,1-.29a1,1,0,0,1,0-.52l-1,.51Zm.73,3.73a.3.3,0,0,1,.07-.22l-.11,0Zm3.07-14.88c-.32.26-.65.52-1,.75s-.66.49-1,.75l1.27-.45Zm-.73,40a7.24,7.24,0,0,1,1.23-.65l0-.1a.76.76,0,0,0-.32.12,1,1,0,0,1-.21.09Zm8.32-42.33a4.44,4.44,0,0,0,1.07-.31l-1.46.08Zm2,1.54a.11.11,0,0,1,.13.08l1.34-.67Zm2,2.67a10.3,10.3,0,0,1,.69,1.19c.6-.39,1.23-.76,1.87-1.13s1.31-.72,2-1.06l.3-.77Zm2.8,6.18c0,.07,0,.12.09.14a.2.2,0,0,1,.08.14l0,.19a1.38,1.38,0,0,1,.52-.2,1.23,1.23,0,0,1,0-.61A1.88,1.88,0,0,1,239.66,74.55Zm2.79,2.11c.49-.23,1-.48,1.39-.73l1.36-.83a13.57,13.57,0,0,1-1.41.58l-1.43.49ZM242.39,74c1.19-.44,2.4-.92,3.62-1.43l3.72-1.54.09-1.25-1.27.46c-.89.45-1.86.91-2.89,1.38s-2.11,1-3.21,1.55ZM250,76.6a3.33,3.33,0,0,1-.09-.75,4.19,4.19,0,0,0-.1-.75c-1.23.65-2.45,1.32-3.68,2s-2.41,1.38-3.55,2.08a.19.19,0,0,1,0,.15.37.37,0,0,0,0,.26c1.19-.44,2.42-.9,3.69-1.39S248.78,77.18,250,76.6Zm3.82,20.05-10.39,4.7-.43,1.3.77-.15q1.6-1,4.49-2.46c1.93-1,3.81-2,5.64-3Zm-3.26-15.47a.66.66,0,0,1,0-.31.5.5,0,0,0,0-.3c-1.32.6-2.61,1.14-3.87,1.63s-2.48,1-3.65,1.58l.15.79Zm.48,2.45-7.5,3.31,0,.1,7.58-2.91Zm-7.38-15.07c1.13-.42,2.22-.88,3.3-1.36s2.14-.93,3.19-1.34l.21-.66-6.63,3.14c0,.07,0,.1,0,.11S243.68,68.5,243.69,68.56ZM244,90.84l7.42-3.7-7.49,2.79a.88.88,0,0,1,0,.36.85.85,0,0,0,0,.35Zm9.36,3.87a.62.62,0,0,0-.11-.28.72.72,0,0,1-.12-.29c-1,.46-2.27,1.13-3.91,2l-5.12,2.74a.55.55,0,0,0,0,.42q2.35-1.28,4.56-2.43c1.47-.76,2.63-1.33,3.46-1.7ZM244.2,95.9a.74.74,0,0,1,0,.3.8.8,0,0,0,0,.31Q246.75,95.09,249,94c1.51-.74,2.72-1.33,3.61-1.78a69.17,69.17,0,0,0-6.9,2.89ZM252,89.06a1.66,1.66,0,0,1-.51.3q-1.72,1-3.6,1.83c-1.24.59-2.48,1.2-3.71,1.85l.1.49c1.1-.55,2.34-1.14,3.73-1.75l4.16-1.84Zm-3.18-27.12,3.7-1.34A3.24,3.24,0,0,1,253,60a6.08,6.08,0,0,0,.46-.55q-.84.38-1.68.69a11.24,11.24,0,0,0-1.65.78Zm5.53,36.75c-.82.44-1.63.85-2.42,1.24s-1.59.84-2.4,1.34l2-.38,3-1.51Zm7.95-37.87a.53.53,0,0,1,.29.35l1.74-1ZM264,62.94a.38.38,0,0,1,.17.27l4.18-1.74-.42-.42c-.61.32-1.25.64-1.91.93S264.67,62.6,264,62.94Zm5.46.15c-.62.26-1.32.57-2.08.92s-1.53.68-2.3,1c0,.07,0,.1.07.09s.06,0,.08.09l4.25-2Zm-2.63,5.62a1.84,1.84,0,0,0,.27.76l4.43-2.19,0-.2Zm.95,3.08c.84-.3,1.67-.59,2.49-.85s1.61-.54,2.38-.83a2.12,2.12,0,0,0-.15-.48,3.2,3.2,0,0,1-.15-.48c-.7.28-1.44.61-2.23,1l-2.42,1.24Zm.84-6.08,1.92-.59-.06-.29-2.19.94Zm-.1,8.69,2.33-1.08c.8-.36,1.57-.74,2.32-1.16l-4.79,1.55Zm.49,1.94,5.22-1.64a2.6,2.6,0,0,0-.28-.86c-.7.27-1.46.61-2.29,1L269,76.14Zm.39,2a3.05,3.05,0,0,1,.06.6,2.91,2.91,0,0,0,.06.6l5.34-2.78,0-.1Zm6.81,2.44-6.1,2.32.09.49a26.52,26.52,0,0,1,2.95-1.4c1-.4,2-.84,3.08-1.32Zm.78,2.8a2.23,2.23,0,0,0-.26-.76c-1.11.49-2.19,1-3.24,1.4a33.1,33.1,0,0,0-3,1.45l.11.59Zm-6,4.84c1.1-.55,2.19-1,3.27-1.51s2.17-.92,3.29-1.41l-.08-.39c-1.2.44-2.34.89-3.42,1.33s-2.15.89-3.2,1.3Zm7.36-.53a2.47,2.47,0,0,1-.26-.76c-.89.45-1.75.87-2.58,1.27s-1.59.74-2.29,1l-.11,0-1.65.84.2,1a13.57,13.57,0,0,1,1.41-.58l1.32-.47,4.07-1.2A4.47,4.47,0,0,1,278.38,87.85Zm1.61,5.3-.32-.5a1.14,1.14,0,0,1-.2-.42l-1.76.81c-.42.18-.87.41-1.34.67l-1.74,1-2.87,1.53c0,.14,0,.22,0,.26a.21.21,0,0,0,0,.16c1.61-.66,3.15-1.32,4.65-2S279.07,93.47,280,93.15Zm-8,.34a.36.36,0,0,1,0,.26s0,.12,0,.25l6.63-3.14Zm2.65-24a1.78,1.78,0,0,1,.63-.23c-.12-.24-.24-.46-.35-.64l-.33-.55a.74.74,0,0,0-.42.19Zm1.69,4.57.54-.11a3.48,3.48,0,0,0-.19-.68,4.06,4.06,0,0,1-.19-.68l-.41.19-.22,0Zm.72,22.09a8.09,8.09,0,0,1,1-.14q.44,0,1-.15l1.34-.67a2,2,0,0,0,.61-.32Z"/>
          <path class="cls-11" d="M320.23,79.18a3.89,3.89,0,0,1,2,.84,4.78,4.78,0,0,1,1.28,1.76,6.06,6.06,0,0,1,1.09,2.76,3.11,3.11,0,0,1-.69,2.43,15,15,0,0,1-1.65,4.11,10.92,10.92,0,0,1-3.54,3.57,5.24,5.24,0,0,1-1.42.95c0,.07,0,.1-.1.11a9.07,9.07,0,0,1-1.1.43,14.36,14.36,0,0,1-6.08.91c-1.41-.09-2.94-.26-4.58-.5a10.17,10.17,0,0,1-4.27-1.61,13,13,0,0,1-3.11-3.2,20.45,20.45,0,0,1-4.43-6.16,29.22,29.22,0,0,1-2.36-7.53l-.12-.1c-.59-.11-.86-.42-.8-.92a1,1,0,0,1,.74-1,29.92,29.92,0,0,1,0-7.21,28.8,28.8,0,0,1,1.28-5A18.08,18.08,0,0,1,300,53.07a16.58,16.58,0,0,1,5.81-2.39,15.76,15.76,0,0,1,6.27-.06.47.47,0,0,1,.23,0,.92.92,0,0,0,.33,0,.37.37,0,0,0,.23.09l1.46.45a17,17,0,0,1,4.64,2.65,16.44,16.44,0,0,1,3.82,4.48A22.15,22.15,0,0,1,325,63.05a14.31,14.31,0,0,1,.77,4.73c.32.73.74,1.12,1.26,1.16l.89,0a.79.79,0,0,1,.79.53,2.79,2.79,0,0,1,.26,1c0,1.07-.24,1.68-.83,1.83q-5,1.17-10.1,2c-3.42.58-6.87,1.13-10.33,1.65a4.05,4.05,0,0,0-3,3.9c.08.33.14.6.19.8a2.72,2.72,0,0,1,.07.49q.15,1,.6,2.94c.3,1.29.68,2.63,1.13,4a39.86,39.86,0,0,0,1.46,3.8,5.2,5.2,0,0,0,1.69,2.3,1.36,1.36,0,0,0,1.93-.56,8,8,0,0,0,1-2.89,29.13,29.13,0,0,0,.32-3.77,22.75,22.75,0,0,0-.11-3.2,3.36,3.36,0,0,1-.07-2.1,3.18,3.18,0,0,1,1.5-1.75l.1-.1a5.37,5.37,0,0,1,3-1.21A6.18,6.18,0,0,1,320.23,79.18ZM293,72.68v.4h.22Zm.64,2.68a1.44,1.44,0,0,0-.55.12v.3l.66-.32ZM294,78l-.22.1h.34V78Zm.55,3.08a4.59,4.59,0,0,1-.15-1.09,1.07,1.07,0,0,0-.55.11,5.34,5.34,0,0,0,.26,1.2l.33-.21Zm6.92-15.85-3.58,1.12-3.57,1.12,0,.8,7.15-1.94ZM294.8,83h-.11a.27.27,0,0,0,.12.2Zm0-11a.66.66,0,0,0,.07.3.73.73,0,0,1,.07.3c1.46-.38,2.8-.78,4-1.19s2.07-.68,2.59-.83h.22a1.87,1.87,0,0,0-.07-.4,1.76,1.76,0,0,1-.07-.4C299.09,70.54,296.81,71.29,294.76,72Zm6.79-9.94a4.61,4.61,0,0,1,0-.85,4.52,4.52,0,0,0,0-.75L298,62.15c-1.17.54-2.22,1.06-3.17,1.56A29.48,29.48,0,0,0,298,63C299.12,62.7,300.3,62.39,301.55,62.08Zm-5,17.19a3,3,0,0,0,.14.9L302.41,78a.38.38,0,0,0-.06-.25.18.18,0,0,1-.06-.15c-1,.3-2,.6-3,.9S297.44,79,296.56,79.27Zm6.28,1.6a3.09,3.09,0,0,1-.14-1l-2.15.77c-.62.22-1.11.41-1.48.55l-2.19,1a.17.17,0,0,0,.06.14.41.41,0,0,1,.07.25l1.86-.66Zm-5,5.67a1,1,0,0,0,.06.35.91.91,0,0,1,.07.35c.95-.3,1.87-.6,2.75-.9s1.79-.56,2.75-.79a2.7,2.7,0,0,1-.25-.89l0-.5c-.95.37-1.86.76-2.74,1.19S298.68,86.18,297.81,86.54ZM302.26,57a6.62,6.62,0,0,1,.25-.91,7.17,7.17,0,0,1,.36-.81,9.87,9.87,0,0,0-1.37.6c-.47.25-1,.48-1.47.7l-1.51,1.35Zm-3.59,32.27a.34.34,0,0,1,.12.29c.81-.29,1.63-.57,2.48-.83a20.54,20.54,0,0,0,2.47-.94Zm.55-13.54c.52-.08,1-.15,1.44-.2a8.52,8.52,0,0,0,1.43-.3l0-.7c-.51.22-1,.42-1.48.6S299.66,75.46,299.22,75.68Zm1.42,16,4.74-1.36L305,89.2c-.81.3-1.67.58-2.59.84a27.59,27.59,0,0,0-2.69.94c0,.07,0,.1.12.1Zm3.5,1.69c.37-.21.73-.41,1.1-.59s.72-.37,1.09-.59h-.11l-1.49.45-1.48.45Zm4-40.49a3.37,3.37,0,0,0-2.44,1.78,12.56,12.56,0,0,0-1.37,3.95,31.76,31.76,0,0,0-.55,5.33c0,1.94,0,3.84,0,5.71a3.51,3.51,0,0,0,1.83,1.59c.82.34,1.35.54,1.57.6l5.2-.78a3.53,3.53,0,0,0,2.27-1.88,1.71,1.71,0,0,1,0-1.2,22.52,22.52,0,0,1-.14-2.54c0-.51,0-1,0-1.56a9.55,9.55,0,0,0-.39-1.49c-.16-.46-.32-.89-.48-1.28a16.77,16.77,0,0,1-1-2c-.4-1-.84-1.91-1.32-2.86a13.75,13.75,0,0,0-1.53-2.45A1.83,1.83,0,0,0,308.13,52.85ZM304.06,74a1.32,1.32,0,0,0,.06.39,1.16,1.16,0,0,1,.07.4c.81-.16,1.6-.3,2.38-.43a19.1,19.1,0,0,0,2-.42l2.85-1.19c-1.25.24-2.49.46-3.7.67S305.31,73.84,304.06,74Zm3.33,19.91q-.12,0-.33.21a1,1,0,0,1,.34,0,.74.74,0,0,0,.33,0Zm4.31-40.6a2,2,0,0,1,.41.49,1.78,1.78,0,0,0,.4.49l1.75-.86L312.8,53Zm2.09,2.74a.26.26,0,0,0,.12.19l3.64-.92-1-.67c-.43.22-.89.43-1.36.65A11.33,11.33,0,0,0,313.79,56.07Zm1.17,35a3,3,0,0,1-.2.8c.95-.36,1.89-.68,2.81-.94s1.81-.55,2.69-.84l.11-.11ZM319,56.79c-.81.23-1.56.46-2.26.68s-1.34.41-1.92.56l.35.69c.74-.22,1.45-.46,2.15-.72l2.14-.82-.35-.39Zm3.33,26.43a4.69,4.69,0,0,0-.59-.88c-1.1.23-2.21.49-3.31.76s-2.24.59-3.41,1l.34.29c1.11-.17,2.25-.36,3.43-.56S321.19,83.39,322.37,83.22ZM316,81.53a1,1,0,0,1-.44.11l-.32.31,3.86-1c-.15,0-.25,0-.28,0a.55.55,0,0,0-.28,0l-.67,0A2.7,2.7,0,0,0,316,81.53Zm2.12,6.64-2.75.89v.2l4.42-.85Zm1.26-28.78a13.65,13.65,0,0,0-1.71.55,13,13,0,0,1-1.7.56v.2Zm2.86,2.6L317,64.47l.12.1,2.7-.69c.91-.23,1.85-.5,2.8-.8Zm-4.75,7.57,0,.6.67,0L323.41,68l0-.6-5.05,1.77Zm3.75,15.8a8.38,8.38,0,0,1-1.54.3c-.52,0-1,.12-1.55.2l.67.18Z"/>
          <path class="cls-11" d="M381.52,43.8a27.77,27.77,0,0,1,10,1.39,30.65,30.65,0,0,1,6.22,3,16.46,16.46,0,0,1,5.85,7A29.94,29.94,0,0,1,406,64.61a32.93,32.93,0,0,1-.45,9.72,26.63,26.63,0,0,1-2.85,8.1l-1.47,2.36a30.22,30.22,0,0,1-4.06,6.83,19.64,19.64,0,0,1-5.76,4.93A15.6,15.6,0,0,1,387,98.81a12.63,12.63,0,0,1-5.24.46,2,2,0,0,1-.78,0l-.66-.07a23,23,0,0,1-9.52-2.45A16,16,0,0,1,365,91.49a20.63,20.63,0,0,1-2.93-7.3,37.71,37.71,0,0,1-.68-8.43,55.94,55.94,0,0,1,.9-8.71c.52-2.89,1.14-5.58,1.84-8a19.11,19.11,0,0,1,1.65-4,28.91,28.91,0,0,1,2.52-3.91,6,6,0,0,1,.94-1.52,4.74,4.74,0,0,1,2.24-2.18,25.83,25.83,0,0,0,3-1.7l.23-.08A15.42,15.42,0,0,1,381.52,43.8ZM363.1,77a.25.25,0,0,0,0,.16.17.17,0,0,1,0,.16l.12-.09c0-.07,0-.1,0-.11s-.05,0-.05-.1Zm.55,2.28a.36.36,0,0,1-.23.07,2.85,2.85,0,0,0,.12,1,.45.45,0,0,1,.34-.06Zm1,4a.43.43,0,0,0-.28,0,.23.23,0,0,1-.17,0,8.58,8.58,0,0,0,.4,1.55,2.07,2.07,0,0,0,.57-.14Zm7-13.37c-1.38.4-2.68.72-3.89,1s-2.25.45-3.08.63l0,.2c1.14-.21,2.29-.41,3.46-.59s2.33-.38,3.47-.6Zm-7-.62L372,67.47v-.1l-7.28,1.35Zm.21,5.56L371.33,73l.07-.6-6.62,1.33Zm6.23.24-3,.7c-1,.23-2,.46-3.09.68a.25.25,0,0,0,0,.16.16.16,0,0,1,0,.15l6.06-1.28a.48.48,0,0,0,0-.2A.39.39,0,0,1,371.12,75.12Zm-5.78-11.06-.06.59,7.23-1.86-4.2.67Zm.39,15.63L371,78.23l.06-.6-5.6,1.23Zm7.65-18.82a5,5,0,0,1,.34-1.17l-7.9,1.89-.05.5,3.8-.61Zm-7.33,27.51.58-.14v-.1l-.58.14Zm.32-28.84c.84-.25,1.94-.56,3.28-.92s2.89-.76,4.64-1.18v-.1l-7.45.84Zm6,5.95.06-.6-5.85,1.51Zm-5.71,17.32a3.7,3.7,0,0,0,.42,1.35l4.16-1.38a2.34,2.34,0,0,0,0-.46,1.37,1.37,0,0,1,0-.45l-2.35.51C368.13,82.54,367.39,82.68,366.63,82.81Zm1.62,8.11a1.91,1.91,0,0,1-.48-.75l-.7.23a1.91,1.91,0,0,1,.48.75Zm.45-3.27,3.12-1v-.1l-3.12,1Zm2.52,6.9a8.1,8.1,0,0,1-.91-1c-.26-.33-.56-.68-.89-1l-.7.23c.2.29.39.56.59.82a4.77,4.77,0,0,0,.7.73.66.66,0,0,0,.41.44Zm-2.39-40.39.35-.17-.34.07ZM372,88.8l-2.19.68.58.86,1.83-.41Zm5.22-39.5-6,1.69a2.09,2.09,0,0,0-.43.41l-.45.5c1.07-.22,2.1-.45,3.09-.68l3.08-.69Zm-6.35,6.28a.09.09,0,0,0-.12.09l4.07-.49.05-.49C373.47,54.94,372.14,55.24,370.91,55.58Zm2.22,37.76a3.07,3.07,0,0,1-.51-1.56l-.8.22Zm0,2.82a.26.26,0,0,1-.16-.06.24.24,0,0,0-.16-.07h-.11A.71.71,0,0,0,373.17,96.16Zm13.7-49.08a2.29,2.29,0,0,0-2.37-.3,13.86,13.86,0,0,0-3.28,2,20.33,20.33,0,0,0-1.49,2.56c-.48,1-.93,1.92-1.36,2.88s-.83,1.89-1.19,2.8-.63,1.64-.84,2.22l-.65,2q-1.11,5.22-1.7,10.44a51.87,51.87,0,0,0-.14,10.5c.11,1.75.31,3.82.58,6.19a15.42,15.42,0,0,0,2,6.25,7.76,7.76,0,0,0,2.94,1.87,8.53,8.53,0,0,0,4,.36,1.24,1.24,0,0,0,.81-.32,8.32,8.32,0,0,0,1.1-2,16,16,0,0,0,.74-2.28c.19-.79.36-1.54.51-2.26a18.18,18.18,0,0,0,.31-1.88q.42-3,.77-6.31t.59-6.78c.16-2.3.29-4.55.37-6.76s.11-4.28.09-6.23c-.05-1-.06-2.18,0-3.52s0-2.7,0-4.08a29.1,29.1,0,0,0-.42-4A8.45,8.45,0,0,0,386.87,47.08Zm-12,.66,2.76-.72-1.8.11-.59.34ZM392.12,93.3l-3.76.72-.82,1.42,2.76-.72a.31.31,0,0,0,.23-.07Zm-2.79-2.2a1.3,1.3,0,0,1-.17.59l5.34-.86v-.1Zm2.85-43.57-2.71.32.39.54,3.3-.56ZM397,87.47l-7,1.08-.08.79,6.74-1.41ZM390.74,84a2.94,2.94,0,0,1-.12.59,3.29,3.29,0,0,0-.12.69l8.63-1.41a.21.21,0,0,1,.07-.15s.07-.11.08-.24Zm6.12-33.07a.55.55,0,0,1-.26-.23.85.85,0,0,0-.14-.21c-1,.09-1.93.22-2.83.36l-2.61.38a3.51,3.51,0,0,1,.14.82c1-.23,2-.42,2.9-.56A23.92,23.92,0,0,0,396.86,50.93ZM391,80.21l5.15-.63c1.69-.19,3.41-.43,5.15-.72v-.1c-1.71,0-3.41,0-5.08,0s-3.38.07-5.1.22Zm.52-5,10.93-2v-.1l-10.86,1.28Zm7.15-22.6c-1.21.21-2.41.44-3.59.68s-2.34.51-3.49.8a.66.66,0,0,0,0,.3.71.71,0,0,1,0,.31l8-.88Zm-6.8,4.22c.05.14.07.23,0,.26s0,.11,0,.25l4.55-.73c1.51-.25,3-.46,4.53-.64,0-.06,0-.1-.1-.11Zm11.41,9.44-11.39,2.14a1.36,1.36,0,0,0,0,.4,1.8,1.8,0,0,1,0,.4L397.49,68c2.1-.49,4-.87,5.76-1.16Zm0-2.21c-2,.2-3.83.45-5.61.77s-3.66.65-5.63,1l-.07.69q2.63-.63,5.54-1.23t5.76-1.11Zm-1.37-6.18-9.88,1.59a2.55,2.55,0,0,0,0,.9l10.39-1.13Zm-9.86,4.61c0,.13,0,.22,0,.25a.2.2,0,0,1,0,.16l10.77-1.6v-.1Zm10.81,7.76-10.62,2.22a41,41,0,0,0,5.24-.41c1.77-.25,3.53-.49,5.26-.71Zm-1.13,6.53c0-.2,0-.42.07-.65a1.69,1.69,0,0,1,.18-.64l-3.23.47c-1.1.16-2.18.35-3.25.57l-1.14.28Z"/>
          <path class="cls-11" d="M442.65,65.22c-.58-.11-.78-.44-.6-1a1.56,1.56,0,0,1,1.32-1,20,20,0,0,1,3.86.53c1.15.29,2.26.58,3.33.89s2.14.56,3.19.76a21,21,0,0,0,3.39.34c.49.16.75.41.76.75s-.24.67-.75,1a3.46,3.46,0,0,1-1.49.38,3.61,3.61,0,0,0-1.49.38,14.15,14.15,0,0,0-4.69,2.67q-1,2.07-1.89,4c-.63,1.31-1.26,2.65-1.9,4q-1,2.36-2.11,5.15c-.73,1.87-1.5,3.79-2.29,5.78s-1.57,4-2.33,6-1.5,3.92-2.22,5.69a6.52,6.52,0,0,0-.21,2.61,2.75,2.75,0,0,0,1,1.93l2.51.47c.56.25.84.57.84,1a1.14,1.14,0,0,1-.76,1,4.13,4.13,0,0,1-3.27-.63q-5.22-1.09-10.17-1.78c-3.31-.46-6.76-1-10.34-1.51-.66-.13-1-.46-1-1s.3-.89.93-1a4.52,4.52,0,0,1,1.64,0,8.73,8.73,0,0,0,1.84.15,3.17,3.17,0,0,0,2.91-1.94,8.07,8.07,0,0,0,.56-3.82q-.12-.53-.24-1.11c-.08-.39-.16-.76-.24-1.12-.24-1.13-.5-2.23-.78-3.31s-.56-2.14-.8-3.2l-.39-.38a5.76,5.76,0,0,0-7.38-5.18,1.32,1.32,0,0,1-1.29-.65c-.25-.46-.08-.83.5-1.13a11.44,11.44,0,0,0,4.6-2.18,6.72,6.72,0,0,0,1.85-2.6c-.14-2-.29-4.13-.42-6.4s-.31-4.2-.53-5.8a4.31,4.31,0,0,0-2.7-2.46c-1.21-.36-2.22-.62-3-.77a1.1,1.1,0,0,1-.81-1.07,1,1,0,0,1,.86-1,42.22,42.22,0,0,1,6.16,0q3.06.23,6.14.71T431,60.45q3.12.59,6.22.88c1.18.56,1.19,1.07.05,1.53l-.49.21a6.16,6.16,0,0,0-3.56,2.08,8.82,8.82,0,0,0-1.68,3.45c.1,1,.18,2.05.21,3s.08,2,.12,2.93l.08,6.13c.15,1.59.32,3.25.52,5s.4,3.42.62,5.06.42,3.13.61,4.49.36,2.47.51,3.31a.73.73,0,0,0,0,.41l.14.44,7.55-18.84c.5-1.06,1-2,1.47-3s.93-1.9,1.34-2.9c.25-.91.51-1.86.77-2.86a10,10,0,0,0,.37-2.83,4.59,4.59,0,0,0-.63-2.32,3.56,3.56,0,0,0-2-1.44.53.53,0,0,0-.28,0S442.8,65.25,442.65,65.22ZM419.53,79.77l-2,1.36a6.52,6.52,0,0,1,2.25,1.24Zm.77-17.69a1.13,1.13,0,0,0,0,.36.84.84,0,0,1,0,.35L423.7,62Zm9,1c-1.33.29-2.74.56-4.22.82s-2.94.57-4.36.91a1,1,0,0,0,0,.51l8.5-.72A8,8,0,0,1,429.26,63.08Zm-.11,4.77c-1.4.21-2.77.39-4.12.54s-2.65.34-3.9.58l.06.31v.61l3.95-.26c1.34-.09,2.74-.2,4.19-.33Zm-7.46,5.91c1.3-.09,2.6-.2,3.91-.33s2.61-.26,3.92-.42l-.1-.63-7.78,1.07Zm.24,2.29c1.25-.24,2.52-.44,3.79-.6s2.58-.36,3.9-.59c0-.06,0-.1,0-.11s0,0,0-.1c-1.3.09-2.59.23-3.87.43s-2.57.34-3.87.43Zm.28,3.31.09.12a1.6,1.6,0,0,0,.07.83l7.56-1.11-.09-.12c-1.22,0-2.43.07-3.64.07s-2.38.08-3.54.2Zm2,22.79a5.31,5.31,0,0,1-.66.79,10,10,0,0,1-.75.68l1.67.11Zm-1.35-17.88a.3.3,0,0,1,.08.22c1.08-.13,2.18-.3,3.31-.49l3.34-.59-3.46.36Zm7.33,1.3c-1.15.12-2.31.25-3.47.4l-3.49.51.18.85c1.16-.12,2.29-.26,3.42-.42s2.26-.3,3.41-.42A2.82,2.82,0,0,0,430.18,85.57Zm.22,3c-1.07.07-2.14.19-3.23.36s-2.21.3-3.36.42a.2.2,0,0,0,0,.16.36.36,0,0,1,0,.26l3.28-.6c1.1-.2,2.18-.36,3.26-.5Zm.16,2.17-3.14.42c-1,.15-2.06.32-3.15.52a.62.62,0,0,0,.13.54l6.24-.75Zm-5.76,3.49-.05.29,2.37-.56ZM431,95.4c-1,.15-2,.34-3,.56l-2.89.67.09.12a22.25,22.25,0,0,1,2.88-.32q1.49-.08,3-.3A4.29,4.29,0,0,1,431,95.4Zm.24,2.9,0-.1c-1.08.14-2.08.24-3,.3s-1.77.16-2.55.28l.16,1Zm-4.64,4.21c.85-.11,1.73-.19,2.65-.26s1.83-.11,2.74-.14l-.38-1.6-5.3,1.13Zm-.27-25.31,3.4-.07a1,1,0,0,0,0-.51Zm3.6,4.25.06-.3-3.48.46ZM429.12,62l.2.14,0-.09Zm2.42.36c0,.13-.07.36-.13.69a1.56,1.56,0,0,0,0,.71l2.52-1.35a8,8,0,0,0-1.18,0A7.3,7.3,0,0,1,431.54,62.39ZM449.05,66l-1.2-.23.52,1.43Zm1.41,2.1,2.28-1.29-1.52-.29Z"/>
          <path class="cls-11" d="M483.51,102.46a4,4,0,0,1,1.69,1.4,4.88,4.88,0,0,1,.69,2.07,6.22,6.22,0,0,1,.22,3,3.09,3.09,0,0,1-1.4,2.11,14.59,14.59,0,0,1-2.79,3.43,10.94,10.94,0,0,1-4.46,2.35,5.32,5.32,0,0,1-1.63.48c0,.07-.06.09-.13.07a9,9,0,0,1-1.18.09,14.28,14.28,0,0,1-6.07-1c-1.32-.5-2.73-1.12-4.22-1.84a10.13,10.13,0,0,1-3.6-2.82,13,13,0,0,1-2-4,20.25,20.25,0,0,1-2.38-7.2,29.43,29.43,0,0,1,0-7.9l-.08-.13c-.53-.28-.7-.66-.49-1.12a1.07,1.07,0,0,1,1-.71,29.85,29.85,0,0,1,2.14-6.88,28.3,28.3,0,0,1,2.7-4.34,18,18,0,0,1,4.66-5.15,17.65,17.65,0,0,1,5.82-2.9,16.71,16.71,0,0,1,6.26-.55,15.74,15.74,0,0,1,6,1.82.53.53,0,0,1,.21.11.86.86,0,0,0,.3.13.35.35,0,0,0,.19.16l1.26.87a17,17,0,0,1,3.64,3.91,16.64,16.64,0,0,1,2.3,5.42,22.24,22.24,0,0,1,.71,5.13,14.5,14.5,0,0,1-.68,4.74,1.65,1.65,0,0,0,.85,1.49l.86.24a.76.76,0,0,1,.6.73,2.87,2.87,0,0,1-.06,1.07c-.29,1-.74,1.53-1.34,1.5q-5.08-.36-10.25-1.07t-10.35-1.52a4.09,4.09,0,0,0-4,2.83c0,.34,0,.61-.05.82a3.57,3.57,0,0,1-.08.49c-.11.67-.21,1.66-.31,3s-.14,2.72-.12,4.18a36.16,36.16,0,0,0,.26,4.06,5.14,5.14,0,0,0,.92,2.7,1.36,1.36,0,0,0,2,0,7.91,7.91,0,0,0,1.78-2.47,29.28,29.28,0,0,0,1.43-3.5,23.16,23.16,0,0,0,.85-3.08,3.42,3.42,0,0,1,.56-2,3.22,3.22,0,0,1,2-1.22l.13-.07a5.27,5.27,0,0,1,3.24-.24A6.06,6.06,0,0,1,483.51,102.46Zm-25.1-5.92a4.14,4.14,0,0,1,.19-1.09,1,1,0,0,0-.56,0,4.56,4.56,0,0,0-.11,1.22l.37-.11Zm-.32,2-.11,0a.28.28,0,0,0,.06.22Zm.72-5.1-.24,0,.32.09,0-.1Zm.48-2.56a1.43,1.43,0,0,0-.56-.06l-.08.29.72-.11Zm.19-2.76-.11.39.22.06Zm.43,14.66a1.17,1.17,0,0,0,0,.36.9.9,0,0,1,0,.35c1,0,2,0,2.89,0s1.88,0,2.86.07a3.19,3.19,0,0,1,0-.93l.13-.48c-1,.06-2,.17-3,.31S460.86,102.69,459.91,102.77Zm0,2.81a.39.39,0,0,1,0,.32c.86,0,1.73-.05,2.61-.05a23.23,23.23,0,0,0,2.64-.15Zm6.47-6.72a3.25,3.25,0,0,1,.16-1l-2.27.1c-.66,0-1.19,0-1.58.08l-2.38.27a.17.17,0,0,0,0,.16s0,.13,0,.26l2-.08Zm-5.32,9.64,4.92.12,0-1.15c-.86,0-1.77,0-2.72,0a22.56,22.56,0,0,0-2.85.09c0,.06,0,.1.08.12Zm-.19-13a2.55,2.55,0,0,0-.13.89l6.1-.38c0-.13,0-.21,0-.26a.17.17,0,0,1,0-.16l-3.11,0C462.76,95.53,461.81,95.51,460.9,95.47Zm.45-7.46a.65.65,0,0,0,0,.3.72.72,0,0,1,0,.31c1.52.07,2.91.1,4.19.07s2.18,0,2.71,0l.22.06a1.75,1.75,0,0,0,.05-.4,1.75,1.75,0,0,1,0-.4Q464.62,87.88,461.35,88Zm8.4-4.52h-7.49l-.21.77,7.41.29Zm-5.82,27.67c.41-.1.81-.17,1.21-.24s.81-.14,1.22-.23l-.11,0-1.55,0c-.5,0-1,0-1.55,0Zm6.87-30.61a5.61,5.61,0,0,1,.28-.8,4.21,4.21,0,0,0,.25-.71l-3.94.52c-1.28.16-2.44.34-3.5.53a30.35,30.35,0,0,0,3.27.29C468.3,80.42,469.51,80.48,470.8,80.55Zm-6.29,12.28,1.43.24a8.09,8.09,0,0,0,1.46.15l.19-.68c-.55.06-1.09.1-1.59.13S465,92.76,464.51,92.83Zm2.33,19.86a.64.64,0,0,0-.37.11,1,1,0,0,1,.31.13.7.7,0,0,0,.3.14ZM473,75.87a5.38,5.38,0,0,1,.51-.79,7.12,7.12,0,0,1,.58-.67,10.11,10.11,0,0,0-1.48.16c-.53.1-1.07.17-1.62.23l-1.85.84Zm-3.4,16.82a1.75,1.75,0,0,0-.05.4,1.29,1.29,0,0,1-.06.4c.83.09,1.62.19,2.4.3A17.68,17.68,0,0,0,474,94l3.08-.28c-1.27-.15-2.51-.3-3.73-.47S470.87,92.9,469.62,92.69Zm10.22-19a3.4,3.4,0,0,0-2.86,1,12.32,12.32,0,0,0-2.49,3.36A30.44,30.44,0,0,0,472.38,83q-.94,2.75-1.69,5.45A3.49,3.49,0,0,0,472,90.48c.69.58,1.13.92,1.33,1l5.19.81a3.59,3.59,0,0,0,2.73-1.11,1.66,1.66,0,0,1,.32-1.16,21.75,21.75,0,0,1,.63-2.47c.17-.47.32-1,.46-1.48a9.09,9.09,0,0,0,.08-1.54c0-.49,0-.94-.08-1.37a17.88,17.88,0,0,1-.3-2.21c-.1-1-.24-2.08-.41-3.13a14.15,14.15,0,0,0-.72-2.79C480.88,74.26,480.43,73.81,479.84,73.71Zm-4.92,38.52a2.87,2.87,0,0,1-.43.72c1-.07,2-.09,3-.07s1.9,0,2.82,0l.14-.07Zm3.86-1.84-2.89,0-.06.2,4.47.51Zm5.56-3.44a4.92,4.92,0,0,0-.29-1c-1.13-.1-2.26-.19-3.39-.26s-2.32-.1-3.54-.1l.24.38c1.1.17,2.25.33,3.44.49S483.16,106.76,484.34,107Zm-5.59-3.52a1.17,1.17,0,0,1-.46,0l-.4.2,4,.18c-.15,0-.23-.08-.26-.13s-.11-.08-.25-.12l-.64-.18A2.69,2.69,0,0,0,478.75,103.43Zm3.85,5.22a8.87,8.87,0,0,1-1.56-.17c-.51-.11-1-.2-1.54-.28l.59.38Zm.5-33.41a1.83,1.83,0,0,1,.24.59,2.1,2.1,0,0,0,.25.59l1.92-.3-1.26-.87Zm.65,17.22-.16.57.64.18,5.67-.5.16-.58-5.35.18Zm.53-14a.25.25,0,0,0,.06.22l3.74.21-.77-.94-1.5.2A11.21,11.21,0,0,0,484.28,78.48Zm4.79,2.26-2.35,0c-.74,0-1.4,0-2,0l.13.77c.77,0,1.52,0,2.27,0l2.28-.14-.21-.48Zm1.47,5.91-5.75.8.08.12,2.78.15c1,.06,1.92.08,2.92.08Zm-2-3.34a15.22,15.22,0,0,0-1.79,0,15.39,15.39,0,0,1-1.8,0l-.05.19Z"/>
          <path class="cls-11" d="M524.08,84.93a.92.92,0,0,1,1,.16,1.1,1.1,0,0,1,.28,1.17,27.18,27.18,0,0,1-.72,2.77c-.28.86-.53,1.71-.76,2.55a8.43,8.43,0,0,1,5-.79,14.22,14.22,0,0,1,5.28,1.73,15.84,15.84,0,0,1,4.43,3.72A11,11,0,0,1,541,101.3a3.53,3.53,0,0,1-.14,1.82,8,8,0,0,1-.9,2,4.9,4.9,0,0,1-2.37,2.27,9.83,9.83,0,0,1-3.82,1.05,9.47,9.47,0,0,1-4-.57,4.46,4.46,0,0,1-2.7-2.48,5.76,5.76,0,0,1-.63-3.12,1,1,0,0,1,.14-1.33l.41-1.13a8.15,8.15,0,0,1,.92-2.17,5.78,5.78,0,0,0,.78-2.11.59.59,0,0,0-.19-.6,6.87,6.87,0,0,0-.61-.6c-.21-.19-.46-.4-.77-.66a4.69,4.69,0,0,0-2.15.86,10.47,10.47,0,0,0-1.87,1.71,20.28,20.28,0,0,0-1.51,2l-1.23,1.89c-.32.67-.63,1.35-.93,2.06s-.59,1.43-.87,2.18-.55,1.6-.81,2.53-.55,1.92-.85,2.94-.6,2-.89,2.92a19.86,19.86,0,0,1-1,2.45l-2.54,5.64a.93.93,0,0,1,.07.76,6.15,6.15,0,0,0-.72,3.72c.19,1.09,1.08,2,2.68,2.84l3,1.11c.78.22,1.11.62,1,1.21s-.58.81-1.32.69a.41.41,0,0,0-.28-.05.49.49,0,0,1-.28,0,17.29,17.29,0,0,1-4-1.59,5.24,5.24,0,0,0-1.12-.47c-.43-.12-.85-.26-1.27-.41l-.31-.12a.55.55,0,0,1-.3.16.92.92,0,0,0-.26.07,1.54,1.54,0,0,1-.56-.1c-.07,0-.09-.06-.08-.09s0-.06-.09-.08l-.07-.14c-.14-.05-.18-.13-.14-.26q-2.67-.77-5.31-1.32a46.88,46.88,0,0,1-5.28-1.41,17.72,17.72,0,0,1-3.18-1.33c-1.2-.62-1.9-1-2.1-1-.68-.32-.93-.77-.75-1.34s.62-.8,1.37-.67l.1,0c2,.68,3.51.8,4.43.35s1.71-1.7,2.4-3.78a.36.36,0,0,1,.12-.16.48.48,0,0,0,.12-.17q.3-1.48.63-3c.22-1,.44-2,.67-3.1a3.39,3.39,0,0,0-1.16-2.49,17.56,17.56,0,0,0-2.78-1.6c-.55-.42-.69-.86-.4-1.32a.94.94,0,0,1,1.26-.38c1.81.66,3.26.7,4.34.1a5.6,5.6,0,0,0,2.36-2.22l4.64-11.63a6.91,6.91,0,0,1,.29-1.11l.4-1.08a2.89,2.89,0,0,0-1.2-2.85,32.83,32.83,0,0,0-3.88-2c-.67-.32-.9-.74-.71-1.28s.69-.68,1.48-.47a18.72,18.72,0,0,0,4.34.43c2,0,4.05.14,6,.31a24.16,24.16,0,0,1,3.61.63c1,.28,2.27.54,3.68.77Zm-25.33,38.56a.36.36,0,0,1,0-.32l-.32.2Zm2.26.62,1.94.51,1.73.43,4.05-.06.44-1.18c-1.55-.09-3-.13-4.4-.12s-2.59,0-3.63,0Zm1.07-4.83a8.74,8.74,0,0,1-.28,1.39l8.58-.79.27-.75c-1.5,0-3,0-4.41.08s-2.81,0-4.13,0Zm.61-10.66A3.78,3.78,0,0,1,503,108a3.88,3.88,0,0,0,.28-.59,5,5,0,0,1-1.39.23Zm8.9,7.65-4.47.07c-1.47,0-2.82.1-4,.21l-.24.66a34,34,0,0,0,4.09.12l4.31-.12Zm-7.51-2.12c1.46-.1,2.91-.17,4.34-.22l4.06-.1.25-.66c-1.37.07-2.76.11-4.19.12s-2.78-.05-4.08-.17Zm9.68-3.79c-1.43,0-2.85,0-4.25,0s-2.7-.06-3.91,0l-.27.75c2.73.08,5.46.06,8.19-.08Zm-7.36-2.18,1-.07-.94,0Zm2-5.36-.27.76c1-.07,1.95-.12,2.95-.14s2,0,3,0l-3-.34Zm.69-1.87,1.74.1c1.09,0,2.18.13,3.28.25s2.18.24,3.25.34l.14-.37a42.19,42.19,0,0,0-4.31-.36c-1.36,0-2.72-.06-4.06-.06Zm1.39-4.4c1.29.12,2.67.24,4.13.35s2.94.26,4.44.46l.32-.84c-1.46-.11-2.92-.24-4.36-.38a34.88,34.88,0,0,0-4.33-.15Zm4.94,9.71.11-.28-4.21-.16Zm-4-12.66-.11.28,2,.09Zm9.82-2.25c-1.48,0-3-.08-4.58-.09s-3.08,0-4.52,0a.22.22,0,0,0,0,.16.22.22,0,0,1,0,.16c1.25.24,2.6.49,4.05.74s2.92.47,4.43.67Zm-7.92-2.6-.24.34,2.39-.08Zm4.27-1.62a38.76,38.76,0,0,0,4.75.58l.28-.75a.55.55,0,0,1-.35,0l-.1,0a.55.55,0,0,1-.35,0c-.58.08-1.21.14-1.91.21a8.89,8.89,0,0,1-1.94,0Zm11.34,17.4a2,2,0,0,0,.77.82l1.9-.37a.17.17,0,0,1-.12-.15c0-.07-.08-.14-.22-.19l-2.43-.15Zm1.55-9,4-.46-.18-.17a10.91,10.91,0,0,1-1.92-.23c-.66-.14-1.33-.26-2-.36Zm4.94,4.27a.33.33,0,0,1-.18-.17l-3-.06-.38.08a1,1,0,0,0-.32.84L536,100Zm2.43,3a2.19,2.19,0,0,0-.21-1c-.88,0-1.77.09-2.67.19l-2.71.28Zm-.07-4.29a4.6,4.6,0,0,0-.8-1l-1.11.12a12.11,12.11,0,0,1,1.21.88Z"/>
          <path class="cls-11" d="M545.71,137.54l.33.91a2.53,2.53,0,0,1-.49,2.24,3.66,3.66,0,0,1-2,1.23,6.2,6.2,0,0,1-2.68,0,3.59,3.59,0,0,1-2.18-1.28A2.62,2.62,0,0,1,538,138a3.85,3.85,0,0,1,1.87-1.91,5.15,5.15,0,0,1,3-.5,3.84,3.84,0,0,1,2.74,1.64Zm-3.35.18a1.32,1.32,0,0,0-1,.28c-.26.22-.31.62-.16,1.19s.31.68.52.77a.43.43,0,0,0,.54-.14,2,2,0,0,0,.38-.71,1.44,1.44,0,0,0-.12-1Zm6.44-23.62c.47-1.47.94-2.86,1.4-4.19s.92-2.62,1.39-3.87a1.42,1.42,0,0,1,.18-.69l.12-.28,2.33-6.73a7.78,7.78,0,0,1,.74-3c.44-.9.92-1.86,1.44-2.87a2.94,2.94,0,0,0,.13-.44,1.67,1.67,0,0,1,.13-.43,3.71,3.71,0,0,1,2.48-3.18,6.72,6.72,0,0,1,2.22-.66,6,6,0,0,1,3.7,1.12,7.47,7.47,0,0,1,2.83,2.82c.33.14.46.49.39,1,.15.21.12.56-.1,1a8.73,8.73,0,0,0-.93,1.72,6.48,6.48,0,0,1-.63,1.31c-.6,1.2-1.3,2.51-2.09,3.95s-1.63,2.91-2.53,4.41a45.08,45.08,0,0,1-2.23,4.27c-.7,1.22-1.37,2.46-2,3.7s-1.33,2.44-2,3.6c-1.36,2.18-2.6,4.38-3.74,6.62s-2.3,4.43-3.49,6.61l-.28.64c0,.06-.06.08-.09.07s-.07,0-.09.07a.64.64,0,0,0-.25.43.77.77,0,0,1-.26.44c0,.49-.35.72-.91.7s-1-.18-1.34-.26a7,7,0,0,1-1.16-.4l-.1-.05a1.12,1.12,0,0,1-.63-.49.68.68,0,0,1,0-1.19q.54-2.06,1.64-5.28c.74-2.16,1.47-4.24,2.19-6.26l.52-1.19a.71.71,0,0,1,.1-.5l.2-.46Zm-1.54,11c-.16.73-.31,1.41-.46,2a16.55,16.55,0,0,0-.35,1.76c.24-.55.5-1.11.79-1.68s.6-1.14.94-1.72a.26.26,0,0,1,0-.22Zm2.94-3.41a9.74,9.74,0,0,0-1.6-.48l-.2.46,1.6.48Zm2-3.17.12-.28a15.51,15.51,0,0,0-2.44-.51l-.12.27ZM550.83,115l3,.78L551,114.71Zm.74-2c.6.11,1.14.2,1.64.27a11.2,11.2,0,0,1,1.59.37l.16-.36c-.59-.12-1.15-.23-1.66-.35s-1-.21-1.57-.3Zm.88-2.57a.36.36,0,0,0,0,.21.34.34,0,0,1,0,.2l3.31.47,0-.1Zm5.12-2.57.08-.18-3.76-1.1-.28.64Zm1.08-1.93a.42.42,0,0,1,.14-.16.51.51,0,0,0,.13-.16l-4.25-1.09-.08.18Zm1.53-2.39a3.71,3.71,0,0,0,.54-1l-5-.86-.08.19Zm1-2.93c-.8-.2-1.55-.42-2.26-.66s-1.43-.51-2.18-.84a1.24,1.24,0,0,0-.1.39,1.6,1.6,0,0,1-.11.39Zm1.63-1.8a1.12,1.12,0,0,1,.2-.3,1,1,0,0,0,.19-.3l-5.86-1,0,.09Zm-5.09-3.32H558c-.14-.06-.19-.12-.16-.18Zm1.18-3,6.4,1.7a.48.48,0,0,1,.13-.16.38.38,0,0,0,.13-.16Zm.43-1.56,3.15.72c1.06.24,2.12.45,3.18.62l-.39-.5-4.6-1.68A2.41,2.41,0,0,0,559.37,91Z"/>
        </g>
      </g>
    </g>
  </g>
</svg>
