<svg xmlns="http://www.w3.org/2000/svg" width="90" height="120" viewBox="0 0 90 120">
  <defs>
    <style>
      .cls-1 {
        fill: #cabca6;
      }
    </style>
  </defs>
  <g id="Layer_33" data-name="Layer 33">
    <path class="cls-1" d="M80.52,12.76a1.77,1.77,0,0,1,2.18-1.45,6.49,6.49,0,0,1,2.68.81,5.79,5.79,0,0,0,2.33,1.13c.59.07,1.2.69,1.82,1.85.28.88.19,1.5-.25,1.86a15.11,15.11,0,0,0-1.47,1.39q-15.87,19-31.27,37.86T25.6,94.43q-4.11,4.62-7.9,9.37a112.06,112.06,0,0,1-7.95,8.9c-1.82,1.13-3.07,1.19-3.75.16,0,.13-.31.11-.78-.07a13.63,13.63,0,0,1-1.47-.69,13.46,13.46,0,0,1-1.48-.92c-.49-.34-.68-.64-.57-.91L1.57,110l0-.48.39-1q8-9.33,15.5-18.29T32.19,72.34q7.26-8.93,14.6-18.06T62,35.53a37.62,37.62,0,0,1,3.17-3.72c2-2.21,4.14-4.62,6.37-7.2s4.27-5.07,6.11-7.43S80.44,13.35,80.52,12.76ZM9.93,107.47a6.5,6.5,0,0,1-1.88-.5l-1.22,1.37,1.2.47c.13,0,.19.11.16.18s0,.12.16.17a10.33,10.33,0,0,0,.75-.74C9.36,108.14,9.64,107.82,9.93,107.47Zm8.19-10.41-1.41-.55L14,100.05l2,.1Zm1.47-3.81-.36.32,1.41.55c.1-.27.2-.42.29-.46s.19-.2.3-.46Zm3.54-4.38a8.87,8.87,0,0,1,1.56.14l.71-.64a2.42,2.42,0,0,0-.74-.18,2,2,0,0,1-.74-.17Zm8.5-8.23.94-1.24-1.28-.27L30.07,80.5ZM37,72.13a3.34,3.34,0,0,0,1.36.07l3-3.67-1.28-.26Zm10.35-13a21.83,21.83,0,0,1-1.81,2.29l1.56.15,1.53-2.17Zm5.55-6.6,1.29.27A20.34,20.34,0,0,1,57.3,48.9l-1.21-.46Zm8.3-8.3-1.29-.27a3.23,3.23,0,0,0-.86,1l1,.39Zm1.39-3.61a3.18,3.18,0,0,1,1.36.07l3.47-4.19L66.21,36a2.28,2.28,0,0,1-.37.66,1.55,1.55,0,0,0-.29.46Zm8.52-8.9A2.35,2.35,0,0,1,70,31.5c-.1.27-.2.42-.29.46a.45.45,0,0,0-.22.26l1,.39a.94.94,0,0,1,.25-.36A1.35,1.35,0,0,0,71.11,31.69Zm5.82-7.88c-.52.57-1.06,1.16-1.61,1.79s-1.12,1.3-1.7,2l.88.11A23,23,0,0,0,76,25.88,19.82,19.82,0,0,1,77.54,24Zm7-7.41a.46.46,0,0,0-.34,0,.45.45,0,0,1-.34,0l-2.76,3.54.4.15a18.45,18.45,0,0,0,1.52-1.83A19.67,19.67,0,0,1,84,16.4Z"/>
  </g>
</svg>
