<svg xmlns="http://www.w3.org/2000/svg" width="110" height="110" viewBox="0 0 110 110">
  <defs>
    <style>
      .cls-1 {
        fill: #c1b891;
      }

      .cls-2 {
        fill: #d8cfa0;
      }

      .cls-3 {
        fill: #b5b5b5;
      }

      .cls-4 {
        fill: #d1d0cd;
      }

      .cls-5 {
        fill: #938d74;
      }

      .cls-6 {
        fill: #a8a182;
      }

      .cls-7 {
        fill: #fcf759;
      }
    </style>
  </defs>
  <g id="harina">
    <g>
      <g>
        <path class="cls-1" d="M19.6,77.05h-.13a6.15,6.15,0,0,1-5.85-6.37V39.86a6.15,6.15,0,0,1,5.85-6.38h.33a38.48,38.48,0,0,1,5.12-12.77h-14A38.76,38.76,0,0,0,5,41.51V70.08A39.14,39.14,0,0,0,9.51,88.43h14A38.6,38.6,0,0,1,19.6,77.05Z"/>
        <path class="cls-2" d="M19.8,33.48H68.25a6.16,6.16,0,0,1,5.86,6.38V70.68a6.15,6.15,0,0,1-5.86,6.37H19.6a38.6,38.6,0,0,0,3.9,11.38h77A39.14,39.14,0,0,0,105,70.08V41.51a38.76,38.76,0,0,0-5.94-20.8H24.92A38.48,38.48,0,0,0,19.8,33.48Z"/>
        <path class="cls-3" d="M19,41.51a40,40,0,0,1,.82-8h-.33a6.15,6.15,0,0,0-5.85,6.38V70.68a6.15,6.15,0,0,0,5.85,6.37h.13a39.89,39.89,0,0,1-.62-7Z"/>
        <path class="cls-4" d="M74.11,70.68V39.86a6.16,6.16,0,0,0-5.86-6.38H19.8a40,40,0,0,0-.82,8V70.08a39.89,39.89,0,0,0,.62,7H68.25A6.15,6.15,0,0,0,74.11,70.68Z"/>
        <path class="cls-1" d="M29,15.41H15a35.92,35.92,0,0,0-4.06,5.3h14A36,36,0,0,1,29,15.41Z"/>
        <path class="cls-1" d="M30.2,15.41H29a36,36,0,0,0-4.08,5.3H99.06A35.92,35.92,0,0,0,95,15.41Z"/>
        <path class="cls-5" d="M24.35,8.28V6.38A6.15,6.15,0,0,1,30.2,0H12.84A4.14,4.14,0,0,0,8.9,4.29V8.63H23.7Z"/>
        <path class="cls-5" d="M24.35,8.28l-.65.35h.65Z"/>
        <path class="cls-5" d="M12.84,15.41H15a34.1,34.1,0,0,1,8.7-6.78H8.9v2.49A4.14,4.14,0,0,0,12.84,15.41Z"/>
        <path class="cls-5" d="M24.35,9v-.4H23.7A34.1,34.1,0,0,0,15,15.41H29l.1-.12A6.28,6.28,0,0,1,24.35,9Z"/>
        <path class="cls-5" d="M29.1,15.29l-.1.12h1.2A5.08,5.08,0,0,1,29.1,15.29Z"/>
        <path class="cls-6" d="M24.35,6.38v1.9a31.32,31.32,0,0,1,14.37-3.5H71.28a31.29,31.29,0,0,1,15,3.85h16.75V4.29A4.14,4.14,0,0,0,99.11,0H30.2A6.15,6.15,0,0,0,24.35,6.38Z"/>
        <path class="cls-6" d="M37.68,8.63a31.32,31.32,0,0,1,15-3.85h-14a31.32,31.32,0,0,0-14.37,3.5v.35Z"/>
        <path class="cls-6" d="M86.3,8.63a31.29,31.29,0,0,0-15-3.85H52.7a31.32,31.32,0,0,0-15,3.85Z"/>
        <path class="cls-6" d="M95,15.41h4.11a4.14,4.14,0,0,0,3.94-4.29V8.63H86.3A34.1,34.1,0,0,1,95,15.41Z"/>
        <path class="cls-6" d="M37.68,8.63H24.35V9a6.28,6.28,0,0,0,4.75,6.26A34,34,0,0,1,37.68,8.63Z"/>
        <path class="cls-6" d="M29.1,15.29a5.08,5.08,0,0,0,1.1.12H95a34.1,34.1,0,0,0-8.7-6.78H37.68A34,34,0,0,0,29.1,15.29Z"/>
        <path class="cls-1" d="M26.76,93.53a37.78,37.78,0,0,1-3.26-5.1h-14a37.72,37.72,0,0,0,3.25,5.1Z"/>
        <path class="cls-1" d="M26.76,93.53H97.24a37.72,37.72,0,0,0,3.25-5.1h-77A37.78,37.78,0,0,0,26.76,93.53Z"/>
        <path class="cls-5" d="M20.93,103.62v-2.33c-.37-.26-.74-.51-1.1-.78H7.93v5A4.28,4.28,0,0,0,12,110H26.79A6.16,6.16,0,0,1,20.93,103.62Z"/>
        <path class="cls-5" d="M19.83,100.51c.36.27.73.52,1.1.78v-.78Z"/>
        <path class="cls-5" d="M12.76,93.53H12A4.27,4.27,0,0,0,7.93,98v2.55h11.9A35.14,35.14,0,0,1,12.76,93.53Z"/>
        <path class="cls-5" d="M20.93,99.9a6.15,6.15,0,0,1,5.83-6.37h-14a35.14,35.14,0,0,0,7.07,7h1.1Z"/>
        <path class="cls-5" d="M26.79,93.53h0Z"/>
        <path class="cls-6" d="M71.28,106.81H38.72a31.65,31.65,0,0,1-17.79-5.52v2.33A6.16,6.16,0,0,0,26.79,110H98a4.28,4.28,0,0,0,4.07-4.44v-5H90.17A31.65,31.65,0,0,1,71.28,106.81Z"/>
        <path class="cls-6" d="M20.93,100.51v.78a31.65,31.65,0,0,0,17.79,5.52h14a31.65,31.65,0,0,1-18.87-6.3Z"/>
        <path class="cls-6" d="M52.7,106.81H71.28a31.65,31.65,0,0,0,18.89-6.3H33.83A31.65,31.65,0,0,0,52.7,106.81Z"/>
        <path class="cls-6" d="M98,93.53h-.76a35.14,35.14,0,0,1-7.07,7h11.9V98A4.27,4.27,0,0,0,98,93.53Z"/>
        <path class="cls-6" d="M20.93,99.9v.61h12.9a35.14,35.14,0,0,1-7.07-7A6.15,6.15,0,0,0,20.93,99.9Z"/>
        <path class="cls-6" d="M26.76,93.53a35.14,35.14,0,0,0,7.07,7H90.17a35.14,35.14,0,0,0,7.07-7H26.76Z"/>
      </g>
      <path class="cls-7" d="M48.63,56.75c4-3.76,2.36-5.06,5-9.89-3.72.71-5.68.3-9.57,4.12-3.44,3.38-2.94,4.79-5.49,9.46l.13-9.12c7-3.83,6.4-1.48,10.2-5.21,4.09-4,2.39-5.27,5.06-10.32-3.78.89-5.76.56-9.7,4.64-3.47,3.59-3,5-5.54,9.9V50c1.61-5.19,2.9-5.78,3-10.88.15-5.69-1.36-6.86-3.16-10l0,.1v.12l0-.1c-1.86,3.5-3.34,4.9-3.34,10.41,0,5,1.21,5.44,2.64,10.51v.44c-2.38-4.71-1.86-6.13-5-9.32-3.36-3.4-5-2.86-8-3.23,2,4.24.62,5.49,3.86,8.87S31.36,48,37.8,51.55l-.12,9.08c-2.35-4.71-1.83-6.09-5-9.34-3.33-3.49-5-3-8-3.53,2,4.25.61,5.41,3.82,8.87s2.71,1.24,9.08,5l-.11,8.58c-2.33-4.72-1.82-6.05-4.91-9.38-3.29-3.55-4.93-3.17-7.88-3.79,2,4.25.61,5.34,3.78,8.87s2.68,1.33,9,5.25l-.11,8.32a.51.51,0,0,0,.43.52.4.4,0,0,0,.43-.42L38.41,71c6.83-3.1,6.26-.89,10-4.16,4-3.52,2.34-4.86,4.94-9.48-3.69.54-5.62,0-9.47,3.64-3.4,3.16-2.9,4.57-5.42,9.05l.12-8.62C45.45,58,44.88,60.24,48.63,56.75Z"/>
    </g>
  </g>
</svg>
