<svg xmlns="http://www.w3.org/2000/svg" xmlns:xlink="http://www.w3.org/1999/xlink" width="1920" height="1080" viewBox="0 0 1920 1080">
  <defs>
    <style>
      .cls-1 {
        fill: none;
      }

      .cls-2 {
        clip-path: url(#clip-path);
      }

      .cls-3 {
        fill: #5b9b56;
      }

      .cls-4 {
        fill: #603813;
      }

      .cls-5 {
        fill: #6dac67;
      }

      .cls-6 {
        fill: #3e7738;
      }
    </style>
    <clipPath id="clip-path">
      <rect class="cls-1" x="0.5" y="5" width="1920" height="1080"/>
    </clipPath>
  </defs>
  <g id="welcome_forground">
    <g class="cls-2">
      <g>
        <g id="fronttree">
          <g>
            <rect class="cls-3" x="1769.71" y="-316.66" width="356.43" height="772.88" rx="178.21"/>
            <rect class="cls-3" x="1666.96" y="-184.32" width="237.08" height="514.09" rx="118.54"/>
          </g>
          <g id="tronco">
            <polygon class="cls-4" points="1923.15 6.93 1861.07 6.93 1832.55 1155.94 1951.67 1155.94 1923.15 6.93"/>
            <path class="cls-4" d="M1988.51,510.71l.49-20.82-90.12,82.45c-11.06,10.12-17.34,22.09-13.23,25.94l36.75,34.38c4.11,3.84,15.64-3.22,25-14.94l76.6-95.84h-30.3C1990.7,521.88,1988.37,516.82,1988.51,510.71Z"/>
            <g>
              <path class="cls-4" d="M1826.31,352.38l-.28-13.6,52.15,53.88c6.41,6.62,10,14.44,7.66,16.95l-21.27,22.47c-2.38,2.52-9-2.1-14.47-9.76l-44.33-62.64h17.53C1825,359.68,1826.39,356.38,1826.31,352.38Z"/>
              <path class="cls-4" d="M1816,334.16l-13.46,14.23a1.9,1.9,0,0,0-.31.42L1808.36,52H1820a.16.16,0,0,1,.15.16l5.9,286.66-1.93-2C1821.1,333.7,1817.53,332.57,1816,334.16Z"/>
              <path class="cls-4" d="M1802.19,353.31c0-.31,0-.61,0-.93l.07-3.57a1.9,1.9,0,0,1,.31-.42L1816,334.16c1.51-1.59,5.08-.46,8.08,2.63l1.93,2,.28,13.6c.08,4-1.27,7.3-3,7.3h-17.53l-1.43-2A14.78,14.78,0,0,1,1802.19,353.31Z"/>
            </g>
            <g>
              <path class="cls-4" d="M1782.27,279.29l-.19-9.14,35.07,36.23c4.31,4.44,6.75,9.71,5.15,11.4l-14.3,15.1c-1.6,1.69-6.09-1.41-9.73-6.56l-29.81-42.12h11.79C1781.41,284.2,1782.32,282,1782.27,279.29Z"/>
              <path class="cls-4" d="M1775.35,267l-9,9.56a1.54,1.54,0,0,0-.21.29l4.11-199.61H1778a.1.1,0,0,1,.09.11l4,192.76-1.3-1.34C1778.77,266.73,1776.36,266,1775.35,267Z"/>
              <path class="cls-4" d="M1766.05,279.91c0-.2,0-.41,0-.62l0-2.4a1.54,1.54,0,0,1,.21-.29l9-9.56c1-1.07,3.42-.31,5.43,1.77l1.3,1.34.19,9.14c0,2.69-.86,4.91-2,4.91h-11.79l-1-1.36A10.07,10.07,0,0,1,1766.05,279.91Z"/>
            </g>
            <g>
              <path class="cls-4" d="M1733.7,181.4l-.11-5.08,19.47,20.11c2.4,2.47,9.14,7.48,17.59,12.17v18.76c-.89.93-26.05-17-28.07-19.85L1726,184.12h6.54C1733.22,184.12,1733.73,182.89,1733.7,181.4Z"/>
              <path class="cls-4" d="M1729.85,174.59l-5,5.31a1,1,0,0,0-.12.16L1727,69.22h4.34a.06.06,0,0,1,.06.06l2.2,107-.72-.75C1731.75,174.42,1730.42,174,1729.85,174.59Z"/>
              <path class="cls-4" d="M1724.69,181.74c0-.11,0-.23,0-.34l0-1.34a1,1,0,0,1,.12-.16l5-5.31c.57-.59,1.9-.17,3,1l.72.75.11,5.08c0,1.49-.48,2.72-1.13,2.72H1726l-.54-.75A5.47,5.47,0,0,1,1724.69,181.74Z"/>
            </g>
          </g>
          <path class="cls-5" d="M1678.8,83.87a109.5,109.5,0,0,0,16.17,33.5,113.48,113.48,0,0,0,28.88,27.72c29.68,19.63,60.85,18.5,93.55,17.32,33.12-1.19,45.41-8,50.82-11.55,12.21-7.91,16.06-16.11,24.26-26.56,21.53-27.46,60.86-55,101.64-55.44,17.15-.21,30.4,4.42,50.82,11.55,34.83,12.16,36.19,21.73,57.75,27.72C2150,121.27,2196.2,89.78,2203.17,85a145.71,145.71,0,0,0,48.51-56.6V7.64h-574Z"/>
        </g>
        <g>
          <rect class="cls-6" x="1756.73" y="961.65" width="394.39" height="215.35" rx="98.95" transform="translate(877.27 3019.23) rotate(-89.78)"/>
          <rect class="cls-6" x="1741.52" y="1009.83" width="262.33" height="143.24" rx="65.82" transform="translate(784.21 2950.06) rotate(-89.78)"/>
          <rect class="cls-6" x="1715.97" y="1085.17" width="169.71" height="92.67" rx="42.58" transform="translate(662.56 2928.06) rotate(-89.78)"/>
        </g>
        <g id="tronco-2" data-name="tronco">
          <polygon class="cls-4" points="65.19 -138.56 -9.83 -138.56 -44.29 1249.89 99.65 1249.89 65.19 -138.56"/>
          <g>
            <path class="cls-4" d="M144.17,470.19l.58-25.15L35.86,544.67c-13.37,12.23-21,26.69-16,31.34l44.41,41.54c5,4.65,18.9-3.89,30.21-18l92.56-115.82H150.44C146.82,483.69,144,477.57,144.17,470.19Z"/>
            <path class="cls-4" d="M165.64,436.51l28.11,26.29a4,4,0,0,1,.64.78L181.64-85.29H157.37a.32.32,0,0,0-.31.3L144.75,445l4-3.69C155,435.64,162.5,433.56,165.64,436.51Z"/>
            <path class="cls-4" d="M194.53,471.9c0-.56,0-1.13,0-1.71l-.16-6.61a4,4,0,0,0-.64-.78l-28.11-26.29c-3.14-2.95-10.61-.87-16.86,4.84l-4,3.69-.58,25.15c-.17,7.38,2.65,13.5,6.27,13.5h36.61l3-3.74A26.45,26.45,0,0,0,194.53,471.9Z"/>
          </g>
          <g>
            <path class="cls-4" d="M217.11,248l.28-13.65L165,288.41c-6.43,6.64-10.08,14.49-7.69,17L178.7,328c2.39,2.52,9.09-2.12,14.53-9.8l44.49-62.87h-17.6C218.38,255.31,217,252,217.11,248Z"/>
            <path class="cls-4" d="M227.43,229.7,241,244a2.64,2.64,0,0,1,.3.42L235.13-53.56H223.46a.17.17,0,0,0-.15.17l-5.92,287.72,1.94-2C222.33,229.23,225.92,228.1,227.43,229.7Z"/>
            <path class="cls-4" d="M241.32,248.91c0-.3,0-.61,0-.93l-.08-3.59a2.64,2.64,0,0,0-.3-.42L227.43,229.7c-1.51-1.6-5.1-.47-8.1,2.63l-1.94,2L217.11,248c-.08,4,1.27,7.33,3,7.33h17.6l1.44-2A15.17,15.17,0,0,0,241.32,248.91Z"/>
          </g>
          <path class="cls-4" d="M-51.84,278.87l-.34-16.43,63,65.1C18.59,335.54,23,345,20.1,348L-5.6,375.18c-2.88,3-10.94-2.54-17.49-11.79l-53.57-75.7h21.19C-53.37,287.69-51.74,283.7-51.84,278.87Z"/>
          <g>
            <path class="cls-4" d="M196.07,98.35l.15-6.76L167,118.34c-3.59,3.28-5.63,7.17-4.3,8.42l11.93,11.15c1.33,1.25,5.07-1,8.11-4.84L207.58,102h-9.83C196.78,102,196,100.33,196.07,98.35Z"/>
            <path class="cls-4" d="M201.83,89.3l7.55,7.06a.87.87,0,0,1,.17.21L206.13-50.8h-6.52a.09.09,0,0,0-.08.09l-3.31,142.3,1.09-1C199,89.07,201,88.51,201.83,89.3Z"/>
            <path class="cls-4" d="M209.59,98.8c0-.15,0-.3,0-.45l0-1.78a.87.87,0,0,0-.17-.21l-7.55-7.06c-.84-.79-2.85-.23-4.52,1.3l-1.09,1-.15,6.76c0,2,.71,3.62,1.68,3.62h9.83l.8-1A7,7,0,0,0,209.59,98.8Z"/>
          </g>
          <g>
            <path class="cls-4" d="M251.69,18.08l.11-3.84L230.09,29.45c-2.67,1.87-4.18,4.08-3.19,4.79l8.86,6.34c1,.71,3.76-.59,6-2.75l18.46-17.69h-7.3C252.21,20.14,251.65,19.21,251.69,18.08Z"/>
            <path class="cls-4" d="M256,12.94l5.6,4,.13.12-2.54-83.82h-4.84a.06.06,0,0,0-.06,0L251.8,14.24l.81-.56C253.85,12.8,255.34,12.49,256,12.94Z"/>
            <path class="cls-4" d="M261.73,18.34v-.26l0-1-.13-.12-5.6-4c-.63-.45-2.12-.14-3.36.74l-.81.56-.11,3.84c0,1.13.52,2.06,1.25,2.06h7.3l.59-.57A4,4,0,0,0,261.73,18.34Z"/>
          </g>
        </g>
        <path class="cls-5" d="M-83.41,46.13A109.36,109.36,0,0,0-67.24,79.62a113.3,113.3,0,0,0,28.88,27.72C-8.68,127,22.49,125.85,55.19,124.67c33.12-1.2,45.41-8,50.82-11.55,12.21-7.91,16.06-16.11,24.26-26.57C151.8,59.09,191.13,31.6,231.91,31.11c17.15-.2,30.4,4.42,50.82,11.55,34.83,12.17,36.19,21.74,57.75,27.72C387.81,83.53,434,52,441,47.28A145.7,145.7,0,0,0,489.47-9.31V-30.1h-574Z"/>
        <g>
          <rect class="cls-6" x="-39.02" y="1057.1" width="394.39" height="215.35" rx="98.95" transform="translate(-1007.19 1318.57) rotate(-89.78)"/>
          <rect class="cls-6" x="-54.24" y="1105.27" width="262.33" height="143.24" rx="65.82" transform="translate(-1100.24 1249.4) rotate(-89.78)"/>
          <rect class="cls-6" x="170.68" y="1092.76" width="262.33" height="143.24" rx="65.82" transform="translate(-863.66 1461.85) rotate(-89.78)"/>
          <rect class="cls-6" x="250.64" y="1134" width="244.85" height="92.67" rx="46.33" transform="translate(-808.66 1548.97) rotate(-89.78)"/>
        </g>
      </g>
    </g>
  </g>
</svg>
