<svg xmlns="http://www.w3.org/2000/svg" xmlns:xlink="http://www.w3.org/1999/xlink" width="1440" height="820" viewBox="0 0 1440 820">
  <defs>
    <style>
      .cls-1 {
        filter: url(#AI_Shadow_2);
      }

      .cls-2 {
        fill: #c2e6ff;
      }

      .cls-3 {
        fill: url(#radial-gradient);
      }

      .cls-4 {
        fill: #875d51;
      }

      .cls-5 {
        fill: #9f6d5c;
      }

      .cls-6 {
        fill: #044bb2;
      }

      .cls-7 {
        fill: #07448c;
      }

      .cls-8 {
        fill: #ada195;
      }

      .cls-9 {
        fill: #cbbdad;
      }

      .cls-10 {
        fill: #96675a;
      }

      .cls-11 {
        fill: #aaa199;
      }

      .cls-12 {
        fill: #3a3e47;
      }

      .cls-13 {
        fill: #fcfcfc;
      }

      .cls-14 {
        fill: #563a34;
      }
    </style>
    <filter id="AI_Shadow_2" x="-15%" y="-15%" width="140%" height="130%" name="AI_Shadow_2">
      <feGaussianBlur result="blur" stdDeviation="6" in="SourceAlpha"/>
      <feOffset result="offsetBlurredAlpha" dx="8" dy="8" in="blur"/>
      <feMerge>
        <feMergeNode in="offsetBlurredAlpha"/>
        <feMergeNode in="SourceGraphic"/>
      </feMerge>
    </filter>
    <radialGradient id="radial-gradient" cx="951.41" cy="180.01" r="129.05" gradientUnits="userSpaceOnUse">
      <stop offset="0" stop-color="#fff"/>
      <stop offset="0.32" stop-color="#fcfdfd"/>
      <stop offset="0.55" stop-color="#f3f5f5"/>
      <stop offset="0.76" stop-color="#e3e8e8"/>
      <stop offset="0.91" stop-color="#d2dadb"/>
    </radialGradient>
  </defs>
  <g id="gameoverbees">
    <g class="cls-1">
      <rect class="cls-2" x="-2" y="1.67" width="1240" height="720" rx="63.16"/>
    </g>
    <path id="baloon" class="cls-3" d="M1076,160.67c0-63-55.78-114-124.6-114s-124.6,51-124.6,114c0,56.62,45.12,103.59,104.26,112.48,5.4,9.8,15.44,19.55,28.61,26.69,25,13.55,61.14,18.35,77.16,7.69-7.76-12.33-26.4-19.11-39.39-40.9C1043.48,249.87,1076,208.75,1076,160.67Z"/>
    <g>
      <path d="M904.65,100.14a11.48,11.48,0,0,1,1.55,3.44,18.2,18.2,0,0,1,.49,4.52,20.73,20.73,0,0,1-.22,3c-.14,1-.34,2.07-.61,3.27l-.39,2.11a2.32,2.32,0,0,1-.51,1.07,3.77,3.77,0,0,0-.33.6,2.19,2.19,0,0,0-.1.69c0,.17,0,.28,0,.3a6.24,6.24,0,0,1-3.93,3.19,20.06,20.06,0,0,1-5.74.81l-4.58-.51-3.64-1.85h-.2a9,9,0,0,1-.76-.54c-.35-.27-.67-.54-1-.8a6.13,6.13,0,0,1-1.31-2.17,23,23,0,0,1-1.16-3.46,12.83,12.83,0,0,1-.47-2.92,1.46,1.46,0,0,1,0-.43s-.1,0-.16-.13a.46.46,0,0,1-.07-.22,10.65,10.65,0,0,1,.27-2.06c.1-.54.17-1,.2-1.33a20.81,20.81,0,0,1,1-4.88,11.27,11.27,0,0,1,2-3.49,18.28,18.28,0,0,1,3.53-3.07l.11,0a11.15,11.15,0,0,0,2.08-.47,13.24,13.24,0,0,1,2.82-.6h1l1.41.3c.44.08,1.18.24,2.21.47a11.5,11.5,0,0,1,1.9.52c.15,0,.39.15.7.28a2,2,0,0,1,.79.53A35.12,35.12,0,0,1,904.65,100.14Zm-21.71,9.61a1.72,1.72,0,0,0-.22,1,.89.89,0,0,0,.78-.39,1.54,1.54,0,0,0,.28-.94A1,1,0,0,0,882.94,109.75Zm-.18-2.3.23,0a1.42,1.42,0,0,0,.65-.19.59.59,0,0,0,.37-.54c0-.17-.11-.33-.35-.47a1.27,1.27,0,0,0-.59-.22A2.26,2.26,0,0,1,882.76,107.45Zm.92,3.74c-.14.2-.29.45-.45.73l.47,0a1.19,1.19,0,0,0,.55-.11.42.42,0,0,0,.19-.41c0-.37-.09-.56-.27-.56A.61.61,0,0,0,883.68,111.19Zm-.06-7.39a1.75,1.75,0,0,0,1.06-.31,1,1,0,0,0-.35-.36.92.92,0,0,0-.36-.19C883.74,102.94,883.62,103.22,883.62,103.8Zm.08,1.29.23.15a.77.77,0,0,0,.24.1c.1,0,.18-.07.23-.23a1.07,1.07,0,0,0,.08-.37C884,104.74,883.78,104.86,883.7,105.09Zm.74,10.62a.58.58,0,0,0-.11-.18.74.74,0,0,0-.16-.12,1.13,1.13,0,0,0-.25.12.85.85,0,0,0-.22.18.5.5,0,0,1,.27.51Zm.51-1.64v-.26a.57.57,0,0,0-.51.26Zm-.13-13.43a1.13,1.13,0,0,0-.18.49,3,3,0,0,0,1.25-.3c0-.09-.14-.19-.35-.32a1.33,1.33,0,0,0-.39-.2Q885,100.31,884.82,100.64Zm.17,15.47a.58.58,0,0,0-.16.41c.4,0,.59-.14.59-.43l0-.17A.89.89,0,0,0,885,116.11Zm1.41,1.45h-1.29a1.89,1.89,0,0,0,.35.81c.24.38.41.56.51.56C886.26,118.93,886.4,118.47,886.4,117.56Zm12,2.23a4.59,4.59,0,0,0,2.4-1.63,9.49,9.49,0,0,0,1.53-3.57l0-3.27c0-1.95,0-3.52-.1-4.71a15.35,15.35,0,0,0-.68-3.7,7.34,7.34,0,0,0-1.88-3.16.22.22,0,0,1-.16,0,13.31,13.31,0,0,1-1.88-.65,13.82,13.82,0,0,0-2.35-.77,1.5,1.5,0,0,0-.59.13,3,3,0,0,0-.39.17,1.66,1.66,0,0,1-.9.3.76.76,0,0,1-.45-.15.72.72,0,0,0-.41-.15,5.48,5.48,0,0,0-3.7,1.5,10.71,10.71,0,0,0-2.7,3.74,10.52,10.52,0,0,0-1,4.3c0,.32.08,1.17.25,2.54s.37,2.63.61,3.76.46,1.7.67,1.7l.5,0c.11,0,.2.09.28.28a1.36,1.36,0,0,1,.12.54,3.24,3.24,0,0,0,.52.75,7.64,7.64,0,0,1,.53.67,1.07,1.07,0,0,1,.51.08.74.74,0,0,1,.28.3,1.13,1.13,0,0,0,.54.6,2.9,2.9,0,0,0,.85.31,5.34,5.34,0,0,0,.57.08,3.4,3.4,0,0,1,1.48.39l1.57,0A14.42,14.42,0,0,0,898.37,119.79ZM886.71,99.54a6,6,0,0,0-.82,0,2.52,2.52,0,0,0,.69.53l.49.28c.08,0,.18-.08.31-.23a.78.78,0,0,0,.2-.33A6.5,6.5,0,0,0,886.71,99.54Zm.36-1.68c0,.06.08.17.15.35a1.67,1.67,0,0,0,.41.51,1.14,1.14,0,0,0,.77.26,1.06,1.06,0,0,0,.9-.56,1,1,0,0,1-.31-.24c-.13-.12-.2-.22-.2-.28a.71.71,0,0,1,.08-.28,2.4,2.4,0,0,1,.16-.27.91.91,0,0,1,.5.17,1.31,1.31,0,0,0,.67.17,1.69,1.69,0,0,0,.88-.19,2.13,2.13,0,0,0,.61-.93c0,.23.22.35.59.35a6.12,6.12,0,0,0,1.29-.18c.52-.11.78-.34.78-.68a1,1,0,0,0,.1.25.87.87,0,0,0,.14.26,0,0,0,0,0,0,0,1.93,1.93,0,0,0,.41-.15l.45-.19a1,1,0,0,0,.31.39,3.83,3.83,0,0,0,.73.51,2,2,0,0,0,1,.26,1.35,1.35,0,0,0,.42-.08.54.54,0,0,0,.29-.26,3,3,0,0,0,1.23,1.5,15.63,15.63,0,0,0,2.18,1.16,1.57,1.57,0,0,0,.17.71c.12.25.27.37.45.37a.79.79,0,0,0,.57-.26A.78.78,0,0,0,903,100c0-.31-.24-.47-.74-.47L900,96.87c-.42-.46-1.45-.8-3.09-1a30,30,0,0,0-4-.34,3.1,3.1,0,0,0-1.06.15.63.63,0,0,0-.39.66,1,1,0,0,0-.29-.34.71.71,0,0,0-.29-.17,5.85,5.85,0,0,0-1.28.64c-.74.43-1.24.73-1.51.91l.48.43h-1.49Zm.51,21.24h-.51v.35A.49.49,0,0,0,887.58,119.1Zm3.48,2a.49.49,0,0,0,.28-.45h-.24c-.52,0-.81.12-.86.35a.4.4,0,0,0,.12.15.65.65,0,0,0,.15.1A1.11,1.11,0,0,0,891.06,121.1Zm4.74,1,.94-.52h-.94Zm5.66-1.74a7.34,7.34,0,0,0,2.39-2.47,6.44,6.44,0,0,0,.92-3.31,1.7,1.7,0,0,0-1.1.34,1.23,1.23,0,0,0-.43,1H904a.79.79,0,0,1-.45.35c-.22.08-.41.16-.56.23a.41.41,0,0,0-.24.41,5,5,0,0,0,.74.9,3.61,3.61,0,0,0-1.07.15.77.77,0,0,0-.34.46,2.63,2.63,0,0,1-.09.32,2.71,2.71,0,0,1-.41.66,5,5,0,0,1-1.39,1.1,8.32,8.32,0,0,1-1.79.75A5.59,5.59,0,0,0,901.46,120.33ZM905,102.85a5.93,5.93,0,0,0-.62-1.61c-.28-.48-.6-.71-1-.71-.16,0-.39.19-.69.58a2,2,0,0,0-.45.75c0,.09.08.2.24.34a.93.93,0,0,0,.39.26.12.12,0,0,0,.11,0,2,2,0,0,0-.27.9.88.88,0,0,0,.55-.26.94.94,0,0,1,.59-.25l-.47.51c-.29.32-.43.55-.43.69l0,0,.24.22h2A6.16,6.16,0,0,0,905,102.85Zm-2,2.39a.77.77,0,0,0,.24.1,1.75,1.75,0,0,0,.53-.19,5.8,5.8,0,0,0,.68-.37l-.78,0a1,1,0,0,0-.9.33Zm2.59.21c0-.27-.11-.49-.16-.67a2.53,2.53,0,0,0-1.15.43,8.75,8.75,0,0,0-1.28.91l1.92.64h-1.72a2.38,2.38,0,0,0,.1.63c.06.24.16.36.29.36a2.55,2.55,0,0,0,1.29-.51,1.42,1.42,0,0,0,.79-1.12A4,4,0,0,0,905.63,105.45Zm-.14,7.35a12.83,12.83,0,0,0,.26-2.55l0-.65-2.59.65.9.94a1.43,1.43,0,0,0-.49.13c-.19.09-.29.17-.29.26s.07.16.2.24a.72.72,0,0,0,.35.1,2.46,2.46,0,0,0,.55-.1,2.18,2.18,0,0,1,.62-.11c-.08.17-.32.31-.74.43a1.87,1.87,0,0,0-.57.19.43.43,0,0,0-.17.41.42.42,0,0,0,.15.34c.11.09.16.16.16.22a1,1,0,0,1-.16.41,1,1,0,0,0-.15.45c.44,0,.69-.12.74-.35a.45.45,0,0,0,.12.16l.15.1C905,114.07,905.32,113.65,905.49,112.8Zm-.45-3.72q.9,0,.9-.51v-.22c0-.6-.1-.9-.31-.9a2.33,2.33,0,0,0-1.14.45,3.62,3.62,0,0,0-1,.84,1,1,0,0,0,.87.34H905Z"/>
      <path d="M925.21,119.56a.19.19,0,0,0-.08.15,10.72,10.72,0,0,0,.24,1.11,7.59,7.59,0,0,1,.23,1.55c0,.32-.23.52-.68.6a8.81,8.81,0,0,1-1.53.15,3.18,3.18,0,0,0-.84.07,2.68,2.68,0,0,1-.32-.22c-.15-.11-.23-.21-.23-.3v-8.51c0-1.32,0-2.52-.12-3.61a8.69,8.69,0,0,0-.59-2.76h0a10.13,10.13,0,0,1-2.42-1.59,6.77,6.77,0,0,1-1.28.28,8.54,8.54,0,0,0-2.42.86,2.47,2.47,0,0,0-1.36,1.79q-.07.47-.15,1.2c0,.49-.08.89-.08,1.21,0,.68-.08,1.23-.08,1.63-.16,2.29-.23,4-.23,5.2,0,.72,0,1.25,0,1.59l-.24.26.41.67a1.94,1.94,0,0,1,.33,1,1.17,1.17,0,0,1-.11.51.4.4,0,0,1-.39.26h-2.86a.5.5,0,0,0-.38-.3.38.38,0,0,1-.33-.26l0-3.52q0-2.88.39-8.65c0-.45.1-1.6.2-3.44s.16-3.54.16-5.11c0-.63,0-1.37,0-2.22s-.06-1.49-.08-2c-.11-1.9-.16-3.31-.16-4.26H913l.51.26v2.23q0,7.27.23,7.27l.24.56a27.91,27.91,0,0,1,3-.9,11.62,11.62,0,0,1,2.69-.43,5,5,0,0,1,3.23,1.22,8.49,8.49,0,0,1,2.31,3.12,9.17,9.17,0,0,1,.84,3.74,19.7,19.7,0,0,1-.16,2.41c-.1.89-.17,1.46-.19,1.72a34.28,34.28,0,0,0-.39,4.3,8.86,8.86,0,0,0,0,1A.21.21,0,0,0,925.21,119.56Zm-13,1.41a1.39,1.39,0,0,0,.19-.75,5.17,5.17,0,0,0,0-.54.94.94,0,0,0-.24-.49l-.35.17a.84.84,0,0,1-.39.13l1-1.07c-.11-.58-.24-.86-.4-.86l-.11,0,.27-.56a1.61,1.61,0,0,0-1.49.86s0,.07.1.13a.26.26,0,0,0,.18.08.43.43,0,0,0,.25-.08l.22-.13-.47.77.23.26c-.13.06-.21.12-.23.19a1,1,0,0,0,0,.33c0,.11.08.29.15.54a1.93,1.93,0,0,1,.12.53l-.15.13a.35.35,0,0,0-.12.3c0,.06.09.13.27.22a1.24,1.24,0,0,0,.47.13A.64.64,0,0,0,912.17,121Zm.08-9.65a16,16,0,0,1,.31-3.53l-.23.11a1.42,1.42,0,0,0-.24.11,2.68,2.68,0,0,0-.84.58,1.54,1.54,0,0,0-.18.88c0,.12,0,.17,0,.17l.47.3-.47.48v3.44l.47.3a1.15,1.15,0,0,0-.55.36,1,1,0,0,0-.23.63,1.92,1.92,0,0,1,.72.19,1.19,1.19,0,0,1,.57.41,2,2,0,0,0,.27-1.08h-.54a1.77,1.77,0,0,1,.51-.81C912.27,113,912.25,112.15,912.25,111.32Zm-.55,5.07a1.08,1.08,0,0,1-.35.13l.23-.51a1,1,0,0,0-.51.13.36.36,0,0,0-.23.3c0,.17.06.28.17.32a1.44,1.44,0,0,0,.45.06,2.08,2.08,0,0,0,.49,0,.81.81,0,0,0,.38-.26.28.28,0,0,0-.1-.17c-.07-.06-.11-.08-.14-.08A1.13,1.13,0,0,0,911.7,116.39Zm-.24-22.18c-.23.11-.35.21-.35.3a10.47,10.47,0,0,0,.39,2.19,11.26,11.26,0,0,1,.32,1.76.75.75,0,0,1-.08.3.84.84,0,0,1-.16.26v4.26l.24.26c-.11,0-.19.14-.26.43a4.35,4.35,0,0,0-.1.9h.63c-.39.32-.59.6-.59.86a1.65,1.65,0,0,0,.69-.24,4.41,4.41,0,0,0,.61-.36,4.32,4.32,0,0,0-.16-.95c-.11-.4-.21-.61-.31-.64s.06-.17.11-.35a3.62,3.62,0,0,0,.12-.47,10.75,10.75,0,0,0-.16-1.59,8.92,8.92,0,0,1-.19-1.81h-.12a2.21,2.21,0,0,0,.24-.71c0-.21,0-.52,0-.92s0-.77-.13-.84-.14-.13-.14-.19a2.27,2.27,0,0,1,.14-.63,3.05,3.05,0,0,0,.13-1,4.65,4.65,0,0,0-.05-.82c0-.14-.12-.22-.22-.22A1.45,1.45,0,0,0,911.46,94.21ZM915,105.73c2.19-.86,3.38-1.5,3.56-1.93l-.23-.26c-2,.54-2.94.81-2.86.81l-.51,0a2.87,2.87,0,0,0-.59.65,4.05,4.05,0,0,1-.49.58.7.7,0,0,1-.49.19.29.29,0,0,1-.25-.15,1.86,1.86,0,0,0-.14-.19,5,5,0,0,0-1.25.62,1.13,1.13,0,0,0-.43,1c0,.34.15.51.47.51a5.58,5.58,0,0,0,1.37-.41,1.1,1.1,0,0,0,.49-.49.73.73,0,0,1,.33-.39Zm2.7-.62a.6.6,0,0,0,.16-.5l-1,.56.35,0A.84.84,0,0,0,917.73,105.11Zm3.56-1.31a1.59,1.59,0,0,0-1-.26h-.72l-1.21,1.63.23.22A11.34,11.34,0,0,0,921.29,103.8Zm-.92,1.54a8.16,8.16,0,0,0,.65-.73,3.33,3.33,0,0,1-.57.22,4.68,4.68,0,0,0-1.12.56,1.64,1.64,0,0,0,.28.19l.27.15C920,105.73,920.13,105.6,920.37,105.34Zm.92.39a1.6,1.6,0,0,0,.79-.26,1.71,1.71,0,0,0,.62-.6l-.51-.56L921,105.69Zm1.53,2.17a1,1,0,0,1,.35-.11l-.27.56.55.22-.55.56a2.48,2.48,0,0,0,1.08-.37,1.09,1.09,0,0,0,.68-1,.6.6,0,0,0-.16-.43.51.51,0,0,0-.39-.17l-.19,0,.23-.48A1.54,1.54,0,0,0,924,106a.58.58,0,0,0-.51-.35,1.3,1.3,0,0,0-.81.35,2.89,2.89,0,0,0-.64.77l.47.22a2.69,2.69,0,0,1-.14.47,2.36,2.36,0,0,1-.14.34.19.19,0,0,0,.1.15.32.32,0,0,0,.18.07A1,1,0,0,0,922.82,107.9Zm1.57,2.6a2.2,2.2,0,0,0,.66-1.72,2.37,2.37,0,0,0-1.64.65,2.18,2.18,0,0,0-.71,1.68A2.45,2.45,0,0,0,924.39,110.5Zm-.32,5.25a2.84,2.84,0,0,1,.32-1c0-.06.11-.27.25-.65a3.53,3.53,0,0,0,.22-1.33.74.74,0,0,0-.06-.28q-.06-.15-.18-.15l-1.45,1v.09c0,.28.09.43.28.43a3.16,3.16,0,0,0-.51.58,1,1,0,0,0-.24.49l.47-.26a.25.25,0,0,0,0,.13.44.44,0,0,0,.1.26.43.43,0,0,0,.22.17c-.06.06-.11.12-.18.18a.46.46,0,0,0-.1.34.44.44,0,0,0,.12.15.91.91,0,0,0,.16.11l-.28.26v5.67h.32a1.33,1.33,0,0,0,.66-.13.52.52,0,0,0,.24-.51c0-.46,0-.86,0-1.19s-.06-.6-.08-.83a22.17,22.17,0,0,1-.16-2.24h-.19a1.93,1.93,0,0,0,.58-1.29Zm.14-3.55a2.26,2.26,0,0,0,.69-1.52,2.15,2.15,0,0,0-1.1.43c-.44.28-.67.58-.67.9h.55a.78.78,0,0,1-.33.32,2.13,2.13,0,0,0-.35.22.48.48,0,0,0-.14.4A1.91,1.91,0,0,0,924.21,112.2Z"/>
      <path d="M954.46,121.3l0-1.47c0-1.31.08-2.3.08-3a36,36,0,0,0-.82-8.09,9.4,9.4,0,0,1-.94-1,3.6,3.6,0,0,0-1.06-.9,4.16,4.16,0,0,0-1.72-.26,5.39,5.39,0,0,0-1.69.28,10.16,10.16,0,0,0-2.07,1.1,1.44,1.44,0,0,0-.63.92,6.84,6.84,0,0,0-.16,1.57c0,1.55,0,2.78.08,3.68a10.09,10.09,0,0,0,.47,2.56v5.55c0,.17-.12.25-.35.25-.78-.05-1.5-.11-2.15-.17s-1-.08-1.1-.08l-.74-.52s-.08-.83-.14-2.41-.1-3-.1-4.21,0-2.28.12-3.31c.1-1.67.15-3.26.15-4.78l0-3.82a2.2,2.2,0,0,1,.72-.37,2.42,2.42,0,0,1,.72-.15,1.21,1.21,0,0,1,.87.3,3.21,3.21,0,0,1,.58.86c.24.43.45.65.63.65a2.15,2.15,0,0,0,1-.24c.31-.16.74-.39,1.29-.71a16,16,0,0,1,1.59-.88,3,3,0,0,1,1.31-.28,10.21,10.21,0,0,1,3.76,1.2l.86.39q2.31,1,3.11,4.54a33.55,33.55,0,0,1,.81,7.5,17.79,17.79,0,0,1-.2,2.49c-.1,1.09-.16,1.9-.16,2.41a7.17,7.17,0,0,0,0,.82c-.26,0-.4.14-.43.43a1.11,1.11,0,0,1-.31.71c-.18.19-.67.28-1.45.28a1.71,1.71,0,0,0,.08-.47c0-.06,0-.09,0-.09a2.24,2.24,0,0,0-.29.24,1.11,1.11,0,0,1-.42.23,1.31,1.31,0,0,1-.74-.21l-.2-.35A2.1,2.1,0,0,0,954.46,121.3Zm-11.75-2.71a1.21,1.21,0,0,0-.39,1.07h.59l1.21-1.33h-.23A2.2,2.2,0,0,0,942.71,118.59Zm1.12-1.81a4.84,4.84,0,0,0,.8-2,9,9,0,0,0,0-1c0-.28-.05-.51-.08-.71a12.14,12.14,0,0,1-.15-1.64,2.92,2.92,0,0,1,0-.56l-.51.22a4.1,4.1,0,0,0,.37-.71,5.2,5.2,0,0,0,.18-.75l.15-.91a3.83,3.83,0,0,1,.61-1.37,5.39,5.39,0,0,1,1-1c.42-.35.63-.62.63-.82a.67.67,0,0,0,0-.22,3.11,3.11,0,0,0-.91.69s-.18.14-.39.32a.84.84,0,0,1-.51.28.59.59,0,0,1-.5-.19,2.6,2.6,0,0,1-.36-.67,2.73,2.73,0,0,0-.29-.53.47.47,0,0,0-.41-.2.78.78,0,0,0-.28,0,.89.89,0,0,0,.16-.26.84.84,0,0,0,.08-.3c0-.09-.06-.15-.18-.2a.66.66,0,0,1-.21-.1s-.09.11-.18.34a1.62,1.62,0,0,0-.14.52,19.29,19.29,0,0,0,.16,2.06,8.56,8.56,0,0,1,.12,1.25l0,.9c.05,0,.1,0,.16.11a.31.31,0,0,1,.07.15,3.4,3.4,0,0,1-.23,1,4.39,4.39,0,0,0-.24,1.12h1l-.74.77.23.3a1.92,1.92,0,0,0-.62.82,3.33,3.33,0,0,0-.16,1.16,1,1,0,0,0,1-.69c0,.12,0,.17.08.17a5.1,5.1,0,0,1-.41.65,2.35,2.35,0,0,0-.42.73h1.26l-1.22.6v1.94C942.91,118.16,943.29,117.7,943.83,116.78Zm-.55,3.74a1.15,1.15,0,0,0-.37.28.82.82,0,0,0-.12.5h2.08a.47.47,0,0,0,.15-.18.35.35,0,0,0,.08-.21,1.31,1.31,0,0,0-.14-.5,1.47,1.47,0,0,1-.13-.4c0-.06.06-.13.19-.22a.71.71,0,0,1,.32-.13c-.11,0-.18-.18-.22-.38s-.08-.37-.12-.5a.24.24,0,0,0-.25-.19c-.31,0-.69.25-1.12.75l-.72.84h.74A.77.77,0,0,1,943.28,120.52Zm.67-3.82a1.9,1.9,0,0,0-.61,1.11h1.25c.11,0,.19-.19.26-.58A7.82,7.82,0,0,0,945,116C944.68,116,944.35,116.24,944,116.7Zm6.83-11.46a6.91,6.91,0,0,1,1.53.36,3.29,3.29,0,0,1,.74.6,5.13,5.13,0,0,1,.45.39,1,1,0,0,0,.65.34c.21,0,.31-.1.31-.3l-.19-.21a.87.87,0,0,1,.41-.35c.22-.11.33-.22.33-.34,0-.29-.29-.43-.86-.43a.81.81,0,0,0-.49.15.72.72,0,0,1-.37.15q-.19-.3-.36-.3l-.07,0,.19-.51a1,1,0,0,0-.78-.3,3.66,3.66,0,0,0-.59.06,3.72,3.72,0,0,1-.55.07v-.86c-1,0-1.55.24-1.68.73V104a1,1,0,0,1-.47.19,2.07,2.07,0,0,0-.39.11,3.66,3.66,0,0,0-1,.32.72.72,0,0,0-.33.67s0,.07.11.13.12.11.12.17l.51-.51.23.25h.12a1.49,1.49,0,0,0,.36-.21c.15-.12.23-.22.23-.3l.23.26A11.65,11.65,0,0,1,950.78,105.24Zm4.86,2.79a2.46,2.46,0,0,0,.11-.84V107q0-.55-.27-.6a1.42,1.42,0,0,0-1,1.33h.78l-.5.52.27.3A1.25,1.25,0,0,0,955.64,108Zm0,1.66a1,1,0,0,0-.36.77,1.63,1.63,0,0,0,1.08-.56,1.58,1.58,0,0,0,.57-1.12,1,1,0,0,0-.2-.47q-.19-.3-.39-.3a1,1,0,0,0-.78.41,1.28,1.28,0,0,0-.35.88h1.25A1.74,1.74,0,0,0,955.64,109.69Zm.35.77a1.46,1.46,0,0,0-.43,1,3.69,3.69,0,0,0,1.15-.15.63.63,0,0,0,.45-.67,1.84,1.84,0,0,0,0-.41,1,1,0,0,0-.19-.4A2.26,2.26,0,0,0,956,110.46Zm-.31,1.76,0,.26a.62.62,0,0,0,.32-.28,1.59,1.59,0,0,0,.19-.36l0-.13A.44.44,0,0,0,955.68,112.22Zm.39,6.2a1.73,1.73,0,0,0,1.23-.65,1.89,1.89,0,0,0,.61-1.29.83.83,0,0,0,0-.26,14.13,14.13,0,0,0-.32-2.49,3.75,3.75,0,0,0-.74.54c-.44.35-.66.62-.66.79a.35.35,0,0,0,.11.22.37.37,0,0,0,.2.13.51.51,0,0,0-.47.25,1,1,0,0,0-.16.56,1.32,1.32,0,0,0,.86-.43,1.13,1.13,0,0,1,.71-.34v.17a2.89,2.89,0,0,0-1.41,1.76h.7C956.28,117.5,956.07,117.84,956.07,118.42Zm-.12-5a3.58,3.58,0,0,1-.08.9,1.39,1.39,0,0,0,1.14-.64,2.37,2.37,0,0,0,.47-1.42l-.08-.6a8,8,0,0,0-1,.53.78.78,0,0,0-.43.63Zm.39,5.93a8.45,8.45,0,0,0-.23,2.37h1.44c0-.92-.2-1.45-.62-1.59a2.76,2.76,0,0,0,.41-.24c.2-.13.29-.22.29-.28v-1.85A3.9,3.9,0,0,0,956.34,119.4Z"/>
      <path d="M963.74,108.44a20.69,20.69,0,0,1,1.72-4.43l.08,0a2.34,2.34,0,0,0,1-.56,2.5,2.5,0,0,1,.9-.51l1.43-.39a8.71,8.71,0,0,1,2.18-.3v.39a3.47,3.47,0,0,1,1-.26c.3,0,.61,0,.93,0a10.93,10.93,0,0,1,2.36.25c.77.18,1.16.48,1.16.91a1.85,1.85,0,0,1,1.55.75,9.88,9.88,0,0,1,1.11,2,8.68,8.68,0,0,0,.41.86,1.49,1.49,0,0,0,.42.52v3.7l-.71.56.2.25c-.71.61-2.25.91-4.63.91h-2c-1.31,0-2.16,0-2.57,0s-1.19-.14-2.37-.34c0-.17-.1-.26-.23-.26a.64.64,0,0,0-.2,0,.93.93,0,0,1-.23,0,14.89,14.89,0,0,0,.29,2.75,4.9,4.9,0,0,0,.88,2.19,4.79,4.79,0,0,0,1.73.95,7.28,7.28,0,0,1,.94.39,2.09,2.09,0,0,0,1.21.55,8.42,8.42,0,0,0,2-.25l1.21-.3a11,11,0,0,1,3-.56.66.66,0,0,1,.68.49,3.76,3.76,0,0,1,.18,1.27,2.65,2.65,0,0,1-.12,1,.57.57,0,0,1-.43.28.78.78,0,0,0-.51.37c-.15,0-1.68.34-4.58.86-1.1,0-2.07,0-2.92-.09a8.9,8.9,0,0,1-2.37-.47,5.73,5.73,0,0,1-2.44-2,15.63,15.63,0,0,1-2.06-3.53,8.7,8.7,0,0,1-.82-3.31A18.06,18.06,0,0,1,963.74,108.44Zm1.14,5.42a1.57,1.57,0,0,0,.72-.2.58.58,0,0,0,.37-.53.59.59,0,0,0-.11-.28.7.7,0,0,1-.12-.37,5.06,5.06,0,0,1,.27-.75,2.32,2.32,0,0,0,.2-.93.73.73,0,0,0-.14-.49,1.4,1.4,0,0,0-.39-.28c-.17-.09-.25-.19-.25-.3a2.94,2.94,0,0,1,.25-.8,2.89,2.89,0,0,0,.26-.83,3,3,0,0,1,.74-1.42c.29-.43.51-.78.66-1a1.42,1.42,0,0,0,.24-.77,1.49,1.49,0,0,1,.43.09,2.09,2.09,0,0,0,.55.08c.08,0,.13-.08.16-.23s.06-.25.11-.28a3.82,3.82,0,0,1,1.26-.13c.6,0,1-.07,1.37-.11s.48-.14.51-.28a3,3,0,0,0-.83-.28,6.91,6.91,0,0,0-1-.06,4.67,4.67,0,0,0-4.06,2,8.54,8.54,0,0,0-1.39,5h1.26v.26l-1.45,1.59v.82l.47-.3-.47.81Zm0,.62a2,2,0,0,0-.2,1.1,1,1,0,0,0,.81-.41,1.43,1.43,0,0,0,.33-.93C965.28,114.24,965,114.32,964.84,114.48Zm.68,1a2,2,0,0,0-.33,1.06,2.24,2.24,0,0,0,1.49-.35,4.41,4.41,0,0,0-.39-.71,2.38,2.38,0,0,1-.35-.66C965.88,114.93,965.75,115.15,965.52,115.51Zm.26,2.24a5.48,5.48,0,0,1,.16.58,1.74,1.74,0,0,0,.9-1.63c-.74,0-1.19.18-1.38.55A.91.91,0,0,1,965.78,117.75Zm2.11.92,0-.13-1.41-.21-.27.21,1.25,1.12A2.71,2.71,0,0,0,967.89,118.67Zm-1-8.12a1,1,0,0,0-.26.69.89.89,0,0,0,.69-.22,1.3,1.3,0,0,0,.17-.77A.77.77,0,0,0,966.86,110.55Zm2.58-1.14c1.4.1,2.56.15,3.51.15a14.21,14.21,0,0,0,1.87-.17,11.76,11.76,0,0,1,1.81-.18,3.39,3.39,0,0,0-.28-.88c-.18-.44-.32-.66-.43-.66l-.08,0a2.72,2.72,0,0,0-1.74-1.51,6.84,6.84,0,0,0-2.49-.6,4.49,4.49,0,0,0-4.46,3.23C967.28,109.11,968,109.31,969.44,109.41ZM967.76,111c-.25.26-.45.49-.61.69l.82-.17a4.8,4.8,0,0,0,.53-.11,3.37,3.37,0,0,0,1.08-.54c-.08,0-.49-.11-1.22-.26h-.15Q968.12,110.63,967.76,111Zm.21,9,.16.11a2.57,2.57,0,0,0,.78-.39c.29-.2.43-.34.43-.43a.52.52,0,0,0-.13-.36c-.1-.1-.17-.15-.22-.15a1.12,1.12,0,0,0-.74.36,1,1,0,0,0-.4.71A.44.44,0,0,0,968,120.07Zm1.84.93q.2.21.24.21a1.49,1.49,0,0,0,1-.41,1.32,1.32,0,0,0,.46-1c-1,0-1.49.13-1.49.39a.76.76,0,0,0-.14-.35c-.09-.14-.16-.21-.22-.21s-.21.14-.48.41-.42.45-.42.54l0,.12A4.7,4.7,0,0,1,969.81,121Zm1.14-9.29a.83.83,0,0,0,.6-.26.89.89,0,0,0,.26-.65c-1.31,0-2,.21-2.23.61A3.91,3.91,0,0,0,971,111.71Zm.78,9.5a9,9,0,0,0,1.57-.17l1.13-.22a13.58,13.58,0,0,1,2.16-.34l.47.21a1.79,1.79,0,0,0,.86-.21.72.72,0,0,0,.39-.69,8.94,8.94,0,0,0-2.11.35,5.88,5.88,0,0,0-.67.17,6.16,6.16,0,0,1-.9.17c-.52,0-1.08,0-1.67.06a11.92,11.92,0,0,0-1.23.15l-.23.31A.92.92,0,0,0,971.73,121.21Zm1.57-10.06a3.91,3.91,0,0,0-1.08.15c-.35.1-.53.28-.53.54l0,.13,1.39-.11c.88-.07,1.38-.31,1.51-.71H973.3Zm2.82-5.16c.47.46.78.69.94.69a1.62,1.62,0,0,0,.62-.18c.26-.11.4-.24.4-.38a3,3,0,0,0-.16-.76,2.88,2.88,0,0,1-.16-.58.22.22,0,0,1-.17.2,1,1,0,0,1-.3.06,1.65,1.65,0,0,1-.72-.34.84.84,0,0,1-.41-.69q-1.14,0-1.14-.6s-.16.1-.31.3a1.05,1.05,0,0,1-.86.3.62.62,0,0,1-.4-.17.71.71,0,0,0-.5-.17l-.51,0a2.5,2.5,0,0,1,.37.56c.19.34.36.53.49.56a.7.7,0,0,0,.29-.15.69.69,0,0,1,.37-.15,4.53,4.53,0,0,1,.59.23,2.07,2.07,0,0,0,.86.2C975.41,105.19,975.65,105.53,976.12,106Zm1.56,4.58a2.62,2.62,0,0,1-1.13.19,3.45,3.45,0,0,0-.94.17.55.55,0,0,0-.32.56c.87,0,1.54,0,2-.08s.8-.23.9-.52a.61.61,0,0,0,.55.35,2.46,2.46,0,0,0-.14-.76,2.13,2.13,0,0,1-.13-.62.34.34,0,0,1,.17-.3,1.13,1.13,0,0,0,.28-.3,1.76,1.76,0,0,0,.09-.69q0-1.68-.9-1.68c-.26,0-.42.08-.49.24a2.86,2.86,0,0,0-.09.88,12.4,12.4,0,0,0,.51,1.55v.17A.85.85,0,0,1,977.68,110.57Z"/>
      <path d="M981.31,128.35a.64.64,0,0,0,.37.17.54.54,0,0,0,.39-.17,2.92,2.92,0,0,0,.35-.56,5.5,5.5,0,0,1,.94-1.2l-.15-4.69-.12-19.14c0-.37.6-.56,1.8-.56l1.84,0a2,2,0,0,1,.61,1,6.81,6.81,0,0,1,.13,1.46,40.86,40.86,0,0,1-.19,4.22c0,.57-.08,1-.08,1.2a1.7,1.7,0,0,0,.12.3c0,.12.09.2.11.26a1.2,1.2,0,0,1,0,.34.51.51,0,0,1-.2.18v5.84c.18.06.27.23.27.52s-.09.5-.27.56c.1.43.25,1.22.45,2.38a18,18,0,0,1,.29,2.13l-.27.22a4.19,4.19,0,0,0,.16.94,10.45,10.45,0,0,1,.15,2.11,3.26,3.26,0,0,1-.21,1.16,14.12,14.12,0,0,1-1,1.89s-.26.19-.71.65a5.78,5.78,0,0,1-1.72,1.5,8,8,0,0,1-1.29.39,5.48,5.48,0,0,1-1.25.17c-.71,0-1.06-.27-1.06-.81v-2.37a.33.33,0,0,1,.12-.24.29.29,0,0,1,.19-.1A.66.66,0,0,1,981.31,128.35Zm.05,1.63a1.61,1.61,0,0,0,.16.33.61.61,0,0,1,.12.32c.05-.06.14-.17.27-.35s.25-.25.36-.25.2.1.39.3a9.08,9.08,0,0,0,2.89-1.14,2.54,2.54,0,0,0,1.41-2.26.27.27,0,0,0-.17-.26.67.67,0,0,0-.3-.08c.42-.09.63-.74.63-1.94v-.26a1.67,1.67,0,0,0-.57.17,3.71,3.71,0,0,0-.56.48,8.74,8.74,0,0,0,.62-.93,2.72,2.72,0,0,0,.35-.66,3.32,3.32,0,0,0-.07-.61,1.48,1.48,0,0,0-.16-.47l-.12,0c-.18,0-.39.14-.62.43a1,1,0,0,1-.71.43l1.45-1.59c0-.8,0-1.41,0-1.83a5.58,5.58,0,0,0-.31-1.4,1,1,0,0,0-.67.39c-.23.26-.52.62-.86,1.07a4.58,4.58,0,0,1-.55.69h.75l-.75.78.12,0a.77.77,0,0,0,.53-.17,2.42,2.42,0,0,0,.37-.52,1.94,1.94,0,0,1,.27-.47.65.65,0,0,1,.4-.17v.51l-1.45,1.64v.21a2.34,2.34,0,0,0,.72-.11,2.26,2.26,0,0,1,.53-.1,2.8,2.8,0,0,1-.45.34,6.09,6.09,0,0,0-.57.41.55.55,0,0,0-.23.41,1.68,1.68,0,0,0,.15.62,1.5,1.5,0,0,1,.16.58h.43a1.09,1.09,0,0,0-.45.43,1.16,1.16,0,0,0-.18.6h.63a5.12,5.12,0,0,0-.9,1.42,4.46,4.46,0,0,1-.53,1,4.17,4.17,0,0,1-1,.86c-.26.17-.56.39-.92.64s-.53.43-.53.52A0,0,0,0,0,981.36,130Zm2-34.74a1.2,1.2,0,0,1,.79-1.25,5.22,5.22,0,0,1,1.88-.3h.15c.52,0,.8.12.82.34.16,1.9.24,3,.24,3.19,0,.63-.13,1-.39,1.18a1.43,1.43,0,0,1-.86.21l-.63,0a3.35,3.35,0,0,1-1.31-.21,1.24,1.24,0,0,1-.65-.95Zm1,.64.75-.81c-.06-.23-.38-.35-1-.35A1.87,1.87,0,0,0,984.3,95.88Zm.1,9.48a1,1,0,0,0-.33.89,2.41,2.41,0,0,0,1.72-1.08l-.39,0A1.78,1.78,0,0,0,984.4,105.36ZM984.24,117a.58.58,0,0,0,.53.43,2.88,2.88,0,0,0,.9-.23c.42-.16.63-.4.63-.71s-.12-.69-.35-.69l-.16,0a2.58,2.58,0,0,0,.47-.81H986a4,4,0,0,0-1.26.23.84.84,0,0,0-.66.8A2.58,2.58,0,0,0,984.24,117Zm.83-13.33a6,6,0,0,0-.77.18v1.11a7.4,7.4,0,0,0,1.43-.15c.51-.1.76-.26.76-.49a1,1,0,0,0-.11-.56.56.56,0,0,0-.47-.17A5.6,5.6,0,0,0,985.07,103.62Zm-.65,7.68a.79.79,0,0,1,.12.24,2.69,2.69,0,0,0,.35-.41l.31-.45a9,9,0,0,1,.63-.89,1,1,0,0,1,.66-.36v-1.64h-.7v-.3a3.15,3.15,0,0,0-.9.2c-.39.13-.59.25-.59.36l.24.82a3.38,3.38,0,0,1,.41-.3,1.88,1.88,0,0,1,.37-.22c.13,0,.2.09.2.26l-.45.58a5.46,5.46,0,0,1-.53.58h1a1.22,1.22,0,0,0-.89.33,1.15,1.15,0,0,0-.33.88A.67.67,0,0,0,984.42,111.3Zm0,3.18a.6.6,0,0,0,.57.24,1.56,1.56,0,0,0,1.15-.35,1.89,1.89,0,0,0,.33-1.29,1.17,1.17,0,0,0-.6.22,4.11,4.11,0,0,0-.61.47,4.49,4.49,0,0,1-.51.43.74.74,0,0,1,.16-.47,2.57,2.57,0,0,1,.35-.39,3.7,3.7,0,0,0,.72-.86,2.46,2.46,0,0,0,.26-1.24v-1.08a9,9,0,0,0-1.72,2.15,6.93,6.93,0,0,1,1.45-.26c-1.13.58-1.69,1.13-1.69,1.68A1.58,1.58,0,0,0,984.44,114.48Zm.8,3.2c-.62.23-.94.39-.94.48v1.42c.34,0,.76-.28,1.25-.82a2.3,2.3,0,0,0,.75-1.46ZM985.3,106c-.51.44-.76.77-.76,1v.3c.08,0,.42-.11,1-.24s.92-.22.92-.28v-1.42A2.23,2.23,0,0,0,985.3,106Zm-.2-8.84a2.46,2.46,0,0,0,.89.13V95a1,1,0,0,0-.85.52,1.85,1.85,0,0,0-.37,1.07Q984.77,97.05,985.1,97.17Zm.42,19.1a1.69,1.69,0,0,1-.75.55,3.2,3.2,0,0,0,.26-.3c.14-.17.26-.25.37-.25Z"/>
      <path d="M995.19,111.54q-.48-4.86-.67-7.64c-.13-1.85-.19-3.7-.19-5.57a1.09,1.09,0,0,1,.13-.64.55.55,0,0,1,.45-.17.74.74,0,0,1,.39.15.8.8,0,0,0,.4.15.91.91,0,0,1,.58-.17,4.3,4.3,0,0,1,.87.13,1.82,1.82,0,0,1,.74-.13,1.17,1.17,0,0,1,.69.21.87.87,0,0,1,.29.73q0,2.19-.39,6.15c-.26,2.64-.4,4.66-.4,6.06l-.15.48c0,.11,0,.63-.1,1.55s-.1,1.6-.1,2.06c0,.23-.06.38-.19.45a1.77,1.77,0,0,1-.75.11h-.31a1.29,1.29,0,0,1-.94-.26Zm.06-12.63c.06.13.12.2.17.2.24,0,.36-.14.36-.43h-.67Zm.21,3.38a1.63,1.63,0,0,0,.28,1.16,1.78,1.78,0,0,1,.35-.58.93.93,0,0,0,.27-.45.8.8,0,0,1-.51-.13.6.6,0,0,1-.15-.47A1.52,1.52,0,0,1,996,101a3.66,3.66,0,0,0,.35-.64l-.78.43a3.32,3.32,0,0,0,0,.86Zm.08,19.18c0-1.43.16-2.15.47-2.15a10.36,10.36,0,0,1,1.55.11,1.2,1.2,0,0,1,.92.53c0,.38.1.76.13,1.14s.08.66.1.8a.78.78,0,0,1-.19.39.94.94,0,0,0-.2.3,2,2,0,0,1-.33-.13.66.66,0,0,0-.26-.09l-.74.11-.67.11a.81.81,0,0,1-.6-.18.73.73,0,0,1-.18-.55Zm.12-15.52a.36.36,0,0,0,.31-.18,1,1,0,0,0,.16-.34H996C995.78,105.43,995.66,105.6,995.66,106Zm.35-6.41.51-.22a1.72,1.72,0,0,0,.63-.43h-1l-.24.65Zm0,8.62a2.32,2.32,0,0,0-.12,1,1.85,1.85,0,0,0,.63-.56,1.41,1.41,0,0,0,.19-.78A1.3,1.3,0,0,0,996,108.16Zm-.08,11.42a.24.24,0,0,0,.06.15.2.2,0,0,0,.14.06.14.14,0,0,0,.12-.06.4.4,0,0,0,0-.15.57.57,0,0,0,0-.18.14.14,0,0,0-.12-.08C996,119.32,995.93,119.4,995.93,119.58Zm.16-7.1a2.43,2.43,0,0,0,.43,1.64,5.77,5.77,0,0,0,.23-1.55c0-.63,0-1.23,0-1.81-.44,0-.66.19-.66.56Zm.55-6.34a1.92,1.92,0,0,0-.2.84.63.63,0,0,0,.59-.39,1.87,1.87,0,0,0,.19-.86A.62.62,0,0,0,996.64,106.14Zm-.12-2.26c.57,0,.86-.3.86-.9C997,103,996.75,103.28,996.52,103.88Zm0,5.85h.39v-.22Zm.14,11.52a.84.84,0,0,0,.45.09h.11c.29,0,.46-.09.51-.26a.89.89,0,0,0-.9-.43.34.34,0,0,0-.31.22C996.52,121.07,996.56,121.2,996.66,121.25Zm.6-20.42h.47v-.65C997.42,100.44,997.26,100.66,997.26,100.83Z"/>
      <path d="M888.67,152.51c0-.26-.38-.43-1.13-.52a19.63,19.63,0,0,0-2.31-.13l-1.92,0c-1.52,0-2.27-.15-2.27-.47a2.25,2.25,0,0,1,.35-1.16,6.11,6.11,0,0,0,.29-.67,2.22,2.22,0,0,0,.14-.79,3.31,3.31,0,0,0,.23-.35q.19-.3,1.65-.3v.39c1.54,0,2.88,0,4,0l2.9.09q4.7.16,7,.17c1,0,1.79,0,2.31,0,.31.11.47.51.47,1.2v.43a2.75,2.75,0,0,1-.23,1.25L897,152a13.32,13.32,0,0,0-2.15.39,10.7,10.7,0,0,1-2.19.38,14.77,14.77,0,0,0-.28,3.36c0,1.29.06,3.22.16,5.8s.16,4.46.16,5.81c0,.69,0,2.19-.12,4.51-.08.95-.12,2-.12,3.1,0,.09,0,.29,0,.62a1.12,1.12,0,0,1-.27.73,1,1,0,0,1-.71.24,1,1,0,0,1-.43-.15,1,1,0,0,0-.43-.15,1.5,1.5,0,0,1-.45.17,2.31,2.31,0,0,1-.61.09,1.28,1.28,0,0,1-.56-.35c-.28-.23-.41-.37-.41-.43l.11-22Zm-4.17-2.07a1.21,1.21,0,0,0,.92-.6,10.24,10.24,0,0,1-1.17-.26,6,6,0,0,0-1.26-.3v1.25A10.54,10.54,0,0,0,884.5,150.44Zm1.84-.62a3.66,3.66,0,0,0-.92.49l1.45.05c.84,0,1.25-.13,1.25-.39s-.26-.39-.78-.39A2.89,2.89,0,0,0,886.34,149.82Zm2.72.84a1.35,1.35,0,0,0,.73-.15,1.81,1.81,0,0,0,.45-.67l-.63-.09a2.1,2.1,0,0,0-.66.09.62.62,0,0,0-.39.47A.45.45,0,0,0,889.06,150.66Zm.49,20.49c.17.18.28.28.34.28a1.61,1.61,0,0,1,.66-1.21c.05-.05.16-.18.34-.36a1.46,1.46,0,0,0,.33-.67h-.12a2.33,2.33,0,0,0-1.1.45,1.26,1.26,0,0,0-.7,1.06A.79.79,0,0,0,889.55,171.15Zm0-9.23c0,.41.09.62.27.65a6.17,6.17,0,0,0,1.17-1.59.25.25,0,0,0-.05-.15l-.1-.11a1.6,1.6,0,0,0-1,.24,1,1,0,0,0-.31.83Zm0,3.66a.31.31,0,0,0,.24.17c.26-.26.53-.55.82-.88a3.47,3.47,0,0,0,.63-1,2.06,2.06,0,0,0-1.18.37,1.11,1.11,0,0,0-.54,1A1.58,1.58,0,0,0,889.53,165.58Zm.4,9.46c.15,0,.43-.38.82-1.14a4.54,4.54,0,0,0,.59-1.53h-.4v-.73l-1.17.47-.24,2.71A.55.55,0,0,0,889.93,175Zm.13-21.48c-.11.27-.21.54-.29.8.21,0,.46-.21.76-.61a1.93,1.93,0,0,0,.45-1.16c0-.05-.06-.13-.17-.21a.56.56,0,0,0-.34-.13,3.2,3.2,0,0,1,.24-1.51,1.77,1.77,0,0,0,.23-.43v.95a1.5,1.5,0,0,0,1-.52,1.42,1.42,0,0,0,.55-1,4.29,4.29,0,0,0-1.78.32,1.32,1.32,0,0,0-.69,1.32,3.79,3.79,0,0,0,.12,1.05,2.41,2.41,0,0,1,.12.62A1.77,1.77,0,0,1,890.06,153.56Zm-.17,5a3.92,3.92,0,0,0-.12,1.11,1.86,1.86,0,0,0,.74-1.29l0-.25A.59.59,0,0,0,889.89,158.53Zm1.05,8.12a1.63,1.63,0,0,0,.36-1.16c0-.11,0-.25,0-.43a3.41,3.41,0,0,0-.06-.38l-1.45,2.1v.56A2.86,2.86,0,0,0,890.94,166.65Zm-1.17,1.77c.08,0,.14-.06.19-.18A.55.55,0,0,0,890,168l0-.17C889.85,167.94,889.77,168.13,889.77,168.42Zm.53-5.81a2.27,2.27,0,0,0-.3,1.08,2,2,0,0,0,.87-.2.64.64,0,0,0,.39-.62,2.08,2.08,0,0,0-.32-1.08A2.44,2.44,0,0,0,890.3,162.61Zm1.15,5.81,0-.35v-.13q0-.51-.27-.6L890,169.19Zm-.86-11.94a9.55,9.55,0,0,0-.35,1l.23.09c.34,0,.51-.34.51-1l0-.9Zm-.35,3.47h.55v-1.08Zm0,15.6a1.33,1.33,0,0,0,.53-.27.6.6,0,0,0,.21-.46l0-.3A3.24,3.24,0,0,0,890.24,175.55Zm.51-5.11a1,1,0,0,0-.32.69.94.94,0,0,0,.73-.24,1.66,1.66,0,0,0,.29-.88l-.11,0A2,2,0,0,0,890.75,170.44Zm.19-16.64a2,2,0,0,1-.25.58,1.44,1.44,0,0,0-.22.49,1.24,1.24,0,0,0,.83-.88,5.24,5.24,0,0,0,.15-1.23V152Zm-.15,19.35h-.32l.32-.22Zm2.11-22.49h.24v-.52h-.24Zm2.43,0s.07,0,.14-.15a1.14,1.14,0,0,0,.13-.28c0-.29-.32-.43-1-.43l-1,0v.82Zm3.76-.35a.36.36,0,0,0-.26-.38,2.91,2.91,0,0,0-.88-.09c-.1,0-.41,0-.92.11a4.59,4.59,0,0,0-1,.19l.2.17Z"/>
      <path d="M918.71,173.56a.19.19,0,0,0-.08.15,10.72,10.72,0,0,0,.24,1.11,7.59,7.59,0,0,1,.23,1.55c0,.32-.23.52-.68.6a8.81,8.81,0,0,1-1.53.15,3.18,3.18,0,0,0-.84.07,2.68,2.68,0,0,1-.32-.22c-.15-.11-.23-.21-.23-.3v-8.51c0-1.32,0-2.52-.12-3.61a8.69,8.69,0,0,0-.59-2.76h0a10.13,10.13,0,0,1-2.42-1.59,6.77,6.77,0,0,1-1.28.28,8.32,8.32,0,0,0-2.42.86,2.43,2.43,0,0,0-1.36,1.79q-.07.47-.15,1.2a10,10,0,0,0-.08,1.21c0,.68-.08,1.23-.08,1.63-.16,2.29-.23,4-.23,5.2q0,1.08,0,1.59l-.23.26.41.67a1.94,1.94,0,0,1,.33,1,1.34,1.34,0,0,1-.11.51.4.4,0,0,1-.4.26h-2.85a.5.5,0,0,0-.38-.3.38.38,0,0,1-.33-.26l0-3.52q0-2.88.39-8.65c0-.45.09-1.6.2-3.44s.16-3.54.16-5.11c0-.63,0-1.37,0-2.22s-.06-1.49-.08-1.95c-.11-1.9-.16-3.31-.16-4.26h2.9l.51.26v2.23q0,7.28.23,7.27l.24.56a27.91,27.91,0,0,1,3-.9,11.55,11.55,0,0,1,2.69-.43,5,5,0,0,1,3.23,1.22,8.49,8.49,0,0,1,2.31,3.12,9.17,9.17,0,0,1,.84,3.74,19.7,19.7,0,0,1-.16,2.41c-.1.89-.17,1.46-.19,1.72a34.28,34.28,0,0,0-.39,4.3,8.86,8.86,0,0,0,0,1A.21.21,0,0,0,918.71,173.56Zm-13,1.41a1.39,1.39,0,0,0,.19-.75,3.44,3.44,0,0,0,0-.54.86.86,0,0,0-.23-.49l-.35.17a.84.84,0,0,1-.39.13l1-1.07c-.1-.58-.23-.86-.39-.86l-.11,0,.27-.56a1.61,1.61,0,0,0-1.49.86s0,.07.1.13a.24.24,0,0,0,.18.08.45.45,0,0,0,.25-.08l.22-.13-.47.77.23.26c-.13.06-.21.12-.23.19a1,1,0,0,0,0,.33c0,.11.08.29.15.54a1.93,1.93,0,0,1,.12.53l-.16.13a.38.38,0,0,0-.11.3c0,.06.09.13.27.22a1.24,1.24,0,0,0,.47.13A.64.64,0,0,0,905.67,175Zm.08-9.65a16,16,0,0,1,.31-3.53,1.42,1.42,0,0,1-.24.11l-.23.11a2.68,2.68,0,0,0-.84.58,1.54,1.54,0,0,0-.18.88c0,.12,0,.17,0,.17l.47.3-.47.48v3.44l.47.3a1.15,1.15,0,0,0-.55.36,1,1,0,0,0-.23.63,1.92,1.92,0,0,1,.72.19,1.19,1.19,0,0,1,.57.41,2,2,0,0,0,.27-1.08h-.54a1.85,1.85,0,0,1,.5-.81C905.77,167,905.75,166.15,905.75,165.32Zm-.55,5.07a1.17,1.17,0,0,1-.35.13l.23-.51a1,1,0,0,0-.51.13.36.36,0,0,0-.23.3c0,.17.06.28.17.32a1.44,1.44,0,0,0,.45.06,2.13,2.13,0,0,0,.49,0,.74.74,0,0,0,.37-.26.26.26,0,0,0-.09-.17c-.07-.06-.11-.08-.14-.08A1.13,1.13,0,0,0,905.2,170.39ZM905,148.21c-.23.11-.35.21-.35.3a10.47,10.47,0,0,0,.39,2.19,11.26,11.26,0,0,1,.32,1.76.75.75,0,0,1-.08.3,1.08,1.08,0,0,1-.16.26v4.26l.24.26c-.11,0-.19.14-.26.43a4.35,4.35,0,0,0-.1.9h.63c-.39.32-.59.6-.59.86a1.65,1.65,0,0,0,.69-.24,3.63,3.63,0,0,0,.6-.36,4.19,4.19,0,0,0-.15-.95c-.11-.4-.21-.61-.32-.64a2.15,2.15,0,0,0,.12-.35c0-.17.09-.33.12-.47a10.75,10.75,0,0,0-.16-1.59,8.92,8.92,0,0,1-.19-1.81h-.12a2,2,0,0,0,.23-.71,7.23,7.23,0,0,0,0-.92c0-.49,0-.77-.13-.84s-.14-.13-.14-.19a2,2,0,0,1,.14-.63,3.05,3.05,0,0,0,.13-1,3.63,3.63,0,0,0-.06-.82c0-.14-.11-.22-.21-.22A1.45,1.45,0,0,0,905,148.21Zm3.57,11.52c2.19-.86,3.38-1.5,3.56-1.93l-.23-.26c-2,.54-2.94.81-2.86.81l-.51,0a2.87,2.87,0,0,0-.59.65,4.05,4.05,0,0,1-.49.58.7.7,0,0,1-.49.19.29.29,0,0,1-.25-.15l-.14-.19a5,5,0,0,0-1.25.62,1.13,1.13,0,0,0-.43,1c0,.34.15.51.47.51a5.73,5.73,0,0,0,1.37-.41,1.1,1.1,0,0,0,.49-.49.73.73,0,0,1,.33-.39Zm2.7-.62a.6.6,0,0,0,.16-.5l-1,.56.35,0A.86.86,0,0,0,911.23,159.11Zm3.56-1.31a1.61,1.61,0,0,0-1-.26h-.72l-1.21,1.63.23.22A11.34,11.34,0,0,0,914.79,157.8Zm-.92,1.54c.25-.25.46-.5.65-.73a3.33,3.33,0,0,1-.57.22,4.68,4.68,0,0,0-1.12.56,1.64,1.64,0,0,0,.28.19l.27.15C913.46,159.73,913.62,159.6,913.87,159.34Zm.92.39a1.6,1.6,0,0,0,.79-.26,1.71,1.71,0,0,0,.62-.6l-.51-.56-1.17,1.38Zm1.53,2.17a1,1,0,0,1,.35-.11l-.27.56.55.22-.55.56a2.41,2.41,0,0,0,1.07-.37,1.08,1.08,0,0,0,.69-1,.6.6,0,0,0-.16-.43.51.51,0,0,0-.39-.17l-.19.05.23-.48a1.54,1.54,0,0,0-.19-.77.6.6,0,0,0-.51-.35,1.28,1.28,0,0,0-.81.35,2.71,2.71,0,0,0-.64.77l.47.22a4,4,0,0,1-.14.47c-.07.17-.11.29-.14.34a.19.19,0,0,0,.1.15.29.29,0,0,0,.18.07A1,1,0,0,0,916.32,161.9Zm1.57,2.6a2.2,2.2,0,0,0,.66-1.72,2.35,2.35,0,0,0-1.64.65,2.18,2.18,0,0,0-.71,1.68A2.45,2.45,0,0,0,917.89,164.5Zm-.32,5.25a2.84,2.84,0,0,1,.32-1c0-.06.11-.27.25-.65a3.74,3.74,0,0,0,.22-1.33.74.74,0,0,0-.06-.28q-.06-.15-.18-.15l-1.45,1v.09c0,.28.09.43.28.43a3.16,3.16,0,0,0-.51.58,1,1,0,0,0-.24.49l.47-.26a.25.25,0,0,0,0,.13.44.44,0,0,0,.1.26.43.43,0,0,0,.22.17l-.18.18c-.07.05-.1.17-.1.34a.44.44,0,0,0,.12.15.91.91,0,0,0,.16.11l-.28.26v5.67H917a1.36,1.36,0,0,0,.66-.13.52.52,0,0,0,.24-.51c0-.46,0-.86,0-1.19s-.06-.6-.08-.83a19.56,19.56,0,0,1-.16-2.24h-.19a1.93,1.93,0,0,0,.58-1.29Zm.14-3.55a2.26,2.26,0,0,0,.69-1.52,2.15,2.15,0,0,0-1.1.43c-.45.28-.67.58-.67.9h.55a.78.78,0,0,1-.33.32,1.78,1.78,0,0,0-.35.22.45.45,0,0,0-.14.4A1.91,1.91,0,0,0,917.71,166.2Z"/>
      <path d="M925.6,162.44a20.17,20.17,0,0,1,1.72-4.43l.08,0a2.4,2.4,0,0,0,1-.56,2.5,2.5,0,0,1,.9-.51c.18-.06.66-.19,1.43-.39a8.69,8.69,0,0,1,2.17-.3v.39a3.61,3.61,0,0,1,1-.26c.3,0,.61,0,.92,0a11,11,0,0,1,2.37.25c.77.18,1.16.48,1.16.91a1.85,1.85,0,0,1,1.55.75,9.88,9.88,0,0,1,1.11,2,8.68,8.68,0,0,0,.41.86,1.48,1.48,0,0,0,.41.52v3.7l-.7.56.19.25c-.7.61-2.24.91-4.62.91h-2c-1.31,0-2.16,0-2.57,0s-1.19-.14-2.37-.34c0-.17-.1-.26-.23-.26a.58.58,0,0,0-.2.05.93.93,0,0,1-.23,0,14.07,14.07,0,0,0,.29,2.75,4.9,4.9,0,0,0,.88,2.19,4.72,4.72,0,0,0,1.72,1,6.68,6.68,0,0,1,.94.39,2.11,2.11,0,0,0,1.22.55,8.42,8.42,0,0,0,2-.25l1.21-.3a10.92,10.92,0,0,1,3-.56.67.67,0,0,1,.68.49,3.76,3.76,0,0,1,.18,1.27,2.65,2.65,0,0,1-.12,1,.57.57,0,0,1-.43.28.78.78,0,0,0-.51.37c-.16.05-1.68.34-4.58.86-1.1,0-2.07,0-2.92-.09a8.9,8.9,0,0,1-2.37-.47,5.81,5.81,0,0,1-2.45-2,16,16,0,0,1-2-3.53,8.7,8.7,0,0,1-.82-3.31A18.06,18.06,0,0,1,925.6,162.44Zm1.14,5.42a1.57,1.57,0,0,0,.72-.2.58.58,0,0,0,.37-.53.65.65,0,0,0-.12-.28.78.78,0,0,1-.11-.37,5.06,5.06,0,0,1,.27-.75,2.32,2.32,0,0,0,.2-.93.73.73,0,0,0-.14-.49,1.4,1.4,0,0,0-.39-.28c-.17-.09-.26-.19-.26-.3a3.13,3.13,0,0,1,.26-.8,2.76,2.76,0,0,0,.25-.83,3,3,0,0,1,.75-1.42c.28-.43.51-.78.66-1a1.42,1.42,0,0,0,.24-.77,1.49,1.49,0,0,1,.43.09,2,2,0,0,0,.55.08c.08,0,.13-.08.15-.23s.07-.25.12-.28a3.79,3.79,0,0,1,1.25-.13c.6,0,1.06-.07,1.38-.11s.48-.14.5-.28a2.85,2.85,0,0,0-.82-.28,7,7,0,0,0-1-.06,4.66,4.66,0,0,0-4.05,2,8.47,8.47,0,0,0-1.39,5h1.25v.26l-1.45,1.59v.82l.47-.3-.47.81Zm0,.62a2,2,0,0,0-.2,1.1,1,1,0,0,0,.8-.41,1.39,1.39,0,0,0,.34-.93C927.14,168.24,926.83,168.32,926.7,168.48Zm.68,1a2,2,0,0,0-.33,1.06,2.24,2.24,0,0,0,1.49-.35,4.41,4.41,0,0,0-.39-.71,2.79,2.79,0,0,1-.36-.66Zm.26,2.24a5,5,0,0,1,.15.58,1.74,1.74,0,0,0,.9-1.63c-.73,0-1.18.18-1.37.55A1,1,0,0,1,927.64,171.75Zm2.11.92,0-.13-1.41-.21-.27.21,1.25,1.12A2.9,2.9,0,0,0,929.75,172.67Zm-1-8.12a1,1,0,0,0-.25.69.85.85,0,0,0,.68-.22,1.22,1.22,0,0,0,.18-.77A.79.79,0,0,0,928.71,164.55Zm2.59-1.14c1.39.1,2.56.15,3.5.15a14.33,14.33,0,0,0,1.88-.17,11.53,11.53,0,0,1,1.8-.18,3.22,3.22,0,0,0-.27-.88c-.18-.44-.33-.66-.43-.66l-.08,0A2.72,2.72,0,0,0,936,160.2a6.84,6.84,0,0,0-2.49-.6,4.49,4.49,0,0,0-4.46,3.23C929.14,163.11,929.9,163.31,931.3,163.41ZM929.61,165c-.24.26-.45.49-.6.69l.82-.17a4.8,4.8,0,0,0,.53-.11,3.37,3.37,0,0,0,1.08-.54c-.08,0-.49-.11-1.22-.26h-.16S929.86,164.76,929.61,165Zm.22,9a.91.91,0,0,0,.16.11,2.57,2.57,0,0,0,.78-.39c.29-.2.43-.34.43-.43a.52.52,0,0,0-.14-.36q-.13-.15-.21-.15a1.14,1.14,0,0,0-.75.36,1,1,0,0,0-.39.71A.44.44,0,0,0,929.83,174.07Zm1.84.93q.2.21.24.21a1.49,1.49,0,0,0,1-.41,1.31,1.31,0,0,0,.45-1c-1,0-1.48.13-1.48.39a.76.76,0,0,0-.14-.35c-.09-.14-.16-.21-.22-.21s-.21.14-.49.41-.41.45-.41.54l0,.12A4.7,4.7,0,0,1,931.67,175Zm1.14-9.29a.83.83,0,0,0,.6-.26.89.89,0,0,0,.26-.65c-1.31,0-2,.21-2.23.61A3.87,3.87,0,0,0,932.81,165.71Zm.78,9.5a9.08,9.08,0,0,0,1.57-.17l1.13-.22a13.58,13.58,0,0,1,2.16-.34l.47.21a1.79,1.79,0,0,0,.86-.21.72.72,0,0,0,.39-.69,9.08,9.08,0,0,0-2.12.35,6.47,6.47,0,0,0-.66.17,6.7,6.7,0,0,1-.9.17c-.53,0-1.08,0-1.67.06a11.55,11.55,0,0,0-1.23.15l-.24.31Q933.55,175.21,933.59,175.21Zm1.57-10.06a3.91,3.91,0,0,0-1.08.15c-.35.1-.53.28-.53.54l0,.13,1.39-.11c.87-.07,1.38-.31,1.51-.71h-1.33ZM938,160c.47.46.78.69.94.69a1.62,1.62,0,0,0,.62-.18c.26-.11.39-.24.39-.38a2.91,2.91,0,0,0-.15-.76,2.88,2.88,0,0,1-.16-.58c0,.09-.06.16-.18.2a.88.88,0,0,1-.29.06,1.65,1.65,0,0,1-.72-.34A.85.85,0,0,1,938,158c-.75,0-1.13-.2-1.13-.6,0,0-.16.1-.31.3a1.06,1.06,0,0,1-.87.3.61.61,0,0,1-.39-.17.72.72,0,0,0-.51-.17l-.51,0a2.06,2.06,0,0,1,.38.56c.19.34.35.53.49.56a.7.7,0,0,0,.29-.15.69.69,0,0,1,.37-.15,4.53,4.53,0,0,1,.59.23,2.07,2.07,0,0,0,.86.2C937.27,159.19,937.51,159.53,938,160Zm1.56,4.58a2.62,2.62,0,0,1-1.13.19,3.37,3.37,0,0,0-.94.17.55.55,0,0,0-.32.56c.86,0,1.54,0,2-.08s.8-.23.9-.52a.61.61,0,0,0,.55.35,2.46,2.46,0,0,0-.14-.76,2.22,2.22,0,0,1-.14-.62.35.35,0,0,1,.18-.3,1,1,0,0,0,.27-.3,1.55,1.55,0,0,0,.1-.69q0-1.68-.9-1.68c-.26,0-.42.08-.49.24a2.78,2.78,0,0,0-.1.88c.29,1,.46,1.46.51,1.55v.17A.85.85,0,0,1,939.54,164.57Z"/>
      <path d="M954,172.5c0-1.52,0-2.92,0-4.21s0-2.45.08-3.49q.15-6.18.15-9.89v-1.59c0-1.06,0-2,.08-2.92a30,30,0,0,1,.39-3.14.81.81,0,0,1,.42-.67,2.14,2.14,0,0,1,.88-.15,2.87,2.87,0,0,1,1.64.33,1.38,1.38,0,0,1,.43,1.18,1.39,1.39,0,0,1-.12.54.73.73,0,0,1-.35.4l.28.22a6.11,6.11,0,0,0,0,1c0,.11.13,2.28.39,6.49l.08,1,.27.3a8.82,8.82,0,0,1,3.08-1.09,22.36,22.36,0,0,1,3.7-.28q0,.16.45.36a7.33,7.33,0,0,0,.92.37,13.21,13.21,0,0,1,2,.95,1.24,1.24,0,0,1,.71,1.07c.44,0,.8.3,1.06.9a16.45,16.45,0,0,1,.78,2.54q.27,1.15.45,1.68a1,1,0,0,0,.45.64,5,5,0,0,0,0,.91,4.53,4.53,0,0,0,.06.71,3.65,3.65,0,0,1,.06.53,7,7,0,0,1,.12,1.29l-.2,1.08.1.13.1.13a3.79,3.79,0,0,1-.75,1.84,9,9,0,0,1-3.38,3.83,9.62,9.62,0,0,1-4.92,1.21,6.71,6.71,0,0,1-2.51-.69,6.09,6.09,0,0,0-2.31-.65c-.07,0-.18.14-.31.41a4,4,0,0,1-.39.67.7.7,0,0,1-.59.26,6.87,6.87,0,0,1-1.6-.2,3.53,3.53,0,0,1-1.34-.58ZM957.67,160a5.26,5.26,0,0,1-.68-1.83,12.12,12.12,0,0,1-.18-2.21l0-2.37h-.16l.28-.51v-4.82c0-.17-.12-.33-.35-.49a1.19,1.19,0,0,0-.63-.24c-.24,0-.39.07-.45.22a1.64,1.64,0,0,0-.1.68c0,.64,0,1,.14,1s.13.11.13.17a2.62,2.62,0,0,1-.21.64,2.68,2.68,0,0,0-.22.69s.08.12.22.26.21.23.21.26a1.36,1.36,0,0,1-.13.49,2.78,2.78,0,0,0-.14,1c0,.78.18,1.16.55,1.16l-.51,1.08.51.21-.16,0c-.26,0-.39.26-.39.77a1.17,1.17,0,0,0,.14.71c.09.11.13.18.13.24a1.28,1.28,0,0,1-.07.37c-.06.15-.11.29-.16.4l.78.35h-.78V160Zm-2.23,8.77,0,.22a2.25,2.25,0,0,0,.57-.3.65.65,0,0,0,.29-.52Q955.44,168.2,955.44,168.8Zm0,2.15a2,2,0,0,0,1.25-.6h-.35Q955.44,170.35,955.44,171Zm.12,1.85a2.45,2.45,0,0,0-.12.8v.62a1.52,1.52,0,0,0,1.25-.9h-.35c-.42,0-.63-.12-.63-.35l.55-.77A1.17,1.17,0,0,0,955.56,172.8Zm-.08-12,.23,0a1.49,1.49,0,0,0,.36,0c.08,0,.14-.12.19-.26l-.27-.05A.5.5,0,0,0,955.48,160.81Zm0,4.51h.23L957,164v-.26h-1.49Zm1,1.81a1.31,1.31,0,0,0-.79.34,1.51,1.51,0,0,1,.38-.64,2.47,2.47,0,0,0,.37-.56c0-.12-.12-.22-.35-.3a1.81,1.81,0,0,0-.63-.13v2C956.16,167.81,956.5,167.59,956.5,167.13Zm.31,2.71v-.13c0-.55-.13-.85-.39-.91l-.94,1Zm-.61,1.24q-.72.43-.72.6V172a3.36,3.36,0,0,0,1.49-.35c.47-.23.7-.39.7-.47s0-.37-.12-.43a.54.54,0,0,0-.35-.09A2.74,2.74,0,0,0,956.2,171.08Zm.28-9.14a1.22,1.22,0,0,0-.81,1.06c1.54,0,2.32-.42,2.32-1.25l0-.39A7.55,7.55,0,0,0,956.48,161.94Zm-.22-2.47-.55.3a.49.49,0,0,1,.44-.3Zm-.15,15.2a.84.84,0,0,0-.2.58h.16a1.66,1.66,0,0,0,.66-.1.5.5,0,0,0,.24-.5,1.79,1.79,0,0,0,0-.39.43.43,0,0,0-.24-.21C956.43,174.31,956.24,174.52,956.11,174.67Zm.68-13.91a2.22,2.22,0,0,0-.8.6h.27a3.48,3.48,0,0,0,.81-.36l.88-.45h-.16A2.53,2.53,0,0,0,956.79,160.76Zm-.61,4.9a.57.57,0,0,0,.51-.34l-.27-.26A.88.88,0,0,0,956.18,165.66Zm1.84,7.25a4.55,4.55,0,0,0,1.34.41,2.74,2.74,0,0,1-.41-.63,3.24,3.24,0,0,0-.4-.6.61.61,0,0,0-.49-.19,1.11,1.11,0,0,0-.6.13,1.74,1.74,0,0,0-.49.47A10.31,10.31,0,0,1,958,172.91Zm3.45.26c.37.16.55.28.55.36v.26h2.47l.19.26.24-.52.94-.45a3.3,3.3,0,0,1,.9-.32c.75,0,1.28-.56,1.58-1.68a12.86,12.86,0,0,0,.45-3.35,13.93,13.93,0,0,0-.43-3.2,8.86,8.86,0,0,0-1.37-3.17,2.76,2.76,0,0,0-2.31-1.33c-.21,0-1.41.09-3.6.26a3.09,3.09,0,0,0-1.74,1.48,11.17,11.17,0,0,0-1.22,2.76,9,9,0,0,0-.45,2.38,4.69,4.69,0,0,0,.51,2.3,11.15,11.15,0,0,0,1.45,2,10.3,10.3,0,0,1,.76,1,1.35,1.35,0,0,1,.26.73A2.3,2.3,0,0,1,961.47,173.17Zm6.78,0a.36.36,0,0,0,.11.21.32.32,0,0,0,.24.13,2.51,2.51,0,0,1,.66-.64,1.74,1.74,0,0,0,.45-.52,1.58,1.58,0,0,0,.14-.77,2.1,2.1,0,0,0,.82-.13.58.58,0,0,0,.32-.6l-.12-.26a1.18,1.18,0,0,0-.16-.26h.51c.16,0,.24-.61.24-1.85,0-4.7-1-7.71-2.86-9l0-.08c0-.18-.37-.37-1.1-.58s-1.49-.41-2.29-.58a15.7,15.7,0,0,0-1.66-.31,6.41,6.41,0,0,0-2.8.56,9.35,9.35,0,0,0-2.41,1.81l.27.26,1.45-1.34c.13,0,.74-.08,1.84-.25,1.52-.2,2.36-.3,2.55-.3l1.37,0c.57.74,1,1.12,1.33,1.12l.15,0,.95,2.37.46-.3v1.37a.61.61,0,0,1,.55.41,6.76,6.76,0,0,1,.39,1.27,6.21,6.21,0,0,0,.28,1c-.05,0-.11,0-.16.17a.73.73,0,0,0-.08.26s.08.17.24.34c0,.14-.06.3-.1.47s-.07.3-.1.39a.71.71,0,0,0,.12.45,2.72,2.72,0,0,0,.41.37.66.66,0,0,1,.3.56h-.28a.39.39,0,0,0-.25.08c-.07.06-.1.19-.1.39a.67.67,0,0,0,.06.32.53.53,0,0,0,.25.2,1.23,1.23,0,0,0-.43.34.8.8,0,0,0-.12.47.54.54,0,0,0,.24.52,1.51,1.51,0,0,0-1.12.71,2.09,2.09,0,0,0-.56,1.27Zm-8.11,1.25a.87.87,0,0,0-.14-.5.42.42,0,0,0-.37-.19l-.27,0C959.7,174.22,960,174.44,960.14,174.44Zm2.43,1,1.17-.05a2.29,2.29,0,0,0-.66-.21,5,5,0,0,0-.71,0l-.59,0A1,1,0,0,0,962.57,175.43Zm2,0c.76,0,1.19-.2,1.3-.61l-1.69.56Zm2.39-1.36c-.41.19-.62.41-.62.67l0,.08a2.33,2.33,0,0,0,1.72-1h-.16A2.81,2.81,0,0,0,967,174.07Z"/>
      <path d="M975.65,162.44a20.17,20.17,0,0,1,1.72-4.43l.08,0a2.46,2.46,0,0,0,1-.56,2.5,2.5,0,0,1,.9-.51c.18-.06.66-.19,1.43-.39a8.63,8.63,0,0,1,2.17-.3v.39a3.61,3.61,0,0,1,1-.26c.3,0,.61,0,.92,0a11,11,0,0,1,2.37.25c.77.18,1.15.48,1.15.91a1.83,1.83,0,0,1,1.55.75,9.85,9.85,0,0,1,1.12,2,6.9,6.9,0,0,0,.41.86,1.48,1.48,0,0,0,.41.52v3.7l-.71.56.2.25c-.71.61-2.25.91-4.62.91h-2c-1.3,0-2.16,0-2.56,0s-1.2-.14-2.37-.34c0-.17-.11-.26-.24-.26a.59.59,0,0,0-.19.05,1,1,0,0,1-.24,0,14.14,14.14,0,0,0,.3,2.75,4.79,4.79,0,0,0,.88,2.19,4.72,4.72,0,0,0,1.72,1,7.28,7.28,0,0,1,.94.39,2.09,2.09,0,0,0,1.21.55,8.35,8.35,0,0,0,2-.25l1.22-.3a10.86,10.86,0,0,1,3-.56.68.68,0,0,1,.69.49,4.06,4.06,0,0,1,.17,1.27,3,3,0,0,1-.11,1,.59.59,0,0,1-.44.28.79.79,0,0,0-.5.37c-.16.05-1.69.34-4.59.86-1.09,0-2.07,0-2.91-.09a8.9,8.9,0,0,1-2.37-.47,5.75,5.75,0,0,1-2.45-2,16,16,0,0,1-2.06-3.53,8.89,8.89,0,0,1-.82-3.31A18.1,18.1,0,0,1,975.65,162.44Zm1.13,5.42a1.58,1.58,0,0,0,.73-.2.59.59,0,0,0,.37-.53.65.65,0,0,0-.12-.28.7.7,0,0,1-.12-.37,6.9,6.9,0,0,1,.28-.75,2.31,2.31,0,0,0,.19-.93.74.74,0,0,0-.13-.49,1.64,1.64,0,0,0-.4-.28c-.16-.09-.25-.19-.25-.3a3.39,3.39,0,0,1,.25-.8,2.89,2.89,0,0,0,.26-.83,3.08,3.08,0,0,1,.74-1.42c.29-.43.51-.78.67-1a1.41,1.41,0,0,0,.23-.77,1.55,1.55,0,0,1,.44.09,2,2,0,0,0,.54.08c.08,0,.13-.08.16-.23s.06-.25.12-.28a3.75,3.75,0,0,1,1.25-.13c.6,0,1.06-.07,1.37-.11s.48-.14.51-.28a3,3,0,0,0-.82-.28,7,7,0,0,0-1-.06,4.64,4.64,0,0,0-4,2,8.47,8.47,0,0,0-1.39,5h1.25v.26l-1.45,1.59v.82l.47-.3-.47.81Zm0,.62a2,2,0,0,0-.19,1.1,1,1,0,0,0,.8-.41,1.43,1.43,0,0,0,.33-.93C977.19,168.24,976.87,168.32,976.74,168.48Zm.69,1a2,2,0,0,0-.33,1.06,2.2,2.2,0,0,0,1.48-.35,4.41,4.41,0,0,0-.39-.71,2.69,2.69,0,0,1-.35-.66Zm.25,2.24a5.48,5.48,0,0,1,.16.58,1.74,1.74,0,0,0,.9-1.63c-.73,0-1.19.18-1.37.55A1,1,0,0,1,977.68,171.75Zm2.12.92,0-.13-1.41-.21-.28.21,1.26,1.12A2.9,2.9,0,0,0,979.8,172.67Zm-1-8.12a1,1,0,0,0-.26.69.89.89,0,0,0,.69-.22,1.22,1.22,0,0,0,.18-.77A.77.77,0,0,0,978.76,164.55Zm2.58-1.14q2.1.15,3.51.15a14.33,14.33,0,0,0,1.88-.17,11.53,11.53,0,0,1,1.8-.18,3.22,3.22,0,0,0-.27-.88c-.19-.44-.33-.66-.43-.66l-.08,0A2.76,2.76,0,0,0,986,160.2a6.75,6.75,0,0,0-2.48-.6,4.51,4.51,0,0,0-4.47,3.23C979.18,163.11,980,163.31,981.34,163.41ZM979.66,165c-.25.26-.45.49-.61.69l.83-.17a4.88,4.88,0,0,0,.52-.11,3.37,3.37,0,0,0,1.08-.54c-.08,0-.48-.11-1.21-.26h-.16Q980,164.63,979.66,165Zm.22,9,.15.11a2.5,2.5,0,0,0,.79-.39c.28-.2.43-.34.43-.43a.52.52,0,0,0-.14-.36c-.09-.1-.16-.15-.22-.15a1.14,1.14,0,0,0-.74.36,1,1,0,0,0-.39.71A.29.29,0,0,0,979.88,174.07Zm1.84.93c.13.14.2.21.23.21a1.52,1.52,0,0,0,1-.41,1.31,1.31,0,0,0,.45-1c-1,0-1.49.13-1.49.39a.66.66,0,0,0-.14-.35q-.13-.21-.21-.21c-.05,0-.22.14-.49.41s-.41.45-.41.54l0,.12A5,5,0,0,1,981.72,175Zm1.13-9.29a.83.83,0,0,0,.61-.26.88.88,0,0,0,.25-.65c-1.3,0-2.05.21-2.23.61A3.91,3.91,0,0,0,982.85,165.71Zm.78,9.5a8.88,8.88,0,0,0,1.57-.17l1.14-.22a13.35,13.35,0,0,1,2.15-.34l.47.21a1.79,1.79,0,0,0,.86-.21.72.72,0,0,0,.39-.69,9,9,0,0,0-2.11.35c-.13,0-.35.08-.67.17a6.16,6.16,0,0,1-.9.17c-.52,0-1.07,0-1.66.06a11.84,11.84,0,0,0-1.24.15l-.23.31A.92.92,0,0,0,983.63,175.21Zm1.57-10.06a3.89,3.89,0,0,0-1.07.15c-.36.1-.53.28-.53.54l0,.13,1.4-.11c.87-.07,1.37-.31,1.5-.71H985.2ZM988,160c.47.46.78.69.94.69a1.61,1.61,0,0,0,.63-.18c.26-.11.39-.24.39-.38a2.63,2.63,0,0,0-.16-.76,3.33,3.33,0,0,1-.15-.58c0,.09-.06.16-.18.2a1,1,0,0,1-.29.06,1.73,1.73,0,0,1-.73-.34.86.86,0,0,1-.41-.69q-1.14,0-1.14-.6s-.15.1-.31.3a1,1,0,0,1-.86.3.61.61,0,0,1-.39-.17.72.72,0,0,0-.51-.17l-.51,0a2.16,2.16,0,0,1,.37.56c.2.34.36.53.49.56a.77.77,0,0,0,.3-.15.66.66,0,0,1,.37-.15,5.18,5.18,0,0,1,.59.23,2,2,0,0,0,.86.2C987.32,159.19,987.55,159.53,988,160Zm1.57,4.58a2.64,2.64,0,0,1-1.14.19,3.45,3.45,0,0,0-.94.17.54.54,0,0,0-.31.56c.86,0,1.54,0,2-.08s.79-.23.9-.52a.6.6,0,0,0,.54.35,2.43,2.43,0,0,0-.13-.76,2.22,2.22,0,0,1-.14-.62.35.35,0,0,1,.18-.3,1.27,1.27,0,0,0,.27-.3,1.71,1.71,0,0,0,.1-.69q0-1.68-.9-1.68c-.26,0-.43.08-.49.24a2.51,2.51,0,0,0-.1.88c.29,1,.46,1.46.51,1.55v.17A.85.85,0,0,1,989.59,164.57Z"/>
      <path d="M995.11,162.44a20.17,20.17,0,0,1,1.72-4.43l.08,0a2.4,2.4,0,0,0,1-.56,2.5,2.5,0,0,1,.9-.51c.18-.06.66-.19,1.43-.39a8.63,8.63,0,0,1,2.17-.3v.39a3.61,3.61,0,0,1,1-.26c.3,0,.61,0,.92,0a11,11,0,0,1,2.37.25c.77.18,1.16.48,1.16.91a1.83,1.83,0,0,1,1.54.75,9.85,9.85,0,0,1,1.12,2,8.68,8.68,0,0,0,.41.86,1.48,1.48,0,0,0,.41.52v3.7l-.7.56.19.25c-.7.61-2.24.91-4.62.91h-2c-1.3,0-2.16,0-2.56,0s-1.19-.14-2.37-.34c0-.17-.1-.26-.23-.26a.58.58,0,0,0-.2.05,1,1,0,0,1-.24,0,14.14,14.14,0,0,0,.3,2.75,4.79,4.79,0,0,0,.88,2.19,4.72,4.72,0,0,0,1.72,1,6.68,6.68,0,0,1,.94.39,2.11,2.11,0,0,0,1.22.55,8.28,8.28,0,0,0,1.95-.25l1.22-.3a10.92,10.92,0,0,1,3-.56.68.68,0,0,1,.69.49,3.76,3.76,0,0,1,.18,1.27,2.65,2.65,0,0,1-.12,1,.57.57,0,0,1-.43.28.78.78,0,0,0-.51.37c-.16.05-1.69.34-4.58.86-1.1,0-2.07,0-2.92-.09a8.9,8.9,0,0,1-2.37-.47,5.75,5.75,0,0,1-2.45-2,15.6,15.6,0,0,1-2-3.53,8.74,8.74,0,0,1-.83-3.31A18.1,18.1,0,0,1,995.11,162.44Zm1.13,5.42a1.58,1.58,0,0,0,.73-.2.58.58,0,0,0,.37-.53.65.65,0,0,0-.12-.28.68.68,0,0,1-.11-.37,5.06,5.06,0,0,1,.27-.75,2.32,2.32,0,0,0,.2-.93.73.73,0,0,0-.14-.49,1.4,1.4,0,0,0-.39-.28c-.17-.09-.26-.19-.26-.3a3.13,3.13,0,0,1,.26-.8,2.76,2.76,0,0,0,.25-.83,3,3,0,0,1,.75-1.42c.28-.43.5-.78.66-1a1.42,1.42,0,0,0,.24-.77,1.56,1.56,0,0,1,.43.09,2,2,0,0,0,.54.08c.08,0,.14-.08.16-.23s.07-.25.12-.28a3.79,3.79,0,0,1,1.25-.13c.6,0,1.06-.07,1.37-.11s.49-.14.51-.28a3,3,0,0,0-.82-.28,7,7,0,0,0-1-.06,4.66,4.66,0,0,0-4,2,8.47,8.47,0,0,0-1.39,5h1.25v.26l-1.45,1.59v.82l.47-.3-.47.81Zm0,.62a1.87,1.87,0,0,0-.2,1.1,1,1,0,0,0,.8-.41,1.43,1.43,0,0,0,.33-.93C996.65,168.24,996.33,168.32,996.21,168.48Zm.68,1a2,2,0,0,0-.33,1.06,2.25,2.25,0,0,0,1.49-.35,3.87,3.87,0,0,0-.4-.71,2.69,2.69,0,0,1-.35-.66Zm.25,2.24a3.79,3.79,0,0,1,.16.58,1.74,1.74,0,0,0,.9-1.63c-.73,0-1.19.18-1.37.55A.9.9,0,0,1,997.14,171.75Zm2.12.92,0-.13-1.41-.21-.27.21,1.25,1.12A2.9,2.9,0,0,0,999.26,172.67Zm-1-8.12a1,1,0,0,0-.25.69.85.85,0,0,0,.68-.22,1.22,1.22,0,0,0,.18-.77A.77.77,0,0,0,998.22,164.55Zm2.59-1.14c1.39.1,2.56.15,3.5.15a14.33,14.33,0,0,0,1.88-.17,11.53,11.53,0,0,1,1.8-.18,3.22,3.22,0,0,0-.27-.88c-.18-.44-.33-.66-.43-.66l-.08,0a2.72,2.72,0,0,0-1.74-1.51,6.84,6.84,0,0,0-2.49-.6,4.49,4.49,0,0,0-4.46,3.23C998.65,163.11,999.41,163.31,1000.81,163.41ZM999.12,165a7.67,7.67,0,0,0-.6.69l.82-.17a4.8,4.8,0,0,0,.53-.11,3.24,3.24,0,0,0,1.07-.54c-.07,0-.48-.11-1.21-.26h-.16Q999.49,164.63,999.12,165Zm.22,9,.15.11a2.5,2.5,0,0,0,.79-.39c.28-.2.43-.34.43-.43a.52.52,0,0,0-.14-.36q-.14-.15-.21-.15a1.14,1.14,0,0,0-.75.36,1,1,0,0,0-.39.71A.44.44,0,0,0,999.34,174.07Zm1.84.93a.92.92,0,0,0,.23.21,1.52,1.52,0,0,0,1-.41,1.31,1.31,0,0,0,.45-1c-1,0-1.49.13-1.49.39a.72.72,0,0,0-.13-.35c-.1-.14-.17-.21-.22-.21s-.21.14-.49.41-.41.45-.41.54l0,.12A5,5,0,0,1,1001.18,175Zm1.13-9.29a.83.83,0,0,0,.61-.26.89.89,0,0,0,.26-.65c-1.31,0-2,.21-2.24.61A3.91,3.91,0,0,0,1002.31,165.71Zm.79,9.5a8.88,8.88,0,0,0,1.56-.17l1.14-.22a13.51,13.51,0,0,1,2.15-.34l.47.21a1.77,1.77,0,0,0,.86-.21.73.73,0,0,0,.4-.69,9,9,0,0,0-2.12.35,6.47,6.47,0,0,0-.66.17,6.7,6.7,0,0,1-.9.17c-.53,0-1.08,0-1.67.06a11.2,11.2,0,0,0-1.23.15l-.24.31Q1003.06,175.21,1003.1,175.21Zm1.56-10.06a3.89,3.89,0,0,0-1.07.15c-.36.1-.53.28-.53.54l0,.13,1.39-.11c.87-.07,1.37-.31,1.51-.71h-1.34Zm2.82-5.16c.47.46.79.69.94.69a1.61,1.61,0,0,0,.63-.18c.26-.11.39-.24.39-.38a2.63,2.63,0,0,0-.16-.76,3.33,3.33,0,0,1-.15-.58c0,.09-.06.16-.18.2a.93.93,0,0,1-.29.06,1.73,1.73,0,0,1-.73-.34.86.86,0,0,1-.41-.69c-.76,0-1.13-.2-1.13-.6-.06,0-.16.1-.32.3a1,1,0,0,1-.86.3.61.61,0,0,1-.39-.17.72.72,0,0,0-.51-.17l-.51,0a2.16,2.16,0,0,1,.37.56c.2.34.36.53.49.56a.71.71,0,0,0,.3-.15.66.66,0,0,1,.37-.15,5.18,5.18,0,0,1,.59.23,2,2,0,0,0,.86.2C1006.78,159.19,1007,159.53,1007.48,160Zm1.57,4.58a2.64,2.64,0,0,1-1.14.19,3.53,3.53,0,0,0-.94.17.54.54,0,0,0-.31.56c.86,0,1.54,0,2-.08s.79-.23.9-.52a.61.61,0,0,0,.55.35,2.46,2.46,0,0,0-.14-.76,2.22,2.22,0,0,1-.14-.62.35.35,0,0,1,.18-.3,1,1,0,0,0,.27-.3,1.55,1.55,0,0,0,.1-.69q0-1.68-.9-1.68c-.26,0-.43.08-.49.24a2.51,2.51,0,0,0-.1.88c.29,1,.46,1.46.51,1.55v.17A.85.85,0,0,1,1009.05,164.57Z"/>
      <path d="M1028.1,171.06c.07.07.12.11.18.11a1.57,1.57,0,0,0-.55.86c-.1.37-.17.6-.2.69a5.7,5.7,0,0,1-1.19,2,3.89,3.89,0,0,1-1.47,1,16.93,16.93,0,0,1-2.23.59,5,5,0,0,0-.9.17l-.71,0-1.76-.26a9,9,0,0,1-1.53-.51,10.72,10.72,0,0,0-1.8-.61.65.65,0,0,0-.39.16.61.61,0,0,1-.35.15c-.5,0-.75-1-.75-3,0-.84.13-1.25.4-1.25a2.52,2.52,0,0,1,.7.43,1.29,1.29,0,0,0,.63.34l4.58,1.12a2.63,2.63,0,0,0,1.17-.37,4.71,4.71,0,0,0,1.24-.92,1.65,1.65,0,0,0,.53-1.12,2,2,0,0,0-.61-1.16,10,10,0,0,0-1.35-1.25,3,3,0,0,0-.9-.55,1.52,1.52,0,0,1-.69-.16,3.91,3.91,0,0,1-.61-.32,2.19,2.19,0,0,0-.94-.34,3.37,3.37,0,0,1-2.27-1,7,7,0,0,1-1.7-2.38,6.88,6.88,0,0,1-.65-2.82,3.65,3.65,0,0,1,2.77-3.81,18.16,18.16,0,0,1,5.5-.88c2.87,0,4.3.38,4.3,1.12V160c0,.26-.23.39-.7.39-1.15-.52-2-.89-2.62-1.1a5.53,5.53,0,0,0-1.92-.32,2.11,2.11,0,0,0-1.84,1,3.86,3.86,0,0,0-.67,2.26,1.25,1.25,0,0,0,.26.58c.16.27.34.43.52.45l4.12.82a4.61,4.61,0,0,1,2.09,1.21,8.84,8.84,0,0,1,1.8,2.27,4.81,4.81,0,0,1,.73,2.33q0,.16-.18.51a1.67,1.67,0,0,0-.14.56S1028,171,1028.1,171.06Zm-12.69-8c.3.83.67,1.25,1.12,1.25.08,0,.29-.16.65-.47l.68-.61a2.1,2.1,0,0,0-.14-.92,1.12,1.12,0,0,0-.6-.41.72.72,0,0,0,.68-.54,4.77,4.77,0,0,0,.3-1,1.73,1.73,0,0,0-.63-.21c-.31-.06-.47-.12-.47-.17a5.23,5.23,0,0,1,.84-.52,1.91,1.91,0,0,0,1-1c.65,0,1-.12,1-.35s-.18-.43-.55-.43a4.86,4.86,0,0,0-1.74.43,5.71,5.71,0,0,0-1.8,1.19A2.37,2.37,0,0,0,1015,161,6.36,6.36,0,0,0,1015.41,163Zm5.21,12.28a.21.21,0,0,0,.14-.2c-.13-.05-.24-.21-.33-.47a4.66,4.66,0,0,1-.18-.56h-2.39a1.07,1.07,0,0,0-.84-.71,10.15,10.15,0,0,0-1.63-.1c0,.71.17,1.07.51,1.07s.46-.09.51-.26c.13.32.72.61,1.76.88a9.9,9.9,0,0,0,2.24.41A.57.57,0,0,0,1020.62,175.32Zm4-7.72a2.45,2.45,0,0,0,1-.77c0-.58-.46-1-1.39-1.25a24.94,24.94,0,0,0-3.58-.65,8.44,8.44,0,0,1-1.06-.13,4.59,4.59,0,0,1-.82-.45,3.28,3.28,0,0,0-.66-.36,1.59,1.59,0,0,0-1.22.81.82.82,0,0,0,.82.56,2,2,0,0,0,.65-.15,2.16,2.16,0,0,1,.73-.15,1.36,1.36,0,0,1-.32.15.81.81,0,0,0-.43.41c.13.23.59.43,1.37.6a8.48,8.48,0,0,0,1.76.26v.43a3.29,3.29,0,0,1,1.18.65,5.12,5.12,0,0,0,.78.43A3.08,3.08,0,0,0,1024.6,167.6Zm-4.31-10h3.84a11.58,11.58,0,0,0-1.59-.21c-.51,0-1,0-1.35,0h-.9Zm6.28,15.18a2.38,2.38,0,0,0,.26-1.07,1.47,1.47,0,0,0-.08-.56l-2.35.77a1.4,1.4,0,0,0-.29.6,1.37,1.37,0,0,1-.22.52l-2.9,1.25v.17c0,.46.5.69,1.49.69a1.57,1.57,0,0,0,.77-.13,1,1,0,0,0,.29-.43,1.12,1.12,0,0,1,.59-.78c0,.23,0,.38.09.43a.59.59,0,0,0,.38.09h.23a1.09,1.09,0,0,0,.75-.26,1,1,0,0,0-.38-.36l-.33-.2.47-.47a.34.34,0,0,0,.22.22,1.35,1.35,0,0,0,.29,0A.78.78,0,0,0,1026.57,172.8Zm-2.09-15.05a.29.29,0,0,0-.08.17,1.23,1.23,0,0,0,.41.37,1,1,0,0,0,.53.15l.24,0a.65.65,0,0,0-.32-.56,1.18,1.18,0,0,0-.66-.22Zm1.72,9.72a2,2,0,0,0-1.06.56,2.86,2.86,0,0,0-.74.77,3.83,3.83,0,0,0,1-.17,3.69,3.69,0,0,1,1.25-.21C1026.67,167.79,1026.52,167.47,1026.2,167.47Zm1.1,1.85a.63.63,0,0,0-.1-.39.59.59,0,0,0-.45-.13h0a3.24,3.24,0,0,0-.84.69c-.48.46-.73.75-.73.86v.39a5.46,5.46,0,0,0,1.59-.19q.57-.2.57-1Z"/>
      <path d="M1033.41,165.54q-.48-4.86-.67-7.64c-.13-1.85-.19-3.7-.19-5.57a1.09,1.09,0,0,1,.13-.64.55.55,0,0,1,.45-.17.74.74,0,0,1,.39.15.8.8,0,0,0,.4.15.91.91,0,0,1,.58-.17,4.3,4.3,0,0,1,.87.13,1.82,1.82,0,0,1,.74-.13,1.12,1.12,0,0,1,.68.21.85.85,0,0,1,.3.73q0,2.19-.39,6.15c-.26,2.64-.4,4.66-.4,6.06l-.15.48c0,.11,0,.63-.1,1.55s-.1,1.6-.1,2.06c0,.23-.06.38-.19.45a1.77,1.77,0,0,1-.75.11h-.31a1.29,1.29,0,0,1-.94-.26Zm.06-12.63c.06.13.12.2.17.2.24,0,.36-.14.36-.43h-.67Zm.21,3.38a1.63,1.63,0,0,0,.28,1.16,1.78,1.78,0,0,1,.35-.58.93.93,0,0,0,.27-.45.8.8,0,0,1-.51-.13.6.6,0,0,1-.15-.47,1.52,1.52,0,0,1,.27-.78,3.66,3.66,0,0,0,.35-.64l-.78.43a3.32,3.32,0,0,0,0,.86Zm.08,19.18c0-1.43.16-2.15.47-2.15a10.36,10.36,0,0,1,1.55.11,1.2,1.2,0,0,1,.92.53c0,.38.09.76.13,1.14s.08.66.1.8a.78.78,0,0,1-.19.39.94.94,0,0,0-.2.3,2,2,0,0,1-.33-.13.71.71,0,0,0-.26-.09l-.74.11-.67.11a.8.8,0,0,1-.6-.18.73.73,0,0,1-.18-.55Zm.12-15.52a.36.36,0,0,0,.31-.18,1,1,0,0,0,.16-.34h-.12C1034,159.43,1033.88,159.6,1033.88,160Zm.35-6.41.51-.22a1.72,1.72,0,0,0,.63-.43h-1l-.24.65Zm0,8.62a2.32,2.32,0,0,0-.12,1,1.85,1.85,0,0,0,.63-.56,1.41,1.41,0,0,0,.19-.78A1.3,1.3,0,0,0,1034.23,162.16Zm-.08,11.42a.24.24,0,0,0,.06.15.18.18,0,0,0,.14.06.11.11,0,0,0,.11-.06.28.28,0,0,0,0-.15.39.39,0,0,0,0-.18.12.12,0,0,0-.11-.08C1034.22,173.32,1034.15,173.4,1034.15,173.58Zm.16-7.1a2.43,2.43,0,0,0,.43,1.64,5.77,5.77,0,0,0,.23-1.55c0-.63,0-1.23,0-1.81-.44,0-.66.19-.66.56Zm.55-6.34a1.92,1.92,0,0,0-.2.84.63.63,0,0,0,.59-.39,1.87,1.87,0,0,0,.19-.86A.62.62,0,0,0,1034.86,160.14Zm-.12-2.26c.57,0,.86-.3.86-.9C1035.26,157,1035,157.28,1034.74,157.88Zm0,5.85h.39v-.22Zm.14,11.52a.84.84,0,0,0,.45.09h.11c.29,0,.46-.09.51-.26a.89.89,0,0,0-.9-.43.34.34,0,0,0-.31.22C1034.74,175.07,1034.78,175.2,1034.88,175.25Zm.6-20.42h.47v-.65C1035.64,154.44,1035.48,154.66,1035.48,154.83Z"/>
      <path d="M888.67,206.51c0-.26-.38-.43-1.13-.52a19.63,19.63,0,0,0-2.31-.13l-1.92,0c-1.52,0-2.27-.15-2.27-.47a2.25,2.25,0,0,1,.35-1.16,6.11,6.11,0,0,0,.29-.67,2.22,2.22,0,0,0,.14-.79,3.31,3.31,0,0,0,.23-.35q.19-.3,1.65-.3v.39c1.54,0,2.88,0,4,0l2.9.09q4.7.16,7,.17c1,0,1.79,0,2.31,0,.31.11.47.51.47,1.2v.43a2.75,2.75,0,0,1-.23,1.25L897,206a13.32,13.32,0,0,0-2.15.39,10.7,10.7,0,0,1-2.19.38,14.77,14.77,0,0,0-.28,3.36c0,1.29.06,3.22.16,5.8s.16,4.46.16,5.81c0,.69,0,2.19-.12,4.51-.08.95-.12,2-.12,3.1,0,.09,0,.29,0,.62a1.12,1.12,0,0,1-.27.73,1,1,0,0,1-.71.24,1,1,0,0,1-.43-.15,1,1,0,0,0-.43-.15,1.5,1.5,0,0,1-.45.17,2.31,2.31,0,0,1-.61.09,1.28,1.28,0,0,1-.56-.35c-.28-.23-.41-.37-.41-.43l.11-22Zm-4.17-2.07a1.21,1.21,0,0,0,.92-.6,10.24,10.24,0,0,1-1.17-.26,6,6,0,0,0-1.26-.3v1.25A10.54,10.54,0,0,0,884.5,204.44Zm1.84-.62a3.66,3.66,0,0,0-.92.49l1.45.05c.84,0,1.25-.13,1.25-.39s-.26-.39-.78-.39A2.89,2.89,0,0,0,886.34,203.82Zm2.72.84a1.35,1.35,0,0,0,.73-.15,1.81,1.81,0,0,0,.45-.67l-.63-.09a2.1,2.1,0,0,0-.66.09.62.62,0,0,0-.39.47A.45.45,0,0,0,889.06,204.66Zm.49,20.49c.17.18.28.28.34.28a1.61,1.61,0,0,1,.66-1.21c.05-.05.16-.18.34-.36a1.46,1.46,0,0,0,.33-.67h-.12a2.33,2.33,0,0,0-1.1.45,1.26,1.26,0,0,0-.7,1.06A.79.79,0,0,0,889.55,225.15Zm0-9.23c0,.41.09.62.27.65a6.17,6.17,0,0,0,1.17-1.59.25.25,0,0,0-.05-.15l-.1-.11a1.6,1.6,0,0,0-1,.24,1,1,0,0,0-.31.83Zm0,3.66a.31.31,0,0,0,.24.17c.26-.26.53-.55.82-.88a3.47,3.47,0,0,0,.63-1,2.06,2.06,0,0,0-1.18.37,1.11,1.11,0,0,0-.54,1A1.58,1.58,0,0,0,889.53,219.58Zm.4,9.46c.15,0,.43-.38.82-1.14a4.54,4.54,0,0,0,.59-1.53h-.4v-.73l-1.17.47-.24,2.71A.55.55,0,0,0,889.93,229Zm.13-21.48c-.11.27-.21.54-.29.8.21,0,.46-.21.76-.61a1.93,1.93,0,0,0,.45-1.16c0-.05-.06-.13-.17-.21a.56.56,0,0,0-.34-.13,3.2,3.2,0,0,1,.24-1.51,1.77,1.77,0,0,0,.23-.43v.95a1.5,1.5,0,0,0,1-.52,1.42,1.42,0,0,0,.55-1,4.29,4.29,0,0,0-1.78.32,1.32,1.32,0,0,0-.69,1.32,3.79,3.79,0,0,0,.12,1.05,2.41,2.41,0,0,1,.12.62A1.77,1.77,0,0,1,890.06,207.56Zm-.17,5a3.92,3.92,0,0,0-.12,1.11,1.86,1.86,0,0,0,.74-1.29l0-.25A.59.59,0,0,0,889.89,212.53Zm1.05,8.12a1.63,1.63,0,0,0,.36-1.16c0-.11,0-.25,0-.43a3.41,3.41,0,0,0-.06-.38l-1.45,2.1v.56A2.86,2.86,0,0,0,890.94,220.65Zm-1.17,1.77c.08,0,.14-.06.19-.18A.55.55,0,0,0,890,222l0-.17C889.85,221.94,889.77,222.13,889.77,222.42Zm.53-5.81a2.27,2.27,0,0,0-.3,1.08,2,2,0,0,0,.87-.2.64.64,0,0,0,.39-.62,2.08,2.08,0,0,0-.32-1.08A2.44,2.44,0,0,0,890.3,216.61Zm1.15,5.81,0-.35v-.13q0-.51-.27-.6L890,223.19Zm-.86-11.94a9.55,9.55,0,0,0-.35,1l.23.09c.34,0,.51-.34.51-1l0-.9Zm-.35,3.47h.55v-1.08Zm0,15.6a1.33,1.33,0,0,0,.53-.27.6.6,0,0,0,.21-.46l0-.3A3.24,3.24,0,0,0,890.24,229.55Zm.51-5.11a1,1,0,0,0-.32.69.94.94,0,0,0,.73-.24,1.66,1.66,0,0,0,.29-.88l-.11,0A2,2,0,0,0,890.75,224.44Zm.19-16.64a2,2,0,0,1-.25.58,1.44,1.44,0,0,0-.22.49,1.24,1.24,0,0,0,.83-.88,5.24,5.24,0,0,0,.15-1.23V206Zm-.15,19.35h-.32l.32-.22Zm2.11-22.49h.24v-.52h-.24Zm2.43,0s.07,0,.14-.15a1.14,1.14,0,0,0,.13-.28c0-.29-.32-.43-1-.43l-1,0v.82Zm3.76-.35a.36.36,0,0,0-.26-.38,2.91,2.91,0,0,0-.88-.09c-.1,0-.41,0-.92.11a4.59,4.59,0,0,0-1,.19l.2.17Z"/>
      <path d="M906.69,210.33c.31,0,.47.12.47.35a4.93,4.93,0,0,1-.18.77c-.12.43-.19.73-.22.9l.91-1a24.59,24.59,0,0,1,2.85-1.77,5.71,5.71,0,0,1,2.63-.69,2.51,2.51,0,0,1,.12,1c0,.28,0,.74-.08,1.37s-.08,1.24-.08,1.64a3.3,3.3,0,0,0,.08.68c0,.06-.11.13-.32.2l-.47.15a14.53,14.53,0,0,0-3.21,1.42,3.05,3.05,0,0,0-1.52,2.32l-.16,1a26.45,26.45,0,0,0-.39,2.92,23.29,23.29,0,0,0,.27,3.22c0,.21.08.67.16,1.4a18.8,18.8,0,0,1,.12,2,7,7,0,0,1-.08.82c-.06.37-.11.73-.16,1.08l.24.3c0,.17-.37.31-1,.41a10.85,10.85,0,0,1-1.41.15h-.12a.43.43,0,0,1-.24-.07.38.38,0,0,1-.11-.23.77.77,0,0,1-.45.43,2,2,0,0,1-.65.13l-.45-.11a1.54,1.54,0,0,1-.37-.15l-.28-2.71v-18Zm-2.9,15.91.66-.71a8.13,8.13,0,0,0,.75-.86,1.08,1.08,0,0,0,.27-.58l-.19,0a2.29,2.29,0,0,0-1.22.32,1.17,1.17,0,0,0-.51,1.06S903.63,225.73,903.79,226.24Zm-.16-6.62H904l.75-1.12h-.24C903.93,218.5,903.63,218.88,903.63,219.62Zm.63-4.26a6.39,6.39,0,0,0,1.13-.58c.4-.24.59-.42.59-.53v-2.63c-.23-.05-.6-.11-1.1-.17l-1.09-.13v.86H904a2.09,2.09,0,0,1-.1.6,1.75,1.75,0,0,0-.1.56,1.69,1.69,0,0,0,1.25-.64L903.79,214v.56l.88-1.05c.53-.65.85-1,1-1A5,5,0,0,1,904.26,215.36Zm-.31.78a1.29,1.29,0,0,0-.2.82l0,.47,1-1.55A1,1,0,0,0,904,216.14Zm.33,4.77c-.33.12-.49.2-.49.26v1.63l1.68-2.15h-.12A6.21,6.21,0,0,0,904.28,220.91Zm-.41,7.46a4.84,4.84,0,0,0,.15.54,3.28,3.28,0,0,0,1-.9,3.91,3.91,0,0,0,.67-1.25,1.4,1.4,0,0,1-.39.19l-.36.15c-.78.35-1.17.59-1.17.73A2,2,0,0,0,903.87,228.37Zm.55-4.58a1.86,1.86,0,0,0,1.23-.47,1.46,1.46,0,0,0,.57-1.16v-.3a1.52,1.52,0,0,0-.24-1,12.5,12.5,0,0,1-.84,1.12,16.54,16.54,0,0,0-1.12,1.55A.49.49,0,0,0,904.42,223.79Zm1-3.72a2.56,2.56,0,0,0,.83-.45c.1-.54.17-.9.19-1.07.32-1.49.58-2.63.79-3.4a12.19,12.19,0,0,1,1-2.45,19.76,19.76,0,0,0-2.17,2.36,16.68,16.68,0,0,0-1.74,2.67h.16l1.8-.52v.22l-2,2.66v.31A3.92,3.92,0,0,0,905.39,220.07Zm0,5.14a8.39,8.39,0,0,0-.9,1.29,2.83,2.83,0,0,0,1.53-.28c.26-.18.39-.64.39-1.35a1.17,1.17,0,0,0-.23-.78C906.19,224.15,905.93,224.52,905.43,225.21Zm.1,4.09a1.12,1.12,0,0,0-.76.64h.51q1.41,0,1.41-.51v-.35A3.34,3.34,0,0,0,905.53,229.3Zm-.53-.39h.28a2.9,2.9,0,0,0,.8-.26c.4-.17.61-.29.61-.34l-.24-1.34A10,10,0,0,0,905,228.91Zm3.76-14.53a.94.94,0,0,0,1-1l0-.39-1.17,1.33Zm2.39-1.94a3,3,0,0,1,0,.54,2.42,2.42,0,0,0,0,.45,1.79,1.79,0,0,0,.88-.73,2.22,2.22,0,0,0,.34-1.21c0-.22-.19-.49-.55-.79s-.55-.51-.55-.62a.24.24,0,0,1,.08-.13,4.22,4.22,0,0,0-.51.6l0,.21a2.6,2.6,0,0,1-.82.56,2.66,2.66,0,0,0-.83.56,1.47,1.47,0,0,0-.27,1,.79.79,0,0,0,.45-.28c.14-.16.27-.31.37-.45.29-.43.56-.65.82-.65C910.94,211.49,911.15,211.81,911.15,212.44Z"/>
      <path d="M933.92,213.15c-.09.39-.15.64-.17.75s-.1.39-.22.82a5.43,5.43,0,0,1-.35,1c-.12.23-.26.34-.41.34.05,0,.11.06.17.17l.14.26-.39.86c-.08.17-.15.35-.22.52a1,1,0,0,1-.17.34H932l0,.78a.16.16,0,0,1-.11.17,1.24,1.24,0,0,1-.39,0,9.28,9.28,0,0,1-.36,2.47c-.23.88-.56,1.93-1,3.16s-.64,2-.74,2.37a4.53,4.53,0,0,0-1.14,1.7,10,10,0,0,0-.39,2,12.82,12.82,0,0,1-.19,1.38,2.8,2.8,0,0,1-.47,1,3.49,3.49,0,0,0-.55.71,1.94,1.94,0,0,0-.18.53,2.39,2.39,0,0,1-.21.6v-.51a1.64,1.64,0,0,0-.47.67,2,2,0,0,0-.24.66c.16.06.24.23.24.52a15.33,15.33,0,0,1-1.22,2.15,9.29,9.29,0,0,1-1.49,2.11l-.84.12-.8.13a1,1,0,0,0-.43.15,1.06,1.06,0,0,1-.51.15.72.72,0,0,0-.16-.43.72.72,0,0,1-.15-.43v-.25a24.33,24.33,0,0,1,.94-2.58c.6-1.61,1-2.9,1.31-3.87a11.14,11.14,0,0,0,.41-3,3.6,3.6,0,0,0-.22-1.14,1.59,1.59,0,0,0-.48-.84l-1.73-4.26-.55-1.54c-1.75-5.16-2.76-8-3-8.52a8.44,8.44,0,0,1-1.25-3.7c0-.17.3-.3.9-.4a8.76,8.76,0,0,1,1.56-.16,3.21,3.21,0,0,1,1.14.22c.36.14.55.34.55.6a89.32,89.32,0,0,0,4.34,10.32,6.39,6.39,0,0,0,1,1.89,7.72,7.72,0,0,1,.57.91,2.94,2.94,0,0,1,.33.94c.86-1.77,1.76-4,2.71-6.51a45,45,0,0,0,1.91-6.47,2,2,0,0,1,.45-1.16,2.29,2.29,0,0,1,1.24-.22A3.33,3.33,0,0,1,934,211c.34.22.51.74.51,1.57l-.27-.26A2.3,2.3,0,0,0,933.92,213.15Zm-16.7-.45a2.8,2.8,0,0,1,.24.43,2.07,2.07,0,0,1,.19.94c1.25,0,1.88-.3,1.88-.9a1.14,1.14,0,0,0-.53-.92,4.25,4.25,0,0,0-1.21-.65,3.39,3.39,0,0,0-1-.23A2.74,2.74,0,0,0,917.22,212.7Zm1.92,5.24a1.37,1.37,0,0,0,1.12-.75,2.7,2.7,0,0,0,.49-1.44,1.1,1.1,0,0,0-.12-.6.61.61,0,0,0-.51-.17,1.66,1.66,0,0,0-.63.3.53.53,0,0,1,.12-.3.55.55,0,0,0,.12-.26.64.64,0,0,0-.12-.32c-.08-.13-.16-.2-.23-.2a5,5,0,0,0-.87.13c-.39.09-.58.19-.58.3a1.22,1.22,0,0,0,.7,1.23,7,7,0,0,0,1.8.49h-1.72C918.71,217.41,918.85,217.94,919.14,217.94Zm1.1-.4a6.25,6.25,0,0,0-.75,1.18l.71,0a3.36,3.36,0,0,0,.9-.17,3.2,3.2,0,0,1,.86-.17,2.14,2.14,0,0,0-.35-.95c-.24-.4-.42-.6-.55-.6S920.58,217.09,920.24,217.54Zm.19,2-.12,0a.28.28,0,0,0-.29.24,2.4,2.4,0,0,0-.06.58A1.82,1.82,0,0,0,920.43,219.54Zm.88,2.47a1.56,1.56,0,0,0,.34-.67h-.08a.72.72,0,0,0-.63.39,1.34,1.34,0,0,0-.23.69A1.76,1.76,0,0,0,921.31,222Zm1.14-2.43a1.08,1.08,0,0,0-.53-.56,3.31,3.31,0,0,1-.39.6,6.44,6.44,0,0,0-.45.65,1.21,1.21,0,0,0-.18.64c1.15,0,1.73-.16,1.73-.47A2,2,0,0,0,922.45,219.58Zm1.9,17.41c-.16.12-.51.35-1.06.69a4.32,4.32,0,0,0-.9.65.52.52,0,0,1,.18.21.56.56,0,0,1,.06.17c0,.18-.21.38-.61.63a2.13,2.13,0,0,1-1,.36c0,.15.21.29.63.43a.8.8,0,0,1,.47-.21,1.18,1.18,0,0,1,.35.11l.35.15,1.49-2.37Zm-1.72-13a1.57,1.57,0,0,0-1,.26l.27.55Zm1-1.72a.75.75,0,0,0-.19-.39c-.13-.17-.24-.26-.32-.26a.93.93,0,0,0-.62.39,1.1,1.1,0,0,0-.35.73l.51,0C923.28,222.8,923.6,222.63,923.6,222.29Zm.61,14.4a2,2,0,0,0,.84-1.55c-.49.23-.92.46-1.27.67s-.53.44-.53.67h.59a.71.71,0,0,1-.45.41,2.78,2.78,0,0,0-.41.15,2.12,2.12,0,0,0-.65.28.52.52,0,0,0-.21.45.74.74,0,0,0,0,.3A17.18,17.18,0,0,0,924.21,236.69Zm-1-1.67a1.39,1.39,0,0,0-.62,1.24,2.72,2.72,0,0,0,.7-.38,10.75,10.75,0,0,0,1.25-1v-.3A2.29,2.29,0,0,0,923.21,235Zm.63-11-.75,1.07h.32c.63,0,.94-.17.94-.51a.71.71,0,0,0-.1-.39A.32.32,0,0,0,924,224Zm.53,4.13a3.31,3.31,0,0,0,.68-.69h-.11c-.16.06-.4.16-.73.32a7.9,7.9,0,0,0-.88.49s0,.08.1.15a.23.23,0,0,0,.17.11A1.48,1.48,0,0,0,924.37,228.14Zm-.77,5.16.08,0a.92.92,0,0,0,.34-.11,3.78,3.78,0,0,0,.33-.19l-.28,0A.42.42,0,0,0,923.6,233.3Zm6.27-12.73a.71.71,0,0,1,.1-.33.58.58,0,0,1,.17-.23h-.74c-.13.26-.35.74-.65,1.44s-.58,1.38-.84,2a7.46,7.46,0,0,0-.33,1.25,7,7,0,0,0-.14,1.2c0,.35.11.52.31.52l.16,0a2.7,2.7,0,0,0-1,.51,11.92,11.92,0,0,0-1,.95c-.05.06-.19.21-.43.45a5.56,5.56,0,0,1-.7.62,3,3,0,0,1-.75.39v.26l2.2-.82a.57.57,0,0,1,.31.17c.13.12.2.2.2.26l0,.13-2.67,2.92a2.82,2.82,0,0,0,2.18-.66,4.29,4.29,0,0,0,.84-1.74q.27-1.08.39-1.47c0-.08-.09-.17-.27-.25a1.12,1.12,0,0,0-.47-.13,3.3,3.3,0,0,0,1.64-1.21,3.77,3.77,0,0,0,.51-2.1.68.68,0,0,0-.27-.56h.78v-1.42a.8.8,0,0,1-.41-.13.27.27,0,0,1-.1-.22.84.84,0,0,1,0-.23,1.31,1.31,0,0,0,0-.37,1.13,1.13,0,0,1,.39.22,1,1,0,0,0,.43.21,1.71,1.71,0,0,0,.22-.47,2.13,2.13,0,0,0,.13-.69A.86.86,0,0,0,929.87,220.57Zm-4.82,5.5a1,1,0,0,0-.66.26.76.76,0,0,0-.32.6,1.57,1.57,0,0,0,1.22-.82Zm.22,8.09a.73.73,0,0,0,.49-.33,5.74,5.74,0,0,0,.51-1.09H926a4.31,4.31,0,0,0-1,.47,3.41,3.41,0,0,0-.94.6v.39C924.67,234.2,925.07,234.18,925.27,234.16Zm-.92-3.53c.08,0,.17-.06.29-.17a.49.49,0,0,0,.18-.3,0,0,0,0,0,0,0c-.08,0-.17.06-.28.18a.74.74,0,0,0-.19.3A0,0,0,0,0,924.35,230.63Zm6.34-11.27a1.54,1.54,0,0,0,.43-1.16h-.78l.51-.56h-.35a.74.74,0,0,0-.79.61,6.5,6.5,0,0,0-.15,1.54A1.51,1.51,0,0,0,930.69,219.36Zm1.49-3.78a14.47,14.47,0,0,0,1.06-3,.94.94,0,0,0-.06-.41c0-.07-.14-.11-.3-.11a2,2,0,0,0-1.33.82c.53.2.79.42.79.65s-.11.31-.32.43a.18.18,0,0,0,0-.13.57.57,0,0,0-.11-.33.33.33,0,0,0-.24-.15q-.12,0-.27.18l-.2.21a1,1,0,0,0,.18.22.34.34,0,0,1,.13.25.82.82,0,0,1-.09.33c-.07.12-.12.19-.14.19l.47.26a1.54,1.54,0,0,0-.84.21.76.76,0,0,0-.34.69.73.73,0,0,0,.24.47c-.39.32-.59.58-.59.78h1.29s.08-.07.14-.2a.65.65,0,0,0,.1-.32A6.65,6.65,0,0,0,932.18,215.58Z"/>
      <path d="M962.14,227a4.34,4.34,0,0,0,.82.31,4.56,4.56,0,0,1,1.21.53,1,1,0,0,1,.4.84,2.67,2.67,0,0,1-1,2.45,12.54,12.54,0,0,0-1.69-.51,5.68,5.68,0,0,1-1.76-1.12,3.59,3.59,0,0,0-.74-.52,1.78,1.78,0,0,0-.89.43,1.9,1.9,0,0,1-.72.43,13.61,13.61,0,0,1-1.68.73,4.58,4.58,0,0,1-1.57.26,7.59,7.59,0,0,1-3.09-.69,6.58,6.58,0,0,1-2.63-2.08,5.6,5.6,0,0,1-1.05-3.46,8.33,8.33,0,0,1,.29-1.79,11.54,11.54,0,0,1,.53-1.78,4.31,4.31,0,0,1,2.15-1.72,20.42,20.42,0,0,1,3.68-1,18,18,0,0,0,2.59-.71,1.06,1.06,0,0,0,.78-1,3.19,3.19,0,0,0-.76-2.17,2.67,2.67,0,0,0-2.14-.88,3.46,3.46,0,0,0-1.06.17c-.33.12-.78.3-1.33.56a4.4,4.4,0,0,1-1.72.6q-1,0-1-2.28a2,2,0,0,1,1.14-2,7.4,7.4,0,0,1,2.93-.49,5.8,5.8,0,0,1,.92.08l.85.13a9.35,9.35,0,0,0,1.72.22l.9,0c.65,0,1,.28,1,.82a1.36,1.36,0,0,1,.71.15.71.71,0,0,1,.23.62c.73,0,1.25.66,1.57,2a16.23,16.23,0,0,1,.47,3.7,24.77,24.77,0,0,1-.32,3.31,24,24,0,0,0-.31,3.18,5.76,5.76,0,0,0,.08.76,5.64,5.64,0,0,1,.08.75l0,.38.23.48A.4.4,0,0,0,962.14,227ZM949,224.61c-.13.11-.2.2-.2.26l0,.13a.68.68,0,0,0,.31-.13c.14-.09.2-.16.2-.22l0-.21A.57.57,0,0,0,949,224.61Zm.9,2.06a2.47,2.47,0,0,0,.2-.77,1.88,1.88,0,0,0-.77.17.89.89,0,0,0-.49.52.77.77,0,0,0,.26.36,1.18,1.18,0,0,0,.33.24C949.63,227.19,949.79,227,949.92,226.67Zm-.78-3.74a2.11,2.11,0,0,0-.08.52,1.1,1.1,0,0,0,.55-.17,3,3,0,0,0,.47-.39,3.52,3.52,0,0,0-.38-.17,2.78,2.78,0,0,0-.37-.13C949.25,222.59,949.19,222.7,949.14,222.93Zm1.52.56s-.06,0-.19,0a2.83,2.83,0,0,0-.81.13.84.84,0,0,0-.56.34h1.45A.67.67,0,0,0,950.66,223.49Zm-1.33,2.07c.55,0,.82-.22.82-.65C949.81,224.91,949.54,225.13,949.33,225.56Zm1.76-3.29a1,1,0,0,0,.24-.46h-1.06a1.5,1.5,0,0,1,.61-.47q.45-.21,1-.39a9.3,9.3,0,0,0,1.33-.58,1.79,1.79,0,0,0,.74-.66h-.15a4.81,4.81,0,0,0-1.24.13.66.66,0,0,0-.53.64c-.2.09-.49.2-.84.32a2.8,2.8,0,0,0-.86.48,1.61,1.61,0,0,0-.49.75,1.29,1.29,0,0,0,.47.34,1.42,1.42,0,0,0,.51.22C950.83,222.59,950.94,222.48,951.09,222.27Zm-.43,4.49c-.34,0-.53.2-.58.6C950.47,227.3,950.66,227.1,950.66,226.76Zm5-14.62a2.88,2.88,0,0,0,1.13.21c0-.65-.14-1-.43-1a1.05,1.05,0,0,0-.33.06,1.15,1.15,0,0,1-.37.06l-1,0a14.36,14.36,0,0,0-2,.11,10,10,0,0,0-1.88.54,1.91,1.91,0,0,0,.1.51,1.17,1.17,0,0,0,.17.43,4.92,4.92,0,0,0,1.4-.32,2.33,2.33,0,0,0,1.23-.75l.39.34s.1-.06.23-.17a.61.61,0,0,1,.36-.17A3.62,3.62,0,0,1,955.68,212.14Zm-.24,14.92a7.67,7.67,0,0,0,2-.92,1.64,1.64,0,0,0,.86-1.32v-.17a10.38,10.38,0,0,0-.37-3.09,1.66,1.66,0,0,0-1.78-1.12,1.44,1.44,0,0,0-.59.19,1.6,1.6,0,0,1-.55.2,2.09,2.09,0,0,0-1.12.51c-.45.35-.76.58-.92.69a1.42,1.42,0,0,0-.41.54c-.11.24-.23.48-.33.71a5.26,5.26,0,0,1-.45.92.64.64,0,0,1-.57.32,3.26,3.26,0,0,0,.63,2.11,2.2,2.2,0,0,0,1.84.77A6.5,6.5,0,0,0,955.44,227.06Zm-3.39,2a1.47,1.47,0,0,0,.61.24,1,1,0,0,0-.29-.56c-.2-.23-.35-.35-.45-.35s-.33.12-.43.35Zm2.24.47a1.69,1.69,0,0,0,.09-.53l-.19-.05a.83.83,0,0,0-.75.52,2.39,2.39,0,0,0,.59.34C954.13,229.81,954.22,229.72,954.29,229.53ZM955.52,219l-1.1.6,1.45-.21Zm1.45,9.52c0-.3.09-.52.11-.66a2.34,2.34,0,0,0-1.29.45,1.34,1.34,0,0,0-.66,1.14l1.68-.47C956.86,229,956.92,228.85,957,228.54Zm0-9.48a.63.63,0,0,0-.35.35,4.42,4.42,0,0,0,.56.17l.61.13.35-.13.39-.17a3.28,3.28,0,0,0-.54-.28l-.51-.2A1.28,1.28,0,0,0,957,219.06Zm1.45-6.17c.39-.13.58-.29.58-.49s-.35-.43-1-.43a.79.79,0,0,0-.63.32,1.15,1.15,0,0,0-.27.75l.39.05A3.27,3.27,0,0,0,958.42,212.89Zm-.16,15.22a1.39,1.39,0,0,0,.31-.88l0-.38a.81.81,0,0,0-.29.25,1.68,1.68,0,0,0-.21.3.46.46,0,0,0,.07.22h-.54v.9A.87.87,0,0,0,958.26,228.11Zm1.41-10.55-1-.26-.35.47Zm-1.14-3.36a.49.49,0,0,0,.16.3.45.45,0,0,0,.35.18,1.24,1.24,0,0,0,.77-.18.73.73,0,0,0,.21-.6,1.5,1.5,0,0,0-.21-.69c-.15-.25-.31-.38-.49-.38Zm.3,4.78a6.08,6.08,0,0,0,.68.19,2,2,0,0,1,.67.24,1.42,1.42,0,0,1-.59.6.76.76,0,0,0-.29.3,1.49,1.49,0,0,0-.1.69,4,4,0,0,0,.2,1.24,7,7,0,0,1,.15,1.25,5.34,5.34,0,0,1-.12,1q.87-.21,1.26-1.89a15.75,15.75,0,0,0,.39-3.57,6.74,6.74,0,0,0-.12-1.55,2.88,2.88,0,0,0-1.15.39,12.37,12.37,0,0,0-1.28.73A.53.53,0,0,0,958.83,219Zm1.08-3.92a1.57,1.57,0,0,0-.69.41,1,1,0,0,0-.26.67c.5,0,1-.42,1.49-1.25Zm.88,1c-.1-.14-.17-.21-.22-.21a1.31,1.31,0,0,0-.68.32,2.29,2.29,0,0,0-.65.62l1.45.26a.74.74,0,0,1,.12-.3.85.85,0,0,0,.11-.3A.78.78,0,0,0,960.79,216.05Zm-1.39,10.43a.33.33,0,0,0,.23.11,3.35,3.35,0,0,0,.47-.37c.21-.18.31-.32.31-.41s0-.13-.15-.13a1.18,1.18,0,0,0-.57.2,1.14,1.14,0,0,0-.45.41A.61.61,0,0,0,959.4,226.48Zm.52-1.81a1,1,0,0,0-.29.67,1,1,0,0,0,.71-.21,1.2,1.2,0,0,0,.19-.78A.86.86,0,0,0,959.92,224.67Zm.28,3c.06.09.12.13.18.13.44,0,.66-.37.66-1.12a1.17,1.17,0,0,0-.59.22.61.61,0,0,0-.35.51A.41.41,0,0,0,960.2,227.62Zm.92.6h-.59a.59.59,0,0,0,.28.56A.67.67,0,0,0,961.12,228.22Zm1.13.39c-.13-.23-.24-.35-.35-.35a.36.36,0,0,0-.31.22.88.88,0,0,0-.12.43Q962.15,228.91,962.25,228.61Zm1.14,1.29a3,3,0,0,0-.06-.65A.3.3,0,0,0,963,229a1.91,1.91,0,0,0-.65.12.88.88,0,0,0-.45.35C961.9,229.76,962.4,229.9,963.39,229.9Z"/>
      <path d="M983.85,230a13.11,13.11,0,0,1,2.31,2,3.17,3.17,0,0,1,1,2,4.25,4.25,0,0,1-.57,2.06,5.11,5.11,0,0,1-1.43,1.68v-.05a6.27,6.27,0,0,0-1.33,1l-.94.75a5.5,5.5,0,0,1-.86.62,7.48,7.48,0,0,1-1.88.45,21.41,21.41,0,0,1-2.27.11,13.21,13.21,0,0,1-4.21-.66,23,23,0,0,1-4.21-2v-.39c-.39,0-.77-.35-1.14-1.06a4.17,4.17,0,0,1-.54-1.87,9.1,9.1,0,0,1,.72-3.22,5.14,5.14,0,0,1,1.7-2.49,7.72,7.72,0,0,0-.45-.84,2.26,2.26,0,0,1-.33-1.1,5.86,5.86,0,0,1,.43-2,6.56,6.56,0,0,0,.39-1.89,2.34,2.34,0,0,0-.25-1.12,7.36,7.36,0,0,0-.8-1.12,6.69,6.69,0,0,1-1.08-1.52,4.42,4.42,0,0,1-.37-2,7.07,7.07,0,0,1,1-3.7,7.58,7.58,0,0,1,2.67-2.64,6.7,6.7,0,0,1,3.48-1l.63,0c0-.22.25-.38.68-.47a6.74,6.74,0,0,1,1.2-.13,4.45,4.45,0,0,1,1.76.48l.61.21a2.52,2.52,0,0,0,.88.17,1.53,1.53,0,0,0,.76-.21l.45-.26a2.35,2.35,0,0,1,1.1-.43l.51,0a3.54,3.54,0,0,0-.27.5,3.26,3.26,0,0,0-.24.58c0,.26.07.42.22.49a1.37,1.37,0,0,0,.6.11,1.34,1.34,0,0,0,.75-.17.65.65,0,0,1,.39-.17.9.9,0,0,1,.55.94.64.64,0,0,1-.43.67,3.72,3.72,0,0,1-1.18.15h-.66c-.63,0-1,.11-1,.34a6.3,6.3,0,0,0,.63,2.24,6,6,0,0,1,.59,2.06.39.39,0,0,1-.12.32c-.08.08-.12.14-.12.2a2.22,2.22,0,0,0,.12.6,3.64,3.64,0,0,1,.12.43,3.94,3.94,0,0,1-.24,1.29,3.85,3.85,0,0,0-.27,1.42,3.75,3.75,0,0,1-1.33,2.49,6.94,6.94,0,0,1-2.43,1,6.18,6.18,0,0,0-.92.3.58.58,0,0,0-.37.38,28.63,28.63,0,0,1-3.17.3l-.71,0a2.53,2.53,0,0,0,1.43,1.14,12.73,12.73,0,0,0,2.41.58c.44.06.77.12,1,.17a.81.81,0,0,0,.6.5,7.75,7.75,0,0,0,1.24.15,2.86,2.86,0,0,1,1.09.13A11.35,11.35,0,0,1,983.85,230Zm-14.23-12.62a.92.92,0,0,0-.51.11c-.11.07-.16.24-.16.49a2.56,2.56,0,0,0,1.72-.6h-1Zm-.16-1.33-.47.26h.47Zm.37,17.8a4.45,4.45,0,0,0-.61,0v.56a2.05,2.05,0,0,0,.49-.09l.69-.17A1.07,1.07,0,0,0,969.83,233.81Zm-.61,1.33H971q0-.6-.63-.6A1.14,1.14,0,0,0,969.22,235.14Zm1,1.25a3,3,0,0,0,1-.47,1.22,1.22,0,0,0-.23-.19.48.48,0,0,0-.28-.11l-.6.13a3.92,3.92,0,0,0-.61.17l0,.13C969.42,236.28,969.68,236.39,970.2,236.39Zm.28-20.72a6.08,6.08,0,0,0,.7.08.6.6,0,0,1-.27.58,2.94,2.94,0,0,1-.78.26,3.28,3.28,0,0,0-.67.19h1.92l.51-1.59H971a3.56,3.56,0,0,0-1.37.26A3.65,3.65,0,0,0,970.48,215.67Zm.29,4.19a.41.41,0,0,0,.26-.41h-1.57a1,1,0,0,0,.29.43.84.84,0,0,0,.45.09A1.48,1.48,0,0,0,970.77,219.86Zm-1.21,13,.1.1-.2.26h1a.74.74,0,0,0-.14-.38.92.92,0,0,1-.14-.48c0-.2.29-.59.87-1.18s1.16-1.14,1.76-1.66a2.85,2.85,0,0,0-1.43.48,4.56,4.56,0,0,0-1.37,1.22,2.47,2.47,0,0,0-.57,1.49A1.3,1.3,0,0,0,969.56,232.89Zm.1-18q2.7-.3,2.7-1.29a.72.72,0,0,0,0-.25l1.25-1.68a2.27,2.27,0,0,0-1.35.41,16.64,16.64,0,0,0-1.51,1.27,7.88,7.88,0,0,1-1.05,1Zm1.52,4v-1c-.13.08-.32.22-.58.41a6.81,6.81,0,0,1-.67.41Zm.39,7.85a10.43,10.43,0,0,0-1.37-.11,1.54,1.54,0,0,0,.43.77,1,1,0,0,0,.75.31c.65,0,1-.16,1-.48S972.1,226.81,971.57,226.74Zm11.26,11.16c.28-.2.41-.35.41-.43l-.5-.22c.18-.2.27-.34.27-.43l0-.08a7.48,7.48,0,0,1-3.92.73q-.85,0-2.58-.09a24.82,24.82,0,0,0-2.59-.13,2.47,2.47,0,0,0-.48.11,2.38,2.38,0,0,1-.57.11c-.11,0-.22-.15-.34-.37a2.94,2.94,0,0,0-.33-.52.7.7,0,0,0-.55-.19,4.91,4.91,0,0,0-1.21.56,2.12,2.12,0,0,0,1.12.82,12.22,12.22,0,0,0,1.78.51,1.24,1.24,0,0,1,.23-.17.57.57,0,0,1,.28-.08s.1.08.23.25.22.28.28.3a1.85,1.85,0,0,1,.78.18l.47.21a3.3,3.3,0,0,0,.9.39q.27,0,.27-.78l.36.26a.24.24,0,0,0,.11-.06.5.5,0,0,1,.28-.07,1.42,1.42,0,0,0,.06.54c0,.07.17.11.41.11a10,10,0,0,0,2.29-.43c1-.29,1.54-.59,1.54-.9,0,.05.06.11.16.17a.71.71,0,0,0,.28.08A3.11,3.11,0,0,0,982.83,237.9Zm-11.65-12.56a.53.53,0,0,0,.43-.3h-.43Zm11,10.15c.7-.46,1-1,1-1.46a.74.74,0,0,0-.21-.63,1.08,1.08,0,0,0-.61-.15,1.38,1.38,0,0,1-.8-.15.85.85,0,0,1-.22-.58.69.69,0,0,0-.35-.6,17.14,17.14,0,0,0-6.3-1.33,4,4,0,0,0-2.08.62,1.89,1.89,0,0,0-1.06,1.66,2.37,2.37,0,0,0,.47,1.65,5.26,5.26,0,0,0,1.45,1,5.32,5.32,0,0,1,1.26.69h5.52A3.57,3.57,0,0,0,982.19,235.49ZM973,215.13a8,8,0,0,0-.64,3.12,7.31,7.31,0,0,0,.25,2.21,1.76,1.76,0,0,0,.94,1.07,4.83,4.83,0,0,0,2,.33,4.76,4.76,0,0,0,3.25-1.18,4.33,4.33,0,0,0,1.33-3.42,4.57,4.57,0,0,0-1.21-3.19,3.82,3.82,0,0,0-2.9-1.33l-1.21,0A5.33,5.33,0,0,0,973,215.13Zm1.55,9.11a2.16,2.16,0,0,0,.12-.88,5.25,5.25,0,0,0-2,.6,1.71,1.71,0,0,0,.61.43,2.11,2.11,0,0,0,.68.09C974.24,224.48,974.43,224.4,974.51,224.24Zm3.39-.38a2.59,2.59,0,0,0,.8.15.69.69,0,0,0-.17-.43.65.65,0,0,1-.18-.39,2.29,2.29,0,0,1,.08-.3,3.49,3.49,0,0,1-1.84.43,10.33,10.33,0,0,0-1.22.17c-.23.06-.35.17-.35.35q0,.51.18.6a2.38,2.38,0,0,0,.84.08c.86,0,1.29-.18,1.29-.56h-.39l.23-.25A2.42,2.42,0,0,1,977.9,223.86ZM975.53,211a.78.78,0,0,1-.12.19c0,.06.27.13.73.22a6.47,6.47,0,0,0,1,.12l1.49,0v.6a9.6,9.6,0,0,1,.92.95,9.2,9.2,0,0,1,.73.9,1.57,1.57,0,0,1,.19.69,2.58,2.58,0,0,0,.12.62c0,.13.2.21.43.24l-.23.56H982a1.84,1.84,0,0,0-.21-.9,6.71,6.71,0,0,0-.65-.91c-.05-.08-.16-.23-.31-.43a.91.91,0,0,1-.24-.56q.12-.47,1.14-.81a4.92,4.92,0,0,0,.84-.45.64.64,0,0,0,.25-.54,3.39,3.39,0,0,1-.17-.45.77.77,0,0,0-.34-.5l-.23.48-2.23,1.11c-.08-.08-.18-.22-.32-.4a2.07,2.07,0,0,0-.45-.48,1.13,1.13,0,0,0-.6-.23l-1.3,0c-.75,0-1.22-.1-1.4-.3A1.1,1.1,0,0,0,975.53,211Zm5,11.13c-.06-.18-.28-.28-.64-.28a.85.85,0,0,0-1,.95c0,.66.15,1,.47,1a1.24,1.24,0,0,0,.64-.19,5,5,0,0,0,.61-.41A3.58,3.58,0,0,0,980.48,222.09Zm1.43-1.16a3.27,3.27,0,0,0-.47-.36,2.53,2.53,0,0,0-.31-.28,1,1,0,0,1-.31-.37c-.47.52-.71.89-.71,1.12a3.54,3.54,0,0,0,.75.69,3.21,3.21,0,0,0,.66.39c.08,0,.18-.12.29-.35a4.7,4.7,0,0,0,.22-.47A.37.37,0,0,0,981.91,220.93Zm0-4.23a.85.85,0,0,0-.55.34,1,1,0,0,0-.31.56l.12.39a2.61,2.61,0,0,0,.16.43.45.45,0,0,0,.29-.13.44.44,0,0,1,.33-.13.17.17,0,0,0,0,.13.12.12,0,0,1,0,.08,2,2,0,0,1-.51.35q-.51.3-.51.6a6.78,6.78,0,0,0,.49.73.66.66,0,0,0,.53.22c.34,0,.51-.52.51-1.55C982.54,217.37,982.33,216.7,981.91,216.7Zm1.71,14.79c-.1.06-.14.1-.14.13a.35.35,0,0,0,.12.24.29.29,0,0,0,.19.1.47.47,0,0,0,.43-.34.63.63,0,0,0-.43-.26A.77.77,0,0,1,983.62,231.49Zm.86,5.2a.78.78,0,0,0,.17-.3,5.82,5.82,0,0,0-.94-.21.19.19,0,0,0-.15.08c-.06.06-.08.1-.08.13s.09.24.27.37a.87.87,0,0,0,.47.19A1.27,1.27,0,0,0,984.48,236.69Zm1.43-2.41-.59,0a.62.62,0,0,0-.55.24,6.18,6.18,0,0,0-.35.66Z"/>
      <path d="M1001.22,227a4.64,4.64,0,0,0,.82.31,4.81,4.81,0,0,1,1.22.53,1,1,0,0,1,.39.84,2.67,2.67,0,0,1-1,2.45,12.54,12.54,0,0,0-1.69-.51,5.68,5.68,0,0,1-1.76-1.12,3.59,3.59,0,0,0-.74-.52,1.73,1.73,0,0,0-.88.43,1.91,1.91,0,0,1-.73.43,13,13,0,0,1-1.68.73,4.58,4.58,0,0,1-1.57.26,7.59,7.59,0,0,1-3.09-.69A6.58,6.58,0,0,1,987.9,228a5.6,5.6,0,0,1-1-3.46,9,9,0,0,1,.29-1.79,12.8,12.8,0,0,1,.53-1.78,4.36,4.36,0,0,1,2.15-1.72,20.42,20.42,0,0,1,3.68-1,17.3,17.3,0,0,0,2.59-.71,1.06,1.06,0,0,0,.78-1,3.19,3.19,0,0,0-.76-2.17,2.67,2.67,0,0,0-2.14-.88,3.39,3.39,0,0,0-1.05.17,13.3,13.3,0,0,0-1.33.56,4.48,4.48,0,0,1-1.73.6q-1,0-1-2.28a2,2,0,0,1,1.14-2,7.45,7.45,0,0,1,2.94-.49,6,6,0,0,1,.92.08l.84.13a9.35,9.35,0,0,0,1.72.22l.9,0c.66,0,1,.28,1,.82a1.34,1.34,0,0,1,.71.15.71.71,0,0,1,.23.62c.73,0,1.25.66,1.57,2a16.23,16.23,0,0,1,.47,3.7A26.18,26.18,0,0,1,1001,221a24.48,24.48,0,0,0-.32,3.18,5.76,5.76,0,0,0,.08.76,5.64,5.64,0,0,1,.08.75l0,.38.23.48A.4.4,0,0,0,1001.22,227Zm-13.12-2.36c-.13.11-.2.2-.2.26l0,.13a.71.71,0,0,0,.32-.13c.13-.09.19-.16.19-.22l0-.21A.57.57,0,0,0,988.1,224.61Zm.9,2.06a2.47,2.47,0,0,0,.2-.77,1.91,1.91,0,0,0-.77.17.89.89,0,0,0-.49.52.77.77,0,0,0,.26.36,1.18,1.18,0,0,0,.33.24C988.71,227.19,988.87,227,989,226.67Zm-.78-3.74a2.75,2.75,0,0,0-.08.52,1.1,1.1,0,0,0,.55-.17,2.63,2.63,0,0,0,.47-.39l-.37-.17-.38-.13C988.33,222.59,988.27,222.7,988.22,222.93Zm1.53.56s-.07,0-.2,0a2.77,2.77,0,0,0-.8.13.9.9,0,0,0-.57.34h1.45A.61.61,0,0,0,989.75,223.49Zm-1.34,2.07c.55,0,.83-.22.83-.65A1,1,0,0,0,988.41,225.56Zm1.77-3.29a1.09,1.09,0,0,0,.23-.46h-1.06a1.5,1.5,0,0,1,.61-.47q.45-.21,1-.39a9.3,9.3,0,0,0,1.33-.58,1.89,1.89,0,0,0,.75-.66h-.16a4.67,4.67,0,0,0-1.23.13.64.64,0,0,0-.53.64c-.21.09-.49.2-.85.32a2.8,2.8,0,0,0-.86.48,1.61,1.61,0,0,0-.49.75,1.39,1.39,0,0,0,.47.34,1.42,1.42,0,0,0,.51.22S990,222.48,990.18,222.27Zm-.43,4.49c-.34,0-.54.2-.59.6C989.55,227.3,989.75,227.1,989.75,226.76Zm5-14.62a3,3,0,0,0,1.13.21c0-.65-.14-1-.43-1a1.05,1.05,0,0,0-.33.06,1.15,1.15,0,0,1-.37.06l-1,0a14.36,14.36,0,0,0-2,.11,10.18,10.18,0,0,0-1.88.54,1.91,1.91,0,0,0,.1.51,1.12,1.12,0,0,0,.18.43,4.88,4.88,0,0,0,1.39-.32,2.29,2.29,0,0,0,1.23-.75l.39.34a.79.79,0,0,0,.24-.17.57.57,0,0,1,.35-.17A3.62,3.62,0,0,1,994.76,212.14Zm-.24,14.92a7.52,7.52,0,0,0,2-.92,1.64,1.64,0,0,0,.86-1.32v-.17a10.06,10.06,0,0,0-.37-3.09,1.65,1.65,0,0,0-1.78-1.12,1.48,1.48,0,0,0-.59.19,1.53,1.53,0,0,1-.55.2,2,2,0,0,0-1.11.51l-.92.69a1.34,1.34,0,0,0-.42.54l-.33.71a4.63,4.63,0,0,1-.45.92.64.64,0,0,1-.57.32,3.26,3.26,0,0,0,.63,2.11,2.22,2.22,0,0,0,1.84.77A6.5,6.5,0,0,0,994.52,227.06Zm-3.38,2a1.39,1.39,0,0,0,.6.24,1,1,0,0,0-.29-.56c-.2-.23-.35-.35-.45-.35a.49.49,0,0,0-.43.35Zm2.23.47a1.69,1.69,0,0,0,.09-.53l-.19-.05a.82.82,0,0,0-.74.52,2.24,2.24,0,0,0,.58.34C993.22,229.81,993.3,229.72,993.37,229.53ZM994.6,219l-1.1.6,1.45-.21Zm1.45,9.52q.08-.45.12-.66a2.29,2.29,0,0,0-1.29.45,1.33,1.33,0,0,0-.67,1.14l1.68-.47C996,229,996,228.85,996.05,228.54Zm0-9.48a.63.63,0,0,0-.35.35,4.67,4.67,0,0,0,.57.17l.6.13.35-.13.4-.17a3.44,3.44,0,0,0-.55-.28l-.51-.2A1.28,1.28,0,0,0,996.05,219.06Zm1.45-6.17c.39-.13.59-.29.59-.49s-.36-.43-1.06-.43a.79.79,0,0,0-.63.32,1.15,1.15,0,0,0-.27.75l.39.05A3.27,3.27,0,0,0,997.5,212.89Zm-.16,15.22a1.4,1.4,0,0,0,.32-.88l0-.38a.74.74,0,0,0-.3.25,2.53,2.53,0,0,0-.21.3.4.4,0,0,0,.08.22h-.55v.9A.87.87,0,0,0,997.34,228.11Zm1.41-10.55-1-.26-.35.47Zm-1.13-3.36a.58.58,0,0,0,.51.48,1.21,1.21,0,0,0,.76-.18.73.73,0,0,0,.21-.6,1.5,1.5,0,0,0-.21-.69c-.14-.25-.31-.38-.49-.38Zm.29,4.78a5.79,5.79,0,0,0,.69.19,2,2,0,0,1,.66.24,1.42,1.42,0,0,1-.59.6.76.76,0,0,0-.29.3,1.49,1.49,0,0,0-.1.69,4.28,4.28,0,0,0,.2,1.24,7,7,0,0,1,.15,1.25,5.24,5.24,0,0,1-.11,1c.57-.14,1-.77,1.25-1.89a15.75,15.75,0,0,0,.39-3.57,6.74,6.74,0,0,0-.12-1.55,2.88,2.88,0,0,0-1.15.39,12.11,12.11,0,0,0-1.27.73A.52.52,0,0,0,997.91,219Zm1.08-3.92a1.57,1.57,0,0,0-.69.41,1,1,0,0,0-.25.67c.49,0,1-.42,1.49-1.25Zm.88,1c-.09-.14-.16-.21-.22-.21a1.35,1.35,0,0,0-.68.32,2.44,2.44,0,0,0-.65.62l1.45.26a.74.74,0,0,1,.12-.3.68.68,0,0,0,.11-.3A.78.78,0,0,0,999.87,216.05Zm-1.39,10.43a.35.35,0,0,0,.23.11,2.85,2.85,0,0,0,.47-.37c.21-.18.32-.32.32-.41s-.06-.13-.16-.13a1.18,1.18,0,0,0-.57.2,1.14,1.14,0,0,0-.45.41A.8.8,0,0,0,998.48,226.48Zm.53-1.81a1,1,0,0,0-.3.67,1,1,0,0,0,.71-.21,1.2,1.2,0,0,0,.19-.78A.82.82,0,0,0,999,224.67Zm.27,3c.07.09.12.13.18.13.44,0,.66-.37.66-1.12a1.14,1.14,0,0,0-.58.22.6.6,0,0,0-.36.51A.41.41,0,0,0,999.28,227.62Zm.92.6h-.59a.61.61,0,0,0,.28.56A.64.64,0,0,0,1000.2,228.22Zm1.14.39c-.13-.23-.25-.35-.36-.35a.36.36,0,0,0-.31.22.88.88,0,0,0-.12.43C1001,228.91,1001.26,228.81,1001.34,228.61Zm1.13,1.29a3,3,0,0,0-.06-.65.3.3,0,0,0-.33-.25,2,2,0,0,0-.65.12.88.88,0,0,0-.45.35C1001,229.76,1001.48,229.9,1002.47,229.9Z"/>
      <path d="M1008.85,229.43a2.47,2.47,0,0,1-.35-.82,33.32,33.32,0,0,1-.7-5.23c-.11-1.82-.16-4-.16-6.47v-1.37a14.91,14.91,0,0,1,.43-4.13A1.81,1.81,0,0,1,1010,210a2,2,0,0,1,2,1.35,9.9,9.9,0,0,1,.53,3.51,47.41,47.41,0,0,1-.32,5.2,32.06,32.06,0,0,0-.27,3.87c0,.72,0,1.76.16,3.14,0,.34.05.76.08,1.25s0,1.06,0,1.72c0,.46-.17.69-.5.69l-1.2-.26-1.23-.3A2.7,2.7,0,0,0,1008.85,229.43Zm.71-27.8a10.41,10.41,0,0,1,1.33-.11,2,2,0,0,1,.77.19c.3.13.45.25.45.37v3.18c0,.37-.24.56-.71.56a14.26,14.26,0,0,1-2.06-.17c-.74-.12-1.11-.33-1.11-.65v-2.71l.51-.47C1008.76,201.76,1009,201.7,1009.56,201.63ZM1008.7,214a.29.29,0,0,0,.1.19.26.26,0,0,0,.17.11c.24,0,.52-.2.86-.58s.55-.63.63-.71h-.16a3.31,3.31,0,0,0-.94.21c-.41.15-.62.39-.62.73Zm.9-1.25c1,0,1.57-.17,1.57-.52a1.71,1.71,0,0,0-.1-.69.4.4,0,0,0-.37-.17,1.1,1.1,0,0,0-.36.15,1,1,0,0,1-.39.15c-.05,0-.12-.05-.19-.15a.39.39,0,0,0-.32-.15.67.67,0,0,0-.41.11,1.19,1.19,0,0,0-.29.45.85.85,0,0,0,.59.35l.11,0-.23.52Zm-.77,4.11c.07.07.12.1.14.1a6.32,6.32,0,0,0,1.69-1.55l-.36,0a1.92,1.92,0,0,0-1.09.32,1.09,1.09,0,0,0-.47,1A.35.35,0,0,0,1008.83,216.81Zm.42,3.59a1,1,0,0,0-.47.86,1.71,1.71,0,0,0,.94-.37,1,1,0,0,0,.51-.84A1.63,1.63,0,0,0,1009.25,220.4Zm-.32-1.72,0,.43,1-1.12-.23-.05C1009.19,217.94,1008.93,218.19,1008.93,218.68Zm1.12,2.45q-.69.69-1.08,1.11h1.92c.16,0,.26-.17.29-.53a12.65,12.65,0,0,0,.06-1.36h-.35A8,8,0,0,0,1010.05,221.13Zm-.84,2.71,1.25-1.08v-.26c-1,.15-1.49.4-1.49.78S1009.05,223.84,1009.21,223.84Zm0-20.11q.15.45.51.45a2.83,2.83,0,0,0,1-.12c.2-.09.3-.31.3-.65a1.38,1.38,0,0,0-.16-.56,1.33,1.33,0,0,0-.29.17.67.67,0,0,1-.41.13l.27-.3h-1.37A2.52,2.52,0,0,0,1009.25,203.73Zm0,11.29a3.45,3.45,0,0,1,1.25-.21,1.05,1.05,0,0,0,.51-.09.59.59,0,0,0,.21-.45,8.58,8.58,0,0,0,.06-1.23C1010.56,213,1009.89,213.7,1009.21,215Zm1.35,9.5a2.28,2.28,0,0,0,.37-1.5h-.27l-1.45,1.59V225A1.72,1.72,0,0,0,1010.56,224.52Zm-1.27,1.7a1.25,1.25,0,0,0,.15.24l1-1-.39-.05c-.5,0-.78.19-.86.56A.52.52,0,0,0,1009.29,226.22Zm.56,2.71a5.57,5.57,0,0,0,1.16.11,1,1,0,0,0-.22-.67,1.19,1.19,0,0,1-.21-.32c.31-.17.47-.87.47-2.11h-.59q-.08,0-.57.69a2.76,2.76,0,0,0-.49.86v0h1.06l-1.25.82A.81.81,0,0,0,1009.85,228.93Zm-.13-11.76.35,0a4.82,4.82,0,0,0,.68-.06q.42-.06.42-.24v-1.29A3.18,3.18,0,0,0,1009.72,217.17Zm1.76.56h-.31l-1.45,1.59v.3C1010.89,219.62,1011.48,219,1011.48,217.73Z"/>
      <path d="M1030.67,229.3l0-1.47c0-1.31.08-2.3.08-3a35.38,35.38,0,0,0-.83-8.09,10.56,10.56,0,0,1-.94-1,3.58,3.58,0,0,0-1-.9,4.18,4.18,0,0,0-1.73-.26,5.38,5.38,0,0,0-1.68.28,10.46,10.46,0,0,0-2.08,1.1,1.46,1.46,0,0,0-.62.92,6.32,6.32,0,0,0-.16,1.57c0,1.55,0,2.78.08,3.68a10.09,10.09,0,0,0,.47,2.56v5.55c0,.17-.12.25-.35.25-.79,0-1.51-.11-2.16-.17s-1-.08-1.09-.08l-.75-.52s-.07-.83-.14-2.41-.09-3-.09-4.21,0-2.28.11-3.31c.11-1.67.16-3.26.16-4.78l0-3.82a2.26,2.26,0,0,1,.73-.37,2.42,2.42,0,0,1,.72-.15,1.18,1.18,0,0,1,.86.3,3,3,0,0,1,.59.86c.23.43.44.65.63.65a2.11,2.11,0,0,0,1-.24c.32-.16.75-.39,1.3-.71a17.34,17.34,0,0,1,1.58-.88,3.08,3.08,0,0,1,1.31-.28,10.16,10.16,0,0,1,3.76,1.2l.87.39c1.54.66,2.57,2.17,3.11,4.54a34.15,34.15,0,0,1,.8,7.5,17.68,17.68,0,0,1-.19,2.49c-.11,1.09-.16,1.9-.16,2.41a5.39,5.39,0,0,0,0,.82c-.26,0-.41.14-.43.43a1.12,1.12,0,0,1-.32.71c-.18.19-.66.28-1.44.28a1.67,1.67,0,0,0,.07-.47q0-.09,0-.09a1.65,1.65,0,0,0-.3.24,1,1,0,0,1-.41.23,1.27,1.27,0,0,1-.74-.21l-.2-.35A2.18,2.18,0,0,0,1030.67,229.3Zm-11.75-2.71a1.21,1.21,0,0,0-.39,1.07h.59l1.21-1.33h-.24A2.16,2.16,0,0,0,1018.92,226.59Zm1.12-1.81a4.84,4.84,0,0,0,.8-2c0-.37,0-.69,0-1s0-.51-.08-.71a12.46,12.46,0,0,1-.16-1.64,4.06,4.06,0,0,1,0-.56l-.51.22a3.63,3.63,0,0,0,.38-.71,5.37,5.37,0,0,0,.17-.75l.16-.91a3.67,3.67,0,0,1,.61-1.37,5.33,5.33,0,0,1,1-1c.42-.35.63-.62.63-.82a.48.48,0,0,0,0-.22,3.25,3.25,0,0,0-.9.69c-.05,0-.18.14-.39.32a.87.87,0,0,1-.51.28.63.63,0,0,1-.51-.19,3,3,0,0,1-.35-.67,3.4,3.4,0,0,0-.29-.53.49.49,0,0,0-.42-.2.76.76,0,0,0-.27.05,1.74,1.74,0,0,0,.16-.26.79.79,0,0,0,.07-.3c0-.09-.05-.15-.17-.2a1,1,0,0,1-.22-.1s-.08.11-.17.34a1.62,1.62,0,0,0-.14.52,17,17,0,0,0,.16,2.06,8.33,8.33,0,0,1,.11,1.25l0,.9s.1,0,.15.11a.36.36,0,0,1,.08.15,3.75,3.75,0,0,1-.23,1,4.39,4.39,0,0,0-.24,1.12h1l-.74.77.23.3a2,2,0,0,0-.63.82,3.63,3.63,0,0,0-.15,1.16,1,1,0,0,0,1-.69c0,.12,0,.17.08.17a4,4,0,0,1-.41.65,2.45,2.45,0,0,0-.41.73h1.25l-1.21.6v1.94C1019.12,226.16,1019.5,225.7,1020,224.78Zm-.55,3.74a1,1,0,0,0-.37.28.82.82,0,0,0-.12.5h2.07a.41.41,0,0,0,.16-.18.43.43,0,0,0,.08-.21,1.53,1.53,0,0,0-.14-.5,1.68,1.68,0,0,1-.14-.4c0-.06.07-.13.2-.22a.68.68,0,0,1,.31-.13.51.51,0,0,1-.21-.38c0-.2-.08-.37-.12-.5a.24.24,0,0,0-.25-.19c-.32,0-.69.25-1.12.75l-.72.84h.74A.82.82,0,0,1,1019.49,228.52Zm.66-3.82a1.93,1.93,0,0,0-.6,1.11h1.25c.1,0,.19-.19.25-.58a6.77,6.77,0,0,0,.1-1.22C1020.89,224,1020.56,224.24,1020.15,224.7Zm6.84-11.46a6.79,6.79,0,0,1,1.52.36,3,3,0,0,1,.75.6,5.13,5.13,0,0,1,.45.39,1,1,0,0,0,.64.34c.21,0,.32-.1.32-.3l-.2-.21a.87.87,0,0,1,.41-.35c.22-.11.34-.22.34-.34,0-.29-.29-.43-.87-.43a.86.86,0,0,0-.49.15.66.66,0,0,1-.37.15c-.13-.2-.25-.3-.35-.3l-.08,0,.2-.51a1,1,0,0,0-.79-.3,3.56,3.56,0,0,0-.58.06,3.88,3.88,0,0,1-.55.07v-.86c-1,0-1.55.24-1.68.73V212a1.07,1.07,0,0,1-.48.19,2.73,2.73,0,0,0-.39.11,3.91,3.91,0,0,0-1,.32.72.72,0,0,0-.33.67s0,.07.12.13.12.11.12.17l.51-.51.23.25h.12a1.48,1.48,0,0,0,.35-.21q.24-.18.24-.3l.23.26A11.78,11.78,0,0,1,1027,213.24Zm4.85,2.79a2.19,2.19,0,0,0,.12-.84V215q0-.56-.27-.6a1.42,1.42,0,0,0-1,1.33h.78l-.51.52.28.3A1.26,1.26,0,0,0,1031.84,216Zm0,1.66a1,1,0,0,0-.35.77,1.63,1.63,0,0,0,1.08-.56,1.57,1.57,0,0,0,.56-1.12,1,1,0,0,0-.19-.47q-.2-.3-.39-.3a1.05,1.05,0,0,0-.79.41,1.33,1.33,0,0,0-.35.88h1.26A1.77,1.77,0,0,0,1031.84,217.69Zm.35.77a1.51,1.51,0,0,0-.43,1,3.76,3.76,0,0,0,1.16-.15.63.63,0,0,0,.45-.67,1.84,1.84,0,0,0,0-.41,1.07,1.07,0,0,0-.2-.4A2.26,2.26,0,0,0,1032.19,218.46Zm-.31,1.76,0,.26a.61.61,0,0,0,.31-.28,1.75,1.75,0,0,0,.2-.36l0-.13A.45.45,0,0,0,1031.88,220.22Zm.39,6.2a1.75,1.75,0,0,0,1.24-.65,1.91,1.91,0,0,0,.6-1.29.62.62,0,0,0,0-.26,15,15,0,0,0-.31-2.49,3.75,3.75,0,0,0-.74.54c-.45.35-.67.62-.67.79a.37.37,0,0,0,.12.22c.08.08.14.13.2.13a.53.53,0,0,0-.48.25,1.12,1.12,0,0,0-.15.56,1.32,1.32,0,0,0,.86-.43,1.13,1.13,0,0,1,.7-.34v.17a3,3,0,0,0-1.41,1.76h.71C1032.48,225.5,1032.27,225.84,1032.27,226.42Zm-.11-4.95a3.58,3.58,0,0,1-.08.9,1.36,1.36,0,0,0,1.13-.64,2.31,2.31,0,0,0,.47-1.42l-.08-.6a7.22,7.22,0,0,0-1,.53.78.78,0,0,0-.43.63Zm.39,5.93a8.37,8.37,0,0,0-.24,2.37h1.45q0-1.38-.63-1.59a2.7,2.7,0,0,0,.42-.24c.19-.13.29-.22.29-.28v-1.85A3.74,3.74,0,0,0,1032.55,227.4Z"/>
    </g>
    <g id="sad_bear" data-name="sad bear">
      <g id="oso-2" data-name="oso">
        <g id="brazo_izq" data-name="brazo izq">
          <path class="cls-4" d="M1104.61,472.2l-94.37,41.55a47.55,47.55,0,0,0-21,68.67l15.31,24.64a47.54,47.54,0,0,0,70.88,11.58l79.07-66.18C1196.62,517.17,1154.93,450.05,1104.61,472.2Z"/>
        </g>
        <g id="body">
          <path class="cls-5" d="M1078.48,515,1038.3,606.1c-34.39,78,20.39,166.16,105.55,169.88l72.27,3.16c85.15,3.72,147.41-79.34,120-160L1304,524.8C1268.44,420.29,1123,413.93,1078.48,515Z"/>
        </g>
        <path class="cls-6" d="M1340,620.18l-11.08-32.57a61.08,61.08,0,0,1-21.42,6.66c-40.3,4.72-77.65-31.51-83.43-80.92-2.76-23.59,2.18-45.91,12.48-63.32a125.45,125.45,0,0,0-18.13-5.43C1199,457.87,1189.47,487,1192,525.23l-91.09-7.85c3-21.77,19.3-41.85,22.71-55.75-18.41,12.12-34,29.8-44.33,53.15L1038.64,607c-34.79,78.92,20.64,168.14,106.81,171.91l73.14,3.19C1304.76,785.88,1367.76,701.84,1340,620.18Z"/>
        <path class="cls-7" d="M1131.44,639.16l-3.44-.3c-33.24-2.92-53.94-32.4-46.83-62.93l7.37-31.65c1.18-5.09,6.66-8.85,12.19-8.42l87.68,6.72c5.65.43,10,5,9.7,10.21l-2,32.48C1194.24,616.63,1165,642.1,1131.44,639.16Z"/>
        <g id="pies">
          <path class="cls-4" d="M1096.08,752.31l8.15-66.18a69.74,69.74,0,0,0-78.49-77.65l-.86.12a70.67,70.67,0,0,0-56,96.88l24.86,60.57C1014.61,816.85,1089.36,806.82,1096.08,752.31Z"/>
          <path class="cls-8" d="M1072.11,747.09l6.47-52.46a55.28,55.28,0,0,0-62.21-61.54l-.68.09A56,56,0,0,0,971.32,710L991,758C1007.55,798.24,1066.79,790.28,1072.11,747.09Z"/>
          <path class="cls-4" d="M1077,768.65l-8.56-69.5a73.23,73.23,0,0,1,82.42-81.54l.9.12c48.19,6.47,77.25,56.75,58.79,101.73l-26.1,63.61C1162.52,836.42,1084,825.88,1077,768.65Z"/>
          <path class="cls-8" d="M1080.86,761.74l-6.77-55a57.92,57.92,0,0,1,65.18-64.48l.71.1a58.68,58.68,0,0,1,46.49,80.44l-20.64,50.3C1148.52,815.34,1086.44,807,1080.86,761.74Z"/>
        </g>
        <g id="brazo_derecho" data-name="brazo derecho">
          <path class="cls-5" d="M1231,571.43l88,79.23c24.62,22.18,63.23,17.31,81.82-10.32l18.58-27.63c18.59-27.63,8.55-65.23-21.27-79.68l-106.55-51.61C1234.71,453.9,1184.08,529.18,1231,571.43Z"/>
          <ellipse class="cls-4" cx="1368.52" cy="599.27" rx="69.5" ry="58.34" transform="translate(264.67 1605.99) rotate(-66.01)"/>
          <ellipse class="cls-9" cx="1374.52" cy="601.82" rx="60.39" ry="45.55" transform="translate(305.02 1654.29) rotate(-68.19)"/>
        </g>
        <g id="cabeza">
          <g>
            <circle class="cls-10" cx="1109.9" cy="286.58" r="48.73"/>
            <circle class="cls-9" cx="1100.95" cy="283.59" r="28.34"/>
          </g>
          <g>
            <circle class="cls-5" cx="1276.34" cy="293.17" r="52.08"/>
            <circle class="cls-9" cx="1268.39" cy="288.19" r="30.29"/>
          </g>
          <circle class="cls-4" cx="1180.75" cy="392.73" r="115.85"/>
          <circle class="cls-5" cx="1182.74" cy="384.78" r="115.85"/>
          <g id="ocico">
            <ellipse class="cls-11" cx="1114.16" cy="410.83" rx="62.08" ry="56.17" transform="translate(544.25 1452.63) rotate(-81.56)"/>
            <ellipse class="cls-9" cx="1161.85" cy="414.52" rx="69.13" ry="65.23"/>
          </g>
        </g>
        <g id="ojos">
          <circle id="ojo_derecho" data-name="ojo derecho" class="cls-12" cx="1202.09" cy="335.72" r="14.92"/>
          <circle id="ojo_izquierdo" data-name="ojo izquierdo" class="cls-12" cx="1113.84" cy="326.94" r="12.03"/>
          <circle class="cls-13" cx="1205.12" cy="326.6" r="3.98"/>
          <circle class="cls-13" cx="1116.61" cy="319.64" r="2.98"/>
        </g>
        <g id=":_" data-name=":(">
          <g id="cejas_:_" data-name="cejas :(">
            <path class="cls-14" d="M1213.68,298.08c8.84,3.16,17.17,3.83,21.84,2.13a5.84,5.84,0,0,1,1,4.86c-1.69,5-13.11,5.51-25.5,1.07S1189.9,294,1191.58,289a5.55,5.55,0,0,1,3.67-3.21C1197.9,290.1,1204.85,294.91,1213.68,298.08Z"/>
            <path class="cls-14" d="M1117.17,293.82c7.43-1.2,13.71-4,16.58-7.08a4.22,4.22,0,0,1,2.23,3.13c.35,4.31-7.82,9.16-18.24,10.84s-19.17-.44-19.52-4.74a5,5,0,0,1,1.66-3.77C1103.17,294.28,1109.74,295,1117.17,293.82Z"/>
          </g>
          <path id="voca_:_v" data-name="voca :(v" class="cls-12" d="M1144.65,469.67c-2-7.56-9.54-13.21-18.63-13.23-7.75,0-14.41,4-17.47,9.91a15.82,15.82,0,0,1-.51-3.91c0-9.43,8.65-17.05,19.25-17s19.17,7.7,19.14,17.14A15.32,15.32,0,0,1,1144.65,469.67Z"/>
        </g>
      </g>
      <path id="nariz_v2" class="cls-12" d="M1146.77,361.48c.4-8-5.24-14.86-12.61-15.23a12.59,12.59,0,0,0-8.46,2.75,12.64,12.64,0,0,0-8.54-4c-7.37-.37-13.67,5.84-14.07,13.89a15.07,15.07,0,0,0,4.14,11.32,3.41,3.41,0,0,0,.53,1.26l10,15c2.24,3.38,9.11,3.72,11.68.59l11.44-13.93a3.83,3.83,0,0,0,.42-.63A15.11,15.11,0,0,0,1146.77,361.48Z"/>
    </g>
  </g>
</svg>
