<svg xmlns="http://www.w3.org/2000/svg" width="56" height="56" viewBox="0 0 56 56">
  <defs>
    <style>
      .cls-1 {
        fill: #71a5a2;
      }

      .cls-2 {
        fill: #e2db54;
      }

      .cls-3 {
        fill: #83c6c4;
      }
    </style>
  </defs>
  <g id="panel_de_control" data-name="panel de control">
    <g id="live">
      <g>
        <path class="cls-1" d="M32.69,31.32c4-2.49,1.55-17.07-2.1-22.85S20.73,0,16.73,2.52s-4.29,9.17-.64,14.94S28.68,33.8,32.69,31.32Z"/>
        <g>
          <path class="cls-2" d="M26.89,50.77A22.22,22.22,0,0,1,23.6,56a42.92,42.92,0,0,0,4.92-.12,18.75,18.75,0,0,0,7.85-8.39,19.48,19.48,0,0,0-.67-16.34,23,23,0,0,0-9-9.8l-.62.06a45.21,45.21,0,0,0-5.49.94,28,28,0,0,1,5.55,7.78A24.53,24.53,0,0,1,26.89,50.77Z"/>
          <path class="cls-2" d="M22.1,48.67a19.44,19.44,0,0,0-.67-16.34,22.89,22.89,0,0,0-6.62-8.19C5.39,27.89-.71,34.62.07,41.59.8,48.25,7.61,53.35,16.94,55.22A17.85,17.85,0,0,0,22.1,48.67Z"/>
          <path class="cls-2" d="M55.93,35.53C55.1,28,46.4,22.4,35.08,21.32a28.08,28.08,0,0,1,5.35,7.59,24.56,24.56,0,0,1,.72,20.66,22,22,0,0,1-2.61,4.36C49.44,50.46,56.78,43.14,55.93,35.53Z"/>
          <path d="M26.89,50.77a24.53,24.53,0,0,0-.73-20.66,28,28,0,0,0-5.55-7.78,41.81,41.81,0,0,0-5.8,1.81,22.89,22.89,0,0,1,6.62,8.19,19.44,19.44,0,0,1,.67,16.34,17.85,17.85,0,0,1-5.16,6.55A40.37,40.37,0,0,0,23.6,56,22.22,22.22,0,0,0,26.89,50.77Z"/>
          <path d="M40.43,28.91a28.08,28.08,0,0,0-5.35-7.59,44.06,44.06,0,0,0-8.36,0,23,23,0,0,1,9,9.8,19.48,19.48,0,0,1,.67,16.34,18.75,18.75,0,0,1-7.85,8.39l1.38-.12a44.66,44.66,0,0,0,8.64-1.81,22,22,0,0,0,2.61-4.36A24.56,24.56,0,0,0,40.43,28.91Z"/>
        </g>
        <path class="cls-3" d="M30.79,32.84c4.72-.16,10-14,9.77-20.79s-4.24-12.2-9-12-8.36,5.8-8.13,12.61S26.06,33,30.79,32.84Z"/>
      </g>
    </g>
  </g>
</svg>
