<svg xmlns="http://www.w3.org/2000/svg" width="510" height="120" viewBox="0 0 510 120">
  <defs>
    <style>
      .cls-1 {
        fill: #cabca6;
      }

      .cls-2 {
        fill: #774318;
      }

      .cls-3 {
        fill: #603813;
      }
    </style>
  </defs>
  <g id="buttom_instructions">
    <g>
      <rect class="cls-1" x="13.48" y="1" width="484" height="118" rx="10.38"/>
      <g>
        <path class="cls-2" d="M254,97.85c-6.53,3-14.66,6.81-29.92,7.52-24.22,1.14-36.77-6.56-47.83-13.35-10.4-6.38-18.62-11.42-34.1-7.2-13.66,3.72-24.57,12.49-34.19,20.23-3.55,2.86-7,5.62-10.36,8H306.62c-7.7-8.74-15.68-15.87-29.66-18.62C266.05,92.24,260.71,94.71,254,97.85Z"/>
        <path class="cls-2" d="M25.6,56.4c.59.19,6,1.76,52.59,13.76,11.79,3,18,1.17,94.23-28.53L176,40.22C225.72,20.88,232.1,18.39,244.61,23c16.18,6,23.67,17.54,31.6,29.75,7.15,11,14.54,22.36,29.49,32.44A104.8,104.8,0,0,0,341,99.76c24.38,5,45.67-.8,63.28-17.13a168.12,168.12,0,0,0,12.55-13.51c9.78-11.32,19.88-23,36.39-26.62a33.94,33.94,0,0,1,14.51-.13,41.4,41.4,0,0,0,15.36.12,71.11,71.11,0,0,0,9.48-2.27v-29c0-4.55-1.71-8.42-4-9.75-3.59,3.12-7.36,6.75-11.43,10.65-4.27,4.1-8.68,8.34-13.51,12.6-10.31,9.1-37.71,33.25-69.47,40.08-36.17,7.76-65-10.09-82.29-20.76C288.06,29.41,275.55,14,265.93,1H181.35a249,249,0,0,1-47,29.36C114,40.28,91.05,51.52,61.17,51.52H61a130.45,130.45,0,0,1-48.46-9.68v8.94c2.34.87,4.94,2,7.75,3.28C22,54.82,23.73,55.61,25.6,56.4Z"/>
        <path class="cls-2" d="M61.17,41c29.06,0,50.67-10.56,71.57-20.77A259.07,259.07,0,0,0,166,1H76.68c15.28,2.73,26,9.06,26,16.44,0,9.87-19.15,17.87-42.77,17.87s-42.78-8-42.78-17.87c0-7.38,10.71-13.71,26-16.44H18.34c-3.2,0-5.82,4.61-5.82,10.25V31.08A127,127,0,0,0,61,41Z"/>
        <path class="cls-2" d="M393.34,54.42c30.74-6.6,57.46-30.17,67.52-39C465.6,11.2,470,7,474.19,3l2-1.95H411.48C421.05,5.64,427,12.14,427,19.35c0,14.08-22.72,25.5-50.76,25.5s-50.76-11.42-50.76-25.5c0-7.21,5.95-13.71,15.52-18.35H276a144.69,144.69,0,0,0,37.77,33.18C330.5,44.54,358.56,61.89,393.34,54.42Z"/>
        <path class="cls-2" d="M48.73,96.87c-13.23-9.7-22.38-12.75-27.17-9.09a19.71,19.71,0,0,0-4.75,5.89c-1.19,2-2.49,4.11-4.29,5.06v4c0,5.64,2.62,10.25,5.82,10.25H67.05c-.94-.87-1.93-1.84-3-2.9A126.9,126.9,0,0,0,48.73,96.87Z"/>
        <path class="cls-2" d="M457.35,89.74c-7.69,5.47-11.58,11.94-16.08,19.42-.75,1.25-1.52,2.53-2.33,3.84h47.75c3.21,0,5.83-4.61,5.83-10.25V84.81C479.51,80.74,467.73,82.37,457.35,89.74Z"/>
        <path class="cls-2" d="M467.13,52.81a30.44,30.44,0,0,0-13.23.1c-15.13,3.28-24.22,13.82-33.84,25A172.75,172.75,0,0,1,407,91.9c-44.18,41-97.5,7.12-103.43,3.12-15.94-10.74-24.09-23.28-31.28-34.34C264.65,48.91,258,38.74,243.38,33.3c-11.25-4.18-17.49-1.75-66,17.16l-3.63,1.41c-35.94,14-58.71,22.78-71.87,26.74-12.62,3.8-17.76,3.66-24.5,1.93C29.46,68.21,24.62,66.77,24.27,66.62c-1.92-.81-3.72-1.62-5.46-2.39-2.13-1-4.28-1.91-6.29-2.7V86.38l.22-.36a26.69,26.69,0,0,1,6.44-7.85c4.1-3.14,11.87-5.62,31.84,9A134.22,134.22,0,0,1,67,100.94c1.6,1.58,3,3,4.24,4,11.07,9.23,20.79,1.41,34.26-9.42,10-8,21.27-17.11,35.75-21.05,17-4.62,26.22,1.07,37,7.66,10.58,6.49,22.58,13.85,45.71,12.77,14.57-.68,22-4.13,28.56-7.18,7.06-3.28,13.16-6.11,25.18-3.75,18.32,3.6,27.44,14.45,37.11,25.94.86,1,1.74,2.07,2.62,3.1H429.78c2.88-3.94,5.16-7.74,7.4-11.46,4.73-7.87,9.2-15.31,17.95-21.52,11.15-7.92,23.68-9.87,37.39-5.86V50.86a73.94,73.94,0,0,1-8.93,2.07A44.9,44.9,0,0,1,467.13,52.81Zm-244.93,33c-21,0-38-8-38-17.87s17-17.87,38-17.87,38,8,38,17.87S243.2,85.83,222.2,85.83Z"/>
        <path class="cls-2" d="M25.67,56.43l-.05,0Z"/>
        <path class="cls-3" d="M311.77,44.07C329,54.74,357.89,72.59,394.06,64.83c31.76-6.83,59.16-31,69.47-40.08,4.83-4.26,9.24-8.5,13.51-12.6,4.07-3.9,7.84-7.53,11.43-10.65a3.57,3.57,0,0,0-1.78-.5H476.22l-2,2C470,7,465.6,11.2,460.86,15.38c-10.06,8.87-36.78,32.44-67.52,39-34.78,7.47-62.84-9.88-79.6-20.24A144.69,144.69,0,0,1,276,1h-10C275.55,14,288.06,29.41,311.77,44.07Z"/>
        <path class="cls-3" d="M483,42.49a41.4,41.4,0,0,1-15.36-.12,33.94,33.94,0,0,0-14.51.13c-16.51,3.59-26.61,15.3-36.39,26.62a168.12,168.12,0,0,1-12.55,13.51C386.62,99,365.33,104.73,341,99.76A104.8,104.8,0,0,1,305.7,85.23c-14.95-10.08-22.34-21.45-29.49-32.44-7.93-12.21-15.42-23.74-31.6-29.75C232.1,18.39,225.72,20.88,176,40.22l-3.62,1.41C96.15,71.33,90,73.2,78.19,70.16c-46.58-12-52-13.57-52.59-13.76-1.87-.79-3.63-1.58-5.33-2.34-2.81-1.25-5.41-2.41-7.75-3.28V61.53c2,.79,4.16,1.75,6.29,2.7,1.74.77,3.54,1.58,5.46,2.39.35.15,5.19,1.59,53.06,13.92,6.74,1.73,11.88,1.87,24.5-1.93,13.16-4,35.93-12.74,71.87-26.74l3.63-1.41c48.56-18.91,54.8-21.34,66-17.16,14.66,5.44,21.27,15.61,28.91,27.38,7.19,11.06,15.34,23.6,31.28,34.34,5.93,4,59.25,37.87,103.43-3.12a172.75,172.75,0,0,0,13.06-14c9.62-11.15,18.71-21.69,33.84-25a30.44,30.44,0,0,1,13.23-.1,44.9,44.9,0,0,0,16.46.12,73.94,73.94,0,0,0,8.93-2.07V40.22A71.11,71.11,0,0,1,483,42.49ZM25.62,56.41l.05,0Z"/>
        <path class="cls-3" d="M455.13,80c-8.75,6.21-13.22,13.65-17.95,21.52-2.24,3.72-4.52,7.52-7.4,11.46h9.16c.81-1.31,1.58-2.59,2.33-3.84,4.5-7.48,8.39-14,16.08-19.42,10.38-7.37,22.16-9,35.17-4.93V74.16C478.81,70.15,466.28,72.1,455.13,80Z"/>
        <path class="cls-3" d="M61.17,51.52c29.88,0,52.87-11.24,73.16-21.16A249,249,0,0,0,181.35,1H166a259.07,259.07,0,0,1-33.26,19.26C111.84,30.47,90.23,41,61.17,41H61a127,127,0,0,1-48.46-10V41.84A130.45,130.45,0,0,0,61,51.52Z"/>
        <path class="cls-3" d="M314.73,109.9C305.06,98.41,295.94,87.56,277.62,84c-12-2.36-18.12.47-25.18,3.75-6.56,3.05-14,6.5-28.56,7.18-23.13,1.08-35.13-6.28-45.71-12.77-10.75-6.59-20-12.28-37-7.66-14.48,3.94-25.78,13-35.75,21.05C92,106.34,82.26,114.16,71.19,104.93c-1.25-1-2.64-2.41-4.24-4A134.22,134.22,0,0,0,51,87.19c-20-14.64-27.74-12.16-31.84-9A26.69,26.69,0,0,0,12.74,86l-.22.36V98.73c1.8-1,3.1-3.1,4.29-5.06a19.71,19.71,0,0,1,4.75-5.89c4.79-3.66,13.94-.61,27.17,9.09A126.9,126.9,0,0,1,64,110.1c1.08,1.06,2.07,2,3,2.9H97.56c3.37-2.33,6.81-5.09,10.36-8,9.62-7.74,20.53-16.51,34.19-20.23,15.48-4.22,23.7.82,34.1,7.2,11.06,6.79,23.61,14.49,47.83,13.35,15.26-.71,23.39-4.49,29.92-7.52,6.75-3.14,12.09-5.61,23-3.47,14,2.75,22,9.88,29.66,18.62h10.73C316.47,112,315.59,110.93,314.73,109.9Z"/>
        <path class="cls-3" d="M17.12,17.44c0,9.87,19.15,17.87,42.78,17.87s42.77-8,42.77-17.87c0-7.38-10.71-13.71-26-16.44H43.11C27.83,3.73,17.12,10.06,17.12,17.44ZM59.9,2.91C76,2.91,89,8.35,89,15.06S76,27.21,59.9,27.21,30.81,21.77,30.81,15.06,43.83,2.91,59.9,2.91Z"/>
        <ellipse class="cls-2" cx="59.9" cy="15.06" rx="29.09" ry="12.15"/>
        <path class="cls-3" d="M325.48,19.35c0,14.08,22.73,25.5,50.76,25.5S427,33.43,427,19.35c0-7.21-5.95-13.71-15.52-18.35H341C331.43,5.64,325.48,12.14,325.48,19.35ZM379.22,2.43c18.6,0,33.68,7.57,33.68,16.92s-15.08,16.92-33.68,16.92-33.68-7.58-33.68-16.92S360.62,2.43,379.22,2.43Z"/>
        <ellipse class="cls-2" cx="379.22" cy="19.35" rx="33.68" ry="16.92"/>
        <path class="cls-3" d="M222.2,50.09c-21,0-38,8-38,17.87s17,17.87,38,17.87,38-8,38-17.87S243.2,50.09,222.2,50.09Zm3.25,31c-15.48,0-28-5.9-28-13.17S210,54.8,225.45,54.8s28,5.89,28,13.16S240.92,81.13,225.45,81.13Z"/>
        <ellipse class="cls-2" cx="225.45" cy="67.96" rx="28.02" ry="13.17"/>
      </g>
      <g>
        <path class="cls-1" d="M79.27,81.14a5.43,5.43,0,0,0,4.13-2.88,15.31,15.31,0,0,0,1.48-6.49v-.58a8.22,8.22,0,0,0,.05-1.57c0-.52-.05-1.07-.05-1.66v-.19a5.13,5.13,0,0,0-1.28-3A2.54,2.54,0,0,0,81,64.16a1.69,1.69,0,0,1-.49.19,1.05,1.05,0,0,1-1.33-.58c-.23-.52,0-.94.54-1.27l1-.29a6.2,6.2,0,0,0,2.7-1.76,4.89,4.89,0,0,0,.94-2.34q-.3-5.47-.94-10.2T82.32,38.1v-.49L82,34.1a6.18,6.18,0,0,0-.69-1.91,1.84,1.84,0,0,0-1.48-.92h-.4c-.78.13-1.41.23-1.87.29a4.74,4.74,0,0,0-1.57.59,1.9,1.9,0,0,0-.4.73,4.4,4.4,0,0,0-.24,1.22,5.8,5.8,0,0,0,0,1.32,1.18,1.18,0,0,0,.4.83,2.29,2.29,0,0,0,1.23-.59A5.19,5.19,0,0,0,78,34.49a.29.29,0,0,0-.2-.1c-.66-.26-.92-.65-.79-1.17s.56-.72,1.28-.59l1,.39a.86.86,0,0,1,.69.88,2.37,2.37,0,0,1-.3,1.81,6.93,6.93,0,0,1-1.28,1.41q-1.77,1.66-3,1.08a3.15,3.15,0,0,1-1.68-2.1,6.59,6.59,0,0,1,0-3.42,4,4,0,0,1,2.22-2.78,7.67,7.67,0,0,1,1.47-.39c.46-.06,1-.16,1.58-.29l3.94-.49c.86-.06,1.51-.13,2-.2s.86-.11,1.22-.14.78-.08,1.27-.15,1.18-.13,2.1-.19c1.43-.13,3-.21,4.84-.25s3.45-.08,5-.14a1,1,0,0,1,.79.92.91.91,0,0,1-.6,1,.2.2,0,0,0-.14.05.25.25,0,0,1-.15.05,4.79,4.79,0,0,0-3,1.85,8,8,0,0,0-1.23,3.32c-.06,3.19-.15,6.38-.24,9.56s-.15,6.41-.15,9.67q.31,5,.69,10t.59,10a6.8,6.8,0,0,0,2.17,4,6.6,6.6,0,0,0,3.35,1.31c.52,0,1,0,1.47,0s.92,0,1.38,0a8.58,8.58,0,0,0,2.32-1.22,3.44,3.44,0,0,0,1.23-1.81,5.63,5.63,0,0,0,.15-2.39,5.15,5.15,0,0,1,.24-2.49,3.06,3.06,0,0,1,1.73-.44c.82,0,1.29.12,1.43.44a16.25,16.25,0,0,1,.24,2.29c0,.82.07,1.6.1,2.35a11.36,11.36,0,0,0,.25,2,1.59,1.59,0,0,0,.79,1.17c.39.45.49.83.29,1.12a1.22,1.22,0,0,1-1.08.44,6.64,6.64,0,0,0-2.32.2,9.09,9.09,0,0,1-2.41.29c-3,.06-6.11.26-9.26.58s-6.31.59-9.46.78h-.89a.77.77,0,0,1-1.08.1c-.92.07-1.82.11-2.71.15S82,82.9,81,82.9a3.14,3.14,0,0,0-.89.19l-1.47.3a1.08,1.08,0,0,1-1.33-.54c-.24-.49,0-.89.54-1.22l.19-.1a3.63,3.63,0,0,1,.5-.39A.66.66,0,0,1,79.27,81.14Zm4.53-48.8a5.59,5.59,0,0,1,.2,1.27l.78-.29V32.05Zm0,30.26a2.46,2.46,0,0,0,.44.34,2.53,2.53,0,0,1,.45.34l0-1.46ZM84,80.55a2,2,0,0,0,1.38-1.36V78.8A7.82,7.82,0,0,1,84,80.55Zm.24-44.4.67-.3v-.19l-.67.29Zm.3,4.49c.06-.07.23-.1.49-.1v-.39a1.48,1.48,0,0,1-.59.19Zm.29,2.83.3-.1a2.47,2.47,0,0,0,0-.44,2.47,2.47,0,0,1,0-.44l-.29.1Zm1.68-10.84,5.81-2.14v-.2l-5.81,1.37Zm5.71.1c-.93.33-1.87.67-2.8,1s-1.88.73-2.81,1.12v.49l5.61-1.47Zm-5.51,7.32c.93-.26,1.85-.49,2.75-.68l2.76-.59V37.51l-2.76,1-2.75,1Zm0,2v.69l5.22-2Zm5.51,1.66v-1l-5.42,2v.29ZM90.79,46.2c-.74.13-1.43.28-2.07.44s-1.29.34-2,.54v.48Zm-4,6.34,5.62-2.34v-.49l-5.62,1.66Zm.1,2.83,5.8-2.44v-.09l-5.8,1.27Zm0,2.35,5.91-1.56,0-.79-5.89,2.25Zm5.91.29c-1,.26-2,.54-3,.83s-1.92.57-2.86.83a2.47,2.47,0,0,0,0,.44,2.47,2.47,0,0,1,0,.44l5.71-1.76Zm0,2.83,0-.68-5.69,2.05ZM87.25,65l5.59-2V63l-5.59,1.27Zm.29,2.44L93,66a1.74,1.74,0,0,0,0-.39,1.74,1.74,0,0,1,0-.39l-5.39,2.15Zm.3,3.12c.91-.26,1.81-.54,2.69-.83A24.83,24.83,0,0,1,93.22,69a.69.69,0,0,0,0-.29.49.49,0,0,1,0-.2l-5.28,2Zm.2,3.22,5.27-2h.1a1.16,1.16,0,0,0,0-.34,1.16,1.16,0,0,1,0-.34L88,72.65Zm.19,5.27,2.82-1.17,3-1.07a.49.49,0,0,0,0-.2.69.69,0,0,1,0-.29,52.76,52.76,0,0,0-5.74,1.76Zm2-30.65,2.07-.39v-.29ZM91,75.28l2.7-.78v-.29Zm3.15,4.59,0-.58-2.77.87ZM95,30.29l.39-.58h-.49a.45.45,0,0,0,0,.19.49.49,0,0,1,0,.2Zm1.58,49.29v.1h.1Zm13.2-3.22a3.91,3.91,0,0,1-2,2.73h1.57a1.88,1.88,0,0,0,.45,0,2.47,2.47,0,0,1,.44-.05,3.08,3.08,0,0,1-.44-1.31C109.82,77.25,109.81,76.81,109.81,76.36Z"/>
        <path class="cls-1" d="M116.11,44.15a8.24,8.24,0,0,1,3.55-2.64,25.82,25.82,0,0,1,5.12-1.61,22.88,22.88,0,0,1,5-.48,5.09,5.09,0,0,1,3.2.83,9.12,9.12,0,0,1,3,1.56l.88.34a3,3,0,0,1,.79.44,17.65,17.65,0,0,1,4.58,7.95,33.92,33.92,0,0,1,1.33,9.23,36,36,0,0,1-1.33,10,15.12,15.12,0,0,1-5.46,7.86,10.32,10.32,0,0,1-5.23,2.92,9.91,9.91,0,0,1-3.49.74,20.2,20.2,0,0,1-3.7-.25,14.52,14.52,0,0,1-3.1-.68,11,11,0,0,1-2.81-1.46,15.11,15.11,0,0,1-1.58-1.27,5.54,5.54,0,0,1-1-1.56c-.72-1.24-1.48-2.43-2.27-3.57a12.65,12.65,0,0,1-1.77-3.66,15.74,15.74,0,0,1-.59-3.85,34.78,34.78,0,0,1,.1-4.64c0-.91,0-1.82.1-2.73a14,14,0,0,1,.49-2.83c.13-.52.26-1,.39-1.37a40.58,40.58,0,0,1,1.63-5.22A16.47,16.47,0,0,1,116.11,44.15Zm-2.66,17.47q2.26-.78,4.73-1.51c1.64-.49,3.09-.9,4.34-1.22v-.1L115,60.25l-1.58.49Zm9.27-.78c-1.58.46-3.19.94-4.83,1.46s-3.12,1.05-4.44,1.57c1.51-.33,3-.72,4.59-1.18s3.1-.87,4.68-1.26Zm-9-2.93a.78.78,0,0,1,0,.3.69.69,0,0,0,0,.29l3.15-.69,5.42-1.17a9.2,9.2,0,0,1-.1-1.56c-1.31.39-2.71.83-4.18,1.32S115.06,57.39,113.75,57.91Zm3.94-3.41-3.94.78v.58Zm-3.55,11.42h-.39V66Zm.1,2.14.4.78,8.27-2.34v-.88l-1.67.39q-.8.19-1.38.3Zm1.18,2.64v.09l1-.39Zm3.65-20.89c-.33.13-.76.28-1.28.44s-1.08.31-1.68.44c0,.06-.06.16-.19.29,1-.32,2.1-.62,3.15-.88s2.13-.55,3.25-.87Zm-3,3.12c1-.19,2-.42,3-.68s2.13-.55,3.25-.88v-.29c-1,.33-2.12.63-3.2.93S117,52.61,116,52.93Zm2.36-8.19A10.72,10.72,0,0,0,116.51,47l.79-.29,2-2.15A3.25,3.25,0,0,1,118.38,44.74Zm-1.87,28a.83.83,0,0,1,.24.39,1,1,0,0,0,.25.39c1-.33,2-.64,3.1-.93s2.19-.6,3.31-.93l-.3-1.36-3.3,1.17C118.73,71.87,117.62,72.29,116.51,72.75Zm6.3-9.37A39.66,39.66,0,0,0,117.3,65c1.11-.33,2.15-.6,3.1-.83a17.52,17.52,0,0,0,1.92-.54l.49-.1Zm-5-15-.1.09A37.55,37.55,0,0,0,123,47.27a3.25,3.25,0,0,1,.4-.87c-1,.39-1.94.73-2.86,1S118.71,48,117.79,48.35Zm.59,27v.1l.69-.29Zm6.21.1a21.07,21.07,0,0,1-2.32.68,21.8,21.8,0,0,0-2.51.78h.1c.79-.26,1.57-.48,2.36-.68l2.37-.59Zm-4.34-29.87,3.84-1.56.1-.09-2.16.19h-.1Zm5,32-1.73.39-1.62.39,1.28.58c.39-.13.8-.24,1.23-.34s.84-.21,1.23-.34Zm5.51,1.27a6.92,6.92,0,0,0,1.93-3.13,14.25,14.25,0,0,0,.83-3.71c0-2.08,0-4.52-.05-7.32s-.16-5.61-.39-8.44a56.7,56.7,0,0,0-1.23-8.1,21,21,0,0,0-2.47-6.39.81.81,0,0,1-.39-.1A3.51,3.51,0,0,0,126.46,43a8.34,8.34,0,0,0-.79,2.05,18.5,18.5,0,0,0-.44,2.44c-.1.85-.17,1.61-.2,2.29s0,1.22,0,1.61c-.13,1.63-.25,3.47-.34,5.52s-.1,4.16,0,6.34.29,4.33.59,6.44a26.85,26.85,0,0,0,1.43,5.81,9.41,9.41,0,0,1,.49.93c.13.29.16.44.1.44a3.24,3.24,0,0,0,.49,1q.8,1.28,1.38,1.47Zm.69-37.39.4.69,1.28-.2a.79.79,0,0,0-.3-.09.3.3,0,0,1-.19-.1l-1.19-.39Zm1.19,2c.13.32.26.68.39,1.07.46-.13.92-.28,1.38-.44s.92-.34,1.38-.54l-.69-.58c-.39.06-.81.15-1.23.24S133.06,43.4,132.67,43.47Zm4.43,1.46-3.45,1.56v.1l3.84-1.07Zm-2.56,5.17a3,3,0,0,0,.2,1l5.12-1.17-.4-1.17ZM135,53a2.42,2.42,0,0,1,.1.78l5.52-1.56-.2-.58c-.92.26-1.82.5-2.71.73S136,52.84,135,53Zm.2,4.88v.68c1-.25,2-.5,3.05-.73s2.1-.5,3.15-.83a.75.75,0,0,0,0-.29.56.56,0,0,1,0-.29Zm0,17,1.67-.48,1.18-1.66a13.81,13.81,0,0,0-1.33.44c-.42.16-.87.31-1.33.44Zm6.3-15.51v-.3l-3.2.74a24.71,24.71,0,0,0-2.91.82v.2ZM141,64.06a1.28,1.28,0,0,0,.1-.59L135.52,65v.68c.92-.26,1.84-.54,2.76-.83S140.12,64.32,141,64.06Zm-5.42,4.29c1.12-.32,2.1-.6,3-.82s1.48-.41,1.87-.54a.87.87,0,0,1,.05-.34,1.16,1.16,0,0,0,.05-.34,22.79,22.79,0,0,0-2.51.53c-.83.23-1.63.44-2.42.64Zm4.14.79q-2.07.48-4.14,1.17v1.17l3.55-1Zm1.38-14.55a.2.2,0,0,0,0-.14.21.21,0,0,1-.05-.15l-3.74,1h.29Z"/>
        <path class="cls-1" d="M164.49,47.47a21.93,21.93,0,0,0-2.32-4.73,5.35,5.35,0,0,0-3-2.3h-.1a.57.57,0,0,1-.49.29,4.79,4.79,0,0,0-2,3.42,6.21,6.21,0,0,0,.49,3.42l.3.78a3.14,3.14,0,0,1,.69.78,7.91,7.91,0,0,1,1,2.29,3.26,3.26,0,0,1-.1,2.39,6,6,0,0,1-2.41,3,7.67,7.67,0,0,1-3.5,1.17,7.87,7.87,0,0,1-3.6-.54,5.15,5.15,0,0,1-2.61-2.14,4.31,4.31,0,0,1-.69-2.15,4.89,4.89,0,0,1,.3-1.76,14.76,14.76,0,0,1,.49-3.61,15.77,15.77,0,0,1,2.47-5.37,9.8,9.8,0,0,1,2.7-2.63,10,10,0,0,1,3.6-1.47q4.34-.67,7.74-.92a11.12,11.12,0,0,1,6.25,1.31,8.21,8.21,0,0,1,4.53,2.64,13,13,0,0,1,2.17,5.86A11,11,0,0,1,177,50a17.13,17.13,0,0,1,0,2.68,6.14,6.14,0,0,1,.1,1.37,5.91,5.91,0,0,0,.69,1.71,4.41,4.41,0,0,0,1.38,1.41,4.28,4.28,0,0,0,1.18.64c.46.16,1,.31,1.48.44a8.62,8.62,0,0,0,1.77.38,1.05,1.05,0,0,1,.59,1.23c-.13.48-.52.69-1.18.63a4,4,0,0,0-3.2.63,5.55,5.55,0,0,0-1.68,2.44,11.93,11.93,0,0,0-.64,3.32c-.06,1.21-.13,2.3-.19,3.27s0,2,0,2.88a20.92,20.92,0,0,0,.44,3.27c.06.33.11.7.15,1.12a4.89,4.89,0,0,0,.24,1.22,2.8,2.8,0,0,0,.6,1,1.5,1.5,0,0,0,1.18.44c.13.06.21.08.24.05s.12-.05.25-.05h.39a2.28,2.28,0,0,1,.35-.15,2.68,2.68,0,0,1,.64,0c.59.13.9.44.94.93a.84.84,0,0,1-.74.93q-1.68,0-2.61.09t-1.68.15q-.74,0-1.53.15c-.52.06-1.24.13-2.16.19-1.45.13-3.14.23-5.08.29a50.86,50.86,0,0,1-5.56-.09,12.23,12.23,0,0,1-2.57.34,16.75,16.75,0,0,1-3.54-.34.88.88,0,0,1-.79-.88,1.2,1.2,0,0,1,.79-1.08,3.48,3.48,0,0,1,.79-.09H159A5.75,5.75,0,0,0,163.41,77a1.6,1.6,0,0,0-.6-1,2.9,2.9,0,0,0-1.18-.35,15.93,15.93,0,0,1-6.2.35,7.8,7.8,0,0,1-4.83-2.39,4.38,4.38,0,0,1-1.78-3.81,19.07,19.07,0,0,1,.89-5.12,6.24,6.24,0,0,1,2-2.93,8.85,8.85,0,0,1,3.45-1.52q2.12-.48,5.27-.87c.53-.07,1.28-.21,2.27-.44a3.12,3.12,0,0,0,2.07-1.32,6.66,6.66,0,0,0,.49-3.32c-.07-1.5-.17-3.15-.3-5ZM149.71,46.3l2.32-.59c.75-.19,1.56-.35,2.41-.49v-.58c-.92.19-1.72.37-2.41.53s-1.33.31-1.93.44Zm6,3.9-5.91,1.47c0,.06,0,.09-.1.09a30.51,30.51,0,0,0,3.2-.53l3.2-.74Zm-4.93,5.17a4.45,4.45,0,0,0,2.76.1,4.85,4.85,0,0,0,2.07-1.17Zm4.34,11.91a1.74,1.74,0,0,1-.2-.49l-3.35.88a.4.4,0,0,0-.29.1v1l1.57-.59ZM160,62.5c.19-.07.41-.13.64-.2a2.89,2.89,0,0,1,.74-.09c.65-.26,1.31-.49,2-.69l2-.58v-.49a5.77,5.77,0,0,1-3,1.12c-1.25.17-2.53.31-3.84.44-1,.39-2,.77-3,1.12l-2.85,1a5.56,5.56,0,0,0-1,1.46c.72-.19,1.43-.4,2.12-.63l2.12-.73A9.34,9.34,0,0,1,160,62.5Zm-5.13-20a2.23,2.23,0,0,1,.3-.68,6.85,6.85,0,0,0,.39-.68,2.73,2.73,0,0,1-.78.09l-.6.29a6.37,6.37,0,0,0-2.36,1.76c.52-.13,1-.26,1.43-.39l1.33-.39Zm4.63,27.33a2.38,2.38,0,0,1-.78-.1L152.37,72l.2.29ZM156,73.24c1.44-.46,2.87-.93,4.28-1.42s2.87-1,4.39-1.42v-1l-10.45,4,.4.2Zm8.86-7.13c0-.32,0-.67.05-1s0-.7,0-1h-.1a1.74,1.74,0,0,1-.78.2,5,5,0,0,1-.89-.1,8.21,8.21,0,0,0-1,0c-.33,0-.65.08-1,.14-.53.13-1,.23-1.43.3a4.77,4.77,0,0,0-1.13.29c-1.12.78-1.68,1.46-1.68,2a2.52,2.52,0,0,0,1.48.88,14.39,14.39,0,0,0,3.64-.1l1.09-.59a2.83,2.83,0,0,0,.69-.48,3.64,3.64,0,0,1,.59-.49.53.53,0,0,0,.2,0A.45.45,0,0,1,164.88,66.11Zm-.39,13a5.09,5.09,0,0,1-1,1.07.63.63,0,0,0,.4-.09A4.54,4.54,0,0,0,164.49,79.09Zm2.86-38.16a15.7,15.7,0,0,1-1.78.29l-1.77.2.59.68Zm3.84,1c-.92.32-1.86.66-2.81,1s-1.89.73-2.81,1.12c1-.26,2-.53,3-.83s2-.6,3.1-.92Zm-4.83,3.9a.38.38,0,0,1,.1.29l6-2.05Zm.1,32.31a3.8,3.8,0,0,0-.1,1c1.45-.52,2.91-1,4.39-1.51s3-1,4.48-1.51v-.88l-.79.19c-.53.13-1.56.49-3.1,1.08S168.17,77.59,166.46,78.12Zm.1-8.69,2.95-1.17c1-.39,2-.75,3-1.08l-5.91,1.76Zm8.87-1.08-6.31,2.15-2.56,1v.78c1.44-.46,2.9-.93,4.38-1.42s3-1,4.49-1.41Zm-8.58-4.19a2.84,2.84,0,0,1,0,.58,3.9,3.9,0,0,0,0,.59c1.44-.59,2.87-1.11,4.28-1.56s2.78-.88,4.09-1.27V62c-1.63.33-3.08.67-4.33,1s-2.23.6-2.95.73Zm8.38,13.66c-1.32.39-2.71.85-4.19,1.37s-2.91,1-4.28,1.56h3.15l5.32-2Zm-8.28-30c.07.13.08.21.05.24s0,.12.05.25l7-1.66-.3-.78-.1-.1-3.45,1C169,47.19,167.94,47.53,167,47.86Zm5.91.49-3.1.73c-.95.23-1.82.47-2.61.73a.56.56,0,0,0,0,.29.78.78,0,0,1,.05.3ZM175,57.42l-3.89,1-3.89,1v1.17L175,58.11Zm-7.69-2,2.37-.88,5.22-1.66a.58.58,0,0,1,0-.29.69.69,0,0,0,.05-.29c-1.45.32-2.83.65-4.14,1s-2.43.66-3.35,1Zm.11-2.83,1.37-.39,6-1.66a2.78,2.78,0,0,0-.09-.78L171.09,51c-1.25.43-2.46.9-3.64,1.42Zm2.06,4L175,55.57v-.78Zm5.52,3-1,.39a9.54,9.54,0,0,1-1.38.39L175,60Zm2.17,20.79-.1-.1v.1Zm.1-22.25a11.57,11.57,0,0,0,0,1.17c0,.39.05.75.05,1.07a4.3,4.3,0,0,1,1.47-1.27A4.54,4.54,0,0,1,177.3,58.21Z"/>
        <path class="cls-1" d="M204.39,34.2a.28.28,0,0,1-.1-.2.7.7,0,0,0-.1-.29,5.08,5.08,0,0,0-1-2.54,3.32,3.32,0,0,0-1.58-1,5.48,5.48,0,0,0-2-.14,11.92,11.92,0,0,1-2.07,0,18.26,18.26,0,0,0-2.31.49,3.59,3.59,0,0,0-1.63.88,2.3,2.3,0,0,0-.05,3.51,4.3,4.3,0,0,0,1.83,1,3.38,3.38,0,0,0,2.26-.19l.59-.49a.94.94,0,0,0,.25-.34,1.87,1.87,0,0,1,.15-.34v-.2l-.5-.39c0,.2-.23.36-.69.49a.93.93,0,0,1-1.33-.34.8.8,0,0,1,.35-1.22,6.23,6.23,0,0,0,.79-.54,1.2,1.2,0,0,1,.79-.24,2,2,0,0,1,2.11,1,2.78,2.78,0,0,1,.1,2.3,3.92,3.92,0,0,1-2,2,6.11,6.11,0,0,1-4.09.34A2.84,2.84,0,0,1,192,36a8.22,8.22,0,0,1-.74-2.73,3,3,0,0,1,1.28-3.32,12,12,0,0,1,4.14-1.56,6.43,6.43,0,0,1,2.8-.54c1.28,0,2.61,0,4,.1s2.66.23,3.85.39a22.16,22.16,0,0,0,2.36.24c.72,0,1.45,0,2.17-.09l2.17-.2.29-.49a1.92,1.92,0,0,1,1.23-.87,8,8,0,0,1,2-.35,4.93,4.93,0,0,1,1.88.25,1.48,1.48,0,0,1,1,1,1.19,1.19,0,0,1-.3,1.08,7.33,7.33,0,0,1-1.37.88,11.28,11.28,0,0,0-1.48.87c-.14.33-.27.64-.4.93a4,4,0,0,0-.29.93l.19.29q.3,6.26.2,12c-.06,3.84-.16,7.64-.29,11.42a8.86,8.86,0,0,0,1,3.46c.56,1,1.79,1.64,3.7,1.9a1,1,0,0,1,.68,1.13c-.06.48-.42.73-1.08.73a3.94,3.94,0,0,0-3.35,1.71,7.74,7.74,0,0,0-1,3.66c0,.84,0,1.65,0,2.44s.08,1.59.14,2.44a3.66,3.66,0,0,1,.1,1.07c.26,1.3.49,2.67.69,4.1a2.37,2.37,0,0,0,2.07,1,4.8,4.8,0,0,0,1.63-.29,3.46,3.46,0,0,1,1.82-.1c.72.33.89.78.49,1.37a4.68,4.68,0,0,1-2.46,1.51,20.32,20.32,0,0,1-3.55.64.78.78,0,0,1-.64.44,1.07,1.07,0,0,1-.84-.34,31.11,31.11,0,0,1-4.28.09,29.88,29.88,0,0,0-3.3,0l-2,.3c-.46.06-.79-.2-1-.79a25.35,25.35,0,0,1,0-3,21.88,21.88,0,0,0,0-3,1.53,1.53,0,0,1-.64.25,3.68,3.68,0,0,0-.84.24,3.52,3.52,0,0,1-2.36.39,22.68,22.68,0,0,1-4.73.1,10.14,10.14,0,0,1-8.28-4.59,14.7,14.7,0,0,1-2.21-6.15,32.28,32.28,0,0,1-.3-8,29.7,29.7,0,0,1,1.63-7.66A10.14,10.14,0,0,1,191.48,46a11.25,11.25,0,0,1,4-2,36.34,36.34,0,0,1,4.49-.88,2.39,2.39,0,0,0,.44,0,2.31,2.31,0,0,1,.54-.05l.2-.1h.49q.8-.09,1.68-.15a10.12,10.12,0,0,1,1.67.05c-.06-1.1-.11-2.05-.15-2.83s0-1.43,0-1.95ZM188.13,58.3a1.72,1.72,0,0,1,0,.39,1.31,1.31,0,0,0-.05.39.62.62,0,0,0,.39-.09,1.61,1.61,0,0,1,.1-.69Zm.2,2.74a.4.4,0,0,1-.29.09v.59h.29ZM188,63.67l.39-.1a.2.2,0,0,0-.05-.14.44.44,0,0,1,0-.25l-.29.1Zm1,4.1c-.06.07-.11.08-.15,0s-.08,0-.14.05a.71.71,0,0,0,0,.29.58.58,0,0,1,0,.29.35.35,0,0,0,.2,0,.49.49,0,0,1,.2-.05Zm.89-15.32a.45.45,0,0,0-.3.09.37.37,0,0,1-.29.1v.1a.69.69,0,0,0,.29-.05.78.78,0,0,1,.3,0Zm0,17.66a.85.85,0,0,1-.4.1v.19l.4-.09Zm.39-19.91.59-.19a1.5,1.5,0,0,0,.25-.59.83.83,0,0,1,.25-.49h-.3Zm4,10.35a2.92,2.92,0,0,1,0-.54,2.47,2.47,0,0,0,.05-.44l-2.07.39c-.66.13-1.35.29-2.07.49v.88Zm-4,2.63,4-1v-.1l-4,.68ZM194.54,58v-.39L190.6,58a1.29,1.29,0,0,0-.1.58Zm-4,7.12,1.82-.39,2-.39v-.48l-3.84,1.07Zm4,1.27-3.55.88a1,1,0,0,0,.1.49c.53-.2,1.08-.39,1.68-.59s1.18-.35,1.77-.48Zm-3.45-11v.2l3.74-.2a1.55,1.55,0,0,0,.1-.68Zm.69,14.16a.45.45,0,0,0,.05.19.49.49,0,0,1,0,.2l3.05-.69a1.26,1.26,0,0,0-.1-.58ZM196,50.3c-.66.19-1.3.41-1.92.63s-1.27.48-1.93.74a.65.65,0,0,0-.19.48l3.74-.87Zm-2.66-1,3.15-.88c0-.06,0-.09.05-.09s.05,0,.05-.1l-2.76.39ZM196,73l-1.38.49a4.51,4.51,0,0,1,.54.44,2.48,2.48,0,0,0,.64.44,1.74,1.74,0,0,0,.39,0,1.83,1.83,0,0,1,.4,0l-.2-.49Zm.88-13a3,3,0,0,1,0-.54A2.89,2.89,0,0,0,197,59a1.83,1.83,0,0,1-.69.09v1.08Zm-.59,3.9a1.19,1.19,0,0,1,.49-.09v-.69a.69.69,0,0,0-.29,0,.49.49,0,0,1-.2.05Zm.79-6.54h-.59v.2Zm-.59,8.69a.37.37,0,0,0,.29-.1v-.09a.2.2,0,0,0-.14,0,.2.2,0,0,1-.15.05Zm.2-10.74h.49V54.2a.21.21,0,0,0-.15,0,.17.17,0,0,1-.15,0ZM197,68.84h.1l-.2-.88h-.1Zm.4-22.74a1.87,1.87,0,0,1-.5.2h.4A.28.28,0,0,1,197.4,46.1Zm7.68,2.64-.29-.59a3.26,3.26,0,0,0-.74-1.66,3.76,3.76,0,0,0-1.48-1.12,2.63,2.63,0,0,0-1.73-.1,2.23,2.23,0,0,0-1.38,1.32,6,6,0,0,0-.59,2.1,14.59,14.59,0,0,0,0,2.29c.07.78.13,1.58.2,2.39s.1,1.58.1,2.3a43,43,0,0,1-.35,4.44,53.31,53.31,0,0,0-.34,6.15,24.36,24.36,0,0,0,.64,5.8,4.6,4.6,0,0,0,2.41,3.42l.1.1h.89a2.53,2.53,0,0,0,1.38-1,8.42,8.42,0,0,0,1-1.66l.2-.68a4.51,4.51,0,0,0,.25-.68c.1-.33.18-.62.24-.88Zm1-17.77a8,8,0,0,0,.09,1.37c1.19-.39,2.37-.73,3.55-1s2.33-.61,3.45-.93a.29.29,0,0,1,.1-.2c-1.25.14-2.47.25-3.65.35S207.25,30.78,206.07,31Zm6.5,1.66c-1,.33-2.1.62-3.15.88s-2.11.56-3.16.88a.23.23,0,0,0,.05.15.38.38,0,0,1,.05.24l6-1.46Zm-6.11,4.1c.79-.26,1.58-.5,2.36-.73s1.58-.44,2.37-.63l-3.45.58-1.28.39Zm.2,2.15a1.31,1.31,0,0,0,.05.39,1.74,1.74,0,0,1,0,.39l.88-.19c-.06,0,0,0,.1,0a1.76,1.76,0,0,1,.49-.05.26.26,0,0,0-.19.1,5.75,5.75,0,0,0,1.08-.2h-.3l3.06-.49a.34.34,0,0,1,.05-.19.49.49,0,0,0,0-.2c-.07,0-.1-.06-.1-.19a2.33,2.33,0,0,1-.1-.88Zm.39,5v.58l2.66-.58c-.07.06-.07.1,0,.1a.93.93,0,0,0,.3-.1.2.2,0,0,0,.14,0,.25.25,0,0,1,.15-.05l-.1.1a.21.21,0,0,0,.15,0,.42.42,0,0,1,.25-.05l1.28-.2V42.49l-3,.78Zm.1,3.12,1.67-.39a2.7,2.7,0,0,1-.88,0,2.1,2.1,0,0,0-.79,0ZM212,48.64a1.74,1.74,0,0,0,0-.39,1.31,1.31,0,0,1-.05-.39L207.35,49v.68Zm3.25,29.28a1.46,1.46,0,0,0-.1-.59c-.72.13-1.41.28-2.07.44s-1.31.31-2,.44l-3.74.88v.49c1.31-.33,2.62-.62,3.94-.88Zm-7.78-26.55V52c.72-.2,1.47-.37,2.26-.54s1.54-.31,2.27-.44v-.49l-1.87.3Zm4.72,2.05v-.29l-4.72,1v.09Zm-4.63-12a1.09,1.09,0,0,0,.5-.1Zm0,14.83a2.47,2.47,0,0,0,.05.44,1.85,1.85,0,0,1,0,.44l4.73-1.46a.21.21,0,0,0-.05-.15.21.21,0,0,1,0-.15l-2.26.44C209.22,56,208.4,56.12,207.54,56.25Zm7,15.13a.82.82,0,0,0-.1-.49l-6.9,1.47v.29Zm-7,3.51v.49l7.29-1.66v-.19Zm2.76-5.17-2.66.49v.19Zm-2.46-8.78v.49l4.43-1.27Zm0,7.61,6-1.27a2.42,2.42,0,0,0-.1-.78l-5.91,1.56Zm.1-9.56,4.63-.59a1.76,1.76,0,0,0-.1-.68Zm0,4.68v.49L213.16,63a2.34,2.34,0,0,0-.1-.78Zm.88-24.4c-.13,0-.19,0-.19,0s0,0-.1,0A.7.7,0,0,0,208.82,39.27Zm6.8,41.58a3.64,3.64,0,0,1-.1-1l-6,1.37h3.35ZM214,36.73a6.25,6.25,0,0,1,0,.83,5.06,5.06,0,0,0-.05.83l1.08-.19a5.89,5.89,0,0,0-.05-.88,6.81,6.81,0,0,1,0-.78Zm1.18,6.15V41.61l-1.28.3v1.26Zm-1.28,5.37,1.18-.2V47l-1.18.29Zm.1,2.24a1.77,1.77,0,0,0,.49-.09,1.74,1.74,0,0,1,.59-.1V50L214,50.2Zm.1,2.25a.2.2,0,0,0,0,.15.2.2,0,0,1,0,.14,1.33,1.33,0,0,0,.4-.05,1.74,1.74,0,0,1,.39,0v-.39Zm.88,22.74-.69.19.69-.09ZM214.74,57l-.3.1a4.39,4.39,0,0,0,.1,1.08l.2-.1Zm0-24.3h.19l.2-.88H215ZM218,62.3a6.59,6.59,0,0,1-1.38-1.36v2.53A5.73,5.73,0,0,1,218,62.3Z"/>
        <path class="cls-1" d="M264.78,54.59c-.32.07-.6.13-.83.2l-.64.19a2.33,2.33,0,0,1-1,0l-1.18.59a2,2,0,0,0,.34,1.71,3.81,3.81,0,0,0,1.63,1l.39-.19.3-1.27c.26-.59.61-.81,1-.68a1.19,1.19,0,0,1,.84.87,5,5,0,0,1-1.53,2.74,2.22,2.22,0,0,1-2,.39,3.9,3.9,0,0,1-1.87-1.27,4.72,4.72,0,0,1-1.08-2.15,3.72,3.72,0,0,1,.19-2.24,3.28,3.28,0,0,1,2.12-1.66,8.06,8.06,0,0,1,2-.34c.66,0,1.28,0,1.88,0a21.48,21.48,0,0,0,3.35-.35c1.37-.22,2.36-.37,2.95-.43,1.77-.13,3.5-.21,5.17-.25a26.39,26.39,0,0,1,3.9.15c.59.06.9.34.93.83s-.25.8-.84.92a2.85,2.85,0,0,0-2,1.32,6.69,6.69,0,0,0-.29,2.93,5.58,5.58,0,0,1,.05.73,4.19,4.19,0,0,0,.05.73,5.74,5.74,0,0,1,.05.74.37.37,0,0,0-.1.29c-.07.45-.12.91-.15,1.37a8.43,8.43,0,0,1-.25,1.46,50.29,50.29,0,0,1-.88,5.66,29.26,29.26,0,0,1-1.09,4q-1.87,5.28-5.22,7.52a12.65,12.65,0,0,1-7.78,2.05H262a19.89,19.89,0,0,1-7.69-1.22,17.46,17.46,0,0,1-5.81-3.71,18.08,18.08,0,0,1-3.94-5.76,28.37,28.37,0,0,1-2.07-7.37,40.36,40.36,0,0,1-1-15.27,27.32,27.32,0,0,1,4.83-12.74,16.24,16.24,0,0,1,1.13-2,5.62,5.62,0,0,1,1.73-1.66,22.71,22.71,0,0,1,3.25-1.76,6.7,6.7,0,0,1,2.27-1.17l2.26-.68c1.51-.33,3-.6,4.53-.83a11.82,11.82,0,0,1,4.44.15,16.92,16.92,0,0,1,4,1.61,14.43,14.43,0,0,1,3.59,2.73,8.7,8.7,0,0,1,2.12,3.66,6.79,6.79,0,0,1-.3,4.39,3.35,3.35,0,0,1-1.18,2.34,3.94,3.94,0,0,1-2.76,1.13,7.48,7.48,0,0,1-3.3-.69,8,8,0,0,1-2.76-2,3.62,3.62,0,0,1-1-2.73.75.75,0,0,1,.2-.88l.19-.39a1.8,1.8,0,0,1,.6-.78,3.9,3.9,0,0,0-.05-2.2,6.22,6.22,0,0,0-1-1.85,4.24,4.24,0,0,0-1.58-1.27,3.57,3.57,0,0,0-1.92-.34,7.58,7.58,0,0,0-2.61,2.93,12.1,12.1,0,0,0-1.52,4.78,83.89,83.89,0,0,0-.4,9.86c.07,3.25.16,6.57.3,9.95.19,2.48.49,5,.88,7.62q.5,2.34,1,5.22a46.25,46.25,0,0,0,1.18,5.22v.1a.66.66,0,0,1,.1.29.26.26,0,0,0,.1.19v-.19a4.64,4.64,0,0,0,1.57,2.19c.53.3,1.51.22,3-.24a7,7,0,0,0,2.46-3q.19-1.56.45-3.12a18.73,18.73,0,0,0,.24-2.83,43.82,43.82,0,0,0-.39-7.37q-.5-3.47-1.28-7.17l-.3-.39-.59-.2Zm-20.09-3.31v-.49l-1.09.29v.39Zm-.3,3.9-.79.19v.2l.79-.2Zm0,2.15a.87.87,0,0,0-.34.05,1.25,1.25,0,0,1-.35,0,3.89,3.89,0,0,1,.1,1,.69.69,0,0,0,.29,0,.78.78,0,0,1,.3-.05Zm-.3-10.64a1.8,1.8,0,0,1-.09.68l1.28-.39a2,2,0,0,1,.1-.68ZM244,60.45a1.15,1.15,0,0,1,.49-.1v-.29a.28.28,0,0,1-.2.1.81.81,0,0,0-.29.09Zm.69,3.32a7.65,7.65,0,0,1-.1-1.47h-.3l.3,1.47ZM246,43.66l-1.19.3-.19.78a6.19,6.19,0,0,0,1.18-.39Zm-.3-2.15a.4.4,0,0,0-.1.3l1-.2a10.45,10.45,0,0,1,.39-1.27l-.89.2c-.06.13-.13.28-.19.44S245.74,41.32,245.67,41.51ZM246.36,55l4-.92c1.28-.3,2.58-.57,3.89-.83v-.78l-7.79,2.14a.21.21,0,0,1-.05.15A.38.38,0,0,0,246.36,55Zm8,.49c-1.31.2-2.64.41-4,.64s-2.68.5-4,.83v.87l8-2Zm-7.88,4.2V60c1.31-.32,2.64-.6,4-.83s2.71-.47,4.09-.73v-.88l-5.42,1.37Zm8.37.78-8.27,1.46.19,1.27,7.39-2,.69-.09ZM246.76,50.2a.56.56,0,0,1,0,.29.53.53,0,0,0-.05.2l7.59-1.76a.72.72,0,0,1,.05-.29.69.69,0,0,0,0-.29c-2.63.71-4.89,1.27-6.8,1.66Zm.29,14.93a1.31,1.31,0,0,0,.1.59c1.31-.33,2.61-.63,3.89-.93s2.58-.57,3.89-.83v-.87l-1.67.29Zm.39-19.42a1.31,1.31,0,0,1-.05.39,1.72,1.72,0,0,0,0,.39c1.11-.32,2.26-.65,3.44-1s2.33-.65,3.45-1V44q-1.49.48-3.21.87C249.89,45.09,248.69,45.39,247.44,45.71Zm.6-2.54a.73.73,0,0,0-.1.3.3.3,0,0,1-.1.19c1.11-.32,2.22-.66,3.3-1s2.08-.67,3-.93v-.1c-.85.2-1.8.44-2.85.73S249.15,42.92,248,43.17Zm7.29,23.62-7.49,2.54a.17.17,0,0,0,0,.15.2.2,0,0,1,.05.14l3.84-.92c1.25-.3,2.53-.57,3.84-.83Zm-7.2-30.25h.3l.59-1.08h-.1l-.59.79Zm.57,35.62c1.51-.45,2.91-.86,4.19-1.22s2.31-.63,3.1-.83v-.29l-7.49,1.85A1.74,1.74,0,0,0,248.7,72.16Zm.32-32.3a1.57,1.57,0,0,0-.25.63,4,4,0,0,1-.14.64l5.51-1.37v-1Zm7.39,33.38a2.45,2.45,0,0,1-.1-.79l-6.8,1.86.2.39Zm.1,1.36a58.58,58.58,0,0,0-6.11,1.47l.3.29c1.05-.33,2.05-.6,3-.83a27.43,27.43,0,0,0,2.81-.83ZM250.72,36l3.84-.88.3-.68-3.55.68ZM257,76.55l-4.43,1.27,1.38.88c.59-.13,1.18-.28,1.77-.44s1.18-.31,1.77-.44Zm-2.38-44.7c-.19.13-.38.26-.54.39a6.31,6.31,0,0,1-.54.39l2.27-.39a3.56,3.56,0,0,1,.68-1h-.19ZM258,80.07a.58.58,0,0,0,.39.09l.39-.29-.19-.19L257.3,80a1.16,1.16,0,0,1,.34,0A1.18,1.18,0,0,0,258,80.07Zm1.77-3.32-.2-.29v-.2C259.56,76.2,259.63,76.36,259.76,76.75ZM265.08,31l1.67-.78-1.67-.29a2.92,2.92,0,0,1-1.08.39Zm1.38,1.76c1-.26,2.1-.62,3.35-1.07a1.09,1.09,0,0,0-.49-.39,12.47,12.47,0,0,1-1.43.68c-.49.2-1,.39-1.53.59C266.43,32.54,266.46,32.6,266.46,32.73Zm.29,6.44,3.85-1.75h-.2l-3.65,1.26ZM269.12,79A8.12,8.12,0,0,0,271,77.43l.1-.19-1.63.58c-.55.2-1.1.43-1.62.68a1.76,1.76,0,0,1-.49.49Zm3.55-40.4-5,2.24c.13.13.23.2.3.2L273.06,39ZM272,54.2c-.66.13-1.28.28-1.88.44s-1.21.31-1.87.44a2.42,2.42,0,0,1,.4.88v.2l5.22-2.25Zm-3,6.15,3.3-1.17c1.09-.39,2.18-.84,3.3-1.37l-6.8,1.66.2.69Zm-.2,15.81L272,75l-3.16.78Zm3.94-41.67a.81.81,0,0,1-.14-.2.6.6,0,0,0-.25-.19,14.25,14.25,0,0,1-1.62.68,12.37,12.37,0,0,0-1.73.78h.59c.53-.19,1.05-.37,1.58-.54S272.24,34.68,272.76,34.49ZM276.31,60c-1.18.39-2.4.78-3.64,1.17S270.2,62,269,62.4v.1l7.29-1.66Zm-7.09,4.69v.58l6.8-1.76Zm.1,6.63a5.46,5.46,0,0,1-.05.73,4.38,4.38,0,0,0,0,.74c.85-.39,1.71-.77,2.56-1.12s1.71-.7,2.56-1a1.49,1.49,0,0,0,.2-.59Zm6.1-4.49V66.7l-5.91.87v.88ZM270.79,42a2.44,2.44,0,0,0,2.17-.87Zm5.13,13.67a.94.94,0,0,0-.1-.39l-1.87.78Z"/>
        <path class="cls-1" d="M301.73,47.47a21.48,21.48,0,0,0-2.32-4.73,5.35,5.35,0,0,0-3-2.3h-.1a.56.56,0,0,1-.49.29,4.79,4.79,0,0,0-2,3.42,6.21,6.21,0,0,0,.49,3.42l.3.78a3.14,3.14,0,0,1,.69.78,7.91,7.91,0,0,1,1,2.29,3.26,3.26,0,0,1-.1,2.39,6,6,0,0,1-2.41,3A7.63,7.63,0,0,1,290.3,58a7.81,7.81,0,0,1-3.59-.54,5.15,5.15,0,0,1-2.61-2.14,4.21,4.21,0,0,1-.69-2.15,4.89,4.89,0,0,1,.29-1.76,14.76,14.76,0,0,1,.49-3.61,15.77,15.77,0,0,1,2.47-5.37,9.71,9.71,0,0,1,2.71-2.63A9.88,9.88,0,0,1,293,38.29q4.34-.67,7.74-.92A11.12,11.12,0,0,1,307,38.68a8.21,8.21,0,0,1,4.53,2.64,13,13,0,0,1,2.17,5.86,11,11,0,0,1,.59,2.78,17.13,17.13,0,0,1,0,2.68,6.14,6.14,0,0,1,.1,1.37,5.91,5.91,0,0,0,.69,1.71,4.41,4.41,0,0,0,1.38,1.41,4.28,4.28,0,0,0,1.18.64c.46.16,1,.31,1.48.44a8.62,8.62,0,0,0,1.77.38,1,1,0,0,1,.59,1.23c-.13.48-.52.69-1.18.63a4,4,0,0,0-3.2.63,5.45,5.45,0,0,0-1.67,2.44,11.25,11.25,0,0,0-.64,3.32c-.07,1.21-.14,2.3-.2,3.27s0,2,0,2.88a20.92,20.92,0,0,0,.44,3.27,10.19,10.19,0,0,1,.15,1.12,4.49,4.49,0,0,0,.25,1.22,2.78,2.78,0,0,0,.59,1,1.5,1.5,0,0,0,1.18.44c.13.06.21.08.24.05s.12-.05.25-.05h.4a1.87,1.87,0,0,1,.34-.15,2.68,2.68,0,0,1,.64,0c.59.13.9.44.94.93a.84.84,0,0,1-.74.93q-1.68,0-2.61.09T315,82q-.74,0-1.53.15c-.52.06-1.24.13-2.16.19-1.45.13-3.14.23-5.08.29a50.86,50.86,0,0,1-5.56-.09,12.23,12.23,0,0,1-2.57.34,16.75,16.75,0,0,1-3.54-.34.88.88,0,0,1-.79-.88,1.2,1.2,0,0,1,.79-1.08,3.48,3.48,0,0,1,.79-.09h.88A5.75,5.75,0,0,0,300.65,77a1.64,1.64,0,0,0-.59-1,3,3,0,0,0-1.19-.35,15.93,15.93,0,0,1-6.2.35,7.8,7.8,0,0,1-4.83-2.39,4.35,4.35,0,0,1-1.77-3.81A18.73,18.73,0,0,1,287,64.7a6.24,6.24,0,0,1,2-2.93,8.85,8.85,0,0,1,3.45-1.52q2.11-.48,5.27-.87c.53-.07,1.28-.21,2.27-.44A3.12,3.12,0,0,0,302,57.62a6.66,6.66,0,0,0,.49-3.32c-.07-1.5-.17-3.15-.3-5ZM287,46.3l2.32-.59c.75-.19,1.56-.35,2.41-.49v-.58c-.92.19-1.72.37-2.41.53s-1.33.31-1.92.44Zm6,3.9-5.91,1.47c0,.06,0,.09-.1.09a30.08,30.08,0,0,0,3.2-.53l3.21-.74ZM288,55.37a4.42,4.42,0,0,0,2.75.1,4.85,4.85,0,0,0,2.07-1.17Zm4.33,11.91a1.74,1.74,0,0,1-.2-.49l-3.35.88a.4.4,0,0,0-.29.1v1l1.57-.59Zm4.83-4.78.64-.2a2.89,2.89,0,0,1,.74-.09c.65-.26,1.31-.49,2-.69l2-.58v-.49a5.77,5.77,0,0,1-3,1.12c-1.25.17-2.53.31-3.84.44-1,.39-2,.77-3,1.12l-2.86,1a5.56,5.56,0,0,0-1,1.46c.72-.19,1.43-.4,2.12-.63s1.4-.47,2.12-.73A9.34,9.34,0,0,1,297.2,62.5Zm-5.12-20a2,2,0,0,1,.29-.68c.13-.2.26-.42.4-.68a2.86,2.86,0,0,1-.79.09l-.59.29A6.4,6.4,0,0,0,289,43.27c.53-.13,1-.26,1.43-.39l1.33-.39Zm4.63,27.33a2.41,2.41,0,0,1-.79-.1L289.61,72l.2.29Zm-3.45,3.42c1.44-.46,2.87-.93,4.28-1.42s2.88-1,4.39-1.42v-1l-10.45,4,.4.2Zm8.86-7.13c0-.32,0-.67.05-1a9.21,9.21,0,0,0,.05-1h-.1a1.74,1.74,0,0,1-.78.2,5,5,0,0,1-.89-.1,8.21,8.21,0,0,0-1,0c-.32,0-.65.08-1,.14-.53.13-1,.23-1.43.3a4.9,4.9,0,0,0-1.13.29c-1.12.78-1.68,1.46-1.68,2a2.52,2.52,0,0,0,1.48.88,14.48,14.48,0,0,0,3.65-.1l1.08-.59a2.83,2.83,0,0,0,.69-.48,3.64,3.64,0,0,1,.59-.49.53.53,0,0,0,.2,0A.45.45,0,0,1,302.12,66.11Zm-.39,13a5.39,5.39,0,0,1-1,1.07.62.62,0,0,0,.39-.09A4.54,4.54,0,0,0,301.73,79.09Zm2.86-38.16a15.35,15.35,0,0,1-1.78.29l-1.77.2.59.68Zm3.84,1c-.92.32-1.86.66-2.81,1s-1.89.73-2.81,1.12c1-.26,2-.53,3-.83s2.05-.6,3.1-.92Zm-4.83,3.9a.38.38,0,0,1,.1.29l6-2.05Zm.1,32.31a3.8,3.8,0,0,0-.1,1c1.45-.52,2.91-1,4.39-1.51s3-1,4.48-1.51v-.88l-.79.19c-.53.13-1.56.49-3.1,1.08S305.41,77.59,303.7,78.12Zm.1-8.69,3-1.17c1-.39,2-.75,2.95-1.08l-5.91,1.76Zm8.87-1.08-6.31,2.15-2.56,1v.78c1.44-.46,2.91-.93,4.38-1.42s3-1,4.49-1.41Zm-8.57-4.19a3.79,3.79,0,0,1-.05.58,2.94,2.94,0,0,0-.05.59c1.44-.59,2.87-1.11,4.28-1.56s2.78-.88,4.09-1.27V62c-1.64.33-3.09.67-4.33,1s-2.24.6-3,.73Zm8.37,13.66c-1.32.39-2.71.85-4.19,1.37s-2.9,1-4.28,1.56h3.15l5.32-2Zm-8.28-30c.07.13.08.21.05.24s0,.12.05.25l7-1.66-.3-.78-.1-.1-3.45,1C306.26,47.19,305.18,47.53,304.19,47.86Zm5.91.49-3.1.73c-.95.23-1.82.47-2.61.73a.69.69,0,0,0,.05.29.78.78,0,0,1,.05.3Zm2.17,9.07-3.89,1-3.89,1v1.17l7.78-2.44Zm-7.69-2,2.37-.88,5.22-1.66a.58.58,0,0,1,.05-.29.69.69,0,0,0,0-.29c-1.45.32-2.83.65-4.14,1s-2.43.66-3.35,1Zm.11-2.83,1.38-.39,6-1.66a2.74,2.74,0,0,0-.1-.78L308.33,51c-1.25.43-2.46.9-3.64,1.42Zm2.07,4,5.51-1.07v-.78Zm5.51,3-1,.39a9.54,9.54,0,0,1-1.38.39l2.36-.49Zm2.17,20.79-.1-.1v.1Zm.1-22.25a11.57,11.57,0,0,0,0,1.17c0,.39.05.75.05,1.07a4.39,4.39,0,0,1,1.47-1.27A4.64,4.64,0,0,1,314.54,58.21Z"/>
        <path class="cls-1" d="M365.38,75.38a9.14,9.14,0,0,0,1,3,3.92,3.92,0,0,0,3.06,1.9.8.8,0,0,1,.78.88,1,1,0,0,1-.88,1,16.38,16.38,0,0,1-3.16.09c-1.11-.06-2.2-.09-3.25-.09q-2-.11-3.54-.15c-1.05,0-2.07,0-3.06,0s-2,.15-3.05.24-2.27.18-3.65.25a1.06,1.06,0,0,1-1.23-.49c-.29-.46-.18-.88.35-1.27a5.21,5.21,0,0,0,1.92-2c.49-.85,1.06-1.72,1.72-2.64a31,31,0,0,0,.69-5.27q.19-3.21.15-6.59t-.3-6.39a31.43,31.43,0,0,0-.64-4.68c-.19-.78-.39-1.82-.59-3.13a26.49,26.49,0,0,0-.84-3.8,9.42,9.42,0,0,0-1.52-3.13,2.65,2.65,0,0,0-2.56-1.07,3.29,3.29,0,0,0-2.27,1.42A12.85,12.85,0,0,0,343,46.35a23.83,23.83,0,0,0-1,3.27q-.39,1.65-.69,2.73c-.2,1-.43,1.95-.69,2.93s-.53,2.11-.79,3.41-.51,2.83-.74,4.59a61.89,61.89,0,0,0-.44,6.44,14,14,0,0,1,.2,2.29c0,.75,0,1.49.09,2.2l.6,2.34a1.19,1.19,0,0,1,.09.49,7.85,7.85,0,0,0,1.19,2.64,2.13,2.13,0,0,0,1.28.78.37.37,0,0,1,.29-.1A5.84,5.84,0,0,0,346,79.24a2.15,2.15,0,0,0,.49-2.69c-.33-.71-.74-1.07-1.23-1.07H344a.4.4,0,0,0-.4.34,1.59,1.59,0,0,0-.05.64.49.49,0,0,0,.3.39.7.7,0,0,0,.64-.2.9.9,0,0,1,1.28.34.87.87,0,0,1-.29,1.32q-1.78,1.08-2.76.24a2.61,2.61,0,0,1-1-2.09,3.32,3.32,0,0,1,.94-2.3c.62-.68,1.62-.83,3-.44a2.84,2.84,0,0,1,1.48.69,4,4,0,0,1,1,1.17,5.09,5.09,0,0,1-3.85,6.83,2.71,2.71,0,0,1-.79.1,3.19,3.19,0,0,1-.88.09,41.43,41.43,0,0,1-8,0c-2.66-.25-5.4-.45-8.23-.58a3.74,3.74,0,0,1-2.07.19,10.55,10.55,0,0,0-2.07-.19h-.29a1,1,0,0,1-.79-.88c-.07-.45.16-.75.69-.88a16.27,16.27,0,0,1,2.46,0h1.19a3.16,3.16,0,0,0,1.37-1.76c0-1.69,0-3.47,0-5.36s0-3.91.14-6V66.5c-.13-1.43-.62-2.28-1.47-2.54a11.25,11.25,0,0,0-3.55-.29c-.53-.13-.82-.39-.89-.78a1.19,1.19,0,0,1,.4-1.07,11.8,11.8,0,0,0,1.72-1.08A7.35,7.35,0,0,0,324.83,59a10,10,0,0,0,1.29-2.58,13.43,13.43,0,0,0,.64-3.71q-.3-4.1-.3-8c-.33-1.43-.62-2.61-.89-3.52-.92-1-2.59-1.43-5-1.36a1.26,1.26,0,0,1-1-.83c-.13-.41,0-.78.5-1.13l3.4-.34c1-.1,1.82-.16,2.61-.19s1.56,0,2.31,0,1.63.05,2.61.05c.53,0,1,0,1.43,0s.87,0,1.33,0a13.85,13.85,0,0,0,1.82-.09c.43-.07,1-.13,1.73-.2v-.1c.85-.19,1.18-.19,1,0h.2a1,1,0,0,1,1.08.77,1.11,1.11,0,0,1-.59,1.28.09.09,0,0,0-.1.1h-.39a8.11,8.11,0,0,0-.15,1.07c0,.39-.05.75-.05,1.08a5.56,5.56,0,0,1,.2,1.07,4.89,4.89,0,0,0-.1,1.17,8,8,0,0,1,1.38-1.07A19.52,19.52,0,0,1,344.83,40a18,18,0,0,1,7.05-.48,11.6,11.6,0,0,1,1.77.43,12.66,12.66,0,0,1,2.17.93,14.62,14.62,0,0,1,2,1.32,6.25,6.25,0,0,1,1.43,1.51,10.27,10.27,0,0,1,2.51-2,12.83,12.83,0,0,1,2.71-1.12A17.69,17.69,0,0,1,371.68,39h.5l.09.1A16.86,16.86,0,0,1,378,40.49a21.94,21.94,0,0,1,5.12,3.17A14.94,14.94,0,0,1,387.3,50a29,29,0,0,1,1.53,8.34,18.26,18.26,0,0,1,.14,4c-.1,1.27-.31,3-.64,5.32-.06,1.24-.13,2.56-.19,4a25.57,25.57,0,0,0,.09,4,10.73,10.73,0,0,0,.84,3.27,3.39,3.39,0,0,0,2.12,1.9,2.94,2.94,0,0,0,.59-.05,4,4,0,0,1,.59,0,1.15,1.15,0,0,1,1.09.54.7.7,0,0,1-.2,1.12l-.4.2a1.76,1.76,0,0,1-.68.1h-.4q-2.56.09-4.83,0l-4.48-.2c-1.48-.06-3-.11-4.43-.14a44.25,44.25,0,0,0-4.68.14.86.86,0,0,1-1-.29,1.46,1.46,0,0,1-.14-1.27,2.07,2.07,0,0,1,1-.49,9.35,9.35,0,0,0,1.13-.1,2.28,2.28,0,0,0,1.48-1.41,12.15,12.15,0,0,0,.89-2.49c.06-1.69.14-3.24.24-4.63s.22-3.18.35-5.32a59.26,59.26,0,0,0-.15-10.45A51.26,51.26,0,0,0,375,45.42a5.66,5.66,0,0,0-.84-1.51,4.19,4.19,0,0,0-1.28-1.17,2.63,2.63,0,0,0-1.67-.35,3.29,3.29,0,0,0-1.82.88l-.3.39a11.76,11.76,0,0,0-1.62,3.52,46.44,46.44,0,0,0-1.29,5,50.75,50.75,0,0,0-.78,5.22c-.17,1.7-.25,3-.25,3.91-.13,1.69-.2,3.51-.2,5.46s.07,3.88.2,5.76c0,.07,0,.1.05.1s0,0,0,.1v.68a5.89,5.89,0,0,0,.05.88,7.61,7.61,0,0,1,.05.88ZM327.05,63c0-.59,0-1.17.05-1.76a10.36,10.36,0,0,0-.05-1.76,6.67,6.67,0,0,1-2.26,2.44A6.68,6.68,0,0,1,327.05,63Zm1.28-23.33a3.16,3.16,0,0,0-.1.88l.6-.2,6.6-.87h-5.62a2.21,2.21,0,0,1-.79.09A1.61,1.61,0,0,1,328.33,39.66Zm6.7,39a28.14,28.14,0,0,0-3.3.59l-3.3.78a.26.26,0,0,0-.1.19h.94a5.27,5.27,0,0,1,.93.1,24.76,24.76,0,0,1,2.37-.83C333.36,79.3,334.18,79,335,78.7Zm0-37-3.3.59q-1.62.29-3.3.48a3.92,3.92,0,0,0,.05.59,3.81,3.81,0,0,1,0,.59,10.57,10.57,0,0,0,2.27-.59Zm-4.63,5.95-.89.2a3.47,3.47,0,0,1-.78.1v.29c.32-.13.69-.26,1.08-.39A1.54,1.54,0,0,0,330.4,47.66Zm5.42.1c-1.23.33-2.43.67-3.59,1s-2.27.73-3.31,1.12v.58A25.73,25.73,0,0,0,331.5,50c.87-.23,1.86-.51,3-.83l1.36-.29Zm.69,28.7a7.72,7.72,0,0,1-.1-1.47c-.91.26-2,.54-3.3.83a34.93,34.93,0,0,0-3.89,1.12,2.09,2.09,0,0,1-.1.69c1.23-.26,2.45-.51,3.65-.74A27.57,27.57,0,0,1,336.51,76.46Zm-.1-3.32a24.6,24.6,0,0,0-3.59.68c-1.22.33-2.42.62-3.6.88v.19c1.18-.32,2.4-.6,3.64-.83s2.43-.47,3.55-.73Zm-7.09-16.69,2.66-.88a6.68,6.68,0,0,1-1.33.24l-1.33.15Zm6.4,0c-1.16.32-2.28.67-3.35,1s-2.05.7-2.95,1c1-.13,1.94-.29,2.91-.49s2.1-.46,3.39-.78Zm-6.21,13.17a2.39,2.39,0,0,1,0,.44,1.85,1.85,0,0,0-.05.44,28.92,28.92,0,0,1,3.4-1c1.16-.26,2.33-.56,3.49-.88l.1-.39-4.24.78Zm6.61-25.27a2.39,2.39,0,0,1,0-.44,1.8,1.8,0,0,0,0-.44l-4.63,1.66-2.07.68c1.12-.2,2.22-.42,3.31-.68Zm-6.61,16.1.6-.2-.6.1Zm6.31.29-3.06.78c-1,.26-2.08.59-3.25,1l6.31-1.37Zm.2,2.54-1.75.19a13.44,13.44,0,0,0-1.65.3l-3.11.78v1c1-.32,2.11-.63,3.21-.92s2.2-.6,3.3-.93Zm.39,3a2.47,2.47,0,0,0-.05-.44,2.58,2.58,0,0,1-.05-.44l-2.46.73a21.38,21.38,0,0,0-2.36.83l-2,.58v.1l2.17-.58ZM331,53.62l2-.44q1.08-.24,2.76-.54v-.1A47.25,47.25,0,0,0,331,53.62Zm5.32,16.59A17.37,17.37,0,0,0,334,71c-.83.36-1.74.7-2.7,1l2.56-.53c.8-.16,1.63-.31,2.46-.44Zm-.49,10.34a7,7,0,0,1,1.18-.39v-.09a.56.56,0,0,0-.29.05.51.51,0,0,1-.2,0Zm5-34.06-2.75.78v1.17l2.07-.29Zm-2.75,5.86.88-.1a1.19,1.19,0,0,1,.1-.49l-1,.3Zm0,3.71a.3.3,0,0,1,.09-.2h-.09Zm5.22-13.67q-.49.3-1,.54c-.33.16-.65.34-1,.54l1.18-.2Zm7-.78a3.34,3.34,0,0,0,1-.1L350,41.32Zm1.48,1.86c.07,0,.1,0,.1.09l1.28-.39ZM363,76.65l-9.85,2.54-.59,1.17h.69a41.65,41.65,0,0,1,4.33-1.51Q360.35,78,363,77ZM353.06,46.4a11.3,11.3,0,0,1,.4,1.26c.59-.26,1.19-.5,1.82-.73s1.26-.44,1.92-.63l.39-.69Zm9.85,28.3a.56.56,0,0,0-.05-.29.8.8,0,0,1,0-.3c-.93.26-2.17.65-3.75,1.17l-4.92,1.66a.55.55,0,0,0-.1.39c1.51-.52,3-1,4.38-1.46s2.51-.78,3.3-1Zm-8.47-21.86a.2.2,0,0,0,.05.14.25.25,0,0,1,.05.15v.19a1.16,1.16,0,0,1,.49-.09,1.31,1.31,0,0,1,.1-.59A1.6,1.6,0,0,1,354.44,52.84Zm.3,21.27a.78.78,0,0,1-.05.3.56.56,0,0,0-.05.29q2.46-.89,4.63-1.51l3.45-1a58.85,58.85,0,0,0-6.51,1.47Zm8-5.07a1.7,1.7,0,0,1-.5.19c-1.11.39-2.26.75-3.44,1.08s-2.37.68-3.55,1.07v.49c1-.33,2.23-.65,3.55-1l3.94-1Zm-7.29.19,7.09-2.14-7,1.26a1.2,1.2,0,0,1,0,.35.87.87,0,0,0-.05.34Zm7.39-5.56-7.1,1.76v.09l7.1-1.36Zm0-2.44a.71.71,0,0,1,0-.29.6.6,0,0,0,.05-.3c-1.24.33-2.46.61-3.64.83s-2.33.51-3.45.83v.79Zm.29-4.49a5.58,5.58,0,0,1,.05-.73,5.58,5.58,0,0,0,0-.73c-1.18.39-2.36.79-3.55,1.22s-2.33.86-3.45,1.31a.17.17,0,0,1,0,.15.44.44,0,0,0,0,.25c1.11-.2,2.26-.41,3.44-.64S361.93,57.07,363.11,56.74Zm-6.6-1.37a13.81,13.81,0,0,0,1.33-.44c.43-.16.87-.34,1.33-.53a10,10,0,0,1-1.33.29l-1.33.2Zm.39-2.53c1.12-.2,2.25-.43,3.4-.69l3.5-.78.3-1.17-1.19.2c-.85.26-1.77.52-2.75.78s-2,.55-3.06.88Zm6.21,25.86c-.79.26-1.56.51-2.31.73s-1.53.51-2.32.83h1.77l2.86-.88ZM359,47.86c1-.2,2.09-.42,3.11-.68s2-.49,3-.69l.3-.58-6.31,1.75c0,.07,0,.1-.05.1S359,47.79,359,47.86Zm5.62-5.37,3.45-.58a2.27,2.27,0,0,1,.49-.54,5.88,5.88,0,0,0,.49-.44c-.52.13-1,.24-1.57.34a9.07,9.07,0,0,0-1.58.44ZM376.51,44a.57.57,0,0,1,.2.39l1.67-.59Zm1.08,2.34a.37.37,0,0,1,.1.29l3.94-.88-.29-.49c-.59.2-1.2.38-1.82.54S378.25,46.1,377.59,46.3Zm4.73,1.17c-.59.13-1.25.29-2,.49s-1.44.36-2.17.48c0,.07,0,.1.05.1s0,0,0,.1l4-1.07Zm4,30.74c-.06-.19-.13-.37-.19-.53a1.14,1.14,0,0,1-.1-.44l-1.68.44a10.62,10.62,0,0,0-1.28.39l-1.67.58-2.76.93a.38.38,0,0,1-.05.24.2.2,0,0,0-.05.15c1.51-.33,3-.67,4.38-1S385.51,78.34,386.36,78.21Zm-7.29-25.86a1.92,1.92,0,0,0,.1.78l4.24-1.27v-.19Zm.3,24.69a.44.44,0,0,1-.05.25s-.05.11-.05.24l6.3-1.76Zm0-21.57c.79-.13,1.56-.24,2.31-.34s1.5-.21,2.22-.34a3.52,3.52,0,0,0,0-.49,3.38,3.38,0,0,1-.05-.49c-.66.13-1.36.31-2.12.54s-1.52.47-2.31.73Zm6,13a2.74,2.74,0,0,0-.1-.78c-1,.26-2.07.51-3.06.73a28.48,28.48,0,0,0-2.85.83v.59Zm-6,3.52c1.05-.33,2.08-.6,3.1-.83s2-.47,3.1-.74V70c-1.11.2-2.18.41-3.2.64s-2,.44-3,.63Zm5.81-6.35-5.71,1.08v.48a22.32,22.32,0,0,1,2.8-.78c1-.19,1.92-.42,2.91-.68Zm.69,7.22a2.34,2.34,0,0,1-.1-.78l-2.46.74c-.79.22-1.51.4-2.17.53H381l-1.57.49v1a11.45,11.45,0,0,1,1.33-.3l1.23-.19,3.74-.39A4.44,4.44,0,0,1,385.87,72.84Zm-6.31-14.73,2.22-.59c.76-.19,1.49-.42,2.22-.68l-4.44.58Zm.1,3.9a2.94,2.94,0,0,1-.05.59,3.79,3.79,0,0,0-.05.58l5.13-1.66v-.09Zm0-1.95,4.83-.59a2.82,2.82,0,0,0-.1-.88c-.66.14-1.38.31-2.17.54l-2.56.73Zm1.48-10.25,1.77-.19v-.3l-2.06.49Zm2.17,30.74a7.61,7.61,0,0,1,.88,0,6.11,6.11,0,0,0,.89.05l1.28-.39a1.48,1.48,0,0,0,.59-.19Zm2.46-26a1.49,1.49,0,0,1,.59-.09c-.06-.26-.13-.49-.19-.69s-.14-.39-.2-.58a.63.63,0,0,0-.4.09Zm.69,4.69H387a3.6,3.6,0,0,0-.05-.69,4.4,4.4,0,0,1,0-.68l-.39.1h-.2Z"/>
        <path class="cls-1" d="M419.17,65.72a3.24,3.24,0,0,1,1.77.88A4.79,4.79,0,0,1,422,68.35a6.42,6.42,0,0,1,.88,2.74,3.18,3.18,0,0,1-.69,2.34,14.81,14.81,0,0,1-1.57,3.95,10.37,10.37,0,0,1-3.25,3.37,4.88,4.88,0,0,1-1.28.88.09.09,0,0,1-.1.1,7.87,7.87,0,0,1-1,.39,11.62,11.62,0,0,1-5.42.68c-1.24-.13-2.59-.34-4-.63a8.75,8.75,0,0,1-3.74-1.71,12.31,12.31,0,0,1-2.66-3.22,20.12,20.12,0,0,1-3.74-6.15,30.83,30.83,0,0,1-1.88-7.42l-.09-.1c-.53-.13-.76-.44-.69-.92a1,1,0,0,1,.69-.93,31.62,31.62,0,0,1,.19-7,30.35,30.35,0,0,1,1.28-4.78,18.11,18.11,0,0,1,2.76-6A16.63,16.63,0,0,1,402,39.61a14.2,14.2,0,0,1,5.22-2.15,13.08,13.08,0,0,1,5.57.15.45.45,0,0,1,.19,0,.78.78,0,0,0,.3.05.3.3,0,0,0,.2.1l1.28.48a15.12,15.12,0,0,1,4,2.74A16.08,16.08,0,0,1,422,45.52a22.27,22.27,0,0,1,1.82,4.63,15.08,15.08,0,0,1,.54,4.64c.26.72.63,1.11,1.09,1.17h.78a.7.7,0,0,1,.69.54,3,3,0,0,1,.2,1c0,1-.26,1.63-.79,1.76-2.95.65-6,1.2-9,1.66s-6.13.88-9.21,1.27a3.88,3.88,0,0,0-2.76,3.71l.15.78a3.08,3.08,0,0,1,0,.48c.07.66.22,1.61.45,2.88s.52,2.59.88,4a37.83,37.83,0,0,0,1.19,3.75,5,5,0,0,0,1.43,2.3,1.14,1.14,0,0,0,1.72-.49,8.16,8.16,0,0,0,.94-2.78,33.13,33.13,0,0,0,.39-3.66,26.81,26.81,0,0,0,0-3.13,3.58,3.58,0,0,1,0-2.05A3,3,0,0,1,414,66.31l.1-.1a4.41,4.41,0,0,1,2.71-1.08A5,5,0,0,1,419.17,65.72ZM395.23,58.5v.39h.2Zm.49,2.63a1.15,1.15,0,0,0-.49.1v.29l.59-.29Zm.2,2.54-.2.1h.3v-.1Zm.39,3a4.94,4.94,0,0,1-.1-1.08.82.82,0,0,0-.49.1,5.41,5.41,0,0,0,.2,1.17l.29-.19Zm.2,2h-.1a.26.26,0,0,0,.1.19Zm6.4-17.18-3.2,1-3.2,1v.78l6.4-1.66Zm-6.1,6.44a.8.8,0,0,0,0,.3.56.56,0,0,1,0,.29c1.32-.33,2.52-.67,3.6-1s1.86-.6,2.32-.73H403a1.31,1.31,0,0,0-.05-.39,1.74,1.74,0,0,1,0-.39C400.68,56.61,398.64,57.26,396.81,57.91Zm6.3-9.47a6.2,6.2,0,0,1,.05-.82,5.74,5.74,0,0,0,0-.74L400,48.4c-1,.48-2,1-2.86,1.41a25,25,0,0,0,2.86-.58C400.94,49,402,48.71,403.11,48.44ZM398.18,65a3.16,3.16,0,0,0,.1.88l5.13-2a.38.38,0,0,0-.05-.24.17.17,0,0,1-.05-.15c-.92.26-1.81.52-2.66.78S399,64.84,398.18,65Zm5.52,1.75a3.55,3.55,0,0,1-.1-1l-1.92.68-1.33.49-2,.88a.2.2,0,0,0,.05.14.44.44,0,0,1,.05.25l1.68-.59Zm-4.63,5.37a1.11,1.11,0,0,0,.05.34,1.16,1.16,0,0,1,.05.34c.85-.25,1.68-.52,2.46-.78s1.61-.48,2.47-.68a2.8,2.8,0,0,1-.2-.88V70q-1.29.49-2.46,1.08C400.65,71.48,399.86,71.84,399.07,72.16Zm.69,2.64a.37.37,0,0,1,.1.29c.72-.26,1.46-.5,2.22-.73a19.61,19.61,0,0,0,2.21-.83Zm4.14-31.33a4.84,4.84,0,0,1,.25-.88,6.59,6.59,0,0,1,.34-.78,9,9,0,0,0-1.23.53c-.43.23-.87.44-1.33.64l-1.38,1.27Zm-3.25,18.15,1.28-.15a6.62,6.62,0,0,0,1.28-.24v-.68c-.46.19-.9.37-1.33.53S401,61.43,400.65,61.62Zm.79,15.62,4.23-1.17L405.38,75c-.73.26-1.5.51-2.32.73a22.85,22.85,0,0,0-2.41.83c0,.07,0,.1.1.1ZM404.49,79c.33-.19.66-.37,1-.53s.65-.34,1-.54h-.1l-1.33.39-1.33.39Zm4.73-39.33A3,3,0,0,0,407,41.32a13.16,13.16,0,0,0-1.33,3.81A33.64,33.64,0,0,0,405,50.3c-.1,1.89-.15,3.74-.15,5.56a3.26,3.26,0,0,0,1.58,1.61c.72.36,1.18.57,1.38.64l4.63-.59a3.22,3.22,0,0,0,2.07-1.76,1.8,1.8,0,0,1,0-1.17,23,23,0,0,1-.05-2.49c0-.48.05-1,.05-1.51a9,9,0,0,0-.3-1.46c-.13-.46-.26-.88-.39-1.27a18.29,18.29,0,0,1-.79-2c-.33-.94-.69-1.89-1.08-2.83a14.54,14.54,0,0,0-1.28-2.44C410.24,39.9,409.74,39.6,409.22,39.66ZM405,60.16a1.74,1.74,0,0,0,0,.39,1.74,1.74,0,0,1,.05.39c.72-.13,1.43-.25,2.12-.34a16,16,0,0,0,1.82-.35l2.56-1.07q-1.66.3-3.3.54C407.2,59.88,406.1,60,405,60.16Zm2.37,19.52c-.07,0-.17.06-.3.19a.78.78,0,0,1,.3,0,.69.69,0,0,0,.29,0Zm5-39.43a2,2,0,0,1,.35.48,1.84,1.84,0,0,0,.34.49l1.58-.78L413.36,40Zm1.78,36.89a3.29,3.29,0,0,1-.2.78c.85-.33,1.69-.6,2.51-.83s1.63-.47,2.41-.73l.1-.1Zm0-34.16a.28.28,0,0,0,.09.19l3.26-.78-.89-.68-1.23.59A8.18,8.18,0,0,0,414.15,43Zm6.79,26.74a4.2,4.2,0,0,0-.49-.88c-1,.2-2,.41-2.95.64s-2,.5-3.06.83l.3.29c1-.13,2-.28,3.05-.44S419.89,69.85,420.94,69.72ZM417,74.41l-2.46.78v.19l3.94-.68Zm-1.67-6.54a1,1,0,0,1-.4.09l-.29.3,3.45-.88a.4.4,0,0,1-.25,0,.4.4,0,0,0-.25,0H417A2.27,2.27,0,0,0,415.33,67.87Zm3.45-24c-.73.19-1.4.39-2,.58s-1.2.36-1.73.49l.3.68q1-.28,1.92-.63l1.92-.73-.3-.39ZM419,46.4a12.8,12.8,0,0,0-1.52.48,11.84,11.84,0,0,1-1.53.49v.2ZM421.44,49l-4.73,2.25.1.09,2.41-.58c.82-.2,1.66-.43,2.51-.69ZM417,56.25v.59h.59l4.73-2V54.3l-4.53,1.56Zm2.86,15.52a6.66,6.66,0,0,1-1.38.24q-.69.06-1.38.15l.59.2Z"/>
      </g>
    </g>
  </g>
</svg>
