<svg xmlns="http://www.w3.org/2000/svg" width="950" height="560" viewBox="0 0 950 560">
  <defs>
    <style>
      .cls-1, .cls-5 {
        fill: #8e8e85;
      }

      .cls-2 {
        fill: #cfcfc0;
      }

      .cls-3 {
        fill: #f7b626;
      }

      .cls-4 {
        fill: #ffc201;
      }

      .cls-5 {
        opacity: 0.51;
      }

      .cls-6 {
        fill: #f9dfa6;
      }

      .cls-7 {
        fill: #ccb68b;
      }
    </style>
  </defs>
  <g id="logo">
    <g>
      <g>
        <path class="cls-1" d="M749.3,502.22c-5.33,12.85-19.5,23-31.67,23H353.79c1,3.16,2,6.32,3,9.48l361.7-.32c12.28,0,26.56-10.59,31.92-24l44.64-111.44c0-.1.06-.19.1-.28-1.12.42-2.24.82-3.37,1.18Z"/>
        <path class="cls-2" d="M717.8,377.57c-.31-.35-.59-.73-.88-1.11-14.59-15.14-36.34-16.1-51.79-2.87-.37.54-.77,1.06-1.19,1.57-29.24,34.58-77.51,35.21-107.6,1.41-.31-.35-.6-.73-.89-1.1a38.09,38.09,0,0,0-26.18-11.86h-1a37.46,37.46,0,0,0-25.93,10.62,19.88,19.88,0,0,1-2.35,3.41c-29.49,34.31-77.76,34.49-107.61.41-.31-.35-.59-.73-.88-1.11-14.56-15.11-36.26-16.09-51.71-2.93-4.52,56.63-.39,104.31,14,151.18H717.63c12.17,0,26.34-10.12,31.67-23l42.52-102.4C766.37,407.92,737.91,400.53,717.8,377.57Z"/>
        <path class="cls-3" d="M412,275.44c-6.34,18.2-30.77,18.67-38.44,11.08a15.14,15.14,0,0,1-3.52-6.14,136.34,136.34,0,0,0-23.11,46.15c24.73-6.5,51.78,1.36,71,23.58.23.27.44.56.66.84a39.53,39.53,0,0,0,16.58,10.36h21.58a38.78,38.78,0,0,0,15.05-8.89,20.52,20.52,0,0,1,2.3-3.35c29.43-34.38,77.7-34.68,107.61-.68.23.27.44.55.66.83,14.74,15,36.5,15.63,51.8,2.22a20.68,20.68,0,0,1,1.59-2.13c29.66-34.1,77.94-34,107.61.32.23.27.44.56.66.84a39.25,39.25,0,0,0,18.3,10.84h17.36c.26,0,.5,0,.75.05A39,39,0,0,0,799.13,350c-40.77-73.37-166.07-126.82-314.41-126.82-5.9,0-11.75.11-17.58.28a194.7,194.7,0,0,0-40.35,13C420.08,253.94,422.49,245.34,412,275.44ZM551,232c8,4.47,17.61,7.63,38.95,16,18,7,18.32,31,10.64,38.56s-32.1,7.12-38.44-11.08c-10.68-30.67-8-21.14-15.17-40A2.84,2.84,0,0,1,551,232Zm-83.32,40.3c14.14-29.24,9.31-20.59,17.54-39a2.84,2.84,0,0,1,5.32.37c2.51,8.82,7.05,17.84,16.24,38.84,7.72,17.67-9,34.86-19.75,34.79S459.26,289.63,467.65,272.27Z"/>
        <path class="cls-3" d="M456.77,361.31H435.19A36,36,0,0,0,456.77,361.31Z"/>
        <path class="cls-3" d="M780.46,361.36c-.25,0-.49-.05-.75-.05H762.35A36,36,0,0,0,780.46,361.36Z"/>
        <path class="cls-4" d="M741.17,356.81c-29.34-34.56-77.61-35.18-107.6-1.36a19.28,19.28,0,0,0-1.61,2.11,41.42,41.42,0,0,1-5.18,3.75h119a42.45,42.45,0,0,1-4-3.65C741.6,357.38,741.4,357.09,741.17,356.81Z"/>
        <path class="cls-4" d="M580.18,354.83c-.21-.28-.42-.56-.65-.84-29.58-34.29-77.85-34.45-107.61-.36a20.17,20.17,0,0,0-2.34,3.33,41.67,41.67,0,0,1-5.64,4.35H588.25A41,41,0,0,1,580.18,354.83Z"/>
        <path class="cls-4" d="M825.26,348.54a16.47,16.47,0,0,0-12.4-5.88,15.86,15.86,0,0,0-9.51,3.24,17.87,17.87,0,0,0-2.92,2.74c-.42.48-.87.9-1.3,1.36.68,1.23,1.4,2.44,2,3.68a18.59,18.59,0,0,0-2.95,2.7,41.57,41.57,0,0,1-8.83,7.61,15.5,15.5,0,0,1,5.3,6.11c4.56,6.49,5.07,17,.51,28.54a71.79,71.79,0,0,0,20.31-11.8,79.17,79.17,0,0,0,9.91-9.68C832.22,369.23,832.16,356.42,825.26,348.54Z"/>
        <path class="cls-4" d="M340.91,361.31h83.2a41.23,41.23,0,0,1-7.72-6.35c-.21-.28-.42-.57-.65-.84-18.72-22.06-45.14-30.27-69.61-24.56a157.7,157.7,0,0,0-4.22,22.38Q341.37,356.67,340.91,361.31Z"/>
        <path class="cls-4" d="M794.68,370.1c3.17,6.32,3.08,15.41-1,25.29l-1.83,4.43c1.13-.36,2.25-.76,3.37-1.18C799.75,387.08,799.24,376.59,794.68,370.1Z"/>
        <path class="cls-4" d="M424.11,361.31h-83.2c-.09.83-.16,1.64-.24,2.47l87.69-.08A38.93,38.93,0,0,1,424.11,361.31Z"/>
        <path class="cls-4" d="M622.71,363.52l125.88-.11c-1-.65-1.87-1.36-2.78-2.1h-119A37.5,37.5,0,0,1,622.71,363.52Z"/>
        <path class="cls-4" d="M463.94,361.31a40.11,40.11,0,0,1-4.23,2.36l68.54-.06h1l63.13-.06a37.92,37.92,0,0,1-4.15-2.24Z"/>
        <path class="cls-4" d="M794.68,370.1a15.5,15.5,0,0,0-5.3-6.11c-.41.27-.83.54-1.25.79A15.24,15.24,0,0,1,794.68,370.1Z"/>
        <path class="cls-4" d="M788.13,364.78a36.39,36.39,0,0,1-39.54-1.37l-125.88.11a36.08,36.08,0,0,1-30.31,0l-63.13.06a38.09,38.09,0,0,1,26.18,11.86c.29.37.58.75.89,1.1,30.09,33.8,78.36,33.17,107.6-1.41.42-.51.82-1,1.19-1.57,15.45-13.23,37.2-12.27,51.79,2.87.29.38.57.76.88,1.11,20.11,23,48.57,30.35,74,22.25l1.83-4.43c4.11-9.88,4.2-19,1-25.29A15.24,15.24,0,0,0,788.13,364.78Z"/>
        <path class="cls-4" d="M428.36,363.7l-87.69.08c-.33,3.44-.62,6.85-.9,10.23,15.45-13.16,37.15-12.18,51.71,2.93.29.38.57.76.88,1.11,29.85,34.08,78.12,33.9,107.61-.41a19.88,19.88,0,0,0,2.35-3.41,37.46,37.46,0,0,1,25.93-10.62l-68.54.06A36.16,36.16,0,0,1,428.36,363.7Z"/>
        <path class="cls-4" d="M469.58,357a20.17,20.17,0,0,1,2.34-3.33c29.76-34.09,78-33.93,107.61.36.23.28.44.56.65.84a41,41,0,0,0,8.07,6.48h38.53a41.42,41.42,0,0,0,5.18-3.75,19.28,19.28,0,0,1,1.61-2.11c30-33.82,78.26-33.2,107.6,1.36.23.28.43.57.65.85a42.45,42.45,0,0,0,4,3.65h16.54a39.25,39.25,0,0,1-18.3-10.84c-.22-.28-.43-.57-.66-.84-29.67-34.28-77.95-34.42-107.61-.32a20.68,20.68,0,0,0-1.59,2.13c-15.3,13.41-37.06,12.74-51.8-2.22-.22-.28-.43-.56-.66-.83-29.91-34-78.18-33.7-107.61.68a20.52,20.52,0,0,0-2.3,3.35,38.78,38.78,0,0,1-15.05,8.89h7.17A41.67,41.67,0,0,0,469.58,357Z"/>
        <path class="cls-4" d="M415.74,354.12c.23.27.44.56.65.84a41.23,41.23,0,0,0,7.72,6.35h11.08A39.53,39.53,0,0,1,418.61,351c-.22-.28-.43-.57-.66-.84-19.23-22.22-46.28-30.08-71-23.58-.29,1-.54,2-.81,3C370.6,323.85,397,332.06,415.74,354.12Z"/>
        <path class="cls-4" d="M789.38,364a41.57,41.57,0,0,0,8.83-7.61,18.59,18.59,0,0,1,2.95-2.7c-.63-1.24-1.35-2.45-2-3.68a39,39,0,0,1-18.67,11.36A17.05,17.05,0,0,1,789.38,364Z"/>
        <path class="cls-4" d="M588.25,361.31a37.92,37.92,0,0,0,4.15,2.24l30.31,0a37.5,37.5,0,0,0,4.07-2.21Z"/>
        <path class="cls-4" d="M762.35,361.31H745.81c.91.74,1.83,1.45,2.78,2.1l32.41,0a18,18,0,0,1,7.13,1.4c.42-.25.84-.52,1.25-.79a17.05,17.05,0,0,0-8.92-2.63A36,36,0,0,1,762.35,361.31Z"/>
        <path class="cls-4" d="M428.36,363.7l31.35,0a40.11,40.11,0,0,0,4.23-2.36h-7.17a36,36,0,0,1-21.58,0H424.11A38.93,38.93,0,0,0,428.36,363.7Z"/>
        <path class="cls-4" d="M459.71,363.67l-31.35,0A36.16,36.16,0,0,0,459.71,363.67Z"/>
        <path class="cls-4" d="M788.13,364.78a18,18,0,0,0-7.13-1.4l-32.41,0A36.39,36.39,0,0,0,788.13,364.78Z"/>
        <path class="cls-4" d="M622.71,363.52l-30.31,0A36.08,36.08,0,0,0,622.71,363.52Z"/>
        <path class="cls-1" d="M256.5,525.19c-12.18,0-26.34-10.12-31.68-23L180.47,395.39c-3.38-8.13-4.05-15.73-2.42-21.69a43.26,43.26,0,0,0-4.13,4.11c-1.33,6.06-.56,13.61,2.68,21.66l44.84,111.37c5.39,13.39,19.68,23.93,32,23.92l103.43-.09c-1.07-3.16-2.07-6.32-3-9.48Z"/>
        <path class="cls-5" d="M256.5,525.19c-12.18,0-26.34-10.12-31.68-23L180.47,395.39c-3.38-8.13-4.05-15.73-2.42-21.69a43.26,43.26,0,0,0-4.13,4.11c-1.33,6.06-.56,13.61,2.68,21.66l44.84,111.37c5.39,13.39,19.68,23.93,32,23.92l103.43-.09c-1.07-3.16-2.07-6.32-3-9.48Z"/>
        <path class="cls-2" d="M339.77,374l-.08.06c-.37.54-.77,1.06-1.19,1.57-29.24,34.58-77.51,35.21-107.6,1.41-.31-.35-.6-.73-.89-1.1-14.74-15.05-36.6-15.77-52-2.25-1.63,6-1,13.56,2.42,21.69l44.35,106.83c5.34,12.85,19.5,23,31.68,23h97.29C339.38,478.32,335.25,430.64,339.77,374Z"/>
        <path class="cls-5" d="M339.77,374l-.08.06c-.37.54-.77,1.06-1.19,1.57-29.24,34.58-77.51,35.21-107.6,1.41-.31-.35-.6-.73-.89-1.1-14.74-15.05-36.6-15.77-52-2.25-1.63,6-1,13.56,2.42,21.69l44.35,106.83c5.34,12.85,19.5,23,31.68,23h97.29C339.38,478.32,335.25,430.64,339.77,374Z"/>
        <path class="cls-3" d="M256.29,348.87c.24.27.44.55.66.83A38.26,38.26,0,0,0,281,361.31h6.1a37.72,37.72,0,0,0,21.63-9.39,19.24,19.24,0,0,1,1.58-2.13c10.44-12,23.18-19.74,36.6-23.26a136.34,136.34,0,0,1,23.11-46.15c-3.32-10.24-.27-26.78,14.15-32.42,21.34-8.36,30.94-11.52,38.95-16a2.84,2.84,0,0,1,4,3.5c-.14.35-.26.68-.39,1a194.7,194.7,0,0,1,40.35-13c-123.58,3.54-229,44.19-279.31,101.82.17,0,.33-.09.5-.13C212.13,319.9,237.74,327.78,256.29,348.87Z"/>
        <path class="cls-5" d="M256.29,348.87c.24.27.44.55.66.83A38.26,38.26,0,0,0,281,361.31h6.1a37.72,37.72,0,0,0,21.63-9.39,19.24,19.24,0,0,1,1.58-2.13c10.44-12,23.18-19.74,36.6-23.26a136.34,136.34,0,0,1,23.11-46.15c-3.32-10.24-.27-26.78,14.15-32.42,21.34-8.36,30.94-11.52,38.95-16a2.84,2.84,0,0,1,4,3.5c-.14.35-.26.68-.39,1a194.7,194.7,0,0,1,40.35-13c-123.58,3.54-229,44.19-279.31,101.82.17,0,.33-.09.5-.13C212.13,319.9,237.74,327.78,256.29,348.87Z"/>
        <path class="cls-3" d="M287.13,361.31H281A36.54,36.54,0,0,0,287.13,361.31Z"/>
        <path class="cls-5" d="M287.13,361.31H281A36.54,36.54,0,0,0,287.13,361.31Z"/>
        <path class="cls-4" d="M341.91,351.94a157.7,157.7,0,0,1,4.22-22.38c-13.88,3.25-27.13,10.95-38,23.19a20.62,20.62,0,0,0-1.61,2.11,39.05,39.05,0,0,1-10.45,6.45h44.83Q341.38,356.66,341.91,351.94Z"/>
        <path class="cls-5" d="M341.91,351.94a157.7,157.7,0,0,1,4.22-22.38c-13.88,3.25-27.13,10.95-38,23.19a20.62,20.62,0,0,0-1.61,2.11,39.05,39.05,0,0,1-10.45,6.45h44.83Q341.38,356.66,341.91,351.94Z"/>
        <path class="cls-4" d="M182.6,365.72a16.48,16.48,0,0,1,11.81-4.41h73.68a40.05,40.05,0,0,1-13.33-9.17c-.22-.28-.43-.57-.66-.84-18.34-21.27-43.88-29.4-67.73-24.38.47-.55,1-1.09,1.46-1.64-14.39,3.29-28.1,11.37-39.14,24.27-6.8,7.95-6.71,20.76.2,28.63A16.61,16.61,0,0,0,160.15,384a16.27,16.27,0,0,0,13.58-6c.06-.08.13-.14.19-.21C175.14,372.27,178.11,368,182.6,365.72Z"/>
        <path class="cls-5" d="M182.6,365.72a16.48,16.48,0,0,1,11.81-4.41h73.68a40.05,40.05,0,0,1-13.33-9.17c-.22-.28-.43-.57-.66-.84-18.34-21.27-43.88-29.4-67.73-24.38.47-.55,1-1.09,1.46-1.64-14.39,3.29-28.1,11.37-39.14,24.27-6.8,7.95-6.71,20.76.2,28.63A16.61,16.61,0,0,0,160.15,384a16.27,16.27,0,0,0,13.58-6c.06-.08.13-.14.19-.21C175.14,372.27,178.11,368,182.6,365.72Z"/>
        <path class="cls-4" d="M178.05,373.7a17.26,17.26,0,0,1,4.55-8c-4.49,2.27-7.46,6.55-8.68,12.09A43.26,43.26,0,0,1,178.05,373.7Z"/>
        <path class="cls-5" d="M178.05,373.7a17.26,17.26,0,0,1,4.55-8c-4.49,2.27-7.46,6.55-8.68,12.09A43.26,43.26,0,0,1,178.05,373.7Z"/>
        <path class="cls-4" d="M296.08,361.31a36,36,0,0,1-9,2.51l53.63,0c.08-.83.15-1.64.24-2.47Z"/>
        <path class="cls-5" d="M296.08,361.31a36,36,0,0,1-9,2.51l53.63,0c.08-.83.15-1.64.24-2.47Z"/>
        <path class="cls-4" d="M277.24,363.83a36.43,36.43,0,0,1-9.15-2.52H194.41a16.48,16.48,0,0,0-11.81,4.41,17.63,17.63,0,0,1,8-1.81Z"/>
        <path class="cls-5" d="M277.24,363.83a36.43,36.43,0,0,1-9.15-2.52H194.41a16.48,16.48,0,0,0-11.81,4.41,17.63,17.63,0,0,1,8-1.81Z"/>
        <path class="cls-4" d="M230,376c.29.37.58.75.89,1.1,30.09,33.8,78.36,33.17,107.6-1.41.42-.51.82-1,1.19-1.57l.08-.06c.28-3.38.57-6.79.9-10.23l-53.63,0a35.35,35.35,0,0,1-9.8,0l-86.61.08a17.63,17.63,0,0,0-8,1.81,17.26,17.26,0,0,0-4.55,8C193.41,360.18,215.27,360.9,230,376Z"/>
        <path class="cls-5" d="M230,376c.29.37.58.75.89,1.1,30.09,33.8,78.36,33.17,107.6-1.41.42-.51.82-1,1.19-1.57l.08-.06c.28-3.38.57-6.79.9-10.23l-53.63,0a35.35,35.35,0,0,1-9.8,0l-86.61.08a17.63,17.63,0,0,0-8,1.81,17.26,17.26,0,0,0-4.55,8C193.41,360.18,215.27,360.9,230,376Z"/>
        <path class="cls-4" d="M254.1,351.3c.23.27.44.56.66.84a40.05,40.05,0,0,0,13.33,9.17H281A38.26,38.26,0,0,1,257,349.7c-.22-.28-.42-.56-.66-.83-18.55-21.09-44.16-29-68-23.72-.17,0-.33.1-.5.13-.48.55-1,1.09-1.46,1.64C210.22,321.9,235.76,330,254.1,351.3Z"/>
        <path class="cls-5" d="M254.1,351.3c.23.27.44.56.66.84a40.05,40.05,0,0,0,13.33,9.17H281A38.26,38.26,0,0,1,257,349.7c-.22-.28-.42-.56-.66-.83-18.55-21.09-44.16-29-68-23.72-.17,0-.33.1-.5.13-.48.55-1,1.09-1.46,1.64C210.22,321.9,235.76,330,254.1,351.3Z"/>
        <path class="cls-4" d="M306.53,354.86a20.62,20.62,0,0,1,1.61-2.11c10.86-12.24,24.11-19.94,38-23.19.27-1,.52-2,.81-3-13.42,3.52-26.16,11.26-36.6,23.26a19.24,19.24,0,0,0-1.58,2.13,37.72,37.72,0,0,1-21.63,9.39h8.95A39.05,39.05,0,0,0,306.53,354.86Z"/>
        <path class="cls-5" d="M306.53,354.86a20.62,20.62,0,0,1,1.61-2.11c10.86-12.24,24.11-19.94,38-23.19.27-1,.52-2,.81-3-13.42,3.52-26.16,11.26-36.6,23.26a19.24,19.24,0,0,0-1.58,2.13,37.72,37.72,0,0,1-21.63,9.39h8.95A39.05,39.05,0,0,0,306.53,354.86Z"/>
        <path class="cls-4" d="M287,363.82a36,36,0,0,0,9-2.51h-8.95a36.54,36.54,0,0,1-6.1,0H268.09a36.43,36.43,0,0,0,9.15,2.52Z"/>
        <path class="cls-5" d="M287,363.82a36,36,0,0,0,9-2.51h-8.95a36.54,36.54,0,0,1-6.1,0H268.09a36.43,36.43,0,0,0,9.15,2.52Z"/>
        <path class="cls-4" d="M287,363.82h-9.8A35.35,35.35,0,0,0,287,363.82Z"/>
        <path class="cls-5" d="M287,363.82h-9.8A35.35,35.35,0,0,0,287,363.82Z"/>
        <path class="cls-6" d="M487,307.29c10.79.07,27.47-17.12,19.75-34.79-9.19-21-13.73-30-16.24-38.84a2.84,2.84,0,0,0-5.32-.37c-8.23,18.39-3.4,9.74-17.54,39C459.26,289.63,476.2,307.23,487,307.29Z"/>
        <path class="cls-6" d="M562.12,275.44c6.34,18.2,30.76,18.67,38.44,11.08S607.88,255,589.92,248C568.58,239.6,559,236.44,551,232a2.84,2.84,0,0,0-4,3.5C554.14,254.3,551.44,244.77,562.12,275.44Z"/>
        <path class="cls-6" d="M412,275.44c10.48-30.1,8.07-21.5,14.78-39-23,10.39-42.28,25.13-56.74,43.9a15.14,15.14,0,0,0,3.52,6.14C381.24,294.11,405.67,293.64,412,275.44Z"/>
        <path class="cls-7" d="M426.79,236.48c.13-.33.25-.66.39-1a2.84,2.84,0,0,0-4-3.5c-8,4.47-17.61,7.63-38.95,16-14.42,5.64-17.47,22.18-14.15,32.42C384.51,261.61,403.82,246.87,426.79,236.48Z"/>
      </g>
      <g>
        <path d="M43.2,204.71l-4.36-6.43c-1.46-2.15-2.85-4.33-4.18-6.56a26.78,26.78,0,0,0-6.77-6.19q-3.45-2.09-8.61.31a9.61,9.61,0,0,0-2.48,3.34,4,4,0,0,0,.05,2.87,10.83,10.83,0,0,0,1.61,2.78c.7.9,1.44,1.92,2.21,3.06l.56-.38a5.44,5.44,0,0,1,1.07-1.42,3.23,3.23,0,0,0,.88-1.29l-2.35-2.27c-.69-1.56-.55-2.67.45-3.34s2.08-.4,3.27.82a14.38,14.38,0,0,0,1.72,2.14,5.37,5.37,0,0,1,1.22,1.8,3.44,3.44,0,0,1,.1,2.14,8.77,8.77,0,0,1-1.77,3c-1.92,2.23-3.89,3.19-5.9,2.9a7.81,7.81,0,0,1-5.12-3.16,10.59,10.59,0,0,1-2.55-6.56A11.85,11.85,0,0,1,14,186.41a23.93,23.93,0,0,1,4.39-5.33q2.75-2.55,5.27-4.82l.67-1a.92.92,0,0,1,.69-.19c2.18-1.84,4.27-3.63,6.27-5.35a44.36,44.36,0,0,0,4.65-4.54,2.69,2.69,0,0,1,.6-1.52,5.65,5.65,0,0,1,2.56-.63,4.45,4.45,0,0,1,2.83.57,7.5,7.5,0,0,1,1.53,1.46,36.77,36.77,0,0,1,9.31-6.87,24.73,24.73,0,0,1,11-2.77c1.63,0,2.9,0,3.82,0a25,25,0,0,1,2.57.19,21.81,21.81,0,0,1,2.51.5c.88.24,2,.61,3.47,1.11a6.4,6.4,0,0,1,3,1.67c1,.91,1.93,1.78,2.86,2.62a50.56,50.56,0,0,1,5.84,6.82A30.88,30.88,0,0,1,92,176.2a26.06,26.06,0,0,1,1.46,8.54,20.63,20.63,0,0,1-2.11,8.89,1.94,1.94,0,0,1-.43,1,2.11,2.11,0,0,0-.42,1l4-1.64a25.78,25.78,0,0,1,15-.81,37.39,37.39,0,0,1,14.33,6.72A36.44,36.44,0,0,1,134.13,212,25.58,25.58,0,0,1,137,227.33c-.17,2.15-.35,3.88-.54,5.21a33.45,33.45,0,0,1-.78,3.84,39.55,39.55,0,0,1-1.29,3.91q-.78,2.06-2.11,4.89a35.78,35.78,0,0,1-4.27,6.49,7.37,7.37,0,0,1-1.61,1.64,72.8,72.8,0,0,1-10.68,9.45,4.17,4.17,0,0,1,.72,1.45.91.91,0,0,0,.35.32,1.14,1.14,0,0,1,.34.31,2.14,2.14,0,0,1,1.47,1.36,2.21,2.21,0,0,1-.53,2.43,23.41,23.41,0,0,1-6.25,4.38,39,39,0,0,0-6.69,4.12l-14.31,9.71a2.09,2.09,0,0,1-2.63.13c-.09-.13-.16-.17-.22-.13s-.14,0-.22-.13a3.14,3.14,0,0,1-.59-1.26c-.22-.58.08-1.34.9-2.27l.38-.25A7.49,7.49,0,0,0,91,274.8a42.48,42.48,0,0,0-5-11.29q-5.69-7.2-11.59-15.9c-.81-.93-1.61-1.9-2.4-2.94s-1.53-2-2.21-3a1.41,1.41,0,0,1-.7-.64L66,236.76a14.53,14.53,0,0,0-6.41-3.25q-3.3-.67-4.66.53a5.43,5.43,0,0,0-.54,1.2.65.65,0,0,1-.24.44,2.71,2.71,0,0,1-2.87,1c-1.09-.27-1.56-1.1-1.42-2.49l.62-.69-.13-.19,1.53-2.14a12.4,12.4,0,0,0,1-9.21,25.24,25.24,0,0,0-3.1-7.57ZM26.44,179.6l-1.11.76,1.88.38Zm5.36-1.7c.21,0,.53.38,1,1,1.56-1.42,3.05-2.9,4.47-4.41s2.86-3,4.34-4.6l0-.32a5,5,0,0,0-.67-.78,5.64,5.64,0,0,1-.67-.79q-1.66,2-4,4.5C34.73,174.22,33.23,176,31.8,177.9Zm14.94-1.57a.52.52,0,0,0-.28-.22.46.46,0,0,1-.29-.22l-1-1.51-7.77,11.35.51.75a64.82,64.82,0,0,0,4.59-4.63q2.25-2.49,4.65-4.95Zm-6.07,15.45,3-4a22.88,22.88,0,0,1-1.75,1.61c-.64.53-1.27,1-1.89,1.42Zm13.19-5.35a6.28,6.28,0,0,0-.8-1,6.9,6.9,0,0,1-.8-1c-1.68,2.07-3.27,4.11-4.78,6.15s-2.88,4-4.1,6l.77,1.13a40.3,40.3,0,0,0,5.05-5.36C50.75,190.38,52.31,188.41,53.86,186.43Zm-4.11-21.26a18.83,18.83,0,0,0-1.6,1.23c-.46.4-.95.88-1.48,1.42l.88.51.91,2.14c.09.13.16.17.22.13s.14,0,.23.12a27.71,27.71,0,0,1,.31-3.53Zm-2.85,36.2c.18.26.31.39.42.41s.24.16.41.41l2.63-3.72c-.53.55-1.09,1.06-1.66,1.55S47.52,201,46.9,201.37Zm6,1.2c1.11-1.3,2.23-2.71,3.38-4.22l3.43-4.54-.38-.57Q57.71,195.7,56,198A54.81,54.81,0,0,0,52.87,202.57Zm3.06-23.9a41.87,41.87,0,0,1,4.06,5.4q1.77,2.81,3.57,5.45l6.87,6.94-.77-1.13a5.72,5.72,0,0,1,1.59,1.54,5.93,5.93,0,0,0,1.6,1.55,10.85,10.85,0,0,0,4.05,1,3.84,3.84,0,0,0,3.5-2.24,4.76,4.76,0,0,0,.51-3.66l-3.66-9.39a1,1,0,0,1-.2-.7l-6.65-8.2a28.84,28.84,0,0,0-2.81-3.34q-1.92-2-3.31-3.28c-.47-.42-1.12-1-2-1.71s-1-.86-.57-.44a33.45,33.45,0,0,0-3.62-1.14,4.73,4.73,0,0,0-3.22.25,17.2,17.2,0,0,0-1.58,3.28l.13.19a15,15,0,0,0,.55,4.61A29.32,29.32,0,0,0,55.93,178.67Zm9,21.26-1.1,1.57q-2,2.72-3.8,5.62c-1.22,1.93-2.33,3.89-3.34,5.86q1.95-2.72,4.16-5.86t4.72-6.24ZM60,228.68A17.39,17.39,0,0,0,58.69,227a19.25,19.25,0,0,1-1.31-1.74l-.28,2.4,0,1.13a4.17,4.17,0,0,1,1.41-.12Q59.19,228.68,60,228.68Zm-.19-11.47.55-1.2-.8.82ZM66,160a14.18,14.18,0,0,0-1.35,1.6A14.43,14.43,0,0,1,63.5,163l1.71,1.32L68,160Zm-.42,65.77,4.58-7.25a27.24,27.24,0,0,1-2.87,2.77A29.45,29.45,0,0,0,64.43,224Zm.78-9.65a10.92,10.92,0,0,1,1.55-1.32,5.61,5.61,0,0,0,1.41-1.51l2.77-2.71-1.28-1.9Zm2.58-49c.73-1,1.42-2.1,2-3.18a29.73,29.73,0,0,1,1.8-2.74,1.39,1.39,0,0,0-.76-.32l-3.79,5.61C68.51,166.82,68.74,167,69,167.07Zm9.2,53.17a9,9,0,0,1-.8-1.39,10.61,10.61,0,0,0-.81-1.38L68.36,230.2a.88.88,0,0,1,.22.54,1,1,0,0,0,.23.53,65.86,65.86,0,0,0,4.8-5.32C75.08,224.12,76.6,222.22,78.15,220.24Zm-9.06-25.36a.48.48,0,0,0,.29.23.44.44,0,0,1,.28.22A1.85,1.85,0,0,1,69.09,194.88Zm5.69,37.59c-.53.55-1.06,1-1.57,1.49a18.42,18.42,0,0,1-1.7,1.29l.77,1.13Zm-3-62.87c.34.5.62.78.83.82l5-7-.26-.38Zm3.46,35.5-.63-.12a.46.46,0,0,0,.29.22.48.48,0,0,1,.28.22Zm.66,36.58q2.28-2.64,4.36-5.58t4.22-5.77a10.77,10.77,0,0,1-.74-1.29,9.73,9.73,0,0,0-.74-1.29l-3.78,6.43a21.53,21.53,0,0,1-1.85,3.46,22.09,22.09,0,0,0-1.85,3.47Zm5.28-75.42a83.48,83.48,0,0,1-5.51,7.88,3.65,3.65,0,0,0,.61.7,3.91,3.91,0,0,1,.6.69l6-7.63ZM87,234.12l-4,6a59.28,59.28,0,0,1-4.29,5.67l1.92,2.84c1.18-2.27,2.42-4.49,3.74-6.68s2.51-4.37,3.56-6.56Zm-1.9-62.81-5.9,7.31.64.95,5.77-7.51Zm2.66,5.93a1.34,1.34,0,0,0-.33-.89,72,72,0,0,1-5.72,6.37.64.64,0,0,1,.07.5Zm30.83,73.86a12.17,12.17,0,0,0,4-2.87A8.2,8.2,0,0,0,125,244a53.69,53.69,0,0,0-3.39-7.79,91.6,91.6,0,0,0-5.92-9.94,89.08,89.08,0,0,0-7.74-9.81,53,53,0,0,0-8.68-7.79,21.15,21.15,0,0,0-8.67-3.79,9.92,9.92,0,0,0-7.86,2,10.56,10.56,0,0,0-.06,3.91l0,.82a45.81,45.81,0,0,0,2.73,6.43q1.68,3.28,2.33,4.23Q89,225,90.23,227.25c.82,1.47,1.69,2.9,2.64,4.29l.64.94a58.54,58.54,0,0,0,6.21,8.36A46.71,46.71,0,0,0,108.1,248a21.74,21.74,0,0,0,6.07,3.35A14.79,14.79,0,0,0,118.61,251.1ZM88.7,183.8a5.08,5.08,0,0,0,0-1.64l-4.73,5.42a7.77,7.77,0,0,1,.66,1.76Zm-1.74,73a1.85,1.85,0,0,1,.29.63,1.55,1.55,0,0,0,.29.63,49.64,49.64,0,0,1,3.68-6.36,48,48,0,0,0,3.69-6.37L94,244c-1.34,2-2.66,4-3.94,6s-2.64,3.91-4.07,5.8l.38.57a.46.46,0,0,0,.29.22A.53.53,0,0,1,87,256.82ZM99.26,251a6.28,6.28,0,0,0-.67-.79,4.62,4.62,0,0,1-.67-.79l-7.56,12.87Zm-5.89,15.32,9.47-10.84L93,265.72Zm2.23,10.1a5.65,5.65,0,0,0,0,1.63l.75-.5Zm2.68-73.66,3.35-5.86a.2.2,0,0,1-.31-.07,39.29,39.29,0,0,0-4.94,4.73Zm8.9,57.52a3.23,3.23,0,0,1-1-1l-1.29,1.7a41.67,41.67,0,0,0-3.5,5.83,66.49,66.49,0,0,1-3.38,6l1.16,1.7a28.88,28.88,0,0,1,3.45-7.31Q104.91,263.71,107.18,260.24Zm-3.1-59,3.82-4a1.24,1.24,0,0,0-.69-.22,3.08,3.08,0,0,1-.88-.1Zm.74,6.69c.21,0,.44.25.7.63l1.16-1.89ZM115.71,200c-.94,1.55-1.91,3.18-2.93,4.88s-1.93,3.29-2.74,4.76l6-6a17.93,17.93,0,0,0,2.35-2.14Zm-2.55,58.64,1.68-1.13a11.47,11.47,0,0,0,1.54-1.32,6.6,6.6,0,0,1-2.38-.32,11.26,11.26,0,0,1-1.86-.54c-.61-.23-1.17-.45-1.67-.66l-.19.12c.52.76,1,1.44,1.51,2A21.79,21.79,0,0,1,113.16,258.66Zm-.62,7.89-1.1,1.57,1.49-1Zm1.78-48.18c1.3-2.35,2.64-4.65,4-6.88s2.81-4.39,4.28-6.49l-.13-.19q-2.77,2.72-5.48,5.52t-5.24,5.07Zm4.74,6.18,4.7-7.06-5.35,6.11Zm11.26-8.19c-1.55,2-3,3.91-4.48,5.8a39,39,0,0,0-3.66,5.8q2.4-2.46,4.68-5.11a36.83,36.83,0,0,1,4-4.1l.19-.12Zm2.2,8.45a.56.56,0,0,1-.1-.35.5.5,0,0,0-.09-.35q-2,2.22-4,4.51a55.38,55.38,0,0,1-3.94,4.19l.9,1.33a36.1,36.1,0,0,1,3.52-4.6A45.4,45.4,0,0,0,132.52,224.81ZM129,241.27a30.8,30.8,0,0,0,3.29-9.15c-.65,1.18-1.31,2.41-2,3.69s-1.35,2.62-2,4l.45.26a1.53,1.53,0,0,0,.2.69A.7.7,0,0,1,129,241.27Z"/>
        <path d="M149.07,153.78a18,18,0,0,0-3.3-4.34,26.57,26.57,0,0,0-4.59-3.65,16.78,16.78,0,0,0-5.2-2.18,12.07,12.07,0,0,0-5.24-.08,14.36,14.36,0,0,1-1.75.79,10.56,10.56,0,0,0-1.34.58l-1.38,1.24-2.44,2.58a12.26,12.26,0,0,0,.44,5.19,21.26,21.26,0,0,0,1,3.09,5.39,5.39,0,0,0,2.38,2.37,1.8,1.8,0,0,0,1.66-.23,5.26,5.26,0,0,0,1.32-1.34,6.56,6.56,0,0,0,.91-1.9c.21-.71.38-1.27.5-1.69a11,11,0,0,1-1.24.53c-.57.21-.78.28-.65.21a2.18,2.18,0,0,1-3.2.91,1.86,1.86,0,0,1-.89-2.89l2.78-1.47a7.65,7.65,0,0,1,4.51-1.08c.87-.28,1.62.19,2.26,1.4a6.35,6.35,0,0,1,.68,4.42,9.93,9.93,0,0,1-1.86,3.95,9.07,9.07,0,0,1-3.4,2.7,8.13,8.13,0,0,1-4.16.77,4.32,4.32,0,0,1-3.18-1.69,17.46,17.46,0,0,1-2.37-3.79,19.57,19.57,0,0,1-1.5-4.77,25.31,25.31,0,0,1-.44-4.94,2.08,2.08,0,0,1,.14-2.14,8.43,8.43,0,0,1,.94-2.56,12.2,12.2,0,0,1,4-3.42q2.39-1.24,4.48-2.09l7.79-2.55a54.48,54.48,0,0,0,8.68-5q2.82-2.13,5.67-4.41a41.22,41.22,0,0,1,4.6-3.07,32.15,32.15,0,0,1,5.43-2.46l2.68-1.42a13.79,13.79,0,0,1,2.39-1A2.61,2.61,0,0,1,169,119c.63.7.55,1.61-.22,2.7a27.72,27.72,0,0,0-3.47,5.71,8.2,8.2,0,0,0-.53,6.47,7,7,0,0,0,1.16,1.72,7.35,7.35,0,0,0,1.46,1.81l.43.81,2.94,4.14.53,1a108.29,108.29,0,0,1,5.46,9.66c1.68,3.34,3.67,6.9,6,10.67a21.77,21.77,0,0,1,2.6,3l1.81,3.44q2.53,3.84,4.17,6.47t2.9,4.8a36.85,36.85,0,0,1,2.2,4.4,37.25,37.25,0,0,1,1.6,5A40.5,40.5,0,0,1,203.16,204a22.23,22.23,0,0,1-1.69,13.68c-1,2.26-2.22,4.61-3.63,7.08l-3,3.91-.29.41-.39.21a21.58,21.58,0,0,1-10.51,6.56,26.75,26.75,0,0,1-8,2.15,23.46,23.46,0,0,1-6.26-.33,18.89,18.89,0,0,1-9.88-1.65,28.57,28.57,0,0,1-8.38-6.05,37.59,37.59,0,0,1-11.57-13.29,24.82,24.82,0,0,1-2.87-16.07c-.07-2.71,1.37-5.11,4.34-7.19.66-.34,1.37-.76,2.13-1.25a9.19,9.19,0,0,1,2.24-1,.93.93,0,0,1,.45-.1,1.54,1.54,0,0,0,.65-.22l.2-.1,1.71-.13,1.51,0,.2-.1a20.27,20.27,0,0,1,7.67,2,23,23,0,0,1,6.78,4.7,12.05,12.05,0,0,1,3.4,6.22c.44,2.27-.36,4.55-2.38,6.81a28.39,28.39,0,0,0,1.16,8.95,43.45,43.45,0,0,0,3.86,8.31,8.39,8.39,0,0,0,2,1.65,9.64,9.64,0,0,1,1.8,1.25l2.35,1.09q5.19-1.69,7-4.48a10,10,0,0,0,1.58-6.39,28.54,28.54,0,0,0-2-8.12q-1.74-4.51-3.8-9.88c-.08-.14-.38-.71-.91-1.72s-1.1-2.18-1.71-3.5-1.18-2.56-1.72-3.74a23.26,23.26,0,0,1-1.14-2.89c-.91-1.42-1.68-2.56-2.31-3.44L170,184.78a28.94,28.94,0,0,0-2.09-2.52c-.79-.87-1.75-2-2.87-3.53l-.42-.81q-7-6.93-14.62-3.67a6.45,6.45,0,0,1-3.49,1.57,3.37,3.37,0,0,1-1.9-1.45,2.61,2.61,0,0,1-.32-2.29,4.84,4.84,0,0,1,3.06-2.38,10.16,10.16,0,0,0,3.76-7.8A13,13,0,0,0,149.07,153.78Zm-13-36.31q-5.13.38-8.15-1.51a9.38,9.38,0,0,1-4.07-4.84,10.81,10.81,0,0,1-.18-6.37,13.38,13.38,0,0,1,3.31-6,4,4,0,0,1,2.26-2,1.56,1.56,0,0,1,1.21-.12,3.38,3.38,0,0,1,1.4-.22q5.85,0,9.15,2.68a11.09,11.09,0,0,1,4.11,6.11l.13,1.22a9.76,9.76,0,0,1-1.91,7.21A9.61,9.61,0,0,1,136.05,117.47Zm-.43-4.67a10.9,10.9,0,0,1-7.5-5.1,6.87,6.87,0,0,0,.71,3.76,3.38,3.38,0,0,0,3.17,1.69A5.09,5.09,0,0,0,135.62,112.8Zm-5-9.52a9.45,9.45,0,0,0,2.34,4.45A13.67,13.67,0,0,1,130.62,103.28Zm8.8,4.68a.42.42,0,0,1,.35-.06.46.46,0,0,0,.35-.06,10.23,10.23,0,0,0,0-2.34,7.07,7.07,0,0,0-2.45-1.29,7.12,7.12,0,0,1-2.46-1.29l.11.2a6.63,6.63,0,0,0,1.57,2l1.86,1.61Zm-1.61,32.62,1.37.44,1.38.44-1-1.82Zm6.76,61q-.63-.7-1-1.26a9.51,9.51,0,0,1-.84-1.36,6.81,6.81,0,0,1-1.58,1.34c0,1,.7,2.13,2,3.34Zm-.55,13,2.13-3.19-.92-.29-1.95,2.06Zm2-73.39,3.3-4.33a7.85,7.85,0,0,1-2.07,1.61,11.68,11.68,0,0,0-2,1.3Zm3.83,71.88a19.64,19.64,0,0,0-3,4.42,22.65,22.65,0,0,0,4.72-4ZM149,195.15c-1.67.36-2.25,1.19-1.74,2.47Zm-.48-49.62a.87.87,0,0,0,.31.35,1.15,1.15,0,0,1,.31.36q2.64-2.69,5.6-5.27l5.9-5.18-2.3-2.92q-2.43,3.09-5,6.23T148.54,145.53Zm1.88,77.83c1.1-1.44,2.3-2.94,3.6-4.48s2.6-3.18,3.9-4.9q-2.37,2.28-4.62,4.24c-1.51,1.32-3,2.52-4.44,3.63Zm3.76-27.57-2.62,3.71,4-3.42ZM152.89,150l.22.4,1.74-2.47-1,.53Zm4,58.64a5.18,5.18,0,0,1-2.44-.79l-1.27,1.45,2.33.58A6.92,6.92,0,0,0,156.86,208.6Zm-2.93-39.8a21,21,0,0,1,2.42.27,17.72,17.72,0,0,1,2.34.58,38.66,38.66,0,0,1-2.77-5.26,4.25,4.25,0,0,1-.33-.86,3.78,3.78,0,0,0-.32-.87A25.67,25.67,0,0,1,153.93,168.8Zm4.13,60.87,4.95-6.48-.31-.61-5.88,6.19Zm4.36-27.87a4.24,4.24,0,0,0-.95-1.32c-.65.7-1.3,1.38-2,2.07s-1.37,1.41-2.16,2.17l3,.77,2.46-2.07a5.27,5.27,0,0,0-.54-1.52Zm-1.2-46.15a10.77,10.77,0,0,1-1.07,1.34,14.71,14.71,0,0,1-1.38,1.24l.43.82,4.88-5.67Zm5.44-10.87a3.12,3.12,0,0,0-.84-1.11L159,151.4Zm-5.75-18.16-.4.21.32.6Zm.09-.31a.2.2,0,0,0-.09.31Zm10.16,31.35a4.11,4.11,0,0,1-.44-1.32c-.09-.47-.17-1-.25-1.42l-9,9.39a2.45,2.45,0,0,1,.28.76,2.33,2.33,0,0,0,.27.76l4.53-3.93Q168.79,159.94,171.16,157.66Zm-5.27,71a2.66,2.66,0,0,0-.47-.66,2.22,2.22,0,0,1-.47-.65c-.53.62-1,1.27-1.51,2s-.95,1.4-1.4,2.15Zm1.46-62.79a12.4,12.4,0,0,1-1.76,1.71,12.43,12.43,0,0,0-1.77,1.7l.64,1.22,4.18-5.56A4.87,4.87,0,0,1,167.35,165.86Zm8.5-2.66-3.71,4.53-4.86,6.18a2.46,2.46,0,0,0,.73.91q2.55-2.37,5-5t5.1-5.26Zm-7.11,69.9c.07.13.12.15.15,0s.08-.08.15.05l.38-.72a1.14,1.14,0,0,0-.34.32A1,1,0,0,1,168.74,233.1Zm2.18-55.16a4.81,4.81,0,0,0,.58.86,6.68,6.68,0,0,1,.68,1.06l8.67-11-.32-.61q-2.44,2.6-4.85,5C174.07,174.86,172.49,176.43,170.92,177.94Zm7.15,3.47c1.13-.76,2.19-1.54,3.21-2.33s2.06-1.64,3.11-2.54a16.59,16.59,0,0,1-.86-1.88c-.22-.57-.44-1.23-.66-2l-2.63,3.19q-1.37,1.76-2.63,3.45T175.09,183a10.77,10.77,0,0,1,1.55-.68A4.24,4.24,0,0,0,178.07,181.41Zm2.33,3.94a6.12,6.12,0,0,1-1.73,1.05,15.13,15.13,0,0,0-1.84.84l.85,1.62,3.72-4Zm2.4,13.73,3.92-4.13-4.34,3.32Zm-.22-8.15,6.4-5.18-.42-.81Zm11.67,2.9-9.5,9.91a2.58,2.58,0,0,1,.27.76,2.36,2.36,0,0,0,.28.76l10-8.39-.34-1.62Zm1.95,8.53-9.07,7.36,1,3.35,8.21-9ZM187.4,230a.65.65,0,0,0,.29-.41C187.42,229.72,187.33,229.86,187.4,230Zm6.64-7.63c.32-.68.62-1.39.9-2.15a14.59,14.59,0,0,0,.68-2.56c-1,1-1.92,2-2.83,3a34.49,34.49,0,0,1-2.95,2.84,12.79,12.79,0,0,1-.81,3.27c-.39.89-.83,1.81-1.34,2.77l5.68-6.09Zm2.56-13-7.31,8.76,5.6-5.27,1.57-1.35Z"/>
        <path d="M220.74,84.79a4.19,4.19,0,0,1-.39-1.57,2.48,2.48,0,0,1,1.33-2.74c1.11-.44,2.1-.8,3-1.06a32.61,32.61,0,0,1,3.55-.8l1.09.3a2,2,0,0,1,1.55,1.48,2.06,2.06,0,0,1-.7,1.88l1.4,19.87,1.59.35c.81,0,1.54,0,2.18,0a7.37,7.37,0,0,1,2,.3A41.82,41.82,0,0,1,254,116.22a82.08,82.08,0,0,1,10.83,18.95,87.33,87.33,0,0,1,5.87,22.9,35.47,35.47,0,0,1-4.75,21.71,23.31,23.31,0,0,1-8.51,10.78,22,22,0,0,1-6.77,4.55,45.11,45.11,0,0,1-8,2.59l-4.43,1q.32,3.81.48,7.56t0,7.52c-.57,2.2-1.49,3.14-2.74,2.82a10.74,10.74,0,0,1-2.42,1.21.92.92,0,0,1-.57.1.4.4,0,0,0-.35,0,2.33,2.33,0,0,1-1.8-.27,4,4,0,0,1-1.09-1.53q-.24-4.83-.51-9.15t-.34-8.73l-.59-.26a32.06,32.06,0,0,1-4.44-1.43,12.65,12.65,0,0,1-3.44-2.56q-3.9-3.12-7.89-5.84a30.69,30.69,0,0,1-6.93-6.47,38.63,38.63,0,0,1-4.6-7.89,88.43,88.43,0,0,1-3.82-10.17q-1.18-3-2.16-6a35.43,35.43,0,0,1-1.42-6.58c-.17-1.24-.29-2.34-.35-3.3A96.44,96.44,0,0,1,192.07,135a38.37,38.37,0,0,1,1.17-10.69,18.76,18.76,0,0,1,4.29-7.74,46.29,46.29,0,0,1,7.77-7.16,55.35,55.35,0,0,1,9.06-5.46,24.77,24.77,0,0,1,7.93-2.55l-.08-.22a3.91,3.91,0,0,1,0-1.22q-.19-5.34-.45-9.92T220.74,84.79Zm-22.19,38.89a25.39,25.39,0,0,0-2,6.47l1.42-1.3,2.3-6.34A6.78,6.78,0,0,1,198.55,123.68Zm7,21.83-7.66,5,.51,1.28Zm-1.15-11.36c-.58.56-1.36,1.24-2.33,2s-2,1.59-3.16,2.37a1.29,1.29,0,0,1-.16.81c1.94-1.6,3.91-3.12,5.91-4.58s4-3,6.12-4.65Zm-4.22,22.12a1.71,1.71,0,0,1,.15.68,1.44,1.44,0,0,0,.15.68l6.08-4.15L217,146.35a21.6,21.6,0,0,1-1.57-3.31q-3.66,2.94-7.71,6.4T200.19,156.27Zm.24-24.23-.12.3a85.89,85.89,0,0,0,10.24-7,9.09,9.09,0,0,1,.07-2.25q-2.61,2.52-5.16,4.65T200.43,132Zm.23,11.48c1.92-1.25,3.87-2.61,5.87-4.06s4-3,6.12-4.66l-.25-.64q-2.93,2.4-6,4.72C204.38,140.44,202.46,142,200.66,143.52Zm2.12,21.07c2.75-2.41,5.64-4.84,8.7-7.29s5.76-4.55,8.11-6.31l-.08-.22-14.58,9.51-2.91,2.4Zm.49-40.57,6.78-6.65.12-.29-4.42,2.25-.2.08Zm18.44,31.05q-4.41,3.48-9,7.26t-8,7.14q4.38-3,8.68-6.42t8.8-6.71ZM208,173.35l-.83.33.08.22Zm18.73-7-.42-1.06c-1.14.78-2.21,1.54-3.21,2.26s-1.89,1.33-2.67,1.8L210,177.94l1.52,1.37q3.52-2.64,7.36-5.77t7.79-5.94Zm-2.58-5.86a88.62,88.62,0,0,0-10.24,8.27q3.12-2.47,5.85-4.43a37.42,37.42,0,0,0,3.6-2.79l1-.63ZM223,115.9a8.07,8.07,0,0,1-.14-1.55c0-.89-.09-2-.18-3.5L219.36,108a1.86,1.86,0,0,1-.92.12,7.89,7.89,0,0,0-4.32,4.93,19.76,19.76,0,0,0,.11,5.12,46.09,46.09,0,0,0,1.18,5.69c.53,1.92,1.05,3.64,1.58,5.16s.95,2.69,1.29,3.54q1.36,4.63,3.17,10.06t4.3,11.09Zm-7.41,67.46L227,173.15l-.09-.21-12.36,9.61Zm3.32,2.86a2.2,2.2,0,0,1,.86.64,2,2,0,0,0,.86.64l6.91-5.71-.15-3.39c-1.38,1.38-2.8,2.68-4.24,3.91S220.29,184.85,218.91,186.22Zm6.92,4.63,2.08-2.06-.09-1.45L224.28,190l1.47.64Zm-.27-103.06c.08-.19.17-.27.27-.23s.26-.06.48-.31a22.86,22.86,0,0,1-.23-3.61l-.83.34Zm.47,8.43.83-.33a3.56,3.56,0,0,0,0-1.59,5.45,5.45,0,0,1-.11-1.8l-.75.55-.13.29Zm.51,9.16c.05.14,0,.22,0,.25s-.08.11,0,.25l.75-.54A.94.94,0,0,0,226.54,105.38Zm.6-3.94-.42.17.51,0Zm-.07,18a1.58,1.58,0,0,0,.59-.35,1.38,1.38,0,0,1,.58-.36,3.46,3.46,0,0,1-.09-1.44L227,115.55Zm.69,10.81,1.08-.93-.32-5-1,.42Zm.71,7.84.12-.3q.63-.24.75-.54v-2.46l-.63.25.09.21-.63.25Zm1.08,14.83a14,14,0,0,0,.32,3.81l1.08-.92a21.47,21.47,0,0,1-.23-3.6ZM231.8,167l-.18-2.88q-.09-1.44-.27-3.09l-1.08.92,0,1.95A19.52,19.52,0,0,0,231.8,167Zm-.39,11.73a1.52,1.52,0,0,0,.58-.35,1.45,1.45,0,0,1,.58-.36,11.24,11.24,0,0,1-.78-1,8.88,8.88,0,0,1-.65-1.34Zm1.06-73.05c-.22.25-.38.35-.48.31s-.19,0-.27.23l.23,2.37a8.65,8.65,0,0,0,2.28-2.14Zm-.61,79a.92.92,0,0,0,0,.72l1-1.14-.17-.42Zm1.36,4.62a3.31,3.31,0,0,1-1.08.93c.05.14.05.22,0,.25s-.08.12,0,.25a3.58,3.58,0,0,1,1.29-1Zm-.74-74.55,7.2-5.58-1.34-.94-5.94,6.31Zm.19,88.31a7.21,7.21,0,0,1,1.79-1c-.06-1-.18-2.06-.35-3.3l-1.51-.14Zm21.82-15.59q1.65-3.12,1.35-8.42a34.6,34.6,0,0,0-1.45-8.78q-1.77-4.46-4.07-10.2t-5-11.91q-2.72-6.18-5.88-12.31t-6.58-11.65l3.74,51.19a60.32,60.32,0,0,0,6.15,8.14,20.52,20.52,0,0,1,1.85,1.6c.53.52.72.82.59.87a7.82,7.82,0,0,0,1.89,1.71q2.76,2.1,4.19,2ZM233.16,208.6l.1,3.9,1.67-.67c0-.82,0-1.58-.08-2.3s-.07-1.49-.07-2.31l-1.71,1.17-.12.3Zm5.39-22.83-.38-.34-.66.76c-.14.05-.15.22,0,.5Zm-1.14-64.05a7.35,7.35,0,0,0,1.26,2l9.83-6.88-1.85-2.22Zm4.3,67.71c-.64.43-1.32.86-2,1.3a12.49,12.49,0,0,0-1.93,1.51l.05,1.95a.85.85,0,0,0,.71,0l4.62-3.56ZM241,127.67a6.11,6.11,0,0,1,.89,1.62l10.32-8.06-.92-1.11c-1.73,1.35-3.42,2.64-5.1,3.89S242.77,126.47,241,127.67Zm4.66,10.46.59,1.48q2.79-2.09,5.83-4.17c2-1.38,4-2.87,5.95-4.47a1.63,1.63,0,0,0-.35-.59,1.47,1.47,0,0,1-.36-.6Zm9.63-12.22a.45.45,0,0,0-.23-.27.44.44,0,0,1-.23-.28l-7.08,5.28.62-.25Zm5,10.08-.26-.64c-2.14,1.51-4.18,2.94-6.14,4.3a55.27,55.27,0,0,0-5.43,4.26l.17.42Zm3,10.61a3.13,3.13,0,0,0-.3-1.36l-10.53,8.14.59,1.49q2.58-2,5.12-4.14T263.29,146.6Zm-7.74,13.92q3.12-2.47,5.54-4.3c1.6-1.22,2.77-2.13,3.49-2.75a2.51,2.51,0,0,1-.19-.79,2.76,2.76,0,0,0-.19-.78,48,48,0,0,0-4.85,3.29c-1.55,1.19-3.06,2.33-4.56,3.42Zm9.44-1.8q-4,2.82-7.74,6.05l1,2.55,6.66-5.12Zm-4.6,16.36,3.13-2.47,1.06-4.61c-.86.67-1.67,1.36-2.44,2.08s-1.57,1.41-2.43,2.07Z"/>
        <path d="M288.84,72a1.72,1.72,0,0,1,1.81-1c.8.08,1.45.69,1.94,1.81Q294,76,295,78.9c.65,2,1.33,3.86,2,5.72a16.78,16.78,0,0,1,6.92-7.89,25.37,25.37,0,0,1,10.64-3.61,29.71,29.71,0,0,1,11.81,1.16,23.84,23.84,0,0,1,10.38,6.24,8.91,8.91,0,0,1,2.11,3.55,21.87,21.87,0,0,1,1.06,4.81,11.84,11.84,0,0,1-.89,7.29,19.89,19.89,0,0,1-4.75,6.89,17.26,17.26,0,0,1-7.1,4.12,8.53,8.53,0,0,1-7.47-1.13,13.39,13.39,0,0,1-5-5c-1-.33-1.53-1.22-1.49-2.66l-.77-2.63a20.78,20.78,0,0,1-1.31-5.22,15,15,0,0,0-1.45-4.93,1.34,1.34,0,0,0-1.08-.88,16,16,0,0,0-1.74-.32l-2-.23a9.8,9.8,0,0,0-2.34,4.39,24.26,24.26,0,0,0-.8,5.6,48.62,48.62,0,0,0,.15,5.68c.16,1.86.31,3.56.46,5.11q.49,2.48,1.13,5c.42,1.7.9,3.43,1.41,5.18s1.16,3.68,1.93,5.75,1.57,4.27,2.41,6.56,1.6,4.49,2.29,6.58a53.43,53.43,0,0,1,1.6,5.81l3.13,13.77a2.2,2.2,0,0,1,1.09,1.33,15.7,15.7,0,0,0,3.6,7.83c1.7,1.79,4.33,2.39,7.91,1.81l6.24-1.84c1.54-.61,2.57-.29,3.1,1s.12,2.26-1.22,3c-.29.09-.46.18-.51.28a.87.87,0,0,1-.5.27,31.31,31.31,0,0,1-8.47,2.26,8.75,8.75,0,0,0-2.4.59q-1.26.5-2.55.87l-.65.19a1.21,1.21,0,0,1-.26.68,1.77,1.77,0,0,0-.34.45,2.37,2.37,0,0,1-1,.54c-.14,0-.23,0-.25,0s-.1-.08-.25,0l-.28-.16a.39.39,0,0,1-.55-.31q-5.26,2-10.17,4.43A85.7,85.7,0,0,1,298.52,181a32.45,32.45,0,0,1-6.77,1.64c-2.69.4-4.25.66-4.68.79a2.41,2.41,0,0,1-1.58-4.54l.22-.07q6.18-2.06,7.52-5.06t-1-10.13a.92.92,0,0,1,0-.47.93.93,0,0,0,0-.47q-1.4-3.14-2.82-6.39c-.95-2.17-1.92-4.37-2.89-6.61q-2.54-3-5-3.14a32.3,32.3,0,0,0-6.49.61c-1.42,0-2.2-.69-2.33-1.92a2,2,0,0,1,1.54-2.35q5.59-1.65,7.06-5.42a13.8,13.8,0,0,0,.92-7.19l-7.45-27.6a17.29,17.29,0,0,1-1-2.46c-.23-.81-.48-1.65-.74-2.52q-2.31-3.86-5.55-3.73a56.19,56.19,0,0,0-8.75,1.27c-1.48.28-2.4-.2-2.77-1.45s.22-2.17,1.75-2.78a34.67,34.67,0,0,0,7.47-4.83q5-3.84,10-7.25a44.46,44.46,0,0,1,6.57-3.49,68.89,68.89,0,0,0,6.86-3.34ZM276.55,93l0,.94,3.73-3.24Zm16-5.42q-3.64,2.75-7.43,5.76t-7.15,5.93a.47.47,0,0,0,.21.3.46.46,0,0,1,.2.29q3.46-1.74,7.41-3.85t7.92-4.49ZM279.7,104.51l.2.66,3.27-2.4Zm1.59-20a71.65,71.65,0,0,0,8.33-5.08l-.52-1.76a.9.9,0,0,1-.58.41l-.22.07a.91.91,0,0,1-.58.41q-1.25,1.32-2.79,2.85a16.05,16.05,0,0,1-3.13,2.47Zm.63,26.75c2.23-1.44,4.57-3,7-4.7s5-3.31,7.69-4.89l-.58-2q-3.7,2.52-7.44,4.94a63.56,63.56,0,0,0-7.09,5.31Zm3,32.49a10.59,10.59,0,0,1-.32-1.46,11,11,0,0,0-.31-1.46,9.79,9.79,0,0,1-1.92,2.24Zm.37-22.52,2.91-2q2.68-2,5.55-3.79t5.62-3.57l-.26-.87a79.78,79.78,0,0,0-7.33,4.9q-3.35,2.55-6.55,5.16Zm1.3,4.38.51,1.76q2.21-2.09,4.54-4.08c1.55-1.33,3.16-2.64,4.81-3.93l-5.15,3.19Zm3.69,12.5,1.46-1.38-1.53,1.17Zm14.53-5.48q-3.36,2.91-6.81,5.47c-2.31,1.72-4.38,3.4-6.24,5.06l.52,1.75q6.71-5.07,13-10.74Zm-10.61,19.58q3.3-3.1,6.66-6t6.35-5.45l-.46-1.54q-3.14,2.84-6.53,5.62a76.24,76.24,0,0,1-6.73,5Zm8-29.29-.2-.66-6.91,5.14Zm6.71,23.53q-3.57,3-7,5.89T295.71,158l.45,1.53a61.2,61.2,0,0,0,6.7-5.07l6.72-5.8Zm-11.27,30a.93.93,0,0,1-.41-.6l-.24.79Zm-.07-12.14a19.29,19.29,0,0,1,1.33,2.94L311.6,154.7l-.51-1.75c-2.39,2-4.7,3.93-6.94,5.85s-4.45,3.7-6.63,5.3Zm4.46,10.37c1.39-.57,2.64-1.09,3.75-1.57l3.32-1.45,6.38-5.34-.81-2.77c-2.58,1.85-5,3.66-7.17,5.47s-4.11,3.41-5.72,4.81Zm10.51-91.32,5.72-6-.49-.09a20.47,20.47,0,0,1-3.37,2.06c-1.23.6-2.45,1.24-3.65,1.91Zm13.33,1.55a.62.62,0,0,1-.49-.1l-5,3.85-.51.63a2.41,2.41,0,0,0,.58,2l6.67-6.73Zm-4.28,17.23a3.83,3.83,0,0,0,2.26.53l2.59-3.15a.37.37,0,0,1-.39-.12.57.57,0,0,0-.6-.06l-4.07,2.87ZM328,79.51a8.91,8.91,0,0,0-2.61-.9l-1.61,1.67a24.38,24.38,0,0,1,3.06,0Zm5.61,7.89A5.2,5.2,0,0,0,332,85.74q-2.06,1.8-4,3.81l-4,4Z"/>
        <path d="M365.17,122.43a31.25,31.25,0,0,1-.77-3.58c-.18-1.21-.36-2.41-.55-3.62l-.17-1.13q-2.43-7-7.94-6a5.77,5.77,0,0,1-1.75.49c-.44.07-.86-.17-1.24-.73a5.83,5.83,0,0,1-.85-1.84,4.21,4.21,0,0,1-.07-2,1.71,1.71,0,0,1,1.05-1.31l1.78-.27A9.17,9.17,0,0,0,358,97.15a26.8,26.8,0,0,0,.72-8,1.41,1.41,0,0,1,.1-.82,7.51,7.51,0,0,0,.32-.86,16.19,16.19,0,0,0-.13-3.91c-.21-1.36-.42-2.71-.62-4.07a20.91,20.91,0,0,1-1.14-3.76c-.28-1.34-.61-2.76-1-4.24a15,15,0,0,0-.72-1.74c-.21-.43-.43-.86-.65-1.29a10.67,10.67,0,0,0-4.6-2.66q-2.49-.66-5.1-1.42a3.26,3.26,0,0,1-1.25,0,3.31,3.31,0,0,0-1.26,0l-.89.13,0-.22-.45.06a2.43,2.43,0,0,1-2.13-2.1,2,2,0,0,1,1.23-2.39l.22,0c-.15,0,.05-.16.59-.55q9.86-2.41,16.34-3.87c4.32-1,8.16-1.78,11.55-2.45s6.77-1.22,10.19-1.66,7.58-1,12.48-1.55l0,.22a2.21,2.21,0,0,1,2.19,1.75,2.18,2.18,0,0,1-1.32,2.52l-.44.06a.88.88,0,0,1-.63.33,10.39,10.39,0,0,0-5.6,2,10,10,0,0,0-3.29,4.55,25.35,25.35,0,0,0-1.4,6.45,38.6,38.6,0,0,0,0,7.29,32.3,32.3,0,0,1,9.49-10.81,40.69,40.69,0,0,1,13.09-6.49,36.22,36.22,0,0,1,14-1.21,24.09,24.09,0,0,1,12.47,5l3.65,3.14c2.14,2.15,4,3.91,5.46,5.3a30,30,0,0,1,4.14,4.81,39.41,39.41,0,0,1,3.65,6.85,76.16,76.16,0,0,1,3.53,11.26c.2,1.36.17,2.13-.1,2.33a81.69,81.69,0,0,1,1.69,8.18,68.19,68.19,0,0,1,.75,7.87c0,.15.07.22.14.21s.12.06.15.21q.18,2.75.59,7.65a52.61,52.61,0,0,0,1.68,9.58,28,28,0,0,0,3.49,8,6.27,6.27,0,0,0,6.25,3,1.8,1.8,0,0,1,2.07,1.65,2.1,2.1,0,0,1-1.45,2.42,21.93,21.93,0,0,1-4.43,1.48c-1.4.29-2.94.64-4.61,1s-3.74.83-6.17,1.28-5.38,1.17-8.87,2.16a48.27,48.27,0,0,0-7.91,1,33.69,33.69,0,0,1-5.44.83,3.8,3.8,0,0,1-4.41.9,3.91,3.91,0,0,1-.73-3.36q-.11-.67,4.23-2a10.83,10.83,0,0,0,1.09-3.29c.25-1.35.46-2.69.64-4s.33-2.55.46-3.65a10.79,10.79,0,0,0,.14-2.11l-1.32-20.61q-.51-3.39-.95-7c-.29-2.42-.71-4.9-1.24-7.44-.94-4.18-1.87-8-2.79-11.61s-1.71-6.52-2.37-8.89q-1.41-3.25-2.88-6.27A45.6,45.6,0,0,0,415,66.29a13.74,13.74,0,0,0-1.25-1.54,11.91,11.91,0,0,0-1.19-1.1L410.66,63c-.64-.21-1.36-.41-2.14-.6q-3.21-.21-6.61,2.85a32.85,32.85,0,0,0-4.66,7.42,23.77,23.77,0,0,0-2.17,5.88q-1,6.86-1.86,11.73c-.56,3.25-1,6.55-1.33,9.92a92.37,92.37,0,0,0-.26,11.72q.21,6.68,1.1,16.95c.42,1.78.85,3.38,1.29,4.77a8.84,8.84,0,0,1,.57,3c.31,1,.57,2,.78,2.89s.39,1.79.53,2.69c.54,1.62,1.06,3,1.55,4.28a6.29,6.29,0,0,0,2,2.81,3.11,3.11,0,0,1,1.3-.43,3.54,3.54,0,0,1,1.4.25,2.6,2.6,0,0,1,.73.36l0,.22a20.49,20.49,0,0,0,4.62-1.74,10.52,10.52,0,0,0,3.71-3.23c.25-.34.18-.75-.19-1.24a6.59,6.59,0,0,0-1.57-1.38,14.66,14.66,0,0,0-2-1.09,7.16,7.16,0,0,1-1.23-.62,2.24,2.24,0,0,1,1.32,2.69,2.05,2.05,0,0,1-2.47,1.65l-.7-.12a2.46,2.46,0,0,1-1.9-2q-1.16-3.06,0-4.51a4.33,4.33,0,0,1,3.15-1.63,9.17,9.17,0,0,1,4.44.82,10.14,10.14,0,0,1,4,2.87,6.27,6.27,0,0,1,1.37,4.54c-.11,1.79-1.14,3.68-3.11,5.67a5.76,5.76,0,0,1-2.68,1.8,23,23,0,0,0-3,1.15,13.61,13.61,0,0,1-3.15.94l-3.22.49a46.49,46.49,0,0,1-6.24,1.52q-3.65.68-7.3,1.23c-2.45.37-4.78.69-7,.95s-3.94.48-5.13.66l-1.33.2q-4.92.52-9.32,1.42a13.78,13.78,0,0,1-6,2.3,2.64,2.64,0,0,1-2.62-1.57c-.55-1.07-.21-2.08,1-3l4.59-1.16q4.17-2.49,5.53-8.47a40.16,40.16,0,0,0,1-11.71Zm-7.1-63.22a3.08,3.08,0,0,0,.43,1.32L369.77,57l3.29-.73a41.32,41.32,0,0,0-7.47.9Q361.74,58,358,59ZM360.16,67a1.64,1.64,0,0,0,.21.66,1.63,1.63,0,0,1,.22.66l14.34-7.26,0-.23L359.63,65A7.33,7.33,0,0,1,360.16,67Zm1.73,32.35a20.29,20.29,0,0,1-.72,2c-.28.66-.52,1.31-.73,2a13.35,13.35,0,0,1,2.24,1.28Zm13.74-29.15a16.27,16.27,0,0,1-.19-2c0-.61,0-1.31,0-2.09l0-.22-13.93,7,.34,2.26Zm-12.2,13.88a8.07,8.07,0,0,0,.79,2.19l7.53-2.76-.67.1,5.83-2,0-.23a4.12,4.12,0,0,1-.72-1.74l0-1.39A53.45,53.45,0,0,1,369.79,81c-2.16.79-4.29,1.66-6.42,2.6Zm2.21,7.06a1.05,1.05,0,0,0,.18.44A1,1,0,0,1,366,92l11.54-4.76-.06-.46Zm1.24,5.14a1.5,1.5,0,0,0,.21.66,1.63,1.63,0,0,1,.22.66l11.23-3.79-.34-2.26c-1.44.53-2.8,1-4.08,1.55l-3.86,1.51a.62.62,0,0,0-.41.29Zm.63,5.68a4,4,0,0,1,0,1.62l11.76-4.79-.1-.68Zm.42,8.73q3.82-1.74,7.16-2.94t5.49-2l-.38-2.49c-2.15.79-4.26,1.62-6.32,2.47s-4.16,1.75-6.29,2.69Zm2.65,39.84c-.31,1-.62,1.91-.94,2.8a17.58,17.58,0,0,1-1.19,2.62l2.88-.44Zm-1.21-33.35,12.33-5.57-.18-1.13-12.9,4.73Zm14.2,5.24-.38-2.48-12.87,5,.44,2.94Zm1.54,7.17a7.44,7.44,0,0,0-.53-2l-12.24,7.64ZM388.28,140a4.64,4.64,0,0,0-.43-1.32,4.31,4.31,0,0,1-.43-1.33L374.12,144l.48,3.16ZM391,147.2l-.61-1.07c-2.43,1-4.92,2-7.5,3s-5.06,2.08-7.46,3.22l.24,1.58Zm-11.1-91.07a2.08,2.08,0,0,0-.91,1.53,7,7,0,0,0,.09,2.07,9,9,0,0,1,.85-1.87c.37-.59.73-1.23,1.08-1.9Zm3.22,28.66,0,.22,6-2.52ZM387.66,91A23.84,23.84,0,0,1,388.1,88l-4.53,1.61.38,2.48Zm-3,5.55.63-.33-.67.1Zm6.25-20.15a28.69,28.69,0,0,1,1.05-2.82,27.92,27.92,0,0,1,1.3-2.63l-4,1.78-4.35,5.74Zm-4.08,24a4,4,0,0,1-1.71.72l.48,3.17,1.3-.43Zm-.66,9.12.63-.33a.48.48,0,0,1,.06-.35.51.51,0,0,0,.06-.36,1,1,0,0,0-.42.18,1,1,0,0,1-.43.18Zm1.33,10.21a.85.85,0,0,1,0-.47,1.75,1.75,0,0,0,0-.7l-.23,0Zm30.77-59a3.51,3.51,0,0,0-1.42-.36,4.24,4.24,0,0,1-1.16-.17l.84,1Zm11.93,6.75a4.26,4.26,0,0,1-.95-1,4.62,4.62,0,0,0-1-1l-5.73,4.11.87,1.26Zm7.07,7.71a9.93,9.93,0,0,0-1.42-1.87c-1.53.86-3.06,1.74-4.59,2.67s-3,1.89-4.55,2.89Zm5.12,8.24a8.84,8.84,0,0,0-1.27-2.35q-5.49,2.7-12,6.45l.06.45,1.49-.69ZM430.58,94l4-2.22-4.08,1.55Zm1,5.17,4.9-2.13c1.13-.48,2.49-1,4.08-1.55s3.15-1.17,4.71-1.87l-.34-2.26c-2.11,1.09-4.29,2.2-6.54,3.31s-4.56,2.39-6.92,3.82Zm.82,5.43.1.67a50.87,50.87,0,0,1,4.61-2.54Zm2.16,11.23q6.31-3.27,12.74-5.86a.43.43,0,0,1,.06-.36.49.49,0,0,0,.06-.36L440.58,112q-3.21,1.31-6.18,2.67Zm.76,5a8.9,8.9,0,0,1,.06,1.14,9,9,0,0,0,.09,1.38L448.15,117a9,9,0,0,0-.32-1.34,2.88,2.88,0,0,1-.09-1.37l-6.32,3.27C439.32,118.65,437.28,119.73,435.33,120.8Zm.24,21c.84-.44,1.68-.91,2.51-1.42s1.65-1.07,2.47-1.65a11.16,11.16,0,0,1-2.47.95,23.47,23.47,0,0,0-2.28.69Zm.24-14.84a12.41,12.41,0,0,1,.19,2.75l13.16-7.56L449,121c-2.43,1-4.7,1.94-6.83,2.88S437.92,125.88,435.81,127ZM447,104.69l-.14-.9-9.09,4.38-1.9,1Zm2.7,25.26a13.14,13.14,0,0,0,0-2.78L436.12,135c1.14-.48,2.21-1,3.2-1.41s2.05-.93,3.19-1.41Zm.58,11.25c-.07-.45-.15-.94-.23-1.47a7.06,7.06,0,0,1,0-1.73l-4.13,2.71-7.7,4.64a10.45,10.45,0,0,1,1.57-.13,7.66,7.66,0,0,0,1.35-.09l.26.2Zm8.07.85a11.83,11.83,0,0,1-3.5-3.63,19.75,19.75,0,0,0,.07,3.46l.21,1.36Z"/>
        <path d="M455.5,28.84q3.39.24,4.86,2.08A6.67,6.67,0,0,1,462,34.6a11.83,11.83,0,0,1,.66,4.88,17,17,0,0,1-1.12,5.12,12.94,12.94,0,0,1-2.76,4.31,10.93,10.93,0,0,1-4,2.66,2.23,2.23,0,0,1-2.42-.75,2,2,0,0,1-.26-2.28,2.69,2.69,0,0,1,1.24-1.68.21.21,0,0,1,.21-.25h.22c1.3-.85,2-1.58,2-2.19s-.34-1-1.1-1.31a6.54,6.54,0,0,1-3.42-.69q-4.16-1.56-4-5.47a8.81,8.81,0,0,1,2.95-6.38,14.11,14.11,0,0,1,1.27-1.23C452.05,28.84,453.39,28.67,455.5,28.84Zm-.6,4.62c-.15,0-.38-.12-.7-.41a2.12,2.12,0,0,0-1.52.79c0,.15.57.65,1.67,1.49a2.22,2.22,0,0,1,2.72.28C456.53,34.27,455.81,33.55,454.9,33.46Z"/>
        <path d="M516.1,83.71q-6.94-1.87-7.94-5.08a6.74,6.74,0,0,1,1.49-6.39,32,32,0,0,0,2.18-9.37,29.85,29.85,0,0,0-.94-11.21,8,8,0,0,0-2.34-4.24,8.07,8.07,0,0,0-6.72-2.21,3.4,3.4,0,0,0-2.37,1.13A31.58,31.58,0,0,0,496.05,54a47.12,47.12,0,0,0-1.84,8.8q0,3,.19,6.29t.19,6.06a16.39,16.39,0,0,0,1.22,3.43,23.88,23.88,0,0,0,1.89,3.22,31.24,31.24,0,0,0,6.82,4.72,67.26,67.26,0,0,0,7,3q3.46,1.27,6.83,2.21a28.8,28.8,0,0,1,6.28,2.55,17.26,17.26,0,0,1,8.71,8.28,21.82,21.82,0,0,1,3.09,8.93A34.5,34.5,0,0,1,534,126.56a35.39,35.39,0,0,1-7.81,11.74A33.64,33.64,0,0,1,515,145.67a25.36,25.36,0,0,1-12.47,1.76,28.75,28.75,0,0,1-14-4.42,23.25,23.25,0,0,1-9.71-11,31.12,31.12,0,0,1-2.64-8.7,37.19,37.19,0,0,1,0-8.23v-.23a7.13,7.13,0,0,1,.46-2.06,2.57,2.57,0,0,1,.23-1.14l.23-.23a12.07,12.07,0,0,1,3.39-4.9q2.25-1.92,4.05-1.46a14.88,14.88,0,0,1,5.4-1.11,10.51,10.51,0,0,1,4.14,1.51,15.1,15.1,0,0,1,3.8,3.22,11.27,11.27,0,0,1,2.34,4.24,5.48,5.48,0,0,1-.48,4.34v.46a24.56,24.56,0,0,0-2.27,5.13,22,22,0,0,0-1,5.83,23.42,23.42,0,0,0,.42,5.72,8.4,8.4,0,0,0,2.1,4.35,9.59,9.59,0,0,0,5.61,2,24.71,24.71,0,0,0,8.31-.76,38.41,38.41,0,0,0,1.51-9.37,82,82,0,0,0,0-11.43v-.23a38.27,38.27,0,0,1-1.31-7.09,25,25,0,0,0-7.8-9.88,28.13,28.13,0,0,1-3-2.19,12.17,12.17,0,0,0-2.13-1.5l-7.84-2.78a18.28,18.28,0,0,1-6.83-2.9,23.92,23.92,0,0,1-5.7-5.4,27.49,27.49,0,0,1-7-13.07A27.86,27.86,0,0,1,473.12,59a27.5,27.5,0,0,1,6.35-10.6,30.36,30.36,0,0,1,9.69-6.81,34.42,34.42,0,0,1,11.47-2.8A31.54,31.54,0,0,1,512.07,40h.23c1.49.31,3,.7,4.48,1.17a16.18,16.18,0,0,1,4,1.85,19.82,19.82,0,0,1,8.6,7.82q3.23,5.28,4.08,14a26.49,26.49,0,0,1-.6,7.2,13.39,13.39,0,0,1-3.06,6.27,13,13,0,0,1-5.31,4.77A11.88,11.88,0,0,1,516.1,83.71ZM489.74,59.55l-9.23,3.38-4.05,2a1.11,1.11,0,0,1-.11.46,1,1,0,0,0-.12.45q3.38-.88,6.64-1.91c2.17-.67,4.3-1.38,6.41-2.13ZM476.43,70a7.13,7.13,0,0,0,.22,2.06c1.65-.91,3.34-1.81,5.06-2.72s3.49-1.81,5.29-2.71q-3.15.9-5.5,1.68c-1.58.53-2.89.94-3.94,1.24A4,4,0,0,1,476.43,70Zm1.18-10.74,13.28-4.5v-.23l-12.59,2.9Zm.14,17.15q2.91-.9,5.73-1.69c1.87-.52,3.78-1.15,5.74-1.91a7.08,7.08,0,0,1-.22-2.06l-6,2.6a39.72,39.72,0,0,0-5.29,2.83Zm2.88,5.73,9.46-5.21v-.22l-10.57,3.83Zm.28,32.93a2.49,2.49,0,0,0,.21,1.15l4.74-3.06a26.47,26.47,0,0,0,4.28-3.53,30.51,30.51,0,0,0-4.27,1.47,28.74,28.74,0,0,1-4.5,1.46A4.8,4.8,0,0,0,480.91,115.07Zm12.26-67.16-8.77,2.24-.9.22a5.78,5.78,0,0,0-1.24,1.14q-.57.68-1,1.14a53.87,53.87,0,0,0,5.51-1.23q2.81-.8,5.73-1.69Zm-11.19,77a4.81,4.81,0,0,1,.33,1.15,2,2,0,0,0,.55,1.14v.23l9-4.52a25.41,25.41,0,0,1-3,.67,10.27,10.27,0,0,1-3,0Zm10.08,2.8-7.43,3.85a26,26,0,0,0,3.71-1.24c1.28-.52,2.52-1,3.72-1.47Zm3.44-12.56a4.25,4.25,0,0,0,0-2.74,51.53,51.53,0,0,1-5.07,3.29c-1.72,1-3.49,2-5.29,3a.55.55,0,0,1,.34.12.42.42,0,0,0,.33.12l8.77-2.47A5.48,5.48,0,0,0,495.5,115.15ZM486.41,135c0,.15,0,.23.11.23s.11.07.11.23l2-1.14h-.45Zm2-47.1,5.64-4.09c0-.15-.08-.22-.23-.22a16.2,16.2,0,0,0-2.81,1.58c-1.13.76-2.29,1.51-3.49,2.27Zm6.08-44.1a38.87,38.87,0,0,0-5,2.26l4.28-1.35Zm-1.85,93.52-2.48,1.58a.63.63,0,0,0,.45.24l2.47-.91Zm11-43.16A11.26,11.26,0,0,1,502,94a12.52,12.52,0,0,0-1.68-.12l1.57.7Zm-.43-3.89a4,4,0,0,1-1.13.45,12.54,12.54,0,0,0,2.92.24Zm3.78,6.88a9.54,9.54,0,0,1,2,1.15l8.1-2.47a8.18,8.18,0,0,0-2-.58c-.6-.08-1.27-.2-2-.36Zm3.2-53.27.23.23.22-.22Zm2.07,32.94a3.83,3.83,0,0,0,1.8-1.13A32.7,32.7,0,0,0,518,73.2c1.21-.91,2.48-1.82,3.84-2.73a20.61,20.61,0,0,0-4.73,1.46,11.33,11.33,0,0,0-3.38,2.16l-1.35,2ZM514,103.36a47,47,0,0,1,4.73-2.49l5-2.26c-.3-.31-.53-.46-.68-.46l-10.34,3.37Zm.74-52.59,5.85-3.4a2.27,2.27,0,0,0-.78-.58,5.29,5.29,0,0,1-.78-.34l-5.4,1.8Zm.3,27.67a.89.89,0,0,0,.67.23l11-3.83A4,4,0,0,0,526,73Zm13.11-17.08a5.82,5.82,0,0,1-.21-1.83q-2.7,1.13-6.08,2.94T516,65.41a.68.68,0,0,1-.23.46Zm-12.32-5.1,9.45-3.61a10.69,10.69,0,0,0-1.11-2.06h-.22l-8.12,5ZM517.08,110q2.92-1.12,6-2.6t6.19-2.82a.52.52,0,0,0-.11-.35.4.4,0,0,1-.11-.34l-1.57-1.84-11.25,5.43Zm-.85-49.86v.92l2.93-2Zm8.36,72.77a5.26,5.26,0,0,0,1.81-1.82L518.75,134l-.92,3.88a19,19,0,0,0,5-3.4l.9-.91.9-.91ZM518,114.13a2,2,0,0,1,.22.69.68.68,0,0,0,.22.46l12.83-6.34v-.23Zm.86,6.64a2.46,2.46,0,0,0,.11.8,2.71,2.71,0,0,1,.11.8,62.76,62.76,0,0,0,6.19-2.83,45.6,45.6,0,0,1,6.64-2.82A1.6,1.6,0,0,1,532,116a1.48,1.48,0,0,0,.12-.68V114q-2.48,1.13-6.07,2.94T518.82,120.77Zm10.09,2.34c-1.5.75-3.08,1.51-4.73,2.26a33.14,33.14,0,0,1-4.94,1.8v1.37Zm-3.29-56a.67.67,0,0,0,.45.24,1.74,1.74,0,0,1,.67.23l1.58-.91v-.46Z"/>
        <path d="M656.79,109.85a2.75,2.75,0,0,1,1.43,1.93c4,1.29,6.43,3.65,7.26,7.09l.47,1a6.79,6.79,0,0,0,.84,2.62,3.89,3.89,0,0,1,.35,2.76,14.71,14.71,0,0,1-.93,5.65c-.7,1.88-1.46,3.74-2.3,5.59q-6.09,11.83-16,16.33a9.66,9.66,0,0,1-3.1,1.7c-1.15.39-2.32.85-3.49,1.38a63.64,63.64,0,0,1-10.89,2.79,50.49,50.49,0,0,1-11.81.6,32.12,32.12,0,0,1-11.13-2.75,20.92,20.92,0,0,1-8.77-7.52,67.73,67.73,0,0,1-6.37-11.93,93.13,93.13,0,0,1-4.6-13.9,111.86,111.86,0,0,1-2.54-14.42A66.55,66.55,0,0,1,585,95.34a69.42,69.42,0,0,1,1.34-9.88,92.15,92.15,0,0,1,2.87-10.62q1.79-5.34,4-10.39t4.38-9a16.78,16.78,0,0,0,1.59-3.29c.38-1.09.74-2.1,1.08-3a15.32,15.32,0,0,1,1.37-2.75,14.55,14.55,0,0,1,2.27-2.69,28.93,28.93,0,0,1,9.2-6.27,109,109,0,0,1,10.55-3.91q4.85-1.34,9-2.11a30.16,30.16,0,0,1,8.44-.37c.35-.24.6-.34.75-.31a1.67,1.67,0,0,0,.7-.09L646,31.76a27.36,27.36,0,0,1,11,5.53,11.93,11.93,0,0,1,2.55,1A15.48,15.48,0,0,1,664.11,43a36.25,36.25,0,0,1,3.27,6.39,30.67,30.67,0,0,1,1.88,7,53.94,53.94,0,0,1,.58,6.66,28.07,28.07,0,0,0,.11,3.4c.1,1.35.17,2.69.2,4a17.28,17.28,0,0,1-.34,3.89,7.43,7.43,0,0,1-1.33,3.12l0,.22c-.46,1.46-1,3-1.5,4.48a7,7,0,0,1-2.67,3.54,6.88,6.88,0,0,1-5.39,1.69,35.84,35.84,0,0,1-5.72-1.18,21.19,21.19,0,0,1-7.7-3.8,14.29,14.29,0,0,1-3.92-4.89,9.45,9.45,0,0,1-.88-5.2,10.29,10.29,0,0,1,1.91-4.86,73.73,73.73,0,0,0,1.73-9,43,43,0,0,0,.19-9.3,39.46,39.46,0,0,0-.78-5.65,5.2,5.2,0,0,0-3.41-4.08l-.22-.05a6.78,6.78,0,0,1-1.63.72c-.74.24-1.52.5-2.34.8s-1.61.57-2.35.8a3.09,3.09,0,0,0-1.41.76,27.91,27.91,0,0,0-5.76,10.14,51.9,51.9,0,0,0-1.94,10.58q-.42,5.4-.69,11.18a64.05,64.05,0,0,1-1.78,12c-.76,3-1.63,6-2.59,9.28s-1.9,6.42-2.77,9.58-1.61,6.13-2.18,8.89a40.47,40.47,0,0,0-.91,6.7q0,5.39-.3,11.5a40.16,40.16,0,0,0,1,11.76l1.48,1.71a35.27,35.27,0,0,0,2.86,3.39,11.52,11.52,0,0,0,2.87,2.22,13.77,13.77,0,0,0,5.11-.93,22.94,22.94,0,0,0,4.74-2.42,15,15,0,0,0,1.16-1.74c.36-.63.76-1.28,1.21-2q1.65-2.46,2.83-8.76t2.34-13.06a12.66,12.66,0,0,1-.18-2.48,15.07,15.07,0,0,1,.31-2.62,2.58,2.58,0,0,1,.77-2.65,15.62,15.62,0,0,1,1.66-2.46,6.36,6.36,0,0,1,3.32-2.23,15.27,15.27,0,0,1,4.26-.65c1.45,0,2.85,0,4.21.17S655.88,109.82,656.79,109.85ZM590.37,96.2a18.63,18.63,0,0,1-1-3l-.44-.1,0,2.33a3.39,3.39,0,0,0-.06,1.39l1.46-.4ZM592,122.91a1.31,1.31,0,0,0,.26,1l6.62-1,6.62-1a5.26,5.26,0,0,0,.09-1,5.21,5.21,0,0,1,.1-1q-3.36.7-6.82,1.4T592,122.91Zm.77-7.08a5.36,5.36,0,0,1-.32,1,5.19,5.19,0,0,0-.31,1,24.3,24.3,0,0,1,5.3-1.24,52.4,52.4,0,0,0,5.47-1c-1.85.09-3.62.11-5.29.08A42.67,42.67,0,0,0,592.75,115.83Zm1,13a5.45,5.45,0,0,0,.6,1.52l11.31-2.58-.13-.49c-2.21.32-4.28.56-6.22.7A35.71,35.71,0,0,0,593.74,128.88Zm.91-33.44q4.1-1,7.88-2.11c2.52-.73,5-1.46,7.45-2.21l-16.15,1.59Zm-.26,9.06-.46,2.24,5.61-1.65,3.18-1ZM611.25,86l.56-2.69-9.1,1.87q-4.55.93-8.65,2l0,.23c2.36-.3,4.62-.53,6.8-.71l5.82-.44Zm-16.54-7.61a14,14,0,0,0-.26,1.82c-.05.61-.08,1.31-.08,2.08,3-.77,6.16-1.53,9.29-2.29s6.22-1.44,9.25-2.07q-5-.09-10-.06A61.23,61.23,0,0,0,594.71,78.41Zm0,21.25q3.48-.22,6.92-.21t6.65,0l.79-3.81-5.52,1.2-8.79,2.63Zm1,34.28,0,.23c3.77-.47,7.23-1,10.41-1.6a.68.68,0,0,1-.12-.49,1.76,1.76,0,0,0-.09-.72l-10.37,2.54Zm7.65-64a31.08,31.08,0,0,0-3.22.63,34.59,34.59,0,0,1-3.93.71l0,.22c1.27-.21,2.46-.43,3.58-.67S602,70.27,603.33,69.91Zm3.27,39.89a7.14,7.14,0,0,0,.14-1.25,6.3,6.3,0,0,1,.14-1.25c-1.18.53-2.27,1-3.27,1.42a11.25,11.25,0,0,1-2.92.81l-3.44,1.16a33.7,33.7,0,0,0,4.65-.33C603.47,110.14,605,110,606.6,109.8Zm-8.43-44.91a5,5,0,0,1-.31,1,5.36,5.36,0,0,0-.32,1l18.12-1.18a16.33,16.33,0,0,1,.82-2.87q-4.68.45-9.22.79A75,75,0,0,0,598.17,64.89Zm-.37,73.22.65,1.3,3.45-1.16a23.65,23.65,0,0,1,3.62-.89Zm2.94-79a1.36,1.36,0,0,0-.41.85c2.83-.35,5.71-.65,8.67-.9s5.92-.54,8.89-.86l0-.23-17,.47Zm8.79,83.28-.35-.54-7.68,1.69a.62.62,0,0,0,.39.32Zm-6.46-87.94,16.49-1,1.35-3.23-8.38,1.2c-2.92.41-5.73.89-8.43,1.42Zm5.62-7.25c0,.15-.09.22-.16.2s-.13.06-.16.21l1.63-.14Zm2.58,62.17a21.25,21.25,0,0,1,.57-2.22,21.25,21.25,0,0,0,.57-2.22l-.75.31c-.16.75-.3,1.46-.44,2.13a11.41,11.41,0,0,0-.22,2.18Zm6.23,43.3a9.91,9.91,0,0,1-2.8-2c-.65.18-1.25.33-1.81.44s-1.17.27-1.81.45a14,14,0,0,0,3,.74C615.17,152.46,616.3,152.58,617.5,152.67Zm-6.4-79.29,2.73.09,0-.22Zm4.76,20.35a4.8,4.8,0,0,0-1.94.54l-1,4.93a.87.87,0,0,0,.57,0,.89.89,0,0,1,.58,0Zm-2.74-50.28,11.77-.39a17.27,17.27,0,0,1,1.63-2.35c.61-.73,1.21-1.42,1.81-2.08l-11.92,2.22Zm5.1,42.13a14.06,14.06,0,0,1,.48-1.77,6.85,6.85,0,0,0,.3-2l-2.43.67-.69,3.36a7.23,7.23,0,0,1,2.29,0ZM619.65,73a1.75,1.75,0,0,0-1.14,0l-.09.45h1.14Zm27.11,74.43-9.39,1.11-1.25,1.61-.89,1,10.11-2.36Zm-5.62-7.22,11.17-1.91.13-.67-11,1.23ZM652.23,132a8.69,8.69,0,0,1-3.57.67,16.6,16.6,0,0,0-3.09.53,20.56,20.56,0,0,1-2.87.58l-.1.45,10.89-.57.42-2Zm-8-14.71.3.76-.09.45c1.59-.3,3.16-.52,4.72-.66A28.68,28.68,0,0,0,654,117Zm17.64-46.8a4,4,0,0,0-1-.68l-7,1.94q-3.65,1-7.27,1.89l.29,1.93q3.45-1.16,7.41-2.56T661.89,70.51ZM647.12,40.86a6.19,6.19,0,0,0,1.77-.8,14.57,14.57,0,0,1,1.82-1,.91.91,0,0,1-.62-.36l-3.44,1.16ZM648,61.34a4,4,0,0,0-.08.92,4,4,0,0,1-.07.92L657,59.7Zm.65,66,.22,0,.27-.18Zm.2-72.33a.94.94,0,0,0,0,.47,1.08,1.08,0,0,1,0,.47q3.61-.89,7.46-1.73t7.91-1.65l-.69-2.24Zm.51,87.88a3.34,3.34,0,0,0,1.41-.17Zm7.27-101.22-7,4.16,9-2.37-1.7-1.75ZM654.25,82c.12.18.47.33,1.06.45l1.81-1Zm1.51,59.61-.71.09a1.39,1.39,0,0,1-.4.85l.22,0Zm5.17-21.82a12.89,12.89,0,0,0-2.19.6,11.36,11.36,0,0,1-2.18.6,6.26,6.26,0,0,0-.87.3,6.21,6.21,0,0,1-.86.28l6.53-.52Zm-4.34,17.79,1.68-.36-1.64.13Zm5.22-7.57-3.62.89-.55,2.69,2.77-.13ZM659.57,64a3.88,3.88,0,0,1,.85.29,3.52,3.52,0,0,0,.86.3l4.33-1-.17-1.44-2.67.74a16,16,0,0,0-2,.65Z"/>
        <path d="M724.75,103.71a53.2,53.2,0,0,0-1.21-12.23,12.26,12.26,0,0,0-4.63-7.37L718.7,84a1.33,1.33,0,0,1-1.29.27,11.22,11.22,0,0,0-6.93,6,14.87,14.87,0,0,0-1.66,7.91l0,2a6.82,6.82,0,0,1,.86,2.25,19.06,19.06,0,0,1,.29,5.82,7.88,7.88,0,0,1-2.11,5.2,14.15,14.15,0,0,1-7.54,4.69,16.9,16.9,0,0,1-8.42-.11,17.67,17.67,0,0,1-7.29-4,11.87,11.87,0,0,1-3.9-6.75,10.28,10.28,0,0,1,.23-5.26,11.65,11.65,0,0,1,2-3.65,35.22,35.22,0,0,1,3.92-7.58,37.06,37.06,0,0,1,9.54-9.93,22.78,22.78,0,0,1,7.9-3.72,22.4,22.4,0,0,1,8.87-.45q9.84,1.83,17.32,3.92a24.78,24.78,0,0,1,12.37,7.73q5.93,4.08,7.63,9.31t0,14.58a27.27,27.27,0,0,1-.94,6.59,45,45,0,0,1-2.13,5.91,15.23,15.23,0,0,1-.87,3.09,14.17,14.17,0,0,0,.12,4.3,10.12,10.12,0,0,0,1.84,4.18,9.28,9.28,0,0,0,2,2.32q1.29,1.07,2.82,2.1a18.45,18.45,0,0,0,3.5,2.23,2.48,2.48,0,0,1,.29,3.15c-.67,1-1.68,1.14-3,.49q-4.21-2.25-7.37-1.08a12.75,12.75,0,0,0-5.53,4.09,28.19,28.19,0,0,0-4,6.82c-1.09,2.61-2.1,5-3,7.06q-1.25,3.44-2.18,6.38a49.09,49.09,0,0,0-1.64,7.55,22.33,22.33,0,0,1-.58,2.59,12.49,12.49,0,0,0-.44,2.88,6.86,6.86,0,0,0,.46,2.72,3.42,3.42,0,0,0,2.18,1.88c.23.24.39.34.49.29a1,1,0,0,1,.57.09l.85.3a7.17,7.17,0,0,1,.85-.06,6.14,6.14,0,0,1,1.41.39,2.35,2.35,0,0,1,1.28,2.77,2,2,0,0,1-2.33,1.47q-3.58-1.29-5.67-1.8c-1.39-.33-2.63-.66-3.71-1s-2.21-.59-3.39-.85-2.78-.68-4.8-1.25q-4.82-1.23-11.11-3.26a118.67,118.67,0,0,1-11.86-4.51,25.3,25.3,0,0,1-5.77-1.23,36.72,36.72,0,0,1-7.33-3.49,2,2,0,0,1-1-2.54,2.8,2.8,0,0,1,2.55-1.76,7.37,7.37,0,0,1,1.76.39l1.91.69A13.1,13.1,0,0,0,699,168.06a3.83,3.83,0,0,0-.45-2.71,6.65,6.65,0,0,0-2.27-1.66,35.87,35.87,0,0,1-13.58-4,17.51,17.51,0,0,1-8.45-9,10.3,10.3,0,0,1-.79-9.76,45.57,45.57,0,0,1,6-10.61,14.8,14.8,0,0,1,6.65-4.9,20,20,0,0,1,8.6-.67,117.51,117.51,0,0,1,12,2.13c1.17.26,2.91.52,5.2.78a7,7,0,0,0,5.49-1.31q2.11-1.91,3.69-6.93t3.31-11.21ZM696.24,149.1a5.44,5.44,0,0,1-1.61-.82l-15.3.08.19.8ZM689,140.16a4,4,0,0,1,0-1.22l-7.88-.65a.92.92,0,0,0-.71,0l-.77,2.16,3.84-.08ZM686.14,154q5.18.17,10.31.19t10.52.26l.78-2.15-25.57.77.69.73Zm17-20.62,1.53.06a6.32,6.32,0,0,1,1.66.35c1.62-.06,3.21-.06,4.77,0l4.69.23.39-1.08a13.09,13.09,0,0,1-7.23.2c-2.81-.61-5.67-1.27-8.59-2-2.42.1-4.83.17-7.23.19l-6.94.06a13.47,13.47,0,0,0-3.27,2.46q2.55.19,5,.24c1.66,0,3.37,0,5.13,0Q696.44,132.64,703.1,133.35Zm-14-22.78a9.87,9.87,0,0,0,5.84,2.34,11.09,11.09,0,0,0,5.36-1Zm14.66-7.6-13.83-1.34a.2.2,0,0,1-.29.14,66.59,66.59,0,0,0,7.29,1.29c2.36.28,4.84.57,7.45.85Zm7,42.14c.26-.72.56-1.46.92-2.22s.66-1.51.92-2.23l-.21-.07a4,4,0,0,1-1.85-.18,9.85,9.85,0,0,1-1.82-.9c-.71-.25-1.42-.47-2.15-.65s-1.48-.33-2.23-.44q-1.85-.18-3.3-.45a11,11,0,0,0-2.66-.23c-3,.85-4.75,1.93-5.22,3.22a5.69,5.69,0,0,0,2.48,3.08,31.21,31.21,0,0,0,7.89,2.6l2.79-.46a5.93,5.93,0,0,0,1.87-.54,8.21,8.21,0,0,1,1.65-.62.88.88,0,0,0,.46,0A1,1,0,0,1,710.8,145.11ZM694,89.72l5.43.5A53.89,53.89,0,0,1,705,91l.46-1.29c-2.13-.28-4-.5-5.6-.68s-3.1-.34-4.47-.51Zm5.68,83.7a13.08,13.08,0,0,1-3,1.61,1.3,1.3,0,0,0,.92.09A11,11,0,0,0,699.66,173.42ZM708,85.28A5,5,0,0,1,709.17,84a13.66,13.66,0,0,0,1.38-1.2,5.64,5.64,0,0,1-1.77-.39l-1.49.19a14.18,14.18,0,0,0-6.47,2.05c1.23.12,2.35.2,3.37.24s2.07.1,3.17.16Zm15.7,93.63c-3.12-.15-6.48-.23-10.06-.22s-7.06.05-10.43.14l6.76,2.43,13-.41Zm-19-6.12a9.43,9.43,0,0,0-1,2.08c3.51,0,7.05,0,10.61,0s7.15.11,10.81.13l.7-1.94-1.85-.18q-1.85-.18-7.51,0T704.66,172.79Zm27-14.6-15.23-.13-6.26.17-.62,1.73c3.45.11,7,.19,10.52.26s7.13.18,10.74.34Zm-19.87-4.47,7.27-.31c2.42-.1,4.82-.12,7.19-.08l-14.07-.69Zm4.82-11.4a10.15,10.15,0,0,1-.57,1.26,7.4,7.4,0,0,0-.57,1.25c3.56-.18,7-.22,10.42-.14s6.65.21,9.78.36L736,144q-5.67-.81-10.1-1.08c-3-.17-5.27-.4-6.92-.67Zm22.87-8.53q-4.61-.45-9.12-.85l-9.12-.85-.92,2.58,18.62.62Zm-14.94-10.24,5.77-.11,12.51.37a1.48,1.48,0,0,1,.34-.61,1.66,1.66,0,0,0,.34-.61q-5-.59-9.65-1c-3.08-.29-5.73-.44-8-.43Zm1.32,62.69-.13-.29-.08.21ZM727,117.39l3.27.2,14.2,1a6.11,6.11,0,0,0,.41-1.79q-4.27-.09-8.79-.13t-8.94.31Zm9.08-25.9a33.79,33.79,0,0,1-4-.72l-3.95-.94.72,2Zm-7.82,36.32,12.68,1.89.61-1.73ZM742,112.1l-7.24-.78q-3.33-.34-6.18-.4a1.7,1.7,0,0,0-.13.69,1.61,1.61,0,0,1-.12.68Zm-12.29-5.63q0,.51-.09.57c-.1,0-.13.24-.09.58l16.32,1.74,0-2-.13-.29c-2.66-.15-5.39-.28-8.21-.4S732.09,106.51,729.72,106.47Zm13.8-9.86q-3.35,0-6.83.09t-6.91.31c2.32.19,4.68.35,7.1.49s4.88.26,7.39.35Zm-13.44,4.88a1,1,0,0,1,0,.73l14.52.11Zm7.59,37.25-2.42.1a21.52,21.52,0,0,1-3.27-.21l5.46.75Zm6-1.48c-.31.86-.58,1.73-.82,2.62s-.49,1.69-.75,2.4a10,10,0,0,1,4.18-1.65A10.49,10.49,0,0,1,743.69,137.26Z"/>
        <path d="M805,217.28c-1.29.19-2.12-.07-2.5-.79a2.54,2.54,0,0,1,.16-2.5c-1.22-2.86-2.32-5.75-3.33-8.69s-2-5.92-2.91-9l-9.91-28.62-3.61,7.92q-1.82,4-3.52,8.22-1.44,5.19-3,9.8a24.39,24.39,0,0,1-3.18,6.85,16,16,0,0,0,.15,6.53c.49,2,2,3.45,4.53,4.42a3.07,3.07,0,0,1,1.28,3.37c-.27,1.5-1.07,2.07-2.41,1.71a50.7,50.7,0,0,1-11.58-4.74q-5.18-3-10.19-6T744.6,200a61,61,0,0,0-11.78-4.59l-.5-.51q-.65-2.65,1.49-3.35a2.72,2.72,0,0,1,2.14-.69,7.36,7.36,0,0,0,5.81-.72,21.07,21.07,0,0,0,5.09-4.18,37,37,0,0,0,4.27-5.77c1.25-2.09,2.38-3.92,3.35-5.47l4.76-9.13q6.66-13.29,13.12-26.42t13-26.73a81,81,0,0,1,4.54-8.47q2.3-3.69,4.41-7.75c.88-3.32.56-6-1-8.11a17.64,17.64,0,0,0-7-5.31,1.91,1.91,0,0,1-1.13-1.24,6.81,6.81,0,0,1,0-1.93l.52-.51a1.87,1.87,0,0,1,2.23-.89c1.54.28,4.64,1.47,9.3,3.54s9.58,4.44,14.8,7.07,10.09,5.17,14.64,7.62,7.37,4.22,8.49,5.32q2,1.55.84,2.76a2.22,2.22,0,0,1-.65,2,2,2,0,0,1-2.33.34,11.75,11.75,0,0,0-7.19-.78,13.42,13.42,0,0,0-5.76,3.05,28.94,28.94,0,0,0-4.67,5.31c-1.39,2-2.65,4-3.76,5.77l-.72.41q-1.26,2.43-2.21,4t-1,1.77q-3.69,6.6-7,13l-6.49,12.48,17.59-6.57,8.75-3.18c2-1.34,3.28-2.75,3.72-4.25a8,8,0,0,0-.09-4.68l.11-.21-.09-.3a2.85,2.85,0,0,1,1.42-2.74c.92-.47,1.73-.09,2.44,1.14l.95,2.56,3.65,7.57a22.21,22.21,0,0,0,2.82,6.5,28.83,28.83,0,0,1,3,6.09c.17,1.29-.18,2.13-1.06,2.53a2.39,2.39,0,0,1-2.71-.63,59.62,59.62,0,0,0-6.13-5,12.25,12.25,0,0,0-9.23-2,143.39,143.39,0,0,1-14.91,6q-8.19,2.84-14.39,5.53c.13.07.18.14.14.2s0,.14.15.21q3.75,7.37,7.12,14.27t6.32,13.87a59.65,59.65,0,0,0,3.75,5.69,45.29,45.29,0,0,0,4.81,5.59,24.84,24.84,0,0,0,5.05,3.92,5.4,5.4,0,0,0,4.36.85l1.44-1.31a9.36,9.36,0,0,0,1.41-6.1,15.12,15.12,0,0,0-1.54-5.31,5.1,5.1,0,0,0-2.56-2.62c-.93-.32-1.46.44-1.56,2.28a1.85,1.85,0,0,0,.91,1.89,9.19,9.19,0,0,1,1.53,1.19,2.05,2.05,0,0,1,0,2.85q-1.14,1.22-3,0c-2.89-2.54-4.14-4.77-3.72-6.7a5.94,5.94,0,0,1,3.23-4.25,8.53,8.53,0,0,1,5.91-.66c2.2.46,3.65,2,4.33,4.57a17,17,0,0,1-.8,12.22L826,205.55a15.7,15.7,0,0,1-5.66,5,65.47,65.47,0,0,1-8.16,4,4.18,4.18,0,0,1-1.53.5Zm-57.07-20.69,1.79.93L767.91,199l.21-.41q-4.77-.93-9.73-2a88.87,88.87,0,0,1-8.82-2.27l-1,1.83Zm24-6.31q-8.54-1.86-17-4.23l-2,2.33q4,.52,8.95,1.05C765.21,189.78,768.56,190.07,772,190.28Zm-4.24,17.39a11.24,11.24,0,0,1-.83-3.27l-11.71-3.77c2.19,1.31,4.29,2.53,6.32,3.67S765.58,206.56,767.71,207.67Zm-9.24-27a2.87,2.87,0,0,1-.47.65,2.43,2.43,0,0,0-.47.66l16.13,4a16.4,16.4,0,0,0,.85-1.88,17.21,17.21,0,0,1,.85-1.88Zm3.91-8a11.07,11.07,0,0,0-.58,1.37,10.43,10.43,0,0,1-.59,1.37l15.47,2.38a.36.36,0,0,1,.11-.45.4.4,0,0,0,.11-.46q-3.76-.93-7.36-1.9C767.13,174.33,764.75,173.56,762.38,172.67Zm17.34-7.47a48.12,48.12,0,0,0-6.88-1.4q-3.63-.47-6.79-1.08l-.32.61a3.54,3.54,0,0,0-.32.86,3.41,3.41,0,0,1-.33.86c2.45.42,5,.75,7.59,1s5.28.47,8,.68l.53-1Zm6.11-7.91c.14-.27.26-.42.37-.45s.22-.18.36-.46q-3.87-.72-7.93-1.29a49.22,49.22,0,0,1-7.72-1.7l-.94,1.32q4,.54,7.93,1.29T785.83,157.29Zm-7.61,15.12a2.64,2.64,0,0,0,.27-.77,2.5,2.5,0,0,1,.27-.76l-7.44-.78Zm12.66-23.83c-2.51-.62-5.12-1.2-7.82-1.76s-5.32-1.13-7.82-1.75l-.73.91,16.16,3Zm2.21-4.26a6.05,6.05,0,0,0,.43-1.07,9.49,9.49,0,0,1,.54-1.27.64.64,0,0,1-.51,0l-16.1-1.17,5,1c1.31.34,2.89.73,4.74,1.18S791,143.9,793.09,144.32Zm2.68-6.6a.48.48,0,0,0,.06-.36.94.94,0,0,1,.16-.56q-3.06-.81-6.87-1.64t-7.65-2l-1.58,2.53,14,1.86ZM783.88,129q3.25.92,6.92,1.8l7.41,1.79,1.37-2.63-7.15-.38q-3.28-.17-5.67-.37l-2.77-.41Zm3.23-4.25,8.75.69-8.81-2.52-.84,1.62Zm18.77-5.43c-2.64-.35-5.31-.66-8-.94s-5.38-.53-8.09-.74l-.64,1.22c2.23.82,4.52,1.62,6.85,2.41a55.16,55.16,0,0,0,7.37,1.9Zm-4.71-5c-1.61-.49-3.11-.93-4.51-1.31a41.68,41.68,0,0,1-4-1.31l-.85,1.62Zm10.9-4.89q-4.17-.63-8.39-1.15c-2.82-.34-5.62-.56-8.41-.64a68.49,68.49,0,0,0,7,2c2.68.62,5.43,1.23,8.27,1.85ZM796.39,103a59.8,59.8,0,0,1,8.94,1.3c2.91.66,5.88,1.26,8.93,1.82.07-.14.14-.19.21-.16s.13,0,.2-.15l.42-.81q-2.67-.62-5.05-1.08a29.18,29.18,0,0,1-3.86-1c-1.19-.27-2.39-.6-3.61-1s-2.43-.7-3.61-1l-1.41-.22Zm5.44,94.09a16.74,16.74,0,0,1-1.12-1.74c-.36-.61-.66-1.16-.92-1.64l1.7,5a1.46,1.46,0,0,0,.65.21,1.54,1.54,0,0,1,.65.21Zm-.65-104.75,13,2.36-3.59-1.86-9-2.63ZM804.79,204a2.32,2.32,0,0,0-.75-.26,2.69,2.69,0,0,1-.75-.26l1.13,3.16,1.41.22Zm.3-106.58q3.1.85,6.06,1.48a50.89,50.89,0,0,1,6,1.69l.53-1Zm1.23,114.34.3-.1-.4-.21Zm7.57-4.83-3.6-1.35.75,2.45,2.91.74,1.93-.8Zm9.28-106.8L821,100a3.48,3.48,0,0,1-.44,1.32Zm5.12,43.66a2.15,2.15,0,0,1-.94,1.31l2,1,.11-.2Z"/>
        <path d="M882,237.14a7.41,7.41,0,0,1,2.11,4,11.11,11.11,0,0,1-.36,4.79,15.29,15.29,0,0,1-2.05,6.39,7.71,7.71,0,0,1-4.46,3.57,35.77,35.77,0,0,1-8.28,5.48,23.71,23.71,0,0,1-10.61,2.16,11,11,0,0,1-3.57,0,.2.2,0,0,1-.31.06,17.62,17.62,0,0,1-2.37-.55,26,26,0,0,1-11-5.83q-3.21-2.85-6.65-6.54a19.21,19.21,0,0,1-4.65-8.19,28.24,28.24,0,0,1-.59-9.66,47.49,47.49,0,0,1,1.36-16.69,73.8,73.8,0,0,1,6.56-16.65l-.05-.32a1.8,1.8,0,0,1,0-2.68,2.36,2.36,0,0,1,2.53-.86,76.48,76.48,0,0,1,9.89-13.18A71.15,71.15,0,0,1,858.3,175a43.69,43.69,0,0,1,13.33-7.94,38.22,38.22,0,0,1,13.72-2.47A31.75,31.75,0,0,1,898,167.35,28.62,28.62,0,0,1,908.12,175a1.07,1.07,0,0,1,.3.36,1.49,1.49,0,0,0,.49.48.61.61,0,0,0,.23.44l1.72,2.63a33.51,33.51,0,0,1,3.81,10.54,37.3,37.3,0,0,1,0,12.87,52.74,52.74,0,0,1-2.89,11.26,36.67,36.67,0,0,1-5.27,9.58c-.48,1.72-.34,2.94.43,3.67l1.47,1a1.64,1.64,0,0,1,.56,1.94,7.58,7.58,0,0,1-1,2.22q-2.13,3-3.85,2.32-9.57-4-19-8.7t-18.85-9.71q-5.64-1.74-10.16,3.46c-.32.71-.58,1.27-.78,1.69a6.55,6.55,0,0,1-.57,1q-1.14,2-3.07,6.09t-3.7,8.72c-1.18,3.09-2.15,6-2.89,8.74s-.9,4.83-.45,6.27q1.21,2.55,3.87,1.34a19.55,19.55,0,0,0,5.5-4.09,71.86,71.86,0,0,0,5.69-6.48,60,60,0,0,0,4.23-6,8.77,8.77,0,0,1,2.78-3.92,7,7,0,0,1,4.81-1.35l.31-.06a9.94,9.94,0,0,1,6.5,1.52A11.13,11.13,0,0,1,882,237.14Zm-48.57-1.33,9.46,3.34.9-2.44c-1.69-.46-3.46-1-5.29-1.65a45.53,45.53,0,0,0-5.62-1.59.19.19,0,0,0,.06.31Zm.18-6.87a.9.9,0,0,1-.21.69c1.69.45,3.4,1,5.11,1.52a40.35,40.35,0,0,0,5.25,1.33Zm2.29-5.95a2.47,2.47,0,0,0-.37.72,2.74,2.74,0,0,1-.37.72c1.93.62,3.82,1.21,5.63,1.75a57.61,57.61,0,0,1,5.51,1.94,7.34,7.34,0,0,1,.82-1.94l.66-.94q-3-.75-6-1.19C839.73,223.76,837.77,223.41,835.87,223Zm0-10.09-.18-.13a.62.62,0,0,0-.08.5Zm.84,30.29c.87.06,1.72.15,2.56.27s1.68.21,2.56.27l-.19-.13c-1-.35-2-.69-3-1s-2-.65-3-1Zm1.44-34.28a11,11,0,0,1,1.27-2.19c-.49-.34-.84-.5-1-.46a12.86,12.86,0,0,0-1.22,2.5l.82,0Zm13.61,9.92a8,8,0,0,1,1.14-2c-1.7-.45-3.2-.86-4.5-1.22s-2.35-.64-3.14-.82l-4.85-.92a.47.47,0,0,0-.11.35c0,.1-.06.28-.23.53l3.9,1.08Zm-10.67,29.43c-.12-.09-.39-.09-.81,0a1.66,1.66,0,0,1,.48.49,1.49,1.49,0,0,0,.49.48Zm.42-45.66-.5-.07.55.39.14-.19Zm2.37,5.6a7,7,0,0,0-1,1.81L855,213c.18-.24.26-.42.24-.53a.45.45,0,0,1,.11-.34c-2.07-.72-4.07-1.38-6-2S845.6,208.87,843.87,208.2Zm.7-10.71a2.45,2.45,0,0,0-1.05-.46l-.39.56,1.49.22Zm2.65-5.69-.52.75.36.26Zm3.73,1a1.68,1.68,0,0,0-.31.62,1.75,1.75,0,0,1-.3.63q4.32,1.67,8.08,2.78c2.49.74,4.26,1.29,5.29,1.65l.37.26a3.76,3.76,0,0,0,.43-.82,4,4,0,0,1,.44-.81Q857.41,194.54,851,192.76Zm2.12,12.15c.94.48,1.8,1,2.58,1.41a15,15,0,0,0,2.72,1.22l.92-1.31c-1.12-.23-2.19-.47-3.2-.72S854.07,205.06,853.07,204.91Zm18-16.42c-2.4-.76-4.82-1.55-7.28-2.35s-4.88-1.59-7.27-2.35l-1.06,1.49,14.16,5.26Zm-13.86,63.87a8.13,8.13,0,0,1-1.43,1.24q3,.75,5.8,1.72c1.83.64,3.66,1.24,5.48,1.78l.31-.06Zm9-1.46-5.64-1.75-.26.37,8.25,3.89Zm-3.06-43.08a3.53,3.53,0,0,0-.44.81,3.79,3.79,0,0,1-.44.82q2.28,1.05,4.41,2.13a39.25,39.25,0,0,0,3.85,1.75l6.22,1.32c-2.35-1.1-4.64-2.2-6.87-3.32S865.37,209.05,863.12,207.82ZM875.49,183a14.08,14.08,0,0,1,1.22-1.52,11.53,11.53,0,0,0,1.08-1.33l-8.09-1.39c-2.62-.45-5-.81-7.23-1.06a55.38,55.38,0,0,0,6.1,2.64C870.76,181.11,873.06,182,875.49,183Zm4.36,64.17a10.29,10.29,0,0,0,.27-2.33q-3.14-1.38-6.35-2.68t-6.8-2.43l.15.95q3,1.58,6.27,3.18C875.57,244.89,877.72,246,879.85,247.13Zm18.9-72.92a6.88,6.88,0,0,0-6.37.26,31.31,31.31,0,0,0-7.63,5.52,79.55,79.55,0,0,0-8.19,9q-4.11,5.22-7.81,10.44a7.6,7.6,0,0,0,.75,5.16q1.29,2.45,1.71,3l9.4,5a7.42,7.42,0,0,0,6.23-.63,4.27,4.27,0,0,1,1.58-2.24q2.21-3.48,3.28-4.82c.72-.89,1.44-1.83,2.14-2.83a24.64,24.64,0,0,0,1.44-3.19c.36-1,.7-2,1-2.94a42.47,42.47,0,0,1,1.24-4.87c.67-2.23,1.27-4.51,1.82-6.84a33.74,33.74,0,0,0,.92-6.35C900.31,176,899.81,174.78,898.75,174.21Zm-23.69,75.41a14.15,14.15,0,0,1-2.89-1.35c-.91-.54-1.83-1.05-2.77-1.53l.84,1.15Zm-3.14-13.43a2,2,0,0,1-.87-.33l-.94.17,7.6,2.86q-.37-.25-.39-.42c0-.1-.15-.24-.4-.42l-1.09-.77A5.08,5.08,0,0,0,871.92,236.19Zm11.78-61.71a13.63,13.63,0,0,1,1.65-1.35,16.73,16.73,0,0,1,1.7-1,18.13,18.13,0,0,0-3-.6c-1.11-.12-2.22-.3-3.33-.53l-4.29.6Zm7.06,41.71-.79,1.12,1.1.78,11.43,2.49.8-1.12-10.55-3Zm18-8L897,206.28l0,.32q2.6,1,5.28,2.06t5.6,2Zm-1-8.29a26.54,26.54,0,0,0-3.5-1.07,27.68,27.68,0,0,1-3.5-1.08l-.27.37Zm3.07-5.11q-2.42-.87-4.55-1.54c-1.43-.45-2.71-.89-3.87-1.33l-.37,1.69c1.48.49,3,.93,4.43,1.32s3,.76,4.56,1.13l0-1.14Zm-7.42-7.77a.62.62,0,0,0-.08.5l7.1,2.79-.72-2.48c-1-.14-2-.31-3.09-.5A20.29,20.29,0,0,0,903.42,187.05Zm.4-7.57a4.35,4.35,0,0,1,0,1.39,4.35,4.35,0,0,0,0,1.39l4,.58-1.72-2.62Z"/>
      </g>
    </g>
  </g>
</svg>
