<svg xmlns="http://www.w3.org/2000/svg" width="930" height="540" viewBox="0 0 930 540">
  <defs>
    <style>
      .cls-1, .cls-5 {
        fill: #8e8e85;
      }

      .cls-2 {
        fill: #cfcfc0;
      }

      .cls-3 {
        fill: #f7b626;
      }

      .cls-4 {
        fill: #ffc201;
      }

      .cls-5 {
        opacity: 0.51;
      }

      .cls-6 {
        fill: #f9dfa6;
      }

      .cls-7 {
        fill: #ccb68b;
      }
    </style>
  </defs>
  <g id="logo_star">
    <g>
      <g>
        <path class="cls-1" d="M751.3,496.22c-5.34,12.85-19.5,23-31.67,23H355.79c1,3.16,2,6.32,3,9.48l361.7-.32c12.28,0,26.55-10.59,31.92-24l44.64-111.44c0-.1.06-.19.1-.28-1.12.42-2.24.82-3.37,1.18Z"/>
        <path class="cls-2" d="M719.8,371.57c-.31-.35-.59-.73-.88-1.11-14.59-15.13-36.34-16.1-51.79-2.87-.37.54-.77,1.06-1.19,1.57-29.25,34.58-77.51,35.21-107.6,1.41-.32-.35-.6-.73-.89-1.1a38.09,38.09,0,0,0-26.18-11.86h-1a37.46,37.46,0,0,0-25.93,10.62,19.88,19.88,0,0,1-2.35,3.41c-29.49,34.31-77.76,34.49-107.61.41-.31-.35-.59-.73-.88-1.11-14.56-15.11-36.26-16.09-51.71-2.93-4.52,56.63-.39,104.31,14,151.18H719.63c12.17,0,26.33-10.12,31.67-23l42.52-102.4C768.37,401.92,739.91,394.53,719.8,371.57Z"/>
        <path class="cls-3" d="M414,269.44c-6.34,18.2-30.77,18.67-38.44,11.08a15.14,15.14,0,0,1-3.52-6.14,136.34,136.34,0,0,0-23.11,46.15c24.73-6.5,51.78,1.36,71,23.58.23.27.44.56.66.84a39.53,39.53,0,0,0,16.58,10.36h21.57a38.75,38.75,0,0,0,15.06-8.89,20.52,20.52,0,0,1,2.3-3.35c29.43-34.38,77.7-34.68,107.61-.68.23.27.44.55.66.83,14.74,15,36.5,15.63,51.8,2.22a20.68,20.68,0,0,1,1.59-2.13c29.66-34.1,77.94-34,107.61.32.23.27.44.56.66.84a39.25,39.25,0,0,0,18.3,10.84h17.36c.26,0,.5,0,.75.05A39.06,39.06,0,0,0,801.13,344c-40.77-73.37-166.07-126.82-314.41-126.82-5.9,0-11.75.11-17.58.28a194.7,194.7,0,0,0-40.35,13C422.08,247.94,424.49,239.34,414,269.44ZM553,226c8,4.47,17.61,7.63,38.95,16,18,7,18.31,31,10.64,38.56s-32.1,7.12-38.44-11.08c-10.68-30.67-8-21.14-15.18-40A2.84,2.84,0,0,1,553,226Zm-83.32,40.3c14.14-29.24,9.31-20.58,17.54-39a2.84,2.84,0,0,1,5.32.37c2.51,8.82,7.05,17.84,16.24,38.84,7.72,17.67-9,34.86-19.75,34.79S461.26,283.63,469.65,266.27Z"/>
        <path class="cls-3" d="M458.76,355.31H437.19A36,36,0,0,0,458.76,355.31Z"/>
        <path class="cls-3" d="M782.46,355.36c-.25,0-.49-.05-.75-.05H764.35A36,36,0,0,0,782.46,355.36Z"/>
        <path class="cls-4" d="M743.17,350.81c-29.34-34.56-77.61-35.18-107.6-1.36a19.28,19.28,0,0,0-1.61,2.11,41.42,41.42,0,0,1-5.18,3.75h119a41.24,41.24,0,0,1-4-3.65C743.6,351.38,743.4,351.09,743.17,350.81Z"/>
        <path class="cls-4" d="M582.18,348.83c-.21-.28-.42-.56-.65-.83-29.58-34.3-77.85-34.46-107.61-.37a20.17,20.17,0,0,0-2.34,3.33,41.67,41.67,0,0,1-5.64,4.35H590.25A41,41,0,0,1,582.18,348.83Z"/>
        <path class="cls-4" d="M827.26,342.54a16.47,16.47,0,0,0-12.4-5.88,15.86,15.86,0,0,0-9.51,3.24,17.87,17.87,0,0,0-2.92,2.74c-.42.48-.87.9-1.3,1.36.68,1.23,1.4,2.44,2,3.68a18.59,18.59,0,0,0-2.95,2.7,41.57,41.57,0,0,1-8.83,7.61,15.58,15.58,0,0,1,5.3,6.11c4.56,6.49,5.06,17,.51,28.54a71.79,71.79,0,0,0,20.31-11.8,79.17,79.17,0,0,0,9.91-9.68C834.22,363.23,834.16,350.42,827.26,342.54Z"/>
        <path class="cls-4" d="M342.91,355.31h83.2a41.23,41.23,0,0,1-7.72-6.35c-.22-.28-.42-.57-.65-.84-18.72-22.06-45.14-30.27-69.61-24.55a157.29,157.29,0,0,0-4.22,22.37C343.55,349.09,343.21,352.21,342.91,355.31Z"/>
        <path class="cls-4" d="M796.68,364.1c3.17,6.32,3.08,15.41-1,25.29l-1.83,4.43c1.13-.36,2.25-.76,3.37-1.18C801.74,381.08,801.24,370.59,796.68,364.1Z"/>
        <path class="cls-4" d="M426.11,355.31h-83.2c-.09.83-.16,1.64-.24,2.47l87.69-.08A38.93,38.93,0,0,1,426.11,355.31Z"/>
        <path class="cls-4" d="M624.71,357.52l125.88-.11c-1-.65-1.87-1.36-2.78-2.1h-119A38.46,38.46,0,0,1,624.71,357.52Z"/>
        <path class="cls-4" d="M465.94,355.31a40.11,40.11,0,0,1-4.23,2.36l68.54-.06h1l63.13-.06a37,37,0,0,1-4.15-2.24Z"/>
        <path class="cls-4" d="M796.68,364.1a15.58,15.58,0,0,0-5.3-6.11c-.42.27-.83.54-1.25.79A15.24,15.24,0,0,1,796.68,364.1Z"/>
        <path class="cls-4" d="M790.13,358.78a36.39,36.39,0,0,1-39.54-1.37l-125.88.11a36.08,36.08,0,0,1-30.31,0l-63.13.06a38.09,38.09,0,0,1,26.18,11.86c.29.37.57.75.89,1.1,30.09,33.8,78.35,33.17,107.6-1.41.42-.51.82-1,1.19-1.57,15.45-13.23,37.2-12.26,51.79,2.87.29.38.57.76.88,1.11,20.11,23,48.57,30.35,74,22.25l1.83-4.43c4.11-9.88,4.2-19,1-25.29A15.24,15.24,0,0,0,790.13,358.78Z"/>
        <path class="cls-4" d="M430.36,357.7l-87.69.08q-.5,5.16-.9,10.23c15.45-13.16,37.15-12.18,51.71,2.93.29.38.57.76.88,1.11,29.85,34.08,78.12,33.9,107.61-.41a19.88,19.88,0,0,0,2.35-3.41,37.46,37.46,0,0,1,25.93-10.62l-68.54.06A36.16,36.16,0,0,1,430.36,357.7Z"/>
        <path class="cls-4" d="M471.58,351a20.17,20.17,0,0,1,2.34-3.33c29.76-34.09,78-33.93,107.61.37.23.27.44.55.65.83a41,41,0,0,0,8.07,6.48h38.53a41.42,41.42,0,0,0,5.18-3.75,19.28,19.28,0,0,1,1.61-2.11c30-33.82,78.26-33.2,107.6,1.36.23.28.43.57.65.85a41.24,41.24,0,0,0,4,3.65h16.54a39.25,39.25,0,0,1-18.3-10.84c-.22-.28-.43-.57-.66-.84-29.67-34.28-77.95-34.42-107.61-.32a20.68,20.68,0,0,0-1.59,2.13c-15.3,13.41-37.06,12.74-51.8-2.22-.22-.28-.43-.56-.66-.83-29.91-34-78.18-33.7-107.61.68a20.52,20.52,0,0,0-2.3,3.35,38.75,38.75,0,0,1-15.06,8.89h7.18A41.67,41.67,0,0,0,471.58,351Z"/>
        <path class="cls-4" d="M417.74,348.12c.23.27.43.56.65.84a41.23,41.23,0,0,0,7.72,6.35h11.08A39.53,39.53,0,0,1,420.61,345c-.22-.28-.43-.57-.66-.84-19.23-22.22-46.28-30.08-71-23.58-.29,1-.54,2-.81,3C372.6,317.85,399,326.06,417.74,348.12Z"/>
        <path class="cls-4" d="M791.38,358a41.57,41.57,0,0,0,8.83-7.61,18.59,18.59,0,0,1,2.95-2.7c-.63-1.24-1.35-2.45-2-3.68a39.06,39.06,0,0,1-18.67,11.36A17.05,17.05,0,0,1,791.38,358Z"/>
        <path class="cls-4" d="M590.25,355.31a37,37,0,0,0,4.15,2.24l30.31,0a38.46,38.46,0,0,0,4.07-2.21Z"/>
        <path class="cls-4" d="M764.35,355.31H747.81c.91.74,1.83,1.45,2.78,2.1l32.41,0a18,18,0,0,1,7.13,1.4c.42-.25.83-.52,1.25-.79a17.05,17.05,0,0,0-8.92-2.63A36,36,0,0,1,764.35,355.31Z"/>
        <path class="cls-4" d="M430.36,357.7l31.35,0a40.11,40.11,0,0,0,4.23-2.36h-7.18a36,36,0,0,1-21.57,0H426.11A38.93,38.93,0,0,0,430.36,357.7Z"/>
        <path class="cls-4" d="M461.71,357.67l-31.35,0A36.16,36.16,0,0,0,461.71,357.67Z"/>
        <path class="cls-4" d="M790.13,358.78a18,18,0,0,0-7.13-1.4l-32.41,0A36.39,36.39,0,0,0,790.13,358.78Z"/>
        <path class="cls-4" d="M624.71,357.52l-30.31,0A36.08,36.08,0,0,0,624.71,357.52Z"/>
        <path class="cls-1" d="M258.49,519.19c-12.17,0-26.33-10.12-31.67-23L182.47,389.39c-3.38-8.13-4.05-15.73-2.42-21.69a43.26,43.26,0,0,0-4.13,4.11c-1.33,6.06-.56,13.61,2.68,21.66l44.84,111.37c5.39,13.39,19.68,23.93,32,23.92l103.43-.09c-1.07-3.16-2.07-6.32-3-9.48Z"/>
        <path class="cls-5" d="M258.49,519.19c-12.17,0-26.33-10.12-31.67-23L182.47,389.39c-3.38-8.13-4.05-15.73-2.42-21.69a43.26,43.26,0,0,0-4.13,4.11c-1.33,6.06-.56,13.61,2.68,21.66l44.84,111.37c5.39,13.39,19.68,23.93,32,23.92l103.43-.09c-1.07-3.16-2.07-6.32-3-9.48Z"/>
        <path class="cls-2" d="M341.77,368l-.08.06c-.37.54-.77,1.06-1.19,1.57-29.24,34.58-77.51,35.21-107.6,1.41-.31-.35-.6-.73-.89-1.1-14.74-15.05-36.6-15.77-52-2.25-1.63,6-1,13.56,2.42,21.69l44.35,106.83c5.34,12.85,19.5,23,31.67,23h97.3C341.38,472.32,337.25,424.64,341.77,368Z"/>
        <path class="cls-5" d="M341.77,368l-.08.06c-.37.54-.77,1.06-1.19,1.57-29.24,34.58-77.51,35.21-107.6,1.41-.31-.35-.6-.73-.89-1.1-14.74-15.05-36.6-15.77-52-2.25-1.63,6-1,13.56,2.42,21.69l44.35,106.83c5.34,12.85,19.5,23,31.67,23h97.3C341.38,472.32,337.25,424.64,341.77,368Z"/>
        <path class="cls-3" d="M258.29,342.87c.24.27.44.55.66.83A38.26,38.26,0,0,0,283,355.31h6.1a37.72,37.72,0,0,0,21.63-9.39,19.24,19.24,0,0,1,1.58-2.13c10.44-12,23.18-19.74,36.6-23.26a136.34,136.34,0,0,1,23.11-46.15c-3.32-10.24-.27-26.78,14.15-32.42,21.34-8.36,30.94-11.52,38.95-16a2.84,2.84,0,0,1,4,3.5c-.14.35-.26.68-.39,1a194.7,194.7,0,0,1,40.35-13c-123.58,3.54-229,44.19-279.31,101.82.17,0,.33-.09.5-.13C214.13,313.9,239.74,321.78,258.29,342.87Z"/>
        <path class="cls-5" d="M258.29,342.87c.24.27.44.55.66.83A38.26,38.26,0,0,0,283,355.31h6.1a37.72,37.72,0,0,0,21.63-9.39,19.24,19.24,0,0,1,1.58-2.13c10.44-12,23.18-19.74,36.6-23.26a136.34,136.34,0,0,1,23.11-46.15c-3.32-10.24-.27-26.78,14.15-32.42,21.34-8.36,30.94-11.52,38.95-16a2.84,2.84,0,0,1,4,3.5c-.14.35-.26.68-.39,1a194.7,194.7,0,0,1,40.35-13c-123.58,3.54-229,44.19-279.31,101.82.17,0,.33-.09.5-.13C214.13,313.9,239.74,321.78,258.29,342.87Z"/>
        <path class="cls-3" d="M289.13,355.31H283A36.54,36.54,0,0,0,289.13,355.31Z"/>
        <path class="cls-5" d="M289.13,355.31H283A36.54,36.54,0,0,0,289.13,355.31Z"/>
        <path class="cls-4" d="M343.91,345.94a157.29,157.29,0,0,1,4.22-22.37c-13.88,3.24-27.13,10.94-38,23.18a20.62,20.62,0,0,0-1.61,2.11,39.05,39.05,0,0,1-10.45,6.45h44.83C343.21,352.21,343.55,349.09,343.91,345.94Z"/>
        <path class="cls-5" d="M343.91,345.94a157.29,157.29,0,0,1,4.22-22.37c-13.88,3.24-27.13,10.94-38,23.18a20.62,20.62,0,0,0-1.61,2.11,39.05,39.05,0,0,1-10.45,6.45h44.83C343.21,352.21,343.55,349.09,343.91,345.94Z"/>
        <path class="cls-4" d="M184.6,359.72a16.47,16.47,0,0,1,11.81-4.41h73.68a40.05,40.05,0,0,1-13.33-9.17c-.22-.28-.43-.57-.66-.84-18.34-21.27-43.88-29.4-67.73-24.38.47-.55,1-1.09,1.46-1.64-14.39,3.29-28.1,11.37-39.14,24.27-6.8,7.95-6.71,20.77.2,28.63A16.61,16.61,0,0,0,162.14,378a16.28,16.28,0,0,0,13.59-6c.06-.08.13-.14.19-.21C177.14,366.27,180.11,362,184.6,359.72Z"/>
        <path class="cls-5" d="M184.6,359.72a16.47,16.47,0,0,1,11.81-4.41h73.68a40.05,40.05,0,0,1-13.33-9.17c-.22-.28-.43-.57-.66-.84-18.34-21.27-43.88-29.4-67.73-24.38.47-.55,1-1.09,1.46-1.64-14.39,3.29-28.1,11.37-39.14,24.27-6.8,7.95-6.71,20.77.2,28.63A16.61,16.61,0,0,0,162.14,378a16.28,16.28,0,0,0,13.59-6c.06-.08.13-.14.19-.21C177.14,366.27,180.11,362,184.6,359.72Z"/>
        <path class="cls-4" d="M180.05,367.7a17.26,17.26,0,0,1,4.55-8c-4.49,2.27-7.46,6.55-8.68,12.09A43.26,43.26,0,0,1,180.05,367.7Z"/>
        <path class="cls-5" d="M180.05,367.7a17.26,17.26,0,0,1,4.55-8c-4.49,2.27-7.46,6.55-8.68,12.09A43.26,43.26,0,0,1,180.05,367.7Z"/>
        <path class="cls-4" d="M298.08,355.31a36.59,36.59,0,0,1-9,2.52l53.63-.05c.08-.83.15-1.64.24-2.47Z"/>
        <path class="cls-5" d="M298.08,355.31a36.59,36.59,0,0,1-9,2.52l53.63-.05c.08-.83.15-1.64.24-2.47Z"/>
        <path class="cls-4" d="M279.24,357.83a36.43,36.43,0,0,1-9.15-2.52H196.41a16.47,16.47,0,0,0-11.81,4.41,17.6,17.6,0,0,1,8-1.81Z"/>
        <path class="cls-5" d="M279.24,357.83a36.43,36.43,0,0,1-9.15-2.52H196.41a16.47,16.47,0,0,0-11.81,4.41,17.6,17.6,0,0,1,8-1.81Z"/>
        <path class="cls-4" d="M232,370c.29.37.58.75.89,1.1,30.09,33.8,78.36,33.17,107.6-1.41.42-.51.82-1,1.19-1.57l.08-.06q.41-5.07.9-10.23l-53.63.05a35.74,35.74,0,0,1-9.8,0l-86.61.08a17.6,17.6,0,0,0-8,1.81,17.26,17.26,0,0,0-4.55,8C195.41,354.18,217.27,354.9,232,370Z"/>
        <path class="cls-5" d="M232,370c.29.37.58.75.89,1.1,30.09,33.8,78.36,33.17,107.6-1.41.42-.51.82-1,1.19-1.57l.08-.06q.41-5.07.9-10.23l-53.63.05a35.74,35.74,0,0,1-9.8,0l-86.61.08a17.6,17.6,0,0,0-8,1.81,17.26,17.26,0,0,0-4.55,8C195.41,354.18,217.27,354.9,232,370Z"/>
        <path class="cls-4" d="M256.1,345.3c.23.27.44.56.66.84a40.05,40.05,0,0,0,13.33,9.17H283A38.26,38.26,0,0,1,259,343.7c-.22-.28-.42-.56-.66-.83-18.55-21.09-44.16-29-68-23.72-.17,0-.33.1-.5.13-.48.55-1,1.09-1.46,1.64C212.22,315.9,237.76,324,256.1,345.3Z"/>
        <path class="cls-5" d="M256.1,345.3c.23.27.44.56.66.84a40.05,40.05,0,0,0,13.33,9.17H283A38.26,38.26,0,0,1,259,343.7c-.22-.28-.42-.56-.66-.83-18.55-21.09-44.16-29-68-23.72-.17,0-.33.1-.5.13-.48.55-1,1.09-1.46,1.64C212.22,315.9,237.76,324,256.1,345.3Z"/>
        <path class="cls-4" d="M308.53,348.86a20.62,20.62,0,0,1,1.61-2.11c10.86-12.24,24.11-19.94,38-23.18.27-1,.52-2,.81-3-13.42,3.52-26.16,11.26-36.6,23.26a19.24,19.24,0,0,0-1.58,2.13,37.72,37.72,0,0,1-21.63,9.39h8.95A39.05,39.05,0,0,0,308.53,348.86Z"/>
        <path class="cls-5" d="M308.53,348.86a20.62,20.62,0,0,1,1.61-2.11c10.86-12.24,24.11-19.94,38-23.18.27-1,.52-2,.81-3-13.42,3.52-26.16,11.26-36.6,23.26a19.24,19.24,0,0,0-1.58,2.13,37.72,37.72,0,0,1-21.63,9.39h8.95A39.05,39.05,0,0,0,308.53,348.86Z"/>
        <path class="cls-4" d="M289,357.83a36.59,36.59,0,0,0,9-2.52h-8.95a36.54,36.54,0,0,1-6.1,0H270.09a36.43,36.43,0,0,0,9.15,2.52Z"/>
        <path class="cls-5" d="M289,357.83a36.59,36.59,0,0,0,9-2.52h-8.95a36.54,36.54,0,0,1-6.1,0H270.09a36.43,36.43,0,0,0,9.15,2.52Z"/>
        <path class="cls-4" d="M289,357.83h-9.8A35.74,35.74,0,0,0,289,357.83Z"/>
        <path class="cls-5" d="M289,357.83h-9.8A35.74,35.74,0,0,0,289,357.83Z"/>
        <path class="cls-6" d="M489,301.29c10.79.07,27.47-17.12,19.75-34.79-9.19-21-13.73-30-16.24-38.84a2.84,2.84,0,0,0-5.32-.37c-8.23,18.4-3.4,9.74-17.54,39C461.26,283.63,478.2,301.23,489,301.29Z"/>
        <path class="cls-6" d="M564.12,269.44c6.34,18.2,30.76,18.67,38.44,11.08S609.87,249,591.92,242C570.58,233.6,561,230.44,553,226a2.84,2.84,0,0,0-4,3.5C556.14,248.3,553.44,238.77,564.12,269.44Z"/>
        <path class="cls-6" d="M414,269.44c10.48-30.1,8.07-21.5,14.78-39-23,10.39-42.28,25.13-56.74,43.9a15.14,15.14,0,0,0,3.52,6.14C383.24,288.11,407.67,287.64,414,269.44Z"/>
        <path class="cls-7" d="M428.79,230.48c.13-.33.25-.66.39-1a2.84,2.84,0,0,0-4-3.5c-8,4.47-17.61,7.63-38.95,16-14.42,5.64-17.47,22.18-14.15,32.42C386.51,255.61,405.82,240.87,428.79,230.48Z"/>
      </g>
      <g>
        <path d="M45.2,198.71l-4.37-6.43c-1.45-2.15-2.84-4.33-4.17-6.56a26.94,26.94,0,0,0-6.77-6.19q-3.45-2.07-8.61.31a9.42,9.42,0,0,0-2.48,3.35,4,4,0,0,0,0,2.86,11.17,11.17,0,0,0,1.62,2.78c.7.9,1.44,1.92,2.21,3.06l.55-.38a5.88,5.88,0,0,1,1.08-1.42,3.34,3.34,0,0,0,.88-1.29l-2.35-2.27c-.69-1.56-.55-2.67.45-3.34s2.08-.4,3.27.82a14.38,14.38,0,0,0,1.72,2.14,5.37,5.37,0,0,1,1.22,1.8,3.47,3.47,0,0,1,.1,2.15,8.84,8.84,0,0,1-1.77,3q-2.88,3.34-5.9,2.9a7.85,7.85,0,0,1-5.13-3.16,10.58,10.58,0,0,1-2.54-6.56A11.84,11.84,0,0,1,16,180.41a24.5,24.5,0,0,1,4.4-5.33c1.83-1.7,3.59-3.3,5.27-4.82l.67-1a.92.92,0,0,1,.69-.19c2.18-1.84,4.27-3.63,6.27-5.35a44.35,44.35,0,0,0,4.65-4.54,2.55,2.55,0,0,1,.6-1.52,5.54,5.54,0,0,1,2.56-.62,4.39,4.39,0,0,1,2.83.56A7.81,7.81,0,0,1,45.43,159a36.8,36.8,0,0,1,9.31-6.86,24.66,24.66,0,0,1,11-2.77c1.63,0,2.9,0,3.82,0a25,25,0,0,1,2.57.19,21.93,21.93,0,0,1,2.51.51c.88.23,2,.6,3.47,1.1a6.4,6.4,0,0,1,3,1.67c1,.91,1.93,1.78,2.86,2.62a50.56,50.56,0,0,1,5.84,6.82A31.21,31.21,0,0,1,94,170.2a25.81,25.81,0,0,1,1.45,8.55,20.41,20.41,0,0,1-2.11,8.89,1.85,1.85,0,0,1-.42,1,2.11,2.11,0,0,0-.42,1l4-1.64a25.78,25.78,0,0,1,15-.81,37.69,37.69,0,0,1,14.33,6.72A36.37,36.37,0,0,1,136.13,206,25.53,25.53,0,0,1,139,221.33c-.17,2.15-.35,3.88-.54,5.21a33.45,33.45,0,0,1-.78,3.84c-.34,1.24-.77,2.55-1.29,3.91s-1.22,3-2.11,4.89a35.41,35.41,0,0,1-4.28,6.49,7.15,7.15,0,0,1-1.6,1.64,72.8,72.8,0,0,1-10.68,9.45,4.17,4.17,0,0,1,.72,1.45,1,1,0,0,0,.34.32,1,1,0,0,1,.35.32,2.1,2.1,0,0,1,1.47,1.35,2.23,2.23,0,0,1-.53,2.43,23.41,23.41,0,0,1-6.25,4.38,38.31,38.31,0,0,0-6.7,4.13l-14.3,9.7a2.06,2.06,0,0,1-2.63.13c-.09-.13-.16-.17-.22-.13s-.14,0-.23-.13a3.23,3.23,0,0,1-.58-1.26c-.22-.58.08-1.34.9-2.27l.37-.25A7.48,7.48,0,0,0,93,268.8a42.48,42.48,0,0,0-5-11.29q-5.69-7.2-11.59-15.9c-.81-.92-1.61-1.9-2.4-2.93s-1.53-2.05-2.21-3.06c-.21,0-.44-.26-.7-.64L68,230.76a14.59,14.59,0,0,0-6.41-3.25c-2.2-.45-3.75-.26-4.66.53a5.43,5.43,0,0,0-.54,1.2.65.65,0,0,1-.24.44,2.73,2.73,0,0,1-2.87,1c-1.09-.28-1.56-1.11-1.42-2.5l.62-.69-.13-.19,1.53-2.14a12.35,12.35,0,0,0,.94-9.21,25.26,25.26,0,0,0-3.09-7.57ZM28.44,173.6l-1.11.76,1.88.38Zm5.36-1.7c.21,0,.53.38,1,1,1.56-1.42,3.05-2.9,4.46-4.41l4.34-4.6.06-.31a4.62,4.62,0,0,0-.67-.79,5,5,0,0,1-.67-.79q-1.66,2-4,4.51C36.73,168.22,35.23,170,33.8,171.9Zm14.94-1.56a.44.44,0,0,0-.28-.22.48.48,0,0,1-.29-.23l-1-1.51-7.76,11.35.51.75c1.56-1.42,3.09-3,4.59-4.63s3.05-3.31,4.65-4.95Zm-6.07,15.44,3-4a22.88,22.88,0,0,1-1.75,1.61c-.64.53-1.27,1-1.89,1.42Zm13.19-5.35a6.78,6.78,0,0,0-.8-1,6.28,6.28,0,0,1-.8-1c-1.68,2.07-3.27,4.11-4.78,6.15s-2.88,4-4.1,6l.77,1.13a40.3,40.3,0,0,0,5.05-5.36C52.75,184.38,54.31,182.41,55.86,180.43Zm-4.11-21.26a18.83,18.83,0,0,0-1.6,1.23c-.46.4-.95.88-1.48,1.42l.88.51.91,2.14c.09.13.16.17.22.13s.14,0,.23.12a26.13,26.13,0,0,1,.31-3.53Zm-2.85,36.2c.17.25.31.39.42.41s.24.16.41.41l2.63-3.72A21.93,21.93,0,0,1,50.7,194Q49.83,194.74,48.9,195.37Zm6,1.2c1.11-1.3,2.23-2.71,3.38-4.22l3.43-4.54-.39-.57Q59.72,189.7,58,192A54.81,54.81,0,0,0,54.87,196.57Zm3.05-23.9a41.06,41.06,0,0,1,4.07,5.4q1.77,2.81,3.57,5.45l6.87,6.94-.77-1.13a5.86,5.86,0,0,1,1.59,1.54,6,6,0,0,0,1.59,1.55,10.94,10.94,0,0,0,4.06,1,3.84,3.84,0,0,0,3.5-2.24,4.76,4.76,0,0,0,.51-3.66l-3.67-9.39a.94.94,0,0,1-.19-.7l-6.65-8.2a28.84,28.84,0,0,0-2.81-3.34q-1.92-2-3.31-3.28c-.47-.42-1.13-1-2-1.71s-1-.86-.57-.44a33.45,33.45,0,0,0-3.62-1.14,4.73,4.73,0,0,0-3.22.25,16.63,16.63,0,0,0-1.58,3.28l.13.19a15.3,15.3,0,0,0,.54,4.61A30.72,30.72,0,0,0,57.92,172.67Zm9,21.26-1.11,1.58c-1.3,1.81-2.57,3.67-3.79,5.61S59.69,205,58.67,207q2-2.72,4.17-5.86c1.46-2.1,3-4.18,4.72-6.25ZM62,222.68A21.1,21.1,0,0,0,60.69,221a19.25,19.25,0,0,1-1.31-1.74l-.28,2.4,0,1.13a4.15,4.15,0,0,1,1.41-.12Q61.19,222.68,62,222.68Zm-.19-11.48.55-1.19-.8.82ZM68,154a13.4,13.4,0,0,0-1.35,1.61A17.22,17.22,0,0,1,65.5,157l1.71,1.32L70,154Zm-.42,65.77,4.58-7.25a28.33,28.33,0,0,1-2.87,2.78A28.28,28.28,0,0,0,66.43,218Zm.78-9.65a10.88,10.88,0,0,1,1.54-1.32,5.34,5.34,0,0,0,1.42-1.51l2.77-2.71-1.28-1.9Zm2.58-49c.73-1.05,1.42-2.11,2-3.19a29.65,29.65,0,0,1,1.81-2.74,1.39,1.39,0,0,0-.76-.32l-3.79,5.62C70.51,160.82,70.74,161,71,161.08Zm9.2,53.16a10,10,0,0,1-.81-1.39,9.43,9.43,0,0,0-.8-1.38L70.36,224.2a.88.88,0,0,1,.22.54c0,.11.06.28.23.53a66,66,0,0,0,4.8-5.32C77.08,218.12,78.6,216.22,80.15,214.24Zm-9.06-25.35a.49.49,0,0,0,.29.22.44.44,0,0,1,.28.22A2,2,0,0,1,71.09,188.89Zm5.69,37.58A21.07,21.07,0,0,1,75.21,228a18.06,18.06,0,0,1-1.7,1.3l.77,1.13Zm-3-62.87c.34.51.61.78.82.82l5-7-.25-.38Zm3.46,35.51-.63-.13a.46.46,0,0,0,.29.22.48.48,0,0,1,.28.22Zm.66,36.57q2.28-2.64,4.36-5.58c1.39-1.95,2.79-3.87,4.22-5.77a10.77,10.77,0,0,1-.74-1.29,11,11,0,0,0-.74-1.29l-3.78,6.43a22.09,22.09,0,0,1-1.85,3.47,21.53,21.53,0,0,0-1.85,3.46Zm5.28-75.42a85.38,85.38,0,0,1-5.51,7.88,3.37,3.37,0,0,0,.61.7,3.91,3.91,0,0,1,.6.69l6-7.63ZM89,228.12l-4,6a60.72,60.72,0,0,1-4.29,5.68l1.92,2.83q1.75-3.39,3.74-6.68t3.56-6.56Zm-1.91-62.81-5.89,7.31.64.95,5.77-7.5Zm2.67,5.93a1.3,1.3,0,0,0-.33-.88,73.69,73.69,0,0,1-5.72,6.36.65.65,0,0,1,.07.51Zm30.83,73.86a12.13,12.13,0,0,0,4-2.87A8.2,8.2,0,0,0,127,238a54.17,54.17,0,0,0-3.39-7.79,91.6,91.6,0,0,0-5.92-9.94,89.08,89.08,0,0,0-7.74-9.81,53.48,53.48,0,0,0-8.68-7.79,21.15,21.15,0,0,0-8.67-3.79,9.92,9.92,0,0,0-7.86,2,10.35,10.35,0,0,0-.06,3.91v.82a47.12,47.12,0,0,0,2.74,6.43c1.12,2.19,1.9,3.6,2.32,4.23q1.3,2.71,2.53,4.92t2.64,4.29l.64.94a58.54,58.54,0,0,0,6.21,8.36A46.71,46.71,0,0,0,110.1,242a21.74,21.74,0,0,0,6.07,3.35A14.81,14.81,0,0,0,120.61,245.1ZM90.7,177.8a5.08,5.08,0,0,0,0-1.64l-4.73,5.42a7.77,7.77,0,0,1,.66,1.76Zm-1.75,73a1.73,1.73,0,0,1,.3.63,1.55,1.55,0,0,0,.29.63,48.49,48.49,0,0,1,3.68-6.36,48,48,0,0,0,3.69-6.37L96,238q-2,3-3.94,6c-1.29,2-2.64,3.91-4.07,5.8l.38.57a.46.46,0,0,0,.29.22A.48.48,0,0,1,89,250.82ZM101.26,245a6.28,6.28,0,0,0-.67-.79,5,5,0,0,1-.67-.78l-7.56,12.86Zm-5.89,15.33,9.47-10.85L95,259.72Zm2.23,10.08a5.79,5.79,0,0,0,0,1.65l.74-.51Zm2.68-73.65,3.35-5.86a.21.21,0,0,1-.32-.07,40,40,0,0,0-4.93,4.73Zm8.9,57.52a3.23,3.23,0,0,1-1-1l-1.29,1.7a41.67,41.67,0,0,0-3.5,5.83,66.49,66.49,0,0,1-3.38,6l1.16,1.7a29,29,0,0,1,3.45-7.31Q106.91,257.71,109.18,254.24Zm-3.1-59,3.82-4a1.24,1.24,0,0,0-.69-.22,3.37,3.37,0,0,1-.88-.09Zm.74,6.69c.2,0,.44.25.7.63l1.15-1.89ZM117.71,194l-2.93,4.88c-1,1.71-1.93,3.29-2.74,4.76l6-6a17.4,17.4,0,0,0,2.34-2.14Zm-2.55,58.64,1.68-1.13a10.29,10.29,0,0,0,1.54-1.33,6.48,6.48,0,0,1-2.39-.31,11.44,11.44,0,0,1-1.85-.54c-.61-.23-1.17-.45-1.67-.66l-.19.12a23.07,23.07,0,0,0,1.51,2C114.28,251.43,114.74,252,115.16,252.66Zm-.62,7.88-1.1,1.58,1.49-1Zm1.78-48.17c1.29-2.35,2.64-4.65,4-6.87s2.81-4.4,4.28-6.5l-.13-.19q-2.77,2.72-5.48,5.52t-5.24,5.07Zm4.73,6.18,4.71-7.06-5.35,6.11Zm11.27-8.19q-2.34,3-4.48,5.8a39,39,0,0,0-3.66,5.8q2.4-2.46,4.67-5.11a37.7,37.7,0,0,1,4-4.1l.18-.12Zm2.2,8.45a.5.5,0,0,1-.1-.35.43.43,0,0,0-.1-.34q-2,2.2-4,4.5a57.48,57.48,0,0,1-3.94,4.19l.9,1.33a36.1,36.1,0,0,1,3.52-4.6A44.37,44.37,0,0,0,134.52,218.81ZM131,235.27a30.8,30.8,0,0,0,3.29-9.15c-.65,1.18-1.31,2.41-2,3.69s-1.35,2.62-2,4l.45.26a1.7,1.7,0,0,0,.19.69A.7.7,0,0,1,131,235.27Z"/>
        <path d="M151.07,147.78a18,18,0,0,0-3.3-4.34,27,27,0,0,0-4.59-3.65,16.78,16.78,0,0,0-5.2-2.18,12.07,12.07,0,0,0-5.24-.08,14.36,14.36,0,0,1-1.75.79,10.56,10.56,0,0,0-1.34.58l-1.38,1.24-2.45,2.58a12.42,12.42,0,0,0,.45,5.19,20.1,20.1,0,0,0,1,3.09,5.39,5.39,0,0,0,2.38,2.37,1.8,1.8,0,0,0,1.66-.23,5.43,5.43,0,0,0,1.32-1.34,6.56,6.56,0,0,0,.91-1.9l.5-1.69a11,11,0,0,1-1.24.53c-.57.21-.78.28-.65.21a2.18,2.18,0,0,1-3.2.91,1.86,1.86,0,0,1-.89-2.89l2.78-1.47a7.56,7.56,0,0,1,4.51-1.07c.86-.29,1.62.18,2.26,1.39a6.29,6.29,0,0,1,.67,4.42,9.78,9.78,0,0,1-1.85,3.95,9.07,9.07,0,0,1-3.4,2.7,8.15,8.15,0,0,1-4.17.77,4.3,4.3,0,0,1-3.17-1.69,17.08,17.08,0,0,1-2.37-3.79,19.57,19.57,0,0,1-1.5-4.77,25.31,25.31,0,0,1-.44-4.94,2.08,2.08,0,0,1,.14-2.14,8.43,8.43,0,0,1,.94-2.56,12.06,12.06,0,0,1,4-3.41,48.22,48.22,0,0,1,4.47-2.1l7.8-2.55a54.48,54.48,0,0,0,8.68-5q2.81-2.13,5.67-4.41a39.89,39.89,0,0,1,4.6-3.06,31.09,31.09,0,0,1,5.43-2.47l2.68-1.41a12.38,12.38,0,0,1,2.39-1A2.59,2.59,0,0,1,171,113c.63.71.55,1.61-.22,2.7a27.72,27.72,0,0,0-3.47,5.71,8.2,8.2,0,0,0-.53,6.47,7,7,0,0,0,1.16,1.72,7.55,7.55,0,0,0,1.46,1.82l.43.8,2.94,4.14.53,1a108.29,108.29,0,0,1,5.46,9.66q2.5,5,6,10.67a22.4,22.4,0,0,1,2.6,3l1.81,3.44c1.69,2.57,3.07,4.72,4.17,6.47s2,3.35,2.9,4.8a35.32,35.32,0,0,1,2.19,4.4,35.83,35.83,0,0,1,1.61,5A40.34,40.34,0,0,1,205.15,198a22.23,22.23,0,0,1-1.68,13.68c-1,2.26-2.22,4.61-3.63,7.08l-3,3.91-.29.41-.4.21a21.5,21.5,0,0,1-10.5,6.56,26.83,26.83,0,0,1-8,2.15,23.05,23.05,0,0,1-6.26-.33,18.88,18.88,0,0,1-9.88-1.65,28.57,28.57,0,0,1-8.38-6.05,37.51,37.51,0,0,1-11.57-13.29,24.74,24.74,0,0,1-2.87-16.06c-.07-2.72,1.37-5.12,4.34-7.2.66-.34,1.37-.76,2.13-1.25a9,9,0,0,1,2.24-1,.93.93,0,0,1,.45-.1,1.54,1.54,0,0,0,.65-.22l.2-.1,1.71-.13,1.51,0,.2-.1a20.11,20.11,0,0,1,7.67,2,22.84,22.84,0,0,1,6.78,4.69,12.12,12.12,0,0,1,3.4,6.22c.44,2.28-.36,4.55-2.38,6.81a28.39,28.39,0,0,0,1.16,8.95,43.45,43.45,0,0,0,3.86,8.31,8.16,8.16,0,0,0,2,1.65,10,10,0,0,1,1.8,1.25l2.34,1.09c3.47-1.13,5.81-2.62,7-4.48a10,10,0,0,0,1.58-6.38,28.52,28.52,0,0,0-2-8.13l-3.81-9.88-.9-1.72c-.53-1-1.11-2.18-1.71-3.5s-1.18-2.56-1.72-3.74a23.26,23.26,0,0,1-1.14-2.89c-.91-1.41-1.69-2.56-2.31-3.44L172,178.78a30.51,30.51,0,0,0-2.09-2.52c-.8-.87-1.75-2-2.87-3.53l-.42-.8q-7-6.94-14.62-3.68a6.45,6.45,0,0,1-3.49,1.57,3.37,3.37,0,0,1-1.9-1.45,2.61,2.61,0,0,1-.32-2.29,4.84,4.84,0,0,1,3.06-2.38,10.16,10.16,0,0,0,3.76-7.79A13.07,13.07,0,0,0,151.07,147.78Zm-13-36.3q-5.13.38-8.16-1.53a9.3,9.3,0,0,1-4.06-4.83,10.73,10.73,0,0,1-.18-6.37,13.28,13.28,0,0,1,3.31-6,4,4,0,0,1,2.26-2,1.56,1.56,0,0,1,1.21-.12,3.56,3.56,0,0,1,1.4-.22q5.85,0,9.15,2.68a11,11,0,0,1,4.1,6.11l.14,1.22a9.76,9.76,0,0,1-1.91,7.21A9.65,9.65,0,0,1,138.05,111.48Zm-.43-4.69a10.86,10.86,0,0,1-7.5-5.09,6.87,6.87,0,0,0,.71,3.76,3.38,3.38,0,0,0,3.17,1.69A5,5,0,0,0,137.62,106.79Zm-5-9.5a9.65,9.65,0,0,0,2.35,4.45A14.09,14.09,0,0,1,132.61,97.29Zm8.81,4.66a.5.5,0,0,1,.35,0,.43.43,0,0,0,.35-.06,10.23,10.23,0,0,0,0-2.34,7.16,7.16,0,0,0-2.45-1.29,7.12,7.12,0,0,1-2.46-1.29l.11.2a6.48,6.48,0,0,0,1.57,2c.62.54,1.23,1.08,1.86,1.61Zm-1.61,32.63,1.37.44c.51.17,1,.32,1.38.44l-1-1.82Zm6.75,61c-.41-.47-.76-.89-1-1.26a9.51,9.51,0,0,1-.84-1.36,7,7,0,0,1-1.58,1.34c0,1,.7,2.13,2,3.34Zm-.54,13,2.13-3.19-.92-.29-2,2.06Zm2-73.39,3.31-4.33a8,8,0,0,1-2.07,1.61,11.68,11.68,0,0,0-2,1.3Zm3.84,71.88a19.87,19.87,0,0,0-3,4.43,23.06,23.06,0,0,0,4.73-4ZM151,189.15c-1.67.36-2.25,1.19-1.75,2.47Zm-.49-49.62a1.1,1.1,0,0,0,.32.36,1.14,1.14,0,0,1,.31.35q2.64-2.69,5.6-5.27l5.9-5.18-2.3-2.92c-1.62,2.06-3.28,4.14-5,6.23S152.08,137.34,150.53,139.53Zm1.89,77.83q1.65-2.16,3.6-4.48t3.9-4.9q-2.37,2.28-4.62,4.24c-1.51,1.32-3,2.52-4.44,3.63Zm3.76-27.57-2.62,3.71,4-3.42ZM154.89,144l.22.4,1.74-2.47-1,.53Zm4,58.64a5.18,5.18,0,0,1-2.44-.79l-1.27,1.45,2.33.58A6.92,6.92,0,0,0,158.86,202.6Zm-2.93-39.81a23.4,23.4,0,0,1,2.42.28,18.12,18.12,0,0,1,2.34.58,38.66,38.66,0,0,1-2.77-5.26,4.25,4.25,0,0,1-.33-.86,3.78,3.78,0,0,0-.32-.87A25.48,25.48,0,0,1,155.93,162.79Zm4.12,60.88,5-6.48-.32-.61-5.87,6.19Zm4.36-27.87a3.91,3.91,0,0,0-.94-1.31l-2,2.06c-.65.69-1.37,1.41-2.16,2.17l3,.77,2.46-2.07a5,5,0,0,0-.55-1.52Zm-1.19-46.15a10.77,10.77,0,0,1-1.07,1.34,16.12,16.12,0,0,1-1.38,1.25l.43.8,4.88-5.67Zm5.44-10.87a3.12,3.12,0,0,0-.84-1.11L161,145.41Zm-5.75-18.16-.4.21.32.61Zm.09-.31a.21.21,0,0,0-.09.31Zm10.16,31.35a4.12,4.12,0,0,1-.45-1.32l-.24-1.42-9,9.39a3.25,3.25,0,0,1,.28.76,2.33,2.33,0,0,0,.27.76l4.53-3.93Q170.79,153.94,173.16,151.66Zm-5.27,71a2.42,2.42,0,0,0-.47-.65,2.68,2.68,0,0,1-.48-.66c-.52.62-1,1.27-1.5,2s-1,1.4-1.4,2.15Zm1.46-62.78a12.33,12.33,0,0,1-1.76,1.7,12.43,12.43,0,0,0-1.77,1.7l.64,1.22,4.18-5.56A4.89,4.89,0,0,1,169.35,159.87Zm8.5-2.67-3.71,4.54-4.86,6.18a2.5,2.5,0,0,0,.73.9q2.55-2.37,5-5t5.09-5.26Zm-7.11,69.9c.07.13.12.15.15.05s.08-.09.15,0l.38-.72a1,1,0,0,0-.34.31A1,1,0,0,1,170.74,227.1Zm2.18-55.16a4.81,4.81,0,0,0,.58.86,6.68,6.68,0,0,1,.68,1.06l8.66-11-.31-.61c-1.64,1.73-3.26,3.39-4.85,5S174.49,170.43,172.92,171.94Zm7.15,3.47c1.12-.76,2.19-1.54,3.21-2.33s2.06-1.64,3.11-2.54a14.37,14.37,0,0,1-.86-1.88c-.22-.57-.44-1.23-.66-2l-2.63,3.19q-1.37,1.76-2.63,3.45T177.09,177a11.44,11.44,0,0,1,1.55-.68A4.34,4.34,0,0,0,180.07,175.41Zm2.33,4a6.31,6.31,0,0,1-1.73,1,15.94,15.94,0,0,0-1.85.84l.86,1.62,3.71-4Zm2.4,13.72,3.92-4.13-4.34,3.32Zm-.23-8.15,6.41-5.18-.42-.81Zm11.68,2.9-9.5,9.91a2.58,2.58,0,0,1,.27.76,2.58,2.58,0,0,0,.27.76l10.05-8.39-.35-1.62Zm1.95,8.53-9.07,7.36,1,3.35,8.22-9ZM189.4,224a.63.63,0,0,0,.29-.41C189.42,223.72,189.33,223.86,189.4,224Zm6.64-7.63c.32-.68.62-1.4.9-2.15a14.71,14.71,0,0,0,.68-2.55c-1,1-1.92,2-2.84,3a33,33,0,0,1-2.94,2.84,12.37,12.37,0,0,1-.82,3.27c-.38.89-.82,1.81-1.33,2.77l5.68-6.09Zm2.56-13-7.31,8.76,5.59-5.27,1.58-1.35Z"/>
        <path d="M222.74,78.79a4.15,4.15,0,0,1-.39-1.57,2.48,2.48,0,0,1,1.33-2.74c1.11-.44,2.1-.8,3-1.06a32.61,32.61,0,0,1,3.55-.8l1.09.3a2,2,0,0,1,1.55,1.48,2.06,2.06,0,0,1-.7,1.88l1.4,19.87,1.59.35c.81,0,1.53,0,2.18,0a7,7,0,0,1,2,.29A41.76,41.76,0,0,1,256,110.23a81.4,81.4,0,0,1,10.82,18.94,87,87,0,0,1,5.88,22.9,35.47,35.47,0,0,1-4.75,21.71,23.37,23.37,0,0,1-8.51,10.78,21.86,21.86,0,0,1-6.77,4.55,45.38,45.38,0,0,1-8,2.59l-4.43,1q.32,3.81.48,7.56t0,7.52c-.57,2.2-1.49,3.14-2.74,2.82a10.74,10.74,0,0,1-2.42,1.21.92.92,0,0,1-.57.1.43.43,0,0,0-.35,0,2.28,2.28,0,0,1-1.8-.27,4,4,0,0,1-1.09-1.53c-.17-3.22-.33-6.27-.51-9.15s-.3-5.79-.34-8.73l-.59-.26a30.75,30.75,0,0,1-4.44-1.43,12.65,12.65,0,0,1-3.44-2.56q-3.9-3.12-7.89-5.84a30.69,30.69,0,0,1-6.93-6.47,38.63,38.63,0,0,1-4.6-7.89,88.43,88.43,0,0,1-3.82-10.17q-1.18-3-2.16-6a35.43,35.43,0,0,1-1.42-6.58c-.17-1.24-.29-2.34-.35-3.3A96.44,96.44,0,0,1,194.07,129a38.32,38.32,0,0,1,1.17-10.69,18.76,18.76,0,0,1,4.29-7.74,46.29,46.29,0,0,1,7.77-7.16A57.6,57.6,0,0,1,216.36,98a25,25,0,0,1,7.93-2.54l-.08-.21a4,4,0,0,1,0-1.23c-.13-3.56-.28-6.86-.45-9.92S223.24,79.25,222.74,78.79Zm-22.19,38.9a25.31,25.31,0,0,0-2,6.46l1.42-1.3,2.3-6.34A7.18,7.18,0,0,1,200.55,117.69Zm7,21.82-7.66,5,.51,1.27Zm-1.15-11.36c-.58.56-1.36,1.24-2.33,2s-2,1.58-3.16,2.36a1.29,1.29,0,0,1-.16.81c1.94-1.59,3.91-3.12,5.91-4.57s4-3,6.12-4.66Zm-4.22,22.12a1.71,1.71,0,0,1,.15.68,1.44,1.44,0,0,0,.15.68l6.08-4.15L219,140.35a21.6,21.6,0,0,1-1.57-3.31q-3.66,2.94-7.71,6.4T202.19,150.27Zm.24-24.23-.12.3a85.89,85.89,0,0,0,10.24-7,9.09,9.09,0,0,1,.07-2.25q-2.61,2.52-5.16,4.65T202.43,126Zm.23,11.48c1.92-1.25,3.87-2.61,5.87-4.06s4-3,6.12-4.66l-.25-.64q-2.93,2.4-6,4.72C206.38,134.44,204.46,136,202.66,137.52Zm2.12,21.07c2.75-2.41,5.64-4.84,8.7-7.29s5.75-4.55,8.11-6.31l-.08-.22-14.58,9.52L204,156.68Zm.49-40.57,6.78-6.65.12-.29-4.42,2.25-.21.09Zm18.44,31.05q-4.41,3.48-9,7.26t-8,7.14q4.36-3,8.68-6.41t8.8-6.72ZM210,167.35l-.83.34.08.21Zm18.73-7-.42-1.06c-1.14.78-2.21,1.54-3.21,2.26s-1.89,1.33-2.67,1.8L212,171.94l1.51,1.37q3.54-2.64,7.37-5.77t7.79-5.94Zm-2.58-5.86a88.62,88.62,0,0,0-10.24,8.27q3.12-2.47,5.85-4.43a37.42,37.42,0,0,0,3.6-2.79l1-.63ZM225,109.9a7.25,7.25,0,0,1-.14-1.55c0-.89-.09-2-.18-3.49L221.36,102a1.77,1.77,0,0,1-.92.12,7.89,7.89,0,0,0-4.32,4.93,19.76,19.76,0,0,0,.11,5.12,46.09,46.09,0,0,0,1.18,5.69c.53,1.92,1.05,3.64,1.58,5.16s.95,2.69,1.29,3.54q1.36,4.63,3.17,10.06t4.3,11.09Zm-7.41,67.46L229,167.15l-.09-.21-12.36,9.61Zm3.32,2.86a2.2,2.2,0,0,1,.86.64,2,2,0,0,0,.86.64l6.91-5.71-.15-3.39c-1.38,1.38-2.8,2.68-4.24,3.91S222.29,178.85,220.91,180.22Zm6.92,4.63,2.08-2.06-.09-1.45L226.28,184l1.46.64Zm-.27-103.06c.08-.19.17-.27.27-.23s.26-.06.48-.31a22.67,22.67,0,0,1-.23-3.61l-.83.34Zm.47,8.43.83-.33a3.56,3.56,0,0,0,0-1.59,5.45,5.45,0,0,1-.11-1.8l-.75.55-.13.29Zm.51,9.16c.05.14,0,.22,0,.25s-.08.12,0,.25l.75-.54A.94.94,0,0,0,228.54,99.38Zm.6-3.94-.42.17.51,0Zm-.07,18a1.45,1.45,0,0,0,.58-.35,1.5,1.5,0,0,1,.59-.36,3.3,3.3,0,0,1-.09-1.44L229,109.54Zm.69,10.81,1.08-.93-.32-5-1,.42Zm.71,7.84.12-.3q.63-.24.75-.54v-2.46l-.63.25.09.21-.63.25Zm1.08,14.83a14.11,14.11,0,0,0,.32,3.82l1.08-.93a21.47,21.47,0,0,1-.23-3.6ZM233.8,161l-.18-2.88q-.09-1.44-.27-3.09l-1.08.92,0,1.95A19.52,19.52,0,0,0,233.8,161Zm-.39,11.73a1.66,1.66,0,0,0,.58-.35,1.45,1.45,0,0,1,.58-.36,10,10,0,0,1-.78-1,8.43,8.43,0,0,1-.65-1.34Zm1.06-73.05c-.22.25-.38.36-.48.31s-.19,0-.27.23l.22,2.37a8.67,8.67,0,0,0,2.29-2.14Zm-.61,79a.92.92,0,0,0,0,.72l1-1.14-.17-.42Zm1.36,4.62a3.41,3.41,0,0,1-1.08.93c.05.14.05.23,0,.25s-.08.12,0,.26a3.41,3.41,0,0,1,1.29-1Zm-.74-74.55,7.2-5.58-1.34-.94-5.94,6.31Zm.19,88.32a6.69,6.69,0,0,1,1.79-1c-.06-1-.18-2-.35-3.3l-1.51-.14Zm21.81-15.6q1.66-3.12,1.36-8.42a34.6,34.6,0,0,0-1.45-8.78q-1.78-4.46-4.07-10.2t-5-11.91q-2.72-6.18-5.88-12.31t-6.58-11.65l3.74,51.19a60.32,60.32,0,0,0,6.15,8.14,20.52,20.52,0,0,1,1.85,1.6c.53.53.72.82.59.87a7.82,7.82,0,0,0,1.89,1.71q2.76,2.1,4.19,2ZM235.16,202.6l.1,3.9,1.67-.67c0-.82,0-1.58-.08-2.3s-.07-1.49-.07-2.31l-1.71,1.17-.12.3Zm5.39-22.83-.38-.34-.66.76c-.14.05-.15.22,0,.5Zm-1.14-64.05a7.35,7.35,0,0,0,1.26,2l9.83-6.88-1.85-2.21Zm4.29,67.72c-.64.42-1.31.85-2,1.29a13.14,13.14,0,0,0-1.93,1.51l.05,1.95a.89.89,0,0,0,.71,0l4.62-3.57ZM243,121.68a5.72,5.72,0,0,1,.89,1.61l10.32-8.06-.92-1.11c-1.73,1.35-3.42,2.64-5.1,3.89S244.77,120.47,243,121.68Zm4.66,10.45.59,1.49q2.79-2.1,5.83-4.18c2-1.38,4-2.87,5.95-4.47a1.5,1.5,0,0,0-.36-.59,1.6,1.6,0,0,1-.35-.6Zm9.63-12.22a.53.53,0,0,0-.23-.27.44.44,0,0,1-.23-.28l-7.08,5.29.62-.25Zm5,10.08-.26-.64c-2.14,1.51-4.18,2.94-6.14,4.3a56.82,56.82,0,0,0-5.43,4.26l.17.42Zm3,10.61a3.29,3.29,0,0,0-.3-1.36l-10.53,8.14.59,1.49q2.58-2,5.12-4.14T265.29,140.6Zm-7.74,13.92q3.12-2.47,5.54-4.3c1.6-1.22,2.77-2.13,3.49-2.75a2.46,2.46,0,0,1-.19-.78,2.91,2.91,0,0,0-.19-.79,46.89,46.89,0,0,0-4.85,3.29c-1.55,1.19-3.06,2.33-4.56,3.42Zm9.44-1.8q-4,2.82-7.74,6.05l1,2.55,6.66-5.12Zm-4.6,16.36,3.13-2.47,1.06-4.61c-.86.67-1.67,1.37-2.44,2.08s-1.57,1.41-2.43,2.08Z"/>
        <path d="M290.84,66a1.72,1.72,0,0,1,1.81-1c.8.08,1.45.69,1.93,1.81.94,2.11,1.73,4.14,2.39,6.09s1.33,3.87,2,5.72a16.71,16.71,0,0,1,6.92-7.88,25.25,25.25,0,0,1,10.63-3.62,29.92,29.92,0,0,1,11.82,1.16,23.84,23.84,0,0,1,10.38,6.24,8.79,8.79,0,0,1,2.1,3.55,21.32,21.32,0,0,1,1.07,4.81,11.88,11.88,0,0,1-.89,7.3,19.94,19.94,0,0,1-4.75,6.88,17.26,17.26,0,0,1-7.1,4.12,8.53,8.53,0,0,1-7.47-1.13,13.32,13.32,0,0,1-5-5c-1-.32-1.53-1.21-1.49-2.66l-.77-2.63a20.26,20.26,0,0,1-1.31-5.22,14.8,14.8,0,0,0-1.46-4.93,1.33,1.33,0,0,0-1.07-.88,16,16,0,0,0-1.74-.32l-2-.23a9.8,9.8,0,0,0-2.34,4.39,24.26,24.26,0,0,0-.8,5.6,48.62,48.62,0,0,0,.15,5.68c.16,1.86.31,3.57.46,5.11.33,1.65.7,3.33,1.13,5s.89,3.43,1.41,5.18,1.16,3.68,1.93,5.75,1.57,4.27,2.41,6.57,1.59,4.49,2.29,6.57a53.43,53.43,0,0,1,1.6,5.81l3.13,13.77a2.19,2.19,0,0,1,1.09,1.34,15.67,15.67,0,0,0,3.6,7.82c1.7,1.79,4.33,2.39,7.91,1.81l6.24-1.84c1.54-.61,2.57-.29,3.1,1s.12,2.26-1.22,3c-.29.09-.46.18-.51.28s-.22.19-.5.27a30.94,30.94,0,0,1-8.47,2.26,8.75,8.75,0,0,0-2.4.59q-1.26.5-2.55.87l-.65.19a1.18,1.18,0,0,1-.27.68,1.88,1.88,0,0,0-.33.46,2.36,2.36,0,0,1-1,.53c-.15.05-.23,0-.25,0s-.1-.09-.25,0l-.28-.16a.39.39,0,0,1-.56-.31q-5.25,2-10.16,4.43A84.74,84.74,0,0,1,300.52,175a33,33,0,0,1-6.77,1.65c-2.69.39-4.25.65-4.69.78a2.41,2.41,0,0,1-1.57-4.54l.22-.07q6.18-2.06,7.51-5.06t-1-10.13a1,1,0,0,1,0-.47.93.93,0,0,0,0-.47q-1.4-3.14-2.82-6.39c-1-2.16-1.92-4.37-2.89-6.61-1.69-2-3.37-3.08-5-3.14a32.3,32.3,0,0,0-6.49.61c-1.42,0-2.2-.69-2.33-1.92a2,2,0,0,1,1.53-2.35q5.61-1.65,7.07-5.42a13.8,13.8,0,0,0,.92-7.19l-7.45-27.6a17.29,17.29,0,0,1-1-2.46c-.23-.8-.48-1.65-.74-2.52q-2.31-3.86-5.55-3.73a56.19,56.19,0,0,0-8.75,1.27c-1.48.28-2.41-.2-2.77-1.45s.21-2.16,1.75-2.78a34.67,34.67,0,0,0,7.47-4.83q5-3.84,10-7.25a44,44,0,0,1,6.57-3.49,68.89,68.89,0,0,0,6.86-3.34ZM278.55,87l0,.94,3.73-3.24Zm16-5.42q-3.64,2.75-7.43,5.77t-7.15,5.92a.44.44,0,0,0,.21.3.46.46,0,0,1,.2.29c2.31-1.15,4.78-2.44,7.41-3.85s5.26-2.9,7.92-4.48ZM281.7,98.51l.19.66,3.28-2.4Zm1.58-20a70.41,70.41,0,0,0,8.34-5.08l-.52-1.75a.93.93,0,0,1-.58.41l-.22.06a.91.91,0,0,1-.58.41q-1.25,1.32-2.79,2.85a16.05,16.05,0,0,1-3.13,2.47Zm.64,26.76c2.23-1.45,4.57-3,7-4.71s5-3.3,7.69-4.89l-.58-2q-3.7,2.52-7.44,4.94a64.61,64.61,0,0,0-7.1,5.31Zm3,32.48a12.38,12.38,0,0,1-.31-1.46,10.49,10.49,0,0,0-.31-1.45,10,10,0,0,1-1.92,2.23Zm.38-22.52,2.91-2c1.79-1.32,3.64-2.59,5.55-3.79s3.78-2.38,5.62-3.56l-.26-.88a77.83,77.83,0,0,0-7.33,4.91c-2.23,1.69-4.42,3.41-6.55,5.15Zm1.29,4.38.52,1.76c1.47-1.39,3-2.74,4.53-4.08s3.16-2.64,4.82-3.92l-5.15,3.18Zm3.69,12.51,1.47-1.39-1.53,1.17Zm14.54-5.49q-3.36,2.91-6.81,5.47c-2.31,1.72-4.38,3.4-6.24,5.06l.52,1.75q6.69-5.07,13-10.74ZM296.24,146.2q3.3-3.12,6.65-6l6.35-5.45-.45-1.54q-3.15,2.85-6.53,5.63a76.07,76.07,0,0,1-6.73,5Zm8-29.3-.2-.66-6.91,5.14Zm6.71,23.53q-3.58,3-7,5.89T297.71,152l.45,1.54a61.33,61.33,0,0,0,6.7-5.08l6.72-5.8Zm-11.27,30a.93.93,0,0,1-.41-.59l-.24.78Zm-.07-12.14a19.87,19.87,0,0,1,1.33,3L313.6,148.7l-.52-1.75q-3.57,3-6.93,5.86c-2.24,1.93-4.45,3.7-6.63,5.29Zm4.46,10.37c1.39-.57,2.64-1.09,3.75-1.57l3.32-1.44,6.38-5.35-.81-2.76q-3.87,2.76-7.17,5.46c-2.2,1.8-4.11,3.41-5.72,4.81Zm10.51-91.32,5.72-6-.49-.1a20.25,20.25,0,0,1-3.37,2.07c-1.23.6-2.45,1.24-3.65,1.92Zm13.33,1.55a.68.68,0,0,1-.5-.09l-4.95,3.84-.52.63a2.48,2.48,0,0,0,.59,2l6.67-6.74Zm-4.28,17.23a3.83,3.83,0,0,0,2.26.53l2.59-3.15a.34.34,0,0,1-.39-.12.57.57,0,0,0-.6-.06l-4.07,2.87ZM330,73.52a8.37,8.37,0,0,0-2.61-.9l-1.61,1.66a26.46,26.46,0,0,1,3.06,0Zm5.6,7.88A5.21,5.21,0,0,0,334,79.74q-2,1.8-4,3.81l-4,4Z"/>
        <path d="M367.17,116.43a31.25,31.25,0,0,1-.77-3.58c-.18-1.21-.36-2.41-.55-3.62l-.17-1.13q-2.43-7-7.95-6a5.62,5.62,0,0,1-1.74.49c-.44.07-.86-.17-1.24-.73a5.83,5.83,0,0,1-.85-1.84,4.17,4.17,0,0,1-.07-2,1.71,1.71,0,0,1,1.05-1.32l1.77-.27A9.11,9.11,0,0,0,360,91.15a26.73,26.73,0,0,0,.72-8,1.43,1.43,0,0,1,.1-.83,7.51,7.51,0,0,0,.32-.86,15.71,15.71,0,0,0-.14-3.91c-.2-1.36-.41-2.71-.61-4.07a20.91,20.91,0,0,1-1.14-3.76c-.28-1.34-.61-2.76-1-4.24a15,15,0,0,0-.72-1.74c-.21-.43-.43-.86-.65-1.29a10.67,10.67,0,0,0-4.6-2.66q-2.49-.66-5.1-1.42a3.26,3.26,0,0,1-1.25,0,3.32,3.32,0,0,0-1.26,0l-.89.13,0-.22-.45.06a2.43,2.43,0,0,1-2.13-2.1,2,2,0,0,1,1.23-2.38l.22,0c-.15,0,.05-.16.59-.55q9.86-2.41,16.34-3.87t11.55-2.45c3.38-.66,6.77-1.22,10.19-1.66s7.58-1,12.48-1.55l0,.23a2.21,2.21,0,0,1,.87,4.26l-.44.07a.91.91,0,0,1-.63.32,10.36,10.36,0,0,0-5.6,2,10,10,0,0,0-3.29,4.54,25.53,25.53,0,0,0-1.4,6.46,38.6,38.6,0,0,0,0,7.29,32.17,32.17,0,0,1,9.49-10.8,40.62,40.62,0,0,1,13.09-6.5,36.39,36.39,0,0,1,14-1.21,24.17,24.17,0,0,1,12.47,5l3.65,3.14c2.14,2.15,4,3.91,5.46,5.31a29.44,29.44,0,0,1,4.14,4.8,39.41,39.41,0,0,1,3.65,6.85,76.56,76.56,0,0,1,3.53,11.26c.2,1.35.17,2.13-.1,2.33a81.69,81.69,0,0,1,1.69,8.18,68.19,68.19,0,0,1,.75,7.87c0,.15.06.22.14.21s.12.06.15.21q.18,2.75.59,7.65a52.61,52.61,0,0,0,1.68,9.58,28,28,0,0,0,3.49,8,6.27,6.27,0,0,0,6.25,3,1.8,1.8,0,0,1,2.07,1.65,2.1,2.1,0,0,1-1.45,2.42,21.32,21.32,0,0,1-4.43,1.48q-2.1.44-4.62,1c-1.67.41-3.73.84-6.16,1.28s-5.39,1.17-8.87,2.16a48.27,48.27,0,0,0-7.91,1,33.69,33.69,0,0,1-5.44.83,3.78,3.78,0,0,1-4.41.9,3.9,3.9,0,0,1-.73-3.36q-.11-.67,4.23-2a10.83,10.83,0,0,0,1.09-3.29c.25-1.34.46-2.69.64-4s.33-2.55.46-3.65a10.79,10.79,0,0,0,.14-2.11l-1.32-20.61q-.51-3.39-.95-7c-.29-2.42-.71-4.9-1.24-7.44-.94-4.17-1.87-8-2.79-11.61s-1.71-6.52-2.37-8.89q-1.41-3.25-2.88-6.27A46.28,46.28,0,0,0,417,60.29a14.71,14.71,0,0,0-1.25-1.54,11.91,11.91,0,0,0-1.19-1.1L412.65,57c-.63-.21-1.35-.41-2.13-.6q-3.21-.21-6.61,2.85a32.85,32.85,0,0,0-4.66,7.42,24.38,24.38,0,0,0-2.18,5.88q-1,6.87-1.85,11.73c-.56,3.25-1,6.56-1.33,9.92a92.37,92.37,0,0,0-.26,11.72q.21,6.68,1.09,17c.43,1.78.86,3.38,1.3,4.77a8.84,8.84,0,0,1,.57,3c.31,1,.57,2,.78,2.89s.39,1.79.53,2.69c.54,1.62,1.06,3,1.55,4.28a6.29,6.29,0,0,0,2,2.81,3.13,3.13,0,0,1,1.3-.42,3.2,3.2,0,0,1,1.4.25,2.63,2.63,0,0,1,.73.34l0,.23a21,21,0,0,0,4.62-1.74,10.59,10.59,0,0,0,3.71-3.22c.25-.35.18-.76-.19-1.25a6.59,6.59,0,0,0-1.57-1.38,14.55,14.55,0,0,0-2-1.08,7.73,7.73,0,0,1-1.23-.63,2.24,2.24,0,0,1,1.32,2.69,2.05,2.05,0,0,1-2.47,1.65l-.7-.12a2.46,2.46,0,0,1-1.9-2q-1.16-3.06,0-4.51a4.37,4.37,0,0,1,3.16-1.63,9.19,9.19,0,0,1,4.44.83,10.12,10.12,0,0,1,4,2.86,6.31,6.31,0,0,1,1.37,4.54c-.11,1.79-1.14,3.68-3.11,5.67a5.81,5.81,0,0,1-2.68,1.8,23,23,0,0,0-3,1.15,13.61,13.61,0,0,1-3.15.94l-3.22.49a46.88,46.88,0,0,1-6.24,1.52q-3.65.68-7.3,1.23c-2.45.37-4.78.69-7,.95s-3.94.48-5.13.66l-1.33.21q-4.92.51-9.32,1.41a13.78,13.78,0,0,1-6,2.3,2.63,2.63,0,0,1-2.62-1.57c-.55-1.07-.21-2.08,1-3l4.59-1.16q4.17-2.49,5.53-8.47a40.16,40.16,0,0,0,1-11.71Zm-7.1-63.22a3.08,3.08,0,0,0,.43,1.32L371.77,51l3.29-.73a41.22,41.22,0,0,0-7.47.9Q363.74,52,360,53ZM362.16,61a1.64,1.64,0,0,0,.21.66,1.63,1.63,0,0,1,.22.66L376.93,55l0-.22L361.63,59A7.44,7.44,0,0,1,362.16,61Zm1.73,32.35c-.2.65-.45,1.3-.72,2s-.52,1.31-.73,2a13.35,13.35,0,0,1,2.24,1.28Zm13.74-29.15a16.27,16.27,0,0,1-.19-2c0-.61,0-1.31,0-2.09l0-.22-13.93,7,.34,2.26Zm-12.2,13.88a8.07,8.07,0,0,0,.79,2.19l7.53-2.76-.67.1,5.83-2,0-.22a4.21,4.21,0,0,1-.72-1.75l0-1.39A53.58,53.58,0,0,1,371.78,75q-3.22,1.19-6.41,2.6Zm2.21,7.07a1,1,0,0,0,.18.43A1,1,0,0,1,368,86l11.54-4.76-.07-.46Zm1.24,5.13a1.5,1.5,0,0,0,.21.66,1.5,1.5,0,0,1,.21.66l11.24-3.79-.34-2.26c-1.44.53-2.8,1-4.08,1.55l-3.86,1.51a.62.62,0,0,0-.41.29Zm.63,5.68a4,4,0,0,1,0,1.62l11.76-4.79-.1-.68Zm.42,8.73c2.55-1.16,4.93-2.14,7.16-2.94s4.06-1.46,5.49-2l-.38-2.48c-2.15.78-4.26,1.61-6.32,2.46s-4.16,1.75-6.29,2.69Zm2.65,39.84c-.31,1-.62,1.91-.94,2.81a18,18,0,0,1-1.19,2.61l2.88-.44Zm-1.21-33.35,12.33-5.57-.18-1.14-12.9,4.74Zm14.2,5.24-.38-2.48-12.87,5,.44,2.94Zm1.54,7.17a7.44,7.44,0,0,0-.53-2l-12.24,7.64ZM390.28,134a4.64,4.64,0,0,0-.43-1.32,4.34,4.34,0,0,1-.43-1.32L376.12,138l.48,3.17ZM393,141.2l-.61-1.07c-2.43,1-4.92,2-7.5,3s-5.06,2.08-7.46,3.22l.24,1.58Zm-11.1-91.07a2.08,2.08,0,0,0-.91,1.53,7,7,0,0,0,.09,2.07,8.49,8.49,0,0,1,.85-1.87c.37-.59.73-1.22,1.08-1.9Zm3.21,28.66,0,.22,6-2.52ZM389.66,85A22.2,22.2,0,0,1,390.1,82l-4.53,1.61.38,2.49Zm-3,5.55.63-.33-.67.1Zm6.25-20.15a28.69,28.69,0,0,1,1.05-2.82,27.92,27.92,0,0,1,1.3-2.63l-4,1.78-4.35,5.75Zm-4.08,24a4,4,0,0,1-1.71.72l.48,3.17,1.3-.43Zm-.66,9.12.63-.33a.5.5,0,0,1,.06-.35.51.51,0,0,0,.06-.36,1.12,1.12,0,0,0-.42.18,1,1,0,0,1-.43.18Zm1.32,10.21a1,1,0,0,1,0-.47,1.61,1.61,0,0,0,0-.7l-.22,0Zm30.78-59a3.51,3.51,0,0,0-1.42-.36,4.24,4.24,0,0,1-1.16-.17l.84,1Zm11.93,6.75a4.26,4.26,0,0,1-.95-1,4.62,4.62,0,0,0-1-1l-5.73,4.11.87,1.26Zm7.07,7.71a9.93,9.93,0,0,0-1.42-1.87c-1.53.86-3.06,1.74-4.59,2.67s-3,1.89-4.55,2.89Zm5.12,8.24a9.33,9.33,0,0,0-1.27-2.35q-5.49,2.7-12,6.45l.06.45,1.49-.69ZM432.57,88l4-2.23-4.08,1.55Zm1,5.16,4.9-2.13c1.13-.48,2.49-1,4.08-1.55s3.15-1.17,4.71-1.87l-.34-2.26c-2.11,1.1-4.29,2.19-6.54,3.31s-4.56,2.39-6.92,3.82Zm.82,5.43.1.68a51.43,51.43,0,0,1,4.61-2.56Zm2.16,11.23q6.31-3.27,12.74-5.86a.43.43,0,0,1,.06-.36.47.47,0,0,0,.06-.35L442.58,106q-3.21,1.31-6.18,2.67Zm.76,5a9,9,0,0,1,.06,1.15,7.82,7.82,0,0,0,.09,1.37L450.15,111a9,9,0,0,0-.32-1.34,2.88,2.88,0,0,1-.09-1.37l-6.32,3.27C441.32,112.65,439.28,113.73,437.33,114.8Zm.24,21c.84-.44,1.68-.91,2.51-1.42s1.65-1.06,2.47-1.65a11.16,11.16,0,0,1-2.47.95,23.47,23.47,0,0,0-2.28.69Zm.24-14.84a13,13,0,0,1,.19,2.74l13.16-7.54L451,115c-2.43,1-4.7,1.94-6.83,2.88S439.92,119.88,437.81,121ZM449,98.69l-.14-.9-9.09,4.38-1.9,1Zm2.7,25.26a12.35,12.35,0,0,0,0-2.78L438.12,129c1.14-.48,2.21-1,3.2-1.41s2.05-.93,3.19-1.41Zm.58,11.25c-.07-.45-.15-.94-.23-1.47a7.06,7.06,0,0,1,0-1.73l-4.13,2.71-7.7,4.64a9.18,9.18,0,0,1,1.57-.12,8.75,8.75,0,0,0,1.35-.09l.25.19Zm8.07.85a11.83,11.83,0,0,1-3.5-3.63,19.75,19.75,0,0,0,.07,3.46l.21,1.36Z"/>
        <path d="M457.5,22.84c2.26.16,3.88.85,4.86,2.09A6.7,6.7,0,0,1,464,28.6a12,12,0,0,1,.65,4.88,17,17,0,0,1-1.12,5.12,12.79,12.79,0,0,1-2.76,4.31,11.09,11.09,0,0,1-4,2.67,2.25,2.25,0,0,1-2.42-.76,2,2,0,0,1-.26-2.28,2.69,2.69,0,0,1,1.24-1.68c0-.15.06-.24.21-.24l.22,0c1.3-.85,2-1.58,2-2.19s-.34-1-1.1-1.31a6.54,6.54,0,0,1-3.42-.69q-4.16-1.56-4-5.47a8.81,8.81,0,0,1,2.95-6.38,14.11,14.11,0,0,1,1.27-1.23C454.05,22.84,455.39,22.67,457.5,22.84Zm-.6,4.62c-.15,0-.38-.12-.7-.41a2.12,2.12,0,0,0-1.52.79c0,.15.57.65,1.67,1.49a2.23,2.23,0,0,1,2.72.28C458.53,28.27,457.81,27.55,456.9,27.46Z"/>
        <path d="M518.1,77.71q-6.94-1.87-7.94-5.08t1.5-6.39a32.51,32.51,0,0,0,2.18-9.37,29.85,29.85,0,0,0-1-11.21,8.06,8.06,0,0,0-2.33-4.24,8.08,8.08,0,0,0-6.73-2.21,3.37,3.37,0,0,0-2.36,1.13A31.2,31.2,0,0,0,498.06,48a47.16,47.16,0,0,0-1.85,8.8c0,2,.06,4.08.19,6.29s.21,4.23.2,6.06a16.37,16.37,0,0,0,1.21,3.43,23.88,23.88,0,0,0,1.89,3.22,31.29,31.29,0,0,0,6.83,4.72,66.19,66.19,0,0,0,6.94,3c2.31.86,4.59,1.59,6.84,2.21a29.43,29.43,0,0,1,6.27,2.55,17.26,17.26,0,0,1,8.71,8.28,21.83,21.83,0,0,1,3.1,8.94A34.68,34.68,0,0,1,536,120.57a35.45,35.45,0,0,1-7.81,11.73A33.64,33.64,0,0,1,517,139.67a25.36,25.36,0,0,1-12.47,1.76,28.75,28.75,0,0,1-14-4.42,23.25,23.25,0,0,1-9.71-11,31.12,31.12,0,0,1-2.64-8.7,37.19,37.19,0,0,1,0-8.23v-.23a7.89,7.89,0,0,1,.46-2.06,2.72,2.72,0,0,1,.23-1.14l.23-.23a12.07,12.07,0,0,1,3.39-4.9q2.26-1.92,4.05-1.46a14.88,14.88,0,0,1,5.4-1.11,10.46,10.46,0,0,1,4.14,1.51,15.1,15.1,0,0,1,3.8,3.22,11.27,11.27,0,0,1,2.34,4.24,5.51,5.51,0,0,1-.47,4.34v.46a25.09,25.09,0,0,0-2.27,5.13,22,22,0,0,0-1,5.83,23.42,23.42,0,0,0,.42,5.72,8.33,8.33,0,0,0,2.11,4.35c1.19,1.08,3,1.73,5.6,2a24.71,24.71,0,0,0,8.31-.76,38.4,38.4,0,0,0,1.51-9.36,82.18,82.18,0,0,0,0-11.44v-.23a39.12,39.12,0,0,1-1.31-7.09,25,25,0,0,0-7.8-9.88,29.18,29.18,0,0,1-3-2.19,12.17,12.17,0,0,0-2.13-1.5l-7.84-2.78a18.35,18.35,0,0,1-6.83-2.9,24.11,24.11,0,0,1-5.7-5.4,27.57,27.57,0,0,1-7-13.08,27.12,27.12,0,0,1,6.76-25.68,30.3,30.3,0,0,1,9.7-6.81,34.42,34.42,0,0,1,11.46-2.8A31.57,31.57,0,0,1,514.08,34h.22c1.49.31,3,.7,4.49,1.17a16.34,16.34,0,0,1,4,1.85,19.94,19.94,0,0,1,8.6,7.82q3.23,5.28,4.08,14a27.31,27.31,0,0,1-.6,7.2,13.41,13.41,0,0,1-3.07,6.27,13.14,13.14,0,0,1-5.3,4.78A11.91,11.91,0,0,1,518.1,77.71ZM491.74,53.55l-9.22,3.38-4.06,2a1,1,0,0,1-.11.45,1.17,1.17,0,0,0-.12.46q3.38-.89,6.64-1.91t6.41-2.13ZM478.44,64a6.85,6.85,0,0,0,.21,2.06c1.65-.91,3.34-1.81,5.07-2.72s3.49-1.81,5.29-2.71q-3.15.9-5.51,1.68c-1.58.53-2.89.94-3.94,1.24A4.06,4.06,0,0,1,478.44,64Zm1.18-10.74,13.27-4.5v-.23l-12.59,2.9Zm.13,17.15q2.92-.9,5.73-1.69a59.35,59.35,0,0,0,5.74-1.91,6.81,6.81,0,0,1-.21-2.06l-6,2.6a38.59,38.59,0,0,0-5.29,2.83Zm2.89,5.73,9.46-5.21V70.7l-10.58,3.84Zm.27,32.93a2.49,2.49,0,0,0,.22,1.15l4.73-3.06a26.47,26.47,0,0,0,4.28-3.53,30.51,30.51,0,0,0-4.27,1.47,28.39,28.39,0,0,1-4.5,1.46A4.9,4.9,0,0,0,482.91,109.07Zm12.26-67.16-8.77,2.24-.9.22a6,6,0,0,0-1.24,1.14c-.37.45-.71.83-1,1.13a51.08,51.08,0,0,0,5.5-1.22c1.88-.52,3.79-1.09,5.74-1.69Zm-11.19,77a4.81,4.81,0,0,1,.33,1.15,2,2,0,0,0,.55,1.14v.23l9-4.52a25,25,0,0,1-3,.67,10.27,10.27,0,0,1-3,0Zm10.08,2.8-7.43,3.85a26.58,26.58,0,0,0,3.72-1.24c1.27-.53,2.51-1,3.71-1.47Zm3.44-12.56a4.31,4.31,0,0,0,0-2.74,56.09,56.09,0,0,1-5.07,3.29c-1.73,1-3.49,2-5.3,3a.5.5,0,0,1,.34.12.43.43,0,0,0,.34.12l8.77-2.47A5.22,5.22,0,0,0,497.5,109.15ZM488.41,129c0,.15,0,.23.11.23s.11.07.11.22l2-1.13h-.45Zm2-47.1,5.64-4.09a.2.2,0,0,0-.22-.22,16.23,16.23,0,0,0-2.82,1.58c-1.13.76-2.29,1.51-3.49,2.27Zm6.08-44.1a38,38,0,0,0-5,2.26l4.27-1.35Zm-1.85,93.52-2.48,1.58a.63.63,0,0,0,.45.24l2.47-.91Zm11-43.16A12.52,12.52,0,0,1,504,88a11.26,11.26,0,0,0-1.69-.13l1.57.7Zm-.43-3.89a4.06,4.06,0,0,1-1.12.45,12.44,12.44,0,0,0,2.91.24Zm3.78,6.88a9.54,9.54,0,0,1,2,1.15l8.1-2.47a8.18,8.18,0,0,0-2-.58c-.6-.08-1.27-.2-2-.36Zm3.21-53.27.22.24.23-.23Zm2.07,32.95a4,4,0,0,0,1.8-1.14A33.09,33.09,0,0,0,520,67.2q1.8-1.36,3.83-2.73a20.07,20.07,0,0,0-4.72,1.47,11.14,11.14,0,0,0-3.38,2.15l-1.36,2ZM516,97.36a46,46,0,0,1,4.73-2.49l4.95-2.26c-.3-.3-.53-.46-.67-.46l-10.35,3.37Zm.73-52.59,5.86-3.4a2.41,2.41,0,0,0-.78-.58,5.35,5.35,0,0,1-.79-.34l-5.4,1.8Zm.3,27.67a.87.87,0,0,0,.67.23l11-3.82A4,4,0,0,0,528,67Zm13.12-17.08a6.09,6.09,0,0,1-.22-1.83c-1.8.76-3.82,1.74-6.08,2.94s-4.2,2.19-5.85,2.94a.68.68,0,0,1-.23.46Zm-12.32-5.1,9.44-3.6a9.9,9.9,0,0,0-1.11-2.07h-.22l-8.11,5ZM519.08,104q2.92-1.12,6-2.6c2-1,4.09-1.92,6.19-2.82a.52.52,0,0,0-.11-.35.44.44,0,0,1-.11-.34l-1.56-1.84-11.26,5.43Zm-.85-49.86v.92l2.93-2Zm8.36,72.77a5.26,5.26,0,0,0,1.81-1.82L520.75,128l-.92,3.88a19,19,0,0,0,5-3.4l.9-.91.9-.91ZM520,108.13a1.8,1.8,0,0,1,.22.69.68.68,0,0,0,.22.46l12.84-6.34v-.23Zm.86,6.64a2.46,2.46,0,0,0,.11.8,2.71,2.71,0,0,1,.11.8,59.56,59.56,0,0,0,6.19-2.83,45.6,45.6,0,0,1,6.64-2.82A1.52,1.52,0,0,1,534,110a1.52,1.52,0,0,0,.12-.69V108c-1.66.75-3.68,1.73-6.08,2.94S523.22,113.41,520.82,114.77Zm10.09,2.34c-1.5.76-3.08,1.51-4.72,2.26a33.66,33.66,0,0,1-5,1.8v1.37Zm-3.28-56a.63.63,0,0,0,.44.24,1.83,1.83,0,0,1,.68.23l1.57-.91v-.46Z"/>
        <path d="M658.79,103.85a2.75,2.75,0,0,1,1.43,1.93q6,1.93,7.26,7.09l.47,1a6.79,6.79,0,0,0,.84,2.62,3.94,3.94,0,0,1,.35,2.76,14.71,14.71,0,0,1-.93,5.65c-.7,1.88-1.46,3.75-2.3,5.59q-6.09,11.83-16,16.33a9.66,9.66,0,0,1-3.1,1.7,35.67,35.67,0,0,0-3.49,1.39,64.59,64.59,0,0,1-10.89,2.78,50.55,50.55,0,0,1-11.82.6,32.12,32.12,0,0,1-11.12-2.75,20.92,20.92,0,0,1-8.77-7.52,67.73,67.73,0,0,1-6.37-11.93,93.13,93.13,0,0,1-4.6-13.9,112,112,0,0,1-2.54-14.41A66.65,66.65,0,0,1,587,89.34a68,68,0,0,1,1.34-9.88,92.15,92.15,0,0,1,2.87-10.62q1.79-5.34,4-10.39t4.38-9a16.78,16.78,0,0,0,1.59-3.29c.37-1.09.74-2.1,1.08-3a14.69,14.69,0,0,1,1.37-2.75,14.2,14.2,0,0,1,2.27-2.68,29,29,0,0,1,9.2-6.29,111.68,111.68,0,0,1,10.55-3.9q4.85-1.34,9-2.11a30.16,30.16,0,0,1,8.44-.37c.35-.24.6-.34.75-.31a1.67,1.67,0,0,0,.7-.09L648,25.76a27.36,27.36,0,0,1,11,5.53,11.93,11.93,0,0,1,2.55,1A15.6,15.6,0,0,1,666.11,37a36.25,36.25,0,0,1,3.27,6.39,31.19,31.19,0,0,1,1.88,7,53.94,53.94,0,0,1,.58,6.66,30.21,30.21,0,0,0,.1,3.41c.11,1.34.18,2.68.21,4a17.32,17.32,0,0,1-.34,3.9,7.43,7.43,0,0,1-1.33,3.12l0,.22c-.46,1.46-1,3-1.5,4.48a8.29,8.29,0,0,1-8.06,5.23,35.84,35.84,0,0,1-5.72-1.18,21.35,21.35,0,0,1-7.7-3.8,14.29,14.29,0,0,1-3.92-4.89,9.43,9.43,0,0,1-.88-5.2,10.29,10.29,0,0,1,1.91-4.86,73.37,73.37,0,0,0,1.73-9,43,43,0,0,0,.19-9.3,39.46,39.46,0,0,0-.78-5.65,5.2,5.2,0,0,0-3.41-4.08l-.22,0a6.82,6.82,0,0,1-1.63.71c-.74.24-1.52.5-2.35.8s-1.6.57-2.34.8a3.09,3.09,0,0,0-1.41.76,28,28,0,0,0-5.76,10.14,51.9,51.9,0,0,0-1.94,10.58q-.42,5.4-.69,11.18a63.93,63.93,0,0,1-1.78,12c-.76,3-1.63,6-2.59,9.28s-1.9,6.42-2.78,9.58-1.6,6.13-2.17,8.89a40.47,40.47,0,0,0-.91,6.7q0,5.39-.3,11.5a40.13,40.13,0,0,0,1,11.76l1.48,1.71a34.09,34.09,0,0,0,2.86,3.39,11.67,11.67,0,0,0,2.86,2.22,13.83,13.83,0,0,0,5.12-.93,23.42,23.42,0,0,0,4.74-2.41,16.09,16.09,0,0,0,1.16-1.75c.36-.63.76-1.28,1.21-2q1.65-2.46,2.83-8.76t2.34-13.06a12.66,12.66,0,0,1-.18-2.48,15.07,15.07,0,0,1,.31-2.62,2.58,2.58,0,0,1,.77-2.65,15.62,15.62,0,0,1,1.66-2.46,6.36,6.36,0,0,1,3.32-2.23,15.27,15.27,0,0,1,4.26-.65c1.45,0,2.85,0,4.21.17S657.87,103.82,658.79,103.85ZM592.37,90.2a18.63,18.63,0,0,1-1-3l-.44-.09,0,2.33a3.34,3.34,0,0,0-.06,1.38l1.46-.4ZM594,116.91a1.31,1.31,0,0,0,.26,1l6.62-1,6.62-1a5.26,5.26,0,0,0,.09-1,5.21,5.21,0,0,1,.1-1q-3.36.7-6.82,1.4T594,116.91Zm.77-7.08a5.36,5.36,0,0,1-.32,1,5.43,5.43,0,0,0-.31,1,24.35,24.35,0,0,1,5.29-1.24,52.12,52.12,0,0,0,5.48-1c-1.85.09-3.62.12-5.29.08A45.11,45.11,0,0,0,594.75,109.83Zm1,13a5.4,5.4,0,0,0,.6,1.53l11.3-2.58-.12-.49c-2.21.32-4.28.56-6.22.7A37,37,0,0,0,595.74,122.87Zm.91-33.42c2.73-.69,5.36-1.39,7.88-2.12s5-1.46,7.45-2.21l-16.15,1.59Zm-.26,9-.46,2.24,5.61-1.65,3.18-1ZM613.25,80l.56-2.69-9.1,1.87c-3,.62-5.92,1.27-8.65,2l0,.23c2.35-.3,4.62-.53,6.79-.71l5.82-.44Zm-16.54-7.6a13.6,13.6,0,0,0-.26,1.81c-.05.61-.08,1.31-.09,2.08,3.06-.77,6.17-1.53,9.3-2.29s6.22-1.44,9.25-2.07q-5-.09-10-.06A61,61,0,0,0,596.71,72.42Zm0,21.24c2.32-.14,4.63-.22,6.92-.21s4.51,0,6.65,0l.78-3.81-5.51,1.2-8.8,2.63Zm1,34.28,0,.23c3.76-.47,7.23-1,10.41-1.6a.63.63,0,0,1-.12-.49,1.76,1.76,0,0,0-.09-.72l-10.37,2.54Zm7.65-64a28.4,28.4,0,0,0-3.22.62,34.59,34.59,0,0,1-3.93.71l0,.22c1.27-.2,2.46-.43,3.58-.66S604,64.27,605.33,63.92Zm3.27,39.89a7.35,7.35,0,0,0,.14-1.26,6.38,6.38,0,0,1,.14-1.25c-1.18.53-2.27,1-3.27,1.42a11.25,11.25,0,0,1-2.92.81l-3.44,1.16a33.7,33.7,0,0,0,4.65-.33C605.47,104.14,607,104,608.6,103.81Zm-8.43-44.92a5,5,0,0,1-.31,1,5.36,5.36,0,0,0-.32,1l18.12-1.18a16.59,16.59,0,0,1,.82-2.87q-4.68.45-9.22.79A75,75,0,0,0,600.17,58.89Zm-.37,73.22.65,1.3,3.45-1.15a21.53,21.53,0,0,1,3.62-.89Zm2.94-79a1.36,1.36,0,0,0-.41.85c2.83-.35,5.71-.65,8.67-.9s5.92-.54,8.89-.86l0-.23-17.06.47Zm8.79,83.28-.35-.54-7.68,1.69a.62.62,0,0,0,.39.32Zm-6.46-87.94,16.49-1,1.35-3.23-8.38,1.2c-2.92.41-5.73.89-8.43,1.42Zm5.62-7.25c0,.16-.09.22-.16.21s-.13.05-.16.2l1.63-.14Zm2.58,62.17a21.25,21.25,0,0,1,.57-2.22,21.25,21.25,0,0,0,.57-2.22l-.75.31c-.16.75-.3,1.46-.44,2.13a11.39,11.39,0,0,0-.22,2.17Zm6.23,43.3a9.91,9.91,0,0,1-2.8-2c-.65.18-1.25.33-1.81.45s-1.17.26-1.81.44a14.62,14.62,0,0,0,3,.75C617.17,146.46,618.29,146.58,619.5,146.67Zm-6.4-79.29,2.73.09,0-.22Zm4.76,20.35a4.91,4.91,0,0,0-2,.54l-1,4.93a.87.87,0,0,0,.57,0,.89.89,0,0,1,.58,0Zm-2.74-50.28,11.77-.39a17.27,17.27,0,0,1,1.63-2.35c.61-.72,1.21-1.42,1.81-2.08l-11.92,2.22Zm5.1,42.13a14.06,14.06,0,0,1,.48-1.77,6.85,6.85,0,0,0,.3-2l-2.43.67-.69,3.36a7.88,7.88,0,0,1,2.29,0ZM621.65,67a1.82,1.82,0,0,0-1.14,0l-.1.45h1.15Zm27.11,74.43-9.39,1.11-1.25,1.61-.89,1,10.11-2.35Zm-5.62-7.22,11.17-1.91.13-.67-11,1.24ZM654.23,126a8.71,8.71,0,0,1-3.58.67,16.75,16.75,0,0,0-3.09.53,20.15,20.15,0,0,1-2.86.58l-.1.45,10.89-.57.42-2Zm-8-14.71.3.76-.09.45c1.59-.29,3.16-.52,4.72-.66A27.69,27.69,0,0,0,656,111Zm17.64-46.8a3.83,3.83,0,0,0-1-.67l-7,1.93c-2.43.67-4.86,1.3-7.27,1.89l.29,1.93q3.45-1.16,7.41-2.56T663.89,64.51ZM649.12,34.86a5.93,5.93,0,0,0,1.77-.8,14.57,14.57,0,0,1,1.82-1,.91.91,0,0,1-.62-.36l-3.44,1.16ZM650,55.34a3.54,3.54,0,0,0-.08.92,4,4,0,0,1-.07.92L659,53.7Zm.65,66,.22,0,.27-.18Zm.2-72.33a.94.94,0,0,0,0,.47,1.08,1.08,0,0,1,0,.47q3.61-.89,7.46-1.73c2.56-.57,5.2-1.11,7.91-1.65l-.69-2.24Zm.5,87.88a3.37,3.37,0,0,0,1.42-.17Zm7.28-101.22-7,4.15,9-2.35-1.7-1.75ZM656.25,76c.12.18.47.33,1.06.45l1.81-1Zm1.51,59.61-.71.09a1.39,1.39,0,0,1-.4.85l.22,0Zm5.17-21.82a12.89,12.89,0,0,0-2.19.6,12.13,12.13,0,0,1-2.18.61,8.16,8.16,0,0,0-.87.28,6.59,6.59,0,0,1-.86.3l6.53-.53Zm-4.34,17.79,1.68-.36-1.64.13Zm5.22-7.57-3.62.89-.55,2.69,2.77-.13ZM661.57,58a3.88,3.88,0,0,1,.85.29,3.38,3.38,0,0,0,.86.3l4.33-1-.17-1.44-2.67.74a16.81,16.81,0,0,0-2,.65Z"/>
        <path d="M726.74,97.71a52.7,52.7,0,0,0-1.2-12.23,12.26,12.26,0,0,0-4.63-7.37L720.7,78a1.33,1.33,0,0,1-1.29.27,11.22,11.22,0,0,0-6.93,6,14.87,14.87,0,0,0-1.66,7.91l0,2a6.82,6.82,0,0,1,.86,2.25,19.06,19.06,0,0,1,.29,5.82,7.88,7.88,0,0,1-2.11,5.2,14.21,14.21,0,0,1-7.54,4.69,16.94,16.94,0,0,1-8.43-.11,17.69,17.69,0,0,1-7.28-4,11.87,11.87,0,0,1-3.9-6.75A10.32,10.32,0,0,1,683,96a11.71,11.71,0,0,1,2-3.64,35.22,35.22,0,0,1,3.92-7.58,36.91,36.91,0,0,1,9.54-9.93,22.83,22.83,0,0,1,16.77-4.18q9.84,1.85,17.32,3.93a24.78,24.78,0,0,1,12.37,7.73q5.93,4.08,7.63,9.31t0,14.58a27.27,27.27,0,0,1-.94,6.59,45,45,0,0,1-2.13,5.91,15.94,15.94,0,0,1-.87,3.09,14.17,14.17,0,0,0,.12,4.3,10.12,10.12,0,0,0,1.84,4.18,9.08,9.08,0,0,0,2,2.32,35,35,0,0,0,2.82,2.1A18.7,18.7,0,0,0,758.9,137a2.47,2.47,0,0,1,.3,3.15c-.67,1-1.68,1.14-3,.49q-4.21-2.25-7.37-1.08a12.75,12.75,0,0,0-5.53,4.09,28.19,28.19,0,0,0-4,6.82c-1.09,2.61-2.1,5-3,7.06q-1.25,3.44-2.18,6.38a49.09,49.09,0,0,0-1.64,7.55,24.62,24.62,0,0,1-.58,2.59,12.49,12.49,0,0,0-.44,2.88,6.86,6.86,0,0,0,.46,2.72,3.42,3.42,0,0,0,2.18,1.88c.23.24.39.34.49.29a1,1,0,0,1,.57.09l.85.3a7.17,7.17,0,0,1,.85-.06,6.14,6.14,0,0,1,1.41.39,2.34,2.34,0,0,1,1.27,2.77,1.94,1.94,0,0,1-2.32,1.47q-3.58-1.29-5.67-1.8c-1.39-.34-2.63-.66-3.71-1s-2.21-.59-3.39-.85-2.78-.68-4.8-1.25q-4.82-1.23-11.12-3.27a117,117,0,0,1-11.85-4.5,25.3,25.3,0,0,1-5.77-1.23,36.72,36.72,0,0,1-7.33-3.49,2,2,0,0,1-1-2.54,2.8,2.8,0,0,1,2.55-1.76,7.37,7.37,0,0,1,1.76.39l1.9.69A13.11,13.11,0,0,0,701,162.06a3.83,3.83,0,0,0-.45-2.71,6.65,6.65,0,0,0-2.27-1.66,35.87,35.87,0,0,1-13.58-4,17.51,17.51,0,0,1-8.45-9,10.3,10.3,0,0,1-.79-9.76,45.57,45.57,0,0,1,6-10.61,14.73,14.73,0,0,1,6.65-4.9,20,20,0,0,1,8.6-.67,117.51,117.51,0,0,1,12,2.13c1.17.26,2.91.52,5.2.78a7,7,0,0,0,5.49-1.31q2.11-1.91,3.69-6.94t3.31-11.2Zm-28.5,45.39a5.44,5.44,0,0,1-1.61-.82l-15.3.08.19.8ZM691,134.16a4,4,0,0,1,0-1.22l-7.88-.65a.92.92,0,0,0-.71,0l-.77,2.16,3.84-.08ZM688.14,148q5.18.17,10.31.19t10.52.26l.78-2.15-25.57.77.69.73Zm17-20.62c.48,0,1,0,1.53.06a6.32,6.32,0,0,1,1.66.35c1.61-.06,3.21-.06,4.77,0l4.69.23.39-1.08a13,13,0,0,1-7.23.19q-4.21-.9-8.59-2c-2.42.1-4.83.17-7.23.19l-6.94.06a13.47,13.47,0,0,0-3.27,2.46q2.55.19,5,.24c1.66,0,3.37,0,5.13,0C697.31,127.13,700.65,126.88,705.1,127.35Zm-14-22.78a9.87,9.87,0,0,0,5.84,2.34,11.09,11.09,0,0,0,5.36-1ZM705.77,97l-13.83-1.33a.2.2,0,0,1-.29.14,66.59,66.59,0,0,0,7.29,1.29c2.36.28,4.84.57,7.45.85Zm7,42.15c.26-.72.56-1.46.92-2.22s.66-1.51.92-2.23l-.21-.07a4,4,0,0,1-1.85-.18,9.85,9.85,0,0,1-1.82-.9c-.71-.25-1.42-.47-2.15-.65s-1.48-.33-2.23-.44c-1.23-.12-2.33-.27-3.3-.46a11.53,11.53,0,0,0-2.66-.22c-3,.85-4.75,1.93-5.22,3.22a5.69,5.69,0,0,0,2.48,3.08,31.21,31.21,0,0,0,7.89,2.6l2.79-.46a5.8,5.8,0,0,0,1.86-.54,8.52,8.52,0,0,1,1.66-.62.88.88,0,0,0,.46,0A1,1,0,0,1,712.8,139.11ZM696,83.72l5.43.5A53.89,53.89,0,0,1,707,85l.46-1.29c-2.13-.28-4-.5-5.6-.68s-3.1-.34-4.47-.51Zm5.68,83.7a12.89,12.89,0,0,1-3,1.61,1.33,1.33,0,0,0,.93.09A11,11,0,0,0,701.66,167.42ZM710,79.28A5,5,0,0,1,711.17,78a13.66,13.66,0,0,0,1.38-1.2,5.94,5.94,0,0,1-1.77-.39l-1.5.19a14.18,14.18,0,0,0-6.46,2.05c1.23.12,2.35.2,3.37.24s2.07.1,3.17.16Zm15.7,93.63c-3.12-.15-6.48-.23-10.06-.22s-7.06.05-10.43.14l6.76,2.43,13-.41Zm-19-6.12a9.43,9.43,0,0,0-1,2.08c3.51,0,7.05,0,10.6,0s7.16.11,10.82.13l.69-1.94-1.84-.18q-1.85-.18-7.51,0T706.66,166.79Zm27-14.6-15.23-.13-6.27.17-.61,1.72c3.45.12,7,.2,10.52.27s7.13.18,10.73.34Zm-19.87-4.48,7.27-.3c2.42-.1,4.82-.12,7.19-.08l-14.07-.69Zm4.82-11.39a10.15,10.15,0,0,1-.57,1.26,7.4,7.4,0,0,0-.57,1.25c3.56-.18,7-.22,10.42-.14s6.65.21,9.78.36L738,138q-5.67-.81-10.1-1.08c-3-.17-5.27-.4-6.92-.67Zm22.87-8.53c-3.08-.3-6.11-.58-9.12-.85l-9.12-.85-.92,2.58,18.62.62Zm-14.94-10.24,5.77-.11,12.51.37a1.48,1.48,0,0,1,.34-.61,1.66,1.66,0,0,0,.34-.61q-5-.59-9.65-1c-3.08-.29-5.73-.44-8-.43Zm1.32,62.69-.14-.29-.07.21ZM729,111.39l3.27.2,14.2,1a6.11,6.11,0,0,0,.41-1.79q-4.27-.09-8.79-.13c-3,0-6,.08-8.94.31Zm9.08-25.9a33.79,33.79,0,0,1-4-.72l-3.95-.94.72,2Zm-7.82,36.32,12.68,1.89.61-1.73ZM744,106.1l-7.24-.78q-3.33-.34-6.18-.4a1.7,1.7,0,0,0-.13.69,1.61,1.61,0,0,1-.12.68Zm-12.29-5.63q0,.51-.09.57c-.1,0-.13.24-.09.58l16.32,1.74,0-2-.13-.29c-2.66-.15-5.39-.28-8.21-.4S734.09,100.51,731.72,100.47Zm13.8-9.86q-3.35,0-6.83.09t-6.91.31c2.32.19,4.68.35,7.1.49s4.88.26,7.39.35Zm-13.44,4.88a1,1,0,0,1,0,.72l14.52.12Zm7.59,37.25-2.42.1a21.52,21.52,0,0,1-3.27-.21l5.46.75Zm6-1.48c-.31.86-.58,1.73-.82,2.62s-.49,1.69-.75,2.4a10.21,10.21,0,0,1,4.18-1.66A10.29,10.29,0,0,1,745.69,131.26Z"/>
        <path d="M807,211.28c-1.29.19-2.12-.07-2.5-.79a2.54,2.54,0,0,1,.16-2.5c-1.22-2.86-2.32-5.75-3.33-8.69s-2-5.92-2.91-9l-9.91-28.62-3.61,7.92q-1.82,4-3.52,8.22-1.44,5.19-3,9.8a24.53,24.53,0,0,1-3.18,6.85,16,16,0,0,0,.15,6.53c.49,2,2,3.45,4.53,4.42a3.07,3.07,0,0,1,1.28,3.37c-.27,1.49-1.07,2.07-2.41,1.71a50.7,50.7,0,0,1-11.58-4.74q-5.18-3-10.19-6T746.6,194a60.24,60.24,0,0,0-11.79-4.59l-.49-.51q-.65-2.65,1.49-3.35a2.75,2.75,0,0,1,2.14-.7,7.31,7.31,0,0,0,5.81-.71,21.07,21.07,0,0,0,5.09-4.18,37,37,0,0,0,4.27-5.77c1.25-2.09,2.37-3.92,3.35-5.47l4.76-9.13q6.66-13.29,13.12-26.42t13-26.73A81,81,0,0,1,791.92,98q2.3-3.69,4.41-7.75c.88-3.32.56-6-1-8.11a17.64,17.64,0,0,0-7-5.31,1.91,1.91,0,0,1-1.13-1.24,6.81,6.81,0,0,1,0-1.93l.52-.51a1.87,1.87,0,0,1,2.23-.89q2.31.42,9.3,3.54t14.8,7.07q7.81,3.94,14.64,7.62t8.49,5.32q2,1.55.84,2.76a2.22,2.22,0,0,1-.65,2,2,2,0,0,1-2.33.34,11.82,11.82,0,0,0-7.19-.78,13.42,13.42,0,0,0-5.76,3.05,28.94,28.94,0,0,0-4.67,5.31c-1.39,2-2.65,4-3.76,5.77l-.72.41q-1.26,2.43-2.21,4t-1,1.77q-3.69,6.6-7,13l-6.49,12.48,17.59-6.57,8.75-3.18c2-1.34,3.28-2.75,3.72-4.25a8,8,0,0,0-.09-4.68l.11-.21-.09-.3a2.85,2.85,0,0,1,1.42-2.74c.92-.47,1.73-.09,2.44,1.14l.95,2.56,3.65,7.57a22,22,0,0,0,2.82,6.49,29.31,29.31,0,0,1,3,6.09c.17,1.3-.18,2.14-1.06,2.54a2.39,2.39,0,0,1-2.71-.63,59.62,59.62,0,0,0-6.13-5,12.25,12.25,0,0,0-9.23-2,145.63,145.63,0,0,1-14.91,6q-8.19,2.84-14.39,5.53c.13.07.18.14.14.2s0,.14.15.21q3.75,7.37,7.12,14.27t6.33,13.87a58.72,58.72,0,0,0,3.74,5.69,45.29,45.29,0,0,0,4.81,5.59,24.23,24.23,0,0,0,5.05,3.92,5.4,5.4,0,0,0,4.36.85l1.44-1.31a9.36,9.36,0,0,0,1.41-6.1,15.12,15.12,0,0,0-1.54-5.31,5.1,5.1,0,0,0-2.56-2.62c-.93-.31-1.46.44-1.56,2.28a1.85,1.85,0,0,0,.91,1.89,9.19,9.19,0,0,1,1.53,1.19,2.05,2.05,0,0,1,0,2.85q-1.14,1.22-3,0c-2.89-2.54-4.14-4.77-3.72-6.7a5.94,5.94,0,0,1,3.23-4.25,8.53,8.53,0,0,1,5.91-.66c2.2.46,3.65,2,4.33,4.57a17,17,0,0,1-.8,12.22L828,199.54a15.63,15.63,0,0,1-5.66,5.05,65.47,65.47,0,0,1-8.16,4,4.18,4.18,0,0,1-1.53.5Zm-57.07-20.69,1.79.93L769.91,193l.21-.41q-4.77-.93-9.73-2a88.87,88.87,0,0,1-8.82-2.27l-1,1.83Zm24-6.31q-8.54-1.86-17-4.23l-2,2.33q4,.52,8.95,1.05C767.21,183.78,770.56,184.07,774,184.28Zm-4.24,17.39a11.24,11.24,0,0,1-.83-3.27l-11.71-3.77c2.19,1.31,4.29,2.53,6.32,3.67S767.58,200.56,769.71,201.67Zm-9.24-27a2.87,2.87,0,0,1-.47.65,2.43,2.43,0,0,0-.47.66l16.13,4a16.4,16.4,0,0,0,.85-1.88,17.21,17.21,0,0,1,.85-1.88Zm3.91-8a11.07,11.07,0,0,0-.58,1.37,10.43,10.43,0,0,1-.59,1.37l15.47,2.38a.36.36,0,0,1,.11-.45.4.4,0,0,0,.11-.46q-3.76-.93-7.36-1.9C769.13,168.33,766.75,167.56,764.38,166.67Zm17.34-7.47a48.12,48.12,0,0,0-6.88-1.4q-3.63-.47-6.79-1.08l-.32.61a3.54,3.54,0,0,0-.32.86,3.41,3.41,0,0,1-.33.86c2.45.42,5,.75,7.59,1s5.28.47,8,.68l.53-1Zm6.11-7.91c.14-.27.26-.42.37-.45s.22-.18.36-.46q-3.87-.72-7.93-1.29a49.22,49.22,0,0,1-7.72-1.7L772,148.7q4,.56,7.93,1.3T787.83,151.29Zm-7.61,15.12a2.64,2.64,0,0,0,.27-.77,2.5,2.5,0,0,1,.27-.76l-7.44-.78Zm12.66-23.83c-2.51-.62-5.12-1.2-7.82-1.76s-5.32-1.13-7.83-1.75l-.72.91,16.16,3Zm2.21-4.26a6.05,6.05,0,0,0,.43-1.07,9.49,9.49,0,0,1,.54-1.27.68.68,0,0,1-.51,0l-16.1-1.17,5,1c1.31.34,2.89.73,4.74,1.18S793,137.9,795.09,138.32Zm2.68-6.6a.48.48,0,0,0,.06-.36.94.94,0,0,1,.16-.56q-3.06-.81-6.87-1.64t-7.65-2l-1.58,2.53,14,1.86ZM785.88,123q3.25.92,6.92,1.8l7.41,1.79,1.37-2.63-7.15-.38q-3.28-.16-5.67-.37l-2.77-.41Zm3.23-4.25,8.75.69-8.81-2.52-.84,1.62Zm18.77-5.43c-2.64-.35-5.31-.66-8-.94s-5.38-.53-8.09-.74l-.64,1.22c2.23.82,4.52,1.62,6.85,2.4a53.68,53.68,0,0,0,7.37,1.91Zm-4.71-5c-1.61-.49-3.11-.93-4.51-1.31a41.68,41.68,0,0,1-4-1.31l-.85,1.62Zm10.9-4.89q-4.17-.63-8.39-1.15c-2.82-.34-5.62-.56-8.41-.64a68.49,68.49,0,0,0,7,2c2.68.61,5.43,1.23,8.27,1.85ZM798.39,97a61.12,61.12,0,0,1,8.94,1.3c2.91.66,5.88,1.26,8.93,1.82.07-.14.14-.19.21-.16s.13,0,.2-.15l.42-.81q-2.67-.62-5.05-1.08a29.18,29.18,0,0,1-3.86-1c-1.19-.27-2.39-.6-3.61-1s-2.42-.7-3.61-1l-1.41-.21Zm5.44,94.09a16.74,16.74,0,0,1-1.12-1.74c-.36-.61-.66-1.16-.92-1.64l1.7,5a1.46,1.46,0,0,0,.65.21,1.54,1.54,0,0,1,.65.21Zm-.65-104.75,13,2.36-3.59-1.86-9-2.63ZM806.79,198a2.32,2.32,0,0,0-.75-.26,2.69,2.69,0,0,1-.75-.26l1.13,3.16,1.41.22Zm.3-106.58c2.07.57,4.09,1.06,6.06,1.49a48.94,48.94,0,0,1,6,1.68l.53-1Zm1.23,114.34.3-.1-.4-.21Zm7.57-4.83-3.6-1.35.75,2.45,2.91.74,1.93-.8Zm9.28-106.8L823,94a3.48,3.48,0,0,1-.44,1.32Zm5.12,43.66a2.15,2.15,0,0,1-.94,1.31l2,1,.11-.2Z"/>
        <path d="M884,231.15a7.38,7.38,0,0,1,2.11,4,11.1,11.1,0,0,1-.36,4.79,15.29,15.29,0,0,1-2.05,6.39,7.71,7.71,0,0,1-4.46,3.57,35.77,35.77,0,0,1-8.28,5.48,23.58,23.58,0,0,1-10.61,2.16,11,11,0,0,1-3.57,0,.2.2,0,0,1-.32.06,17.87,17.87,0,0,1-2.36-.55,26,26,0,0,1-11-5.83q-3.21-2.85-6.65-6.53a19.2,19.2,0,0,1-4.65-8.2,28.24,28.24,0,0,1-.59-9.66,47.49,47.49,0,0,1,1.36-16.69,73.8,73.8,0,0,1,6.56-16.65l-.05-.32a1.8,1.8,0,0,1,0-2.68,2.36,2.36,0,0,1,2.53-.86,76.48,76.48,0,0,1,9.89-13.18A71.15,71.15,0,0,1,860.3,169a43.45,43.45,0,0,1,13.33-7.93,38.24,38.24,0,0,1,13.72-2.48A31.59,31.59,0,0,1,900,161.36,28.5,28.5,0,0,1,910.12,169a1,1,0,0,1,.3.35,1.54,1.54,0,0,0,.48.48.7.7,0,0,0,.24.45l1.72,2.62a33.51,33.51,0,0,1,3.81,10.54,37.3,37.3,0,0,1,0,12.87,52.74,52.74,0,0,1-2.89,11.26,36.35,36.35,0,0,1-5.27,9.58c-.48,1.72-.34,2.94.43,3.67l1.47,1a1.62,1.62,0,0,1,.56,1.93,7.34,7.34,0,0,1-1,2.22c-1.41,2-2.69,2.77-3.84,2.32q-9.57-4-19-8.7t-18.85-9.71q-5.65-1.74-10.16,3.46c-.32.71-.58,1.27-.78,1.69a6.55,6.55,0,0,1-.57,1q-1.14,2-3.07,6.09t-3.7,8.72A91.81,91.81,0,0,0,847,239.6c-.75,2.74-.9,4.82-.45,6.26q1.21,2.55,3.87,1.34a19.69,19.69,0,0,0,5.5-4.08,73.45,73.45,0,0,0,5.69-6.49,60,60,0,0,0,4.23-6,8.83,8.83,0,0,1,2.77-3.92,7.08,7.08,0,0,1,4.82-1.35l.31-.06a10,10,0,0,1,6.49,1.52A11.18,11.18,0,0,1,884,231.15Zm-48.58-1.34,9.47,3.34.9-2.44q-2.55-.69-5.29-1.65a45.53,45.53,0,0,0-5.62-1.59.19.19,0,0,0,0,.31Zm.19-6.87a.94.94,0,0,1-.21.69c1.69.45,3.4,1,5.11,1.52a40.35,40.35,0,0,0,5.25,1.33Zm2.29-5.95a2.47,2.47,0,0,0-.37.72,2.74,2.74,0,0,1-.37.72c1.93.63,3.82,1.21,5.64,1.75s3.65,1.19,5.5,1.94a7.34,7.34,0,0,1,.82-1.94l.66-.93c-2-.51-4-.9-6-1.2S839.77,217.41,837.87,217Zm0-10.09-.18-.13a.63.63,0,0,0-.08.5Zm.84,30.29c.87.06,1.72.15,2.56.27s1.68.21,2.55.27l-.18-.12c-1-.36-2-.7-3-1s-2-.65-3-1Zm1.44-34.28a11,11,0,0,1,1.27-2.18,1.81,1.81,0,0,0-1-.47,12.86,12.86,0,0,0-1.22,2.5l.82,0Zm13.61,9.92a8,8,0,0,1,1.14-2c-1.7-.45-3.2-.86-4.5-1.22s-2.35-.64-3.14-.82l-4.85-.92a.47.47,0,0,0-.11.35c0,.1-.06.28-.23.53l3.9,1.09Zm-10.67,29.43a1.27,1.27,0,0,0-.81,0,1.54,1.54,0,0,1,.48.48,1.49,1.49,0,0,0,.49.48Zm.42-45.66-.5-.07.55.39.14-.19Zm2.37,5.6a7,7,0,0,0-1,1.81L857,207q.27-.37.24-.54a.46.46,0,0,1,.11-.34q-3.11-1.07-6-2C849.43,203.51,847.6,202.87,845.87,202.2Zm.7-10.71a2.45,2.45,0,0,0-1.05-.46l-.39.56,1.49.22Zm2.65-5.69-.52.75.36.26Zm3.73,1a1.64,1.64,0,0,0-.31.63,1.79,1.79,0,0,1-.3.62c2.88,1.11,5.57,2,8.07,2.78s4.27,1.29,5.3,1.65l.37.26a4.51,4.51,0,0,0,.44-.81,3.37,3.37,0,0,1,.43-.82Q859.41,188.54,853,186.76Zm2.12,12.15q1.41.74,2.58,1.41a14.33,14.33,0,0,0,2.72,1.22l.92-1.31c-1.12-.23-2.19-.47-3.2-.72S856.07,199.06,855.07,198.91Zm18-16.42c-2.4-.76-4.82-1.54-7.28-2.35s-4.88-1.59-7.27-2.35l-1.06,1.49,14.16,5.26Zm-13.87,63.87a7.57,7.57,0,0,1-1.42,1.24q3,.75,5.8,1.72c1.83.64,3.66,1.24,5.48,1.78l.31-.06Zm9-1.46-5.64-1.75-.26.37,8.25,3.89Zm-3.06-43.08a3.53,3.53,0,0,0-.44.81,3.79,3.79,0,0,1-.44.82q2.28,1.05,4.41,2.13a39.25,39.25,0,0,0,3.85,1.75l6.22,1.32c-2.35-1.1-4.63-2.2-6.87-3.32S867.37,203.05,865.12,201.82ZM877.49,177a15.15,15.15,0,0,1,1.22-1.52,11.53,11.53,0,0,0,1.08-1.33l-8.09-1.39q-3.93-.67-7.23-1.06a53.54,53.54,0,0,0,6.1,2.64C872.76,175.11,875.06,176,877.49,177Zm4.36,64.17a10.21,10.21,0,0,0,.27-2.33q-3.14-1.38-6.35-2.68c-2.14-.85-4.41-1.67-6.81-2.43l.16.95q3,1.58,6.27,3.18C877.56,238.89,879.72,240,881.85,241.13Zm18.9-72.92a6.88,6.88,0,0,0-6.37.26,31.59,31.59,0,0,0-7.63,5.52,79.55,79.55,0,0,0-8.19,9q-4.11,5.22-7.81,10.44a7.59,7.59,0,0,0,.75,5.16,32.23,32.23,0,0,0,1.71,3l9.4,5a7.46,7.46,0,0,0,6.23-.64,4.31,4.31,0,0,1,1.58-2.24q2.21-3.48,3.28-4.82c.72-.89,1.44-1.83,2.14-2.83a24,24,0,0,0,1.44-3.19c.36-1,.7-2,1-2.94a44.74,44.74,0,0,1,1.24-4.87q1-3.35,1.82-6.83a34,34,0,0,0,.92-6.36C902.31,170,901.81,168.78,900.75,168.21Zm-23.69,75.41a15,15,0,0,1-2.9-1.34c-.9-.55-1.82-1.06-2.76-1.54l.84,1.15Zm-3.14-13.43a2,2,0,0,1-.87-.33l-.94.17,7.6,2.86q-.37-.25-.39-.42c0-.1-.15-.24-.4-.41l-1.09-.78A5.08,5.08,0,0,0,873.92,230.19Zm11.78-61.71a13.63,13.63,0,0,1,1.65-1.35,16.73,16.73,0,0,1,1.7-1,17.2,17.2,0,0,0-3-.59q-1.66-.19-3.33-.54l-4.29.61Zm7.06,41.71-.79,1.12,1.1.78,11.43,2.49.8-1.12-10.55-3Zm18-8L899,200.28l0,.32q2.6,1,5.28,2.06t5.6,2Zm-1-8.28a25.17,25.17,0,0,0-3.5-1.08,27.68,27.68,0,0,1-3.5-1.08l-.27.37Zm3.07-5.12q-2.42-.87-4.55-1.53c-1.43-.46-2.71-.9-3.87-1.34l-.37,1.69c1.48.49,3,.93,4.43,1.32s3,.76,4.56,1.13l0-1.14Zm-7.42-7.77a.62.62,0,0,0-.08.5l7.1,2.79-.72-2.47q-1.5-.23-3.09-.51A20.29,20.29,0,0,0,905.42,181.05Zm.4-7.56a4.29,4.29,0,0,1,0,1.38,4.35,4.35,0,0,0,0,1.39l4,.58-1.72-2.62Z"/>
      </g>
    </g>
  </g>
</svg>
