<svg xmlns="http://www.w3.org/2000/svg" xmlns:xlink="http://www.w3.org/1999/xlink" width="1920" height="1080" viewBox="0 0 1920 1080">
  <defs>
    <style>
      .cls-1 {
        fill: none;
      }

      .cls-2 {
        clip-path: url(#clip-path);
      }

      .cls-3 {
        fill: #d2dadb;
      }

      .cls-4 {
        fill: #519eae;
      }

      .cls-5 {
        fill: #398791;
      }

      .cls-6 {
        fill: #81ba7a;
      }

      .cls-7 {
        fill: #b5aa92;
      }

      .cls-8 {
        fill: #9cd893;
      }

      .cls-9 {
        fill: #71aa6b;
      }

      .cls-10 {
        fill: #9ed197;
      }

      .cls-11 {
        fill: #ccedbd;
      }

      .cls-12 {
        fill: #95d27c;
      }

      .cls-13 {
        fill: #aa9571;
      }

      .cls-14 {
        fill: #6dac67;
      }

      .cls-15 {
        fill: #af7f72;
      }

      .cls-16 {
        fill: #9f6d5c;
      }

      .cls-17 {
        fill: #044bb2;
      }

      .cls-18 {
        fill: #07448c;
      }

      .cls-19 {
        fill: #875d51;
      }

      .cls-20 {
        fill: #ada195;
      }

      .cls-21 {
        fill: #cbbdad;
      }

      .cls-22 {
        fill: #96675a;
      }

      .cls-23 {
        fill: #aaa199;
      }

      .cls-24 {
        fill: #3a3e47;
      }

      .cls-25 {
        fill: #fcfcfc;
      }

      .cls-26 {
        fill: #563a34;
      }

      .cls-27 {
        clip-path: url(#clip-path-2);
      }

      .cls-28 {
        fill: #3e7738;
      }

      .cls-29 {
        clip-path: url(#clip-path-3);
      }

      .cls-30 {
        fill: #774318;
      }

      .cls-31 {
        fill: #603813;
      }
    </style>
    <clipPath id="clip-path">
      <rect class="cls-1" width="1920" height="1080"/>
    </clipPath>
    <clipPath id="clip-path-2">
      <rect class="cls-1" y="-1236" width="1920" height="1083"/>
    </clipPath>
    <clipPath id="clip-path-3">
      <rect class="cls-1" x="-3.67" y="-1278.7" width="404" height="1162" rx="55.07" transform="translate(2.38 0.67) rotate(-0.2)"/>
    </clipPath>
  </defs>
  <g id="midground">
    <g class="cls-2">
      <g id="mountains">
        <g>
          <path class="cls-3" d="M802.38,628.26a47.17,47.17,0,0,1-54.79-23.51A204.26,204.26,0,0,1,723,623.34l6.94,39.4a47,47,0,0,1-92.57,16.31l-4.25-24.15q-7,.74-14.13,1V740a47,47,0,0,1-94,0V636.81a206,206,0,0,1-63.77-46.49L414.75,665.8a47,47,0,0,1-86.51-31.49l97.19-97.18L529.8,432.76c45.11-45.11,118.93-45.11,164,0L835.48,574.4A47.14,47.14,0,0,1,802.38,628.26Z"/>
          <path class="cls-4" d="M1073.62,860a115.59,115.59,0,0,0-33.82-81.29L835.48,574.4a47,47,0,0,1-87.89,30.35A204.26,204.26,0,0,1,723,623.34l6.94,39.4a47,47,0,0,1-92.57,16.31l-4.25-24.15q-7,.74-14.13,1V740a47,47,0,0,1-94,0V636.81a206,206,0,0,1-63.77-46.49L414.75,665.8a47,47,0,0,1-86.51-31.49l-144.4,144.4A115.59,115.59,0,0,0,150,860Z"/>
        </g>
        <g>
          <path class="cls-3" d="M1065.17,610.79l49.27-59.93c19,15.35,42,27.95,67.59,36.91v81.92c0,20.52,22.41,37.31,49.81,37.31s49.82-16.79,49.82-37.31V602.9q7.56-.18,15-.77l4.51,19.17c4.75,20.22,30.71,33.84,57.7,30.27s45.17-23,40.41-43.21l-7.35-31.28a222.11,222.11,0,0,0,26-14.76c10.7,15.44,34.94,23.68,58.07,18.66a54.9,54.9,0,0,0,20.15-8.61L1362.88,439.08c-49-49-129.08-49-178.05,0L999.65,624.27C1022.55,633.26,1051.41,627.52,1065.17,610.79Z"/>
          <path class="cls-5" d="M1774.88,909a125.63,125.63,0,0,0-36.6-94.52L1496.17,572.37A54.9,54.9,0,0,1,1476,581c-23.13,5-47.37-3.22-58.07-18.66a222.11,222.11,0,0,1-26,14.76l7.35,31.28c4.76,20.21-13.43,39.65-40.41,43.21s-52.95-10.05-57.7-30.27l-4.51-19.17q-7.41.58-15,.77v66.79c0,20.52-22.42,37.31-49.82,37.31S1182,690.21,1182,669.69V587.77c-25.64-9-48.57-21.56-67.59-36.91l-49.27,59.93c-13.76,16.73-42.62,22.47-65.52,13.48L809.43,814.48A125.63,125.63,0,0,0,772.84,909Z"/>
        </g>
      </g>
      <g id="backtree">
        <g>
          <rect class="cls-6" x="350.37" y="44.71" width="496.97" height="135.24" rx="67.62" transform="translate(484.7 710.84) rotate(-89.82)"/>
          <rect class="cls-6" x="484.62" y="51.85" width="330.56" height="89.96" rx="44.98" transform="translate(551.08 746.43) rotate(-89.82)"/>
          <rect class="cls-6" x="343.35" y="68.25" width="330.56" height="89.96" rx="44.98" transform="translate(393.85 621.51) rotate(-89.82)"/>
          <rect class="cls-6" x="588.18" y="4.45" width="213.85" height="58.19" rx="29.1" transform="translate(659.43 728.55) rotate(-89.82)"/>
          <rect class="cls-6" x="357.15" y="16.88" width="213.85" height="58.19" rx="29.1" transform="translate(416.67 509.9) rotate(-89.82)"/>
        </g>
        <g id="tronco">
          <polygon class="cls-7" points="570.14 93.59 540.25 93.59 526.52 830.82 583.87 830.82 570.14 93.59"/>
          <g>
            <path class="cls-7" d="M601.61,416.82l.23-13.36-43.39,52.9c-5.32,6.5-8.35,14.18-6.37,16.65l17.7,22.05c2,2.47,7.53-2.06,12-9.58L618.69,424H604.1C602.66,424,601.54,420.74,601.61,416.82Z"/>
            <path class="cls-7" d="M610.16,398.93l11.2,14a2.48,2.48,0,0,1,.26.42l-5.08-291.44h-9.67c-.07,0-.12.07-.13.16l-4.9,281.43,1.6-1.95C605.93,398.47,608.91,397.37,610.16,398.93Z"/>
            <path class="cls-7" d="M621.67,417.73c0-.3,0-.6,0-.91l-.06-3.51a2.48,2.48,0,0,0-.26-.42l-11.2-14c-1.25-1.56-4.23-.46-6.72,2.58l-1.6,1.95-.23,13.36c-.07,3.92,1,7.16,2.49,7.16h14.59l1.19-2A15.64,15.64,0,0,0,621.67,417.73Z"/>
          </g>
          <g>
            <path class="cls-7" d="M630.67,298.83l.11-7.25L609.92,320.3c-2.56,3.52-4,7.69-3.06,9l8.51,12c1,1.34,3.62-1.12,5.78-5.2l17.73-33.39h-7C631.18,302.72,630.64,301,630.67,298.83Z"/>
            <path class="cls-7" d="M634.78,289.12l5.39,7.58a2.42,2.42,0,0,1,.12.23l-2.44-158.21H633.2s-.06,0-.06.09l-2.36,152.77.77-1.06C632.75,288.87,634.18,288.27,634.78,289.12Z"/>
            <path class="cls-7" d="M640.31,299.32c0-.16,0-.32,0-.49l0-1.9a2.42,2.42,0,0,0-.12-.23l-5.39-7.58c-.6-.85-2-.25-3.23,1.4l-.77,1.06-.11,7.25c0,2.13.51,3.89,1.2,3.89h7l.57-1.08A8.87,8.87,0,0,0,640.31,299.32Z"/>
          </g>
          <g>
            <path class="cls-7" d="M523.51,315.23l-.13-8.72,25.11,34.57c3.08,4.24,4.83,9.26,3.68,10.87l-10.24,14.42c-1.14,1.61-4.35-1.35-7-6.26l-21.35-40.19h8.44C522.9,319.92,523.55,317.8,523.51,315.23Z"/>
            <path class="cls-7" d="M518.56,303.54l-6.48,9.13a1.17,1.17,0,0,0-.15.27l2.94-190.47h5.6s.07,0,.07.11l2.84,183.93-.93-1.28C521,303.24,519.28,302.52,518.56,303.54Z"/>
            <path class="cls-7" d="M511.9,315.83c0-.2,0-.4,0-.6l0-2.29a1.17,1.17,0,0,1,.15-.27l6.48-9.13c.72-1,2.45-.3,3.89,1.69l.93,1.28.13,8.72c0,2.57-.61,4.69-1.45,4.69h-8.44l-.69-1.3A11.16,11.16,0,0,1,511.9,315.83Z"/>
          </g>
          <g>
            <path class="cls-7" d="M496.82,218.63l-.05-3.26,9.38,12.91a46.13,46.13,0,0,0,8.46,7.8v12c-.43.6-12.54-10.9-13.51-12.74l-8-15h3.15C496.59,220.38,496.84,219.58,496.82,218.63Z"/>
            <path class="cls-7" d="M495,214.26l-2.42,3.41a.31.31,0,0,0-.05.1l1.1-71.12h2.09s0,0,0,0l1.06,68.68-.34-.48C495.89,214.15,495.24,213.88,495,214.26Z"/>
            <path class="cls-7" d="M492.49,218.85a1.62,1.62,0,0,1,0-.22l0-.86a.31.31,0,0,1,.05-.1l2.42-3.41c.27-.38.92-.11,1.46.63l.34.48.05,3.26c0,1-.23,1.75-.54,1.75h-3.15l-.26-.49A4,4,0,0,1,492.49,218.85Z"/>
          </g>
          <g>
            <path class="cls-7" d="M622.28,219.38l.07-3.59L610.7,230c-1.43,1.74-2.24,3.8-1.71,4.46l4.75,5.93c.53.66,2-.56,3.23-2.58l9.9-16.51H623C622.57,221.3,622.27,220.43,622.28,219.38Z"/>
            <path class="cls-7" d="M624.58,214.58l3,3.74.07.12-1.37-78.25H623.7a0,0,0,0,0,0,0l-1.31,75.56.43-.52C623.45,214.45,624.25,214.16,624.58,214.58Z"/>
            <path class="cls-7" d="M627.67,219.62v-1.18l-.07-.12-3-3.74c-.33-.42-1.13-.13-1.8.69l-.43.52-.07,3.59c0,1.05.29,1.92.67,1.92h3.92l.32-.53A4.15,4.15,0,0,0,627.67,219.62Z"/>
          </g>
        </g>
        <g>
          <rect class="cls-8" x="484.53" y="-262.94" width="135.24" height="496.97" rx="67.62" transform="translate(0.05 1.69) rotate(-0.18)"/>
          <rect class="cls-8" x="558.21" y="-164.24" width="89.96" height="330.56" rx="44.98" transform="translate(0 1.85) rotate(-0.18)"/>
          <rect class="cls-8" x="416.95" y="-180.64" width="89.96" height="330.56" rx="44.98" transform="translate(0.05 1.41) rotate(-0.18)"/>
          <rect class="cls-8" x="619.3" y="-42.6" width="58.19" height="213.85" rx="29.1" transform="translate(-0.19 1.98) rotate(-0.18)"/>
          <rect class="cls-8" x="388.27" y="-55.03" width="58.19" height="213.85" rx="29.1" transform="translate(-0.16 1.28) rotate(-0.18)"/>
        </g>
      </g>
      <g>
        <rect class="cls-6" x="1179.77" y="581.86" width="281.07" height="129.62" rx="64.81" transform="translate(654.21 1957.28) rotate(-89.15)"/>
        <rect class="cls-6" x="1275.56" y="613.14" width="186.95" height="86.22" rx="43.11" transform="translate(692.65 2015.44) rotate(-89.15)"/>
        <rect class="cls-6" x="1140.37" y="601.62" width="186.95" height="86.22" rx="43.11" transform="translate(570.98 1868.92) rotate(-89.15)"/>
        <rect class="cls-6" x="1351.17" y="664.85" width="120.94" height="55.77" rx="27.89" transform="translate(698.14 2094.01) rotate(-89.15)"/>
        <rect class="cls-6" x="1129.92" y="654.16" width="120.94" height="55.77" rx="27.89" transform="translate(490.84 1862.23) rotate(-89.15)"/>
      </g>
      <g>
        <rect class="cls-9" x="392.64" y="529.21" width="184.84" height="400.81" rx="92.42" transform="translate(980.84 1451.99) rotate(179.15)"/>
        <rect class="cls-9" x="354.09" y="609.97" width="122.95" height="266.6" rx="61.47" transform="translate(842.04 1480.32) rotate(179.15)"/>
        <rect class="cls-9" x="546.87" y="593.54" width="122.95" height="266.6" rx="61.47" transform="translate(1227.35 1444.63) rotate(179.15)"/>
        <rect class="cls-9" x="315.03" y="709.08" width="79.54" height="172.47" rx="39.77" transform="translate(721.3 1585.3) rotate(179.15)"/>
        <rect class="cls-9" x="630.55" y="693.83" width="79.54" height="172.47" rx="39.77" transform="translate(1352.09 1550.14) rotate(179.15)"/>
      </g>
      <g>
        <rect class="cls-10" x="839.12" y="650.38" width="107.77" height="233.69" rx="53.88" transform="translate(-11.23 13.27) rotate(-0.85)"/>
        <rect class="cls-10" x="816.64" y="697.46" width="71.68" height="155.44" rx="35.84" transform="translate(-11.35 12.67) rotate(-0.85)"/>
        <rect class="cls-10" x="929.04" y="687.89" width="71.68" height="155.44" rx="35.84" transform="translate(-11.2 14.33) rotate(-0.85)"/>
        <rect class="cls-10" x="793.87" y="755.25" width="46.37" height="100.56" rx="23.19" transform="translate(-11.8 12.15) rotate(-0.85)"/>
        <rect class="cls-10" x="977.83" y="746.35" width="46.37" height="100.56" rx="23.19" transform="translate(-11.65 14.86) rotate(-0.85)"/>
      </g>
      <path id="middlegrass" class="cls-11" d="M-29.81,754.56A2264.75,2264.75,0,0,0,301,801.26c75.87,5.06,238,12,447.07-14.29,201.76-25.4,298.73-63.12,409-86.75,172.85-37.06,432.15-51,790.23,70.54v346H-33.62Z"/>
      <path id="frontgrass" class="cls-12" d="M-26,902.31A2284.78,2284.78,0,0,1,473.5,908c185.18,22.56,204,48.09,365.09,69.58,238.68,31.86,348.45-4,715.89-30.5,124.6-9,311.57-19.25,543.35-19.06v266H-24.09Z"/>
      <g>
        <g>
          <rect class="cls-6" x="1250.67" y="-162.37" width="171.2" height="629.12" rx="85.6" transform="translate(-0.46 4.09) rotate(-0.18)"/>
          <rect class="cls-6" x="1214.72" y="-76.66" width="113.88" height="418.46" rx="56.94" transform="translate(-0.4 3.89) rotate(-0.18)"/>
          <rect class="cls-6" x="1393.55" y="-55.9" width="113.88" height="418.46" rx="56.94" transform="translate(-0.46 4.44) rotate(-0.18)"/>
          <rect class="cls-6" x="1177.6" y="-82.89" width="73.67" height="270.71" rx="36.83" transform="translate(-0.15 3.72) rotate(-0.18)"/>
          <rect class="cls-6" x="1470.07" y="-67.16" width="73.67" height="270.71" rx="36.83" transform="translate(-0.2 4.61) rotate(-0.18)"/>
        </g>
        <g id="tronco-2" data-name="tronco">
          <polygon class="cls-13" points="1399.47 -42.35 1350.13 -42.35 1327.46 976.66 1422.14 976.66 1399.47 -42.35"/>
          <g>
            <path class="cls-13" d="M1451.42,404.43l.38-18.46-71.62,73.11c-8.79,9-13.79,19.6-10.52,23l29.21,30.49c3.27,3.41,12.43-2.86,19.87-13.25l60.88-85h-24.08C1453.16,414.33,1451.3,409.84,1451.42,404.43Z"/>
            <path class="cls-13" d="M1465.54,379.7,1484,399a3,3,0,0,1,.42.57L1476.07-3.26h-16a.21.21,0,0,0-.2.22l-8.1,389,2.65-2.71C1458.56,379.07,1463.47,377.54,1465.54,379.7Z"/>
            <path class="cls-13" d="M1484.54,405.68c0-.41,0-.83,0-1.25l-.1-4.86a3,3,0,0,0-.42-.57l-18.49-19.3c-2.07-2.16-7-.63-11.09,3.56L1451.8,386l-.38,18.46c-.12,5.41,1.74,9.9,4.12,9.9h24.08l2-2.74A20.41,20.41,0,0,0,1484.54,405.68Z"/>
          </g>
          <g>
            <path class="cls-13" d="M1499.39,241.34l.19-10L1465.14,271c-4.22,4.88-6.62,10.64-5.05,12.49l14,16.55c1.57,1.85,6-1.55,9.55-7.19L1513,246.72h-11.58C1500.23,246.72,1499.34,244.28,1499.39,241.34Z"/>
            <path class="cls-13" d="M1506.18,227.92l8.89,10.48a1.38,1.38,0,0,1,.2.31l-4-218.68h-7.67a.11.11,0,0,0-.1.12l-3.89,211.17,1.27-1.47C1502.82,227.58,1505.19,226.75,1506.18,227.92Z"/>
            <path class="cls-13" d="M1515.31,242c0-.22,0-.45,0-.68l0-2.63a1.38,1.38,0,0,0-.2-.31l-8.89-10.48c-1-1.17-3.36-.34-5.33,1.93l-1.27,1.47-.19,10c-.05,2.94.84,5.38,2,5.38H1513l.94-1.49A11.53,11.53,0,0,0,1515.31,242Z"/>
          </g>
          <g>
            <path class="cls-13" d="M1322.5,264l-.22-12.06,41.45,47.78c5.09,5.87,8,12.81,6.09,15l-16.91,19.92c-1.89,2.23-7.19-1.86-11.5-8.65l-35.23-55.55h13.93C1321.49,270.49,1322.56,267.55,1322.5,264Z"/>
            <path class="cls-13" d="M1314.32,247.85l-10.7,12.62a2,2,0,0,0-.24.37l4.85-263.27h9.24a.14.14,0,0,1,.12.15L1322.28,252l-1.54-1.77C1318.37,247.44,1315.52,246.44,1314.32,247.85Z"/>
            <path class="cls-13" d="M1303.33,264.83c0-.27,0-.54,0-.82l.06-3.17a2,2,0,0,1,.24-.37l10.7-12.62c1.2-1.41,4-.41,6.42,2.33l1.54,1.77.22,12.06c.06,3.54-1,6.48-2.39,6.48h-13.93l-1.14-1.8A13.85,13.85,0,0,1,1303.33,264.83Z"/>
          </g>
          <g>
            <path class="cls-13" d="M1278.44,130.48l-.08-4.5,15.48,17.84c1.9,2.19,7.26,6.62,14,10.78v16.64c-.7.83-20.7-15.06-22.3-17.6l-13.16-20.74h5.2C1278.07,132.9,1278.47,131.8,1278.44,130.48Z"/>
            <path class="cls-13" d="M1275.39,124.45l-4,4.71a.42.42,0,0,0-.09.14l1.81-98.3h3.45a0,0,0,0,1,0,.05l1.75,94.93-.57-.66C1276.9,124.29,1275.84,123.92,1275.39,124.45Z"/>
            <path class="cls-13" d="M1271.29,130.79c0-.1,0-.21,0-.31l0-1.18a.42.42,0,0,1,.09-.14l4-4.71c.45-.53,1.51-.16,2.4.87l.57.66.08,4.5c0,1.32-.37,2.42-.89,2.42h-5.2l-.43-.67A5.27,5.27,0,0,1,1271.29,130.79Z"/>
          </g>
          <g>
            <path class="cls-13" d="M1485.55,131.52l.1-5-19.23,19.63c-2.36,2.41-3.7,5.27-2.82,6.18l7.84,8.19c.88.91,3.34-.77,5.34-3.56l16.34-22.82h-6.46C1486,134.18,1485.52,133,1485.55,131.52Z"/>
            <path class="cls-13" d="M1489.34,124.88l5,5.18a.91.91,0,0,1,.11.16l-2.25-108.16h-4.29a.06.06,0,0,0-.05.06l-2.18,104.44.72-.72C1487.47,124.71,1488.79,124.3,1489.34,124.88Z"/>
            <path class="cls-13" d="M1494.44,131.86c0-.11,0-.23,0-.34l0-1.3a.91.91,0,0,0-.11-.16l-5-5.18c-.55-.58-1.87-.17-3,1l-.72.72-.1,5c0,1.45.47,2.66,1.11,2.66h6.46l.53-.74A5.43,5.43,0,0,0,1494.44,131.86Z"/>
          </g>
        </g>
        <g>
          <rect class="cls-14" x="1259.52" y="-213.89" width="188.29" height="413.78" rx="72.8" transform="translate(0.03 4.14) rotate(-0.18)"/>
          <rect class="cls-14" x="1220.01" y="-157.43" width="125.24" height="275.23" rx="48.43" transform="translate(0.07 3.92) rotate(-0.18)"/>
          <rect class="cls-14" x="1416.66" y="-144.02" width="125.24" height="275.23" rx="48.43" transform="translate(0.03 4.53) rotate(-0.18)"/>
          <rect class="cls-14" x="1179.29" y="-161.45" width="81.02" height="178.05" rx="31.33" transform="translate(0.23 3.73) rotate(-0.18)"/>
          <rect class="cls-14" x="1500.93" y="-151.5" width="81.02" height="178.05" rx="31.33" transform="translate(0.2 4.72) rotate(-0.18)"/>
        </g>
      </g>
      <g>
        <g id="oso">
          <g id="brazo_izq" data-name="brazo izq">
            <path class="cls-15" d="M1655.88,762.42l-57.55-66.52a40.56,40.56,0,0,0-61.27.07l-16.25,18.65a40.57,40.57,0,0,0,8.34,60.71l73.79,47.87C1642.29,848.72,1686.56,797.9,1655.88,762.42Z"/>
          </g>
          <g id="body">
            <path class="cls-16" d="M1599,821.59l-34.28,77.77c-29.34,66.53,17.4,141.74,90,144.92l61.65,2.69c72.65,3.17,125.76-67.68,102.34-136.52L1791.42,830C1761.08,740.84,1637,735.42,1599,821.59Z"/>
          </g>
          <path class="cls-17" d="M1822.12,911.37l-9.46-27.79a52.1,52.1,0,0,1-18.27,5.68c-34.37,4-66.24-26.88-71.17-69-2.35-20.12,1.86-39.17,10.65-54a105.34,105.34,0,0,0-15.47-4.64c-16.58,11.32-24.68,36.13-22.5,68.79l-77.71-6.7c2.51-18.57,16.46-35.7,19.37-47.56a103.56,103.56,0,0,0-37.82,45.34l-34.69,78.69c-29.68,67.33,17.61,143.44,91.12,146.65l62.39,2.72C1792.07,1052.73,1845.82,981,1822.12,911.37Z"/>
          <path class="cls-18" d="M1644.22,927.56l-2.94-.26c-28.35-2.49-46-27.64-40-53.68l6.29-27c1-4.34,5.68-7.54,10.4-7.18l74.8,5.73c4.81.37,8.54,4.26,8.27,8.72l-1.68,27.71C1697.79,908.34,1672.8,930.07,1644.22,927.56Z"/>
          <g id="pies">
            <path class="cls-19" d="M1614.05,1024.09l7-56.46a59.49,59.49,0,0,0-67-66.24l-.73.09a60.31,60.31,0,0,0-47.76,82.65l21.21,51.67C1544.54,1079.14,1608.32,1070.59,1614.05,1024.09Z"/>
            <path class="cls-20" d="M1593.61,1019.63l5.51-44.75a47.15,47.15,0,0,0-53.07-52.5l-.58.08a47.79,47.79,0,0,0-37.85,65.5l16.81,41C1538.52,1063.26,1589.06,1056.48,1593.61,1019.63Z"/>
            <path class="cls-19" d="M1597.75,1038l-7.31-59.29a62.48,62.48,0,0,1,70.32-69.56l.76.11a63.31,63.31,0,0,1,50.16,86.78l-22.27,54.26C1670.73,1095.83,1603.77,1086.85,1597.75,1038Z"/>
            <path class="cls-20" d="M1601.07,1032.13l-5.78-46.88a49.4,49.4,0,0,1,55.61-55l.6.08A50.06,50.06,0,0,1,1691.16,999l-17.61,42.91C1658.78,1077.85,1605.83,1070.74,1601.07,1032.13Z"/>
          </g>
          <g id="brazo_derecho" data-name="brazo derecho">
            <path class="cls-16" d="M1751.18,775.38l75-67.59a46.57,46.57,0,0,1,69.8,8.81l15.86,23.56a46.59,46.59,0,0,1-18.15,68l-90.89,44C1754.37,875.64,1711.17,811.42,1751.18,775.38Z"/>
            <ellipse class="cls-19" cx="1868.52" cy="751.63" rx="49.77" ry="59.29" transform="translate(-144.19 824.5) rotate(-23.99)"/>
            <ellipse class="cls-21" cx="1873.64" cy="749.45" rx="38.86" ry="51.52" transform="translate(-144.33 749.9) rotate(-21.81)"/>
          </g>
          <g id="cabeza">
            <g>
              <circle class="cls-22" cx="1625.84" cy="626.77" r="41.57"/>
              <circle class="cls-21" cx="1618.2" cy="624.23" r="24.18"/>
            </g>
            <g>
              <circle class="cls-16" cx="1767.83" cy="632.39" r="44.43"/>
              <circle class="cls-21" cx="1761.04" cy="628.15" r="25.84"/>
            </g>
            <circle class="cls-19" cx="1686.28" cy="717.33" r="98.83"/>
            <circle class="cls-16" cx="1687.98" cy="710.55" r="98.83"/>
            <g id="ocico">
              <ellipse class="cls-21" cx="1629.47" cy="732.78" rx="52.96" ry="47.92" transform="translate(665.48 2237.05) rotate(-81.56)"/>
              <ellipse class="cls-23" cx="1670.15" cy="735.92" rx="58.97" ry="55.65"/>
            </g>
          </g>
          <g id="ojos">
            <circle id="ojo_derecho" data-name="ojo derecho" class="cls-24" cx="1704.49" cy="668.69" r="12.73"/>
            <circle id="ojo_izquierdo" data-name="ojo izquierdo" class="cls-24" cx="1629.2" cy="661.2" r="10.27"/>
            <circle class="cls-25" cx="1707.07" cy="660.92" r="3.39"/>
            <circle class="cls-25" cx="1631.56" cy="654.98" r="2.55"/>
          </g>
          <g id=":_" data-name=":)">
            <path id="voca_:_" data-name="voca :)" class="cls-24" d="M1654.12,763.39a14.56,14.56,0,0,1-27.54.75,14.85,14.85,0,0,0-.63,3.29,14.57,14.57,0,1,0,28.17-4Z"/>
            <g id="cejas_:_" data-name="cejas :)">
              <path class="cls-26" d="M1712.82,641.48c8.64,1.25,15.75,4.79,18.81,8.88a6.87,6.87,0,0,0,3-4.45c.86-6-8.26-12.22-20.39-14s-22.65,1.65-23.51,7.62a6.84,6.84,0,0,0,1.57,5.1C1696.36,641.6,1704.18,640.23,1712.82,641.48Z"/>
              <path class="cls-26" d="M1629.51,636.41c7-.76,13.27.57,16.49,3.15a5.56,5.56,0,0,0,1.41-4.07c-.52-4.83-8.91-7.89-18.73-6.82s-17.37,5.84-16.84,10.68a5.51,5.51,0,0,0,2.25,3.67C1616.68,639.81,1622.52,637.17,1629.51,636.41Z"/>
            </g>
          </g>
        </g>
        <path id="nariz_v2" class="cls-24" d="M1657.29,690.67c.35-6.86-4.47-12.68-10.75-13a10.67,10.67,0,0,1-14.51-1.06c-6.28-.32-11.66,5-12,11.85a12.88,12.88,0,0,0,3.53,9.66,2.93,2.93,0,0,0,.45,1.08l8.52,12.8c1.92,2.88,7.78,3.17,10,.5l9.76-11.88a3.38,3.38,0,0,0,.36-.54A12.91,12.91,0,0,0,1657.29,690.67Z"/>
      </g>
    </g>
  </g>
  <g id="frontground">
    <g class="cls-27">
      <rect class="cls-28" x="1770.11" y="-280.86" width="400.81" height="218.86" rx="100.57" transform="translate(2134.55 1799.71) rotate(-89.78)"/>
      <g class="cls-29">
        <g>
          <path class="cls-30" d="M111.2-1280.9c-.12,1.82-1.21,18.37-9.31,160.77-2,36-.34,54.84,26,287.53l1.25,11.06c17.18,151.56,19.39,171,16.07,209.27C141-562.78,132-539.8,122.4-515.47c-8.59,21.92-17.48,44.58-25.08,90.33-1.32,8-8.06,50.73-10.5,107.8C83.63-242.85,89-177.87,102.67-124.22,106.18-110.51,110.12-98,113.94-86c9.42,29.75,19.16,60.52,22.58,110.9a388.3,388.3,0,0,1,.59,44.31c-.39,12.1-.79,24.6.42,46.92.51,9.48,1.23,19.21,2.13,28.94l23.27-.25c3.65,0,6.71-5.29,7.7-12.45-2.63-10.93-5.67-22.44-8.94-34.82-3.43-13-7-26.44-10.57-41.15C143.48,25,123.17-58.47,116.64-155.42c-7.44-110.41,5.94-198.75,13.94-251.53,11-72.55,23-110.88,33.08-140.37l-2.8-258.36c-7.53-34.05-16.14-78.88-25.14-143.34-8.64-61.89-18.43-132-19.42-223.28v-.59A1421.82,1421.82,0,0,1,122.46-1321l-7.18.08c-.62,7.17-1.46,15.1-2.37,23.7C112.35-1292,111.78-1286.6,111.2-1280.9Z"/>
          <path class="cls-30" d="M125-157.71c6.32,93.82,26.14,175.23,33.6,205.88,3.51,14.43,7,27.73,10.42,40.59L170.62,95l-2.14-197.72c-3.41,29.26-8.44,47.5-14.23,47.56C142.94-55.09,133-124.4,132.09-210s7.49-155.14,18.8-155.26c5.79-.06,11.21,18.06,15.26,47.24L164-516.68c-8.17,26.13-17.08,60.75-25.4,115.67C130.82-349.73,117.82-263.9,125-157.71Z"/>
          <path class="cls-30" d="M98.72,38.11c-4.65-23.47-10-35.28-16.13-49-1-2.28-2.09-4.62-3.16-7.08L81,127.93c.1,9.78,3.89,17.74,8.42,17.69l14.42-.15C106.68,105.7,105,69.74,98.72,38.11Z"/>
          <path class="cls-30" d="M128.7,67.64a348.6,348.6,0,0,0-.51-40.41C125.05-18.94,116.29-46.61,107-75.92c-3.93-12.41-8-25.25-11.69-39.74-34.39-134.6-8.95-297.74-5.93-315.89,8.1-48.79,17.9-73.78,26.54-95.83,9.21-23.46,17.15-43.72,21-88.56,3-34.39.83-53.42-16-201.58l-1.25-11.06c-12.44-109.65-20.24-179.13-23.86-219.3-3.47-38.51-3.53-54.2-2.36-74.8,8.32-146.31,9.31-161.12,9.42-162.18.59-5.88,1.18-11.39,1.74-16.71.7-6.52,1.39-13.09,2-19.23l-20,.21c.1.22.19.44.3.67a89.55,89.55,0,0,1,6.52,19.62c2.65,12.49,4.9,36.18-6.19,97.32-4.23,23.31-7.87,38-10.52,48.77-1.22,4.91-2.27,9.16-3.06,13-7.06,33.88-.45,63.53,8.69,104.56,6.78,30.39,14.45,64.82,18.1,109,4.27,51.73,0,80.11-4.93,113-4.87,32.4-10.38,69.11-8.75,139.73,1,44.51,4.05,67.18,6.72,87.19,2.86,21.54,5.34,40.14,3.84,76.86-2.28,56-10.7,84-19.61,113.56-.8,2.66-1.6,5.33-2.4,8l3.72,343.4c3.26,8.76,6.39,15.71,9.45,22.51,6.48,14.39,12.61,28,17.88,54.63,6.74,34,8.71,72.24,5.94,114.15l18.72-.2c-.81-9.18-1.47-18.33-2-27.25C127.86,93.92,128.31,80,128.7,67.64ZM94.07-680.17c-.69-64.16,5.17-116.25,13.1-116.33s14.92,51.86,15.61,116-5.17,116.25-13.09,116.33S94.77-616,94.07-680.17Z"/>
          <path class="cls-31" d="M130.58-406.95c-8,52.78-21.38,141.12-13.94,251.53C123.17-58.47,143.48,25,151.12,56.41c3.59,14.71,7.14,28.15,10.57,41.15,3.27,12.38,6.31,23.89,8.94,34.82A36.48,36.48,0,0,0,171,127l-.35-32L169,88.76c-3.4-12.86-6.91-26.16-10.42-40.59C151.11,17.52,131.29-63.89,125-157.71c-7.15-106.19,5.85-192,13.62-243.3,8.32-54.92,17.23-89.54,25.4-115.67l-.33-30.64C153.54-517.83,141.57-479.5,130.58-406.95Z"/>
          <path class="cls-31" d="M137.53,116.14c-1.21-22.32-.81-34.82-.42-46.92a388.3,388.3,0,0,0-.59-44.31C133.1-25.47,123.36-56.24,113.94-86c-3.82-12.06-7.76-24.52-11.27-38.23-13.7-53.65-19-118.63-15.85-193.12,2.44-57.07,9.18-99.81,10.5-107.8,7.6-45.75,16.49-68.41,25.08-90.33,9.55-24.33,18.56-47.31,22.85-96.8,3.32-38.24,1.11-57.71-16.07-209.27l-1.25-11.06c-26.38-232.69-28.09-251.5-26-287.53,8.1-142.4,9.19-158.95,9.31-160.77.58-5.7,1.15-11.08,1.71-16.3.91-8.6,1.75-16.53,2.37-23.7l-8.63.1c-.57,6.14-1.26,12.71-2,19.23-.56,5.32-1.15,10.83-1.74,16.71-.11,1.06-1.1,15.87-9.42,162.18-1.17,20.6-1.11,36.29,2.36,74.8,3.62,40.17,11.42,109.65,23.86,219.3L121-817.52c16.8,148.16,19,167.19,16,201.58-3.89,44.84-11.83,65.1-21,88.56-8.64,22.05-18.44,47-26.54,95.83-3,18.15-28.46,181.29,5.93,315.89C99-101.17,103.08-88.33,107-75.92c9.28,29.31,18,57,21.18,103.15a348.6,348.6,0,0,1,.51,40.41c-.39,12.32-.84,26.28.46,50.28.48,8.92,1.14,18.07,2,27.25l8.55-.09C138.76,135.35,138,125.62,137.53,116.14Zm-26.33-1397a1.31,1.31,0,0,1,0,.18Z"/>
          <path class="cls-31" d="M106.45,31.22C101.18,4.57,95.05-9,88.57-23.41c-3.06-6.8-6.19-13.75-9.45-22.51l.31,28c1.07,2.46,2.13,4.8,3.16,7.08,6.16,13.68,11.48,25.49,16.13,49,6.26,31.63,8,67.59,5.13,107.36l8.54-.1C115.16,103.46,113.19,65.23,106.45,31.22Z"/>
        </g>
        <g>
          <path class="cls-30" d="M355.82-1299.87c.17,1.81,1.65,18.34,13.12,160.5,2.91,36,1.65,54.82-19.2,288.07l-1,11.09c-13.59,151.92-15.33,171.44-11.11,209.58,5.47,49.38,15,72.14,25.14,96.24,9.12,21.71,18.54,44.15,27.22,89.71,1.52,7.95,9.27,50.52,13.06,107.52,4.95,74.4,1.16,139.48-11.27,193.44-3.18,13.79-6.82,26.34-10.35,38.48-8.71,30-17.72,61-19.95,111.41A388.31,388.31,0,0,0,362,50.49c.67,12.08,1.37,24.57.69,46.91-.28,9.49-.77,19.23-1.44,29l-23.27.3c-3.66,0-6.84-5.12-8-12.26,2.37-11,5.13-22.56,8.11-35,3.13-13.07,6.36-26.59,9.59-41.38,6.9-31.6,25.23-115.51,29.45-212.59,4.82-110.55-10.66-198.55-19.9-251.13C344.48-498,331.6-536,320.78-565.25L317.45-823.6c6.72-34.23,14.27-79.25,21.73-143.91,7.17-62.07,15.3-132.42,14.12-223.67v-.59a1422.29,1422.29,0,0,0-9.68-147.9l7.18-.09c.79,7.15,1.82,15.06,2.94,23.64C354.41-1310.93,355.11-1305.56,355.82-1299.87Z"/>
          <path class="cls-30" d="M368.71-176.67C364.61-82.73,346.74-.87,340,30c-3.17,14.51-6.37,27.89-9.46,40.83q-.75,3.14-1.49,6.22l-2.55-197.71c4.1,29.17,9.56,47.28,15.35,47.21,11.31-.15,19.59-69.68,18.48-155.31s-11.16-154.92-22.47-154.77c-5.79.08-10.78,18.32-14.13,47.59l-2.56-198.62c8.79,25.92,18.52,60.32,28.14,115C358.3-368.5,373.34-283,368.71-176.67Z"/>
          <path class="cls-30" d="M399.6,18.47c4.09-23.57,9.13-35.51,15-49.33,1-2.3,2-4.67,3-7.15l1.88,145.85c.12,9.78-3.48,17.83-8,17.89l-14.41.19C393.24,86.23,394.09,50.24,399.6,18.47Z"/>
          <path class="cls-30" d="M371.06,99c-.27,8.93-.71,18.1-1.31,27.29l18.72-.24c-3.76-41.84-2.69-80.11,3.23-114.26,4.64-26.77,10.44-40.51,16.58-55,2.9-6.86,5.86-13.88,8.91-22.72l-4.42-343.39-2.59-8c-9.61-29.39-18.69-57.16-22.3-113.06-2.37-36.68-.34-55.34,2-76.94,2.19-20.06,4.67-42.8,4.64-87.32,0-70.64-6.42-107.21-12.05-139.48-5.72-32.74-10.66-61-7.61-112.82,2.59-44.26,9.45-78.87,15.5-109.41,8.17-41.24,14.07-71,6.21-104.74-.88-3.8-2-8-3.36-12.91-2.91-10.67-6.9-25.29-11.68-48.5-12.54-60.86-10.86-84.59-8.5-97.15a89.32,89.32,0,0,1,6.05-19.76l.29-.68-20,.26c.72,6.12,1.57,12.68,2.42,19.18.69,5.31,1.41,10.8,2.14,16.66.13,1.06,1.48,15.85,13.26,161.92,1.66,20.56,2,36.25-.58,74.83C374-1027,367.84-957.4,358-847.48l-1,11.09c-13.28,148.51-15,167.59-11.18,201.9,5,44.74,13.37,64.81,23.13,88,9.17,21.84,19.56,46.59,28.81,95.17,3.45,18.08,32.76,180.57,1.57,315.94-3.36,14.57-7.11,27.51-10.75,40C380-65.81,371.92-37.94,369.88,8.29a350.22,350.22,0,0,0,.44,40.42C371,61,371.78,75,371.06,99Zm3.28-682.34c-7.92.1-15-51.83-15.85-116s4.93-116.25,12.86-116.36,15,51.83,15.85,116S382.27-583.46,374.34-583.36Z"/>
          <path class="cls-31" d="M357.19-425.71c9.24,52.58,24.72,140.58,19.9,251.13C372.87-77.5,354.54,6.41,347.64,38c-3.23,14.79-6.46,28.31-9.59,41.38-3,12.47-5.74,24-8.11,35a37.32,37.32,0,0,1-.47-5.42l-.41-32q.74-3.09,1.49-6.22C333.64,57.84,336.84,44.46,340,30c6.73-30.82,24.6-112.68,28.7-206.62C373.34-283,358.3-368.5,349.32-419.58c-9.62-54.71-19.35-89.11-28.14-115l-.4-30.64C331.6-536,344.48-498,357.19-425.71Z"/>
          <path class="cls-31" d="M361.21,126.38l8.54-.11c.6-9.19,1-18.36,1.31-27.29.72-24-.05-38-.74-50.27a350.22,350.22,0,0,1-.44-40.42c2-46.23,10.14-74.1,18.72-103.62,3.64-12.5,7.39-25.44,10.75-40,31.19-135.37,1.88-297.86-1.57-315.94-9.25-48.58-19.64-73.33-28.81-95.17-9.76-23.23-18.18-43.3-23.13-88-3.8-34.31-2.1-53.39,11.18-201.9l1-11.09c9.83-109.92,16-179.56,18.65-219.8,2.55-38.58,2.24-54.27.58-74.83C365.46-1288.18,364.11-1303,364-1304c-.73-5.86-1.45-11.35-2.14-16.66-.85-6.5-1.7-13.06-2.42-19.18l-8.63.11c.79,7.15,1.82,15.06,2.94,23.64.68,5.19,1.38,10.56,2.09,16.25.17,1.81,1.65,18.34,13.12,160.5,2.91,36,1.65,54.82-19.2,288.07l-1,11.09c-13.59,151.92-15.33,171.44-11.11,209.58,5.47,49.38,15,72.14,25.14,96.24,9.12,21.71,18.54,44.15,27.22,89.71,1.52,7.95,9.27,50.52,13.06,107.52,4.95,74.4,1.16,139.48-11.27,193.44-3.18,13.79-6.82,26.34-10.35,38.48-8.71,30-17.72,61-19.95,111.41A388.31,388.31,0,0,0,362,50.49c.67,12.08,1.37,24.57.69,46.91C362.37,106.89,361.88,116.63,361.21,126.38Zm-5.36-1426a1,1,0,0,1,0-.17Z"/>
          <path class="cls-31" d="M391.7,11.77c4.64-26.77,10.44-40.51,16.58-55,2.9-6.86,5.86-13.88,8.91-22.72l.37,28c-1,2.48-2,4.85-3,7.15C408.73-17,403.69-5.1,399.6,18.47c-5.51,31.77-6.36,67.76-2.58,107.45l-8.55.11C384.71,84.19,385.78,45.92,391.7,11.77Z"/>
        </g>
      </g>
      <g>
        <rect class="cls-28" x="-54.89" y="-183.86" width="400.81" height="218.86" rx="100.57" transform="translate(219.41 71.36) rotate(-89.78)"/>
        <rect class="cls-28" x="-70.35" y="-134.91" width="266.6" height="145.57" rx="66.89" transform="translate(124.83 1.07) rotate(-89.78)"/>
        <rect class="cls-28" x="158.23" y="-147.62" width="266.6" height="145.57" rx="66.89" transform="translate(365.27 216.97) rotate(-89.78)"/>
        <rect class="cls-28" x="239.49" y="-105.71" width="248.84" height="94.17" rx="47.09" transform="translate(421.17 305.51) rotate(-89.78)"/>
      </g>
    </g>
  </g>
</svg>
