<svg xmlns="http://www.w3.org/2000/svg" width="110" height="110" viewBox="0 0 110 110">
  <defs>
    <style>
      .cls-1 {
        fill: #939393;
      }

      .cls-2 {
        fill: #c6c6c4;
      }

      .cls-3 {
        fill: #bfbfbf;
      }

      .cls-4 {
        fill: #dbdbdb;
      }

      .cls-5 {
        fill: #565656;
      }

      .cls-6 {
        fill: #f9eede;
      }

      .cls-7 {
        fill: #70706f;
      }
    </style>
  </defs>
  <g id="milk">
    <g>
      <g>
        <path class="cls-1" d="M67.46,11.05,42.35,6.91a3,3,0,0,1-2.51-2.75l.07-2.3A2,2,0,0,1,42.53.06L67.66,5.25a2.31,2.31,0,0,1,1.73,2.29l-.07,1.9C69.09,12,69.68,11.44,67.46,11.05Z"/>
        <path class="cls-2" d="M68.65,11.05,43.54,6.91A3,3,0,0,1,41,4.16l.07-2.3A2,2,0,0,1,43.72.06L68.85,5.25a2.31,2.31,0,0,1,1.73,2.29l-.07,1.9C70.28,12,70.87,11.44,68.65,11.05Z"/>
        <path class="cls-3" d="M39.28,5.66,26.53,24.43a6.39,6.39,0,0,0-1.08,3.24L55.19,21.1a4.13,4.13,0,0,0-.7-3l-11-13.52C42.44,3.33,40.54,3.8,39.28,5.66Z"/>
        <path class="cls-1" d="M38.68,8.91,25.93,27.68a6.41,6.41,0,0,0-1.07,3.24L54.6,24.35a4.12,4.12,0,0,0-.71-3L42.9,7.88C41.84,6.58,40,7.05,38.68,8.91Z"/>
        <path class="cls-3" d="M53.16,109.28,29,98.09a8.51,8.51,0,0,1-4.38-7L22.79,29.92c-.09-2.91,1.73-5.76,4.14-6.33l24.73-5.88A5.67,5.67,0,0,1,59,23.23l1.08,82.62C60.1,109.52,56.91,111,53.16,109.28Z"/>
        <path class="cls-4" d="M59.67,108.91,83.2,96.09a8.66,8.66,0,0,0,4-7.23L85.82,27.62c-.06-2.91-2-5.63-4.46-6l-25-4.19a5.76,5.76,0,0,0-7,6L52.61,106C52.75,109.62,56,110.9,59.67,108.91Z"/>
        <path class="cls-4" d="M79.87,22.29,58.78,19.78a13.14,13.14,0,0,1-6.55-3.42L42,6c-1.53-1.55-1-2.44,1.11-2L66,8.88a12.46,12.46,0,0,1,5,2.86l8.74,8.42C81.17,21.49,81.22,22.45,79.87,22.29Z"/>
      </g>
      <g>
        <path class="cls-5" d="M48.42,47c0-.41-.17-2.09-1-.79-2.88,4.37-6.42,8.66-11.59,8.93h-.33l-.25,0c-4.66.24-7.59-3.11-9.77-6.26-.57-.89-.59.47-.58.79.18,5.38,4.7,9.69,10.73,9.71h.09C42.59,59.25,48.63,53.73,48.42,47Z"/>
        <path class="cls-6" d="M44.36,71.52C44.63,80,41.07,82.93,36.63,82c-4.09-.84-7.45-4.67-7.69-12s2.62-13.45,6.68-13.6C40,56.22,44.09,63,44.36,71.52Z"/>
        <path class="cls-7" d="M29.2,72.82c.89,5.49,3.87,8.46,7.42,9.19,3.81.79,7-1.24,7.61-7.27-1-6.25-4.35-9.11-8.14-9.3C32.55,65.27,29.73,67.51,29.2,72.82Z"/>
        <path class="cls-6" d="M35.9,65.13A7.22,7.22,0,0,1,29,58.31a7,7,0,0,1,6.5-7.12A7.2,7.2,0,0,1,43.4,58,7,7,0,0,1,35.9,65.13Z"/>
        <g>
          <path class="cls-6" d="M41.34,60.24c-.53.73.85,3.13,2.17,4.71s2.11,1.75,2.69,1,.75-2.08-.65-3.7S41.88,59.49,41.34,60.24Z"/>
          <path class="cls-6" d="M30.69,60.25c.47.67-.51,2.79-1.45,4.11s-1.47,1.35-1.92.68A2.67,2.67,0,0,1,27.6,62C28.51,60.64,30.22,59.59,30.69,60.25Z"/>
        </g>
      </g>
    </g>
  </g>
</svg>
