<svg xmlns="http://www.w3.org/2000/svg" width="110" height="110" viewBox="0 0 110 110">
  <defs>
    <style>
      .cls-1 {
        fill: #66aa0e;
      }

      .cls-2 {
        fill: #76d607;
      }
    </style>
  </defs>
  <g id="pera">
    <g>
      <g>
        <ellipse class="cls-1" cx="44.65" cy="83.33" rx="25.08" ry="26.67"/>
        <ellipse class="cls-1" cx="65.35" cy="83.33" rx="25.08" ry="26.67"/>
      </g>
      <g>
        <path class="cls-1" d="M43.45,60.27C43.45,44.86,50.66,25,61,18.66a13.42,13.42,0,0,0-6.83-2c-13.85,0-24.28,25.07-24.28,43.63S41.15,93.88,55,93.88a19.17,19.17,0,0,0,6.77-1.25C51.21,88.67,43.45,75.69,43.45,60.27Z"/>
        <path class="cls-2" d="M80.08,60.27c0-15.41-8.3-35.31-19-41.61C50.66,25,43.45,44.86,43.45,60.27s7.76,28.4,18.32,32.36C72.33,88.67,80.08,75.69,80.08,60.27Z"/>
      </g>
      <ellipse class="cls-2" cx="65.35" cy="83.33" rx="25.08" ry="26.67"/>
      <path d="M57.44,23a2.19,2.19,0,0,1-2.69-1.51c-2.9-10.26-.3-19.67,5.92-21.43a2.2,2.2,0,0,1,2.7,1.51,2.19,2.19,0,0,1-1.51,2.69C58.6,5.2,56.6,12,59,20.32A2.2,2.2,0,0,1,57.44,23Z"/>
    </g>
  </g>
</svg>
