<svg xmlns="http://www.w3.org/2000/svg" width="419" height="494.79" viewBox="0 0 419 494.79">
  <defs>
    <style>
      .cls-1 {
        fill: #96675a;
      }

      .cls-2 {
        fill: #cbbdad;
      }

      .cls-3 {
        fill: #9f6d5c;
      }

      .cls-4 {
        fill: #875d51;
      }

      .cls-5 {
        fill: #aaa199;
      }

      .cls-6 {
        fill: #3a3e47;
      }

      .cls-7 {
        fill: #fcfcfc;
      }

      .cls-8 {
        fill: #563a34;
      }
    </style>
  </defs>
  <g id="_" data-name=";(">
    <g id="oso-2" data-name="oso">
      <g id="cabeza">
        <g>
          <circle class="cls-1" cx="124.84" cy="41.57" r="41.57"/>
          <circle class="cls-2" cx="117.2" cy="39.02" r="24.18"/>
        </g>
        <g>
          <circle class="cls-3" cx="266.83" cy="47.19" r="44.43"/>
          <circle class="cls-2" cx="260.04" cy="42.95" r="25.84"/>
        </g>
        <circle class="cls-4" cx="185.28" cy="132.13" r="98.83"/>
        <circle class="cls-3" cx="186.98" cy="125.34" r="98.83"/>
        <g id="ocico">
          <ellipse class="cls-2" cx="128.47" cy="147.57" rx="52.96" ry="47.92" transform="translate(-36.36 252.99) rotate(-81.56)"/>
          <ellipse class="cls-5" cx="169.15" cy="150.71" rx="58.97" ry="55.65"/>
        </g>
      </g>
      <g id="ojos">
        <circle id="ojo_derecho" data-name="ojo derecho" class="cls-6" cx="203.49" cy="83.49" r="12.73"/>
        <circle id="ojo_izquierdo" data-name="ojo izquierdo" class="cls-6" cx="128.2" cy="76" r="10.27"/>
        <circle class="cls-7" cx="206.07" cy="75.71" r="3.39"/>
        <circle class="cls-7" cx="130.56" cy="69.78" r="2.55"/>
      </g>
      <g id=":_" data-name=":(">
        <g id="cejas_:_" data-name="cejas :(">
          <path class="cls-8" d="M213.38,51.38c7.53,2.7,14.64,3.27,18.62,1.82a5,5,0,0,1,.83,4.15c-1.44,4.29-11.18,4.7-21.76.9s-18-10.34-16.55-14.64a4.75,4.75,0,0,1,3.13-2.73C199.92,44.57,205.84,48.68,213.38,51.38Z"/>
          <path class="cls-8" d="M131,47.75c6.34-1,11.69-3.42,14.14-6a3.58,3.58,0,0,1,1.91,2.67c.3,3.67-6.67,7.81-15.57,9.25s-16.35-.38-16.65-4.05a4.35,4.35,0,0,1,1.42-3.21C119.1,48.14,124.7,48.77,131,47.75Z"/>
        </g>
        <path id="voca_:_v" data-name="voca :(v" class="cls-6" d="M154.49,197.76c-1.68-6.45-8.15-11.27-15.9-11.29-6.61,0-12.3,3.45-14.9,8.46a13.11,13.11,0,0,1-.44-3.33c0-8,7.38-14.55,16.42-14.53S156,183.65,156,191.69A13.25,13.25,0,0,1,154.49,197.76Z"/>
      </g>
      <path id="nariz_v2" class="cls-6" d="M156.29,105.47c.35-6.86-4.47-12.68-10.75-13a10.81,10.81,0,0,0-7.22,2.35A10.82,10.82,0,0,0,131,91.41c-6.28-.31-11.66,5-12,11.85a12.92,12.92,0,0,0,3.53,9.67A3,3,0,0,0,123,114l8.52,12.81c1.92,2.87,7.78,3.17,10,.5l9.76-11.89a3,3,0,0,0,.36-.54A12.88,12.88,0,0,0,156.29,105.47Z"/>
    </g>
  </g>
</svg>
