<svg xmlns="http://www.w3.org/2000/svg" width="110" height="110" viewBox="0 0 110 110">
  <defs>
    <style>
      .cls-1 {
        fill: #7bd6c4;
      }

      .cls-2 {
        fill: #89f7e5;
      }

      .cls-3 {
        fill: #4bbca7;
      }

      .cls-4 {
        fill: #848786;
      }

      .cls-5 {
        fill: #b5b5b5;
      }

      .cls-6 {
        fill: #181918;
      }
    </style>
  </defs>
  <g id="salt">
    <g>
      <g>
        <path class="cls-1" d="M24.6,80.38c0,24.52,12.9,29.37,29.07,29.61V13.05C37.75,16.15,24.6,56.19,24.6,80.38Z"/>
        <path class="cls-2" d="M85.4,80.38c0-25.18-13-67.53-29.77-67.53a10,10,0,0,0-2,.2V110H55C71.79,110,85.4,105.57,85.4,80.38Z"/>
      </g>
      <path class="cls-3" d="M78.27,77.07c0,19.54-10.56,23-23.58,23s-23.59-3.44-23.59-23,11-52.39,24.07-52.39S78.27,57.54,78.27,77.07Z"/>
      <g>
        <path class="cls-4" d="M41.76,32.28V16.66A16.71,16.71,0,0,1,58.33,0H51.76A16.71,16.71,0,0,0,35.1,16.66V32.28A3.77,3.77,0,0,0,38.86,36h6.66A3.77,3.77,0,0,1,41.76,32.28Z"/>
        <path class="cls-5" d="M74.9,32.28V16.66a16.57,16.57,0,1,0-33.14,0V32.28A3.77,3.77,0,0,0,45.52,36H71.14A3.77,3.77,0,0,0,74.9,32.28Z"/>
      </g>
      <ellipse class="cls-6" cx="63.26" cy="3.45" rx="1.56" ry="3.36" transform="translate(41.22 62.85) rotate(-72.76)"/>
      <ellipse class="cls-6" cx="46.63" cy="3.45" rx="3.11" ry="1.45" transform="translate(1.35 15.1) rotate(-18.65)"/>
      <ellipse class="cls-6" cx="55.09" cy="1.88" rx="3.11" ry="1.45"/>
      <ellipse class="cls-6" cx="51.64" cy="5.96" rx="3.11" ry="1.45"/>
      <ellipse class="cls-6" cx="58.85" cy="5.96" rx="3.11" ry="1.45"/>
    </g>
  </g>
</svg>
