<svg xmlns="http://www.w3.org/2000/svg" width="110" height="110" viewBox="0 0 110 110">
  <defs>
    <style>
      .cls-1 {
        fill: #a9d6a1;
      }

      .cls-2 {
        fill: #bce5b3;
      }

      .cls-3 {
        fill: #8eaf87;
      }

      .cls-4 {
        fill: #a9c9a1;
      }

      .cls-5 {
        fill: #bcbbb8;
      }

      .cls-6 {
        fill: #e5e3dc;
      }
    </style>
  </defs>
  <g id="azucar">
    <g>
      <g>
        <g>
          <path class="cls-1" d="M93.4,38.86c-.14,5.49-5.2,10-11.38,10H35.22V110h45.1C91.11,110,100,102.1,100,92.44V46.75A8.45,8.45,0,0,0,93.4,38.86Z"/>
          <path class="cls-2" d="M88.06,20.63H35.22V48.81H82c6.18,0,11.24-4.46,11.38-10,0-.08,0-.16,0-.24V25.41A5.1,5.1,0,0,0,88.06,20.63Z"/>
          <path class="cls-3" d="M27.5,48.81c-6,0-10.91-4.39-10.91-9.76v-.19a8.47,8.47,0,0,0-6.54,7.89V93.18c0,9.25,8.47,16.82,18.81,16.82h6.36V48.81Z"/>
          <path class="cls-4" d="M21.94,20.63a5.1,5.1,0,0,0-5.35,4.78V39.05c0,5.37,4.91,9.76,10.91,9.76h7.72V20.63Z"/>
        </g>
        <g>
          <path class="cls-5" d="M56,4.13c15.94,0,28.6,14.11,32.53,20.53.82-.41,1.28-.84,1.28-1.28C89.77,20.72,75.27,0,56,0S19.85,20.72,19.85,23.38c0,.47.5.92,1.42,1.35C25.69,18.34,40,4.13,56,4.13Z"/>
          <path class="cls-6" d="M88.49,24.66C84.56,18.24,71.9,4.13,56,4.13S25.69,18.34,21.27,24.73c4.25,2,17.65,3.46,33.54,3.46C70.87,28.19,84.39,26.7,88.49,24.66Z"/>
        </g>
      </g>
      <g>
        <path d="M22.62,83.78A5.09,5.09,0,0,1,19.4,81a8.91,8.91,0,0,1-.68-3.55,5.35,5.35,0,0,1,.17-1.55c.12-.38.29-.5.55-.35s.66.91.88,2a3.43,3.43,0,0,0,2.22,2.89,4.72,4.72,0,0,0,3.39,0,2.13,2.13,0,0,0,1.61-2.29,5.28,5.28,0,0,0-1.46-3.36,11.39,11.39,0,0,0-3-1.69,5.56,5.56,0,0,1-2.53-2.28A8.57,8.57,0,0,1,19.48,66c.06-2.22.46-3.9,1.31-4.95s1.81-1,3.08-.46a11.47,11.47,0,0,1,2.06,1.39c1.12.88,1.83,1.65,1.92,2.3a1.73,1.73,0,0,1-.2,1.16.72.72,0,0,1-1,.27,6.46,6.46,0,0,1-1.37-.86A8.61,8.61,0,0,0,24,64a1.88,1.88,0,0,0-1.91.09,2.07,2.07,0,0,0-.84,1.84,2.9,2.9,0,0,0,.28,1.21,2.47,2.47,0,0,0,.87,1c.63.4,1.48.77,2.27,1.18a10.94,10.94,0,0,1,3.9,3.59,15,15,0,0,1,2.45,6.41c.41,2.92-.55,4.45-2.81,5A10.37,10.37,0,0,1,22.62,83.78Z"/>
        <path d="M44,85.35A4.13,4.13,0,0,1,42.53,87a2.7,2.7,0,0,1-2,.44,8.12,8.12,0,0,1-4-1.45c-2.21-1.76-3.89-5.6-4.81-11.63-.08-.58-.19-1.43-.33-2.54s-.24-1.92-.32-2.45-.16-1.06-.27-1.85-.19-1.33-.25-1.69a4.44,4.44,0,0,1,0-1.79.73.73,0,0,1,1.07-.56,3.26,3.26,0,0,1,1.23.7,2.14,2.14,0,0,1,.77,1.23c.08.45.2,1.17.38,2.27l.43,2.65c.09.52.2,1.3.34,2.39s.25,1.92.34,2.47a30.69,30.69,0,0,0,1.19,5,9.18,9.18,0,0,0,1.89,3.58,4.26,4.26,0,0,0,2.16.8c1.73.29,2.61-1.44,2.87-6.54.14-2.64,0-6.85-.1-10.54a2.58,2.58,0,0,1,.27-1.29,1.2,1.2,0,0,1,1.22-.69,1.18,1.18,0,0,1,1,.56,1.75,1.75,0,0,1,.27,1c0,3.27,0,7.14-.17,9.68C45.47,80.57,44.86,83.57,44,85.35Z"/>
        <path d="M59.42,80c-.73,3.51-1.74,5.95-3.12,7.36a5.31,5.31,0,0,1-4.68,1.54,4,4,0,0,1-3.4-1.8c-.68-1.14-1-3-.91-6.12a33,33,0,0,1,1.3-8.92A12,12,0,0,1,52.27,66a5,5,0,0,1,3.27-1.12,6.54,6.54,0,0,1,2.61.67c1.23.56,1.73,1.26,1.68,2.1A2.77,2.77,0,0,1,59.37,69a1.18,1.18,0,0,1-1,.64c-.19,0-.57-.3-1.2-.85A2.8,2.8,0,0,0,55.36,68c-.63,0-1.55.81-2.74,2.85a23.17,23.17,0,0,0-2.71,10.39,9.33,9.33,0,0,0,.25,3.59,1.89,1.89,0,0,0,1.77,1.06,3.06,3.06,0,0,0,2.58-1.06A10,10,0,0,0,56.6,80.5a8.81,8.81,0,0,0-3.93,1.44,1,1,0,0,1-.6.19c-.39,0-.69-.31-.92-.84a3.62,3.62,0,0,1-.27-1.61c.09-1.76,1.36-3,3.79-3.59a18.5,18.5,0,0,1,4.5-.53c.35,0,.61.23.79.7A3.72,3.72,0,0,1,60.12,78,3.84,3.84,0,0,1,59.42,80Z"/>
        <path d="M73,87.33c-.83.1-1.76-.44-2.65-2a12.92,12.92,0,0,1-1.41-3.82c-.69.24-1.82.55-3.08.88a11.64,11.64,0,0,0-2.33.79c-.27,1.2-.62,3-1.18,4.73a1.11,1.11,0,0,1-1,.84,1.09,1.09,0,0,1-.89-.32,1.32,1.32,0,0,1-.37-1.08c0-.42.53-1.84,1.51-5.19a4.12,4.12,0,0,1,0-1,2,2,0,0,1,.81-1.36c.88-2.94,1.59-6.12,2.63-9,1.51-4.19,2.65-5.76,3.15-5.86a1.76,1.76,0,0,1,2.15,1.38c.28.92.59,2.55,1,4.83.58,3.06,1.24,6.88,2.22,10.55a11.12,11.12,0,0,0,.87,1.83,4.92,4.92,0,0,1,.68,1.71,1.69,1.69,0,0,1-.6,1.38A2.63,2.63,0,0,1,73,87.33Zm-5.5-15.11c-.66,1.58-1.57,3.82-2.55,6.61a7.16,7.16,0,0,1,1.5-.49c.87-.22,1.51-.38,1.76-.47C68,76.43,67.79,74.49,67.48,72.22Z"/>
        <path d="M91.83,82.51q-.37.21-.78-.21c-1.76-2-4.69-3.08-8.49-3.37.1,3,.23,4.52.25,4.82a2,2,0,0,1-.56,1.48,2.6,2.6,0,0,1-1.53.85,2.4,2.4,0,0,1-1.66-.21,1.37,1.37,0,0,1-.74-1.17c0-.7-.07-1.76-.07-3.3s0-2.75,0-3.57c0-5.27.23-8.3.06-13.23a3.14,3.14,0,0,1,.56-1.9,3.29,3.29,0,0,1,2.31-1.43c2.68-.44,3.91-.61,4-.61a6.39,6.39,0,0,1,3.32.39c3.59,1.67,3.88,4.63,3.83,7.79a10.32,10.32,0,0,1-.62,3.62,8,8,0,0,1-2.57,3.36c2,.91,2.86,1.88,3.3,3a3.45,3.45,0,0,1,.17,1.13,5.85,5.85,0,0,1-.19,1.56A1.59,1.59,0,0,1,91.83,82.51ZM84.62,65.13l-1.82.22c0,3.43,0,5.25-.08,8.74l.69-.13a11.09,11.09,0,0,0,5.1-2.11,6.12,6.12,0,0,0,1.1-1.35,2.57,2.57,0,0,0,.47-1.12,3.68,3.68,0,0,0-1.54-3.14A5.43,5.43,0,0,0,84.62,65.13Z"/>
      </g>
    </g>
  </g>
</svg>
