<svg xmlns="http://www.w3.org/2000/svg" width="110" height="110" viewBox="0 0 110 110">
  <defs>
    <style>
      .cls-1 {
        fill: #e43c02;
      }
    </style>
  </defs>
  <g id="Layer_33" data-name="Layer 33">
    <g>
      <path class="cls-1" d="M90.39,5.26a1.77,1.77,0,0,1,2.18-1.45,6.59,6.59,0,0,1,2.69.81,5.67,5.67,0,0,0,2.33,1.13c.58.07,1.19.69,1.82,1.85.27.88.19,1.5-.26,1.86a15.11,15.11,0,0,0-1.46,1.39q-15.89,19-31.27,37.86T35.47,86.93q-4.11,4.62-7.9,9.37a110,110,0,0,1-7.94,8.9c-1.83,1.13-3.08,1.19-3.76.16,0,.13-.31.11-.78-.07a12.68,12.68,0,0,1-1.46-.69,13.58,13.58,0,0,1-1.49-.92c-.49-.34-.68-.64-.57-.91l-.12-.28,0-.48.39-1q8-9.33,15.5-18.29T42.06,64.84q7.26-8.93,14.61-18.06T71.89,28a36,36,0,0,1,3.17-3.72c2-2.21,4.13-4.62,6.36-7.2S85.69,12,87.53,9.68,90.32,5.85,90.39,5.26ZM19.8,100a6.5,6.5,0,0,1-1.88-.5l-1.22,1.37,1.2.47c.13,0,.19.11.16.18s0,.12.17.17c.23-.21.48-.46.75-.74S19.51,100.32,19.8,100ZM28,89.56,26.59,89l-2.76,3.54,2,.1Zm1.47-3.81-.35.32,1.4.55c.1-.27.2-.42.3-.46s.19-.2.29-.46ZM33,81.37a9.14,9.14,0,0,1,1.56.14l.71-.64a2.56,2.56,0,0,0-.74-.18,1.93,1.93,0,0,1-.74-.17Zm8.49-8.23.94-1.24-1.28-.27L39.94,73Zm5.37-8.51a3.36,3.36,0,0,0,1.36.07l3-3.67L50,60.77Zm10.35-13a20.59,20.59,0,0,1-1.81,2.29L57,54l1.53-2.17ZM62.78,45l1.28.27a20.34,20.34,0,0,1,3.11-3.87L66,40.94Zm8.29-8.3-1.28-.27a3.16,3.16,0,0,0-.87,1l1,.39Zm1.39-3.61a3.18,3.18,0,0,1,1.36.07L77.29,29l-1.2-.46a2.29,2.29,0,0,1-.38.66,1.79,1.79,0,0,0-.29.46ZM81,24.19A2.33,2.33,0,0,1,79.91,24c-.11.27-.21.42-.3.46a.47.47,0,0,0-.21.26l1,.39a.94.94,0,0,1,.25-.36A1.46,1.46,0,0,0,81,24.19Zm5.82-7.88c-.53.57-1.07,1.16-1.62,1.79s-1.12,1.3-1.69,2l.88.11a23,23,0,0,0,1.51-1.83,21.55,21.55,0,0,1,1.52-1.84Zm7-7.41a.46.46,0,0,0-.34,0,.45.45,0,0,1-.34,0L90.4,12.41l.4.15a19.87,19.87,0,0,0,1.51-1.83A21.38,21.38,0,0,1,93.83,8.9Z"/>
      <path class="cls-1" d="M22.47,9.68q2.76,3.54,6.11,7.43c2.23,2.58,4.35,5,6.36,7.2A36,36,0,0,1,38.11,28Q46,37.64,53.33,46.78T67.94,64.84q7.26,8.93,14.77,17.88T98.21,101l.39,1,0,.48-.12.28c.11.27-.08.57-.57.91a13.58,13.58,0,0,1-1.49.92,12.68,12.68,0,0,1-1.46.69c-.47.18-.73.2-.78.07-.68,1-1.93,1-3.76-.16a110,110,0,0,1-7.94-8.9q-3.8-4.74-7.9-9.37Q59,67.61,43.58,48.71T12.31,10.85a15.11,15.11,0,0,0-1.46-1.39c-.45-.36-.53-1-.26-1.86.63-1.16,1.24-1.78,1.82-1.85a5.67,5.67,0,0,0,2.33-1.13,6.59,6.59,0,0,1,2.69-.81,1.77,1.77,0,0,1,2.18,1.45C19.68,5.85,20.64,7.33,22.47,9.68Zm-4.78,1.05a19.87,19.87,0,0,0,1.51,1.83l.4-.15L16.85,8.87a.45.45,0,0,1-.34,0,.46.46,0,0,0-.34,0A21.38,21.38,0,0,1,17.69,10.73Zm4.9,5.81a21.55,21.55,0,0,1,1.52,1.84,23,23,0,0,0,1.51,1.83l.88-.11c-.57-.7-1.14-1.37-1.69-2s-1.09-1.22-1.62-1.79Zm6.76,8.21a.94.94,0,0,1,.25.36l1-.39a.47.47,0,0,0-.21-.26c-.09,0-.19-.19-.3-.46a2.33,2.33,0,0,1-1.08.19A1.46,1.46,0,0,0,29.35,24.75Zm5.23,4.88a1.79,1.79,0,0,0-.29-.46,2.29,2.29,0,0,1-.38-.66l-1.2.46,3.47,4.19a3.18,3.18,0,0,1,1.36-.07Zm5.5,8.24,1-.39a3.16,3.16,0,0,0-.87-1l-1.28.27Zm4,3.07-1.2.46a20.34,20.34,0,0,1,3.11,3.87L47.22,45ZM51.5,51.87,53,54l1.56-.15a20.59,20.59,0,0,1-1.81-2.29ZM60,60.77,58.74,61l3,3.67a3.36,3.36,0,0,0,1.36-.07ZM70.06,73l-1.22-1.37-1.28.27.94,1.24Zm6.14,7.52a1.93,1.93,0,0,1-.74.17,2.56,2.56,0,0,0-.74.18l.71.64A9.14,9.14,0,0,1,77,81.37Zm2.7,5.18c.1.26.2.42.29.46s.2.19.3.46l1.4-.55-.35-.32Zm5.23,7,2-.1L83.41,89l-1.4.55ZM91,100.92c.27.28.52.53.75.74.14,0,.19-.11.17-.17s0-.13.16-.18l1.2-.47-1.22-1.37a6.5,6.5,0,0,1-1.88.5C90.49,100.32,90.76,100.64,91,100.92Z"/>
    </g>
  </g>
</svg>
