<svg xmlns="http://www.w3.org/2000/svg" xmlns:xlink="http://www.w3.org/1999/xlink" width="1920" height="1080" viewBox="0 0 1920 1080">
  <defs>
    <style>
      .cls-1 {
        fill: none;
      }

      .cls-2 {
        clip-path: url(#clip-path);
      }

      .cls-3 {
        fill: #c2e6ff;
      }

      .cls-4 {
        fill: #d2dadb;
      }

      .cls-5 {
        fill: #519eae;
      }

      .cls-6 {
        fill: #398791;
      }

      .cls-7 {
        fill: #81ba7a;
      }

      .cls-8 {
        fill: #b5aa92;
      }

      .cls-9 {
        fill: #9cd893;
      }

      .cls-10 {
        fill: #71aa6b;
      }

      .cls-11 {
        fill: #9ed197;
      }

      .cls-12 {
        fill: #ccedbd;
      }

      .cls-13 {
        fill: #95d27c;
      }

      .cls-14 {
        fill: #aa9571;
      }

      .cls-15 {
        fill: #6dac67;
      }

      .cls-16 {
        clip-path: url(#clip-path-2);
      }

      .cls-17 {
        fill: #5b9b56;
      }

      .cls-18 {
        fill: #3e7738;
      }
    </style>
    <clipPath id="clip-path">
      <rect class="cls-1" x="-1" width="1921" height="1079"/>
    </clipPath>
    <clipPath id="clip-path-2">
      <rect class="cls-1" x="-2163" y="5" width="1920" height="1080"/>
    </clipPath>
  </defs>
  <g id="welcome_page" data-name="welcome page">
    <g class="cls-2">
      <rect id="sky" class="cls-3" x="-30" y="-54" width="1970" height="1155"/>
      <g id="mountains">
        <g>
          <path class="cls-4" d="M802.38,628.26a47.17,47.17,0,0,1-54.79-23.51A204.26,204.26,0,0,1,723,623.34l6.94,39.4a47,47,0,0,1-92.57,16.31l-4.25-24.15q-7,.74-14.13,1V740a47,47,0,0,1-94,0V636.81a206,206,0,0,1-63.77-46.49L414.75,665.8a47,47,0,0,1-86.51-31.49l97.19-97.18L529.8,432.76c45.11-45.11,118.93-45.11,164,0L835.48,574.4A47.14,47.14,0,0,1,802.38,628.26Z"/>
          <path class="cls-5" d="M1073.34,869a115.85,115.85,0,0,0-33.54-90.29L835.48,574.4a47,47,0,0,1-87.89,30.35A204.26,204.26,0,0,1,723,623.34l6.94,39.4a47,47,0,0,1-92.57,16.31l-4.25-24.15q-7,.74-14.13,1V740a47,47,0,0,1-94,0V636.81a206,206,0,0,1-63.77-46.49L414.75,665.8a47,47,0,0,1-86.51-31.49l-144.4,144.4A115.85,115.85,0,0,0,150.3,869Z"/>
        </g>
        <g>
          <path class="cls-4" d="M1065.17,610.79l49.27-59.93c19,15.35,42,27.95,67.59,36.91v81.92c0,20.52,22.41,37.31,49.81,37.31s49.82-16.79,49.82-37.31V602.9q7.56-.18,15-.77l4.51,19.17c4.75,20.22,30.71,33.84,57.7,30.27s45.17-23,40.41-43.21l-7.35-31.28a222.11,222.11,0,0,0,26-14.76c10.7,15.44,34.94,23.68,58.07,18.66a54.9,54.9,0,0,0,20.15-8.61L1362.88,439.08c-49-49-129.08-49-178.05,0L999.65,624.27C1022.55,633.26,1051.41,627.52,1065.17,610.79Z"/>
          <path class="cls-6" d="M1774.28,917a125.84,125.84,0,0,0-36-102.52L1496.17,572.37A54.9,54.9,0,0,1,1476,581c-23.13,5-47.37-3.22-58.07-18.66a222.11,222.11,0,0,1-26,14.76l7.35,31.28c4.76,20.21-13.43,39.65-40.41,43.21s-52.95-10.05-57.7-30.27l-4.51-19.17q-7.41.58-15,.77v66.79c0,20.52-22.42,37.31-49.82,37.31S1182,690.21,1182,669.69V587.77c-25.64-9-48.57-21.56-67.59-36.91l-49.27,59.93c-13.76,16.73-42.62,22.47-65.52,13.48L809.43,814.48a125.8,125.8,0,0,0-36,102.52Z"/>
        </g>
      </g>
      <g id="backtree">
        <g>
          <rect class="cls-7" x="350.37" y="44.71" width="496.97" height="135.24" rx="67.62" transform="translate(484.7 710.84) rotate(-89.82)"/>
          <rect class="cls-7" x="484.62" y="51.85" width="330.56" height="89.96" rx="44.98" transform="translate(551.08 746.43) rotate(-89.82)"/>
          <rect class="cls-7" x="343.35" y="68.25" width="330.56" height="89.96" rx="44.98" transform="translate(393.85 621.51) rotate(-89.82)"/>
          <rect class="cls-7" x="588.18" y="4.45" width="213.85" height="58.19" rx="29.1" transform="translate(659.43 728.55) rotate(-89.82)"/>
          <rect class="cls-7" x="357.15" y="16.88" width="213.85" height="58.19" rx="29.1" transform="translate(416.67 509.9) rotate(-89.82)"/>
        </g>
        <g id="tronco">
          <polygon class="cls-8" points="570.14 93.59 540.25 93.59 526.52 830.82 583.87 830.82 570.14 93.59"/>
          <g>
            <path class="cls-8" d="M601.61,416.82l.23-13.36-43.39,52.9c-5.32,6.5-8.35,14.18-6.37,16.65l17.7,22.05c2,2.47,7.53-2.06,12-9.58L618.69,424H604.1C602.66,424,601.54,420.74,601.61,416.82Z"/>
            <path class="cls-8" d="M610.16,398.93l11.2,14a2.48,2.48,0,0,1,.26.42l-5.08-291.44h-9.67c-.07,0-.12.07-.13.16l-4.9,281.43,1.6-1.95C605.93,398.47,608.91,397.37,610.16,398.93Z"/>
            <path class="cls-8" d="M621.67,417.73c0-.3,0-.6,0-.91l-.06-3.51a2.48,2.48,0,0,0-.26-.42l-11.2-14c-1.25-1.56-4.23-.46-6.72,2.58l-1.6,1.95-.23,13.36c-.07,3.92,1,7.16,2.49,7.16h14.59l1.19-2A15.64,15.64,0,0,0,621.67,417.73Z"/>
          </g>
          <g>
            <path class="cls-8" d="M630.67,298.83l.11-7.25L609.92,320.3c-2.56,3.52-4,7.69-3.06,9l8.51,12c1,1.34,3.62-1.12,5.78-5.2l17.73-33.39h-7C631.18,302.72,630.64,301,630.67,298.83Z"/>
            <path class="cls-8" d="M634.78,289.12l5.39,7.58a2.42,2.42,0,0,1,.12.23l-2.44-158.21H633.2s-.06,0-.06.09l-2.36,152.77.77-1.06C632.75,288.87,634.18,288.27,634.78,289.12Z"/>
            <path class="cls-8" d="M640.31,299.32c0-.16,0-.32,0-.49l0-1.9a2.42,2.42,0,0,0-.12-.23l-5.39-7.58c-.6-.85-2-.25-3.23,1.4l-.77,1.06-.11,7.25c0,2.13.51,3.89,1.2,3.89h7l.57-1.08A8.87,8.87,0,0,0,640.31,299.32Z"/>
          </g>
          <g>
            <path class="cls-8" d="M523.51,315.23l-.13-8.72,25.11,34.57c3.08,4.24,4.83,9.26,3.68,10.87l-10.24,14.42c-1.14,1.61-4.35-1.35-7-6.26l-21.35-40.19h8.44C522.9,319.92,523.55,317.8,523.51,315.23Z"/>
            <path class="cls-8" d="M518.56,303.54l-6.48,9.13a1.17,1.17,0,0,0-.15.27l2.94-190.47h5.6s.07,0,.07.11l2.84,183.93-.93-1.28C521,303.24,519.28,302.52,518.56,303.54Z"/>
            <path class="cls-8" d="M511.9,315.83c0-.2,0-.4,0-.6l0-2.29a1.17,1.17,0,0,1,.15-.27l6.48-9.13c.72-1,2.45-.3,3.89,1.69l.93,1.28.13,8.72c0,2.57-.61,4.69-1.45,4.69h-8.44l-.69-1.3A11.16,11.16,0,0,1,511.9,315.83Z"/>
          </g>
          <g>
            <path class="cls-8" d="M496.82,218.63l-.05-3.26,9.38,12.91a46.13,46.13,0,0,0,8.46,7.8v12c-.43.6-12.54-10.9-13.51-12.74l-8-15h3.15C496.59,220.38,496.84,219.58,496.82,218.63Z"/>
            <path class="cls-8" d="M495,214.26l-2.42,3.41a.31.31,0,0,0-.05.1l1.1-71.12h2.09s0,0,0,0l1.06,68.68-.34-.48C495.89,214.15,495.24,213.88,495,214.26Z"/>
            <path class="cls-8" d="M492.49,218.85a1.62,1.62,0,0,1,0-.22l0-.86a.31.31,0,0,1,.05-.1l2.42-3.41c.27-.38.92-.11,1.46.63l.34.48.05,3.26c0,1-.23,1.75-.54,1.75h-3.15l-.26-.49A4,4,0,0,1,492.49,218.85Z"/>
          </g>
          <g>
            <path class="cls-8" d="M622.28,219.38l.07-3.59L610.7,230c-1.43,1.74-2.24,3.8-1.71,4.46l4.75,5.93c.53.66,2-.56,3.23-2.58l9.9-16.51H623C622.57,221.3,622.27,220.43,622.28,219.38Z"/>
            <path class="cls-8" d="M624.58,214.58l3,3.74.07.12-1.37-78.25H623.7a0,0,0,0,0,0,0l-1.31,75.56.43-.52C623.45,214.45,624.25,214.16,624.58,214.58Z"/>
            <path class="cls-8" d="M627.67,219.62v-1.18l-.07-.12-3-3.74c-.33-.42-1.13-.13-1.8.69l-.43.52-.07,3.59c0,1.05.29,1.92.67,1.92h3.92l.32-.53A4.15,4.15,0,0,0,627.67,219.62Z"/>
          </g>
        </g>
        <g>
          <rect class="cls-9" x="484.53" y="-262.94" width="135.24" height="496.97" rx="67.62" transform="matrix(1, 0, 0, 1, 0.05, 1.69)"/>
          <rect class="cls-9" x="558.21" y="-164.24" width="89.96" height="330.56" rx="44.98" transform="translate(0 1.85) rotate(-0.18)"/>
          <rect class="cls-9" x="416.95" y="-180.64" width="89.96" height="330.56" rx="44.98" transform="translate(0.05 1.41) rotate(-0.18)"/>
          <rect class="cls-9" x="619.3" y="-42.6" width="58.19" height="213.85" rx="29.1" transform="translate(-0.19 1.98) rotate(-0.18)"/>
          <rect class="cls-9" x="388.27" y="-55.03" width="58.19" height="213.85" rx="29.1" transform="translate(-0.16 1.28) rotate(-0.18)"/>
        </g>
      </g>
      <g>
        <rect class="cls-7" x="1179.77" y="581.86" width="281.07" height="129.62" rx="64.81" transform="translate(654.21 1957.28) rotate(-89.15)"/>
        <rect class="cls-7" x="1275.56" y="613.14" width="186.95" height="86.22" rx="43.11" transform="translate(692.65 2015.44) rotate(-89.15)"/>
        <rect class="cls-7" x="1140.37" y="601.62" width="186.95" height="86.22" rx="43.11" transform="translate(570.98 1868.92) rotate(-89.15)"/>
        <rect class="cls-7" x="1351.17" y="664.85" width="120.94" height="55.77" rx="27.89" transform="translate(698.14 2094.01) rotate(-89.15)"/>
        <rect class="cls-7" x="1129.92" y="654.16" width="120.94" height="55.77" rx="27.89" transform="translate(490.84 1862.23) rotate(-89.15)"/>
      </g>
      <g>
        <rect class="cls-7" x="1346.77" y="639.86" width="281.07" height="129.62" rx="64.81" transform="translate(760.75 2181.41) rotate(-89.15)"/>
        <rect class="cls-7" x="1442.56" y="671.14" width="186.95" height="86.22" rx="43.11" transform="translate(799.2 2239.57) rotate(-89.15)"/>
        <rect class="cls-7" x="1307.37" y="659.62" width="186.95" height="86.22" rx="43.11" transform="translate(677.52 2093.05) rotate(-89.15)"/>
        <rect class="cls-7" x="1518.17" y="722.85" width="120.94" height="55.77" rx="27.89" transform="translate(804.68 2318.13) rotate(-89.15)"/>
        <rect class="cls-7" x="1296.92" y="712.16" width="120.94" height="55.77" rx="27.89" transform="translate(597.38 2086.36) rotate(-89.15)"/>
      </g>
      <g>
        <rect class="cls-7" x="1575.77" y="678.86" width="281.07" height="129.62" rx="64.81" transform="translate(947.38 2448.8) rotate(-89.15)"/>
        <rect class="cls-7" x="1671.56" y="710.14" width="186.95" height="86.22" rx="43.11" transform="translate(985.82 2506.97) rotate(-89.15)"/>
        <rect class="cls-7" x="1536.37" y="698.62" width="186.95" height="86.22" rx="43.11" transform="translate(864.14 2360.45) rotate(-89.15)"/>
        <rect class="cls-7" x="1747.17" y="761.85" width="120.94" height="55.77" rx="27.89" transform="translate(991.3 2585.53) rotate(-89.15)"/>
        <rect class="cls-7" x="1525.92" y="751.16" width="120.94" height="55.77" rx="27.89" transform="translate(784.01 2353.76) rotate(-89.15)"/>
      </g>
      <g>
        <rect class="cls-7" x="1660.77" y="712.86" width="281.07" height="129.62" rx="64.81" transform="translate(997.12 2567.29) rotate(-89.15)"/>
        <rect class="cls-7" x="1756.56" y="744.14" width="186.95" height="86.22" rx="43.11" transform="translate(1035.57 2625.46) rotate(-89.15)"/>
        <rect class="cls-7" x="1621.37" y="732.62" width="186.95" height="86.22" rx="43.11" transform="translate(913.89 2478.94) rotate(-89.15)"/>
        <rect class="cls-7" x="1832.17" y="795.85" width="120.94" height="55.77" rx="27.89" transform="translate(1041.05 2704.02) rotate(-89.15)"/>
        <rect class="cls-7" x="1610.92" y="785.16" width="120.94" height="55.77" rx="27.89" transform="translate(833.76 2472.25) rotate(-89.15)"/>
      </g>
      <g>
        <rect class="cls-10" x="444.43" y="497.17" width="216.68" height="431.99" rx="103.89" transform="translate(1116.01 1418.1) rotate(179.15)"/>
        <rect class="cls-10" x="399.22" y="584.31" width="144.12" height="287.34" rx="69.1" transform="translate(953.25 1448.93) rotate(179.15)"/>
        <rect class="cls-10" x="625.23" y="566.34" width="144.12" height="287.34" rx="69.1" transform="translate(1404.98 1409.66) rotate(179.15)"/>
        <rect class="cls-10" x="353.37" y="691.22" width="93.24" height="185.89" rx="44.7" transform="translate(811.5 1562.34) rotate(179.15)"/>
        <rect class="cls-10" x="723.25" y="674.34" width="93.24" height="185.89" rx="44.7" transform="translate(1550.98 1523.12) rotate(179.15)"/>
      </g>
      <g>
        <rect class="cls-10" x="38.34" y="609.54" width="192.08" height="382.95" rx="92.09" transform="translate(280.57 1599.97) rotate(179.15)"/>
        <rect class="cls-10" x="-1.74" y="686.79" width="127.76" height="254.72" rx="61.26" transform="translate(136.3 1627.3) rotate(179.15)"/>
        <rect class="cls-10" x="198.61" y="670.86" width="127.76" height="254.72" rx="61.26" transform="translate(536.75 1592.49) rotate(179.15)"/>
        <rect class="cls-10" x="-42.39" y="781.56" width="82.65" height="164.79" rx="39.63" transform="translate(10.63 1727.84) rotate(179.15)"/>
        <rect class="cls-10" x="285.51" y="766.6" width="82.65" height="164.79" rx="39.63" transform="translate(666.17 1693.07) rotate(179.15)"/>
      </g>
      <g>
        <rect class="cls-11" x="839.12" y="650.38" width="107.77" height="233.69" rx="53.88" transform="translate(-11.23 13.27) rotate(-0.85)"/>
        <rect class="cls-11" x="816.64" y="697.46" width="71.68" height="155.44" rx="35.84" transform="translate(-11.35 12.67) rotate(-0.85)"/>
        <rect class="cls-11" x="929.04" y="687.89" width="71.68" height="155.44" rx="35.84" transform="translate(-11.2 14.33) rotate(-0.85)"/>
        <rect class="cls-11" x="793.87" y="755.25" width="46.37" height="100.56" rx="23.19" transform="translate(-11.8 12.15) rotate(-0.85)"/>
        <rect class="cls-11" x="977.83" y="746.35" width="46.37" height="100.56" rx="23.19" transform="translate(-11.65 14.86) rotate(-0.85)"/>
      </g>
      <path id="middlegrass" class="cls-12" d="M-29.81,754.56A2264.75,2264.75,0,0,0,301,801.26c75.87,5.06,238,12,447.07-14.29,201.76-25.4,298.73-63.12,409-86.75,172.85-37.06,432.15-51,790.23,70.54v346H-33.62Z"/>
      <path id="frontgrass" class="cls-13" d="M-26,902.31A2284.78,2284.78,0,0,1,473.5,908c185.18,22.56,204,48.09,365.09,69.58,238.68,31.86,348.45-4,715.89-30.5,124.6-9,311.57-19.25,543.35-19.06v266H-24.09Z"/>
      <g id="middletree">
        <g>
          <rect class="cls-7" x="1250.67" y="-162.37" width="171.2" height="629.12" rx="85.6" transform="translate(-0.46 4.09) rotate(-0.18)"/>
          <rect class="cls-7" x="1214.72" y="-76.66" width="113.88" height="418.46" rx="56.94" transform="translate(-0.4 3.89) rotate(-0.18)"/>
          <rect class="cls-7" x="1393.55" y="-55.9" width="113.88" height="418.46" rx="56.94" transform="translate(-0.46 4.44) rotate(-0.18)"/>
          <rect class="cls-7" x="1177.6" y="-82.89" width="73.67" height="270.71" rx="36.83" transform="translate(-0.15 3.72) rotate(-0.18)"/>
          <rect class="cls-7" x="1470.07" y="-67.16" width="73.67" height="270.71" rx="36.83" transform="translate(-0.2 4.61) rotate(-0.18)"/>
        </g>
        <g id="tronco-2" data-name="tronco">
          <polygon class="cls-14" points="1399.47 -42.35 1350.13 -42.35 1327.46 976.66 1422.14 976.66 1399.47 -42.35"/>
          <g>
            <path class="cls-14" d="M1451.42,404.43l.38-18.46-71.62,73.11c-8.79,9-13.79,19.6-10.52,23l29.21,30.49c3.27,3.41,12.43-2.86,19.87-13.25l60.88-85h-24.08C1453.16,414.33,1451.3,409.84,1451.42,404.43Z"/>
            <path class="cls-14" d="M1465.54,379.7,1484,399a3,3,0,0,1,.42.57L1476.07-3.26h-16a.21.21,0,0,0-.2.22l-8.1,389,2.65-2.71C1458.56,379.07,1463.47,377.54,1465.54,379.7Z"/>
            <path class="cls-14" d="M1484.54,405.68c0-.41,0-.83,0-1.25l-.1-4.86a3,3,0,0,0-.42-.57l-18.49-19.3c-2.07-2.16-7-.63-11.09,3.56L1451.8,386l-.38,18.46c-.12,5.41,1.74,9.9,4.12,9.9h24.08l2-2.74A20.41,20.41,0,0,0,1484.54,405.68Z"/>
          </g>
          <g>
            <path class="cls-14" d="M1499.39,241.34l.19-10L1465.14,271c-4.22,4.88-6.62,10.64-5.05,12.49l14,16.55c1.57,1.85,6-1.55,9.55-7.19L1513,246.72h-11.58C1500.23,246.72,1499.34,244.28,1499.39,241.34Z"/>
            <path class="cls-14" d="M1506.18,227.92l8.89,10.48a1.38,1.38,0,0,1,.2.31l-4-218.68h-7.67a.11.11,0,0,0-.1.12l-3.89,211.17,1.27-1.47C1502.82,227.58,1505.19,226.75,1506.18,227.92Z"/>
            <path class="cls-14" d="M1515.31,242c0-.22,0-.45,0-.68l0-2.63a1.38,1.38,0,0,0-.2-.31l-8.89-10.48c-1-1.17-3.36-.34-5.33,1.93l-1.27,1.47-.19,10c-.05,2.94.84,5.38,2,5.38H1513l.94-1.49A11.53,11.53,0,0,0,1515.31,242Z"/>
          </g>
          <g>
            <path class="cls-14" d="M1322.5,264l-.22-12.06,41.45,47.78c5.09,5.87,8,12.81,6.09,15l-16.91,19.92c-1.89,2.23-7.19-1.86-11.5-8.65l-35.23-55.55h13.93C1321.49,270.49,1322.56,267.55,1322.5,264Z"/>
            <path class="cls-14" d="M1314.32,247.85l-10.7,12.62a2,2,0,0,0-.24.37l4.85-263.27h9.24a.14.14,0,0,1,.12.15L1322.28,252l-1.54-1.77C1318.37,247.44,1315.52,246.44,1314.32,247.85Z"/>
            <path class="cls-14" d="M1303.33,264.83c0-.27,0-.54,0-.82l.06-3.17a2,2,0,0,1,.24-.37l10.7-12.62c1.2-1.41,4-.41,6.42,2.33l1.54,1.77.22,12.06c.06,3.54-1,6.48-2.39,6.48h-13.93l-1.14-1.8A13.85,13.85,0,0,1,1303.33,264.83Z"/>
          </g>
          <g>
            <path class="cls-14" d="M1278.44,130.48l-.08-4.5,15.48,17.84c1.9,2.19,7.26,6.62,14,10.78v16.64c-.7.83-20.7-15.06-22.3-17.6l-13.16-20.74h5.2C1278.07,132.9,1278.47,131.8,1278.44,130.48Z"/>
            <path class="cls-14" d="M1275.39,124.45l-4,4.71a.42.42,0,0,0-.09.14l1.81-98.3h3.45a0,0,0,0,1,0,.05l1.75,94.93-.57-.66C1276.9,124.29,1275.84,123.92,1275.39,124.45Z"/>
            <path class="cls-14" d="M1271.29,130.79c0-.1,0-.21,0-.31l0-1.18a.42.42,0,0,1,.09-.14l4-4.71c.45-.53,1.51-.16,2.4.87l.57.66.08,4.5c0,1.32-.37,2.42-.89,2.42h-5.2l-.43-.67A5.27,5.27,0,0,1,1271.29,130.79Z"/>
          </g>
          <g>
            <path class="cls-14" d="M1485.55,131.52l.1-5-19.23,19.63c-2.36,2.41-3.7,5.27-2.82,6.18l7.84,8.19c.88.91,3.34-.77,5.34-3.56l16.34-22.82h-6.46C1486,134.18,1485.52,133,1485.55,131.52Z"/>
            <path class="cls-14" d="M1489.34,124.88l5,5.18a.91.91,0,0,1,.11.16l-2.25-108.16h-4.29a.06.06,0,0,0-.05.06l-2.18,104.44.72-.72C1487.47,124.71,1488.79,124.3,1489.34,124.88Z"/>
            <path class="cls-14" d="M1494.44,131.86c0-.11,0-.23,0-.34l0-1.3a.91.91,0,0,0-.11-.16l-5-5.18c-.55-.58-1.87-.17-3,1l-.72.72-.1,5c0,1.45.47,2.66,1.11,2.66h6.46l.53-.74A5.43,5.43,0,0,0,1494.44,131.86Z"/>
          </g>
        </g>
        <g>
          <rect class="cls-15" x="1259.52" y="-213.89" width="188.29" height="413.78" rx="72.8" transform="translate(0.03 4.14) rotate(-0.18)"/>
          <rect class="cls-15" x="1220.01" y="-157.43" width="125.24" height="275.23" rx="48.43" transform="translate(0.07 3.92) rotate(-0.18)"/>
          <rect class="cls-15" x="1416.66" y="-144.02" width="125.24" height="275.23" rx="48.43" transform="translate(0.03 4.53) rotate(-0.18)"/>
          <rect class="cls-15" x="1179.29" y="-161.45" width="81.02" height="178.05" rx="31.33" transform="translate(0.23 3.73) rotate(-0.18)"/>
          <rect class="cls-15" x="1500.93" y="-151.5" width="81.02" height="178.05" rx="31.33" transform="translate(0.2 4.72) rotate(-0.18)"/>
        </g>
      </g>
    </g>
  </g>
  <g id="welcome_forground">
    <g class="cls-16">
      <g>
        <g id="fronttree">
          <g>
            <rect class="cls-17" x="-199.73" y="-211.61" width="237.08" height="514.09" rx="118.54"/>
            <rect class="cls-17" x="-39.24" y="-219.48" width="153.37" height="332.57" rx="76.69"/>
          </g>
          <path class="cls-15" d="M-484.7,83.87a109.5,109.5,0,0,0,16.17,33.5,113.48,113.48,0,0,0,28.88,27.72c29.68,19.63,60.85,18.5,93.55,17.32,33.12-1.19,45.41-8,50.82-11.55,12.21-7.91,16.06-16.11,24.26-26.56,21.53-27.46,60.86-55,101.64-55.44,17.15-.21,30.4,4.42,50.82,11.55,34.83,12.16,36.19,21.73,57.75,27.72C-13.48,121.27,32.7,89.78,39.67,85a145.71,145.71,0,0,0,48.51-56.6V7.64h-574Z"/>
        </g>
        <g>
          <rect class="cls-18" x="-197.07" y="997.31" width="262.33" height="143.24" rx="65.82" transform="translate(-1134.58 999.02) rotate(-89.78)"/>
          <rect class="cls-18" x="-117.1" y="1038.56" width="244.85" height="92.67" rx="46.33" transform="translate(-1079.58 1086.14) rotate(-89.78)"/>
        </g>
      </g>
    </g>
  </g>
</svg>
